<?xml version="1.0" encoding="UTF-8" standalone="no"?>
<!DOCTYPE svg PUBLIC "-//W3C//DTD SVG 1.1//EN"
 "http://www.w3.org/Graphics/SVG/1.1/DTD/svg11.dtd">
<!-- Generated by graphviz version 2.38.0 (20140413.2041)
 -->
<!-- Title: TMC2660Stepper::rdsel Pages: 1 -->
<svg width="468pt" height="186pt"
 viewBox="0.00 0.00 468.00 185.50" xmlns="http://www.w3.org/2000/svg" xmlns:xlink="http://www.w3.org/1999/xlink">
<g id="graph0" class="graph" transform="scale(1 1) rotate(0) translate(4 181.5)">
<title>TMC2660Stepper::rdsel</title>
<polygon fill="white" stroke="none" points="-4,4 -4,-181.5 464,-181.5 464,4 -4,4"/>
<!-- Node1 -->
<g id="node1" class="node"><title>Node1</title>
<g id="a_node1"><a xlink:title=" ">
<polygon fill="#bfbfbf" stroke="black" points="341,-76.5 341,-95.5 460,-95.5 460,-76.5 341,-76.5"/>
<text text-anchor="middle" x="400.5" y="-83.5" font-family="Helvetica,sans-Serif" font-size="10.00">TMC2660Stepper::rdsel</text>
</a>
</g>
</g>
<!-- Node2 -->
<g id="node2" class="node"><title>Node2</title>
<g id="a_node2"><a xlink:href="../../d1/ddf/class_t_m_c2660_stepper.html#a124bab76346c3c6c17f812e8c4ad7a5c" target="_top" xlink:title=" ">
<polygon fill="white" stroke="black" points="150,-114.5 150,-133.5 305,-133.5 305,-114.5 150,-114.5"/>
<text text-anchor="middle" x="227.5" y="-121.5" font-family="Helvetica,sans-Serif" font-size="10.00">TMC2660Stepper::DRVSTATUS</text>
</a>
</g>
</g>
<!-- Node1&#45;&gt;Node2 -->
<g id="edge1" class="edge"><title>Node1&#45;&gt;Node2</title>
<path fill="none" stroke="midnightblue" d="M346.291,-97.8243C322.183,-103.182 294.06,-109.431 271.34,-114.48"/>
<polygon fill="midnightblue" stroke="midnightblue" points="347.347,-101.175 356.349,-95.589 345.828,-94.3417 347.347,-101.175"/>
</g>
<!-- Node3 -->
<g id="node3" class="node"><title>Node3</title>
<g id="a_node3"><a xlink:href="../../d1/ddf/class_t_m_c2660_stepper.html#a51f799cf592f8d9d50d110aaedfe141a" target="_top" xlink:title=" ">
<polygon fill="white" stroke="black" points="3,-147 3,-177 111,-177 111,-147 3,-147"/>
<text text-anchor="start" x="11" y="-165" font-family="Helvetica,sans-Serif" font-size="10.00">TMC2660Stepper::sg</text>
<text text-anchor="middle" x="57" y="-154" font-family="Helvetica,sans-Serif" font-size="10.00">_result</text>
</a>
</g>
</g>
<!-- Node1&#45;&gt;Node3 -->
<g id="edge7" class="edge"><title>Node1&#45;&gt;Node3</title>
<path fill="none" stroke="midnightblue" d="M379.771,-101.698C361.527,-115.248 333.07,-134.016 305,-143 240.69,-163.583 162.36,-166.066 111.395,-164.908"/>
<polygon fill="midnightblue" stroke="midnightblue" points="382.029,-104.377 387.86,-95.5307 377.786,-98.8102 382.029,-104.377"/>
</g>
<!-- Node5 -->
<g id="node5" class="node"><title>Node5</title>
<g id="a_node5"><a xlink:href="../../d1/ddf/class_t_m_c2660_stepper.html#a9be7b8e7d95c08ff349182ff09510124" target="_top" xlink:title=" ">
<polygon fill="white" stroke="black" points="165,-76.5 165,-95.5 290,-95.5 290,-76.5 165,-76.5"/>
<text text-anchor="middle" x="227.5" y="-83.5" font-family="Helvetica,sans-Serif" font-size="10.00">TMC2660Stepper::mstep</text>
</a>
</g>
</g>
<!-- Node1&#45;&gt;Node5 -->
<g id="edge4" class="edge"><title>Node1&#45;&gt;Node5</title>
<path fill="none" stroke="midnightblue" d="M330.547,-86C317.16,-86 303.21,-86 290.078,-86"/>
<polygon fill="midnightblue" stroke="midnightblue" points="330.652,-89.5001 340.652,-86 330.651,-82.5001 330.652,-89.5001"/>
</g>
<!-- Node6 -->
<g id="node6" class="node"><title>Node6</title>
<g id="a_node6"><a xlink:href="../../d1/ddf/class_t_m_c2660_stepper.html#a0f6ee76b23deb7f6d5af711d9b9e2452" target="_top" xlink:title=" ">
<polygon fill="white" stroke="black" points="168,-38.5 168,-57.5 287,-57.5 287,-38.5 168,-38.5"/>
<text text-anchor="middle" x="227.5" y="-45.5" font-family="Helvetica,sans-Serif" font-size="10.00">TMC2660Stepper::rdsel</text>
</a>
</g>
</g>
<!-- Node1&#45;&gt;Node6 -->
<g id="edge5" class="edge"><title>Node1&#45;&gt;Node6</title>
<path fill="none" stroke="midnightblue" d="M346.291,-74.1757C322.183,-68.8184 294.06,-62.5689 271.34,-57.5201"/>
<polygon fill="midnightblue" stroke="midnightblue" points="345.828,-77.6583 356.349,-76.411 347.347,-70.825 345.828,-77.6583"/>
</g>
<!-- Node7 -->
<g id="node7" class="node"><title>Node7</title>
<g id="a_node7"><a xlink:href="../../d1/ddf/class_t_m_c2660_stepper.html#a9c6e8257f10b5e17c9f0fd4db36f022a" target="_top" xlink:title=" ">
<polygon fill="white" stroke="black" points="173.5,-0.5 173.5,-19.5 281.5,-19.5 281.5,-0.5 173.5,-0.5"/>
<text text-anchor="middle" x="227.5" y="-7.5" font-family="Helvetica,sans-Serif" font-size="10.00">TMC2660Stepper::se</text>
</a>
</g>
</g>
<!-- Node1&#45;&gt;Node7 -->
<g id="edge6" class="edge"><title>Node1&#45;&gt;Node7</title>
<path fill="none" stroke="midnightblue" d="M378.111,-70.537C359.574,-57.778 331.617,-40.0373 305,-29 296.025,-25.2782 286.144,-22.1594 276.55,-19.5954"/>
<polygon fill="midnightblue" stroke="midnightblue" points="376.209,-73.4778 386.407,-76.3492 380.225,-67.7448 376.209,-73.4778"/>
</g>
<!-- Node2&#45;&gt;Node3 -->
<g id="edge2" class="edge"><title>Node2&#45;&gt;Node3</title>
<path fill="none" stroke="midnightblue" d="M174.089,-135.82C154.045,-140.34 131.182,-145.496 111.076,-150.03"/>
<polygon fill="midnightblue" stroke="midnightblue" points="174.995,-139.203 183.98,-133.589 173.455,-132.375 174.995,-139.203"/>
</g>
<!-- Node4 -->
<g id="node4" class="node"><title>Node4</title>
<g id="a_node4"><a xlink:href="../../d1/ddf/class_t_m_c2660_stepper.html#a72a9a2ecf2d0707dba76de414cec209e" target="_top" xlink:title=" ">
<polygon fill="white" stroke="black" points="0,-98 0,-128 114,-128 114,-98 0,-98"/>
<text text-anchor="start" x="8" y="-116" font-family="Helvetica,sans-Serif" font-size="10.00">TMC2660Stepper::test</text>
<text text-anchor="middle" x="57" y="-105" font-family="Helvetica,sans-Serif" font-size="10.00">_connection</text>
</a>
</g>
</g>
<!-- Node2&#45;&gt;Node4 -->
<g id="edge3" class="edge"><title>Node2&#45;&gt;Node4</title>
<path fill="none" stroke="midnightblue" d="M139.514,-118.321C130.879,-117.758 122.283,-117.196 114.088,-116.662"/>
<polygon fill="midnightblue" stroke="midnightblue" points="139.44,-121.824 149.646,-118.983 139.896,-114.839 139.44,-121.824"/>
</g>
</g>
</svg>
