<?xml version="1.0" encoding="UTF-8" standalone="no"?>
<!DOCTYPE svg PUBLIC "-//W3C//DTD SVG 1.1//EN"
 "http://www.w3.org/Graphics/SVG/1.1/DTD/svg11.dtd">
<!-- Generated by graphviz version 2.38.0 (20140413.2041)
 -->
<!-- Title: TMC2660Stepper::switchCSpin Pages: 1 -->
<svg width="658pt" height="248pt"
 viewBox="0.00 0.00 658.00 247.50" xmlns="http://www.w3.org/2000/svg" xmlns:xlink="http://www.w3.org/1999/xlink">
<g id="graph0" class="graph" transform="scale(1 1) rotate(0) translate(4 243.5)">
<title>TMC2660Stepper::switchCSpin</title>
<polygon fill="white" stroke="none" points="-4,4 -4,-243.5 654,-243.5 654,4 -4,4"/>
<!-- Node1 -->
<g id="node1" class="node"><title>Node1</title>
<g id="a_node1"><a xlink:title=" ">
<polygon fill="#bfbfbf" stroke="black" points="498,-171.5 498,-190.5 650,-190.5 650,-171.5 498,-171.5"/>
<text text-anchor="middle" x="574" y="-178.5" font-family="Helvetica,sans-Serif" font-size="10.00">TMC2660Stepper::switchCSpin</text>
</a>
</g>
</g>
<!-- Node2 -->
<g id="node2" class="node"><title>Node2</title>
<g id="a_node2"><a xlink:href="../../d1/ddf/class_t_m_c2660_stepper.html#a36fec657eca5845bef6668fd2fce1b54" target="_top" xlink:title=" ">
<polygon fill="white" stroke="black" points="341,-209.5 341,-228.5 462,-228.5 462,-209.5 341,-209.5"/>
<text text-anchor="middle" x="401.5" y="-216.5" font-family="Helvetica,sans-Serif" font-size="10.00">TMC2660Stepper::begin</text>
</a>
</g>
</g>
<!-- Node1&#45;&gt;Node2 -->
<g id="edge1" class="edge"><title>Node1&#45;&gt;Node2</title>
<path fill="none" stroke="midnightblue" d="M519.946,-192.824C495.909,-198.182 467.868,-204.431 445.215,-209.48"/>
<polygon fill="midnightblue" stroke="midnightblue" points="520.977,-196.181 529.976,-190.589 519.454,-189.348 520.977,-196.181"/>
</g>
<!-- Node3 -->
<g id="node3" class="node"><title>Node3</title>
<g id="a_node3"><a xlink:href="../../d1/ddf/class_t_m_c2660_stepper.html#aba43e2af829abee9e029bdd43bde5f61" target="_top" xlink:title=" ">
<polygon fill="white" stroke="black" points="343.5,-171.5 343.5,-190.5 459.5,-190.5 459.5,-171.5 343.5,-171.5"/>
<text text-anchor="middle" x="401.5" y="-178.5" font-family="Helvetica,sans-Serif" font-size="10.00">TMC2660Stepper::read</text>
</a>
</g>
</g>
<!-- Node1&#45;&gt;Node3 -->
<g id="edge2" class="edge"><title>Node1&#45;&gt;Node3</title>
<path fill="none" stroke="midnightblue" d="M487.512,-181C478.087,-181 468.665,-181 459.708,-181"/>
<polygon fill="midnightblue" stroke="midnightblue" points="487.72,-184.5 497.72,-181 487.72,-177.5 487.72,-184.5"/>
</g>
<!-- Node7 -->
<g id="node7" class="node"><title>Node7</title>
<g id="a_node7"><a xlink:href="../../d1/ddf/class_t_m_c2660_stepper.html#a4ab9b5cf6da0c345ecc50e877b54ada2" target="_top" xlink:title=" ">
<polygon fill="white" stroke="black" points="342.5,-95.5 342.5,-114.5 460.5,-114.5 460.5,-95.5 342.5,-95.5"/>
<text text-anchor="middle" x="401.5" y="-102.5" font-family="Helvetica,sans-Serif" font-size="10.00">TMC2660Stepper::write</text>
</a>
</g>
</g>
<!-- Node1&#45;&gt;Node7 -->
<g id="edge6" class="edge"><title>Node1&#45;&gt;Node7</title>
<path fill="none" stroke="midnightblue" d="M541.902,-167.138C507.706,-151.895 453.673,-127.81 423.919,-114.547"/>
<polygon fill="midnightblue" stroke="midnightblue" points="540.847,-170.5 551.406,-171.375 543.697,-164.106 540.847,-170.5"/>
</g>
<!-- Node4 -->
<g id="node4" class="node"><title>Node4</title>
<g id="a_node4"><a xlink:href="../../d1/ddf/class_t_m_c2660_stepper.html#a124bab76346c3c6c17f812e8c4ad7a5c" target="_top" xlink:title=" ">
<polygon fill="white" stroke="black" points="150,-190.5 150,-209.5 305,-209.5 305,-190.5 150,-190.5"/>
<text text-anchor="middle" x="227.5" y="-197.5" font-family="Helvetica,sans-Serif" font-size="10.00">TMC2660Stepper::DRVSTATUS</text>
</a>
</g>
</g>
<!-- Node3&#45;&gt;Node4 -->
<g id="edge3" class="edge"><title>Node3&#45;&gt;Node4</title>
<path fill="none" stroke="midnightblue" d="M333.034,-188.453C323.874,-189.465 314.42,-190.509 305.114,-191.537"/>
<polygon fill="midnightblue" stroke="midnightblue" points="333.671,-191.904 343.226,-187.327 332.903,-184.946 333.671,-191.904"/>
</g>
<!-- Node5 -->
<g id="node5" class="node"><title>Node5</title>
<g id="a_node5"><a xlink:href="../../d1/ddf/class_t_m_c2660_stepper.html#a51f799cf592f8d9d50d110aaedfe141a" target="_top" xlink:title=" ">
<polygon fill="white" stroke="black" points="3,-209 3,-239 111,-239 111,-209 3,-209"/>
<text text-anchor="start" x="11" y="-227" font-family="Helvetica,sans-Serif" font-size="10.00">TMC2660Stepper::sg</text>
<text text-anchor="middle" x="57" y="-216" font-family="Helvetica,sans-Serif" font-size="10.00">_result</text>
</a>
</g>
</g>
<!-- Node4&#45;&gt;Node5 -->
<g id="edge4" class="edge"><title>Node4&#45;&gt;Node5</title>
<path fill="none" stroke="midnightblue" d="M149.164,-211.015C136.288,-212.849 123.196,-214.714 111.1,-216.437"/>
<polygon fill="midnightblue" stroke="midnightblue" points="150.014,-214.43 159.42,-209.554 149.027,-207.5 150.014,-214.43"/>
</g>
<!-- Node6 -->
<g id="node6" class="node"><title>Node6</title>
<g id="a_node6"><a xlink:href="../../d1/ddf/class_t_m_c2660_stepper.html#a72a9a2ecf2d0707dba76de414cec209e" target="_top" xlink:title=" ">
<polygon fill="white" stroke="black" points="0,-160 0,-190 114,-190 114,-160 0,-160"/>
<text text-anchor="start" x="8" y="-178" font-family="Helvetica,sans-Serif" font-size="10.00">TMC2660Stepper::test</text>
<text text-anchor="middle" x="57" y="-167" font-family="Helvetica,sans-Serif" font-size="10.00">_connection</text>
</a>
</g>
</g>
<!-- Node4&#45;&gt;Node6 -->
<g id="edge5" class="edge"><title>Node4&#45;&gt;Node6</title>
<path fill="none" stroke="midnightblue" d="M152.14,-188.967C139.34,-187.068 126.231,-185.123 114.018,-183.311"/>
<polygon fill="midnightblue" stroke="midnightblue" points="151.911,-192.472 162.317,-190.477 152.939,-185.547 151.911,-192.472"/>
</g>
<!-- Node8 -->
<g id="node8" class="node"><title>Node8</title>
<g id="a_node8"><a xlink:href="../../d1/ddf/class_t_m_c2660_stepper.html#a70328d7ca863697d018760836310a6ee" target="_top" xlink:title=" ">
<polygon fill="white" stroke="black" points="151.5,-152.5 151.5,-171.5 303.5,-171.5 303.5,-152.5 151.5,-152.5"/>
<text text-anchor="middle" x="227.5" y="-159.5" font-family="Helvetica,sans-Serif" font-size="10.00">TMC2660Stepper::CHOPCONF</text>
</a>
</g>
</g>
<!-- Node7&#45;&gt;Node8 -->
<g id="edge7" class="edge"><title>Node7&#45;&gt;Node8</title>
<path fill="none" stroke="midnightblue" d="M369.422,-118.604C350.934,-126.384 326.888,-135.963 305,-143 294.187,-146.477 282.344,-149.696 271.275,-152.46"/>
<polygon fill="midnightblue" stroke="midnightblue" points="370.977,-121.746 378.807,-114.609 368.235,-115.305 370.977,-121.746"/>
</g>
<!-- Node9 -->
<g id="node9" class="node"><title>Node9</title>
<g id="a_node9"><a xlink:href="../../d1/ddf/class_t_m_c2660_stepper.html#aec6cc6025a1e9d9aa0165a6f9a8b67d9" target="_top" xlink:title=" ">
<polygon fill="white" stroke="black" points="155,-114.5 155,-133.5 300,-133.5 300,-114.5 155,-114.5"/>
<text text-anchor="middle" x="227.5" y="-121.5" font-family="Helvetica,sans-Serif" font-size="10.00">TMC2660Stepper::DRVCONF</text>
</a>
</g>
</g>
<!-- Node7&#45;&gt;Node9 -->
<g id="edge8" class="edge"><title>Node7&#45;&gt;Node9</title>
<path fill="none" stroke="midnightblue" d="M332.267,-112.537C321.692,-113.705 310.743,-114.915 300.097,-116.091"/>
<polygon fill="midnightblue" stroke="midnightblue" points="332.713,-116.009 342.269,-111.433 331.945,-109.052 332.713,-116.009"/>
</g>
<!-- Node10 -->
<g id="node10" class="node"><title>Node10</title>
<g id="a_node10"><a xlink:href="../../d1/ddf/class_t_m_c2660_stepper.html#a52b5e94e7a6a339f4c58f47edbf97f0b" target="_top" xlink:title=" ">
<polygon fill="white" stroke="black" points="156.5,-76.5 156.5,-95.5 298.5,-95.5 298.5,-76.5 156.5,-76.5"/>
<text text-anchor="middle" x="227.5" y="-83.5" font-family="Helvetica,sans-Serif" font-size="10.00">TMC2660Stepper::DRVCTRL</text>
</a>
</g>
</g>
<!-- Node7&#45;&gt;Node10 -->
<g id="edge9" class="edge"><title>Node7&#45;&gt;Node10</title>
<path fill="none" stroke="midnightblue" d="M332.241,-97.4598C321.173,-96.2371 309.694,-94.9691 298.583,-93.7417"/>
<polygon fill="midnightblue" stroke="midnightblue" points="331.945,-100.948 342.269,-98.5675 332.713,-93.9906 331.945,-100.948"/>
</g>
<!-- Node11 -->
<g id="node11" class="node"><title>Node11</title>
<g id="a_node11"><a xlink:href="../../d1/ddf/class_t_m_c2660_stepper.html#a49dec7d4fe3d3fc5c26b748b1653e6e6" target="_top" xlink:title=" ">
<polygon fill="white" stroke="black" points="151.5,-38.5 151.5,-57.5 303.5,-57.5 303.5,-38.5 151.5,-38.5"/>
<text text-anchor="middle" x="227.5" y="-45.5" font-family="Helvetica,sans-Serif" font-size="10.00">TMC2660Stepper::SGCSCONF</text>
</a>
</g>
</g>
<!-- Node7&#45;&gt;Node11 -->
<g id="edge10" class="edge"><title>Node7&#45;&gt;Node11</title>
<path fill="none" stroke="midnightblue" d="M369.422,-91.3963C350.934,-83.6163 326.888,-74.0371 305,-67 294.187,-63.5235 282.344,-60.304 271.275,-57.5404"/>
<polygon fill="midnightblue" stroke="midnightblue" points="368.235,-94.6948 378.807,-95.3915 370.977,-88.2542 368.235,-94.6948"/>
</g>
<!-- Node12 -->
<g id="node12" class="node"><title>Node12</title>
<g id="a_node12"><a xlink:href="../../d1/ddf/class_t_m_c2660_stepper.html#a6e7b6995932a531acd1a8b81e81fd94e" target="_top" xlink:title=" ">
<polygon fill="white" stroke="black" points="155,-0.5 155,-19.5 300,-19.5 300,-0.5 155,-0.5"/>
<text text-anchor="middle" x="227.5" y="-7.5" font-family="Helvetica,sans-Serif" font-size="10.00">TMC2660Stepper::SMARTEN</text>
</a>
</g>
</g>
<!-- Node7&#45;&gt;Node12 -->
<g id="edge11" class="edge"><title>Node7&#45;&gt;Node12</title>
<path fill="none" stroke="midnightblue" d="M384.123,-88.2514C366.239,-70.9128 335.988,-44.2684 305,-29 297.266,-25.1895 288.706,-22.1038 280.195,-19.6169"/>
<polygon fill="midnightblue" stroke="midnightblue" points="381.861,-90.9372 391.429,-95.4887 386.788,-85.9643 381.861,-90.9372"/>
</g>
</g>
</svg>
