<?xml version="1.0" encoding="UTF-8" standalone="no"?>
<!DOCTYPE svg PUBLIC "-//W3C//DTD SVG 1.1//EN"
 "http://www.w3.org/Graphics/SVG/1.1/DTD/svg11.dtd">
<!-- Generated by graphviz version 2.38.0 (20140413.2041)
 -->
<!-- Title: SW_SPIClass::transfer Pages: 1 -->
<!--zoomable 1362 -->
<svg id="main" version="1.1" xmlns="http://www.w3.org/2000/svg" xmlns:xlink="http://www.w3.org/1999/xlink" xml:space="preserve" onload="init(evt)">
<style type="text/css"><![CDATA[
.edge:hover path { stroke: red; }
.edge:hover polygon { stroke: red; fill: red; }
]]></style>
<script type="text/javascript"><![CDATA[
var edges = document.getElementsByTagName('g');
if (edges && edges.length) {
  for (var i=0;i<edges.length;i++) {
    if (edges[i].id.substr(0,4)=='edge') {
      edges[i].setAttribute('class','edge');
    }
  }
}
]]></script>
        <defs>
                <circle id="rim" cx="0" cy="0" r="7"/>
                <circle id="rim2" cx="0" cy="0" r="3.5"/>
                <g id="zoomPlus">
                        <use xlink:href="#rim" fill="#404040">
                                <set attributeName="fill" to="#808080" begin="zoomplus.mouseover" end="zoomplus.mouseout"/>
                        </use>
                        <path d="M-4,0h8M0,-4v8" fill="none" stroke="white" stroke-width="1.5" pointer-events="none"/>
                </g>
                <g id="zoomMin">
                        <use xlink:href="#rim" fill="#404040">
                                <set attributeName="fill" to="#808080" begin="zoomminus.mouseover" end="zoomminus.mouseout"/>
                        </use>
                        <path d="M-4,0h8" fill="none" stroke="white" stroke-width="1.5" pointer-events="none"/>
                </g>
                <g id="dirArrow">
                        <path fill="none" stroke="white" stroke-width="1.5" d="M0,-3.0v7 M-2.5,-0.5L0,-3.0L2.5,-0.5"/>
                </g>
               <g id="resetDef">
                       <use xlink:href="#rim2" fill="#404040">
                               <set attributeName="fill" to="#808080" begin="reset.mouseover" end="reset.mouseout"/>
                       </use>
               </g>
        </defs>

<script type="text/javascript">
var viewWidth = 840;
var viewHeight = 1362;
var sectionId = 'dynsection-1';
</script>
<script xlink:href="../../svgpan.js"/>
<svg id="graph" class="graph">
<g id="viewport">
<title>SW_SPIClass::transfer</title>
<polygon fill="white" stroke="none" points="-4,4 -4,-1358 836,-1358 836,4 -4,4"/>
<!-- Node1 -->
<g id="node1" class="node"><title>Node1</title>
<g id="a_node1"><a xlink:title=" ">
<polygon fill="#bfbfbf" stroke="black" points="715,-701.5 715,-720.5 832,-720.5 832,-701.5 715,-701.5"/>
<text text-anchor="middle" x="773.5" y="-708.5" font-family="Helvetica,sans-Serif" font-size="10.00">SW_SPIClass::transfer</text>
</a>
</g>
</g>
<!-- Node2 -->
<g id="node2" class="node"><title>Node2</title>
<g id="a_node2"><a xlink:href="../../d1/ddf/class_t_m_c2660_stepper.html#aba43e2af829abee9e029bdd43bde5f61" target="_top" xlink:title=" ">
<polygon fill="white" stroke="black" points="556,-783.5 556,-802.5 672,-802.5 672,-783.5 556,-783.5"/>
<text text-anchor="middle" x="614" y="-790.5" font-family="Helvetica,sans-Serif" font-size="10.00">TMC2660Stepper::read</text>
</a>
</g>
</g>
<!-- Node1&#45;&gt;Node2 -->
<g id="edge1" class="edge"><title>Node1&#45;&gt;Node2</title>
<path fill="none" stroke="midnightblue" d="M744.85,-725.396C712.743,-742.111 660.692,-769.211 633.258,-783.494"/>
<polygon fill="midnightblue" stroke="midnightblue" points="746.871,-728.289 754.125,-720.567 743.638,-722.08 746.871,-728.289"/>
</g>
<!-- Node6 -->
<g id="node6" class="node"><title>Node6</title>
<g id="a_node6"><a xlink:href="../../dd/deb/class_t_m_c2130_stepper.html#a0673af4887ec52b23aa658aa290f6623" target="_top" xlink:title=" ">
<polygon fill="white" stroke="black" points="549,-720.5 549,-739.5 679,-739.5 679,-720.5 549,-720.5"/>
<text text-anchor="middle" x="614" y="-727.5" font-family="Helvetica,sans-Serif" font-size="10.00">TMC2130Stepper::transfer</text>
</a>
</g>
</g>
<!-- Node1&#45;&gt;Node6 -->
<g id="edge5" class="edge"><title>Node1&#45;&gt;Node6</title>
<path fill="none" stroke="midnightblue" d="M704.56,-719.196C696.118,-720.214 687.507,-721.253 679.125,-722.264"/>
<polygon fill="midnightblue" stroke="midnightblue" points="705.238,-722.64 714.747,-717.967 704.4,-715.69 705.238,-722.64"/>
</g>
<!-- Node198 -->
<g id="node44" class="node"><title>Node198</title>
<g id="a_node44"><a xlink:href="../../df/d8b/class_s_w___s_p_i_class.html#a1b7600aa1d9571c103718c5d3e376675" target="_top" xlink:title=" ">
<polygon fill="white" stroke="black" points="550,-682.5 550,-701.5 678,-701.5 678,-682.5 550,-682.5"/>
<text text-anchor="middle" x="614" y="-689.5" font-family="Helvetica,sans-Serif" font-size="10.00">SW_SPIClass::transfer16</text>
</a>
</g>
</g>
<!-- Node1&#45;&gt;Node198 -->
<g id="edge45" class="edge"><title>Node1&#45;&gt;Node198</title>
<path fill="none" stroke="midnightblue" d="M704.535,-702.801C695.741,-701.74 686.764,-700.657 678.055,-699.607"/>
<polygon fill="midnightblue" stroke="midnightblue" points="704.4,-706.31 714.747,-704.033 705.238,-699.36 704.4,-706.31"/>
</g>
<!-- Node199 -->
<g id="node45" class="node"><title>Node199</title>
<g id="a_node45"><a xlink:href="../../d1/ddf/class_t_m_c2660_stepper.html#a4ab9b5cf6da0c345ecc50e877b54ada2" target="_top" xlink:title=" ">
<polygon fill="white" stroke="black" points="555,-581.5 555,-600.5 673,-600.5 673,-581.5 555,-581.5"/>
<text text-anchor="middle" x="614" y="-588.5" font-family="Helvetica,sans-Serif" font-size="10.00">TMC2660Stepper::write</text>
</a>
</g>
</g>
<!-- Node1&#45;&gt;Node199 -->
<g id="edge46" class="edge"><title>Node1&#45;&gt;Node199</title>
<path fill="none" stroke="midnightblue" d="M751.787,-695.218C718.678,-669.993 654.809,-621.33 627.683,-600.663"/>
<polygon fill="midnightblue" stroke="midnightblue" points="749.802,-698.106 759.877,-701.383 754.044,-692.538 749.802,-698.106"/>
</g>
<!-- Node3 -->
<g id="node3" class="node"><title>Node3</title>
<g id="a_node3"><a xlink:href="../../d1/ddf/class_t_m_c2660_stepper.html#a124bab76346c3c6c17f812e8c4ad7a5c" target="_top" xlink:title=" ">
<polygon fill="white" stroke="black" points="358,-808.5 358,-827.5 513,-827.5 513,-808.5 358,-808.5"/>
<text text-anchor="middle" x="435.5" y="-815.5" font-family="Helvetica,sans-Serif" font-size="10.00">TMC2660Stepper::DRVSTATUS</text>
</a>
</g>
</g>
<!-- Node2&#45;&gt;Node3 -->
<g id="edge2" class="edge"><title>Node2&#45;&gt;Node3</title>
<path fill="none" stroke="midnightblue" d="M545.793,-802.519C531.988,-804.475 517.454,-806.533 503.651,-808.489"/>
<polygon fill="midnightblue" stroke="midnightblue" points="546.285,-805.985 555.696,-801.117 545.303,-799.054 546.285,-805.985"/>
</g>
<!-- Node4 -->
<g id="node4" class="node"><title>Node4</title>
<g id="a_node4"><a xlink:href="../../d1/ddf/class_t_m_c2660_stepper.html#a51f799cf592f8d9d50d110aaedfe141a" target="_top" xlink:title=" ">
<polygon fill="white" stroke="black" points="209,-852 209,-882 317,-882 317,-852 209,-852"/>
<text text-anchor="start" x="217" y="-870" font-family="Helvetica,sans-Serif" font-size="10.00">TMC2660Stepper::sg</text>
<text text-anchor="middle" x="263" y="-859" font-family="Helvetica,sans-Serif" font-size="10.00">_result</text>
</a>
</g>
</g>
<!-- Node3&#45;&gt;Node4 -->
<g id="edge3" class="edge"><title>Node3&#45;&gt;Node4</title>
<path fill="none" stroke="midnightblue" d="M391.472,-830.366C368.644,-836.926 340.411,-845.04 316.322,-851.963"/>
<polygon fill="midnightblue" stroke="midnightblue" points="392.577,-833.69 401.221,-827.564 390.643,-826.962 392.577,-833.69"/>
</g>
<!-- Node5 -->
<g id="node5" class="node"><title>Node5</title>
<g id="a_node5"><a xlink:href="../../d1/ddf/class_t_m_c2660_stepper.html#a72a9a2ecf2d0707dba76de414cec209e" target="_top" xlink:title=" ">
<polygon fill="white" stroke="black" points="206,-803 206,-833 320,-833 320,-803 206,-803"/>
<text text-anchor="start" x="214" y="-821" font-family="Helvetica,sans-Serif" font-size="10.00">TMC2660Stepper::test</text>
<text text-anchor="middle" x="263" y="-810" font-family="Helvetica,sans-Serif" font-size="10.00">_connection</text>
</a>
</g>
</g>
<!-- Node3&#45;&gt;Node5 -->
<g id="edge4" class="edge"><title>Node3&#45;&gt;Node5</title>
<path fill="none" stroke="midnightblue" d="M347.625,-818C338.303,-818 329.007,-818 320.183,-818"/>
<polygon fill="midnightblue" stroke="midnightblue" points="347.729,-821.5 357.729,-818 347.729,-814.5 347.729,-821.5"/>
</g>
<!-- Node7 -->
<g id="node7" class="node"><title>Node7</title>
<g id="a_node7"><a xlink:href="../../dd/deb/class_t_m_c2130_stepper.html#a161ca6ebe3736454e17e9236572a6001" target="_top" xlink:title=" ">
<polygon fill="white" stroke="black" points="205,-764.5 205,-783.5 321,-783.5 321,-764.5 205,-764.5"/>
<text text-anchor="middle" x="263" y="-771.5" font-family="Helvetica,sans-Serif" font-size="10.00">TMC2130Stepper::read</text>
</a>
</g>
</g>
<!-- Node6&#45;&gt;Node7 -->
<g id="edge6" class="edge"><title>Node6&#45;&gt;Node7</title>
<path fill="none" stroke="midnightblue" d="M569.155,-742.083C551.789,-746.458 531.572,-751.044 513,-754 447.685,-764.396 371.826,-769.504 321.163,-771.934"/>
<polygon fill="midnightblue" stroke="midnightblue" points="570.203,-745.427 579.015,-739.546 568.459,-738.648 570.203,-745.427"/>
</g>
<!-- Node148 -->
<g id="node34" class="node"><title>Node148</title>
<g id="a_node34"><a xlink:href="../../dd/deb/class_t_m_c2130_stepper.html#aba94fc7bb8e2c8c12191f44561f19d95" target="_top" xlink:title=" ">
<polygon fill="white" stroke="black" points="370.5,-715 370.5,-745 500.5,-745 500.5,-715 370.5,-715"/>
<text text-anchor="start" x="378.5" y="-733" font-family="Helvetica,sans-Serif" font-size="10.00">TMC2130Stepper::transfer</text>
<text text-anchor="middle" x="435.5" y="-722" font-family="Helvetica,sans-Serif" font-size="10.00">EmptyBytes</text>
</a>
</g>
</g>
<!-- Node6&#45;&gt;Node148 -->
<g id="edge33" class="edge"><title>Node6&#45;&gt;Node148</title>
<path fill="none" stroke="midnightblue" d="M538.737,-730C526.084,-730 513.036,-730 500.672,-730"/>
<polygon fill="midnightblue" stroke="midnightblue" points="538.78,-733.5 548.78,-730 538.78,-726.5 538.78,-733.5"/>
</g>
<!-- Node149 -->
<g id="node35" class="node"><title>Node149</title>
<g id="a_node35"><a xlink:href="../../dd/deb/class_t_m_c2130_stepper.html#a6b02e33ab452a7869426ede7ba370445" target="_top" xlink:title=" ">
<polygon fill="white" stroke="red" points="204,-171.5 204,-190.5 322,-190.5 322,-171.5 204,-171.5"/>
<text text-anchor="middle" x="263" y="-178.5" font-family="Helvetica,sans-Serif" font-size="10.00">TMC2130Stepper::write</text>
</a>
</g>
</g>
<!-- Node6&#45;&gt;Node149 -->
<g id="edge44" class="edge"><title>Node6&#45;&gt;Node149</title>
<path fill="none" stroke="midnightblue" d="M565.055,-717.967C548.561,-713.839 529.975,-709.203 513,-705 444.15,-687.954 406.901,-718.377 358,-667 289.122,-594.635 267.82,-252.846 264.49,-190.705"/>
<polygon fill="midnightblue" stroke="midnightblue" points="564.471,-721.428 575.022,-720.462 566.171,-714.638 564.471,-721.428"/>
</g>
<!-- Node8 -->
<g id="node8" class="node"><title>Node8</title>
<g id="a_node8"><a xlink:href="../../dd/deb/class_t_m_c2130_stepper.html#a67541b27d97ce45f175e9f6e4a2d0bff" target="_top" xlink:title=" ">
<polygon fill="white" stroke="red" points="8,-1334.5 8,-1353.5 160,-1353.5 160,-1334.5 8,-1334.5"/>
<text text-anchor="middle" x="84" y="-1341.5" font-family="Helvetica,sans-Serif" font-size="10.00">TMC2130Stepper::CHOPCONF</text>
</a>
</g>
</g>
<!-- Node7&#45;&gt;Node8 -->
<g id="edge7" class="edge"><title>Node7&#45;&gt;Node8</title>
<path fill="none" stroke="midnightblue" d="M206.705,-789.933C205.746,-790.896 204.841,-791.918 204,-793 131.266,-886.543 244.937,-1234.88 168,-1325 164.833,-1328.71 161.103,-1331.78 157.008,-1334.31"/>
<polygon fill="midnightblue" stroke="midnightblue" points="209.16,-792.462 214.985,-783.612 204.912,-786.898 209.16,-792.462"/>
</g>
<!-- Node51 -->
<g id="node9" class="node"><title>Node51</title>
<g id="a_node9"><a xlink:href="../../dd/deb/class_t_m_c2130_stepper.html#a1a90b2919efe61dd825552c2fbeca993" target="_top" xlink:title=" ">
<polygon fill="white" stroke="red" points="16.5,-1296.5 16.5,-1315.5 151.5,-1315.5 151.5,-1296.5 16.5,-1296.5"/>
<text text-anchor="middle" x="84" y="-1303.5" font-family="Helvetica,sans-Serif" font-size="10.00">TMC2130Stepper::DCCTRL</text>
</a>
</g>
</g>
<!-- Node7&#45;&gt;Node51 -->
<g id="edge8" class="edge"><title>Node7&#45;&gt;Node51</title>
<path fill="none" stroke="midnightblue" d="M206.713,-789.938C205.751,-790.901 204.844,-791.92 204,-793 136.212,-879.718 239.684,-1203.47 168,-1287 163.475,-1292.27 157.814,-1296.25 151.587,-1299.23"/>
<polygon fill="midnightblue" stroke="midnightblue" points="209.167,-792.469 215.005,-783.628 204.928,-786.899 209.167,-792.469"/>
</g>
<!-- Node54 -->
<g id="node10" class="node"><title>Node54</title>
<g id="a_node10"><a xlink:href="../../dd/deb/class_t_m_c2130_stepper.html#a8d6feb6e1ed123a0b1008d80b6d53287" target="_top" xlink:title=" ">
<polygon fill="white" stroke="black" points="25,-1247 25,-1277 143,-1277 143,-1247 25,-1247"/>
<text text-anchor="start" x="33" y="-1265" font-family="Helvetica,sans-Serif" font-size="10.00">TMC2130Stepper::DRV</text>
<text text-anchor="middle" x="84" y="-1254" font-family="Helvetica,sans-Serif" font-size="10.00">_STATUS</text>
</a>
</g>
</g>
<!-- Node7&#45;&gt;Node54 -->
<g id="edge9" class="edge"><title>Node7&#45;&gt;Node54</title>
<path fill="none" stroke="midnightblue" d="M206.724,-789.948C205.759,-790.907 204.849,-791.923 204,-793 142.587,-870.92 230.77,-1161.17 168,-1238 161.547,-1245.9 152.665,-1251.29 143.101,-1254.96"/>
<polygon fill="midnightblue" stroke="midnightblue" points="209.178,-792.48 215.036,-783.652 204.951,-786.9 209.178,-792.48"/>
</g>
<!-- Node55 -->
<g id="node11" class="node"><title>Node55</title>
<g id="a_node11"><a xlink:href="../../d9/df8/class_t_m_c5130_stepper.html#a2dfc06fb1bfb9610b94257c822d803f4" target="_top" xlink:title=" ">
<polygon fill="white" stroke="black" points="25,-1198 25,-1228 143,-1228 143,-1198 25,-1198"/>
<text text-anchor="start" x="33" y="-1216" font-family="Helvetica,sans-Serif" font-size="10.00">TMC5130Stepper::ENC</text>
<text text-anchor="middle" x="84" y="-1205" font-family="Helvetica,sans-Serif" font-size="10.00">_LATCH</text>
</a>
</g>
</g>
<!-- Node7&#45;&gt;Node55 -->
<g id="edge10" class="edge"><title>Node7&#45;&gt;Node55</title>
<path fill="none" stroke="midnightblue" d="M207.135,-789.574C206.018,-790.642 204.969,-791.783 204,-793 148.959,-862.126 224.245,-1120.85 168,-1189 161.507,-1196.87 152.608,-1202.25 143.038,-1205.91"/>
<polygon fill="midnightblue" stroke="midnightblue" points="209.374,-792.272 215.35,-783.524 205.222,-786.636 209.374,-792.272"/>
</g>
<!-- Node56 -->
<g id="node12" class="node"><title>Node56</title>
<g id="a_node12"><a xlink:href="../../d9/df8/class_t_m_c5130_stepper.html#aa51b7320a8feccf48756dbd81638be43" target="_top" xlink:title=" ">
<polygon fill="white" stroke="black" points="25,-1149 25,-1179 143,-1179 143,-1149 25,-1149"/>
<text text-anchor="start" x="33" y="-1167" font-family="Helvetica,sans-Serif" font-size="10.00">TMC5130Stepper::ENC</text>
<text text-anchor="middle" x="84" y="-1156" font-family="Helvetica,sans-Serif" font-size="10.00">_STATUS</text>
</a>
</g>
</g>
<!-- Node7&#45;&gt;Node56 -->
<g id="edge11" class="edge"><title>Node7&#45;&gt;Node56</title>
<path fill="none" stroke="midnightblue" d="M207.156,-789.591C206.033,-790.654 204.977,-791.789 204,-793 106.65,-913.679 267.452,-1021.05 168,-1140 161.554,-1147.71 152.796,-1153.03 143.379,-1156.68"/>
<polygon fill="midnightblue" stroke="midnightblue" points="209.393,-792.291 215.399,-783.563 205.261,-786.64 209.393,-792.291"/>
</g>
<!-- Node57 -->
<g id="node13" class="node"><title>Node57</title>
<g id="a_node13"><a xlink:href="../../d2/d6e/class_t_m_c5160_stepper.html#a3a64ce4aeeda0a8c3fbe07baed1c5317" target="_top" xlink:title=" ">
<polygon fill="white" stroke="black" points="25,-1100 25,-1130 143,-1130 143,-1100 25,-1100"/>
<text text-anchor="start" x="33" y="-1118" font-family="Helvetica,sans-Serif" font-size="10.00">TMC5160Stepper::ENC</text>
<text text-anchor="middle" x="84" y="-1107" font-family="Helvetica,sans-Serif" font-size="10.00">_STATUS</text>
</a>
</g>
</g>
<!-- Node7&#45;&gt;Node57 -->
<g id="edge12" class="edge"><title>Node7&#45;&gt;Node57</title>
<path fill="none" stroke="midnightblue" d="M207.183,-789.613C206.053,-790.67 204.988,-791.797 204,-793 119.626,-895.767 253.601,-988.253 168,-1090 161.509,-1097.72 152.73,-1103.1 143.306,-1106.86"/>
<polygon fill="midnightblue" stroke="midnightblue" points="209.418,-792.316 215.466,-783.618 205.313,-786.646 209.418,-792.316"/>
</g>
<!-- Node58 -->
<g id="node14" class="node"><title>Node58</title>
<g id="a_node14"><a xlink:href="../../d9/df8/class_t_m_c5130_stepper.html#a3c7840e9435d4332fc6a7742deeefa9f" target="_top" xlink:title=" ">
<polygon fill="white" stroke="red" points="10.5,-1061.5 10.5,-1080.5 157.5,-1080.5 157.5,-1061.5 10.5,-1061.5"/>
<text text-anchor="middle" x="84" y="-1068.5" font-family="Helvetica,sans-Serif" font-size="10.00">TMC5130Stepper::ENCMODE</text>
</a>
</g>
</g>
<!-- Node7&#45;&gt;Node58 -->
<g id="edge13" class="edge"><title>Node7&#45;&gt;Node58</title>
<path fill="none" stroke="midnightblue" d="M207.284,-789.569C206.118,-790.639 205.019,-791.78 204,-793 129.472,-882.174 246.53,-966.329 168,-1052 164.504,-1055.81 160.412,-1058.94 155.954,-1061.5"/>
<polygon fill="midnightblue" stroke="midnightblue" points="209.682,-792.159 215.812,-783.518 205.631,-786.451 209.682,-792.159"/>
</g>
<!-- Node59 -->
<g id="node15" class="node"><title>Node59</title>
<g id="a_node15"><a xlink:href="../../dd/deb/class_t_m_c2130_stepper.html#aee84a9abfc84b387c6ae5658f90bf684" target="_top" xlink:title=" ">
<polygon fill="white" stroke="red" points="18,-1023.5 18,-1042.5 150,-1042.5 150,-1023.5 18,-1023.5"/>
<text text-anchor="middle" x="84" y="-1030.5" font-family="Helvetica,sans-Serif" font-size="10.00">TMC2130Stepper::GCONF</text>
</a>
</g>
</g>
<!-- Node7&#45;&gt;Node59 -->
<g id="edge14" class="edge"><title>Node7&#45;&gt;Node59</title>
<path fill="none" stroke="midnightblue" d="M207.677,-789.286C206.368,-790.436 205.137,-791.672 204,-793 139.294,-868.609 236.098,-941.431 168,-1014 163.043,-1019.28 156.944,-1023.24 150.32,-1026.18"/>
<polygon fill="midnightblue" stroke="midnightblue" points="209.67,-792.162 215.902,-783.594 205.687,-786.406 209.67,-792.162"/>
</g>
<!-- Node98 -->
<g id="node16" class="node"><title>Node98</title>
<g id="a_node16"><a xlink:href="../../d9/df8/class_t_m_c5130_stepper.html#a2d2a5babc82b261952616363464fcd47" target="_top" xlink:title=" ">
<polygon fill="white" stroke="black" points="21.5,-985.5 21.5,-1004.5 146.5,-1004.5 146.5,-985.5 21.5,-985.5"/>
<text text-anchor="middle" x="84" y="-992.5" font-family="Helvetica,sans-Serif" font-size="10.00">TMC5130Stepper::IFCNT</text>
</a>
</g>
</g>
<!-- Node7&#45;&gt;Node98 -->
<g id="edge15" class="edge"><title>Node7&#45;&gt;Node98</title>
<path fill="none" stroke="midnightblue" d="M207.816,-789.264C206.461,-790.42 205.183,-791.663 204,-793 149.079,-855.087 225.704,-916.491 168,-976 162.134,-982.049 154.766,-986.346 146.855,-989.372"/>
<polygon fill="midnightblue" stroke="midnightblue" points="209.966,-792.036 216.309,-783.55 206.058,-786.229 209.966,-792.036"/>
</g>
<!-- Node99 -->
<g id="node17" class="node"><title>Node99</title>
<g id="a_node17"><a xlink:href="../../dd/deb/class_t_m_c2130_stepper.html#adde2041047c82600f5e01f52118f92a0" target="_top" xlink:title=" ">
<polygon fill="white" stroke="red" points="26,-947.5 26,-966.5 142,-966.5 142,-947.5 26,-947.5"/>
<text text-anchor="middle" x="84" y="-954.5" font-family="Helvetica,sans-Serif" font-size="10.00">TMC2130Stepper::IOIN</text>
</a>
</g>
</g>
<!-- Node7&#45;&gt;Node99 -->
<g id="edge16" class="edge"><title>Node7&#45;&gt;Node99</title>
<path fill="none" stroke="midnightblue" d="M207.986,-789.272C206.575,-790.425 205.24,-791.666 204,-793 158.797,-841.64 215.381,-891.479 168,-938 160.933,-944.939 151.88,-949.547 142.364,-952.569"/>
<polygon fill="midnightblue" stroke="midnightblue" points="210.293,-791.947 216.779,-783.57 206.485,-786.074 210.293,-791.947"/>
</g>
<!-- Node107 -->
<g id="node18" class="node"><title>Node107</title>
<g id="a_node18"><a xlink:href="../../db/d9d/class_t_m_c2160_stepper.html#a3d1beb78c3356e99799915df3b424e60" target="_top" xlink:title=" ">
<polygon fill="white" stroke="red" points="26,-909.5 26,-928.5 142,-928.5 142,-909.5 26,-909.5"/>
<text text-anchor="middle" x="84" y="-916.5" font-family="Helvetica,sans-Serif" font-size="10.00">TMC2160Stepper::IOIN</text>
</a>
</g>
</g>
<!-- Node7&#45;&gt;Node107 -->
<g id="edge17" class="edge"><title>Node7&#45;&gt;Node107</title>
<path fill="none" stroke="midnightblue" d="M208.714,-788.96C207.047,-790.201 205.467,-791.545 204,-793 168.38,-828.337 205.2,-866.329 168,-900 160.767,-906.547 151.746,-910.981 142.341,-913.957"/>
<polygon fill="midnightblue" stroke="midnightblue" points="210.897,-791.731 217.659,-783.574 207.286,-785.734 210.897,-791.731"/>
</g>
<!-- Node115 -->
<g id="node19" class="node"><title>Node115</title>
<g id="a_node19"><a xlink:href="../../d9/df8/class_t_m_c5130_stepper.html#a74e9e262a8da77925d246916b431161d" target="_top" xlink:title=" ">
<polygon fill="white" stroke="red" points="26,-871.5 26,-890.5 142,-890.5 142,-871.5 26,-871.5"/>
<text text-anchor="middle" x="84" y="-878.5" font-family="Helvetica,sans-Serif" font-size="10.00">TMC5130Stepper::IOIN</text>
</a>
</g>
</g>
<!-- Node7&#45;&gt;Node115 -->
<g id="edge18" class="edge"><title>Node7&#45;&gt;Node115</title>
<path fill="none" stroke="midnightblue" d="M210.47,-788.318C208.189,-789.735 206.015,-791.291 204,-793 177.617,-815.369 195.379,-840.862 168,-862 160.511,-867.782 151.58,-871.86 142.394,-874.725"/>
<polygon fill="midnightblue" stroke="midnightblue" points="212.444,-791.236 219.697,-783.513 209.211,-785.027 212.444,-791.236"/>
</g>
<!-- Node127 -->
<g id="node20" class="node"><title>Node127</title>
<g id="a_node20"><a xlink:href="../../dd/deb/class_t_m_c2130_stepper.html#ab5b7c77b1826da5c2e40a420880da513" target="_top" xlink:title=" ">
<polygon fill="white" stroke="black" points="23,-822 23,-852 145,-852 145,-822 23,-822"/>
<text text-anchor="start" x="31" y="-840" font-family="Helvetica,sans-Serif" font-size="10.00">TMC2130Stepper::LOST</text>
<text text-anchor="middle" x="84" y="-829" font-family="Helvetica,sans-Serif" font-size="10.00">_STEPS</text>
</a>
</g>
</g>
<!-- Node7&#45;&gt;Node127 -->
<g id="edge19" class="edge"><title>Node7&#45;&gt;Node127</title>
<path fill="none" stroke="midnightblue" d="M219.832,-786.882C214.452,-788.797 209.06,-790.854 204,-793 187.344,-800.063 184.739,-805.137 168,-812 159.228,-815.597 149.746,-818.937 140.436,-821.93"/>
<polygon fill="midnightblue" stroke="midnightblue" points="221.101,-790.147 229.43,-783.599 218.835,-783.524 221.101,-790.147"/>
</g>
<!-- Node128 -->
<g id="node21" class="node"><title>Node128</title>
<g id="a_node21"><a xlink:href="../../db/d9d/class_t_m_c2160_stepper.html#a6e35363428a742e1e14cf225e683fa4c" target="_top" xlink:title=" ">
<polygon fill="white" stroke="black" points="0,-783.5 0,-802.5 168,-802.5 168,-783.5 0,-783.5"/>
<text text-anchor="middle" x="84" y="-790.5" font-family="Helvetica,sans-Serif" font-size="10.00">TMC2160Stepper::OFFSET_READ</text>
</a>
</g>
</g>
<!-- Node7&#45;&gt;Node128 -->
<g id="edge20" class="edge"><title>Node7&#45;&gt;Node128</title>
<path fill="none" stroke="midnightblue" d="M194.566,-781.239C185.947,-782.164 177.045,-783.119 168.213,-784.068"/>
<polygon fill="midnightblue" stroke="midnightblue" points="194.964,-784.716 204.533,-780.169 194.217,-777.756 194.964,-784.716"/>
</g>
<!-- Node129 -->
<g id="node22" class="node"><title>Node129</title>
<g id="a_node22"><a xlink:href="../../d2/d6e/class_t_m_c5160_stepper.html#a7e8ae217437e9ca5ab353cb7a9d30b82" target="_top" xlink:title=" ">
<polygon fill="white" stroke="red" points="7,-745.5 7,-764.5 161,-764.5 161,-745.5 7,-745.5"/>
<text text-anchor="middle" x="84" y="-752.5" font-family="Helvetica,sans-Serif" font-size="10.00">TMC5160Stepper::PWM_AUTO</text>
</a>
</g>
</g>
<!-- Node7&#45;&gt;Node129 -->
<g id="edge21" class="edge"><title>Node7&#45;&gt;Node129</title>
<path fill="none" stroke="midnightblue" d="M194.305,-766.733C183.471,-765.57 172.197,-764.36 161.183,-763.178"/>
<polygon fill="midnightblue" stroke="midnightblue" points="194.217,-770.244 204.533,-767.831 194.964,-763.284 194.217,-770.244"/>
</g>
<!-- Node132 -->
<g id="node23" class="node"><title>Node132</title>
<g id="a_node23"><a xlink:href="../../dd/deb/class_t_m_c2130_stepper.html#ad207fa693692567d117d4b02c217a4e9" target="_top" xlink:title=" ">
<polygon fill="white" stroke="black" points="23,-696 23,-726 145,-726 145,-696 23,-696"/>
<text text-anchor="start" x="31" y="-714" font-family="Helvetica,sans-Serif" font-size="10.00">TMC2130Stepper::PWM</text>
<text text-anchor="middle" x="84" y="-703" font-family="Helvetica,sans-Serif" font-size="10.00">_SCALE</text>
</a>
</g>
</g>
<!-- Node7&#45;&gt;Node132 -->
<g id="edge22" class="edge"><title>Node7&#45;&gt;Node132</title>
<path fill="none" stroke="midnightblue" d="M230.325,-760.352C212.226,-752.766 189.015,-743.395 168,-736 158.205,-732.553 147.66,-729.148 137.482,-726.013"/>
<polygon fill="midnightblue" stroke="midnightblue" points="229.235,-763.69 239.808,-764.358 231.959,-757.242 229.235,-763.69"/>
</g>
<!-- Node133 -->
<g id="node24" class="node"><title>Node133</title>
<g id="a_node24"><a xlink:href="../../db/d9d/class_t_m_c2160_stepper.html#a105381369f3d6267e907ff4ea0b31aac" target="_top" xlink:title=" ">
<polygon fill="white" stroke="red" points="23,-647 23,-677 145,-677 145,-647 23,-647"/>
<text text-anchor="start" x="31" y="-665" font-family="Helvetica,sans-Serif" font-size="10.00">TMC2160Stepper::PWM</text>
<text text-anchor="middle" x="84" y="-654" font-family="Helvetica,sans-Serif" font-size="10.00">_SCALE</text>
</a>
</g>
</g>
<!-- Node7&#45;&gt;Node133 -->
<g id="edge23" class="edge"><title>Node7&#45;&gt;Node133</title>
<path fill="none" stroke="midnightblue" d="M247.888,-756.534C230.928,-736.66 200.648,-704.562 168,-686 160.958,-681.997 153.194,-678.614 145.326,-675.769"/>
<polygon fill="midnightblue" stroke="midnightblue" points="245.214,-758.792 254.309,-764.228 250.588,-754.307 245.214,-758.792"/>
</g>
<!-- Node136 -->
<g id="node25" class="node"><title>Node136</title>
<g id="a_node25"><a xlink:href="../../d9/df8/class_t_m_c5130_stepper.html#a1acd1a115fcf4dc050b3b0948cff9dc4" target="_top" xlink:title=" ">
<polygon fill="white" stroke="black" points="6.5,-608.5 6.5,-627.5 161.5,-627.5 161.5,-608.5 6.5,-608.5"/>
<text text-anchor="middle" x="84" y="-615.5" font-family="Helvetica,sans-Serif" font-size="10.00">TMC5130Stepper::RAMP_STAT</text>
</a>
</g>
</g>
<!-- Node7&#45;&gt;Node136 -->
<g id="edge24" class="edge"><title>Node7&#45;&gt;Node136</title>
<path fill="none" stroke="midnightblue" d="M254.349,-754.802C241.334,-724.735 211.952,-666.892 168,-637 162.255,-633.093 155.822,-629.98 149.147,-627.501"/>
<polygon fill="midnightblue" stroke="midnightblue" points="251.184,-756.307 258.266,-764.187 257.644,-753.611 251.184,-756.307"/>
</g>
<!-- Node137 -->
<g id="node26" class="node"><title>Node137</title>
<g id="a_node26"><a xlink:href="../../d9/df8/class_t_m_c5130_stepper.html#a020e6ae2a6abce1a92338345aab2ae7c" target="_top" xlink:title=" ">
<polygon fill="white" stroke="red" points="6.5,-570.5 6.5,-589.5 161.5,-589.5 161.5,-570.5 6.5,-570.5"/>
<text text-anchor="middle" x="84" y="-577.5" font-family="Helvetica,sans-Serif" font-size="10.00">TMC5130Stepper::RAMPMODE</text>
</a>
</g>
</g>
<!-- Node7&#45;&gt;Node137 -->
<g id="edge25" class="edge"><title>Node7&#45;&gt;Node137</title>
<path fill="none" stroke="midnightblue" d="M257.205,-754.256C247.237,-717.614 220.689,-639.176 168,-599 162.945,-595.146 157.247,-592.05 151.264,-589.567"/>
<polygon fill="midnightblue" stroke="midnightblue" points="253.883,-755.392 259.777,-764.197 260.66,-753.639 253.883,-755.392"/>
</g>
<!-- Node139 -->
<g id="node27" class="node"><title>Node139</title>
<g id="a_node27"><a xlink:href="../../d9/df8/class_t_m_c5130_stepper.html#af78bc5ec6076b4e7ac8006488b069413" target="_top" xlink:title=" ">
<polygon fill="white" stroke="red" points="9.5,-532.5 9.5,-551.5 158.5,-551.5 158.5,-532.5 9.5,-532.5"/>
<text text-anchor="middle" x="84" y="-539.5" font-family="Helvetica,sans-Serif" font-size="10.00">TMC5130Stepper::SW_MODE</text>
</a>
</g>
</g>
<!-- Node7&#45;&gt;Node139 -->
<g id="edge26" class="edge"><title>Node7&#45;&gt;Node139</title>
<path fill="none" stroke="midnightblue" d="M259.245,-754.181C252.261,-711.788 229.806,-612.023 168,-561 163.326,-557.142 158.02,-554.032 152.405,-551.53"/>
<polygon fill="midnightblue" stroke="midnightblue" points="255.79,-754.741 260.764,-764.095 262.709,-753.681 255.79,-754.741"/>
</g>
<!-- Node140 -->
<g id="node28" class="node"><title>Node140</title>
<g id="a_node28"><a xlink:href="../../d9/df8/class_t_m_c5130_stepper.html#acd29f5c1f0f47342dd2d942c9c5252c1" target="_top" xlink:title=" ">
<polygon fill="white" stroke="black" points="13,-494.5 13,-513.5 155,-513.5 155,-494.5 13,-494.5"/>
<text text-anchor="middle" x="84" y="-501.5" font-family="Helvetica,sans-Serif" font-size="10.00">TMC5130Stepper::VACTUAL</text>
</a>
</g>
</g>
<!-- Node7&#45;&gt;Node140 -->
<g id="edge27" class="edge"><title>Node7&#45;&gt;Node140</title>
<path fill="none" stroke="midnightblue" d="M260.709,-754.022C256.506,-706.319 239.016,-585.129 168,-523 163.661,-519.204 158.718,-516.124 153.455,-513.629"/>
<polygon fill="midnightblue" stroke="midnightblue" points="257.239,-754.549 261.5,-764.249 264.218,-754.009 257.239,-754.549"/>
</g>
<!-- Node141 -->
<g id="node29" class="node"><title>Node141</title>
<g id="a_node29"><a xlink:href="../../d9/df8/class_t_m_c5130_stepper.html#a432764a59619856079ecfb56ee426f2d" target="_top" xlink:title=" ">
<polygon fill="white" stroke="black" points="20,-456.5 20,-475.5 148,-475.5 148,-456.5 20,-456.5"/>
<text text-anchor="middle" x="84" y="-463.5" font-family="Helvetica,sans-Serif" font-size="10.00">TMC5130Stepper::X_ENC</text>
</a>
</g>
</g>
<!-- Node7&#45;&gt;Node141 -->
<g id="edge28" class="edge"><title>Node7&#45;&gt;Node141</title>
<path fill="none" stroke="midnightblue" d="M261.832,-753.926C260.245,-701.323 248.364,-558.481 168,-485 162.327,-479.813 155.534,-475.949 148.31,-473.085"/>
<polygon fill="midnightblue" stroke="midnightblue" points="258.339,-754.316 262.04,-764.243 265.338,-754.175 258.339,-754.316"/>
</g>
<!-- Node142 -->
<g id="node30" class="node"><title>Node142</title>
<g id="a_node30"><a xlink:href="../../d9/df8/class_t_m_c5130_stepper.html#a7ddd27bea8034e6aec78ab2cf83cedd4" target="_top" xlink:title=" ">
<polygon fill="white" stroke="red" points="14,-418.5 14,-437.5 154,-437.5 154,-418.5 14,-418.5"/>
<text text-anchor="middle" x="84" y="-425.5" font-family="Helvetica,sans-Serif" font-size="10.00">TMC5130Stepper::XACTUAL</text>
</a>
</g>
</g>
<!-- Node7&#45;&gt;Node142 -->
<g id="edge29" class="edge"><title>Node7&#45;&gt;Node142</title>
<path fill="none" stroke="midnightblue" d="M262.717,-754.024C263.606,-696.999 257.9,-532.097 168,-447 163.92,-443.138 159.223,-440.005 154.182,-437.468"/>
<polygon fill="midnightblue" stroke="midnightblue" points="259.214,-754.129 262.465,-764.213 266.212,-754.303 259.214,-754.129"/>
</g>
<!-- Node143 -->
<g id="node31" class="node"><title>Node143</title>
<g id="a_node31"><a xlink:href="../../dd/deb/class_t_m_c2130_stepper.html#af486cd4712be021c735fc3bcb8eee9f5" target="_top" xlink:title=" ">
<polygon fill="white" stroke="red" points="15.5,-380.5 15.5,-399.5 152.5,-399.5 152.5,-380.5 15.5,-380.5"/>
<text text-anchor="middle" x="84" y="-387.5" font-family="Helvetica,sans-Serif" font-size="10.00">TMC2130Stepper::XDIRECT</text>
</a>
</g>
</g>
<!-- Node7&#45;&gt;Node143 -->
<g id="edge30" class="edge"><title>Node7&#45;&gt;Node143</title>
<path fill="none" stroke="midnightblue" d="M259.599,-754.119C250.887,-685.25 218.754,-458.401 168,-409 163.551,-404.67 158.328,-401.249 152.704,-398.555"/>
<polygon fill="midnightblue" stroke="midnightblue" points="256.173,-754.926 260.875,-764.42 263.119,-754.066 256.173,-754.926"/>
</g>
<!-- Node146 -->
<g id="node32" class="node"><title>Node146</title>
<g id="a_node32"><a xlink:href="../../d9/df8/class_t_m_c5130_stepper.html#aa027fe70ea5dc43b7bb0ac4452b4cbc3" target="_top" xlink:title=" ">
<polygon fill="white" stroke="black" points="17,-342.5 17,-361.5 151,-361.5 151,-342.5 17,-342.5"/>
<text text-anchor="middle" x="84" y="-349.5" font-family="Helvetica,sans-Serif" font-size="10.00">TMC5130Stepper::XLATCH</text>
</a>
</g>
</g>
<!-- Node7&#45;&gt;Node146 -->
<g id="edge31" class="edge"><title>Node7&#45;&gt;Node146</title>
<path fill="none" stroke="midnightblue" d="M260.102,-753.975C252.723,-680.389 223.568,-426.34 168,-371 163.182,-366.202 157.415,-362.514 151.197,-359.693"/>
<polygon fill="midnightblue" stroke="midnightblue" points="256.643,-754.566 261.1,-764.178 263.609,-753.884 256.643,-754.566"/>
</g>
<!-- Node147 -->
<g id="node33" class="node"><title>Node147</title>
<g id="a_node33"><a xlink:href="../../d9/df8/class_t_m_c5130_stepper.html#ae33c13bf7dc95cd8a8a4d8e1c444f9e5" target="_top" xlink:title=" ">
<polygon fill="white" stroke="red" points="13.5,-304.5 13.5,-323.5 154.5,-323.5 154.5,-304.5 13.5,-304.5"/>
<text text-anchor="middle" x="84" y="-311.5" font-family="Helvetica,sans-Serif" font-size="10.00">TMC5130Stepper::XTARGET</text>
</a>
</g>
</g>
<!-- Node7&#45;&gt;Node147 -->
<g id="edge32" class="edge"><title>Node7&#45;&gt;Node147</title>
<path fill="none" stroke="midnightblue" d="M260.548,-754.138C254.464,-676.446 228.484,-394.4 168,-333 164.162,-329.104 159.699,-325.936 154.873,-323.369"/>
<polygon fill="midnightblue" stroke="midnightblue" points="257.082,-754.723 261.329,-764.429 264.062,-754.193 257.082,-754.723"/>
</g>
<!-- Node148&#45;&gt;Node7 -->
<g id="edge34" class="edge"><title>Node148&#45;&gt;Node7</title>
<path fill="none" stroke="midnightblue" d="M366.487,-747.552C344.088,-753.332 320.033,-759.54 300.861,-764.488"/>
<polygon fill="midnightblue" stroke="midnightblue" points="367.492,-750.907 376.3,-745.019 365.743,-744.129 367.492,-750.907"/>
</g>
<!-- Node148&#45;&gt;Node149 -->
<g id="edge35" class="edge"><title>Node148&#45;&gt;Node149</title>
<path fill="none" stroke="midnightblue" d="M368.076,-709.485C364.348,-706.713 360.933,-703.568 358,-700 290.249,-617.597 267.958,-255.262 264.499,-190.82"/>
<polygon fill="midnightblue" stroke="midnightblue" points="366.36,-712.542 376.671,-714.978 370.129,-706.644 366.36,-712.542"/>
</g>
<!-- Node150 -->
<g id="node36" class="node"><title>Node150</title>
<g id="a_node36"><a xlink:href="../../d9/df8/class_t_m_c5130_stepper.html#a76052c6b0797d7f5707167f9dc38c070" target="_top" xlink:title=" ">
<polygon fill="white" stroke="black" points="29,-266.5 29,-285.5 139,-285.5 139,-266.5 29,-266.5"/>
<text text-anchor="middle" x="84" y="-273.5" font-family="Helvetica,sans-Serif" font-size="10.00">TMC5130Stepper::A1</text>
</a>
</g>
</g>
<!-- Node149&#45;&gt;Node150 -->
<g id="edge36" class="edge"><title>Node149&#45;&gt;Node150</title>
<path fill="none" stroke="midnightblue" d="M245.987,-197.871C228.473,-215.313 198.771,-242.042 168,-257 159.092,-261.33 149.162,-264.695 139.355,-267.303"/>
<polygon fill="midnightblue" stroke="midnightblue" points="248.63,-200.176 253.137,-190.587 243.635,-195.272 248.63,-200.176"/>
</g>
<!-- Node151 -->
<g id="node37" class="node"><title>Node151</title>
<g id="a_node37"><a xlink:href="../../d9/df8/class_t_m_c5130_stepper.html#a967f67e12de5fc725f34d1f07e751146" target="_top" xlink:title=" ">
<polygon fill="white" stroke="black" points="21.5,-228.5 21.5,-247.5 146.5,-247.5 146.5,-228.5 21.5,-228.5"/>
<text text-anchor="middle" x="84" y="-235.5" font-family="Helvetica,sans-Serif" font-size="10.00">TMC5130Stepper::AMAX</text>
</a>
</g>
</g>
<!-- Node149&#45;&gt;Node151 -->
<g id="edge37" class="edge"><title>Node149&#45;&gt;Node151</title>
<path fill="none" stroke="midnightblue" d="M231.836,-194.623C213.615,-202.491 189.778,-212.153 168,-219 156.718,-222.547 144.382,-225.732 132.753,-228.436"/>
<polygon fill="midnightblue" stroke="midnightblue" points="233.314,-197.797 241.072,-190.582 230.507,-191.384 233.314,-197.797"/>
</g>
<!-- Node152 -->
<g id="node38" class="node"><title>Node152</title>
<g id="a_node38"><a xlink:href="../../dd/deb/class_t_m_c2130_stepper.html#a8f881532eca7813597a1292ed060d18c" target="_top" xlink:title=" ">
<polygon fill="white" stroke="black" points="8,-190.5 8,-209.5 160,-209.5 160,-190.5 8,-190.5"/>
<text text-anchor="middle" x="84" y="-197.5" font-family="Helvetica,sans-Serif" font-size="10.00">TMC2130Stepper::CHOPCONF</text>
</a>
</g>
</g>
<!-- Node149&#45;&gt;Node152 -->
<g id="edge38" class="edge"><title>Node149&#45;&gt;Node152</title>
<path fill="none" stroke="midnightblue" d="M193.282,-188.376C182.412,-189.543 171.121,-190.755 160.114,-191.937"/>
<polygon fill="midnightblue" stroke="midnightblue" points="193.984,-191.821 203.553,-187.274 193.237,-184.861 193.984,-191.821"/>
</g>
<!-- Node153 -->
<g id="node39" class="node"><title>Node153</title>
<g id="a_node39"><a xlink:href="../../dd/deb/class_t_m_c2130_stepper.html#a11e7ca8148bc856a18af9fa0394a647d" target="_top" xlink:title=" ">
<polygon fill="white" stroke="black" points="21.5,-152.5 21.5,-171.5 146.5,-171.5 146.5,-152.5 21.5,-152.5"/>
<text text-anchor="middle" x="84" y="-159.5" font-family="Helvetica,sans-Serif" font-size="10.00">TMC2130Stepper::coil_A</text>
</a>
</g>
</g>
<!-- Node149&#45;&gt;Node153 -->
<g id="edge39" class="edge"><title>Node149&#45;&gt;Node153</title>
<path fill="none" stroke="midnightblue" d="M193.562,-173.654C178.139,-171.998 161.858,-170.25 146.728,-168.626"/>
<polygon fill="midnightblue" stroke="midnightblue" points="193.237,-177.139 203.553,-174.726 193.984,-170.179 193.237,-177.139"/>
</g>
<!-- Node154 -->
<g id="node40" class="node"><title>Node154</title>
<g id="a_node40"><a xlink:href="../../dd/deb/class_t_m_c2130_stepper.html#a40464704d8da6ad1998cb0c1ea564cce" target="_top" xlink:title=" ">
<polygon fill="white" stroke="black" points="21.5,-114.5 21.5,-133.5 146.5,-133.5 146.5,-114.5 21.5,-114.5"/>
<text text-anchor="middle" x="84" y="-121.5" font-family="Helvetica,sans-Serif" font-size="10.00">TMC2130Stepper::coil_B</text>
</a>
</g>
</g>
<!-- Node149&#45;&gt;Node154 -->
<g id="edge40" class="edge"><title>Node149&#45;&gt;Node154</title>
<path fill="none" stroke="midnightblue" d="M231.836,-167.377C213.615,-159.509 189.778,-149.847 168,-143 156.718,-139.453 144.382,-136.268 132.753,-133.564"/>
<polygon fill="midnightblue" stroke="midnightblue" points="230.507,-170.616 241.072,-171.418 233.314,-164.203 230.507,-170.616"/>
</g>
<!-- Node155 -->
<g id="node41" class="node"><title>Node155</title>
<g id="a_node41"><a xlink:href="../../dd/deb/class_t_m_c2130_stepper.html#afc1072e86397d2646fd4fb7b30e41ab8" target="_top" xlink:title=" ">
<polygon fill="white" stroke="black" points="8,-76.5 8,-95.5 160,-95.5 160,-76.5 8,-76.5"/>
<text text-anchor="middle" x="84" y="-83.5" font-family="Helvetica,sans-Serif" font-size="10.00">TMC2130Stepper::COOLCONF</text>
</a>
</g>
</g>
<!-- Node149&#45;&gt;Node155 -->
<g id="edge41" class="edge"><title>Node149&#45;&gt;Node155</title>
<path fill="none" stroke="midnightblue" d="M245.987,-164.129C228.473,-146.687 198.771,-119.958 168,-105 160.023,-101.122 151.226,-98.0186 142.431,-95.5391"/>
<polygon fill="midnightblue" stroke="midnightblue" points="243.635,-166.728 253.137,-171.413 248.63,-161.824 243.635,-166.728"/>
</g>
<!-- Node156 -->
<g id="node42" class="node"><title>Node156</title>
<g id="a_node42"><a xlink:href="../../d9/df8/class_t_m_c5130_stepper.html#abc7865021874083213e60aa77b7201d6" target="_top" xlink:title=" ">
<polygon fill="white" stroke="black" points="29,-38.5 29,-57.5 139,-57.5 139,-38.5 29,-38.5"/>
<text text-anchor="middle" x="84" y="-45.5" font-family="Helvetica,sans-Serif" font-size="10.00">TMC5130Stepper::D1</text>
</a>
</g>
</g>
<!-- Node149&#45;&gt;Node156 -->
<g id="edge42" class="edge"><title>Node149&#45;&gt;Node156</title>
<path fill="none" stroke="midnightblue" d="M252.016,-162.48C237.199,-136.851 206.902,-91.0198 168,-67 159.321,-61.6413 149.291,-57.791 139.269,-55.0252"/>
<polygon fill="midnightblue" stroke="midnightblue" points="248.978,-164.217 256.923,-171.226 255.082,-160.792 248.978,-164.217"/>
</g>
<!-- Node157 -->
<g id="node43" class="node"><title>Node157</title>
<g id="a_node43"><a xlink:href="../../dd/deb/class_t_m_c2130_stepper.html#a55ea165bcc2fc0da6395340f17e47611" target="_top" xlink:title=" ">
<polygon fill="white" stroke="black" points="22,-0.5 22,-19.5 146,-19.5 146,-0.5 22,-0.5"/>
<text text-anchor="middle" x="84" y="-7.5" font-family="Helvetica,sans-Serif" font-size="10.00">TMC2130Stepper::dc_sg</text>
</a>
</g>
</g>
<!-- Node149&#45;&gt;Node157 -->
<g id="edge43" class="edge"><title>Node149&#45;&gt;Node157</title>
<path fill="none" stroke="midnightblue" d="M255.626,-161.589C243.829,-128.846 215.384,-62.8987 168,-29 161.508,-24.3554 154.061,-20.8249 146.352,-18.1451"/>
<polygon fill="midnightblue" stroke="midnightblue" points="252.416,-163.018 258.991,-171.326 259.032,-160.732 252.416,-163.018"/>
</g>
<!-- Node200 -->
<g id="node46" class="node"><title>Node200</title>
<g id="a_node46"><a xlink:href="../../d1/ddf/class_t_m_c2660_stepper.html#a70328d7ca863697d018760836310a6ee" target="_top" xlink:title=" ">
<polygon fill="white" stroke="black" points="359.5,-638.5 359.5,-657.5 511.5,-657.5 511.5,-638.5 359.5,-638.5"/>
<text text-anchor="middle" x="435.5" y="-645.5" font-family="Helvetica,sans-Serif" font-size="10.00">TMC2660Stepper::CHOPCONF</text>
</a>
</g>
</g>
<!-- Node199&#45;&gt;Node200 -->
<g id="edge47" class="edge"><title>Node199&#45;&gt;Node200</title>
<path fill="none" stroke="midnightblue" d="M580.932,-604.309C561.482,-612.098 536.048,-621.787 513,-629 502.029,-632.433 490.022,-635.659 478.839,-638.444"/>
<polygon fill="midnightblue" stroke="midnightblue" points="582.279,-607.539 590.237,-600.544 579.654,-601.05 582.279,-607.539"/>
</g>
<!-- Node201 -->
<g id="node47" class="node"><title>Node201</title>
<g id="a_node47"><a xlink:href="../../d1/ddf/class_t_m_c2660_stepper.html#aec6cc6025a1e9d9aa0165a6f9a8b67d9" target="_top" xlink:title=" ">
<polygon fill="white" stroke="black" points="363,-600.5 363,-619.5 508,-619.5 508,-600.5 363,-600.5"/>
<text text-anchor="middle" x="435.5" y="-607.5" font-family="Helvetica,sans-Serif" font-size="10.00">TMC2660Stepper::DRVCONF</text>
</a>
</g>
</g>
<!-- Node199&#45;&gt;Node201 -->
<g id="edge48" class="edge"><title>Node199&#45;&gt;Node201</title>
<path fill="none" stroke="midnightblue" d="M544.442,-598.38C532.576,-599.658 520.21,-600.989 508.261,-602.275"/>
<polygon fill="midnightblue" stroke="midnightblue" points="545.15,-601.824 554.718,-597.274 544.401,-594.864 545.15,-601.824"/>
</g>
<!-- Node202 -->
<g id="node48" class="node"><title>Node202</title>
<g id="a_node48"><a xlink:href="../../d1/ddf/class_t_m_c2660_stepper.html#a52b5e94e7a6a339f4c58f47edbf97f0b" target="_top" xlink:title=" ">
<polygon fill="white" stroke="black" points="364.5,-562.5 364.5,-581.5 506.5,-581.5 506.5,-562.5 364.5,-562.5"/>
<text text-anchor="middle" x="435.5" y="-569.5" font-family="Helvetica,sans-Serif" font-size="10.00">TMC2660Stepper::DRVCTRL</text>
</a>
</g>
</g>
<!-- Node199&#45;&gt;Node202 -->
<g id="edge49" class="edge"><title>Node199&#45;&gt;Node202</title>
<path fill="none" stroke="midnightblue" d="M544.462,-583.622C532.072,-582.288 519.135,-580.896 506.698,-579.557"/>
<polygon fill="midnightblue" stroke="midnightblue" points="544.401,-587.136 554.718,-584.726 545.15,-580.176 544.401,-587.136"/>
</g>
<!-- Node203 -->
<g id="node49" class="node"><title>Node203</title>
<g id="a_node49"><a xlink:href="../../d1/ddf/class_t_m_c2660_stepper.html#a49dec7d4fe3d3fc5c26b748b1653e6e6" target="_top" xlink:title=" ">
<polygon fill="white" stroke="black" points="359.5,-524.5 359.5,-543.5 511.5,-543.5 511.5,-524.5 359.5,-524.5"/>
<text text-anchor="middle" x="435.5" y="-531.5" font-family="Helvetica,sans-Serif" font-size="10.00">TMC2660Stepper::SGCSCONF</text>
</a>
</g>
</g>
<!-- Node199&#45;&gt;Node203 -->
<g id="edge50" class="edge"><title>Node199&#45;&gt;Node203</title>
<path fill="none" stroke="midnightblue" d="M580.932,-577.691C561.482,-569.902 536.048,-560.213 513,-553 502.029,-549.567 490.022,-546.341 478.839,-543.556"/>
<polygon fill="midnightblue" stroke="midnightblue" points="579.654,-580.95 590.237,-581.456 582.279,-574.461 579.654,-580.95"/>
</g>
<!-- Node204 -->
<g id="node50" class="node"><title>Node204</title>
<g id="a_node50"><a xlink:href="../../d1/ddf/class_t_m_c2660_stepper.html#a6e7b6995932a531acd1a8b81e81fd94e" target="_top" xlink:title=" ">
<polygon fill="white" stroke="black" points="363,-486.5 363,-505.5 508,-505.5 508,-486.5 363,-486.5"/>
<text text-anchor="middle" x="435.5" y="-493.5" font-family="Helvetica,sans-Serif" font-size="10.00">TMC2660Stepper::SMARTEN</text>
</a>
</g>
</g>
<!-- Node199&#45;&gt;Node204 -->
<g id="edge51" class="edge"><title>Node199&#45;&gt;Node204</title>
<path fill="none" stroke="midnightblue" d="M595.652,-574.243C576.791,-556.932 545.036,-530.343 513,-515 504.978,-511.158 496.097,-508.042 487.312,-505.531"/>
<polygon fill="midnightblue" stroke="midnightblue" points="593.445,-576.971 603.137,-581.251 598.23,-571.862 593.445,-576.971"/>
</g>
</g>
</svg>
        <g id="navigator" transform="translate(0 0)" fill="#404254">
                <rect fill="#f2f5e9" fill-opacity="0.5" stroke="#606060" stroke-width=".5" x="0" y="0" width="60" height="60"/>
                <use id="zoomplus" xlink:href="#zoomPlus" x="17" y="9" onmousedown="handleZoom(evt,'in')"/>
                <use id="zoomminus" xlink:href="#zoomMin" x="42" y="9" onmousedown="handleZoom(evt,'out')"/>
                <use id="reset" xlink:href="#resetDef" x="30" y="36" onmousedown="handleReset()"/>
                <g id="arrowUp" xlink:href="#dirArrow" transform="translate(30 24)" onmousedown="handlePan(0,-1)">
                  <use xlink:href="#rim" fill="#404040">
                        <set attributeName="fill" to="#808080" begin="arrowUp.mouseover" end="arrowUp.mouseout"/>
                  </use>
                  <path fill="none" stroke="white" stroke-width="1.5" d="M0,-3.0v7 M-2.5,-0.5L0,-3.0L2.5,-0.5"/>
                </g>
                <g id="arrowRight" xlink:href="#dirArrow" transform="rotate(90) translate(36 -43)" onmousedown="handlePan(1,0)">
                  <use xlink:href="#rim" fill="#404040">
                        <set attributeName="fill" to="#808080" begin="arrowRight.mouseover" end="arrowRight.mouseout"/>
                  </use>
                  <path fill="none" stroke="white" stroke-width="1.5" d="M0,-3.0v7 M-2.5,-0.5L0,-3.0L2.5,-0.5"/>
                </g>
                <g id="arrowDown" xlink:href="#dirArrow" transform="rotate(180) translate(-30 -48)" onmousedown="handlePan(0,1)">
                  <use xlink:href="#rim" fill="#404040">
                        <set attributeName="fill" to="#808080" begin="arrowDown.mouseover" end="arrowDown.mouseout"/>
                  </use>
                  <path fill="none" stroke="white" stroke-width="1.5" d="M0,-3.0v7 M-2.5,-0.5L0,-3.0L2.5,-0.5"/>
                </g>
                <g id="arrowLeft" xlink:href="#dirArrow" transform="rotate(270) translate(-36 17)" onmousedown="handlePan(-1,0)">
                  <use xlink:href="#rim" fill="#404040">
                        <set attributeName="fill" to="#808080" begin="arrowLeft.mouseover" end="arrowLeft.mouseout"/>
                  </use>
                  <path fill="none" stroke="white" stroke-width="1.5" d="M0,-3.0v7 M-2.5,-0.5L0,-3.0L2.5,-0.5"/>
                </g>
        </g>
        <svg viewBox="0 0 15 15" width="100%" height="30px" preserveAspectRatio="xMaxYMin meet">
         <g id="arrow_out" transform="scale(0.3 0.3)">
          <a xlink:href="class_s_w___s_p_i_class_af260fdc0af3f1312b106483161e559c3_icgraph_org.svg" target="_base">
           <rect id="button" ry="5" rx="5" y="6" x="6" height="38" width="38"
                fill="#f2f5e9" fill-opacity="0.5" stroke="#606060" stroke-width="1.0"/>
           <path id="arrow"
             d="M 11.500037,31.436501 C 11.940474,20.09759 22.043105,11.32322 32.158766,21.979434 L 37.068811,17.246167 C 37.068811,17.246167 37.088388,32 37.088388,32 L 22.160133,31.978069 C 22.160133,31.978069 26.997745,27.140456 26.997745,27.140456 C 18.528582,18.264221 13.291696,25.230495 11.500037,31.436501 z"
             style="fill:#404040;"/>
          </a>
         </g>
        </svg>
</svg>
