<?xml version="1.0" encoding="UTF-8" standalone="no"?>
<!DOCTYPE svg PUBLIC "-//W3C//DTD SVG 1.1//EN"
 "http://www.w3.org/Graphics/SVG/1.1/DTD/svg11.dtd">
<!-- Generated by graphviz version 2.38.0 (20140413.2041)
 -->
<!-- Title: TMC5130Stepper::XACTUAL Pages: 1 -->
<svg width="826pt" height="192pt"
 viewBox="0.00 0.00 826.00 191.50" xmlns="http://www.w3.org/2000/svg" xmlns:xlink="http://www.w3.org/1999/xlink">
<g id="graph0" class="graph" transform="scale(1 1) rotate(0) translate(4 187.5)">
<title>TMC5130Stepper::XACTUAL</title>
<polygon fill="white" stroke="none" points="-4,4 -4,-187.5 822,-187.5 822,4 -4,4"/>
<!-- Node1 -->
<g id="node1" class="node"><title>Node1</title>
<g id="a_node1"><a xlink:title=" ">
<polygon fill="#bfbfbf" stroke="black" points="0,-88 0,-107 140,-107 140,-88 0,-88"/>
<text text-anchor="middle" x="70" y="-95" font-family="Helvetica,sans-Serif" font-size="10.00">TMC5130Stepper::XACTUAL</text>
</a>
</g>
</g>
<!-- Node2 -->
<g id="node2" class="node"><title>Node2</title>
<g id="a_node2"><a xlink:href="../../dd/deb/class_t_m_c2130_stepper.html#a161ca6ebe3736454e17e9236572a6001" target="_top" xlink:title=" ">
<polygon fill="white" stroke="black" points="176,-88 176,-107 292,-107 292,-88 176,-88"/>
<text text-anchor="middle" x="234" y="-95" font-family="Helvetica,sans-Serif" font-size="10.00">TMC2130Stepper::read</text>
</a>
</g>
</g>
<!-- Node1&#45;&gt;Node2 -->
<g id="edge1" class="edge"><title>Node1&#45;&gt;Node2</title>
<path fill="none" stroke="midnightblue" d="M140.172,-97.5C148.61,-97.5 157.222,-97.5 165.632,-97.5"/>
<polygon fill="midnightblue" stroke="midnightblue" points="165.766,-101 175.766,-97.5 165.766,-94.0001 165.766,-101"/>
</g>
<!-- Node3 -->
<g id="node3" class="node"><title>Node3</title>
<g id="a_node3"><a xlink:href="../../dd/deb/class_t_m_c2130_stepper.html#a1fc868601a32fb0cd8fc536dafa8ecea" target="_top" xlink:title=" ">
<polygon fill="white" stroke="black" points="328,-164 328,-183 499,-183 499,-164 328,-164"/>
<text text-anchor="middle" x="413.5" y="-171" font-family="Helvetica,sans-Serif" font-size="10.00">TMC2130Stepper::beginTransaction</text>
</a>
</g>
</g>
<!-- Node2&#45;&gt;Node3 -->
<g id="edge2" class="edge"><title>Node2&#45;&gt;Node3</title>
<path fill="none" stroke="midnightblue" d="M247.522,-107.048C264.741,-119.725 297.117,-141.967 328,-154.5 334.272,-157.045 340.951,-159.283 347.7,-161.242"/>
<polygon fill="midnightblue" stroke="midnightblue" points="347.032,-164.687 357.599,-163.918 348.858,-157.93 347.032,-164.687"/>
</g>
<!-- Node4 -->
<g id="node4" class="node"><title>Node4</title>
<g id="a_node4"><a xlink:href="../../dd/deb/class_t_m_c2130_stepper.html#aeace18dcee808585dd4449e783811600" target="_top" xlink:title=" ">
<polygon fill="white" stroke="black" points="331.5,-126 331.5,-145 495.5,-145 495.5,-126 331.5,-126"/>
<text text-anchor="middle" x="413.5" y="-133" font-family="Helvetica,sans-Serif" font-size="10.00">TMC2130Stepper::endTransaction</text>
</a>
</g>
</g>
<!-- Node2&#45;&gt;Node4 -->
<g id="edge3" class="edge"><title>Node2&#45;&gt;Node4</title>
<path fill="none" stroke="midnightblue" d="M279.791,-107.089C303.53,-112.171 332.884,-118.455 357.944,-123.82"/>
<polygon fill="midnightblue" stroke="midnightblue" points="357.52,-127.309 368.031,-125.98 358.986,-120.464 357.52,-127.309"/>
</g>
<!-- Node5 -->
<g id="node5" class="node"><title>Node5</title>
<g id="a_node5"><a xlink:href="../../dd/deb/class_t_m_c2130_stepper.html#a4a8f3b6ac100045ed5f84fe4d18d9d5a" target="_top" xlink:title=" ">
<polygon fill="white" stroke="black" points="337.5,-88 337.5,-107 489.5,-107 489.5,-88 337.5,-88"/>
<text text-anchor="middle" x="413.5" y="-95" font-family="Helvetica,sans-Serif" font-size="10.00">TMC2130Stepper::switchCSpin</text>
</a>
</g>
</g>
<!-- Node2&#45;&gt;Node5 -->
<g id="edge4" class="edge"><title>Node2&#45;&gt;Node5</title>
<path fill="none" stroke="midnightblue" d="M292.139,-97.5C303.27,-97.5 315.163,-97.5 326.981,-97.5"/>
<polygon fill="midnightblue" stroke="midnightblue" points="327.325,-101 337.325,-97.5 327.324,-94.0001 327.325,-101"/>
</g>
<!-- Node6 -->
<g id="node6" class="node"><title>Node6</title>
<g id="a_node6"><a xlink:href="../../dd/deb/class_t_m_c2130_stepper.html#a0673af4887ec52b23aa658aa290f6623" target="_top" xlink:title=" ">
<polygon fill="white" stroke="black" points="535,-28 535,-47 665,-47 665,-28 535,-28"/>
<text text-anchor="middle" x="600" y="-35" font-family="Helvetica,sans-Serif" font-size="10.00">TMC2130Stepper::transfer</text>
</a>
</g>
</g>
<!-- Node2&#45;&gt;Node6 -->
<g id="edge5" class="edge"><title>Node2&#45;&gt;Node6</title>
<path fill="none" stroke="midnightblue" d="M279.378,-87.9498C294.744,-84.7717 312.099,-81.3252 328,-78.5 394.378,-66.7062 470.291,-55.4085 524.852,-47.6702"/>
<polygon fill="midnightblue" stroke="midnightblue" points="525.372,-51.1316 534.784,-46.2674 524.393,-44.2004 525.372,-51.1316"/>
</g>
<!-- Node8 -->
<g id="node8" class="node"><title>Node8</title>
<g id="a_node8"><a xlink:href="../../dd/deb/class_t_m_c2130_stepper.html#aba94fc7bb8e2c8c12191f44561f19d95" target="_top" xlink:title=" ">
<polygon fill="white" stroke="black" points="348.5,-0.5 348.5,-30.5 478.5,-30.5 478.5,-0.5 348.5,-0.5"/>
<text text-anchor="start" x="356.5" y="-18.5" font-family="Helvetica,sans-Serif" font-size="10.00">TMC2130Stepper::transfer</text>
<text text-anchor="middle" x="413.5" y="-7.5" font-family="Helvetica,sans-Serif" font-size="10.00">EmptyBytes</text>
</a>
</g>
</g>
<!-- Node2&#45;&gt;Node8 -->
<g id="edge7" class="edge"><title>Node2&#45;&gt;Node8</title>
<path fill="none" stroke="midnightblue" d="M250.378,-87.8381C268.488,-76.7136 299.694,-58.3277 328,-45.5 336.84,-41.494 346.386,-37.66 355.769,-34.1517"/>
<polygon fill="midnightblue" stroke="midnightblue" points="357.257,-37.3346 365.453,-30.6201 354.859,-30.7583 357.257,-37.3346"/>
</g>
<!-- Node7 -->
<g id="node7" class="node"><title>Node7</title>
<g id="a_node7"><a xlink:href="../../df/d8b/class_s_w___s_p_i_class.html#af260fdc0af3f1312b106483161e559c3" target="_top" xlink:title=" ">
<polygon fill="white" stroke="black" points="701,-28 701,-47 818,-47 818,-28 701,-28"/>
<text text-anchor="middle" x="759.5" y="-35" font-family="Helvetica,sans-Serif" font-size="10.00">SW_SPIClass::transfer</text>
</a>
</g>
</g>
<!-- Node6&#45;&gt;Node7 -->
<g id="edge6" class="edge"><title>Node6&#45;&gt;Node7</title>
<path fill="none" stroke="midnightblue" d="M665.061,-37.5C673.477,-37.5 682.125,-37.5 690.603,-37.5"/>
<polygon fill="midnightblue" stroke="midnightblue" points="690.831,-41.0001 700.831,-37.5 690.831,-34.0001 690.831,-41.0001"/>
</g>
<!-- Node8&#45;&gt;Node6 -->
<g id="edge8" class="edge"><title>Node8&#45;&gt;Node6</title>
<path fill="none" stroke="midnightblue" d="M478.511,-23.1328C493.452,-24.9144 509.487,-26.8263 524.827,-28.6556"/>
<polygon fill="midnightblue" stroke="midnightblue" points="524.445,-32.1347 534.79,-29.8435 525.274,-25.184 524.445,-32.1347"/>
</g>
</g>
</svg>
