<?xml version="1.0" encoding="UTF-8" standalone="no"?>
<!DOCTYPE svg PUBLIC "-//W3C//DTD SVG 1.1//EN"
 "http://www.w3.org/Graphics/SVG/1.1/DTD/svg11.dtd">
<!-- Generated by graphviz version 2.38.0 (20140413.2041)
 -->
<!-- Title: TMC5130Stepper::encb_dcen_cfg4 Pages: 1 -->
<svg width="957pt" height="192pt"
 viewBox="0.00 0.00 957.00 191.50" xmlns="http://www.w3.org/2000/svg" xmlns:xlink="http://www.w3.org/1999/xlink">
<g id="graph0" class="graph" transform="scale(1 1) rotate(0) translate(4 187.5)">
<title>TMC5130Stepper::encb_dcen_cfg4</title>
<polygon fill="white" stroke="none" points="-4,4 -4,-187.5 953,-187.5 953,4 -4,4"/>
<!-- Node1 -->
<g id="node1" class="node"><title>Node1</title>
<g id="a_node1"><a xlink:title=" ">
<polygon fill="#bfbfbf" stroke="black" points="0,-82.5 0,-112.5 119,-112.5 119,-82.5 0,-82.5"/>
<text text-anchor="start" x="8" y="-100.5" font-family="Helvetica,sans-Serif" font-size="10.00">TMC5130Stepper::encb</text>
<text text-anchor="middle" x="59.5" y="-89.5" font-family="Helvetica,sans-Serif" font-size="10.00">_dcen_cfg4</text>
</a>
</g>
</g>
<!-- Node2 -->
<g id="node2" class="node"><title>Node2</title>
<g id="a_node2"><a xlink:href="../../d9/df8/class_t_m_c5130_stepper.html#a74e9e262a8da77925d246916b431161d" target="_top" xlink:title=" ">
<polygon fill="white" stroke="black" points="155,-88 155,-107 271,-107 271,-88 155,-88"/>
<text text-anchor="middle" x="213" y="-95" font-family="Helvetica,sans-Serif" font-size="10.00">TMC5130Stepper::IOIN</text>
</a>
</g>
</g>
<!-- Node1&#45;&gt;Node2 -->
<g id="edge1" class="edge"><title>Node1&#45;&gt;Node2</title>
<path fill="none" stroke="midnightblue" d="M119.074,-97.5C127.361,-97.5 135.938,-97.5 144.379,-97.5"/>
<polygon fill="midnightblue" stroke="midnightblue" points="144.579,-101 154.579,-97.5 144.579,-94.0001 144.579,-101"/>
</g>
<!-- Node3 -->
<g id="node3" class="node"><title>Node3</title>
<g id="a_node3"><a xlink:href="../../dd/deb/class_t_m_c2130_stepper.html#a161ca6ebe3736454e17e9236572a6001" target="_top" xlink:title=" ">
<polygon fill="white" stroke="black" points="307,-88 307,-107 423,-107 423,-88 307,-88"/>
<text text-anchor="middle" x="365" y="-95" font-family="Helvetica,sans-Serif" font-size="10.00">TMC2130Stepper::read</text>
</a>
</g>
</g>
<!-- Node2&#45;&gt;Node3 -->
<g id="edge2" class="edge"><title>Node2&#45;&gt;Node3</title>
<path fill="none" stroke="midnightblue" d="M271.136,-97.5C279.377,-97.5 287.923,-97.5 296.344,-97.5"/>
<polygon fill="midnightblue" stroke="midnightblue" points="296.526,-101 306.525,-97.5 296.525,-94.0001 296.526,-101"/>
</g>
<!-- Node4 -->
<g id="node4" class="node"><title>Node4</title>
<g id="a_node4"><a xlink:href="../../dd/deb/class_t_m_c2130_stepper.html#a1fc868601a32fb0cd8fc536dafa8ecea" target="_top" xlink:title=" ">
<polygon fill="white" stroke="black" points="459,-164 459,-183 630,-183 630,-164 459,-164"/>
<text text-anchor="middle" x="544.5" y="-171" font-family="Helvetica,sans-Serif" font-size="10.00">TMC2130Stepper::beginTransaction</text>
</a>
</g>
</g>
<!-- Node3&#45;&gt;Node4 -->
<g id="edge3" class="edge"><title>Node3&#45;&gt;Node4</title>
<path fill="none" stroke="midnightblue" d="M378.522,-107.048C395.741,-119.725 428.117,-141.967 459,-154.5 465.272,-157.045 471.951,-159.283 478.7,-161.242"/>
<polygon fill="midnightblue" stroke="midnightblue" points="478.032,-164.687 488.599,-163.918 479.858,-157.93 478.032,-164.687"/>
</g>
<!-- Node5 -->
<g id="node5" class="node"><title>Node5</title>
<g id="a_node5"><a xlink:href="../../dd/deb/class_t_m_c2130_stepper.html#aeace18dcee808585dd4449e783811600" target="_top" xlink:title=" ">
<polygon fill="white" stroke="black" points="462.5,-126 462.5,-145 626.5,-145 626.5,-126 462.5,-126"/>
<text text-anchor="middle" x="544.5" y="-133" font-family="Helvetica,sans-Serif" font-size="10.00">TMC2130Stepper::endTransaction</text>
</a>
</g>
</g>
<!-- Node3&#45;&gt;Node5 -->
<g id="edge4" class="edge"><title>Node3&#45;&gt;Node5</title>
<path fill="none" stroke="midnightblue" d="M410.791,-107.089C434.53,-112.171 463.884,-118.455 488.944,-123.82"/>
<polygon fill="midnightblue" stroke="midnightblue" points="488.52,-127.309 499.031,-125.98 489.986,-120.464 488.52,-127.309"/>
</g>
<!-- Node6 -->
<g id="node6" class="node"><title>Node6</title>
<g id="a_node6"><a xlink:href="../../dd/deb/class_t_m_c2130_stepper.html#a4a8f3b6ac100045ed5f84fe4d18d9d5a" target="_top" xlink:title=" ">
<polygon fill="white" stroke="black" points="468.5,-88 468.5,-107 620.5,-107 620.5,-88 468.5,-88"/>
<text text-anchor="middle" x="544.5" y="-95" font-family="Helvetica,sans-Serif" font-size="10.00">TMC2130Stepper::switchCSpin</text>
</a>
</g>
</g>
<!-- Node3&#45;&gt;Node6 -->
<g id="edge5" class="edge"><title>Node3&#45;&gt;Node6</title>
<path fill="none" stroke="midnightblue" d="M423.139,-97.5C434.27,-97.5 446.163,-97.5 457.981,-97.5"/>
<polygon fill="midnightblue" stroke="midnightblue" points="458.325,-101 468.325,-97.5 458.324,-94.0001 458.325,-101"/>
</g>
<!-- Node7 -->
<g id="node7" class="node"><title>Node7</title>
<g id="a_node7"><a xlink:href="../../dd/deb/class_t_m_c2130_stepper.html#a0673af4887ec52b23aa658aa290f6623" target="_top" xlink:title=" ">
<polygon fill="white" stroke="black" points="666,-28 666,-47 796,-47 796,-28 666,-28"/>
<text text-anchor="middle" x="731" y="-35" font-family="Helvetica,sans-Serif" font-size="10.00">TMC2130Stepper::transfer</text>
</a>
</g>
</g>
<!-- Node3&#45;&gt;Node7 -->
<g id="edge6" class="edge"><title>Node3&#45;&gt;Node7</title>
<path fill="none" stroke="midnightblue" d="M410.378,-87.9498C425.744,-84.7717 443.099,-81.3252 459,-78.5 525.378,-66.7062 601.291,-55.4085 655.852,-47.6702"/>
<polygon fill="midnightblue" stroke="midnightblue" points="656.372,-51.1316 665.784,-46.2674 655.393,-44.2004 656.372,-51.1316"/>
</g>
<!-- Node9 -->
<g id="node9" class="node"><title>Node9</title>
<g id="a_node9"><a xlink:href="../../dd/deb/class_t_m_c2130_stepper.html#aba94fc7bb8e2c8c12191f44561f19d95" target="_top" xlink:title=" ">
<polygon fill="white" stroke="black" points="479.5,-0.5 479.5,-30.5 609.5,-30.5 609.5,-0.5 479.5,-0.5"/>
<text text-anchor="start" x="487.5" y="-18.5" font-family="Helvetica,sans-Serif" font-size="10.00">TMC2130Stepper::transfer</text>
<text text-anchor="middle" x="544.5" y="-7.5" font-family="Helvetica,sans-Serif" font-size="10.00">EmptyBytes</text>
</a>
</g>
</g>
<!-- Node3&#45;&gt;Node9 -->
<g id="edge8" class="edge"><title>Node3&#45;&gt;Node9</title>
<path fill="none" stroke="midnightblue" d="M381.378,-87.8381C399.488,-76.7136 430.694,-58.3277 459,-45.5 467.84,-41.494 477.386,-37.66 486.769,-34.1517"/>
<polygon fill="midnightblue" stroke="midnightblue" points="488.257,-37.3346 496.453,-30.6201 485.859,-30.7583 488.257,-37.3346"/>
</g>
<!-- Node8 -->
<g id="node8" class="node"><title>Node8</title>
<g id="a_node8"><a xlink:href="../../df/d8b/class_s_w___s_p_i_class.html#af260fdc0af3f1312b106483161e559c3" target="_top" xlink:title=" ">
<polygon fill="white" stroke="black" points="832,-28 832,-47 949,-47 949,-28 832,-28"/>
<text text-anchor="middle" x="890.5" y="-35" font-family="Helvetica,sans-Serif" font-size="10.00">SW_SPIClass::transfer</text>
</a>
</g>
</g>
<!-- Node7&#45;&gt;Node8 -->
<g id="edge7" class="edge"><title>Node7&#45;&gt;Node8</title>
<path fill="none" stroke="midnightblue" d="M796.061,-37.5C804.477,-37.5 813.125,-37.5 821.603,-37.5"/>
<polygon fill="midnightblue" stroke="midnightblue" points="821.831,-41.0001 831.831,-37.5 821.831,-34.0001 821.831,-41.0001"/>
</g>
<!-- Node9&#45;&gt;Node7 -->
<g id="edge9" class="edge"><title>Node9&#45;&gt;Node7</title>
<path fill="none" stroke="midnightblue" d="M609.511,-23.1328C624.452,-24.9144 640.487,-26.8263 655.827,-28.6556"/>
<polygon fill="midnightblue" stroke="midnightblue" points="655.445,-32.1347 665.79,-29.8435 656.274,-25.184 655.445,-32.1347"/>
</g>
</g>
</svg>
