<?xml version="1.0" encoding="UTF-8" standalone="no"?>
<!DOCTYPE svg PUBLIC "-//W3C//DTD SVG 1.1//EN"
 "http://www.w3.org/Graphics/SVG/1.1/DTD/svg11.dtd">
<!-- Generated by graphviz version 2.38.0 (20140413.2041)
 -->
<!-- Title: TMC5130Stepper::X_ENC Pages: 1 -->
<svg width="816pt" height="192pt"
 viewBox="0.00 0.00 816.00 191.50" xmlns="http://www.w3.org/2000/svg" xmlns:xlink="http://www.w3.org/1999/xlink">
<g id="graph0" class="graph" transform="scale(1 1) rotate(0) translate(4 187.5)">
<title>TMC5130Stepper::X_ENC</title>
<polygon fill="white" stroke="none" points="-4,4 -4,-187.5 812,-187.5 812,4 -4,4"/>
<!-- Node1 -->
<g id="node1" class="node"><title>Node1</title>
<g id="a_node1"><a xlink:title=" ">
<polygon fill="#bfbfbf" stroke="black" points="0,-88 0,-107 128,-107 128,-88 0,-88"/>
<text text-anchor="middle" x="64" y="-95" font-family="Helvetica,sans-Serif" font-size="10.00">TMC5130Stepper::X_ENC</text>
</a>
</g>
</g>
<!-- Node2 -->
<g id="node2" class="node"><title>Node2</title>
<g id="a_node2"><a xlink:href="../../dd/deb/class_t_m_c2130_stepper.html#a6b02e33ab452a7869426ede7ba370445" target="_top" xlink:title=" ">
<polygon fill="white" stroke="black" points="164,-88 164,-107 282,-107 282,-88 164,-88"/>
<text text-anchor="middle" x="223" y="-95" font-family="Helvetica,sans-Serif" font-size="10.00">TMC2130Stepper::write</text>
</a>
</g>
</g>
<!-- Node1&#45;&gt;Node2 -->
<g id="edge1" class="edge"><title>Node1&#45;&gt;Node2</title>
<path fill="none" stroke="midnightblue" d="M128.405,-97.5C136.755,-97.5 145.341,-97.5 153.767,-97.5"/>
<polygon fill="midnightblue" stroke="midnightblue" points="153.938,-101 163.938,-97.5 153.938,-94.0001 153.938,-101"/>
</g>
<!-- Node3 -->
<g id="node3" class="node"><title>Node3</title>
<g id="a_node3"><a xlink:href="../../dd/deb/class_t_m_c2130_stepper.html#a1fc868601a32fb0cd8fc536dafa8ecea" target="_top" xlink:title=" ">
<polygon fill="white" stroke="black" points="318,-164 318,-183 489,-183 489,-164 318,-164"/>
<text text-anchor="middle" x="403.5" y="-171" font-family="Helvetica,sans-Serif" font-size="10.00">TMC2130Stepper::beginTransaction</text>
</a>
</g>
</g>
<!-- Node2&#45;&gt;Node3 -->
<g id="edge2" class="edge"><title>Node2&#45;&gt;Node3</title>
<path fill="none" stroke="midnightblue" d="M236.674,-107.041C254.099,-119.71 286.845,-141.943 318,-154.5 324.372,-157.068 331.16,-159.325 338.015,-161.299"/>
<polygon fill="midnightblue" stroke="midnightblue" points="337.497,-164.784 348.062,-163.994 339.31,-158.023 337.497,-164.784"/>
</g>
<!-- Node4 -->
<g id="node4" class="node"><title>Node4</title>
<g id="a_node4"><a xlink:href="../../dd/deb/class_t_m_c2130_stepper.html#aeace18dcee808585dd4449e783811600" target="_top" xlink:title=" ">
<polygon fill="white" stroke="black" points="321.5,-126 321.5,-145 485.5,-145 485.5,-126 321.5,-126"/>
<text text-anchor="middle" x="403.5" y="-133" font-family="Helvetica,sans-Serif" font-size="10.00">TMC2130Stepper::endTransaction</text>
</a>
</g>
</g>
<!-- Node2&#45;&gt;Node4 -->
<g id="edge3" class="edge"><title>Node2&#45;&gt;Node4</title>
<path fill="none" stroke="midnightblue" d="M269.043,-107.089C293.023,-112.194 322.698,-118.511 347.972,-123.892"/>
<polygon fill="midnightblue" stroke="midnightblue" points="347.271,-127.321 357.781,-125.98 348.729,-120.474 347.271,-127.321"/>
</g>
<!-- Node5 -->
<g id="node5" class="node"><title>Node5</title>
<g id="a_node5"><a xlink:href="../../dd/deb/class_t_m_c2130_stepper.html#a4a8f3b6ac100045ed5f84fe4d18d9d5a" target="_top" xlink:title=" ">
<polygon fill="white" stroke="black" points="327.5,-88 327.5,-107 479.5,-107 479.5,-88 327.5,-88"/>
<text text-anchor="middle" x="403.5" y="-95" font-family="Helvetica,sans-Serif" font-size="10.00">TMC2130Stepper::switchCSpin</text>
</a>
</g>
</g>
<!-- Node2&#45;&gt;Node5 -->
<g id="edge4" class="edge"><title>Node2&#45;&gt;Node5</title>
<path fill="none" stroke="midnightblue" d="M282.448,-97.5C293.536,-97.5 305.347,-97.5 317.07,-97.5"/>
<polygon fill="midnightblue" stroke="midnightblue" points="317.329,-101 327.329,-97.5 317.329,-94.0001 317.329,-101"/>
</g>
<!-- Node6 -->
<g id="node6" class="node"><title>Node6</title>
<g id="a_node6"><a xlink:href="../../dd/deb/class_t_m_c2130_stepper.html#a0673af4887ec52b23aa658aa290f6623" target="_top" xlink:title=" ">
<polygon fill="white" stroke="black" points="525,-28 525,-47 655,-47 655,-28 525,-28"/>
<text text-anchor="middle" x="590" y="-35" font-family="Helvetica,sans-Serif" font-size="10.00">TMC2130Stepper::transfer</text>
</a>
</g>
</g>
<!-- Node2&#45;&gt;Node6 -->
<g id="edge5" class="edge"><title>Node2&#45;&gt;Node6</title>
<path fill="none" stroke="midnightblue" d="M268.859,-87.964C284.391,-84.787 301.932,-81.3376 318,-78.5 384.39,-66.7755 460.302,-55.4704 514.859,-47.7117"/>
<polygon fill="midnightblue" stroke="midnightblue" points="515.381,-51.1729 524.791,-46.3049 514.399,-44.2421 515.381,-51.1729"/>
</g>
<!-- Node8 -->
<g id="node8" class="node"><title>Node8</title>
<g id="a_node8"><a xlink:href="../../dd/deb/class_t_m_c2130_stepper.html#aba94fc7bb8e2c8c12191f44561f19d95" target="_top" xlink:title=" ">
<polygon fill="white" stroke="black" points="338.5,-0.5 338.5,-30.5 468.5,-30.5 468.5,-0.5 338.5,-0.5"/>
<text text-anchor="start" x="346.5" y="-18.5" font-family="Helvetica,sans-Serif" font-size="10.00">TMC2130Stepper::transfer</text>
<text text-anchor="middle" x="403.5" y="-7.5" font-family="Helvetica,sans-Serif" font-size="10.00">EmptyBytes</text>
</a>
</g>
</g>
<!-- Node2&#45;&gt;Node8 -->
<g id="edge7" class="edge"><title>Node2&#45;&gt;Node8</title>
<path fill="none" stroke="midnightblue" d="M239.559,-87.8524C257.877,-76.7413 289.432,-58.368 318,-45.5 327.049,-41.4242 336.831,-37.5179 346.42,-33.9495"/>
<polygon fill="midnightblue" stroke="midnightblue" points="347.707,-37.2056 355.91,-30.5 345.316,-30.6267 347.707,-37.2056"/>
</g>
<!-- Node7 -->
<g id="node7" class="node"><title>Node7</title>
<g id="a_node7"><a xlink:href="../../df/d8b/class_s_w___s_p_i_class.html#af260fdc0af3f1312b106483161e559c3" target="_top" xlink:title=" ">
<polygon fill="white" stroke="black" points="691,-28 691,-47 808,-47 808,-28 691,-28"/>
<text text-anchor="middle" x="749.5" y="-35" font-family="Helvetica,sans-Serif" font-size="10.00">SW_SPIClass::transfer</text>
</a>
</g>
</g>
<!-- Node6&#45;&gt;Node7 -->
<g id="edge6" class="edge"><title>Node6&#45;&gt;Node7</title>
<path fill="none" stroke="midnightblue" d="M655.061,-37.5C663.477,-37.5 672.125,-37.5 680.603,-37.5"/>
<polygon fill="midnightblue" stroke="midnightblue" points="680.831,-41.0001 690.831,-37.5 680.831,-34.0001 680.831,-41.0001"/>
</g>
<!-- Node8&#45;&gt;Node6 -->
<g id="edge8" class="edge"><title>Node8&#45;&gt;Node6</title>
<path fill="none" stroke="midnightblue" d="M468.511,-23.1328C483.452,-24.9144 499.487,-26.8263 514.827,-28.6556"/>
<polygon fill="midnightblue" stroke="midnightblue" points="514.445,-32.1347 524.79,-29.8435 515.274,-25.184 514.445,-32.1347"/>
</g>
</g>
</svg>
