<?xml version="1.0" encoding="UTF-8" standalone="no"?>
<!DOCTYPE svg PUBLIC "-//W3C//DTD SVG 1.1//EN"
 "http://www.w3.org/Graphics/SVG/1.1/DTD/svg11.dtd">
<!-- Generated by graphviz version 2.38.0 (20140413.2041)
 -->
<!-- Title: TMC5130Stepper::VSTOP Pages: 1 -->
<svg width="1010pt" height="206pt"
 viewBox="0.00 0.00 1010.00 205.87" xmlns="http://www.w3.org/2000/svg" xmlns:xlink="http://www.w3.org/1999/xlink">
<g id="graph0" class="graph" transform="scale(1 1) rotate(0) translate(4 201.873)">
<title>TMC5130Stepper::VSTOP</title>
<polygon fill="white" stroke="none" points="-4,4 -4,-201.873 1006,-201.873 1006,4 -4,4"/>
<!-- Node1 -->
<g id="node1" class="node"><title>Node1</title>
<g id="a_node1"><a xlink:title=" ">
<polygon fill="#bfbfbf" stroke="black" points="0,-91.2457 0,-110.246 131,-110.246 131,-91.2457 0,-91.2457"/>
<text text-anchor="middle" x="65.5" y="-98.2457" font-family="Helvetica,sans-Serif" font-size="10.00">TMC5130Stepper::VSTOP</text>
</a>
</g>
</g>
<!-- Node2 -->
<g id="node2" class="node"><title>Node2</title>
<g id="a_node2"><a xlink:href="../../d9/df8/class_t_m_c5130_stepper.html#a020e6ae2a6abce1a92338345aab2ae7c" target="_top" xlink:title=" ">
<polygon fill="white" stroke="black" points="167,-110.246 167,-129.246 322,-129.246 322,-110.246 167,-110.246"/>
<text text-anchor="middle" x="244.5" y="-117.246" font-family="Helvetica,sans-Serif" font-size="10.00">TMC5130Stepper::RAMPMODE</text>
</a>
</g>
</g>
<!-- Node1&#45;&gt;Node2 -->
<g id="edge1" class="edge"><title>Node1&#45;&gt;Node2</title>
<path fill="none" stroke="midnightblue" d="M131.152,-107.686C139.457,-108.577 148.064,-109.501 156.651,-110.423"/>
<polygon fill="midnightblue" stroke="midnightblue" points="156.386,-113.914 166.702,-111.502 157.133,-106.954 156.386,-113.914"/>
</g>
<!-- Node10 -->
<g id="node10" class="node"><title>Node10</title>
<g id="a_node10"><a xlink:href="../../dd/deb/class_t_m_c2130_stepper.html#a6b02e33ab452a7869426ede7ba370445" target="_top" xlink:title=" ">
<polygon fill="white" stroke="black" points="358,-72.2457 358,-91.2457 476,-91.2457 476,-72.2457 358,-72.2457"/>
<text text-anchor="middle" x="417" y="-79.2457" font-family="Helvetica,sans-Serif" font-size="10.00">TMC2130Stepper::write</text>
</a>
</g>
</g>
<!-- Node1&#45;&gt;Node10 -->
<g id="edge10" class="edge"><title>Node1&#45;&gt;Node10</title>
<path fill="none" stroke="midnightblue" d="M131.011,-97.2387C192.574,-93.8919 284.988,-88.8679 347.761,-85.4554"/>
<polygon fill="midnightblue" stroke="midnightblue" points="348.163,-88.9388 357.958,-84.901 347.783,-81.9491 348.163,-88.9388"/>
</g>
<!-- Node3 -->
<g id="node3" class="node"><title>Node3</title>
<g id="a_node3"><a xlink:href="../../dd/deb/class_t_m_c2130_stepper.html#a161ca6ebe3736454e17e9236572a6001" target="_top" xlink:title=" ">
<polygon fill="white" stroke="black" points="359,-110.246 359,-129.246 475,-129.246 475,-110.246 359,-110.246"/>
<text text-anchor="middle" x="417" y="-117.246" font-family="Helvetica,sans-Serif" font-size="10.00">TMC2130Stepper::read</text>
</a>
</g>
</g>
<!-- Node2&#45;&gt;Node3 -->
<g id="edge2" class="edge"><title>Node2&#45;&gt;Node3</title>
<path fill="none" stroke="midnightblue" d="M322.271,-119.746C331.101,-119.746 340.055,-119.746 348.746,-119.746"/>
<polygon fill="midnightblue" stroke="midnightblue" points="348.806,-123.246 358.806,-119.746 348.806,-116.246 348.806,-123.246"/>
</g>
<!-- Node4 -->
<g id="node4" class="node"><title>Node4</title>
<g id="a_node4"><a xlink:href="../../dd/deb/class_t_m_c2130_stepper.html#a1fc868601a32fb0cd8fc536dafa8ecea" target="_top" xlink:title=" ">
<polygon fill="white" stroke="black" points="512,-148.246 512,-167.246 683,-167.246 683,-148.246 512,-148.246"/>
<text text-anchor="middle" x="597.5" y="-155.246" font-family="Helvetica,sans-Serif" font-size="10.00">TMC2130Stepper::beginTransaction</text>
</a>
</g>
</g>
<!-- Node3&#45;&gt;Node4 -->
<g id="edge3" class="edge"><title>Node3&#45;&gt;Node4</title>
<path fill="none" stroke="midnightblue" d="M463.043,-129.335C487.023,-134.44 516.698,-140.757 541.972,-146.138"/>
<polygon fill="midnightblue" stroke="midnightblue" points="541.271,-149.567 551.781,-148.226 542.729,-142.72 541.271,-149.567"/>
</g>
<!-- Node5 -->
<g id="node5" class="node"><title>Node5</title>
<g id="a_node5"><a xlink:href="../../dd/deb/class_t_m_c2130_stepper.html#aeace18dcee808585dd4449e783811600" target="_top" xlink:title=" ">
<polygon fill="white" stroke="black" points="515.5,-110.246 515.5,-129.246 679.5,-129.246 679.5,-110.246 515.5,-110.246"/>
<text text-anchor="middle" x="597.5" y="-117.246" font-family="Helvetica,sans-Serif" font-size="10.00">TMC2130Stepper::endTransaction</text>
</a>
</g>
</g>
<!-- Node3&#45;&gt;Node5 -->
<g id="edge4" class="edge"><title>Node3&#45;&gt;Node5</title>
<path fill="none" stroke="midnightblue" d="M475.461,-119.746C485.016,-119.746 495.13,-119.746 505.277,-119.746"/>
<polygon fill="midnightblue" stroke="midnightblue" points="505.417,-123.246 515.417,-119.746 505.417,-116.246 505.417,-123.246"/>
</g>
<!-- Node6 -->
<g id="node6" class="node"><title>Node6</title>
<g id="a_node6"><a xlink:href="../../dd/deb/class_t_m_c2130_stepper.html#a4a8f3b6ac100045ed5f84fe4d18d9d5a" target="_top" xlink:title=" ">
<polygon fill="white" stroke="black" points="521.5,-72.2457 521.5,-91.2457 673.5,-91.2457 673.5,-72.2457 521.5,-72.2457"/>
<text text-anchor="middle" x="597.5" y="-79.2457" font-family="Helvetica,sans-Serif" font-size="10.00">TMC2130Stepper::switchCSpin</text>
</a>
</g>
</g>
<!-- Node3&#45;&gt;Node6 -->
<g id="edge5" class="edge"><title>Node3&#45;&gt;Node6</title>
<path fill="none" stroke="midnightblue" d="M463.043,-110.157C487.023,-105.052 516.698,-98.7344 541.972,-93.3539"/>
<polygon fill="midnightblue" stroke="midnightblue" points="542.729,-96.7713 551.781,-91.2657 541.271,-89.9247 542.729,-96.7713"/>
</g>
<!-- Node7 -->
<g id="node7" class="node"><title>Node7</title>
<g id="a_node7"><a xlink:href="../../dd/deb/class_t_m_c2130_stepper.html#a0673af4887ec52b23aa658aa290f6623" target="_top" xlink:title=" ">
<polygon fill="white" stroke="black" points="719,-28.2457 719,-47.2457 849,-47.2457 849,-28.2457 719,-28.2457"/>
<text text-anchor="middle" x="784" y="-35.2457" font-family="Helvetica,sans-Serif" font-size="10.00">TMC2130Stepper::transfer</text>
</a>
</g>
</g>
<!-- Node3&#45;&gt;Node7 -->
<g id="edge6" class="edge"><title>Node3&#45;&gt;Node7</title>
<path fill="none" stroke="midnightblue" d="M429.187,-129.389C445.883,-143.075 478.914,-167.498 512,-176.746 585.195,-197.204 615.364,-211.407 683,-176.746 732.44,-151.409 762.987,-88.9937 775.878,-57.1344"/>
<polygon fill="midnightblue" stroke="midnightblue" points="779.224,-58.188 779.575,-47.599 772.697,-55.6576 779.224,-58.188"/>
</g>
<!-- Node9 -->
<g id="node9" class="node"><title>Node9</title>
<g id="a_node9"><a xlink:href="../../dd/deb/class_t_m_c2130_stepper.html#aba94fc7bb8e2c8c12191f44561f19d95" target="_top" xlink:title=" ">
<polygon fill="white" stroke="black" points="532.5,-22.7457 532.5,-52.7457 662.5,-52.7457 662.5,-22.7457 532.5,-22.7457"/>
<text text-anchor="start" x="540.5" y="-40.7457" font-family="Helvetica,sans-Serif" font-size="10.00">TMC2130Stepper::transfer</text>
<text text-anchor="middle" x="597.5" y="-29.7457" font-family="Helvetica,sans-Serif" font-size="10.00">EmptyBytes</text>
</a>
</g>
</g>
<!-- Node3&#45;&gt;Node9 -->
<g id="edge8" class="edge"><title>Node3&#45;&gt;Node9</title>
<path fill="none" stroke="midnightblue" d="M456.353,-110.179C463.171,-107.655 470.002,-104.544 476,-100.746 495.655,-88.2995 492.167,-74.9064 512,-62.7457 515.424,-60.6465 519.034,-58.715 522.756,-56.9387"/>
<polygon fill="midnightblue" stroke="midnightblue" points="524.42,-60.0319 532.196,-52.8365 521.63,-53.6118 524.42,-60.0319"/>
</g>
<!-- Node8 -->
<g id="node8" class="node"><title>Node8</title>
<g id="a_node8"><a xlink:href="../../df/d8b/class_s_w___s_p_i_class.html#af260fdc0af3f1312b106483161e559c3" target="_top" xlink:title=" ">
<polygon fill="white" stroke="black" points="885,-28.2457 885,-47.2457 1002,-47.2457 1002,-28.2457 885,-28.2457"/>
<text text-anchor="middle" x="943.5" y="-35.2457" font-family="Helvetica,sans-Serif" font-size="10.00">SW_SPIClass::transfer</text>
</a>
</g>
</g>
<!-- Node7&#45;&gt;Node8 -->
<g id="edge7" class="edge"><title>Node7&#45;&gt;Node8</title>
<path fill="none" stroke="midnightblue" d="M849.061,-37.7457C857.477,-37.7457 866.125,-37.7457 874.603,-37.7457"/>
<polygon fill="midnightblue" stroke="midnightblue" points="874.831,-41.2458 884.831,-37.7457 874.831,-34.2458 874.831,-41.2458"/>
</g>
<!-- Node9&#45;&gt;Node7 -->
<g id="edge9" class="edge"><title>Node9&#45;&gt;Node7</title>
<path fill="none" stroke="midnightblue" d="M662.511,-37.7457C677.31,-37.7457 693.182,-37.7457 708.389,-37.7457"/>
<polygon fill="midnightblue" stroke="midnightblue" points="708.79,-41.2458 718.79,-37.7457 708.789,-34.2458 708.79,-41.2458"/>
</g>
<!-- Node10&#45;&gt;Node4 -->
<g id="edge11" class="edge"><title>Node10&#45;&gt;Node4</title>
<path fill="none" stroke="midnightblue" d="M456.353,-91.3121C463.171,-93.8362 470.002,-96.9477 476,-100.746 495.655,-113.192 491.774,-127.251 512,-138.746 515.93,-140.979 520.102,-142.95 524.406,-144.689"/>
<polygon fill="midnightblue" stroke="midnightblue" points="523.399,-148.047 533.993,-148.139 525.768,-141.46 523.399,-148.047"/>
</g>
<!-- Node10&#45;&gt;Node5 -->
<g id="edge12" class="edge"><title>Node10&#45;&gt;Node5</title>
<path fill="none" stroke="midnightblue" d="M463.043,-91.3347C487.023,-96.4396 516.698,-102.757 541.972,-108.138"/>
<polygon fill="midnightblue" stroke="midnightblue" points="541.271,-111.567 551.781,-110.226 542.729,-104.72 541.271,-111.567"/>
</g>
<!-- Node10&#45;&gt;Node6 -->
<g id="edge13" class="edge"><title>Node10&#45;&gt;Node6</title>
<path fill="none" stroke="midnightblue" d="M476.448,-81.7457C487.536,-81.7457 499.347,-81.7457 511.07,-81.7457"/>
<polygon fill="midnightblue" stroke="midnightblue" points="511.329,-85.2458 521.329,-81.7457 511.329,-78.2458 511.329,-85.2458"/>
</g>
<!-- Node10&#45;&gt;Node7 -->
<g id="edge14" class="edge"><title>Node10&#45;&gt;Node7</title>
<path fill="none" stroke="midnightblue" d="M426.718,-72.235C442.091,-56.2528 475.833,-24.5951 512,-12.7457 592.356,13.5809 692.804,-9.11958 745.98,-25.1653"/>
<polygon fill="midnightblue" stroke="midnightblue" points="745.066,-28.5463 755.654,-28.1698 747.142,-21.8613 745.066,-28.5463"/>
</g>
<!-- Node10&#45;&gt;Node9 -->
<g id="edge15" class="edge"><title>Node10&#45;&gt;Node9</title>
<path fill="none" stroke="midnightblue" d="M456.732,-72.1984C476.829,-67.2445 502.021,-61.0345 525.463,-55.2562"/>
<polygon fill="midnightblue" stroke="midnightblue" points="526.511,-58.6028 535.383,-52.8111 524.835,-51.8062 526.511,-58.6028"/>
</g>
</g>
</svg>
