<?xml version="1.0" encoding="UTF-8" standalone="no"?>
<!DOCTYPE svg PUBLIC "-//W3C//DTD SVG 1.1//EN"
 "http://www.w3.org/Graphics/SVG/1.1/DTD/svg11.dtd">
<!-- Generated by graphviz version 2.38.0 (20140413.2041)
 -->
<!-- Title: TMC5130Stepper::ENCMODE Pages: 1 -->
<svg width="833pt" height="192pt"
 viewBox="0.00 0.00 833.00 191.50" xmlns="http://www.w3.org/2000/svg" xmlns:xlink="http://www.w3.org/1999/xlink">
<g id="graph0" class="graph" transform="scale(1 1) rotate(0) translate(4 187.5)">
<title>TMC5130Stepper::ENCMODE</title>
<polygon fill="white" stroke="none" points="-4,4 -4,-187.5 829,-187.5 829,4 -4,4"/>
<!-- Node1 -->
<g id="node1" class="node"><title>Node1</title>
<g id="a_node1"><a xlink:title=" ">
<polygon fill="#bfbfbf" stroke="black" points="0,-88 0,-107 147,-107 147,-88 0,-88"/>
<text text-anchor="middle" x="73.5" y="-95" font-family="Helvetica,sans-Serif" font-size="10.00">TMC5130Stepper::ENCMODE</text>
</a>
</g>
</g>
<!-- Node2 -->
<g id="node2" class="node"><title>Node2</title>
<g id="a_node2"><a xlink:href="../../dd/deb/class_t_m_c2130_stepper.html#a161ca6ebe3736454e17e9236572a6001" target="_top" xlink:title=" ">
<polygon fill="white" stroke="black" points="183,-88 183,-107 299,-107 299,-88 183,-88"/>
<text text-anchor="middle" x="241" y="-95" font-family="Helvetica,sans-Serif" font-size="10.00">TMC2130Stepper::read</text>
</a>
</g>
</g>
<!-- Node1&#45;&gt;Node2 -->
<g id="edge1" class="edge"><title>Node1&#45;&gt;Node2</title>
<path fill="none" stroke="midnightblue" d="M147.091,-97.5C155.612,-97.5 164.278,-97.5 172.722,-97.5"/>
<polygon fill="midnightblue" stroke="midnightblue" points="172.887,-101 182.887,-97.5 172.887,-94.0001 172.887,-101"/>
</g>
<!-- Node3 -->
<g id="node3" class="node"><title>Node3</title>
<g id="a_node3"><a xlink:href="../../dd/deb/class_t_m_c2130_stepper.html#a1fc868601a32fb0cd8fc536dafa8ecea" target="_top" xlink:title=" ">
<polygon fill="white" stroke="black" points="335,-164 335,-183 506,-183 506,-164 335,-164"/>
<text text-anchor="middle" x="420.5" y="-171" font-family="Helvetica,sans-Serif" font-size="10.00">TMC2130Stepper::beginTransaction</text>
</a>
</g>
</g>
<!-- Node2&#45;&gt;Node3 -->
<g id="edge2" class="edge"><title>Node2&#45;&gt;Node3</title>
<path fill="none" stroke="midnightblue" d="M254.522,-107.048C271.741,-119.725 304.117,-141.967 335,-154.5 341.272,-157.045 347.951,-159.283 354.7,-161.242"/>
<polygon fill="midnightblue" stroke="midnightblue" points="354.032,-164.687 364.599,-163.918 355.858,-157.93 354.032,-164.687"/>
</g>
<!-- Node4 -->
<g id="node4" class="node"><title>Node4</title>
<g id="a_node4"><a xlink:href="../../dd/deb/class_t_m_c2130_stepper.html#aeace18dcee808585dd4449e783811600" target="_top" xlink:title=" ">
<polygon fill="white" stroke="black" points="338.5,-126 338.5,-145 502.5,-145 502.5,-126 338.5,-126"/>
<text text-anchor="middle" x="420.5" y="-133" font-family="Helvetica,sans-Serif" font-size="10.00">TMC2130Stepper::endTransaction</text>
</a>
</g>
</g>
<!-- Node2&#45;&gt;Node4 -->
<g id="edge3" class="edge"><title>Node2&#45;&gt;Node4</title>
<path fill="none" stroke="midnightblue" d="M286.791,-107.089C310.53,-112.171 339.884,-118.455 364.944,-123.82"/>
<polygon fill="midnightblue" stroke="midnightblue" points="364.52,-127.309 375.031,-125.98 365.986,-120.464 364.52,-127.309"/>
</g>
<!-- Node5 -->
<g id="node5" class="node"><title>Node5</title>
<g id="a_node5"><a xlink:href="../../dd/deb/class_t_m_c2130_stepper.html#a4a8f3b6ac100045ed5f84fe4d18d9d5a" target="_top" xlink:title=" ">
<polygon fill="white" stroke="black" points="344.5,-88 344.5,-107 496.5,-107 496.5,-88 344.5,-88"/>
<text text-anchor="middle" x="420.5" y="-95" font-family="Helvetica,sans-Serif" font-size="10.00">TMC2130Stepper::switchCSpin</text>
</a>
</g>
</g>
<!-- Node2&#45;&gt;Node5 -->
<g id="edge4" class="edge"><title>Node2&#45;&gt;Node5</title>
<path fill="none" stroke="midnightblue" d="M299.139,-97.5C310.27,-97.5 322.163,-97.5 333.981,-97.5"/>
<polygon fill="midnightblue" stroke="midnightblue" points="334.325,-101 344.325,-97.5 334.324,-94.0001 334.325,-101"/>
</g>
<!-- Node6 -->
<g id="node6" class="node"><title>Node6</title>
<g id="a_node6"><a xlink:href="../../dd/deb/class_t_m_c2130_stepper.html#a0673af4887ec52b23aa658aa290f6623" target="_top" xlink:title=" ">
<polygon fill="white" stroke="black" points="542,-28 542,-47 672,-47 672,-28 542,-28"/>
<text text-anchor="middle" x="607" y="-35" font-family="Helvetica,sans-Serif" font-size="10.00">TMC2130Stepper::transfer</text>
</a>
</g>
</g>
<!-- Node2&#45;&gt;Node6 -->
<g id="edge5" class="edge"><title>Node2&#45;&gt;Node6</title>
<path fill="none" stroke="midnightblue" d="M286.378,-87.9498C301.744,-84.7717 319.099,-81.3252 335,-78.5 401.378,-66.7062 477.291,-55.4085 531.852,-47.6702"/>
<polygon fill="midnightblue" stroke="midnightblue" points="532.372,-51.1316 541.784,-46.2674 531.393,-44.2004 532.372,-51.1316"/>
</g>
<!-- Node8 -->
<g id="node8" class="node"><title>Node8</title>
<g id="a_node8"><a xlink:href="../../dd/deb/class_t_m_c2130_stepper.html#aba94fc7bb8e2c8c12191f44561f19d95" target="_top" xlink:title=" ">
<polygon fill="white" stroke="black" points="355.5,-0.5 355.5,-30.5 485.5,-30.5 485.5,-0.5 355.5,-0.5"/>
<text text-anchor="start" x="363.5" y="-18.5" font-family="Helvetica,sans-Serif" font-size="10.00">TMC2130Stepper::transfer</text>
<text text-anchor="middle" x="420.5" y="-7.5" font-family="Helvetica,sans-Serif" font-size="10.00">EmptyBytes</text>
</a>
</g>
</g>
<!-- Node2&#45;&gt;Node8 -->
<g id="edge7" class="edge"><title>Node2&#45;&gt;Node8</title>
<path fill="none" stroke="midnightblue" d="M257.378,-87.8381C275.488,-76.7136 306.694,-58.3277 335,-45.5 343.84,-41.494 353.386,-37.66 362.769,-34.1517"/>
<polygon fill="midnightblue" stroke="midnightblue" points="364.257,-37.3346 372.453,-30.6201 361.859,-30.7583 364.257,-37.3346"/>
</g>
<!-- Node7 -->
<g id="node7" class="node"><title>Node7</title>
<g id="a_node7"><a xlink:href="../../df/d8b/class_s_w___s_p_i_class.html#af260fdc0af3f1312b106483161e559c3" target="_top" xlink:title=" ">
<polygon fill="white" stroke="black" points="708,-28 708,-47 825,-47 825,-28 708,-28"/>
<text text-anchor="middle" x="766.5" y="-35" font-family="Helvetica,sans-Serif" font-size="10.00">SW_SPIClass::transfer</text>
</a>
</g>
</g>
<!-- Node6&#45;&gt;Node7 -->
<g id="edge6" class="edge"><title>Node6&#45;&gt;Node7</title>
<path fill="none" stroke="midnightblue" d="M672.061,-37.5C680.477,-37.5 689.125,-37.5 697.603,-37.5"/>
<polygon fill="midnightblue" stroke="midnightblue" points="697.831,-41.0001 707.831,-37.5 697.831,-34.0001 697.831,-41.0001"/>
</g>
<!-- Node8&#45;&gt;Node6 -->
<g id="edge8" class="edge"><title>Node8&#45;&gt;Node6</title>
<path fill="none" stroke="midnightblue" d="M485.511,-23.1328C500.452,-24.9144 516.487,-26.8263 531.827,-28.6556"/>
<polygon fill="midnightblue" stroke="midnightblue" points="531.445,-32.1347 541.79,-29.8435 532.274,-25.184 531.445,-32.1347"/>
</g>
</g>
</svg>
