<?xml version="1.0" encoding="UTF-8" standalone="no"?>
<!DOCTYPE svg PUBLIC "-//W3C//DTD SVG 1.1//EN"
 "http://www.w3.org/Graphics/SVG/1.1/DTD/svg11.dtd">
<!-- Generated by graphviz version 2.38.0 (20140413.2041)
 -->
<!-- Title: TMC5130Stepper::XLATCH Pages: 1 -->
<svg width="820pt" height="192pt"
 viewBox="0.00 0.00 820.00 191.50" xmlns="http://www.w3.org/2000/svg" xmlns:xlink="http://www.w3.org/1999/xlink">
<g id="graph0" class="graph" transform="scale(1 1) rotate(0) translate(4 187.5)">
<title>TMC5130Stepper::XLATCH</title>
<polygon fill="white" stroke="none" points="-4,4 -4,-187.5 816,-187.5 816,4 -4,4"/>
<!-- Node1 -->
<g id="node1" class="node"><title>Node1</title>
<g id="a_node1"><a xlink:title=" ">
<polygon fill="#bfbfbf" stroke="black" points="0,-88 0,-107 134,-107 134,-88 0,-88"/>
<text text-anchor="middle" x="67" y="-95" font-family="Helvetica,sans-Serif" font-size="10.00">TMC5130Stepper::XLATCH</text>
</a>
</g>
</g>
<!-- Node2 -->
<g id="node2" class="node"><title>Node2</title>
<g id="a_node2"><a xlink:href="../../dd/deb/class_t_m_c2130_stepper.html#a161ca6ebe3736454e17e9236572a6001" target="_top" xlink:title=" ">
<polygon fill="white" stroke="black" points="170,-88 170,-107 286,-107 286,-88 170,-88"/>
<text text-anchor="middle" x="228" y="-95" font-family="Helvetica,sans-Serif" font-size="10.00">TMC2130Stepper::read</text>
</a>
</g>
</g>
<!-- Node1&#45;&gt;Node2 -->
<g id="edge1" class="edge"><title>Node1&#45;&gt;Node2</title>
<path fill="none" stroke="midnightblue" d="M134.049,-97.5C142.481,-97.5 151.12,-97.5 159.573,-97.5"/>
<polygon fill="midnightblue" stroke="midnightblue" points="159.765,-101 169.765,-97.5 159.765,-94.0001 159.765,-101"/>
</g>
<!-- Node3 -->
<g id="node3" class="node"><title>Node3</title>
<g id="a_node3"><a xlink:href="../../dd/deb/class_t_m_c2130_stepper.html#a1fc868601a32fb0cd8fc536dafa8ecea" target="_top" xlink:title=" ">
<polygon fill="white" stroke="black" points="322,-164 322,-183 493,-183 493,-164 322,-164"/>
<text text-anchor="middle" x="407.5" y="-171" font-family="Helvetica,sans-Serif" font-size="10.00">TMC2130Stepper::beginTransaction</text>
</a>
</g>
</g>
<!-- Node2&#45;&gt;Node3 -->
<g id="edge2" class="edge"><title>Node2&#45;&gt;Node3</title>
<path fill="none" stroke="midnightblue" d="M241.522,-107.048C258.741,-119.725 291.117,-141.967 322,-154.5 328.272,-157.045 334.951,-159.283 341.7,-161.242"/>
<polygon fill="midnightblue" stroke="midnightblue" points="341.032,-164.687 351.599,-163.918 342.858,-157.93 341.032,-164.687"/>
</g>
<!-- Node4 -->
<g id="node4" class="node"><title>Node4</title>
<g id="a_node4"><a xlink:href="../../dd/deb/class_t_m_c2130_stepper.html#aeace18dcee808585dd4449e783811600" target="_top" xlink:title=" ">
<polygon fill="white" stroke="black" points="325.5,-126 325.5,-145 489.5,-145 489.5,-126 325.5,-126"/>
<text text-anchor="middle" x="407.5" y="-133" font-family="Helvetica,sans-Serif" font-size="10.00">TMC2130Stepper::endTransaction</text>
</a>
</g>
</g>
<!-- Node2&#45;&gt;Node4 -->
<g id="edge3" class="edge"><title>Node2&#45;&gt;Node4</title>
<path fill="none" stroke="midnightblue" d="M273.791,-107.089C297.53,-112.171 326.884,-118.455 351.944,-123.82"/>
<polygon fill="midnightblue" stroke="midnightblue" points="351.52,-127.309 362.031,-125.98 352.986,-120.464 351.52,-127.309"/>
</g>
<!-- Node5 -->
<g id="node5" class="node"><title>Node5</title>
<g id="a_node5"><a xlink:href="../../dd/deb/class_t_m_c2130_stepper.html#a4a8f3b6ac100045ed5f84fe4d18d9d5a" target="_top" xlink:title=" ">
<polygon fill="white" stroke="black" points="331.5,-88 331.5,-107 483.5,-107 483.5,-88 331.5,-88"/>
<text text-anchor="middle" x="407.5" y="-95" font-family="Helvetica,sans-Serif" font-size="10.00">TMC2130Stepper::switchCSpin</text>
</a>
</g>
</g>
<!-- Node2&#45;&gt;Node5 -->
<g id="edge4" class="edge"><title>Node2&#45;&gt;Node5</title>
<path fill="none" stroke="midnightblue" d="M286.139,-97.5C297.27,-97.5 309.163,-97.5 320.981,-97.5"/>
<polygon fill="midnightblue" stroke="midnightblue" points="321.325,-101 331.325,-97.5 321.324,-94.0001 321.325,-101"/>
</g>
<!-- Node6 -->
<g id="node6" class="node"><title>Node6</title>
<g id="a_node6"><a xlink:href="../../dd/deb/class_t_m_c2130_stepper.html#a0673af4887ec52b23aa658aa290f6623" target="_top" xlink:title=" ">
<polygon fill="white" stroke="black" points="529,-28 529,-47 659,-47 659,-28 529,-28"/>
<text text-anchor="middle" x="594" y="-35" font-family="Helvetica,sans-Serif" font-size="10.00">TMC2130Stepper::transfer</text>
</a>
</g>
</g>
<!-- Node2&#45;&gt;Node6 -->
<g id="edge5" class="edge"><title>Node2&#45;&gt;Node6</title>
<path fill="none" stroke="midnightblue" d="M273.378,-87.9498C288.744,-84.7717 306.099,-81.3252 322,-78.5 388.378,-66.7062 464.291,-55.4085 518.852,-47.6702"/>
<polygon fill="midnightblue" stroke="midnightblue" points="519.372,-51.1316 528.784,-46.2674 518.393,-44.2004 519.372,-51.1316"/>
</g>
<!-- Node8 -->
<g id="node8" class="node"><title>Node8</title>
<g id="a_node8"><a xlink:href="../../dd/deb/class_t_m_c2130_stepper.html#aba94fc7bb8e2c8c12191f44561f19d95" target="_top" xlink:title=" ">
<polygon fill="white" stroke="black" points="342.5,-0.5 342.5,-30.5 472.5,-30.5 472.5,-0.5 342.5,-0.5"/>
<text text-anchor="start" x="350.5" y="-18.5" font-family="Helvetica,sans-Serif" font-size="10.00">TMC2130Stepper::transfer</text>
<text text-anchor="middle" x="407.5" y="-7.5" font-family="Helvetica,sans-Serif" font-size="10.00">EmptyBytes</text>
</a>
</g>
</g>
<!-- Node2&#45;&gt;Node8 -->
<g id="edge7" class="edge"><title>Node2&#45;&gt;Node8</title>
<path fill="none" stroke="midnightblue" d="M244.378,-87.8381C262.488,-76.7136 293.694,-58.3277 322,-45.5 330.84,-41.494 340.386,-37.66 349.769,-34.1517"/>
<polygon fill="midnightblue" stroke="midnightblue" points="351.257,-37.3346 359.453,-30.6201 348.859,-30.7583 351.257,-37.3346"/>
</g>
<!-- Node7 -->
<g id="node7" class="node"><title>Node7</title>
<g id="a_node7"><a xlink:href="../../df/d8b/class_s_w___s_p_i_class.html#af260fdc0af3f1312b106483161e559c3" target="_top" xlink:title=" ">
<polygon fill="white" stroke="black" points="695,-28 695,-47 812,-47 812,-28 695,-28"/>
<text text-anchor="middle" x="753.5" y="-35" font-family="Helvetica,sans-Serif" font-size="10.00">SW_SPIClass::transfer</text>
</a>
</g>
</g>
<!-- Node6&#45;&gt;Node7 -->
<g id="edge6" class="edge"><title>Node6&#45;&gt;Node7</title>
<path fill="none" stroke="midnightblue" d="M659.061,-37.5C667.477,-37.5 676.125,-37.5 684.603,-37.5"/>
<polygon fill="midnightblue" stroke="midnightblue" points="684.831,-41.0001 694.831,-37.5 684.831,-34.0001 684.831,-41.0001"/>
</g>
<!-- Node8&#45;&gt;Node6 -->
<g id="edge8" class="edge"><title>Node8&#45;&gt;Node6</title>
<path fill="none" stroke="midnightblue" d="M472.511,-23.1328C487.452,-24.9144 503.487,-26.8263 518.827,-28.6556"/>
<polygon fill="midnightblue" stroke="midnightblue" points="518.445,-32.1347 528.79,-29.8435 519.274,-25.184 518.445,-32.1347"/>
</g>
</g>
</svg>
