<?xml version="1.0" encoding="UTF-8" standalone="no"?>
<!DOCTYPE svg PUBLIC "-//W3C//DTD SVG 1.1//EN"
 "http://www.w3.org/Graphics/SVG/1.1/DTD/svg11.dtd">
<!-- Generated by graphviz version 2.38.0 (20140413.2041)
 -->
<!-- Title: TMC5130Stepper::RAMP_STAT Pages: 1 -->
<svg width="841pt" height="192pt"
 viewBox="0.00 0.00 841.00 191.50" xmlns="http://www.w3.org/2000/svg" xmlns:xlink="http://www.w3.org/1999/xlink">
<g id="graph0" class="graph" transform="scale(1 1) rotate(0) translate(4 187.5)">
<title>TMC5130Stepper::RAMP_STAT</title>
<polygon fill="white" stroke="none" points="-4,4 -4,-187.5 837,-187.5 837,4 -4,4"/>
<!-- Node1 -->
<g id="node1" class="node"><title>Node1</title>
<g id="a_node1"><a xlink:title=" ">
<polygon fill="#bfbfbf" stroke="black" points="0,-88 0,-107 155,-107 155,-88 0,-88"/>
<text text-anchor="middle" x="77.5" y="-95" font-family="Helvetica,sans-Serif" font-size="10.00">TMC5130Stepper::RAMP_STAT</text>
</a>
</g>
</g>
<!-- Node2 -->
<g id="node2" class="node"><title>Node2</title>
<g id="a_node2"><a xlink:href="../../dd/deb/class_t_m_c2130_stepper.html#a161ca6ebe3736454e17e9236572a6001" target="_top" xlink:title=" ">
<polygon fill="white" stroke="black" points="191,-88 191,-107 307,-107 307,-88 191,-88"/>
<text text-anchor="middle" x="249" y="-95" font-family="Helvetica,sans-Serif" font-size="10.00">TMC2130Stepper::read</text>
</a>
</g>
</g>
<!-- Node1&#45;&gt;Node2 -->
<g id="edge1" class="edge"><title>Node1&#45;&gt;Node2</title>
<path fill="none" stroke="midnightblue" d="M155.315,-97.5C163.846,-97.5 172.486,-97.5 180.884,-97.5"/>
<polygon fill="midnightblue" stroke="midnightblue" points="180.984,-101 190.984,-97.5 180.984,-94.0001 180.984,-101"/>
</g>
<!-- Node3 -->
<g id="node3" class="node"><title>Node3</title>
<g id="a_node3"><a xlink:href="../../dd/deb/class_t_m_c2130_stepper.html#a1fc868601a32fb0cd8fc536dafa8ecea" target="_top" xlink:title=" ">
<polygon fill="white" stroke="black" points="343,-164 343,-183 514,-183 514,-164 343,-164"/>
<text text-anchor="middle" x="428.5" y="-171" font-family="Helvetica,sans-Serif" font-size="10.00">TMC2130Stepper::beginTransaction</text>
</a>
</g>
</g>
<!-- Node2&#45;&gt;Node3 -->
<g id="edge2" class="edge"><title>Node2&#45;&gt;Node3</title>
<path fill="none" stroke="midnightblue" d="M262.522,-107.048C279.741,-119.725 312.117,-141.967 343,-154.5 349.272,-157.045 355.951,-159.283 362.7,-161.242"/>
<polygon fill="midnightblue" stroke="midnightblue" points="362.032,-164.687 372.599,-163.918 363.858,-157.93 362.032,-164.687"/>
</g>
<!-- Node4 -->
<g id="node4" class="node"><title>Node4</title>
<g id="a_node4"><a xlink:href="../../dd/deb/class_t_m_c2130_stepper.html#aeace18dcee808585dd4449e783811600" target="_top" xlink:title=" ">
<polygon fill="white" stroke="black" points="346.5,-126 346.5,-145 510.5,-145 510.5,-126 346.5,-126"/>
<text text-anchor="middle" x="428.5" y="-133" font-family="Helvetica,sans-Serif" font-size="10.00">TMC2130Stepper::endTransaction</text>
</a>
</g>
</g>
<!-- Node2&#45;&gt;Node4 -->
<g id="edge3" class="edge"><title>Node2&#45;&gt;Node4</title>
<path fill="none" stroke="midnightblue" d="M294.791,-107.089C318.53,-112.171 347.884,-118.455 372.944,-123.82"/>
<polygon fill="midnightblue" stroke="midnightblue" points="372.52,-127.309 383.031,-125.98 373.986,-120.464 372.52,-127.309"/>
</g>
<!-- Node5 -->
<g id="node5" class="node"><title>Node5</title>
<g id="a_node5"><a xlink:href="../../dd/deb/class_t_m_c2130_stepper.html#a4a8f3b6ac100045ed5f84fe4d18d9d5a" target="_top" xlink:title=" ">
<polygon fill="white" stroke="black" points="352.5,-88 352.5,-107 504.5,-107 504.5,-88 352.5,-88"/>
<text text-anchor="middle" x="428.5" y="-95" font-family="Helvetica,sans-Serif" font-size="10.00">TMC2130Stepper::switchCSpin</text>
</a>
</g>
</g>
<!-- Node2&#45;&gt;Node5 -->
<g id="edge4" class="edge"><title>Node2&#45;&gt;Node5</title>
<path fill="none" stroke="midnightblue" d="M307.139,-97.5C318.27,-97.5 330.163,-97.5 341.981,-97.5"/>
<polygon fill="midnightblue" stroke="midnightblue" points="342.325,-101 352.325,-97.5 342.324,-94.0001 342.325,-101"/>
</g>
<!-- Node6 -->
<g id="node6" class="node"><title>Node6</title>
<g id="a_node6"><a xlink:href="../../dd/deb/class_t_m_c2130_stepper.html#a0673af4887ec52b23aa658aa290f6623" target="_top" xlink:title=" ">
<polygon fill="white" stroke="black" points="550,-28 550,-47 680,-47 680,-28 550,-28"/>
<text text-anchor="middle" x="615" y="-35" font-family="Helvetica,sans-Serif" font-size="10.00">TMC2130Stepper::transfer</text>
</a>
</g>
</g>
<!-- Node2&#45;&gt;Node6 -->
<g id="edge5" class="edge"><title>Node2&#45;&gt;Node6</title>
<path fill="none" stroke="midnightblue" d="M294.378,-87.9498C309.744,-84.7717 327.099,-81.3252 343,-78.5 409.378,-66.7062 485.291,-55.4085 539.852,-47.6702"/>
<polygon fill="midnightblue" stroke="midnightblue" points="540.372,-51.1316 549.784,-46.2674 539.393,-44.2004 540.372,-51.1316"/>
</g>
<!-- Node8 -->
<g id="node8" class="node"><title>Node8</title>
<g id="a_node8"><a xlink:href="../../dd/deb/class_t_m_c2130_stepper.html#aba94fc7bb8e2c8c12191f44561f19d95" target="_top" xlink:title=" ">
<polygon fill="white" stroke="black" points="363.5,-0.5 363.5,-30.5 493.5,-30.5 493.5,-0.5 363.5,-0.5"/>
<text text-anchor="start" x="371.5" y="-18.5" font-family="Helvetica,sans-Serif" font-size="10.00">TMC2130Stepper::transfer</text>
<text text-anchor="middle" x="428.5" y="-7.5" font-family="Helvetica,sans-Serif" font-size="10.00">EmptyBytes</text>
</a>
</g>
</g>
<!-- Node2&#45;&gt;Node8 -->
<g id="edge7" class="edge"><title>Node2&#45;&gt;Node8</title>
<path fill="none" stroke="midnightblue" d="M265.378,-87.8381C283.488,-76.7136 314.694,-58.3277 343,-45.5 351.84,-41.494 361.386,-37.66 370.769,-34.1517"/>
<polygon fill="midnightblue" stroke="midnightblue" points="372.257,-37.3346 380.453,-30.6201 369.859,-30.7583 372.257,-37.3346"/>
</g>
<!-- Node7 -->
<g id="node7" class="node"><title>Node7</title>
<g id="a_node7"><a xlink:href="../../df/d8b/class_s_w___s_p_i_class.html#af260fdc0af3f1312b106483161e559c3" target="_top" xlink:title=" ">
<polygon fill="white" stroke="black" points="716,-28 716,-47 833,-47 833,-28 716,-28"/>
<text text-anchor="middle" x="774.5" y="-35" font-family="Helvetica,sans-Serif" font-size="10.00">SW_SPIClass::transfer</text>
</a>
</g>
</g>
<!-- Node6&#45;&gt;Node7 -->
<g id="edge6" class="edge"><title>Node6&#45;&gt;Node7</title>
<path fill="none" stroke="midnightblue" d="M680.061,-37.5C688.477,-37.5 697.125,-37.5 705.603,-37.5"/>
<polygon fill="midnightblue" stroke="midnightblue" points="705.831,-41.0001 715.831,-37.5 705.831,-34.0001 705.831,-41.0001"/>
</g>
<!-- Node8&#45;&gt;Node6 -->
<g id="edge8" class="edge"><title>Node8&#45;&gt;Node6</title>
<path fill="none" stroke="midnightblue" d="M493.511,-23.1328C508.452,-24.9144 524.487,-26.8263 539.827,-28.6556"/>
<polygon fill="midnightblue" stroke="midnightblue" points="539.445,-32.1347 549.79,-29.8435 540.274,-25.184 539.445,-32.1347"/>
</g>
</g>
</svg>
