<?xml version="1.0" encoding="UTF-8" standalone="no"?>
<!DOCTYPE svg PUBLIC "-//W3C//DTD SVG 1.1//EN"
 "http://www.w3.org/Graphics/SVG/1.1/DTD/svg11.dtd">
<!-- Generated by graphviz version 2.38.0 (20140413.2041)
 -->
<!-- Title: TMC5130Stepper::AMAX Pages: 1 -->
<svg width="813pt" height="192pt"
 viewBox="0.00 0.00 813.00 191.50" xmlns="http://www.w3.org/2000/svg" xmlns:xlink="http://www.w3.org/1999/xlink">
<g id="graph0" class="graph" transform="scale(1 1) rotate(0) translate(4 187.5)">
<title>TMC5130Stepper::AMAX</title>
<polygon fill="white" stroke="none" points="-4,4 -4,-187.5 809,-187.5 809,4 -4,4"/>
<!-- Node1 -->
<g id="node1" class="node"><title>Node1</title>
<g id="a_node1"><a xlink:title=" ">
<polygon fill="#bfbfbf" stroke="black" points="0,-88 0,-107 125,-107 125,-88 0,-88"/>
<text text-anchor="middle" x="62.5" y="-95" font-family="Helvetica,sans-Serif" font-size="10.00">TMC5130Stepper::AMAX</text>
</a>
</g>
</g>
<!-- Node2 -->
<g id="node2" class="node"><title>Node2</title>
<g id="a_node2"><a xlink:href="../../dd/deb/class_t_m_c2130_stepper.html#a6b02e33ab452a7869426ede7ba370445" target="_top" xlink:title=" ">
<polygon fill="white" stroke="black" points="161,-88 161,-107 279,-107 279,-88 161,-88"/>
<text text-anchor="middle" x="220" y="-95" font-family="Helvetica,sans-Serif" font-size="10.00">TMC2130Stepper::write</text>
</a>
</g>
</g>
<!-- Node1&#45;&gt;Node2 -->
<g id="edge1" class="edge"><title>Node1&#45;&gt;Node2</title>
<path fill="none" stroke="midnightblue" d="M125.405,-97.5C133.714,-97.5 142.275,-97.5 150.687,-97.5"/>
<polygon fill="midnightblue" stroke="midnightblue" points="150.847,-101 160.847,-97.5 150.847,-94.0001 150.847,-101"/>
</g>
<!-- Node3 -->
<g id="node3" class="node"><title>Node3</title>
<g id="a_node3"><a xlink:href="../../dd/deb/class_t_m_c2130_stepper.html#a1fc868601a32fb0cd8fc536dafa8ecea" target="_top" xlink:title=" ">
<polygon fill="white" stroke="black" points="315,-164 315,-183 486,-183 486,-164 315,-164"/>
<text text-anchor="middle" x="400.5" y="-171" font-family="Helvetica,sans-Serif" font-size="10.00">TMC2130Stepper::beginTransaction</text>
</a>
</g>
</g>
<!-- Node2&#45;&gt;Node3 -->
<g id="edge2" class="edge"><title>Node2&#45;&gt;Node3</title>
<path fill="none" stroke="midnightblue" d="M233.674,-107.041C251.099,-119.71 283.845,-141.943 315,-154.5 321.372,-157.068 328.16,-159.325 335.015,-161.299"/>
<polygon fill="midnightblue" stroke="midnightblue" points="334.497,-164.784 345.062,-163.994 336.31,-158.023 334.497,-164.784"/>
</g>
<!-- Node4 -->
<g id="node4" class="node"><title>Node4</title>
<g id="a_node4"><a xlink:href="../../dd/deb/class_t_m_c2130_stepper.html#aeace18dcee808585dd4449e783811600" target="_top" xlink:title=" ">
<polygon fill="white" stroke="black" points="318.5,-126 318.5,-145 482.5,-145 482.5,-126 318.5,-126"/>
<text text-anchor="middle" x="400.5" y="-133" font-family="Helvetica,sans-Serif" font-size="10.00">TMC2130Stepper::endTransaction</text>
</a>
</g>
</g>
<!-- Node2&#45;&gt;Node4 -->
<g id="edge3" class="edge"><title>Node2&#45;&gt;Node4</title>
<path fill="none" stroke="midnightblue" d="M266.043,-107.089C290.023,-112.194 319.698,-118.511 344.972,-123.892"/>
<polygon fill="midnightblue" stroke="midnightblue" points="344.271,-127.321 354.781,-125.98 345.729,-120.474 344.271,-127.321"/>
</g>
<!-- Node5 -->
<g id="node5" class="node"><title>Node5</title>
<g id="a_node5"><a xlink:href="../../dd/deb/class_t_m_c2130_stepper.html#a4a8f3b6ac100045ed5f84fe4d18d9d5a" target="_top" xlink:title=" ">
<polygon fill="white" stroke="black" points="324.5,-88 324.5,-107 476.5,-107 476.5,-88 324.5,-88"/>
<text text-anchor="middle" x="400.5" y="-95" font-family="Helvetica,sans-Serif" font-size="10.00">TMC2130Stepper::switchCSpin</text>
</a>
</g>
</g>
<!-- Node2&#45;&gt;Node5 -->
<g id="edge4" class="edge"><title>Node2&#45;&gt;Node5</title>
<path fill="none" stroke="midnightblue" d="M279.448,-97.5C290.536,-97.5 302.347,-97.5 314.07,-97.5"/>
<polygon fill="midnightblue" stroke="midnightblue" points="314.329,-101 324.329,-97.5 314.329,-94.0001 314.329,-101"/>
</g>
<!-- Node6 -->
<g id="node6" class="node"><title>Node6</title>
<g id="a_node6"><a xlink:href="../../dd/deb/class_t_m_c2130_stepper.html#a0673af4887ec52b23aa658aa290f6623" target="_top" xlink:title=" ">
<polygon fill="white" stroke="black" points="522,-28 522,-47 652,-47 652,-28 522,-28"/>
<text text-anchor="middle" x="587" y="-35" font-family="Helvetica,sans-Serif" font-size="10.00">TMC2130Stepper::transfer</text>
</a>
</g>
</g>
<!-- Node2&#45;&gt;Node6 -->
<g id="edge5" class="edge"><title>Node2&#45;&gt;Node6</title>
<path fill="none" stroke="midnightblue" d="M265.859,-87.964C281.391,-84.787 298.932,-81.3376 315,-78.5 381.39,-66.7755 457.302,-55.4704 511.859,-47.7117"/>
<polygon fill="midnightblue" stroke="midnightblue" points="512.381,-51.1729 521.791,-46.3049 511.399,-44.2421 512.381,-51.1729"/>
</g>
<!-- Node8 -->
<g id="node8" class="node"><title>Node8</title>
<g id="a_node8"><a xlink:href="../../dd/deb/class_t_m_c2130_stepper.html#aba94fc7bb8e2c8c12191f44561f19d95" target="_top" xlink:title=" ">
<polygon fill="white" stroke="black" points="335.5,-0.5 335.5,-30.5 465.5,-30.5 465.5,-0.5 335.5,-0.5"/>
<text text-anchor="start" x="343.5" y="-18.5" font-family="Helvetica,sans-Serif" font-size="10.00">TMC2130Stepper::transfer</text>
<text text-anchor="middle" x="400.5" y="-7.5" font-family="Helvetica,sans-Serif" font-size="10.00">EmptyBytes</text>
</a>
</g>
</g>
<!-- Node2&#45;&gt;Node8 -->
<g id="edge7" class="edge"><title>Node2&#45;&gt;Node8</title>
<path fill="none" stroke="midnightblue" d="M236.559,-87.8524C254.877,-76.7413 286.432,-58.368 315,-45.5 324.049,-41.4242 333.831,-37.5179 343.42,-33.9495"/>
<polygon fill="midnightblue" stroke="midnightblue" points="344.707,-37.2056 352.91,-30.5 342.316,-30.6267 344.707,-37.2056"/>
</g>
<!-- Node7 -->
<g id="node7" class="node"><title>Node7</title>
<g id="a_node7"><a xlink:href="../../df/d8b/class_s_w___s_p_i_class.html#af260fdc0af3f1312b106483161e559c3" target="_top" xlink:title=" ">
<polygon fill="white" stroke="black" points="688,-28 688,-47 805,-47 805,-28 688,-28"/>
<text text-anchor="middle" x="746.5" y="-35" font-family="Helvetica,sans-Serif" font-size="10.00">SW_SPIClass::transfer</text>
</a>
</g>
</g>
<!-- Node6&#45;&gt;Node7 -->
<g id="edge6" class="edge"><title>Node6&#45;&gt;Node7</title>
<path fill="none" stroke="midnightblue" d="M652.061,-37.5C660.477,-37.5 669.125,-37.5 677.603,-37.5"/>
<polygon fill="midnightblue" stroke="midnightblue" points="677.831,-41.0001 687.831,-37.5 677.831,-34.0001 677.831,-41.0001"/>
</g>
<!-- Node8&#45;&gt;Node6 -->
<g id="edge8" class="edge"><title>Node8&#45;&gt;Node6</title>
<path fill="none" stroke="midnightblue" d="M465.511,-23.1328C480.452,-24.9144 496.487,-26.8263 511.827,-28.6556"/>
<polygon fill="midnightblue" stroke="midnightblue" points="511.445,-32.1347 521.79,-29.8435 512.274,-25.184 511.445,-32.1347"/>
</g>
</g>
</svg>
