<?xml version="1.0" encoding="UTF-8" standalone="no"?>
<!DOCTYPE svg PUBLIC "-//W3C//DTD SVG 1.1//EN"
 "http://www.w3.org/Graphics/SVG/1.1/DTD/svg11.dtd">
<!-- Generated by graphviz version 2.38.0 (20140413.2041)
 -->
<!-- Title: TMC5130Stepper::V1 Pages: 1 -->
<svg width="798pt" height="192pt"
 viewBox="0.00 0.00 798.00 191.50" xmlns="http://www.w3.org/2000/svg" xmlns:xlink="http://www.w3.org/1999/xlink">
<g id="graph0" class="graph" transform="scale(1 1) rotate(0) translate(4 187.5)">
<title>TMC5130Stepper::V1</title>
<polygon fill="white" stroke="none" points="-4,4 -4,-187.5 794,-187.5 794,4 -4,4"/>
<!-- Node1 -->
<g id="node1" class="node"><title>Node1</title>
<g id="a_node1"><a xlink:title=" ">
<polygon fill="#bfbfbf" stroke="black" points="0,-88 0,-107 110,-107 110,-88 0,-88"/>
<text text-anchor="middle" x="55" y="-95" font-family="Helvetica,sans-Serif" font-size="10.00">TMC5130Stepper::V1</text>
</a>
</g>
</g>
<!-- Node2 -->
<g id="node2" class="node"><title>Node2</title>
<g id="a_node2"><a xlink:href="../../dd/deb/class_t_m_c2130_stepper.html#a6b02e33ab452a7869426ede7ba370445" target="_top" xlink:title=" ">
<polygon fill="white" stroke="black" points="146,-88 146,-107 264,-107 264,-88 146,-88"/>
<text text-anchor="middle" x="205" y="-95" font-family="Helvetica,sans-Serif" font-size="10.00">TMC2130Stepper::write</text>
</a>
</g>
</g>
<!-- Node1&#45;&gt;Node2 -->
<g id="edge1" class="edge"><title>Node1&#45;&gt;Node2</title>
<path fill="none" stroke="midnightblue" d="M110.269,-97.5C118.481,-97.5 127.041,-97.5 135.506,-97.5"/>
<polygon fill="midnightblue" stroke="midnightblue" points="135.752,-101 145.752,-97.5 135.752,-94.0001 135.752,-101"/>
</g>
<!-- Node3 -->
<g id="node3" class="node"><title>Node3</title>
<g id="a_node3"><a xlink:href="../../dd/deb/class_t_m_c2130_stepper.html#a1fc868601a32fb0cd8fc536dafa8ecea" target="_top" xlink:title=" ">
<polygon fill="white" stroke="black" points="300,-164 300,-183 471,-183 471,-164 300,-164"/>
<text text-anchor="middle" x="385.5" y="-171" font-family="Helvetica,sans-Serif" font-size="10.00">TMC2130Stepper::beginTransaction</text>
</a>
</g>
</g>
<!-- Node2&#45;&gt;Node3 -->
<g id="edge2" class="edge"><title>Node2&#45;&gt;Node3</title>
<path fill="none" stroke="midnightblue" d="M218.674,-107.041C236.099,-119.71 268.845,-141.943 300,-154.5 306.372,-157.068 313.16,-159.325 320.015,-161.299"/>
<polygon fill="midnightblue" stroke="midnightblue" points="319.497,-164.784 330.062,-163.994 321.31,-158.023 319.497,-164.784"/>
</g>
<!-- Node4 -->
<g id="node4" class="node"><title>Node4</title>
<g id="a_node4"><a xlink:href="../../dd/deb/class_t_m_c2130_stepper.html#aeace18dcee808585dd4449e783811600" target="_top" xlink:title=" ">
<polygon fill="white" stroke="black" points="303.5,-126 303.5,-145 467.5,-145 467.5,-126 303.5,-126"/>
<text text-anchor="middle" x="385.5" y="-133" font-family="Helvetica,sans-Serif" font-size="10.00">TMC2130Stepper::endTransaction</text>
</a>
</g>
</g>
<!-- Node2&#45;&gt;Node4 -->
<g id="edge3" class="edge"><title>Node2&#45;&gt;Node4</title>
<path fill="none" stroke="midnightblue" d="M251.043,-107.089C275.023,-112.194 304.698,-118.511 329.972,-123.892"/>
<polygon fill="midnightblue" stroke="midnightblue" points="329.271,-127.321 339.781,-125.98 330.729,-120.474 329.271,-127.321"/>
</g>
<!-- Node5 -->
<g id="node5" class="node"><title>Node5</title>
<g id="a_node5"><a xlink:href="../../dd/deb/class_t_m_c2130_stepper.html#a4a8f3b6ac100045ed5f84fe4d18d9d5a" target="_top" xlink:title=" ">
<polygon fill="white" stroke="black" points="309.5,-88 309.5,-107 461.5,-107 461.5,-88 309.5,-88"/>
<text text-anchor="middle" x="385.5" y="-95" font-family="Helvetica,sans-Serif" font-size="10.00">TMC2130Stepper::switchCSpin</text>
</a>
</g>
</g>
<!-- Node2&#45;&gt;Node5 -->
<g id="edge4" class="edge"><title>Node2&#45;&gt;Node5</title>
<path fill="none" stroke="midnightblue" d="M264.448,-97.5C275.536,-97.5 287.347,-97.5 299.07,-97.5"/>
<polygon fill="midnightblue" stroke="midnightblue" points="299.329,-101 309.329,-97.5 299.329,-94.0001 299.329,-101"/>
</g>
<!-- Node6 -->
<g id="node6" class="node"><title>Node6</title>
<g id="a_node6"><a xlink:href="../../dd/deb/class_t_m_c2130_stepper.html#a0673af4887ec52b23aa658aa290f6623" target="_top" xlink:title=" ">
<polygon fill="white" stroke="black" points="507,-28 507,-47 637,-47 637,-28 507,-28"/>
<text text-anchor="middle" x="572" y="-35" font-family="Helvetica,sans-Serif" font-size="10.00">TMC2130Stepper::transfer</text>
</a>
</g>
</g>
<!-- Node2&#45;&gt;Node6 -->
<g id="edge5" class="edge"><title>Node2&#45;&gt;Node6</title>
<path fill="none" stroke="midnightblue" d="M250.859,-87.964C266.391,-84.787 283.932,-81.3376 300,-78.5 366.39,-66.7755 442.302,-55.4704 496.859,-47.7117"/>
<polygon fill="midnightblue" stroke="midnightblue" points="497.381,-51.1729 506.791,-46.3049 496.399,-44.2421 497.381,-51.1729"/>
</g>
<!-- Node8 -->
<g id="node8" class="node"><title>Node8</title>
<g id="a_node8"><a xlink:href="../../dd/deb/class_t_m_c2130_stepper.html#aba94fc7bb8e2c8c12191f44561f19d95" target="_top" xlink:title=" ">
<polygon fill="white" stroke="black" points="320.5,-0.5 320.5,-30.5 450.5,-30.5 450.5,-0.5 320.5,-0.5"/>
<text text-anchor="start" x="328.5" y="-18.5" font-family="Helvetica,sans-Serif" font-size="10.00">TMC2130Stepper::transfer</text>
<text text-anchor="middle" x="385.5" y="-7.5" font-family="Helvetica,sans-Serif" font-size="10.00">EmptyBytes</text>
</a>
</g>
</g>
<!-- Node2&#45;&gt;Node8 -->
<g id="edge7" class="edge"><title>Node2&#45;&gt;Node8</title>
<path fill="none" stroke="midnightblue" d="M221.559,-87.8524C239.877,-76.7413 271.432,-58.368 300,-45.5 309.049,-41.4242 318.831,-37.5179 328.42,-33.9495"/>
<polygon fill="midnightblue" stroke="midnightblue" points="329.707,-37.2056 337.91,-30.5 327.316,-30.6267 329.707,-37.2056"/>
</g>
<!-- Node7 -->
<g id="node7" class="node"><title>Node7</title>
<g id="a_node7"><a xlink:href="../../df/d8b/class_s_w___s_p_i_class.html#af260fdc0af3f1312b106483161e559c3" target="_top" xlink:title=" ">
<polygon fill="white" stroke="black" points="673,-28 673,-47 790,-47 790,-28 673,-28"/>
<text text-anchor="middle" x="731.5" y="-35" font-family="Helvetica,sans-Serif" font-size="10.00">SW_SPIClass::transfer</text>
</a>
</g>
</g>
<!-- Node6&#45;&gt;Node7 -->
<g id="edge6" class="edge"><title>Node6&#45;&gt;Node7</title>
<path fill="none" stroke="midnightblue" d="M637.061,-37.5C645.477,-37.5 654.125,-37.5 662.603,-37.5"/>
<polygon fill="midnightblue" stroke="midnightblue" points="662.831,-41.0001 672.831,-37.5 662.831,-34.0001 662.831,-41.0001"/>
</g>
<!-- Node8&#45;&gt;Node6 -->
<g id="edge8" class="edge"><title>Node8&#45;&gt;Node6</title>
<path fill="none" stroke="midnightblue" d="M450.511,-23.1328C465.452,-24.9144 481.487,-26.8263 496.827,-28.6556"/>
<polygon fill="midnightblue" stroke="midnightblue" points="496.445,-32.1347 506.79,-29.8435 497.274,-25.184 496.445,-32.1347"/>
</g>
</g>
</svg>
