<?xml version="1.0" encoding="UTF-8" standalone="no"?>
<!DOCTYPE svg PUBLIC "-//W3C//DTD SVG 1.1//EN"
 "http://www.w3.org/Graphics/SVG/1.1/DTD/svg11.dtd">
<!-- Generated by graphviz version 2.38.0 (20140413.2041)
 -->
<!-- Title: TMC5130Stepper::begin Pages: 1 -->
<!--zoomable 402 -->
<svg id="main" version="1.1" xmlns="http://www.w3.org/2000/svg" xmlns:xlink="http://www.w3.org/1999/xlink" xml:space="preserve" onload="init(evt)">
<style type="text/css"><![CDATA[
.edge:hover path { stroke: red; }
.edge:hover polygon { stroke: red; fill: red; }
]]></style>
<script type="text/javascript"><![CDATA[
var edges = document.getElementsByTagName('g');
if (edges && edges.length) {
  for (var i=0;i<edges.length;i++) {
    if (edges[i].id.substr(0,4)=='edge') {
      edges[i].setAttribute('class','edge');
    }
  }
}
]]></script>
        <defs>
                <circle id="rim" cx="0" cy="0" r="7"/>
                <circle id="rim2" cx="0" cy="0" r="3.5"/>
                <g id="zoomPlus">
                        <use xlink:href="#rim" fill="#404040">
                                <set attributeName="fill" to="#808080" begin="zoomplus.mouseover" end="zoomplus.mouseout"/>
                        </use>
                        <path d="M-4,0h8M0,-4v8" fill="none" stroke="white" stroke-width="1.5" pointer-events="none"/>
                </g>
                <g id="zoomMin">
                        <use xlink:href="#rim" fill="#404040">
                                <set attributeName="fill" to="#808080" begin="zoomminus.mouseover" end="zoomminus.mouseout"/>
                        </use>
                        <path d="M-4,0h8" fill="none" stroke="white" stroke-width="1.5" pointer-events="none"/>
                </g>
                <g id="dirArrow">
                        <path fill="none" stroke="white" stroke-width="1.5" d="M0,-3.0v7 M-2.5,-0.5L0,-3.0L2.5,-0.5"/>
                </g>
               <g id="resetDef">
                       <use xlink:href="#rim2" fill="#404040">
                               <set attributeName="fill" to="#808080" begin="reset.mouseover" end="reset.mouseout"/>
                       </use>
               </g>
        </defs>

<script type="text/javascript">
var viewWidth = 1360;
var viewHeight = 402;
var sectionId = 'dynsection-9';
</script>
<script xlink:href="../../svgpan.js"/>
<svg id="graph" class="graph">
<g id="viewport">
<title>TMC5130Stepper::begin</title>
<polygon fill="white" stroke="none" points="-4,4 -4,-398.084 1356,-398.084 1356,4 -4,4"/>
<!-- Node1 -->
<g id="node1" class="node"><title>Node1</title>
<g id="a_node1"><a xlink:title=" ">
<polygon fill="#bfbfbf" stroke="black" points="0,-38.5 0,-57.5 121,-57.5 121,-38.5 0,-38.5"/>
<text text-anchor="middle" x="60.5" y="-45.5" font-family="Helvetica,sans-Serif" font-size="10.00">TMC5130Stepper::begin</text>
</a>
</g>
</g>
<!-- Node2 -->
<g id="node2" class="node"><title>Node2</title>
<g id="a_node2"><a xlink:href="../../db/d9d/class_t_m_c2160_stepper.html#a7ee48b042245ef5b3968b82029d1404c" target="_top" xlink:title=" ">
<polygon fill="white" stroke="black" points="167,-209.5 167,-228.5 288,-228.5 288,-209.5 167,-209.5"/>
<text text-anchor="middle" x="227.5" y="-216.5" font-family="Helvetica,sans-Serif" font-size="10.00">TMC2160Stepper::begin</text>
</a>
</g>
</g>
<!-- Node1&#45;&gt;Node2 -->
<g id="edge1" class="edge"><title>Node1&#45;&gt;Node2</title>
<path fill="none" stroke="midnightblue" d="M70.8439,-57.6837C97.7302,-85.5477 175.552,-166.199 209.888,-201.784"/>
<polygon fill="midnightblue" stroke="midnightblue" points="207.796,-204.657 217.259,-209.423 212.834,-199.796 207.796,-204.657"/>
</g>
<!-- Node18 -->
<g id="node18" class="node"><title>Node18</title>
<g id="a_node18"><a xlink:href="../../d9/df8/class_t_m_c5130_stepper.html#a7ddd27bea8034e6aec78ab2cf83cedd4" target="_top" xlink:title=" ">
<polygon fill="white" stroke="black" points="528,-0.5 528,-19.5 668,-19.5 668,-0.5 528,-0.5"/>
<text text-anchor="middle" x="598" y="-7.5" font-family="Helvetica,sans-Serif" font-size="10.00">TMC5130Stepper::XACTUAL</text>
</a>
</g>
</g>
<!-- Node1&#45;&gt;Node18 -->
<g id="edge22" class="edge"><title>Node1&#45;&gt;Node18</title>
<path fill="none" stroke="midnightblue" d="M102.175,-38.4789C119.044,-34.9039 138.874,-31.1815 157,-29 282.414,-13.9067 429.205,-10.3813 517.55,-9.77905"/>
<polygon fill="midnightblue" stroke="midnightblue" points="517.784,-13.2779 527.764,-9.72073 517.744,-6.27798 517.784,-13.2779"/>
</g>
<!-- Node19 -->
<g id="node19" class="node"><title>Node19</title>
<g id="a_node19"><a xlink:href="../../d9/df8/class_t_m_c5130_stepper.html#ae33c13bf7dc95cd8a8a4d8e1c444f9e5" target="_top" xlink:title=" ">
<polygon fill="white" stroke="black" points="157,-38.5 157,-57.5 298,-57.5 298,-38.5 157,-38.5"/>
<text text-anchor="middle" x="227.5" y="-45.5" font-family="Helvetica,sans-Serif" font-size="10.00">TMC5130Stepper::XTARGET</text>
</a>
</g>
</g>
<!-- Node1&#45;&gt;Node19 -->
<g id="edge24" class="edge"><title>Node1&#45;&gt;Node19</title>
<path fill="none" stroke="midnightblue" d="M121.069,-48C129.429,-48 138.13,-48 146.789,-48"/>
<polygon fill="midnightblue" stroke="midnightblue" points="146.914,-51.5001 156.914,-48 146.914,-44.5001 146.914,-51.5001"/>
</g>
<!-- Node3 -->
<g id="node3" class="node"><title>Node3</title>
<g id="a_node3"><a xlink:href="../../dd/deb/class_t_m_c2130_stepper.html#a67541b27d97ce45f175e9f6e4a2d0bff" target="_top" xlink:title=" ">
<polygon fill="white" stroke="black" points="522,-285.5 522,-304.5 674,-304.5 674,-285.5 522,-285.5"/>
<text text-anchor="middle" x="598" y="-292.5" font-family="Helvetica,sans-Serif" font-size="10.00">TMC2130Stepper::CHOPCONF</text>
</a>
</g>
</g>
<!-- Node2&#45;&gt;Node3 -->
<g id="edge2" class="edge"><title>Node2&#45;&gt;Node3</title>
<path fill="none" stroke="midnightblue" d="M233.744,-228.817C246.892,-252.239 283.84,-311.076 334,-333 413.657,-367.816 518.544,-330.788 568.359,-308.818"/>
<polygon fill="midnightblue" stroke="midnightblue" points="569.897,-311.964 577.563,-304.651 567.01,-305.587 569.897,-311.964"/>
</g>
<!-- Node7 -->
<g id="node7" class="node"><title>Node7</title>
<g id="a_node7"><a xlink:href="../../dd/deb/class_t_m_c2130_stepper.html#a4a8f3b6ac100045ed5f84fe4d18d9d5a" target="_top" xlink:title=" ">
<polygon fill="white" stroke="black" points="871.5,-275.5 871.5,-294.5 1023.5,-294.5 1023.5,-275.5 871.5,-275.5"/>
<text text-anchor="middle" x="947.5" y="-282.5" font-family="Helvetica,sans-Serif" font-size="10.00">TMC2130Stepper::switchCSpin</text>
</a>
</g>
</g>
<!-- Node2&#45;&gt;Node7 -->
<g id="edge17" class="edge"><title>Node2&#45;&gt;Node7</title>
<path fill="none" stroke="midnightblue" d="M232.371,-228.598C243.5,-254.709 278.389,-326.881 334,-354 538.626,-453.787 826.161,-340.065 917.479,-298.789"/>
<polygon fill="midnightblue" stroke="midnightblue" points="919.034,-301.927 926.667,-294.579 916.118,-295.563 919.034,-301.927"/>
</g>
<!-- Node11 -->
<g id="node11" class="node"><title>Node11</title>
<g id="a_node11"><a xlink:href="../../dd/deb/class_t_m_c2130_stepper.html#abc48be984238d94bb3b72ed3aa26f028" target="_top" xlink:title=" ">
<polygon fill="white" stroke="black" points="334,-228.5 334,-247.5 486,-247.5 486,-228.5 334,-228.5"/>
<text text-anchor="middle" x="410" y="-235.5" font-family="Helvetica,sans-Serif" font-size="10.00">TMC2130Stepper::COOLCONF</text>
</a>
</g>
</g>
<!-- Node2&#45;&gt;Node11 -->
<g id="edge11" class="edge"><title>Node2&#45;&gt;Node11</title>
<path fill="none" stroke="midnightblue" d="M288.103,-225.274C299.495,-226.473 311.626,-227.75 323.641,-229.015"/>
<polygon fill="midnightblue" stroke="midnightblue" points="323.376,-232.506 333.687,-230.072 324.109,-225.545 323.376,-232.506"/>
</g>
<!-- Node12 -->
<g id="node12" class="node"><title>Node12</title>
<g id="a_node12"><a xlink:href="../../dd/deb/class_t_m_c2130_stepper.html#aee84a9abfc84b387c6ae5658f90bf684" target="_top" xlink:title=" ">
<polygon fill="white" stroke="black" points="532,-76.5 532,-95.5 664,-95.5 664,-76.5 532,-76.5"/>
<text text-anchor="middle" x="598" y="-83.5" font-family="Helvetica,sans-Serif" font-size="10.00">TMC2130Stepper::GCONF</text>
</a>
</g>
</g>
<!-- Node2&#45;&gt;Node12 -->
<g id="edge12" class="edge"><title>Node2&#45;&gt;Node12</title>
<path fill="none" stroke="midnightblue" d="M233.849,-209.414C247.233,-186.504 284.663,-128.718 334,-105 392.553,-76.8518 467.012,-74.0732 521.746,-77.1867"/>
<polygon fill="midnightblue" stroke="midnightblue" points="521.524,-80.6796 531.729,-77.8319 521.975,-73.6941 521.524,-80.6796"/>
</g>
<!-- Node13 -->
<g id="node13" class="node"><title>Node13</title>
<g id="a_node13"><a xlink:href="../../de/d64/class_t_m_c_stepper.html#a597bc308bad0d1198b98c48a6ef34fc3" target="_top" xlink:title=" ">
<polygon fill="white" stroke="black" points="343.5,-190.5 343.5,-209.5 476.5,-209.5 476.5,-190.5 343.5,-190.5"/>
<text text-anchor="middle" x="410" y="-197.5" font-family="Helvetica,sans-Serif" font-size="10.00">TMCStepper::IHOLD_IRUN</text>
</a>
</g>
</g>
<!-- Node2&#45;&gt;Node13 -->
<g id="edge14" class="edge"><title>Node2&#45;&gt;Node13</title>
<path fill="none" stroke="midnightblue" d="M288.103,-212.726C302.453,-211.215 317.977,-209.581 332.964,-208.004"/>
<polygon fill="midnightblue" stroke="midnightblue" points="333.654,-211.451 343.233,-206.923 332.921,-204.489 333.654,-211.451"/>
</g>
<!-- Node14 -->
<g id="node14" class="node"><title>Node14</title>
<g id="a_node14"><a xlink:href="../../df/d8b/class_s_w___s_p_i_class.html#aa35a68a7e184e42445f391876e58dd68" target="_top" xlink:title=" ">
<polygon fill="white" stroke="black" points="361,-152.5 361,-171.5 459,-171.5 459,-152.5 361,-152.5"/>
<text text-anchor="middle" x="410" y="-159.5" font-family="Helvetica,sans-Serif" font-size="10.00">SW_SPIClass::init</text>
</a>
</g>
</g>
<!-- Node2&#45;&gt;Node14 -->
<g id="edge15" class="edge"><title>Node2&#45;&gt;Node14</title>
<path fill="none" stroke="midnightblue" d="M252.998,-209.407C274.236,-201.276 305.89,-189.601 334,-181 341.853,-178.597 350.233,-176.258 358.44,-174.09"/>
<polygon fill="midnightblue" stroke="midnightblue" points="359.513,-177.428 368.319,-171.537 357.761,-170.651 359.513,-177.428"/>
</g>
<!-- Node15 -->
<g id="node15" class="node"><title>Node15</title>
<g id="a_node15"><a xlink:href="../../db/d9d/class_t_m_c2160_stepper.html#ae59c6240979e95e7b05074e20f3600de" target="_top" xlink:title=" ">
<polygon fill="white" stroke="black" points="335.5,-114.5 335.5,-133.5 484.5,-133.5 484.5,-114.5 335.5,-114.5"/>
<text text-anchor="middle" x="410" y="-121.5" font-family="Helvetica,sans-Serif" font-size="10.00">TMC2160Stepper::PWMCONF</text>
</a>
</g>
</g>
<!-- Node2&#45;&gt;Node15 -->
<g id="edge16" class="edge"><title>Node2&#45;&gt;Node15</title>
<path fill="none" stroke="midnightblue" d="M239.023,-209.3C257.082,-193.166 295.74,-160.835 334,-143 339.226,-140.564 344.807,-138.411 350.478,-136.514"/>
<polygon fill="midnightblue" stroke="midnightblue" points="351.536,-139.851 360.061,-133.56 349.473,-133.162 351.536,-139.851"/>
</g>
<!-- Node16 -->
<g id="node16" class="node"><title>Node16</title>
<g id="a_node16"><a xlink:href="../../dd/deb/class_t_m_c2130_stepper.html#ae54d816846ca2103976f490c5ab8e887" target="_top" xlink:title=" ">
<polygon fill="white" stroke="black" points="356,-304.5 356,-323.5 464,-323.5 464,-304.5 356,-304.5"/>
<text text-anchor="middle" x="410" y="-311.5" font-family="Helvetica,sans-Serif" font-size="10.00">TMC2130Stepper::tbl</text>
</a>
</g>
</g>
<!-- Node2&#45;&gt;Node16 -->
<g id="edge18" class="edge"><title>Node2&#45;&gt;Node16</title>
<path fill="none" stroke="midnightblue" d="M239.023,-228.7C257.082,-244.834 295.74,-277.165 334,-295 339.226,-297.436 344.807,-299.589 350.478,-301.486"/>
<polygon fill="midnightblue" stroke="midnightblue" points="349.473,-304.838 360.061,-304.44 351.536,-298.149 349.473,-304.838"/>
</g>
<!-- Node17 -->
<g id="node17" class="node"><title>Node17</title>
<g id="a_node17"><a xlink:href="../../dd/deb/class_t_m_c2130_stepper.html#ac34bf4add4f669e935f2a91e1b42817c" target="_top" xlink:title=" ">
<polygon fill="white" stroke="black" points="355,-266.5 355,-285.5 465,-285.5 465,-266.5 355,-266.5"/>
<text text-anchor="middle" x="410" y="-273.5" font-family="Helvetica,sans-Serif" font-size="10.00">TMC2130Stepper::toff</text>
</a>
</g>
</g>
<!-- Node2&#45;&gt;Node17 -->
<g id="edge20" class="edge"><title>Node2&#45;&gt;Node17</title>
<path fill="none" stroke="midnightblue" d="M252.998,-228.593C274.236,-236.724 305.89,-248.399 334,-257 341.853,-259.403 350.233,-261.742 358.44,-263.91"/>
<polygon fill="midnightblue" stroke="midnightblue" points="357.761,-267.349 368.319,-266.463 359.513,-260.572 357.761,-267.349"/>
</g>
<!-- Node4 -->
<g id="node4" class="node"><title>Node4</title>
<g id="a_node4"><a xlink:href="../../dd/deb/class_t_m_c2130_stepper.html#a161ca6ebe3736454e17e9236572a6001" target="_top" xlink:title=" ">
<polygon fill="white" stroke="black" points="710,-76.5 710,-95.5 826,-95.5 826,-76.5 710,-76.5"/>
<text text-anchor="middle" x="768" y="-83.5" font-family="Helvetica,sans-Serif" font-size="10.00">TMC2130Stepper::read</text>
</a>
</g>
</g>
<!-- Node3&#45;&gt;Node4 -->
<g id="edge3" class="edge"><title>Node3&#45;&gt;Node4</title>
<path fill="none" stroke="midnightblue" d="M606.655,-285.477C632.784,-252.971 718.713,-146.072 752.843,-103.612"/>
<polygon fill="midnightblue" stroke="midnightblue" points="755.763,-105.566 759.3,-95.5793 750.307,-101.181 755.763,-105.566"/>
</g>
<!-- Node5 -->
<g id="node5" class="node"><title>Node5</title>
<g id="a_node5"><a xlink:href="../../dd/deb/class_t_m_c2130_stepper.html#a1fc868601a32fb0cd8fc536dafa8ecea" target="_top" xlink:title=" ">
<polygon fill="white" stroke="black" points="862,-95.5 862,-114.5 1033,-114.5 1033,-95.5 862,-95.5"/>
<text text-anchor="middle" x="947.5" y="-102.5" font-family="Helvetica,sans-Serif" font-size="10.00">TMC2130Stepper::beginTransaction</text>
</a>
</g>
</g>
<!-- Node4&#45;&gt;Node5 -->
<g id="edge4" class="edge"><title>Node4&#45;&gt;Node5</title>
<path fill="none" stroke="midnightblue" d="M826.139,-92.1163C834.297,-92.9896 842.866,-93.9068 851.513,-94.8324"/>
<polygon fill="midnightblue" stroke="midnightblue" points="851.366,-98.3365 861.682,-95.9208 852.111,-91.3763 851.366,-98.3365"/>
</g>
<!-- Node6 -->
<g id="node6" class="node"><title>Node6</title>
<g id="a_node6"><a xlink:href="../../dd/deb/class_t_m_c2130_stepper.html#aeace18dcee808585dd4449e783811600" target="_top" xlink:title=" ">
<polygon fill="white" stroke="black" points="865.5,-57.5 865.5,-76.5 1029.5,-76.5 1029.5,-57.5 865.5,-57.5"/>
<text text-anchor="middle" x="947.5" y="-64.5" font-family="Helvetica,sans-Serif" font-size="10.00">TMC2130Stepper::endTransaction</text>
</a>
</g>
</g>
<!-- Node4&#45;&gt;Node6 -->
<g id="edge5" class="edge"><title>Node4&#45;&gt;Node6</title>
<path fill="none" stroke="midnightblue" d="M826.139,-79.8837C835.391,-78.8934 845.17,-77.8466 854.994,-76.795"/>
<polygon fill="midnightblue" stroke="midnightblue" points="855.657,-80.2441 865.228,-75.6996 854.912,-73.2839 855.657,-80.2441"/>
</g>
<!-- Node4&#45;&gt;Node7 -->
<g id="edge6" class="edge"><title>Node4&#45;&gt;Node7</title>
<path fill="none" stroke="midnightblue" d="M777.561,-95.5982C805.62,-127.056 895.069,-227.339 931.172,-267.815"/>
<polygon fill="midnightblue" stroke="midnightblue" points="928.756,-270.365 938.025,-275.498 933.98,-265.706 928.756,-270.365"/>
</g>
<!-- Node8 -->
<g id="node8" class="node"><title>Node8</title>
<g id="a_node8"><a xlink:href="../../dd/deb/class_t_m_c2130_stepper.html#a0673af4887ec52b23aa658aa290f6623" target="_top" xlink:title=" ">
<polygon fill="white" stroke="black" points="1069,-73.5 1069,-92.5 1199,-92.5 1199,-73.5 1069,-73.5"/>
<text text-anchor="middle" x="1134" y="-80.5" font-family="Helvetica,sans-Serif" font-size="10.00">TMC2130Stepper::transfer</text>
</a>
</g>
</g>
<!-- Node4&#45;&gt;Node8 -->
<g id="edge7" class="edge"><title>Node4&#45;&gt;Node8</title>
<path fill="none" stroke="midnightblue" d="M786.532,-95.5792C804.766,-104.953 834.445,-118.588 862,-124 936.575,-138.648 958.434,-138.693 1033,-124 1059.1,-118.856 1086.97,-106.832 1106.64,-97.1274"/>
<polygon fill="midnightblue" stroke="midnightblue" points="1108.25,-100.233 1115.59,-92.59 1105.09,-93.9889 1108.25,-100.233"/>
</g>
<!-- Node10 -->
<g id="node10" class="node"><title>Node10</title>
<g id="a_node10"><a xlink:href="../../dd/deb/class_t_m_c2130_stepper.html#aba94fc7bb8e2c8c12191f44561f19d95" target="_top" xlink:title=" ">
<polygon fill="white" stroke="black" points="882.5,-8 882.5,-38 1012.5,-38 1012.5,-8 882.5,-8"/>
<text text-anchor="start" x="890.5" y="-26" font-family="Helvetica,sans-Serif" font-size="10.00">TMC2130Stepper::transfer</text>
<text text-anchor="middle" x="947.5" y="-15" font-family="Helvetica,sans-Serif" font-size="10.00">EmptyBytes</text>
</a>
</g>
</g>
<!-- Node4&#45;&gt;Node10 -->
<g id="edge9" class="edge"><title>Node4&#45;&gt;Node10</title>
<path fill="none" stroke="midnightblue" d="M790.561,-76.4708C809.26,-68.3803 837.151,-56.7278 862,-48 868.748,-45.6298 875.849,-43.2916 882.95,-41.0527"/>
<polygon fill="midnightblue" stroke="midnightblue" points="884.08,-44.3668 892.599,-38.0676 882.011,-37.6795 884.08,-44.3668"/>
</g>
<!-- Node9 -->
<g id="node9" class="node"><title>Node9</title>
<g id="a_node9"><a xlink:href="../../df/d8b/class_s_w___s_p_i_class.html#af260fdc0af3f1312b106483161e559c3" target="_top" xlink:title=" ">
<polygon fill="white" stroke="black" points="1235,-73.5 1235,-92.5 1352,-92.5 1352,-73.5 1235,-73.5"/>
<text text-anchor="middle" x="1293.5" y="-80.5" font-family="Helvetica,sans-Serif" font-size="10.00">SW_SPIClass::transfer</text>
</a>
</g>
</g>
<!-- Node8&#45;&gt;Node9 -->
<g id="edge8" class="edge"><title>Node8&#45;&gt;Node9</title>
<path fill="none" stroke="midnightblue" d="M1199.06,-83C1207.48,-83 1216.13,-83 1224.6,-83"/>
<polygon fill="midnightblue" stroke="midnightblue" points="1224.83,-86.5001 1234.83,-83 1224.83,-79.5001 1224.83,-86.5001"/>
</g>
<!-- Node10&#45;&gt;Node8 -->
<g id="edge10" class="edge"><title>Node10&#45;&gt;Node8</title>
<path fill="none" stroke="midnightblue" d="M1000.91,-38.0713C1011.56,-41.2555 1022.66,-44.6641 1033,-48 1054.47,-54.9272 1078.31,-63.2486 1097.33,-70.0392"/>
<polygon fill="midnightblue" stroke="midnightblue" points="1096.21,-73.3537 1106.8,-73.4352 1098.57,-66.7646 1096.21,-73.3537"/>
</g>
<!-- Node12&#45;&gt;Node4 -->
<g id="edge13" class="edge"><title>Node12&#45;&gt;Node4</title>
<path fill="none" stroke="midnightblue" d="M664.434,-86C676.049,-86 688.163,-86 699.825,-86"/>
<polygon fill="midnightblue" stroke="midnightblue" points="699.934,-89.5001 709.934,-86 699.934,-82.5001 699.934,-89.5001"/>
</g>
<!-- Node16&#45;&gt;Node3 -->
<g id="edge19" class="edge"><title>Node16&#45;&gt;Node3</title>
<path fill="none" stroke="midnightblue" d="M464.3,-308.555C479.146,-307.039 495.654,-305.353 511.842,-303.699"/>
<polygon fill="midnightblue" stroke="midnightblue" points="512.27,-307.173 521.863,-302.675 511.559,-300.21 512.27,-307.173"/>
</g>
<!-- Node17&#45;&gt;Node3 -->
<g id="edge21" class="edge"><title>Node17&#45;&gt;Node3</title>
<path fill="none" stroke="midnightblue" d="M465.049,-281.521C479.567,-283.004 495.63,-284.645 511.407,-286.257"/>
<polygon fill="midnightblue" stroke="midnightblue" points="511.411,-289.775 521.715,-287.31 512.122,-282.811 511.411,-289.775"/>
</g>
<!-- Node18&#45;&gt;Node4 -->
<g id="edge23" class="edge"><title>Node18&#45;&gt;Node4</title>
<path fill="none" stroke="midnightblue" d="M633.883,-19.5747C646.705,-23.506 661.21,-28.4445 674,-34 698.53,-44.6547 725.014,-59.8596 743.423,-71.0773"/>
<polygon fill="midnightblue" stroke="midnightblue" points="741.665,-74.1054 752.013,-76.3803 745.342,-68.149 741.665,-74.1054"/>
</g>
<!-- Node19&#45;&gt;Node4 -->
<g id="edge25" class="edge"><title>Node19&#45;&gt;Node4</title>
<path fill="none" stroke="midnightblue" d="M298.231,-47.5573C386.163,-47.7825 541.839,-50.7857 674,-67 688.215,-68.744 703.496,-71.4935 717.482,-74.3649"/>
<polygon fill="midnightblue" stroke="midnightblue" points="716.895,-77.8181 727.403,-76.4646 718.344,-70.9698 716.895,-77.8181"/>
</g>
</g>
</svg>
        <g id="navigator" transform="translate(0 0)" fill="#404254">
                <rect fill="#f2f5e9" fill-opacity="0.5" stroke="#606060" stroke-width=".5" x="0" y="0" width="60" height="60"/>
                <use id="zoomplus" xlink:href="#zoomPlus" x="17" y="9" onmousedown="handleZoom(evt,'in')"/>
                <use id="zoomminus" xlink:href="#zoomMin" x="42" y="9" onmousedown="handleZoom(evt,'out')"/>
                <use id="reset" xlink:href="#resetDef" x="30" y="36" onmousedown="handleReset()"/>
                <g id="arrowUp" xlink:href="#dirArrow" transform="translate(30 24)" onmousedown="handlePan(0,-1)">
                  <use xlink:href="#rim" fill="#404040">
                        <set attributeName="fill" to="#808080" begin="arrowUp.mouseover" end="arrowUp.mouseout"/>
                  </use>
                  <path fill="none" stroke="white" stroke-width="1.5" d="M0,-3.0v7 M-2.5,-0.5L0,-3.0L2.5,-0.5"/>
                </g>
                <g id="arrowRight" xlink:href="#dirArrow" transform="rotate(90) translate(36 -43)" onmousedown="handlePan(1,0)">
                  <use xlink:href="#rim" fill="#404040">
                        <set attributeName="fill" to="#808080" begin="arrowRight.mouseover" end="arrowRight.mouseout"/>
                  </use>
                  <path fill="none" stroke="white" stroke-width="1.5" d="M0,-3.0v7 M-2.5,-0.5L0,-3.0L2.5,-0.5"/>
                </g>
                <g id="arrowDown" xlink:href="#dirArrow" transform="rotate(180) translate(-30 -48)" onmousedown="handlePan(0,1)">
                  <use xlink:href="#rim" fill="#404040">
                        <set attributeName="fill" to="#808080" begin="arrowDown.mouseover" end="arrowDown.mouseout"/>
                  </use>
                  <path fill="none" stroke="white" stroke-width="1.5" d="M0,-3.0v7 M-2.5,-0.5L0,-3.0L2.5,-0.5"/>
                </g>
                <g id="arrowLeft" xlink:href="#dirArrow" transform="rotate(270) translate(-36 17)" onmousedown="handlePan(-1,0)">
                  <use xlink:href="#rim" fill="#404040">
                        <set attributeName="fill" to="#808080" begin="arrowLeft.mouseover" end="arrowLeft.mouseout"/>
                  </use>
                  <path fill="none" stroke="white" stroke-width="1.5" d="M0,-3.0v7 M-2.5,-0.5L0,-3.0L2.5,-0.5"/>
                </g>
        </g>
        <svg viewBox="0 0 15 15" width="100%" height="30px" preserveAspectRatio="xMaxYMin meet">
         <g id="arrow_out" transform="scale(0.3 0.3)">
          <a xlink:href="class_t_m_c5130_stepper_a897212f81817cdaee4536d642badc149_cgraph_org.svg" target="_base">
           <rect id="button" ry="5" rx="5" y="6" x="6" height="38" width="38"
                fill="#f2f5e9" fill-opacity="0.5" stroke="#606060" stroke-width="1.0"/>
           <path id="arrow"
             d="M 11.500037,31.436501 C 11.940474,20.09759 22.043105,11.32322 32.158766,21.979434 L 37.068811,17.246167 C 37.068811,17.246167 37.088388,32 37.088388,32 L 22.160133,31.978069 C 22.160133,31.978069 26.997745,27.140456 26.997745,27.140456 C 18.528582,18.264221 13.291696,25.230495 11.500037,31.436501 z"
             style="fill:#404040;"/>
          </a>
         </g>
        </svg>
</svg>
