<?xml version="1.0" encoding="UTF-8" standalone="no"?>
<!DOCTYPE svg PUBLIC "-//W3C//DTD SVG 1.1//EN"
 "http://www.w3.org/Graphics/SVG/1.1/DTD/svg11.dtd">
<!-- Generated by graphviz version 2.38.0 (20140413.2041)
 -->
<!-- Title: TMC5130Stepper::X_ENC Pages: 1 -->
<svg width="814pt" height="192pt"
 viewBox="0.00 0.00 814.00 191.50" xmlns="http://www.w3.org/2000/svg" xmlns:xlink="http://www.w3.org/1999/xlink">
<g id="graph0" class="graph" transform="scale(1 1) rotate(0) translate(4 187.5)">
<title>TMC5130Stepper::X_ENC</title>
<polygon fill="white" stroke="none" points="-4,4 -4,-187.5 810,-187.5 810,4 -4,4"/>
<!-- Node1 -->
<g id="node1" class="node"><title>Node1</title>
<g id="a_node1"><a xlink:title=" ">
<polygon fill="#bfbfbf" stroke="black" points="0,-88 0,-107 128,-107 128,-88 0,-88"/>
<text text-anchor="middle" x="64" y="-95" font-family="Helvetica,sans-Serif" font-size="10.00">TMC5130Stepper::X_ENC</text>
</a>
</g>
</g>
<!-- Node2 -->
<g id="node2" class="node"><title>Node2</title>
<g id="a_node2"><a xlink:href="../../dd/deb/class_t_m_c2130_stepper.html#a161ca6ebe3736454e17e9236572a6001" target="_top" xlink:title=" ">
<polygon fill="white" stroke="black" points="164,-88 164,-107 280,-107 280,-88 164,-88"/>
<text text-anchor="middle" x="222" y="-95" font-family="Helvetica,sans-Serif" font-size="10.00">TMC2130Stepper::read</text>
</a>
</g>
</g>
<!-- Node1&#45;&gt;Node2 -->
<g id="edge1" class="edge"><title>Node1&#45;&gt;Node2</title>
<path fill="none" stroke="midnightblue" d="M128.002,-97.5C136.418,-97.5 145.077,-97.5 153.565,-97.5"/>
<polygon fill="midnightblue" stroke="midnightblue" points="153.808,-101 163.808,-97.5 153.808,-94.0001 153.808,-101"/>
</g>
<!-- Node3 -->
<g id="node3" class="node"><title>Node3</title>
<g id="a_node3"><a xlink:href="../../dd/deb/class_t_m_c2130_stepper.html#a1fc868601a32fb0cd8fc536dafa8ecea" target="_top" xlink:title=" ">
<polygon fill="white" stroke="black" points="316,-164 316,-183 487,-183 487,-164 316,-164"/>
<text text-anchor="middle" x="401.5" y="-171" font-family="Helvetica,sans-Serif" font-size="10.00">TMC2130Stepper::beginTransaction</text>
</a>
</g>
</g>
<!-- Node2&#45;&gt;Node3 -->
<g id="edge2" class="edge"><title>Node2&#45;&gt;Node3</title>
<path fill="none" stroke="midnightblue" d="M235.522,-107.048C252.741,-119.725 285.117,-141.967 316,-154.5 322.272,-157.045 328.951,-159.283 335.7,-161.242"/>
<polygon fill="midnightblue" stroke="midnightblue" points="335.032,-164.687 345.599,-163.918 336.858,-157.93 335.032,-164.687"/>
</g>
<!-- Node4 -->
<g id="node4" class="node"><title>Node4</title>
<g id="a_node4"><a xlink:href="../../dd/deb/class_t_m_c2130_stepper.html#aeace18dcee808585dd4449e783811600" target="_top" xlink:title=" ">
<polygon fill="white" stroke="black" points="319.5,-126 319.5,-145 483.5,-145 483.5,-126 319.5,-126"/>
<text text-anchor="middle" x="401.5" y="-133" font-family="Helvetica,sans-Serif" font-size="10.00">TMC2130Stepper::endTransaction</text>
</a>
</g>
</g>
<!-- Node2&#45;&gt;Node4 -->
<g id="edge3" class="edge"><title>Node2&#45;&gt;Node4</title>
<path fill="none" stroke="midnightblue" d="M267.791,-107.089C291.53,-112.171 320.884,-118.455 345.944,-123.82"/>
<polygon fill="midnightblue" stroke="midnightblue" points="345.52,-127.309 356.031,-125.98 346.986,-120.464 345.52,-127.309"/>
</g>
<!-- Node5 -->
<g id="node5" class="node"><title>Node5</title>
<g id="a_node5"><a xlink:href="../../dd/deb/class_t_m_c2130_stepper.html#a4a8f3b6ac100045ed5f84fe4d18d9d5a" target="_top" xlink:title=" ">
<polygon fill="white" stroke="black" points="325.5,-88 325.5,-107 477.5,-107 477.5,-88 325.5,-88"/>
<text text-anchor="middle" x="401.5" y="-95" font-family="Helvetica,sans-Serif" font-size="10.00">TMC2130Stepper::switchCSpin</text>
</a>
</g>
</g>
<!-- Node2&#45;&gt;Node5 -->
<g id="edge4" class="edge"><title>Node2&#45;&gt;Node5</title>
<path fill="none" stroke="midnightblue" d="M280.139,-97.5C291.27,-97.5 303.163,-97.5 314.981,-97.5"/>
<polygon fill="midnightblue" stroke="midnightblue" points="315.325,-101 325.325,-97.5 315.324,-94.0001 315.325,-101"/>
</g>
<!-- Node6 -->
<g id="node6" class="node"><title>Node6</title>
<g id="a_node6"><a xlink:href="../../dd/deb/class_t_m_c2130_stepper.html#a0673af4887ec52b23aa658aa290f6623" target="_top" xlink:title=" ">
<polygon fill="white" stroke="black" points="523,-28 523,-47 653,-47 653,-28 523,-28"/>
<text text-anchor="middle" x="588" y="-35" font-family="Helvetica,sans-Serif" font-size="10.00">TMC2130Stepper::transfer</text>
</a>
</g>
</g>
<!-- Node2&#45;&gt;Node6 -->
<g id="edge5" class="edge"><title>Node2&#45;&gt;Node6</title>
<path fill="none" stroke="midnightblue" d="M267.378,-87.9498C282.744,-84.7717 300.099,-81.3252 316,-78.5 382.378,-66.7062 458.291,-55.4085 512.852,-47.6702"/>
<polygon fill="midnightblue" stroke="midnightblue" points="513.372,-51.1316 522.784,-46.2674 512.393,-44.2004 513.372,-51.1316"/>
</g>
<!-- Node8 -->
<g id="node8" class="node"><title>Node8</title>
<g id="a_node8"><a xlink:href="../../dd/deb/class_t_m_c2130_stepper.html#aba94fc7bb8e2c8c12191f44561f19d95" target="_top" xlink:title=" ">
<polygon fill="white" stroke="black" points="336.5,-0.5 336.5,-30.5 466.5,-30.5 466.5,-0.5 336.5,-0.5"/>
<text text-anchor="start" x="344.5" y="-18.5" font-family="Helvetica,sans-Serif" font-size="10.00">TMC2130Stepper::transfer</text>
<text text-anchor="middle" x="401.5" y="-7.5" font-family="Helvetica,sans-Serif" font-size="10.00">EmptyBytes</text>
</a>
</g>
</g>
<!-- Node2&#45;&gt;Node8 -->
<g id="edge7" class="edge"><title>Node2&#45;&gt;Node8</title>
<path fill="none" stroke="midnightblue" d="M238.378,-87.8381C256.488,-76.7136 287.694,-58.3277 316,-45.5 324.84,-41.494 334.386,-37.66 343.769,-34.1517"/>
<polygon fill="midnightblue" stroke="midnightblue" points="345.257,-37.3346 353.453,-30.6201 342.859,-30.7583 345.257,-37.3346"/>
</g>
<!-- Node7 -->
<g id="node7" class="node"><title>Node7</title>
<g id="a_node7"><a xlink:href="../../df/d8b/class_s_w___s_p_i_class.html#af260fdc0af3f1312b106483161e559c3" target="_top" xlink:title=" ">
<polygon fill="white" stroke="black" points="689,-28 689,-47 806,-47 806,-28 689,-28"/>
<text text-anchor="middle" x="747.5" y="-35" font-family="Helvetica,sans-Serif" font-size="10.00">SW_SPIClass::transfer</text>
</a>
</g>
</g>
<!-- Node6&#45;&gt;Node7 -->
<g id="edge6" class="edge"><title>Node6&#45;&gt;Node7</title>
<path fill="none" stroke="midnightblue" d="M653.061,-37.5C661.477,-37.5 670.125,-37.5 678.603,-37.5"/>
<polygon fill="midnightblue" stroke="midnightblue" points="678.831,-41.0001 688.831,-37.5 678.831,-34.0001 678.831,-41.0001"/>
</g>
<!-- Node8&#45;&gt;Node6 -->
<g id="edge8" class="edge"><title>Node8&#45;&gt;Node6</title>
<path fill="none" stroke="midnightblue" d="M466.511,-23.1328C481.452,-24.9144 497.487,-26.8263 512.827,-28.6556"/>
<polygon fill="midnightblue" stroke="midnightblue" points="512.445,-32.1347 522.79,-29.8435 513.274,-25.184 512.445,-32.1347"/>
</g>
</g>
</svg>
