<?xml version="1.0" encoding="UTF-8" standalone="no"?>
<!DOCTYPE svg PUBLIC "-//W3C//DTD SVG 1.1//EN"
 "http://www.w3.org/Graphics/SVG/1.1/DTD/svg11.dtd">
<!-- Generated by graphviz version 2.38.0 (20140413.2041)
 -->
<!-- Title: TMC5130Stepper::TZEROWAIT Pages: 1 -->
<svg width="841pt" height="192pt"
 viewBox="0.00 0.00 841.00 191.50" xmlns="http://www.w3.org/2000/svg" xmlns:xlink="http://www.w3.org/1999/xlink">
<g id="graph0" class="graph" transform="scale(1 1) rotate(0) translate(4 187.5)">
<title>TMC5130Stepper::TZEROWAIT</title>
<polygon fill="white" stroke="none" points="-4,4 -4,-187.5 837,-187.5 837,4 -4,4"/>
<!-- Node1 -->
<g id="node1" class="node"><title>Node1</title>
<g id="a_node1"><a xlink:title=" ">
<polygon fill="#bfbfbf" stroke="black" points="0,-88 0,-107 153,-107 153,-88 0,-88"/>
<text text-anchor="middle" x="76.5" y="-95" font-family="Helvetica,sans-Serif" font-size="10.00">TMC5130Stepper::TZEROWAIT</text>
</a>
</g>
</g>
<!-- Node2 -->
<g id="node2" class="node"><title>Node2</title>
<g id="a_node2"><a xlink:href="../../dd/deb/class_t_m_c2130_stepper.html#a6b02e33ab452a7869426ede7ba370445" target="_top" xlink:title=" ">
<polygon fill="white" stroke="black" points="189,-88 189,-107 307,-107 307,-88 189,-88"/>
<text text-anchor="middle" x="248" y="-95" font-family="Helvetica,sans-Serif" font-size="10.00">TMC2130Stepper::write</text>
</a>
</g>
</g>
<!-- Node1&#45;&gt;Node2 -->
<g id="edge1" class="edge"><title>Node1&#45;&gt;Node2</title>
<path fill="none" stroke="midnightblue" d="M153.326,-97.5C161.786,-97.5 170.366,-97.5 178.723,-97.5"/>
<polygon fill="midnightblue" stroke="midnightblue" points="178.784,-101 188.784,-97.5 178.784,-94.0001 178.784,-101"/>
</g>
<!-- Node3 -->
<g id="node3" class="node"><title>Node3</title>
<g id="a_node3"><a xlink:href="../../dd/deb/class_t_m_c2130_stepper.html#a1fc868601a32fb0cd8fc536dafa8ecea" target="_top" xlink:title=" ">
<polygon fill="white" stroke="black" points="343,-164 343,-183 514,-183 514,-164 343,-164"/>
<text text-anchor="middle" x="428.5" y="-171" font-family="Helvetica,sans-Serif" font-size="10.00">TMC2130Stepper::beginTransaction</text>
</a>
</g>
</g>
<!-- Node2&#45;&gt;Node3 -->
<g id="edge2" class="edge"><title>Node2&#45;&gt;Node3</title>
<path fill="none" stroke="midnightblue" d="M261.674,-107.041C279.099,-119.71 311.845,-141.943 343,-154.5 349.372,-157.068 356.16,-159.325 363.015,-161.299"/>
<polygon fill="midnightblue" stroke="midnightblue" points="362.497,-164.784 373.062,-163.994 364.31,-158.023 362.497,-164.784"/>
</g>
<!-- Node4 -->
<g id="node4" class="node"><title>Node4</title>
<g id="a_node4"><a xlink:href="../../dd/deb/class_t_m_c2130_stepper.html#aeace18dcee808585dd4449e783811600" target="_top" xlink:title=" ">
<polygon fill="white" stroke="black" points="346.5,-126 346.5,-145 510.5,-145 510.5,-126 346.5,-126"/>
<text text-anchor="middle" x="428.5" y="-133" font-family="Helvetica,sans-Serif" font-size="10.00">TMC2130Stepper::endTransaction</text>
</a>
</g>
</g>
<!-- Node2&#45;&gt;Node4 -->
<g id="edge3" class="edge"><title>Node2&#45;&gt;Node4</title>
<path fill="none" stroke="midnightblue" d="M294.043,-107.089C318.023,-112.194 347.698,-118.511 372.972,-123.892"/>
<polygon fill="midnightblue" stroke="midnightblue" points="372.271,-127.321 382.781,-125.98 373.729,-120.474 372.271,-127.321"/>
</g>
<!-- Node5 -->
<g id="node5" class="node"><title>Node5</title>
<g id="a_node5"><a xlink:href="../../dd/deb/class_t_m_c2130_stepper.html#a4a8f3b6ac100045ed5f84fe4d18d9d5a" target="_top" xlink:title=" ">
<polygon fill="white" stroke="black" points="352.5,-88 352.5,-107 504.5,-107 504.5,-88 352.5,-88"/>
<text text-anchor="middle" x="428.5" y="-95" font-family="Helvetica,sans-Serif" font-size="10.00">TMC2130Stepper::switchCSpin</text>
</a>
</g>
</g>
<!-- Node2&#45;&gt;Node5 -->
<g id="edge4" class="edge"><title>Node2&#45;&gt;Node5</title>
<path fill="none" stroke="midnightblue" d="M307.448,-97.5C318.536,-97.5 330.347,-97.5 342.07,-97.5"/>
<polygon fill="midnightblue" stroke="midnightblue" points="342.329,-101 352.329,-97.5 342.329,-94.0001 342.329,-101"/>
</g>
<!-- Node6 -->
<g id="node6" class="node"><title>Node6</title>
<g id="a_node6"><a xlink:href="../../dd/deb/class_t_m_c2130_stepper.html#a0673af4887ec52b23aa658aa290f6623" target="_top" xlink:title=" ">
<polygon fill="white" stroke="black" points="550,-28 550,-47 680,-47 680,-28 550,-28"/>
<text text-anchor="middle" x="615" y="-35" font-family="Helvetica,sans-Serif" font-size="10.00">TMC2130Stepper::transfer</text>
</a>
</g>
</g>
<!-- Node2&#45;&gt;Node6 -->
<g id="edge5" class="edge"><title>Node2&#45;&gt;Node6</title>
<path fill="none" stroke="midnightblue" d="M293.859,-87.964C309.391,-84.787 326.932,-81.3376 343,-78.5 409.39,-66.7755 485.302,-55.4704 539.859,-47.7117"/>
<polygon fill="midnightblue" stroke="midnightblue" points="540.381,-51.1729 549.791,-46.3049 539.399,-44.2421 540.381,-51.1729"/>
</g>
<!-- Node8 -->
<g id="node8" class="node"><title>Node8</title>
<g id="a_node8"><a xlink:href="../../dd/deb/class_t_m_c2130_stepper.html#aba94fc7bb8e2c8c12191f44561f19d95" target="_top" xlink:title=" ">
<polygon fill="white" stroke="black" points="363.5,-0.5 363.5,-30.5 493.5,-30.5 493.5,-0.5 363.5,-0.5"/>
<text text-anchor="start" x="371.5" y="-18.5" font-family="Helvetica,sans-Serif" font-size="10.00">TMC2130Stepper::transfer</text>
<text text-anchor="middle" x="428.5" y="-7.5" font-family="Helvetica,sans-Serif" font-size="10.00">EmptyBytes</text>
</a>
</g>
</g>
<!-- Node2&#45;&gt;Node8 -->
<g id="edge7" class="edge"><title>Node2&#45;&gt;Node8</title>
<path fill="none" stroke="midnightblue" d="M264.559,-87.8524C282.877,-76.7413 314.432,-58.368 343,-45.5 352.049,-41.4242 361.831,-37.5179 371.42,-33.9495"/>
<polygon fill="midnightblue" stroke="midnightblue" points="372.707,-37.2056 380.91,-30.5 370.316,-30.6267 372.707,-37.2056"/>
</g>
<!-- Node7 -->
<g id="node7" class="node"><title>Node7</title>
<g id="a_node7"><a xlink:href="../../df/d8b/class_s_w___s_p_i_class.html#af260fdc0af3f1312b106483161e559c3" target="_top" xlink:title=" ">
<polygon fill="white" stroke="black" points="716,-28 716,-47 833,-47 833,-28 716,-28"/>
<text text-anchor="middle" x="774.5" y="-35" font-family="Helvetica,sans-Serif" font-size="10.00">SW_SPIClass::transfer</text>
</a>
</g>
</g>
<!-- Node6&#45;&gt;Node7 -->
<g id="edge6" class="edge"><title>Node6&#45;&gt;Node7</title>
<path fill="none" stroke="midnightblue" d="M680.061,-37.5C688.477,-37.5 697.125,-37.5 705.603,-37.5"/>
<polygon fill="midnightblue" stroke="midnightblue" points="705.831,-41.0001 715.831,-37.5 705.831,-34.0001 705.831,-41.0001"/>
</g>
<!-- Node8&#45;&gt;Node6 -->
<g id="edge8" class="edge"><title>Node8&#45;&gt;Node6</title>
<path fill="none" stroke="midnightblue" d="M493.511,-23.1328C508.452,-24.9144 524.487,-26.8263 539.827,-28.6556"/>
<polygon fill="midnightblue" stroke="midnightblue" points="539.445,-32.1347 549.79,-29.8435 540.274,-25.184 539.445,-32.1347"/>
</g>
</g>
</svg>
