<?xml version="1.0" encoding="UTF-8" standalone="no"?>
<!DOCTYPE svg PUBLIC "-//W3C//DTD SVG 1.1//EN"
 "http://www.w3.org/Graphics/SVG/1.1/DTD/svg11.dtd">
<!-- Generated by graphviz version 2.38.0 (20140413.2041)
 -->
<!-- Title: TMC5130Stepper::XTARGET Pages: 1 -->
<svg width="829pt" height="192pt"
 viewBox="0.00 0.00 829.00 191.50" xmlns="http://www.w3.org/2000/svg" xmlns:xlink="http://www.w3.org/1999/xlink">
<g id="graph0" class="graph" transform="scale(1 1) rotate(0) translate(4 187.5)">
<title>TMC5130Stepper::XTARGET</title>
<polygon fill="white" stroke="none" points="-4,4 -4,-187.5 825,-187.5 825,4 -4,4"/>
<!-- Node1 -->
<g id="node1" class="node"><title>Node1</title>
<g id="a_node1"><a xlink:title=" ">
<polygon fill="#bfbfbf" stroke="black" points="0,-88 0,-107 141,-107 141,-88 0,-88"/>
<text text-anchor="middle" x="70.5" y="-95" font-family="Helvetica,sans-Serif" font-size="10.00">TMC5130Stepper::XTARGET</text>
</a>
</g>
</g>
<!-- Node2 -->
<g id="node2" class="node"><title>Node2</title>
<g id="a_node2"><a xlink:href="../../dd/deb/class_t_m_c2130_stepper.html#a6b02e33ab452a7869426ede7ba370445" target="_top" xlink:title=" ">
<polygon fill="white" stroke="black" points="177,-88 177,-107 295,-107 295,-88 177,-88"/>
<text text-anchor="middle" x="236" y="-95" font-family="Helvetica,sans-Serif" font-size="10.00">TMC2130Stepper::write</text>
</a>
</g>
</g>
<!-- Node1&#45;&gt;Node2 -->
<g id="edge1" class="edge"><title>Node1&#45;&gt;Node2</title>
<path fill="none" stroke="midnightblue" d="M141.313,-97.5C149.767,-97.5 158.394,-97.5 166.824,-97.5"/>
<polygon fill="midnightblue" stroke="midnightblue" points="166.983,-101 176.983,-97.5 166.983,-94.0001 166.983,-101"/>
</g>
<!-- Node3 -->
<g id="node3" class="node"><title>Node3</title>
<g id="a_node3"><a xlink:href="../../dd/deb/class_t_m_c2130_stepper.html#a1fc868601a32fb0cd8fc536dafa8ecea" target="_top" xlink:title=" ">
<polygon fill="white" stroke="black" points="331,-164 331,-183 502,-183 502,-164 331,-164"/>
<text text-anchor="middle" x="416.5" y="-171" font-family="Helvetica,sans-Serif" font-size="10.00">TMC2130Stepper::beginTransaction</text>
</a>
</g>
</g>
<!-- Node2&#45;&gt;Node3 -->
<g id="edge2" class="edge"><title>Node2&#45;&gt;Node3</title>
<path fill="none" stroke="midnightblue" d="M249.674,-107.041C267.099,-119.71 299.845,-141.943 331,-154.5 337.372,-157.068 344.16,-159.325 351.015,-161.299"/>
<polygon fill="midnightblue" stroke="midnightblue" points="350.497,-164.784 361.062,-163.994 352.31,-158.023 350.497,-164.784"/>
</g>
<!-- Node4 -->
<g id="node4" class="node"><title>Node4</title>
<g id="a_node4"><a xlink:href="../../dd/deb/class_t_m_c2130_stepper.html#aeace18dcee808585dd4449e783811600" target="_top" xlink:title=" ">
<polygon fill="white" stroke="black" points="334.5,-126 334.5,-145 498.5,-145 498.5,-126 334.5,-126"/>
<text text-anchor="middle" x="416.5" y="-133" font-family="Helvetica,sans-Serif" font-size="10.00">TMC2130Stepper::endTransaction</text>
</a>
</g>
</g>
<!-- Node2&#45;&gt;Node4 -->
<g id="edge3" class="edge"><title>Node2&#45;&gt;Node4</title>
<path fill="none" stroke="midnightblue" d="M282.043,-107.089C306.023,-112.194 335.698,-118.511 360.972,-123.892"/>
<polygon fill="midnightblue" stroke="midnightblue" points="360.271,-127.321 370.781,-125.98 361.729,-120.474 360.271,-127.321"/>
</g>
<!-- Node5 -->
<g id="node5" class="node"><title>Node5</title>
<g id="a_node5"><a xlink:href="../../dd/deb/class_t_m_c2130_stepper.html#a4a8f3b6ac100045ed5f84fe4d18d9d5a" target="_top" xlink:title=" ">
<polygon fill="white" stroke="black" points="340.5,-88 340.5,-107 492.5,-107 492.5,-88 340.5,-88"/>
<text text-anchor="middle" x="416.5" y="-95" font-family="Helvetica,sans-Serif" font-size="10.00">TMC2130Stepper::switchCSpin</text>
</a>
</g>
</g>
<!-- Node2&#45;&gt;Node5 -->
<g id="edge4" class="edge"><title>Node2&#45;&gt;Node5</title>
<path fill="none" stroke="midnightblue" d="M295.448,-97.5C306.536,-97.5 318.347,-97.5 330.07,-97.5"/>
<polygon fill="midnightblue" stroke="midnightblue" points="330.329,-101 340.329,-97.5 330.329,-94.0001 330.329,-101"/>
</g>
<!-- Node6 -->
<g id="node6" class="node"><title>Node6</title>
<g id="a_node6"><a xlink:href="../../dd/deb/class_t_m_c2130_stepper.html#a0673af4887ec52b23aa658aa290f6623" target="_top" xlink:title=" ">
<polygon fill="white" stroke="black" points="538,-28 538,-47 668,-47 668,-28 538,-28"/>
<text text-anchor="middle" x="603" y="-35" font-family="Helvetica,sans-Serif" font-size="10.00">TMC2130Stepper::transfer</text>
</a>
</g>
</g>
<!-- Node2&#45;&gt;Node6 -->
<g id="edge5" class="edge"><title>Node2&#45;&gt;Node6</title>
<path fill="none" stroke="midnightblue" d="M281.859,-87.964C297.391,-84.787 314.932,-81.3376 331,-78.5 397.39,-66.7755 473.302,-55.4704 527.859,-47.7117"/>
<polygon fill="midnightblue" stroke="midnightblue" points="528.381,-51.1729 537.791,-46.3049 527.399,-44.2421 528.381,-51.1729"/>
</g>
<!-- Node8 -->
<g id="node8" class="node"><title>Node8</title>
<g id="a_node8"><a xlink:href="../../dd/deb/class_t_m_c2130_stepper.html#aba94fc7bb8e2c8c12191f44561f19d95" target="_top" xlink:title=" ">
<polygon fill="white" stroke="black" points="351.5,-0.5 351.5,-30.5 481.5,-30.5 481.5,-0.5 351.5,-0.5"/>
<text text-anchor="start" x="359.5" y="-18.5" font-family="Helvetica,sans-Serif" font-size="10.00">TMC2130Stepper::transfer</text>
<text text-anchor="middle" x="416.5" y="-7.5" font-family="Helvetica,sans-Serif" font-size="10.00">EmptyBytes</text>
</a>
</g>
</g>
<!-- Node2&#45;&gt;Node8 -->
<g id="edge7" class="edge"><title>Node2&#45;&gt;Node8</title>
<path fill="none" stroke="midnightblue" d="M252.559,-87.8524C270.877,-76.7413 302.432,-58.368 331,-45.5 340.049,-41.4242 349.831,-37.5179 359.42,-33.9495"/>
<polygon fill="midnightblue" stroke="midnightblue" points="360.707,-37.2056 368.91,-30.5 358.316,-30.6267 360.707,-37.2056"/>
</g>
<!-- Node7 -->
<g id="node7" class="node"><title>Node7</title>
<g id="a_node7"><a xlink:href="../../df/d8b/class_s_w___s_p_i_class.html#af260fdc0af3f1312b106483161e559c3" target="_top" xlink:title=" ">
<polygon fill="white" stroke="black" points="704,-28 704,-47 821,-47 821,-28 704,-28"/>
<text text-anchor="middle" x="762.5" y="-35" font-family="Helvetica,sans-Serif" font-size="10.00">SW_SPIClass::transfer</text>
</a>
</g>
</g>
<!-- Node6&#45;&gt;Node7 -->
<g id="edge6" class="edge"><title>Node6&#45;&gt;Node7</title>
<path fill="none" stroke="midnightblue" d="M668.061,-37.5C676.477,-37.5 685.125,-37.5 693.603,-37.5"/>
<polygon fill="midnightblue" stroke="midnightblue" points="693.831,-41.0001 703.831,-37.5 693.831,-34.0001 693.831,-41.0001"/>
</g>
<!-- Node8&#45;&gt;Node6 -->
<g id="edge8" class="edge"><title>Node8&#45;&gt;Node6</title>
<path fill="none" stroke="midnightblue" d="M481.511,-23.1328C496.452,-24.9144 512.487,-26.8263 527.827,-28.6556"/>
<polygon fill="midnightblue" stroke="midnightblue" points="527.445,-32.1347 537.79,-29.8435 528.274,-25.184 527.445,-32.1347"/>
</g>
</g>
</svg>
