<?xml version="1.0" encoding="UTF-8" standalone="no"?>
<!DOCTYPE svg PUBLIC "-//W3C//DTD SVG 1.1//EN"
 "http://www.w3.org/Graphics/SVG/1.1/DTD/svg11.dtd">
<!-- Generated by graphviz version 2.38.0 (20140413.2041)
 -->
<!-- Title: TMC5130Stepper::RAMPMODE Pages: 1 -->
<svg width="843pt" height="192pt"
 viewBox="0.00 0.00 843.00 191.50" xmlns="http://www.w3.org/2000/svg" xmlns:xlink="http://www.w3.org/1999/xlink">
<g id="graph0" class="graph" transform="scale(1 1) rotate(0) translate(4 187.5)">
<title>TMC5130Stepper::RAMPMODE</title>
<polygon fill="white" stroke="none" points="-4,4 -4,-187.5 839,-187.5 839,4 -4,4"/>
<!-- Node1 -->
<g id="node1" class="node"><title>Node1</title>
<g id="a_node1"><a xlink:title=" ">
<polygon fill="#bfbfbf" stroke="black" points="0,-88 0,-107 155,-107 155,-88 0,-88"/>
<text text-anchor="middle" x="77.5" y="-95" font-family="Helvetica,sans-Serif" font-size="10.00">TMC5130Stepper::RAMPMODE</text>
</a>
</g>
</g>
<!-- Node2 -->
<g id="node2" class="node"><title>Node2</title>
<g id="a_node2"><a xlink:href="../../dd/deb/class_t_m_c2130_stepper.html#a6b02e33ab452a7869426ede7ba370445" target="_top" xlink:title=" ">
<polygon fill="white" stroke="black" points="191,-88 191,-107 309,-107 309,-88 191,-88"/>
<text text-anchor="middle" x="250" y="-95" font-family="Helvetica,sans-Serif" font-size="10.00">TMC2130Stepper::write</text>
</a>
</g>
</g>
<!-- Node1&#45;&gt;Node2 -->
<g id="edge1" class="edge"><title>Node1&#45;&gt;Node2</title>
<path fill="none" stroke="midnightblue" d="M155.271,-97.5C163.754,-97.5 172.35,-97.5 180.719,-97.5"/>
<polygon fill="midnightblue" stroke="midnightblue" points="180.792,-101 190.792,-97.5 180.792,-94.0001 180.792,-101"/>
</g>
<!-- Node3 -->
<g id="node3" class="node"><title>Node3</title>
<g id="a_node3"><a xlink:href="../../dd/deb/class_t_m_c2130_stepper.html#a1fc868601a32fb0cd8fc536dafa8ecea" target="_top" xlink:title=" ">
<polygon fill="white" stroke="black" points="345,-164 345,-183 516,-183 516,-164 345,-164"/>
<text text-anchor="middle" x="430.5" y="-171" font-family="Helvetica,sans-Serif" font-size="10.00">TMC2130Stepper::beginTransaction</text>
</a>
</g>
</g>
<!-- Node2&#45;&gt;Node3 -->
<g id="edge2" class="edge"><title>Node2&#45;&gt;Node3</title>
<path fill="none" stroke="midnightblue" d="M263.674,-107.041C281.099,-119.71 313.845,-141.943 345,-154.5 351.372,-157.068 358.16,-159.325 365.015,-161.299"/>
<polygon fill="midnightblue" stroke="midnightblue" points="364.497,-164.784 375.062,-163.994 366.31,-158.023 364.497,-164.784"/>
</g>
<!-- Node4 -->
<g id="node4" class="node"><title>Node4</title>
<g id="a_node4"><a xlink:href="../../dd/deb/class_t_m_c2130_stepper.html#aeace18dcee808585dd4449e783811600" target="_top" xlink:title=" ">
<polygon fill="white" stroke="black" points="348.5,-126 348.5,-145 512.5,-145 512.5,-126 348.5,-126"/>
<text text-anchor="middle" x="430.5" y="-133" font-family="Helvetica,sans-Serif" font-size="10.00">TMC2130Stepper::endTransaction</text>
</a>
</g>
</g>
<!-- Node2&#45;&gt;Node4 -->
<g id="edge3" class="edge"><title>Node2&#45;&gt;Node4</title>
<path fill="none" stroke="midnightblue" d="M296.043,-107.089C320.023,-112.194 349.698,-118.511 374.972,-123.892"/>
<polygon fill="midnightblue" stroke="midnightblue" points="374.271,-127.321 384.781,-125.98 375.729,-120.474 374.271,-127.321"/>
</g>
<!-- Node5 -->
<g id="node5" class="node"><title>Node5</title>
<g id="a_node5"><a xlink:href="../../dd/deb/class_t_m_c2130_stepper.html#a4a8f3b6ac100045ed5f84fe4d18d9d5a" target="_top" xlink:title=" ">
<polygon fill="white" stroke="black" points="354.5,-88 354.5,-107 506.5,-107 506.5,-88 354.5,-88"/>
<text text-anchor="middle" x="430.5" y="-95" font-family="Helvetica,sans-Serif" font-size="10.00">TMC2130Stepper::switchCSpin</text>
</a>
</g>
</g>
<!-- Node2&#45;&gt;Node5 -->
<g id="edge4" class="edge"><title>Node2&#45;&gt;Node5</title>
<path fill="none" stroke="midnightblue" d="M309.448,-97.5C320.536,-97.5 332.347,-97.5 344.07,-97.5"/>
<polygon fill="midnightblue" stroke="midnightblue" points="344.329,-101 354.329,-97.5 344.329,-94.0001 344.329,-101"/>
</g>
<!-- Node6 -->
<g id="node6" class="node"><title>Node6</title>
<g id="a_node6"><a xlink:href="../../dd/deb/class_t_m_c2130_stepper.html#a0673af4887ec52b23aa658aa290f6623" target="_top" xlink:title=" ">
<polygon fill="white" stroke="black" points="552,-28 552,-47 682,-47 682,-28 552,-28"/>
<text text-anchor="middle" x="617" y="-35" font-family="Helvetica,sans-Serif" font-size="10.00">TMC2130Stepper::transfer</text>
</a>
</g>
</g>
<!-- Node2&#45;&gt;Node6 -->
<g id="edge5" class="edge"><title>Node2&#45;&gt;Node6</title>
<path fill="none" stroke="midnightblue" d="M295.859,-87.964C311.391,-84.787 328.932,-81.3376 345,-78.5 411.39,-66.7755 487.302,-55.4704 541.859,-47.7117"/>
<polygon fill="midnightblue" stroke="midnightblue" points="542.381,-51.1729 551.791,-46.3049 541.399,-44.2421 542.381,-51.1729"/>
</g>
<!-- Node8 -->
<g id="node8" class="node"><title>Node8</title>
<g id="a_node8"><a xlink:href="../../dd/deb/class_t_m_c2130_stepper.html#aba94fc7bb8e2c8c12191f44561f19d95" target="_top" xlink:title=" ">
<polygon fill="white" stroke="black" points="365.5,-0.5 365.5,-30.5 495.5,-30.5 495.5,-0.5 365.5,-0.5"/>
<text text-anchor="start" x="373.5" y="-18.5" font-family="Helvetica,sans-Serif" font-size="10.00">TMC2130Stepper::transfer</text>
<text text-anchor="middle" x="430.5" y="-7.5" font-family="Helvetica,sans-Serif" font-size="10.00">EmptyBytes</text>
</a>
</g>
</g>
<!-- Node2&#45;&gt;Node8 -->
<g id="edge7" class="edge"><title>Node2&#45;&gt;Node8</title>
<path fill="none" stroke="midnightblue" d="M266.559,-87.8524C284.877,-76.7413 316.432,-58.368 345,-45.5 354.049,-41.4242 363.831,-37.5179 373.42,-33.9495"/>
<polygon fill="midnightblue" stroke="midnightblue" points="374.707,-37.2056 382.91,-30.5 372.316,-30.6267 374.707,-37.2056"/>
</g>
<!-- Node7 -->
<g id="node7" class="node"><title>Node7</title>
<g id="a_node7"><a xlink:href="../../df/d8b/class_s_w___s_p_i_class.html#af260fdc0af3f1312b106483161e559c3" target="_top" xlink:title=" ">
<polygon fill="white" stroke="black" points="718,-28 718,-47 835,-47 835,-28 718,-28"/>
<text text-anchor="middle" x="776.5" y="-35" font-family="Helvetica,sans-Serif" font-size="10.00">SW_SPIClass::transfer</text>
</a>
</g>
</g>
<!-- Node6&#45;&gt;Node7 -->
<g id="edge6" class="edge"><title>Node6&#45;&gt;Node7</title>
<path fill="none" stroke="midnightblue" d="M682.061,-37.5C690.477,-37.5 699.125,-37.5 707.603,-37.5"/>
<polygon fill="midnightblue" stroke="midnightblue" points="707.831,-41.0001 717.831,-37.5 707.831,-34.0001 707.831,-41.0001"/>
</g>
<!-- Node8&#45;&gt;Node6 -->
<g id="edge8" class="edge"><title>Node8&#45;&gt;Node6</title>
<path fill="none" stroke="midnightblue" d="M495.511,-23.1328C510.452,-24.9144 526.487,-26.8263 541.827,-28.6556"/>
<polygon fill="midnightblue" stroke="midnightblue" points="541.445,-32.1347 551.79,-29.8435 542.274,-25.184 541.445,-32.1347"/>
</g>
</g>
</svg>
