<?xml version="1.0" encoding="UTF-8" standalone="no"?>
<!DOCTYPE svg PUBLIC "-//W3C//DTD SVG 1.1//EN"
 "http://www.w3.org/Graphics/SVG/1.1/DTD/svg11.dtd">
<!-- Generated by graphviz version 2.38.0 (20140413.2041)
 -->
<!-- Title: TMC5130Stepper::refl_step Pages: 1 -->
<svg width="972pt" height="192pt"
 viewBox="0.00 0.00 972.00 191.50" xmlns="http://www.w3.org/2000/svg" xmlns:xlink="http://www.w3.org/1999/xlink">
<g id="graph0" class="graph" transform="scale(1 1) rotate(0) translate(4 187.5)">
<title>TMC5130Stepper::refl_step</title>
<polygon fill="white" stroke="none" points="-4,4 -4,-187.5 968,-187.5 968,4 -4,4"/>
<!-- Node1 -->
<g id="node1" class="node"><title>Node1</title>
<g id="a_node1"><a xlink:title=" ">
<polygon fill="#bfbfbf" stroke="black" points="0,-88 0,-107 134,-107 134,-88 0,-88"/>
<text text-anchor="middle" x="67" y="-95" font-family="Helvetica,sans-Serif" font-size="10.00">TMC5130Stepper::refl_step</text>
</a>
</g>
</g>
<!-- Node2 -->
<g id="node2" class="node"><title>Node2</title>
<g id="a_node2"><a xlink:href="../../d9/df8/class_t_m_c5130_stepper.html#a74e9e262a8da77925d246916b431161d" target="_top" xlink:title=" ">
<polygon fill="white" stroke="black" points="170,-88 170,-107 286,-107 286,-88 170,-88"/>
<text text-anchor="middle" x="228" y="-95" font-family="Helvetica,sans-Serif" font-size="10.00">TMC5130Stepper::IOIN</text>
</a>
</g>
</g>
<!-- Node1&#45;&gt;Node2 -->
<g id="edge1" class="edge"><title>Node1&#45;&gt;Node2</title>
<path fill="none" stroke="midnightblue" d="M134.049,-97.5C142.481,-97.5 151.12,-97.5 159.573,-97.5"/>
<polygon fill="midnightblue" stroke="midnightblue" points="159.765,-101 169.765,-97.5 159.765,-94.0001 159.765,-101"/>
</g>
<!-- Node3 -->
<g id="node3" class="node"><title>Node3</title>
<g id="a_node3"><a xlink:href="../../dd/deb/class_t_m_c2130_stepper.html#a161ca6ebe3736454e17e9236572a6001" target="_top" xlink:title=" ">
<polygon fill="white" stroke="black" points="322,-88 322,-107 438,-107 438,-88 322,-88"/>
<text text-anchor="middle" x="380" y="-95" font-family="Helvetica,sans-Serif" font-size="10.00">TMC2130Stepper::read</text>
</a>
</g>
</g>
<!-- Node2&#45;&gt;Node3 -->
<g id="edge2" class="edge"><title>Node2&#45;&gt;Node3</title>
<path fill="none" stroke="midnightblue" d="M286.136,-97.5C294.377,-97.5 302.923,-97.5 311.344,-97.5"/>
<polygon fill="midnightblue" stroke="midnightblue" points="311.526,-101 321.525,-97.5 311.525,-94.0001 311.526,-101"/>
</g>
<!-- Node4 -->
<g id="node4" class="node"><title>Node4</title>
<g id="a_node4"><a xlink:href="../../dd/deb/class_t_m_c2130_stepper.html#a1fc868601a32fb0cd8fc536dafa8ecea" target="_top" xlink:title=" ">
<polygon fill="white" stroke="black" points="474,-164 474,-183 645,-183 645,-164 474,-164"/>
<text text-anchor="middle" x="559.5" y="-171" font-family="Helvetica,sans-Serif" font-size="10.00">TMC2130Stepper::beginTransaction</text>
</a>
</g>
</g>
<!-- Node3&#45;&gt;Node4 -->
<g id="edge3" class="edge"><title>Node3&#45;&gt;Node4</title>
<path fill="none" stroke="midnightblue" d="M393.522,-107.048C410.741,-119.725 443.117,-141.967 474,-154.5 480.272,-157.045 486.951,-159.283 493.7,-161.242"/>
<polygon fill="midnightblue" stroke="midnightblue" points="493.032,-164.687 503.599,-163.918 494.858,-157.93 493.032,-164.687"/>
</g>
<!-- Node5 -->
<g id="node5" class="node"><title>Node5</title>
<g id="a_node5"><a xlink:href="../../dd/deb/class_t_m_c2130_stepper.html#aeace18dcee808585dd4449e783811600" target="_top" xlink:title=" ">
<polygon fill="white" stroke="black" points="477.5,-126 477.5,-145 641.5,-145 641.5,-126 477.5,-126"/>
<text text-anchor="middle" x="559.5" y="-133" font-family="Helvetica,sans-Serif" font-size="10.00">TMC2130Stepper::endTransaction</text>
</a>
</g>
</g>
<!-- Node3&#45;&gt;Node5 -->
<g id="edge4" class="edge"><title>Node3&#45;&gt;Node5</title>
<path fill="none" stroke="midnightblue" d="M425.791,-107.089C449.53,-112.171 478.884,-118.455 503.944,-123.82"/>
<polygon fill="midnightblue" stroke="midnightblue" points="503.52,-127.309 514.031,-125.98 504.986,-120.464 503.52,-127.309"/>
</g>
<!-- Node6 -->
<g id="node6" class="node"><title>Node6</title>
<g id="a_node6"><a xlink:href="../../dd/deb/class_t_m_c2130_stepper.html#a4a8f3b6ac100045ed5f84fe4d18d9d5a" target="_top" xlink:title=" ">
<polygon fill="white" stroke="black" points="483.5,-88 483.5,-107 635.5,-107 635.5,-88 483.5,-88"/>
<text text-anchor="middle" x="559.5" y="-95" font-family="Helvetica,sans-Serif" font-size="10.00">TMC2130Stepper::switchCSpin</text>
</a>
</g>
</g>
<!-- Node3&#45;&gt;Node6 -->
<g id="edge5" class="edge"><title>Node3&#45;&gt;Node6</title>
<path fill="none" stroke="midnightblue" d="M438.139,-97.5C449.27,-97.5 461.163,-97.5 472.981,-97.5"/>
<polygon fill="midnightblue" stroke="midnightblue" points="473.325,-101 483.325,-97.5 473.324,-94.0001 473.325,-101"/>
</g>
<!-- Node7 -->
<g id="node7" class="node"><title>Node7</title>
<g id="a_node7"><a xlink:href="../../dd/deb/class_t_m_c2130_stepper.html#a0673af4887ec52b23aa658aa290f6623" target="_top" xlink:title=" ">
<polygon fill="white" stroke="black" points="681,-28 681,-47 811,-47 811,-28 681,-28"/>
<text text-anchor="middle" x="746" y="-35" font-family="Helvetica,sans-Serif" font-size="10.00">TMC2130Stepper::transfer</text>
</a>
</g>
</g>
<!-- Node3&#45;&gt;Node7 -->
<g id="edge6" class="edge"><title>Node3&#45;&gt;Node7</title>
<path fill="none" stroke="midnightblue" d="M425.378,-87.9498C440.744,-84.7717 458.099,-81.3252 474,-78.5 540.378,-66.7062 616.291,-55.4085 670.852,-47.6702"/>
<polygon fill="midnightblue" stroke="midnightblue" points="671.372,-51.1316 680.784,-46.2674 670.393,-44.2004 671.372,-51.1316"/>
</g>
<!-- Node9 -->
<g id="node9" class="node"><title>Node9</title>
<g id="a_node9"><a xlink:href="../../dd/deb/class_t_m_c2130_stepper.html#aba94fc7bb8e2c8c12191f44561f19d95" target="_top" xlink:title=" ">
<polygon fill="white" stroke="black" points="494.5,-0.5 494.5,-30.5 624.5,-30.5 624.5,-0.5 494.5,-0.5"/>
<text text-anchor="start" x="502.5" y="-18.5" font-family="Helvetica,sans-Serif" font-size="10.00">TMC2130Stepper::transfer</text>
<text text-anchor="middle" x="559.5" y="-7.5" font-family="Helvetica,sans-Serif" font-size="10.00">EmptyBytes</text>
</a>
</g>
</g>
<!-- Node3&#45;&gt;Node9 -->
<g id="edge8" class="edge"><title>Node3&#45;&gt;Node9</title>
<path fill="none" stroke="midnightblue" d="M396.378,-87.8381C414.488,-76.7136 445.694,-58.3277 474,-45.5 482.84,-41.494 492.386,-37.66 501.769,-34.1517"/>
<polygon fill="midnightblue" stroke="midnightblue" points="503.257,-37.3346 511.453,-30.6201 500.859,-30.7583 503.257,-37.3346"/>
</g>
<!-- Node8 -->
<g id="node8" class="node"><title>Node8</title>
<g id="a_node8"><a xlink:href="../../df/d8b/class_s_w___s_p_i_class.html#af260fdc0af3f1312b106483161e559c3" target="_top" xlink:title=" ">
<polygon fill="white" stroke="black" points="847,-28 847,-47 964,-47 964,-28 847,-28"/>
<text text-anchor="middle" x="905.5" y="-35" font-family="Helvetica,sans-Serif" font-size="10.00">SW_SPIClass::transfer</text>
</a>
</g>
</g>
<!-- Node7&#45;&gt;Node8 -->
<g id="edge7" class="edge"><title>Node7&#45;&gt;Node8</title>
<path fill="none" stroke="midnightblue" d="M811.061,-37.5C819.477,-37.5 828.125,-37.5 836.603,-37.5"/>
<polygon fill="midnightblue" stroke="midnightblue" points="836.831,-41.0001 846.831,-37.5 836.831,-34.0001 836.831,-41.0001"/>
</g>
<!-- Node9&#45;&gt;Node7 -->
<g id="edge9" class="edge"><title>Node9&#45;&gt;Node7</title>
<path fill="none" stroke="midnightblue" d="M624.511,-23.1328C639.452,-24.9144 655.487,-26.8263 670.827,-28.6556"/>
<polygon fill="midnightblue" stroke="midnightblue" points="670.445,-32.1347 680.79,-29.8435 671.274,-25.184 670.445,-32.1347"/>
</g>
</g>
</svg>
