<?xml version="1.0" encoding="UTF-8" standalone="no"?>
<!DOCTYPE svg PUBLIC "-//W3C//DTD SVG 1.1//EN"
 "http://www.w3.org/Graphics/SVG/1.1/DTD/svg11.dtd">
<!-- Generated by graphviz version 2.38.0 (20140413.2041)
 -->
<!-- Title: TMC5130Stepper::X_COMPARE Pages: 1 -->
<svg width="846pt" height="192pt"
 viewBox="0.00 0.00 846.00 191.50" xmlns="http://www.w3.org/2000/svg" xmlns:xlink="http://www.w3.org/1999/xlink">
<g id="graph0" class="graph" transform="scale(1 1) rotate(0) translate(4 187.5)">
<title>TMC5130Stepper::X_COMPARE</title>
<polygon fill="white" stroke="none" points="-4,4 -4,-187.5 842,-187.5 842,4 -4,4"/>
<!-- Node1 -->
<g id="node1" class="node"><title>Node1</title>
<g id="a_node1"><a xlink:title=" ">
<polygon fill="#bfbfbf" stroke="black" points="0,-88 0,-107 158,-107 158,-88 0,-88"/>
<text text-anchor="middle" x="79" y="-95" font-family="Helvetica,sans-Serif" font-size="10.00">TMC5130Stepper::X_COMPARE</text>
</a>
</g>
</g>
<!-- Node2 -->
<g id="node2" class="node"><title>Node2</title>
<g id="a_node2"><a xlink:href="../../dd/deb/class_t_m_c2130_stepper.html#a6b02e33ab452a7869426ede7ba370445" target="_top" xlink:title=" ">
<polygon fill="white" stroke="black" points="194,-88 194,-107 312,-107 312,-88 194,-88"/>
<text text-anchor="middle" x="253" y="-95" font-family="Helvetica,sans-Serif" font-size="10.00">TMC2130Stepper::write</text>
</a>
</g>
</g>
<!-- Node1&#45;&gt;Node2 -->
<g id="edge1" class="edge"><title>Node1&#45;&gt;Node2</title>
<path fill="none" stroke="midnightblue" d="M158.199,-97.5C166.716,-97.5 175.336,-97.5 183.722,-97.5"/>
<polygon fill="midnightblue" stroke="midnightblue" points="183.81,-101 193.81,-97.5 183.81,-94.0001 183.81,-101"/>
</g>
<!-- Node3 -->
<g id="node3" class="node"><title>Node3</title>
<g id="a_node3"><a xlink:href="../../dd/deb/class_t_m_c2130_stepper.html#a1fc868601a32fb0cd8fc536dafa8ecea" target="_top" xlink:title=" ">
<polygon fill="white" stroke="black" points="348,-164 348,-183 519,-183 519,-164 348,-164"/>
<text text-anchor="middle" x="433.5" y="-171" font-family="Helvetica,sans-Serif" font-size="10.00">TMC2130Stepper::beginTransaction</text>
</a>
</g>
</g>
<!-- Node2&#45;&gt;Node3 -->
<g id="edge2" class="edge"><title>Node2&#45;&gt;Node3</title>
<path fill="none" stroke="midnightblue" d="M266.674,-107.041C284.099,-119.71 316.845,-141.943 348,-154.5 354.372,-157.068 361.16,-159.325 368.015,-161.299"/>
<polygon fill="midnightblue" stroke="midnightblue" points="367.497,-164.784 378.062,-163.994 369.31,-158.023 367.497,-164.784"/>
</g>
<!-- Node4 -->
<g id="node4" class="node"><title>Node4</title>
<g id="a_node4"><a xlink:href="../../dd/deb/class_t_m_c2130_stepper.html#aeace18dcee808585dd4449e783811600" target="_top" xlink:title=" ">
<polygon fill="white" stroke="black" points="351.5,-126 351.5,-145 515.5,-145 515.5,-126 351.5,-126"/>
<text text-anchor="middle" x="433.5" y="-133" font-family="Helvetica,sans-Serif" font-size="10.00">TMC2130Stepper::endTransaction</text>
</a>
</g>
</g>
<!-- Node2&#45;&gt;Node4 -->
<g id="edge3" class="edge"><title>Node2&#45;&gt;Node4</title>
<path fill="none" stroke="midnightblue" d="M299.043,-107.089C323.023,-112.194 352.698,-118.511 377.972,-123.892"/>
<polygon fill="midnightblue" stroke="midnightblue" points="377.271,-127.321 387.781,-125.98 378.729,-120.474 377.271,-127.321"/>
</g>
<!-- Node5 -->
<g id="node5" class="node"><title>Node5</title>
<g id="a_node5"><a xlink:href="../../dd/deb/class_t_m_c2130_stepper.html#a4a8f3b6ac100045ed5f84fe4d18d9d5a" target="_top" xlink:title=" ">
<polygon fill="white" stroke="black" points="357.5,-88 357.5,-107 509.5,-107 509.5,-88 357.5,-88"/>
<text text-anchor="middle" x="433.5" y="-95" font-family="Helvetica,sans-Serif" font-size="10.00">TMC2130Stepper::switchCSpin</text>
</a>
</g>
</g>
<!-- Node2&#45;&gt;Node5 -->
<g id="edge4" class="edge"><title>Node2&#45;&gt;Node5</title>
<path fill="none" stroke="midnightblue" d="M312.448,-97.5C323.536,-97.5 335.347,-97.5 347.07,-97.5"/>
<polygon fill="midnightblue" stroke="midnightblue" points="347.329,-101 357.329,-97.5 347.329,-94.0001 347.329,-101"/>
</g>
<!-- Node6 -->
<g id="node6" class="node"><title>Node6</title>
<g id="a_node6"><a xlink:href="../../dd/deb/class_t_m_c2130_stepper.html#a0673af4887ec52b23aa658aa290f6623" target="_top" xlink:title=" ">
<polygon fill="white" stroke="black" points="555,-28 555,-47 685,-47 685,-28 555,-28"/>
<text text-anchor="middle" x="620" y="-35" font-family="Helvetica,sans-Serif" font-size="10.00">TMC2130Stepper::transfer</text>
</a>
</g>
</g>
<!-- Node2&#45;&gt;Node6 -->
<g id="edge5" class="edge"><title>Node2&#45;&gt;Node6</title>
<path fill="none" stroke="midnightblue" d="M298.859,-87.964C314.391,-84.787 331.932,-81.3376 348,-78.5 414.39,-66.7755 490.302,-55.4704 544.859,-47.7117"/>
<polygon fill="midnightblue" stroke="midnightblue" points="545.381,-51.1729 554.791,-46.3049 544.399,-44.2421 545.381,-51.1729"/>
</g>
<!-- Node8 -->
<g id="node8" class="node"><title>Node8</title>
<g id="a_node8"><a xlink:href="../../dd/deb/class_t_m_c2130_stepper.html#aba94fc7bb8e2c8c12191f44561f19d95" target="_top" xlink:title=" ">
<polygon fill="white" stroke="black" points="368.5,-0.5 368.5,-30.5 498.5,-30.5 498.5,-0.5 368.5,-0.5"/>
<text text-anchor="start" x="376.5" y="-18.5" font-family="Helvetica,sans-Serif" font-size="10.00">TMC2130Stepper::transfer</text>
<text text-anchor="middle" x="433.5" y="-7.5" font-family="Helvetica,sans-Serif" font-size="10.00">EmptyBytes</text>
</a>
</g>
</g>
<!-- Node2&#45;&gt;Node8 -->
<g id="edge7" class="edge"><title>Node2&#45;&gt;Node8</title>
<path fill="none" stroke="midnightblue" d="M269.559,-87.8524C287.877,-76.7413 319.432,-58.368 348,-45.5 357.049,-41.4242 366.831,-37.5179 376.42,-33.9495"/>
<polygon fill="midnightblue" stroke="midnightblue" points="377.707,-37.2056 385.91,-30.5 375.316,-30.6267 377.707,-37.2056"/>
</g>
<!-- Node7 -->
<g id="node7" class="node"><title>Node7</title>
<g id="a_node7"><a xlink:href="../../df/d8b/class_s_w___s_p_i_class.html#af260fdc0af3f1312b106483161e559c3" target="_top" xlink:title=" ">
<polygon fill="white" stroke="black" points="721,-28 721,-47 838,-47 838,-28 721,-28"/>
<text text-anchor="middle" x="779.5" y="-35" font-family="Helvetica,sans-Serif" font-size="10.00">SW_SPIClass::transfer</text>
</a>
</g>
</g>
<!-- Node6&#45;&gt;Node7 -->
<g id="edge6" class="edge"><title>Node6&#45;&gt;Node7</title>
<path fill="none" stroke="midnightblue" d="M685.061,-37.5C693.477,-37.5 702.125,-37.5 710.603,-37.5"/>
<polygon fill="midnightblue" stroke="midnightblue" points="710.831,-41.0001 720.831,-37.5 710.831,-34.0001 710.831,-41.0001"/>
</g>
<!-- Node8&#45;&gt;Node6 -->
<g id="edge8" class="edge"><title>Node8&#45;&gt;Node6</title>
<path fill="none" stroke="midnightblue" d="M498.511,-23.1328C513.452,-24.9144 529.487,-26.8263 544.827,-28.6556"/>
<polygon fill="midnightblue" stroke="midnightblue" points="544.445,-32.1347 554.79,-29.8435 545.274,-25.184 544.445,-32.1347"/>
</g>
</g>
</svg>
