<?xml version="1.0" encoding="UTF-8" standalone="no"?>
<!DOCTYPE svg PUBLIC "-//W3C//DTD SVG 1.1//EN"
 "http://www.w3.org/Graphics/SVG/1.1/DTD/svg11.dtd">
<!-- Generated by graphviz version 2.38.0 (20140413.2041)
 -->
<!-- Title: TMC5130Stepper::VACTUAL Pages: 1 -->
<svg width="828pt" height="192pt"
 viewBox="0.00 0.00 828.00 191.50" xmlns="http://www.w3.org/2000/svg" xmlns:xlink="http://www.w3.org/1999/xlink">
<g id="graph0" class="graph" transform="scale(1 1) rotate(0) translate(4 187.5)">
<title>TMC5130Stepper::VACTUAL</title>
<polygon fill="white" stroke="none" points="-4,4 -4,-187.5 824,-187.5 824,4 -4,4"/>
<!-- Node1 -->
<g id="node1" class="node"><title>Node1</title>
<g id="a_node1"><a xlink:title=" ">
<polygon fill="#bfbfbf" stroke="black" points="0,-88 0,-107 142,-107 142,-88 0,-88"/>
<text text-anchor="middle" x="71" y="-95" font-family="Helvetica,sans-Serif" font-size="10.00">TMC5130Stepper::VACTUAL</text>
</a>
</g>
</g>
<!-- Node2 -->
<g id="node2" class="node"><title>Node2</title>
<g id="a_node2"><a xlink:href="../../dd/deb/class_t_m_c2130_stepper.html#a161ca6ebe3736454e17e9236572a6001" target="_top" xlink:title=" ">
<polygon fill="white" stroke="black" points="178,-88 178,-107 294,-107 294,-88 178,-88"/>
<text text-anchor="middle" x="236" y="-95" font-family="Helvetica,sans-Serif" font-size="10.00">TMC2130Stepper::read</text>
</a>
</g>
</g>
<!-- Node1&#45;&gt;Node2 -->
<g id="edge1" class="edge"><title>Node1&#45;&gt;Node2</title>
<path fill="none" stroke="midnightblue" d="M142.073,-97.5C150.599,-97.5 159.297,-97.5 167.781,-97.5"/>
<polygon fill="midnightblue" stroke="midnightblue" points="167.998,-101 177.998,-97.5 167.998,-94.0001 167.998,-101"/>
</g>
<!-- Node3 -->
<g id="node3" class="node"><title>Node3</title>
<g id="a_node3"><a xlink:href="../../dd/deb/class_t_m_c2130_stepper.html#a1fc868601a32fb0cd8fc536dafa8ecea" target="_top" xlink:title=" ">
<polygon fill="white" stroke="black" points="330,-164 330,-183 501,-183 501,-164 330,-164"/>
<text text-anchor="middle" x="415.5" y="-171" font-family="Helvetica,sans-Serif" font-size="10.00">TMC2130Stepper::beginTransaction</text>
</a>
</g>
</g>
<!-- Node2&#45;&gt;Node3 -->
<g id="edge2" class="edge"><title>Node2&#45;&gt;Node3</title>
<path fill="none" stroke="midnightblue" d="M249.522,-107.048C266.741,-119.725 299.117,-141.967 330,-154.5 336.272,-157.045 342.951,-159.283 349.7,-161.242"/>
<polygon fill="midnightblue" stroke="midnightblue" points="349.032,-164.687 359.599,-163.918 350.858,-157.93 349.032,-164.687"/>
</g>
<!-- Node4 -->
<g id="node4" class="node"><title>Node4</title>
<g id="a_node4"><a xlink:href="../../dd/deb/class_t_m_c2130_stepper.html#aeace18dcee808585dd4449e783811600" target="_top" xlink:title=" ">
<polygon fill="white" stroke="black" points="333.5,-126 333.5,-145 497.5,-145 497.5,-126 333.5,-126"/>
<text text-anchor="middle" x="415.5" y="-133" font-family="Helvetica,sans-Serif" font-size="10.00">TMC2130Stepper::endTransaction</text>
</a>
</g>
</g>
<!-- Node2&#45;&gt;Node4 -->
<g id="edge3" class="edge"><title>Node2&#45;&gt;Node4</title>
<path fill="none" stroke="midnightblue" d="M281.791,-107.089C305.53,-112.171 334.884,-118.455 359.944,-123.82"/>
<polygon fill="midnightblue" stroke="midnightblue" points="359.52,-127.309 370.031,-125.98 360.986,-120.464 359.52,-127.309"/>
</g>
<!-- Node5 -->
<g id="node5" class="node"><title>Node5</title>
<g id="a_node5"><a xlink:href="../../dd/deb/class_t_m_c2130_stepper.html#a4a8f3b6ac100045ed5f84fe4d18d9d5a" target="_top" xlink:title=" ">
<polygon fill="white" stroke="black" points="339.5,-88 339.5,-107 491.5,-107 491.5,-88 339.5,-88"/>
<text text-anchor="middle" x="415.5" y="-95" font-family="Helvetica,sans-Serif" font-size="10.00">TMC2130Stepper::switchCSpin</text>
</a>
</g>
</g>
<!-- Node2&#45;&gt;Node5 -->
<g id="edge4" class="edge"><title>Node2&#45;&gt;Node5</title>
<path fill="none" stroke="midnightblue" d="M294.139,-97.5C305.27,-97.5 317.163,-97.5 328.981,-97.5"/>
<polygon fill="midnightblue" stroke="midnightblue" points="329.325,-101 339.325,-97.5 329.324,-94.0001 329.325,-101"/>
</g>
<!-- Node6 -->
<g id="node6" class="node"><title>Node6</title>
<g id="a_node6"><a xlink:href="../../dd/deb/class_t_m_c2130_stepper.html#a0673af4887ec52b23aa658aa290f6623" target="_top" xlink:title=" ">
<polygon fill="white" stroke="black" points="537,-28 537,-47 667,-47 667,-28 537,-28"/>
<text text-anchor="middle" x="602" y="-35" font-family="Helvetica,sans-Serif" font-size="10.00">TMC2130Stepper::transfer</text>
</a>
</g>
</g>
<!-- Node2&#45;&gt;Node6 -->
<g id="edge5" class="edge"><title>Node2&#45;&gt;Node6</title>
<path fill="none" stroke="midnightblue" d="M281.378,-87.9498C296.744,-84.7717 314.099,-81.3252 330,-78.5 396.378,-66.7062 472.291,-55.4085 526.852,-47.6702"/>
<polygon fill="midnightblue" stroke="midnightblue" points="527.372,-51.1316 536.784,-46.2674 526.393,-44.2004 527.372,-51.1316"/>
</g>
<!-- Node8 -->
<g id="node8" class="node"><title>Node8</title>
<g id="a_node8"><a xlink:href="../../dd/deb/class_t_m_c2130_stepper.html#aba94fc7bb8e2c8c12191f44561f19d95" target="_top" xlink:title=" ">
<polygon fill="white" stroke="black" points="350.5,-0.5 350.5,-30.5 480.5,-30.5 480.5,-0.5 350.5,-0.5"/>
<text text-anchor="start" x="358.5" y="-18.5" font-family="Helvetica,sans-Serif" font-size="10.00">TMC2130Stepper::transfer</text>
<text text-anchor="middle" x="415.5" y="-7.5" font-family="Helvetica,sans-Serif" font-size="10.00">EmptyBytes</text>
</a>
</g>
</g>
<!-- Node2&#45;&gt;Node8 -->
<g id="edge7" class="edge"><title>Node2&#45;&gt;Node8</title>
<path fill="none" stroke="midnightblue" d="M252.378,-87.8381C270.488,-76.7136 301.694,-58.3277 330,-45.5 338.84,-41.494 348.386,-37.66 357.769,-34.1517"/>
<polygon fill="midnightblue" stroke="midnightblue" points="359.257,-37.3346 367.453,-30.6201 356.859,-30.7583 359.257,-37.3346"/>
</g>
<!-- Node7 -->
<g id="node7" class="node"><title>Node7</title>
<g id="a_node7"><a xlink:href="../../df/d8b/class_s_w___s_p_i_class.html#af260fdc0af3f1312b106483161e559c3" target="_top" xlink:title=" ">
<polygon fill="white" stroke="black" points="703,-28 703,-47 820,-47 820,-28 703,-28"/>
<text text-anchor="middle" x="761.5" y="-35" font-family="Helvetica,sans-Serif" font-size="10.00">SW_SPIClass::transfer</text>
</a>
</g>
</g>
<!-- Node6&#45;&gt;Node7 -->
<g id="edge6" class="edge"><title>Node6&#45;&gt;Node7</title>
<path fill="none" stroke="midnightblue" d="M667.061,-37.5C675.477,-37.5 684.125,-37.5 692.603,-37.5"/>
<polygon fill="midnightblue" stroke="midnightblue" points="692.831,-41.0001 702.831,-37.5 692.831,-34.0001 692.831,-41.0001"/>
</g>
<!-- Node8&#45;&gt;Node6 -->
<g id="edge8" class="edge"><title>Node8&#45;&gt;Node6</title>
<path fill="none" stroke="midnightblue" d="M480.511,-23.1328C495.452,-24.9144 511.487,-26.8263 526.827,-28.6556"/>
<polygon fill="midnightblue" stroke="midnightblue" points="526.445,-32.1347 536.79,-29.8435 527.274,-25.184 526.445,-32.1347"/>
</g>
</g>
</svg>
