<?xml version="1.0" encoding="UTF-8" standalone="no"?>
<!DOCTYPE svg PUBLIC "-//W3C//DTD SVG 1.1//EN"
 "http://www.w3.org/Graphics/SVG/1.1/DTD/svg11.dtd">
<!-- Generated by graphviz version 2.38.0 (20140413.2041)
 -->
<!-- Title: TMC5130Stepper::XACTUAL Pages: 1 -->
<svg width="828pt" height="192pt"
 viewBox="0.00 0.00 828.00 191.50" xmlns="http://www.w3.org/2000/svg" xmlns:xlink="http://www.w3.org/1999/xlink">
<g id="graph0" class="graph" transform="scale(1 1) rotate(0) translate(4 187.5)">
<title>TMC5130Stepper::XACTUAL</title>
<polygon fill="white" stroke="none" points="-4,4 -4,-187.5 824,-187.5 824,4 -4,4"/>
<!-- Node1 -->
<g id="node1" class="node"><title>Node1</title>
<g id="a_node1"><a xlink:title=" ">
<polygon fill="#bfbfbf" stroke="black" points="0,-88 0,-107 140,-107 140,-88 0,-88"/>
<text text-anchor="middle" x="70" y="-95" font-family="Helvetica,sans-Serif" font-size="10.00">TMC5130Stepper::XACTUAL</text>
</a>
</g>
</g>
<!-- Node2 -->
<g id="node2" class="node"><title>Node2</title>
<g id="a_node2"><a xlink:href="../../dd/deb/class_t_m_c2130_stepper.html#a6b02e33ab452a7869426ede7ba370445" target="_top" xlink:title=" ">
<polygon fill="white" stroke="black" points="176,-88 176,-107 294,-107 294,-88 176,-88"/>
<text text-anchor="middle" x="235" y="-95" font-family="Helvetica,sans-Serif" font-size="10.00">TMC2130Stepper::write</text>
</a>
</g>
</g>
<!-- Node1&#45;&gt;Node2 -->
<g id="edge1" class="edge"><title>Node1&#45;&gt;Node2</title>
<path fill="none" stroke="midnightblue" d="M140.127,-97.5C148.578,-97.5 157.211,-97.5 165.65,-97.5"/>
<polygon fill="midnightblue" stroke="midnightblue" points="165.824,-101 175.824,-97.5 165.824,-94.0001 165.824,-101"/>
</g>
<!-- Node3 -->
<g id="node3" class="node"><title>Node3</title>
<g id="a_node3"><a xlink:href="../../dd/deb/class_t_m_c2130_stepper.html#a1fc868601a32fb0cd8fc536dafa8ecea" target="_top" xlink:title=" ">
<polygon fill="white" stroke="black" points="330,-164 330,-183 501,-183 501,-164 330,-164"/>
<text text-anchor="middle" x="415.5" y="-171" font-family="Helvetica,sans-Serif" font-size="10.00">TMC2130Stepper::beginTransaction</text>
</a>
</g>
</g>
<!-- Node2&#45;&gt;Node3 -->
<g id="edge2" class="edge"><title>Node2&#45;&gt;Node3</title>
<path fill="none" stroke="midnightblue" d="M248.674,-107.041C266.099,-119.71 298.845,-141.943 330,-154.5 336.372,-157.068 343.16,-159.325 350.015,-161.299"/>
<polygon fill="midnightblue" stroke="midnightblue" points="349.497,-164.784 360.062,-163.994 351.31,-158.023 349.497,-164.784"/>
</g>
<!-- Node4 -->
<g id="node4" class="node"><title>Node4</title>
<g id="a_node4"><a xlink:href="../../dd/deb/class_t_m_c2130_stepper.html#aeace18dcee808585dd4449e783811600" target="_top" xlink:title=" ">
<polygon fill="white" stroke="black" points="333.5,-126 333.5,-145 497.5,-145 497.5,-126 333.5,-126"/>
<text text-anchor="middle" x="415.5" y="-133" font-family="Helvetica,sans-Serif" font-size="10.00">TMC2130Stepper::endTransaction</text>
</a>
</g>
</g>
<!-- Node2&#45;&gt;Node4 -->
<g id="edge3" class="edge"><title>Node2&#45;&gt;Node4</title>
<path fill="none" stroke="midnightblue" d="M281.043,-107.089C305.023,-112.194 334.698,-118.511 359.972,-123.892"/>
<polygon fill="midnightblue" stroke="midnightblue" points="359.271,-127.321 369.781,-125.98 360.729,-120.474 359.271,-127.321"/>
</g>
<!-- Node5 -->
<g id="node5" class="node"><title>Node5</title>
<g id="a_node5"><a xlink:href="../../dd/deb/class_t_m_c2130_stepper.html#a4a8f3b6ac100045ed5f84fe4d18d9d5a" target="_top" xlink:title=" ">
<polygon fill="white" stroke="black" points="339.5,-88 339.5,-107 491.5,-107 491.5,-88 339.5,-88"/>
<text text-anchor="middle" x="415.5" y="-95" font-family="Helvetica,sans-Serif" font-size="10.00">TMC2130Stepper::switchCSpin</text>
</a>
</g>
</g>
<!-- Node2&#45;&gt;Node5 -->
<g id="edge4" class="edge"><title>Node2&#45;&gt;Node5</title>
<path fill="none" stroke="midnightblue" d="M294.448,-97.5C305.536,-97.5 317.347,-97.5 329.07,-97.5"/>
<polygon fill="midnightblue" stroke="midnightblue" points="329.329,-101 339.329,-97.5 329.329,-94.0001 329.329,-101"/>
</g>
<!-- Node6 -->
<g id="node6" class="node"><title>Node6</title>
<g id="a_node6"><a xlink:href="../../dd/deb/class_t_m_c2130_stepper.html#a0673af4887ec52b23aa658aa290f6623" target="_top" xlink:title=" ">
<polygon fill="white" stroke="black" points="537,-28 537,-47 667,-47 667,-28 537,-28"/>
<text text-anchor="middle" x="602" y="-35" font-family="Helvetica,sans-Serif" font-size="10.00">TMC2130Stepper::transfer</text>
</a>
</g>
</g>
<!-- Node2&#45;&gt;Node6 -->
<g id="edge5" class="edge"><title>Node2&#45;&gt;Node6</title>
<path fill="none" stroke="midnightblue" d="M280.859,-87.964C296.391,-84.787 313.932,-81.3376 330,-78.5 396.39,-66.7755 472.302,-55.4704 526.859,-47.7117"/>
<polygon fill="midnightblue" stroke="midnightblue" points="527.381,-51.1729 536.791,-46.3049 526.399,-44.2421 527.381,-51.1729"/>
</g>
<!-- Node8 -->
<g id="node8" class="node"><title>Node8</title>
<g id="a_node8"><a xlink:href="../../dd/deb/class_t_m_c2130_stepper.html#aba94fc7bb8e2c8c12191f44561f19d95" target="_top" xlink:title=" ">
<polygon fill="white" stroke="black" points="350.5,-0.5 350.5,-30.5 480.5,-30.5 480.5,-0.5 350.5,-0.5"/>
<text text-anchor="start" x="358.5" y="-18.5" font-family="Helvetica,sans-Serif" font-size="10.00">TMC2130Stepper::transfer</text>
<text text-anchor="middle" x="415.5" y="-7.5" font-family="Helvetica,sans-Serif" font-size="10.00">EmptyBytes</text>
</a>
</g>
</g>
<!-- Node2&#45;&gt;Node8 -->
<g id="edge7" class="edge"><title>Node2&#45;&gt;Node8</title>
<path fill="none" stroke="midnightblue" d="M251.559,-87.8524C269.877,-76.7413 301.432,-58.368 330,-45.5 339.049,-41.4242 348.831,-37.5179 358.42,-33.9495"/>
<polygon fill="midnightblue" stroke="midnightblue" points="359.707,-37.2056 367.91,-30.5 357.316,-30.6267 359.707,-37.2056"/>
</g>
<!-- Node7 -->
<g id="node7" class="node"><title>Node7</title>
<g id="a_node7"><a xlink:href="../../df/d8b/class_s_w___s_p_i_class.html#af260fdc0af3f1312b106483161e559c3" target="_top" xlink:title=" ">
<polygon fill="white" stroke="black" points="703,-28 703,-47 820,-47 820,-28 703,-28"/>
<text text-anchor="middle" x="761.5" y="-35" font-family="Helvetica,sans-Serif" font-size="10.00">SW_SPIClass::transfer</text>
</a>
</g>
</g>
<!-- Node6&#45;&gt;Node7 -->
<g id="edge6" class="edge"><title>Node6&#45;&gt;Node7</title>
<path fill="none" stroke="midnightblue" d="M667.061,-37.5C675.477,-37.5 684.125,-37.5 692.603,-37.5"/>
<polygon fill="midnightblue" stroke="midnightblue" points="692.831,-41.0001 702.831,-37.5 692.831,-34.0001 692.831,-41.0001"/>
</g>
<!-- Node8&#45;&gt;Node6 -->
<g id="edge8" class="edge"><title>Node8&#45;&gt;Node6</title>
<path fill="none" stroke="midnightblue" d="M480.511,-23.1328C495.452,-24.9144 511.487,-26.8263 526.827,-28.6556"/>
<polygon fill="midnightblue" stroke="midnightblue" points="526.445,-32.1347 536.79,-29.8435 527.274,-25.184 526.445,-32.1347"/>
</g>
</g>
</svg>
