<?xml version="1.0" encoding="UTF-8" standalone="no"?>
<!DOCTYPE svg PUBLIC "-//W3C//DTD SVG 1.1//EN"
 "http://www.w3.org/Graphics/SVG/1.1/DTD/svg11.dtd">
<!-- Generated by graphviz version 2.38.0 (20140413.2041)
 -->
<!-- Title: TMC5130Stepper::SW_MODE Pages: 1 -->
<svg width="835pt" height="192pt"
 viewBox="0.00 0.00 835.00 191.50" xmlns="http://www.w3.org/2000/svg" xmlns:xlink="http://www.w3.org/1999/xlink">
<g id="graph0" class="graph" transform="scale(1 1) rotate(0) translate(4 187.5)">
<title>TMC5130Stepper::SW_MODE</title>
<polygon fill="white" stroke="none" points="-4,4 -4,-187.5 831,-187.5 831,4 -4,4"/>
<!-- Node1 -->
<g id="node1" class="node"><title>Node1</title>
<g id="a_node1"><a xlink:title=" ">
<polygon fill="#bfbfbf" stroke="black" points="0,-88 0,-107 149,-107 149,-88 0,-88"/>
<text text-anchor="middle" x="74.5" y="-95" font-family="Helvetica,sans-Serif" font-size="10.00">TMC5130Stepper::SW_MODE</text>
</a>
</g>
</g>
<!-- Node2 -->
<g id="node2" class="node"><title>Node2</title>
<g id="a_node2"><a xlink:href="../../dd/deb/class_t_m_c2130_stepper.html#a161ca6ebe3736454e17e9236572a6001" target="_top" xlink:title=" ">
<polygon fill="white" stroke="black" points="185,-88 185,-107 301,-107 301,-88 185,-88"/>
<text text-anchor="middle" x="243" y="-95" font-family="Helvetica,sans-Serif" font-size="10.00">TMC2130Stepper::read</text>
</a>
</g>
</g>
<!-- Node1&#45;&gt;Node2 -->
<g id="edge1" class="edge"><title>Node1&#45;&gt;Node2</title>
<path fill="none" stroke="midnightblue" d="M149.014,-97.5C157.561,-97.5 166.246,-97.5 174.704,-97.5"/>
<polygon fill="midnightblue" stroke="midnightblue" points="174.882,-101 184.882,-97.5 174.882,-94.0001 174.882,-101"/>
</g>
<!-- Node3 -->
<g id="node3" class="node"><title>Node3</title>
<g id="a_node3"><a xlink:href="../../dd/deb/class_t_m_c2130_stepper.html#a1fc868601a32fb0cd8fc536dafa8ecea" target="_top" xlink:title=" ">
<polygon fill="white" stroke="black" points="337,-164 337,-183 508,-183 508,-164 337,-164"/>
<text text-anchor="middle" x="422.5" y="-171" font-family="Helvetica,sans-Serif" font-size="10.00">TMC2130Stepper::beginTransaction</text>
</a>
</g>
</g>
<!-- Node2&#45;&gt;Node3 -->
<g id="edge2" class="edge"><title>Node2&#45;&gt;Node3</title>
<path fill="none" stroke="midnightblue" d="M256.522,-107.048C273.741,-119.725 306.117,-141.967 337,-154.5 343.272,-157.045 349.951,-159.283 356.7,-161.242"/>
<polygon fill="midnightblue" stroke="midnightblue" points="356.032,-164.687 366.599,-163.918 357.858,-157.93 356.032,-164.687"/>
</g>
<!-- Node4 -->
<g id="node4" class="node"><title>Node4</title>
<g id="a_node4"><a xlink:href="../../dd/deb/class_t_m_c2130_stepper.html#aeace18dcee808585dd4449e783811600" target="_top" xlink:title=" ">
<polygon fill="white" stroke="black" points="340.5,-126 340.5,-145 504.5,-145 504.5,-126 340.5,-126"/>
<text text-anchor="middle" x="422.5" y="-133" font-family="Helvetica,sans-Serif" font-size="10.00">TMC2130Stepper::endTransaction</text>
</a>
</g>
</g>
<!-- Node2&#45;&gt;Node4 -->
<g id="edge3" class="edge"><title>Node2&#45;&gt;Node4</title>
<path fill="none" stroke="midnightblue" d="M288.791,-107.089C312.53,-112.171 341.884,-118.455 366.944,-123.82"/>
<polygon fill="midnightblue" stroke="midnightblue" points="366.52,-127.309 377.031,-125.98 367.986,-120.464 366.52,-127.309"/>
</g>
<!-- Node5 -->
<g id="node5" class="node"><title>Node5</title>
<g id="a_node5"><a xlink:href="../../dd/deb/class_t_m_c2130_stepper.html#a4a8f3b6ac100045ed5f84fe4d18d9d5a" target="_top" xlink:title=" ">
<polygon fill="white" stroke="black" points="346.5,-88 346.5,-107 498.5,-107 498.5,-88 346.5,-88"/>
<text text-anchor="middle" x="422.5" y="-95" font-family="Helvetica,sans-Serif" font-size="10.00">TMC2130Stepper::switchCSpin</text>
</a>
</g>
</g>
<!-- Node2&#45;&gt;Node5 -->
<g id="edge4" class="edge"><title>Node2&#45;&gt;Node5</title>
<path fill="none" stroke="midnightblue" d="M301.139,-97.5C312.27,-97.5 324.163,-97.5 335.981,-97.5"/>
<polygon fill="midnightblue" stroke="midnightblue" points="336.325,-101 346.325,-97.5 336.324,-94.0001 336.325,-101"/>
</g>
<!-- Node6 -->
<g id="node6" class="node"><title>Node6</title>
<g id="a_node6"><a xlink:href="../../dd/deb/class_t_m_c2130_stepper.html#a0673af4887ec52b23aa658aa290f6623" target="_top" xlink:title=" ">
<polygon fill="white" stroke="black" points="544,-28 544,-47 674,-47 674,-28 544,-28"/>
<text text-anchor="middle" x="609" y="-35" font-family="Helvetica,sans-Serif" font-size="10.00">TMC2130Stepper::transfer</text>
</a>
</g>
</g>
<!-- Node2&#45;&gt;Node6 -->
<g id="edge5" class="edge"><title>Node2&#45;&gt;Node6</title>
<path fill="none" stroke="midnightblue" d="M288.378,-87.9498C303.744,-84.7717 321.099,-81.3252 337,-78.5 403.378,-66.7062 479.291,-55.4085 533.852,-47.6702"/>
<polygon fill="midnightblue" stroke="midnightblue" points="534.372,-51.1316 543.784,-46.2674 533.393,-44.2004 534.372,-51.1316"/>
</g>
<!-- Node8 -->
<g id="node8" class="node"><title>Node8</title>
<g id="a_node8"><a xlink:href="../../dd/deb/class_t_m_c2130_stepper.html#aba94fc7bb8e2c8c12191f44561f19d95" target="_top" xlink:title=" ">
<polygon fill="white" stroke="black" points="357.5,-0.5 357.5,-30.5 487.5,-30.5 487.5,-0.5 357.5,-0.5"/>
<text text-anchor="start" x="365.5" y="-18.5" font-family="Helvetica,sans-Serif" font-size="10.00">TMC2130Stepper::transfer</text>
<text text-anchor="middle" x="422.5" y="-7.5" font-family="Helvetica,sans-Serif" font-size="10.00">EmptyBytes</text>
</a>
</g>
</g>
<!-- Node2&#45;&gt;Node8 -->
<g id="edge7" class="edge"><title>Node2&#45;&gt;Node8</title>
<path fill="none" stroke="midnightblue" d="M259.378,-87.8381C277.488,-76.7136 308.694,-58.3277 337,-45.5 345.84,-41.494 355.386,-37.66 364.769,-34.1517"/>
<polygon fill="midnightblue" stroke="midnightblue" points="366.257,-37.3346 374.453,-30.6201 363.859,-30.7583 366.257,-37.3346"/>
</g>
<!-- Node7 -->
<g id="node7" class="node"><title>Node7</title>
<g id="a_node7"><a xlink:href="../../df/d8b/class_s_w___s_p_i_class.html#af260fdc0af3f1312b106483161e559c3" target="_top" xlink:title=" ">
<polygon fill="white" stroke="black" points="710,-28 710,-47 827,-47 827,-28 710,-28"/>
<text text-anchor="middle" x="768.5" y="-35" font-family="Helvetica,sans-Serif" font-size="10.00">SW_SPIClass::transfer</text>
</a>
</g>
</g>
<!-- Node6&#45;&gt;Node7 -->
<g id="edge6" class="edge"><title>Node6&#45;&gt;Node7</title>
<path fill="none" stroke="midnightblue" d="M674.061,-37.5C682.477,-37.5 691.125,-37.5 699.603,-37.5"/>
<polygon fill="midnightblue" stroke="midnightblue" points="699.831,-41.0001 709.831,-37.5 699.831,-34.0001 699.831,-41.0001"/>
</g>
<!-- Node8&#45;&gt;Node6 -->
<g id="edge8" class="edge"><title>Node8&#45;&gt;Node6</title>
<path fill="none" stroke="midnightblue" d="M487.511,-23.1328C502.452,-24.9144 518.487,-26.8263 533.827,-28.6556"/>
<polygon fill="midnightblue" stroke="midnightblue" points="533.445,-32.1347 543.79,-29.8435 534.274,-25.184 533.445,-32.1347"/>
</g>
</g>
</svg>
