<?xml version="1.0" encoding="UTF-8" standalone="no"?>
<!DOCTYPE svg PUBLIC "-//W3C//DTD SVG 1.1//EN"
 "http://www.w3.org/Graphics/SVG/1.1/DTD/svg11.dtd">
<!-- Generated by graphviz version 2.38.0 (20140413.2041)
 -->
<!-- Title: TMC2209Stepper::dir Pages: 1 -->
<svg width="973pt" height="235pt"
 viewBox="0.00 0.00 973.00 235.47" xmlns="http://www.w3.org/2000/svg" xmlns:xlink="http://www.w3.org/1999/xlink">
<g id="graph0" class="graph" transform="scale(1 1) rotate(0) translate(4 231.47)">
<title>TMC2209Stepper::dir</title>
<polygon fill="white" stroke="none" points="-4,4 -4,-231.47 969,-231.47 969,4 -4,4"/>
<!-- Node1 -->
<g id="node1" class="node"><title>Node1</title>
<g id="a_node1"><a xlink:title=" ">
<polygon fill="#bfbfbf" stroke="black" points="0,-81.9696 0,-100.97 108,-100.97 108,-81.9696 0,-81.9696"/>
<text text-anchor="middle" x="54" y="-88.9696" font-family="Helvetica,sans-Serif" font-size="10.00">TMC2209Stepper::dir</text>
</a>
</g>
</g>
<!-- Node2 -->
<g id="node2" class="node"><title>Node2</title>
<g id="a_node2"><a xlink:href="../../d3/dfe/class_t_m_c2209_stepper.html#aeab582b2f23d4e58f63aec80163b3838" target="_top" xlink:title=" ">
<polygon fill="white" stroke="black" points="144,-81.9696 144,-100.97 260,-100.97 260,-81.9696 144,-81.9696"/>
<text text-anchor="middle" x="202" y="-88.9696" font-family="Helvetica,sans-Serif" font-size="10.00">TMC2209Stepper::IOIN</text>
</a>
</g>
</g>
<!-- Node1&#45;&gt;Node2 -->
<g id="edge1" class="edge"><title>Node1&#45;&gt;Node2</title>
<path fill="none" stroke="midnightblue" d="M108.122,-91.4696C116.444,-91.4696 125.138,-91.4696 133.727,-91.4696"/>
<polygon fill="midnightblue" stroke="midnightblue" points="133.731,-94.9697 143.731,-91.4696 133.731,-87.9697 133.731,-94.9697"/>
</g>
<!-- Node3 -->
<g id="node3" class="node"><title>Node3</title>
<g id="a_node3"><a xlink:href="../../d6/d7e/class_t_m_c2208_stepper.html#a2fae2050849c3ab7968012def8ea1cc5" target="_top" xlink:title=" ">
<polygon fill="white" stroke="black" points="296,-81.9696 296,-100.97 412,-100.97 412,-81.9696 296,-81.9696"/>
<text text-anchor="middle" x="354" y="-88.9696" font-family="Helvetica,sans-Serif" font-size="10.00">TMC2208Stepper::read</text>
</a>
</g>
</g>
<!-- Node2&#45;&gt;Node3 -->
<g id="edge2" class="edge"><title>Node2&#45;&gt;Node3</title>
<path fill="none" stroke="midnightblue" d="M260.136,-91.4696C268.377,-91.4696 276.923,-91.4696 285.344,-91.4696"/>
<polygon fill="midnightblue" stroke="midnightblue" points="285.526,-94.9697 295.525,-91.4696 285.525,-87.9697 285.526,-94.9697"/>
</g>
<!-- Node4 -->
<g id="node4" class="node"><title>Node4</title>
<g id="a_node4"><a xlink:href="../../d6/d7e/class_t_m_c2208_stepper.html#a321ad81155b7a20c0858920d32d0b074" target="_top" xlink:title=" ">
<polygon fill="white" stroke="black" points="457,-157.97 457,-176.97 623,-176.97 623,-157.97 457,-157.97"/>
<text text-anchor="middle" x="540" y="-164.97" font-family="Helvetica,sans-Serif" font-size="10.00">TMC2208Stepper::_sendDatagram</text>
</a>
</g>
</g>
<!-- Node3&#45;&gt;Node4 -->
<g id="edge3" class="edge"><title>Node3&#45;&gt;Node4</title>
<path fill="none" stroke="midnightblue" d="M367.494,-101.088C384.681,-113.843 417.022,-136.174 448,-148.47 454.6,-151.089 461.62,-153.37 468.72,-155.35"/>
<polygon fill="midnightblue" stroke="midnightblue" points="467.861,-158.743 478.42,-157.869 469.62,-151.968 467.861,-158.743"/>
</g>
<!-- Node10 -->
<g id="node10" class="node"><title>Node10</title>
<g id="a_node10"><a xlink:href="../../d6/d7e/class_t_m_c2208_stepper.html#a409c19fa6b052a370a317d061bf9af4e" target="_top" xlink:title=" ">
<polygon fill="white" stroke="black" points="472,-119.97 472,-138.97 608,-138.97 608,-119.97 472,-119.97"/>
<text text-anchor="middle" x="540" y="-126.97" font-family="Helvetica,sans-Serif" font-size="10.00">TMC2208Stepper::calcCRC</text>
</a>
</g>
</g>
<!-- Node3&#45;&gt;Node10 -->
<g id="edge10" class="edge"><title>Node3&#45;&gt;Node10</title>
<path fill="none" stroke="midnightblue" d="M401.431,-101.059C426.149,-106.163 456.739,-112.481 482.792,-117.861"/>
<polygon fill="midnightblue" stroke="midnightblue" points="482.402,-121.355 492.903,-119.95 483.817,-114.499 482.402,-121.355"/>
</g>
<!-- Node11 -->
<g id="node11" class="node"><title>Node11</title>
<g id="a_node11"><a xlink:href="../../d6/d7e/class_t_m_c2208_stepper.html#a673ade174158b47e3b345b1d7b3c473d" target="_top" xlink:title=" ">
<polygon fill="white" stroke="black" points="448,-81.9696 448,-100.97 632,-100.97 632,-81.9696 448,-81.9696"/>
<text text-anchor="middle" x="540" y="-88.9696" font-family="Helvetica,sans-Serif" font-size="10.00">TMC2208Stepper::postCommunication</text>
</a>
</g>
</g>
<!-- Node3&#45;&gt;Node11 -->
<g id="edge11" class="edge"><title>Node3&#45;&gt;Node11</title>
<path fill="none" stroke="midnightblue" d="M412.21,-91.4696C420.323,-91.4696 428.86,-91.4696 437.51,-91.4696"/>
<polygon fill="midnightblue" stroke="midnightblue" points="437.697,-94.9697 447.697,-91.4696 437.697,-87.9697 437.697,-94.9697"/>
</g>
<!-- Node12 -->
<g id="node12" class="node"><title>Node12</title>
<g id="a_node12"><a xlink:href="../../d6/d7e/class_t_m_c2208_stepper.html#a0ba01db6c4c01da7cb0ace8a524ab1da" target="_top" xlink:title=" ">
<polygon fill="white" stroke="black" points="450.5,-43.9696 450.5,-62.9696 629.5,-62.9696 629.5,-43.9696 450.5,-43.9696"/>
<text text-anchor="middle" x="540" y="-50.9696" font-family="Helvetica,sans-Serif" font-size="10.00">TMC2208Stepper::preCommunication</text>
</a>
</g>
</g>
<!-- Node3&#45;&gt;Node12 -->
<g id="edge12" class="edge"><title>Node3&#45;&gt;Node12</title>
<path fill="none" stroke="midnightblue" d="M401.431,-81.8806C426.149,-76.7758 456.739,-70.4583 482.792,-65.0778"/>
<polygon fill="midnightblue" stroke="midnightblue" points="483.817,-68.44 492.903,-62.9897 482.402,-61.5846 483.817,-68.44"/>
</g>
<!-- Node5 -->
<g id="node5" class="node"><title>Node5</title>
<g id="a_node5"><a xlink:href="../../d6/d7e/class_t_m_c2208_stepper.html#a7a670b15f45466f8d167a9b80fbf384f" target="_top" xlink:title=" ">
<polygon fill="white" stroke="black" points="673.5,-207.97 673.5,-226.97 807.5,-226.97 807.5,-207.97 673.5,-207.97"/>
<text text-anchor="middle" x="740.5" y="-214.97" font-family="Helvetica,sans-Serif" font-size="10.00">TMC2208Stepper::available</text>
</a>
</g>
</g>
<!-- Node4&#45;&gt;Node5 -->
<g id="edge4" class="edge"><title>Node4&#45;&gt;Node5</title>
<path fill="none" stroke="midnightblue" d="M578.804,-176.992C610.849,-185.064 656.983,-196.684 691.607,-205.406"/>
<polygon fill="midnightblue" stroke="midnightblue" points="690.948,-208.849 701.5,-207.898 692.657,-202.061 690.948,-208.849"/>
</g>
<!-- Node6 -->
<g id="node6" class="node"><title>Node6</title>
<g id="a_node6"><a xlink:href="../../d6/d7e/class_t_m_c2208_stepper.html#a4ec5d2b2f5a31259c7aba1f3208d63b8" target="_top" xlink:title=" ">
<polygon fill="white" stroke="black" points="682.5,-169.97 682.5,-188.97 798.5,-188.97 798.5,-169.97 682.5,-169.97"/>
<text text-anchor="middle" x="740.5" y="-176.97" font-family="Helvetica,sans-Serif" font-size="10.00">TMC2208Stepper::ms2</text>
</a>
</g>
</g>
<!-- Node4&#45;&gt;Node6 -->
<g id="edge5" class="edge"><title>Node4&#45;&gt;Node6</title>
<path fill="none" stroke="midnightblue" d="M623.17,-172.437C639.532,-173.426 656.531,-174.454 672.318,-175.408"/>
<polygon fill="midnightblue" stroke="midnightblue" points="672.305,-178.914 682.498,-176.024 672.727,-171.927 672.305,-178.914"/>
</g>
<!-- Node8 -->
<g id="node8" class="node"><title>Node8</title>
<g id="a_node8"><a xlink:href="../../d6/d7e/class_t_m_c2208_stepper.html#a129ceb04c3ea18e2c4ec1a59a51ece85" target="_top" xlink:title=" ">
<polygon fill="white" stroke="black" points="668,-131.97 668,-150.97 813,-150.97 813,-131.97 668,-131.97"/>
<text text-anchor="middle" x="740.5" y="-138.97" font-family="Helvetica,sans-Serif" font-size="10.00">TMC2208Stepper::serial_read</text>
</a>
</g>
</g>
<!-- Node4&#45;&gt;Node8 -->
<g id="edge8" class="edge"><title>Node4&#45;&gt;Node8</title>
<path fill="none" stroke="midnightblue" d="M613.787,-157.936C628.081,-156.064 643.166,-154.088 657.731,-152.18"/>
<polygon fill="midnightblue" stroke="midnightblue" points="658.256,-155.641 667.716,-150.872 657.346,-148.7 658.256,-155.641"/>
</g>
<!-- Node9 -->
<g id="node9" class="node"><title>Node9</title>
<g id="a_node9"><a xlink:href="../../d6/d7e/class_t_m_c2208_stepper.html#aa7f2c1a3a1cda9a328c186c6d7cbfe41" target="_top" xlink:title=" ">
<polygon fill="white" stroke="black" points="680,-82.4696 680,-112.47 801,-112.47 801,-82.4696 680,-82.4696"/>
<text text-anchor="start" x="688" y="-100.47" font-family="Helvetica,sans-Serif" font-size="10.00">TMC2208Stepper::serial</text>
<text text-anchor="middle" x="740.5" y="-89.4696" font-family="Helvetica,sans-Serif" font-size="10.00">_write</text>
</a>
</g>
</g>
<!-- Node4&#45;&gt;Node9 -->
<g id="edge9" class="edge"><title>Node4&#45;&gt;Node9</title>
<path fill="none" stroke="midnightblue" d="M604.251,-157.863C613.759,-155.397 623.289,-152.315 632,-148.47 650.056,-140.5 650.502,-131.6 668,-122.47 672.044,-120.36 676.305,-118.362 680.65,-116.486"/>
<polygon fill="midnightblue" stroke="midnightblue" points="682.304,-119.591 690.243,-112.575 679.662,-113.109 682.304,-119.591"/>
</g>
<!-- Node7 -->
<g id="node7" class="node"><title>Node7</title>
<g id="a_node7"><a xlink:href="../../d6/d7e/class_t_m_c2208_stepper.html#a5441dd87d0bcea4ffc309cb012166a57" target="_top" xlink:title=" ">
<polygon fill="white" stroke="black" points="849,-87.9696 849,-106.97 965,-106.97 965,-87.9696 849,-87.9696"/>
<text text-anchor="middle" x="907" y="-94.9696" font-family="Helvetica,sans-Serif" font-size="10.00">TMC2208Stepper::IOIN</text>
</a>
</g>
</g>
<!-- Node6&#45;&gt;Node7 -->
<g id="edge6" class="edge"><title>Node6&#45;&gt;Node7</title>
<path fill="none" stroke="midnightblue" d="M786.551,-169.968C795.507,-167.396 804.702,-164.251 813,-160.47 840.451,-147.961 868.683,-127.566 886.73,-113.383"/>
<polygon fill="midnightblue" stroke="midnightblue" points="889.106,-115.965 894.723,-106.982 884.73,-110.501 889.106,-115.965"/>
</g>
<!-- Node7&#45;&gt;Node3 -->
<g id="edge7" class="edge"><title>Node7&#45;&gt;Node3</title>
<path fill="none" stroke="midnightblue" d="M896.209,-87.8203C880.34,-72.9361 847.305,-44.9951 813,-34.4696 657.914,13.1145 604.13,9.56986 448,-34.4696 419.807,-42.4221 391.729,-61.5756 373.921,-75.4902"/>
<polygon fill="midnightblue" stroke="midnightblue" points="371.643,-72.8308 366.049,-81.8281 376.033,-78.2834 371.643,-72.8308"/>
</g>
<!-- Node13 -->
<g id="node13" class="node"><title>Node13</title>
<g id="a_node13"><a xlink:href="../../d9/d98/class_s_switch.html#a6ff09d0850d551571dc333fb74ff8628" target="_top" xlink:title=" ">
<polygon fill="white" stroke="black" points="699,-43.9696 699,-62.9696 782,-62.9696 782,-43.9696 699,-43.9696"/>
<text text-anchor="middle" x="740.5" y="-50.9696" font-family="Helvetica,sans-Serif" font-size="10.00">SSwitch::active</text>
</a>
</g>
</g>
<!-- Node12&#45;&gt;Node13 -->
<g id="edge13" class="edge"><title>Node12&#45;&gt;Node13</title>
<path fill="none" stroke="midnightblue" d="M629.51,-53.4696C649.828,-53.4696 670.753,-53.4696 688.826,-53.4696"/>
<polygon fill="midnightblue" stroke="midnightblue" points="688.83,-56.9697 698.83,-53.4696 688.83,-49.9697 688.83,-56.9697"/>
</g>
</g>
</svg>
