<?xml version="1.0" encoding="UTF-8" standalone="no"?>
<!DOCTYPE svg PUBLIC "-//W3C//DTD SVG 1.1//EN"
 "http://www.w3.org/Graphics/SVG/1.1/DTD/svg11.dtd">
<!-- Generated by graphviz version 2.38.0 (20140413.2041)
 -->
<!-- Title: TMC2209Stepper::version Pages: 1 -->
<svg width="993pt" height="235pt"
 viewBox="0.00 0.00 993.00 235.47" xmlns="http://www.w3.org/2000/svg" xmlns:xlink="http://www.w3.org/1999/xlink">
<g id="graph0" class="graph" transform="scale(1 1) rotate(0) translate(4 231.47)">
<title>TMC2209Stepper::version</title>
<polygon fill="white" stroke="none" points="-4,4 -4,-231.47 989,-231.47 989,4 -4,4"/>
<!-- Node1 -->
<g id="node1" class="node"><title>Node1</title>
<g id="a_node1"><a xlink:title=" ">
<polygon fill="#bfbfbf" stroke="black" points="0,-81.9696 0,-100.97 128,-100.97 128,-81.9696 0,-81.9696"/>
<text text-anchor="middle" x="64" y="-88.9696" font-family="Helvetica,sans-Serif" font-size="10.00">TMC2209Stepper::version</text>
</a>
</g>
</g>
<!-- Node2 -->
<g id="node2" class="node"><title>Node2</title>
<g id="a_node2"><a xlink:href="../../d3/dfe/class_t_m_c2209_stepper.html#aeab582b2f23d4e58f63aec80163b3838" target="_top" xlink:title=" ">
<polygon fill="white" stroke="black" points="164,-81.9696 164,-100.97 280,-100.97 280,-81.9696 164,-81.9696"/>
<text text-anchor="middle" x="222" y="-88.9696" font-family="Helvetica,sans-Serif" font-size="10.00">TMC2209Stepper::IOIN</text>
</a>
</g>
</g>
<!-- Node1&#45;&gt;Node2 -->
<g id="edge1" class="edge"><title>Node1&#45;&gt;Node2</title>
<path fill="none" stroke="midnightblue" d="M128.002,-91.4696C136.418,-91.4696 145.077,-91.4696 153.565,-91.4696"/>
<polygon fill="midnightblue" stroke="midnightblue" points="153.808,-94.9697 163.808,-91.4696 153.808,-87.9697 153.808,-94.9697"/>
</g>
<!-- Node3 -->
<g id="node3" class="node"><title>Node3</title>
<g id="a_node3"><a xlink:href="../../d6/d7e/class_t_m_c2208_stepper.html#a2fae2050849c3ab7968012def8ea1cc5" target="_top" xlink:title=" ">
<polygon fill="white" stroke="black" points="316,-81.9696 316,-100.97 432,-100.97 432,-81.9696 316,-81.9696"/>
<text text-anchor="middle" x="374" y="-88.9696" font-family="Helvetica,sans-Serif" font-size="10.00">TMC2208Stepper::read</text>
</a>
</g>
</g>
<!-- Node2&#45;&gt;Node3 -->
<g id="edge2" class="edge"><title>Node2&#45;&gt;Node3</title>
<path fill="none" stroke="midnightblue" d="M280.136,-91.4696C288.377,-91.4696 296.923,-91.4696 305.344,-91.4696"/>
<polygon fill="midnightblue" stroke="midnightblue" points="305.526,-94.9697 315.525,-91.4696 305.525,-87.9697 305.526,-94.9697"/>
</g>
<!-- Node4 -->
<g id="node4" class="node"><title>Node4</title>
<g id="a_node4"><a xlink:href="../../d6/d7e/class_t_m_c2208_stepper.html#a321ad81155b7a20c0858920d32d0b074" target="_top" xlink:title=" ">
<polygon fill="white" stroke="black" points="477,-157.97 477,-176.97 643,-176.97 643,-157.97 477,-157.97"/>
<text text-anchor="middle" x="560" y="-164.97" font-family="Helvetica,sans-Serif" font-size="10.00">TMC2208Stepper::_sendDatagram</text>
</a>
</g>
</g>
<!-- Node3&#45;&gt;Node4 -->
<g id="edge3" class="edge"><title>Node3&#45;&gt;Node4</title>
<path fill="none" stroke="midnightblue" d="M387.494,-101.088C404.681,-113.843 437.022,-136.174 468,-148.47 474.6,-151.089 481.62,-153.37 488.72,-155.35"/>
<polygon fill="midnightblue" stroke="midnightblue" points="487.861,-158.743 498.42,-157.869 489.62,-151.968 487.861,-158.743"/>
</g>
<!-- Node10 -->
<g id="node10" class="node"><title>Node10</title>
<g id="a_node10"><a xlink:href="../../d6/d7e/class_t_m_c2208_stepper.html#a409c19fa6b052a370a317d061bf9af4e" target="_top" xlink:title=" ">
<polygon fill="white" stroke="black" points="492,-119.97 492,-138.97 628,-138.97 628,-119.97 492,-119.97"/>
<text text-anchor="middle" x="560" y="-126.97" font-family="Helvetica,sans-Serif" font-size="10.00">TMC2208Stepper::calcCRC</text>
</a>
</g>
</g>
<!-- Node3&#45;&gt;Node10 -->
<g id="edge10" class="edge"><title>Node3&#45;&gt;Node10</title>
<path fill="none" stroke="midnightblue" d="M421.431,-101.059C446.149,-106.163 476.739,-112.481 502.792,-117.861"/>
<polygon fill="midnightblue" stroke="midnightblue" points="502.402,-121.355 512.903,-119.95 503.817,-114.499 502.402,-121.355"/>
</g>
<!-- Node11 -->
<g id="node11" class="node"><title>Node11</title>
<g id="a_node11"><a xlink:href="../../d6/d7e/class_t_m_c2208_stepper.html#a673ade174158b47e3b345b1d7b3c473d" target="_top" xlink:title=" ">
<polygon fill="white" stroke="black" points="468,-81.9696 468,-100.97 652,-100.97 652,-81.9696 468,-81.9696"/>
<text text-anchor="middle" x="560" y="-88.9696" font-family="Helvetica,sans-Serif" font-size="10.00">TMC2208Stepper::postCommunication</text>
</a>
</g>
</g>
<!-- Node3&#45;&gt;Node11 -->
<g id="edge11" class="edge"><title>Node3&#45;&gt;Node11</title>
<path fill="none" stroke="midnightblue" d="M432.21,-91.4696C440.323,-91.4696 448.86,-91.4696 457.51,-91.4696"/>
<polygon fill="midnightblue" stroke="midnightblue" points="457.697,-94.9697 467.697,-91.4696 457.697,-87.9697 457.697,-94.9697"/>
</g>
<!-- Node12 -->
<g id="node12" class="node"><title>Node12</title>
<g id="a_node12"><a xlink:href="../../d6/d7e/class_t_m_c2208_stepper.html#a0ba01db6c4c01da7cb0ace8a524ab1da" target="_top" xlink:title=" ">
<polygon fill="white" stroke="black" points="470.5,-43.9696 470.5,-62.9696 649.5,-62.9696 649.5,-43.9696 470.5,-43.9696"/>
<text text-anchor="middle" x="560" y="-50.9696" font-family="Helvetica,sans-Serif" font-size="10.00">TMC2208Stepper::preCommunication</text>
</a>
</g>
</g>
<!-- Node3&#45;&gt;Node12 -->
<g id="edge12" class="edge"><title>Node3&#45;&gt;Node12</title>
<path fill="none" stroke="midnightblue" d="M421.431,-81.8806C446.149,-76.7758 476.739,-70.4583 502.792,-65.0778"/>
<polygon fill="midnightblue" stroke="midnightblue" points="503.817,-68.44 512.903,-62.9897 502.402,-61.5846 503.817,-68.44"/>
</g>
<!-- Node5 -->
<g id="node5" class="node"><title>Node5</title>
<g id="a_node5"><a xlink:href="../../d6/d7e/class_t_m_c2208_stepper.html#a7a670b15f45466f8d167a9b80fbf384f" target="_top" xlink:title=" ">
<polygon fill="white" stroke="black" points="693.5,-207.97 693.5,-226.97 827.5,-226.97 827.5,-207.97 693.5,-207.97"/>
<text text-anchor="middle" x="760.5" y="-214.97" font-family="Helvetica,sans-Serif" font-size="10.00">TMC2208Stepper::available</text>
</a>
</g>
</g>
<!-- Node4&#45;&gt;Node5 -->
<g id="edge4" class="edge"><title>Node4&#45;&gt;Node5</title>
<path fill="none" stroke="midnightblue" d="M598.804,-176.992C630.849,-185.064 676.983,-196.684 711.607,-205.406"/>
<polygon fill="midnightblue" stroke="midnightblue" points="710.948,-208.849 721.5,-207.898 712.657,-202.061 710.948,-208.849"/>
</g>
<!-- Node6 -->
<g id="node6" class="node"><title>Node6</title>
<g id="a_node6"><a xlink:href="../../d6/d7e/class_t_m_c2208_stepper.html#a4ec5d2b2f5a31259c7aba1f3208d63b8" target="_top" xlink:title=" ">
<polygon fill="white" stroke="black" points="702.5,-169.97 702.5,-188.97 818.5,-188.97 818.5,-169.97 702.5,-169.97"/>
<text text-anchor="middle" x="760.5" y="-176.97" font-family="Helvetica,sans-Serif" font-size="10.00">TMC2208Stepper::ms2</text>
</a>
</g>
</g>
<!-- Node4&#45;&gt;Node6 -->
<g id="edge5" class="edge"><title>Node4&#45;&gt;Node6</title>
<path fill="none" stroke="midnightblue" d="M643.17,-172.437C659.532,-173.426 676.531,-174.454 692.318,-175.408"/>
<polygon fill="midnightblue" stroke="midnightblue" points="692.305,-178.914 702.498,-176.024 692.727,-171.927 692.305,-178.914"/>
</g>
<!-- Node8 -->
<g id="node8" class="node"><title>Node8</title>
<g id="a_node8"><a xlink:href="../../d6/d7e/class_t_m_c2208_stepper.html#a129ceb04c3ea18e2c4ec1a59a51ece85" target="_top" xlink:title=" ">
<polygon fill="white" stroke="black" points="688,-131.97 688,-150.97 833,-150.97 833,-131.97 688,-131.97"/>
<text text-anchor="middle" x="760.5" y="-138.97" font-family="Helvetica,sans-Serif" font-size="10.00">TMC2208Stepper::serial_read</text>
</a>
</g>
</g>
<!-- Node4&#45;&gt;Node8 -->
<g id="edge8" class="edge"><title>Node4&#45;&gt;Node8</title>
<path fill="none" stroke="midnightblue" d="M633.787,-157.936C648.081,-156.064 663.166,-154.088 677.731,-152.18"/>
<polygon fill="midnightblue" stroke="midnightblue" points="678.256,-155.641 687.716,-150.872 677.346,-148.7 678.256,-155.641"/>
</g>
<!-- Node9 -->
<g id="node9" class="node"><title>Node9</title>
<g id="a_node9"><a xlink:href="../../d6/d7e/class_t_m_c2208_stepper.html#aa7f2c1a3a1cda9a328c186c6d7cbfe41" target="_top" xlink:title=" ">
<polygon fill="white" stroke="black" points="700,-82.4696 700,-112.47 821,-112.47 821,-82.4696 700,-82.4696"/>
<text text-anchor="start" x="708" y="-100.47" font-family="Helvetica,sans-Serif" font-size="10.00">TMC2208Stepper::serial</text>
<text text-anchor="middle" x="760.5" y="-89.4696" font-family="Helvetica,sans-Serif" font-size="10.00">_write</text>
</a>
</g>
</g>
<!-- Node4&#45;&gt;Node9 -->
<g id="edge9" class="edge"><title>Node4&#45;&gt;Node9</title>
<path fill="none" stroke="midnightblue" d="M624.251,-157.863C633.759,-155.397 643.289,-152.315 652,-148.47 670.056,-140.5 670.502,-131.6 688,-122.47 692.044,-120.36 696.305,-118.362 700.65,-116.486"/>
<polygon fill="midnightblue" stroke="midnightblue" points="702.304,-119.591 710.243,-112.575 699.662,-113.109 702.304,-119.591"/>
</g>
<!-- Node7 -->
<g id="node7" class="node"><title>Node7</title>
<g id="a_node7"><a xlink:href="../../d6/d7e/class_t_m_c2208_stepper.html#a5441dd87d0bcea4ffc309cb012166a57" target="_top" xlink:title=" ">
<polygon fill="white" stroke="black" points="869,-87.9696 869,-106.97 985,-106.97 985,-87.9696 869,-87.9696"/>
<text text-anchor="middle" x="927" y="-94.9696" font-family="Helvetica,sans-Serif" font-size="10.00">TMC2208Stepper::IOIN</text>
</a>
</g>
</g>
<!-- Node6&#45;&gt;Node7 -->
<g id="edge6" class="edge"><title>Node6&#45;&gt;Node7</title>
<path fill="none" stroke="midnightblue" d="M806.551,-169.968C815.507,-167.396 824.702,-164.251 833,-160.47 860.451,-147.961 888.683,-127.566 906.73,-113.383"/>
<polygon fill="midnightblue" stroke="midnightblue" points="909.106,-115.965 914.723,-106.982 904.73,-110.501 909.106,-115.965"/>
</g>
<!-- Node7&#45;&gt;Node3 -->
<g id="edge7" class="edge"><title>Node7&#45;&gt;Node3</title>
<path fill="none" stroke="midnightblue" d="M916.209,-87.8203C900.34,-72.9361 867.305,-44.9951 833,-34.4696 677.914,13.1145 624.13,9.56986 468,-34.4696 439.807,-42.4221 411.729,-61.5756 393.921,-75.4902"/>
<polygon fill="midnightblue" stroke="midnightblue" points="391.643,-72.8308 386.049,-81.8281 396.033,-78.2834 391.643,-72.8308"/>
</g>
<!-- Node13 -->
<g id="node13" class="node"><title>Node13</title>
<g id="a_node13"><a xlink:href="../../d9/d98/class_s_switch.html#a6ff09d0850d551571dc333fb74ff8628" target="_top" xlink:title=" ">
<polygon fill="white" stroke="black" points="719,-43.9696 719,-62.9696 802,-62.9696 802,-43.9696 719,-43.9696"/>
<text text-anchor="middle" x="760.5" y="-50.9696" font-family="Helvetica,sans-Serif" font-size="10.00">SSwitch::active</text>
</a>
</g>
</g>
<!-- Node12&#45;&gt;Node13 -->
<g id="edge13" class="edge"><title>Node12&#45;&gt;Node13</title>
<path fill="none" stroke="midnightblue" d="M649.51,-53.4696C669.828,-53.4696 690.753,-53.4696 708.826,-53.4696"/>
<polygon fill="midnightblue" stroke="midnightblue" points="708.83,-56.9697 718.83,-53.4696 708.83,-49.9697 708.83,-56.9697"/>
</g>
</g>
</svg>
