<?xml version="1.0" encoding="UTF-8" standalone="no"?>
<!DOCTYPE svg PUBLIC "-//W3C//DTD SVG 1.1//EN"
 "http://www.w3.org/Graphics/SVG/1.1/DTD/svg11.dtd">
<!-- Generated by graphviz version 2.38.0 (20140413.2041)
 -->
<!-- Title: TMC2209Stepper::push Pages: 1 -->
<!--zoomable 420 -->
<svg id="main" version="1.1" xmlns="http://www.w3.org/2000/svg" xmlns:xlink="http://www.w3.org/1999/xlink" xml:space="preserve" onload="init(evt)">
<style type="text/css"><![CDATA[
.edge:hover path { stroke: red; }
.edge:hover polygon { stroke: red; fill: red; }
]]></style>
<script type="text/javascript"><![CDATA[
var edges = document.getElementsByTagName('g');
if (edges && edges.length) {
  for (var i=0;i<edges.length;i++) {
    if (edges[i].id.substr(0,4)=='edge') {
      edges[i].setAttribute('class','edge');
    }
  }
}
]]></script>
        <defs>
                <circle id="rim" cx="0" cy="0" r="7"/>
                <circle id="rim2" cx="0" cy="0" r="3.5"/>
                <g id="zoomPlus">
                        <use xlink:href="#rim" fill="#404040">
                                <set attributeName="fill" to="#808080" begin="zoomplus.mouseover" end="zoomplus.mouseout"/>
                        </use>
                        <path d="M-4,0h8M0,-4v8" fill="none" stroke="white" stroke-width="1.5" pointer-events="none"/>
                </g>
                <g id="zoomMin">
                        <use xlink:href="#rim" fill="#404040">
                                <set attributeName="fill" to="#808080" begin="zoomminus.mouseover" end="zoomminus.mouseout"/>
                        </use>
                        <path d="M-4,0h8" fill="none" stroke="white" stroke-width="1.5" pointer-events="none"/>
                </g>
                <g id="dirArrow">
                        <path fill="none" stroke="white" stroke-width="1.5" d="M0,-3.0v7 M-2.5,-0.5L0,-3.0L2.5,-0.5"/>
                </g>
               <g id="resetDef">
                       <use xlink:href="#rim2" fill="#404040">
                               <set attributeName="fill" to="#808080" begin="reset.mouseover" end="reset.mouseout"/>
                       </use>
               </g>
        </defs>

<script type="text/javascript">
var viewWidth = 1025;
var viewHeight = 420;
var sectionId = 'dynsection-11';
</script>
<script xlink:href="../../svgpan.js"/>
<svg id="graph" class="graph">
<g id="viewport">
<title>TMC2209Stepper::push</title>
<polygon fill="white" stroke="none" points="-4,4 -4,-416 1021,-416 1021,4 -4,4"/>
<!-- Node1 -->
<g id="node1" class="node"><title>Node1</title>
<g id="a_node1"><a xlink:title=" ">
<polygon fill="#bfbfbf" stroke="black" points="0,-152.5 0,-171.5 119,-171.5 119,-152.5 0,-152.5"/>
<text text-anchor="middle" x="59.5" y="-159.5" font-family="Helvetica,sans-Serif" font-size="10.00">TMC2209Stepper::push</text>
</a>
</g>
</g>
<!-- Node2 -->
<g id="node2" class="node"><title>Node2</title>
<g id="a_node2"><a xlink:href="../../d6/d7e/class_t_m_c2208_stepper.html#aa11281f54c293f3ff2539b1a583682a9" target="_top" xlink:title=" ">
<polygon fill="white" stroke="black" points="157.5,-304.5 157.5,-323.5 309.5,-323.5 309.5,-304.5 157.5,-304.5"/>
<text text-anchor="middle" x="233.5" y="-311.5" font-family="Helvetica,sans-Serif" font-size="10.00">TMC2208Stepper::CHOPCONF</text>
</a>
</g>
</g>
<!-- Node1&#45;&gt;Node2 -->
<g id="edge1" class="edge"><title>Node1&#45;&gt;Node2</title>
<path fill="none" stroke="midnightblue" d="M64.5384,-171.847C75.2642,-196.713 106.968,-262.37 155,-295 157.954,-297.007 161.1,-298.802 164.367,-300.409"/>
<polygon fill="midnightblue" stroke="midnightblue" points="163.273,-303.747 173.844,-304.452 166.02,-297.309 163.273,-303.747"/>
</g>
<!-- Node14 -->
<g id="node14" class="node"><title>Node14</title>
<g id="a_node14"><a xlink:href="../../d6/d7e/class_t_m_c2208_stepper.html#a549db4f962d4ae698dda33ef9a708e33" target="_top" xlink:title=" ">
<polygon fill="white" stroke="black" points="167.5,-266.5 167.5,-285.5 299.5,-285.5 299.5,-266.5 167.5,-266.5"/>
<text text-anchor="middle" x="233.5" y="-273.5" font-family="Helvetica,sans-Serif" font-size="10.00">TMC2208Stepper::GCONF</text>
</a>
</g>
</g>
<!-- Node1&#45;&gt;Node14 -->
<g id="edge14" class="edge"><title>Node1&#45;&gt;Node14</title>
<path fill="none" stroke="midnightblue" d="M67.0976,-171.513C80.9967,-190.8 115.301,-234.573 155,-257 158.975,-259.245 163.21,-261.228 167.574,-262.977"/>
<polygon fill="midnightblue" stroke="midnightblue" points="166.684,-266.376 177.279,-266.447 169.041,-259.785 166.684,-266.376"/>
</g>
<!-- Node15 -->
<g id="node15" class="node"><title>Node15</title>
<g id="a_node15"><a xlink:href="../../de/d64/class_t_m_c_stepper.html#a597bc308bad0d1198b98c48a6ef34fc3" target="_top" xlink:title=" ">
<polygon fill="white" stroke="black" points="167,-228.5 167,-247.5 300,-247.5 300,-228.5 167,-228.5"/>
<text text-anchor="middle" x="233.5" y="-235.5" font-family="Helvetica,sans-Serif" font-size="10.00">TMCStepper::IHOLD_IRUN</text>
</a>
</g>
</g>
<!-- Node1&#45;&gt;Node15 -->
<g id="edge16" class="edge"><title>Node1&#45;&gt;Node15</title>
<path fill="none" stroke="midnightblue" d="M73.5873,-171.665C91.2284,-184.266 124.009,-206.203 155,-219 160.966,-221.463 167.328,-223.66 173.744,-225.604"/>
<polygon fill="midnightblue" stroke="midnightblue" points="173.245,-229.101 183.821,-228.455 175.151,-222.365 173.245,-229.101"/>
</g>
<!-- Node16 -->
<g id="node16" class="node"><title>Node16</title>
<g id="a_node16"><a xlink:href="../../d6/d7e/class_t_m_c2208_stepper.html#a7c2e849de2f2933ba9bf8ede8dc53f53" target="_top" xlink:title=" ">
<polygon fill="white" stroke="black" points="159,-190.5 159,-209.5 308,-209.5 308,-190.5 159,-190.5"/>
<text text-anchor="middle" x="233.5" y="-197.5" font-family="Helvetica,sans-Serif" font-size="10.00">TMC2208Stepper::PWMCONF</text>
</a>
</g>
</g>
<!-- Node1&#45;&gt;Node16 -->
<g id="edge17" class="edge"><title>Node1&#45;&gt;Node16</title>
<path fill="none" stroke="midnightblue" d="M103.903,-171.589C126.907,-176.671 155.351,-182.955 179.634,-188.32"/>
<polygon fill="midnightblue" stroke="midnightblue" points="178.89,-191.74 189.409,-190.48 180.4,-184.905 178.89,-191.74"/>
</g>
<!-- Node17 -->
<g id="node17" class="node"><title>Node17</title>
<g id="a_node17"><a xlink:href="../../d6/d7e/class_t_m_c2208_stepper.html#a7a0682fc7f4d103bf3ceee4cabb411bb" target="_top" xlink:title=" ">
<polygon fill="white" stroke="black" points="155,-152.5 155,-171.5 312,-171.5 312,-152.5 155,-152.5"/>
<text text-anchor="middle" x="233.5" y="-159.5" font-family="Helvetica,sans-Serif" font-size="10.00">TMC2208Stepper::SLAVECONF</text>
</a>
</g>
</g>
<!-- Node1&#45;&gt;Node17 -->
<g id="edge19" class="edge"><title>Node1&#45;&gt;Node17</title>
<path fill="none" stroke="midnightblue" d="M119.212,-162C127.465,-162 136.093,-162 144.745,-162"/>
<polygon fill="midnightblue" stroke="midnightblue" points="144.891,-165.5 154.891,-162 144.891,-158.5 144.891,-165.5"/>
</g>
<!-- Node18 -->
<g id="node18" class="node"><title>Node18</title>
<g id="a_node18"><a xlink:href="../../d3/dfe/class_t_m_c2209_stepper.html#a5a1335a60d938c7d1fcb7408c28f8650" target="_top" xlink:title=" ">
<polygon fill="white" stroke="black" points="156,-114.5 156,-133.5 311,-133.5 311,-114.5 156,-114.5"/>
<text text-anchor="middle" x="233.5" y="-121.5" font-family="Helvetica,sans-Serif" font-size="10.00">TMC2209Stepper::TCOOLTHRS</text>
</a>
</g>
</g>
<!-- Node1&#45;&gt;Node18 -->
<g id="edge20" class="edge"><title>Node1&#45;&gt;Node18</title>
<path fill="none" stroke="midnightblue" d="M103.903,-152.411C126.907,-147.329 155.351,-141.045 179.634,-135.68"/>
<polygon fill="midnightblue" stroke="midnightblue" points="180.4,-139.095 189.409,-133.52 178.89,-132.26 180.4,-139.095"/>
</g>
<!-- Node19 -->
<g id="node19" class="node"><title>Node19</title>
<g id="a_node19"><a xlink:href="../../de/d64/class_t_m_c_stepper.html#a66812c883dfbb6dedc046a011b2564be" target="_top" xlink:title=" ">
<polygon fill="white" stroke="black" points="158.5,-76.5 158.5,-95.5 308.5,-95.5 308.5,-76.5 158.5,-76.5"/>
<text text-anchor="middle" x="233.5" y="-83.5" font-family="Helvetica,sans-Serif" font-size="10.00">TMCStepper::TPOWERDOWN</text>
</a>
</g>
</g>
<!-- Node1&#45;&gt;Node19 -->
<g id="edge21" class="edge"><title>Node1&#45;&gt;Node19</title>
<path fill="none" stroke="midnightblue" d="M73.5873,-152.335C91.2284,-139.734 124.009,-117.797 155,-105 160.966,-102.537 167.328,-100.34 173.744,-98.3958"/>
<polygon fill="midnightblue" stroke="midnightblue" points="175.151,-101.635 183.821,-95.545 173.245,-94.8995 175.151,-101.635"/>
</g>
<!-- Node20 -->
<g id="node20" class="node"><title>Node20</title>
<g id="a_node20"><a xlink:href="../../de/d64/class_t_m_c_stepper.html#ac59a9305aafc64a63698a34cac404788" target="_top" xlink:title=" ">
<polygon fill="white" stroke="black" points="167.5,-38.5 167.5,-57.5 299.5,-57.5 299.5,-38.5 167.5,-38.5"/>
<text text-anchor="middle" x="233.5" y="-45.5" font-family="Helvetica,sans-Serif" font-size="10.00">TMCStepper::TPWMTHRS</text>
</a>
</g>
</g>
<!-- Node1&#45;&gt;Node20 -->
<g id="edge22" class="edge"><title>Node1&#45;&gt;Node20</title>
<path fill="none" stroke="midnightblue" d="M67.0976,-152.487C80.9967,-133.2 115.301,-89.4271 155,-67 158.975,-64.7546 163.21,-62.7724 167.574,-61.023"/>
<polygon fill="midnightblue" stroke="midnightblue" points="169.041,-64.2154 177.279,-57.5529 166.684,-57.6241 169.041,-64.2154"/>
</g>
<!-- Node21 -->
<g id="node21" class="node"><title>Node21</title>
<g id="a_node21"><a xlink:href="../../d6/d7e/class_t_m_c2208_stepper.html#a28b7ebef9a1f4b04d4b3b1e5e83ff76f" target="_top" xlink:title=" ">
<polygon fill="white" stroke="black" points="162.5,-0.5 162.5,-19.5 304.5,-19.5 304.5,-0.5 162.5,-0.5"/>
<text text-anchor="middle" x="233.5" y="-7.5" font-family="Helvetica,sans-Serif" font-size="10.00">TMC2208Stepper::VACTUAL</text>
</a>
</g>
</g>
<!-- Node1&#45;&gt;Node21 -->
<g id="edge23" class="edge"><title>Node1&#45;&gt;Node21</title>
<path fill="none" stroke="midnightblue" d="M64.5384,-152.153C75.2642,-127.287 106.968,-61.6302 155,-29 157.954,-26.993 161.1,-25.1975 164.367,-23.5914"/>
<polygon fill="midnightblue" stroke="midnightblue" points="166.02,-26.6914 173.844,-19.5476 163.273,-20.2531 166.02,-26.6914"/>
</g>
<!-- Node3 -->
<g id="node3" class="node"><title>Node3</title>
<g id="a_node3"><a xlink:href="../../d6/d7e/class_t_m_c2208_stepper.html#a2fae2050849c3ab7968012def8ea1cc5" target="_top" xlink:title=" ">
<polygon fill="white" stroke="black" points="348,-266.5 348,-285.5 464,-285.5 464,-266.5 348,-266.5"/>
<text text-anchor="middle" x="406" y="-273.5" font-family="Helvetica,sans-Serif" font-size="10.00">TMC2208Stepper::read</text>
</a>
</g>
</g>
<!-- Node2&#45;&gt;Node3 -->
<g id="edge2" class="edge"><title>Node2&#45;&gt;Node3</title>
<path fill="none" stroke="midnightblue" d="M277.524,-304.411C300.226,-299.351 328.273,-293.1 352.274,-287.751"/>
<polygon fill="midnightblue" stroke="midnightblue" points="353.286,-291.112 362.285,-285.52 351.763,-284.279 353.286,-291.112"/>
</g>
<!-- Node4 -->
<g id="node4" class="node"><title>Node4</title>
<g id="a_node4"><a xlink:href="../../d6/d7e/class_t_m_c2208_stepper.html#a321ad81155b7a20c0858920d32d0b074" target="_top" xlink:title=" ">
<polygon fill="white" stroke="black" points="509,-342.5 509,-361.5 675,-361.5 675,-342.5 509,-342.5"/>
<text text-anchor="middle" x="592" y="-349.5" font-family="Helvetica,sans-Serif" font-size="10.00">TMC2208Stepper::_sendDatagram</text>
</a>
</g>
</g>
<!-- Node3&#45;&gt;Node4 -->
<g id="edge3" class="edge"><title>Node3&#45;&gt;Node4</title>
<path fill="none" stroke="midnightblue" d="M419.494,-285.618C436.681,-298.374 469.022,-320.704 500,-333 506.6,-335.62 513.62,-337.9 520.72,-339.881"/>
<polygon fill="midnightblue" stroke="midnightblue" points="519.861,-343.274 530.42,-342.399 521.62,-336.498 519.861,-343.274"/>
</g>
<!-- Node10 -->
<g id="node10" class="node"><title>Node10</title>
<g id="a_node10"><a xlink:href="../../d6/d7e/class_t_m_c2208_stepper.html#a409c19fa6b052a370a317d061bf9af4e" target="_top" xlink:title=" ">
<polygon fill="white" stroke="black" points="524,-304.5 524,-323.5 660,-323.5 660,-304.5 524,-304.5"/>
<text text-anchor="middle" x="592" y="-311.5" font-family="Helvetica,sans-Serif" font-size="10.00">TMC2208Stepper::calcCRC</text>
</a>
</g>
</g>
<!-- Node3&#45;&gt;Node10 -->
<g id="edge10" class="edge"><title>Node3&#45;&gt;Node10</title>
<path fill="none" stroke="midnightblue" d="M453.431,-285.589C478.149,-290.694 508.739,-297.011 534.792,-302.392"/>
<polygon fill="midnightblue" stroke="midnightblue" points="534.402,-305.885 544.903,-304.48 535.817,-299.03 534.402,-305.885"/>
</g>
<!-- Node11 -->
<g id="node11" class="node"><title>Node11</title>
<g id="a_node11"><a xlink:href="../../d6/d7e/class_t_m_c2208_stepper.html#a673ade174158b47e3b345b1d7b3c473d" target="_top" xlink:title=" ">
<polygon fill="white" stroke="black" points="500,-266.5 500,-285.5 684,-285.5 684,-266.5 500,-266.5"/>
<text text-anchor="middle" x="592" y="-273.5" font-family="Helvetica,sans-Serif" font-size="10.00">TMC2208Stepper::postCommunication</text>
</a>
</g>
</g>
<!-- Node3&#45;&gt;Node11 -->
<g id="edge11" class="edge"><title>Node3&#45;&gt;Node11</title>
<path fill="none" stroke="midnightblue" d="M464.21,-276C472.323,-276 480.86,-276 489.51,-276"/>
<polygon fill="midnightblue" stroke="midnightblue" points="489.697,-279.5 499.697,-276 489.697,-272.5 489.697,-279.5"/>
</g>
<!-- Node12 -->
<g id="node12" class="node"><title>Node12</title>
<g id="a_node12"><a xlink:href="../../d6/d7e/class_t_m_c2208_stepper.html#a0ba01db6c4c01da7cb0ace8a524ab1da" target="_top" xlink:title=" ">
<polygon fill="white" stroke="black" points="502.5,-228.5 502.5,-247.5 681.5,-247.5 681.5,-228.5 502.5,-228.5"/>
<text text-anchor="middle" x="592" y="-235.5" font-family="Helvetica,sans-Serif" font-size="10.00">TMC2208Stepper::preCommunication</text>
</a>
</g>
</g>
<!-- Node3&#45;&gt;Node12 -->
<g id="edge12" class="edge"><title>Node3&#45;&gt;Node12</title>
<path fill="none" stroke="midnightblue" d="M453.431,-266.411C478.149,-261.306 508.739,-254.989 534.792,-249.608"/>
<polygon fill="midnightblue" stroke="midnightblue" points="535.817,-252.97 544.903,-247.52 534.402,-246.115 535.817,-252.97"/>
</g>
<!-- Node5 -->
<g id="node5" class="node"><title>Node5</title>
<g id="a_node5"><a xlink:href="../../d6/d7e/class_t_m_c2208_stepper.html#a7a670b15f45466f8d167a9b80fbf384f" target="_top" xlink:title=" ">
<polygon fill="white" stroke="black" points="725.5,-392.5 725.5,-411.5 859.5,-411.5 859.5,-392.5 725.5,-392.5"/>
<text text-anchor="middle" x="792.5" y="-399.5" font-family="Helvetica,sans-Serif" font-size="10.00">TMC2208Stepper::available</text>
</a>
</g>
</g>
<!-- Node4&#45;&gt;Node5 -->
<g id="edge4" class="edge"><title>Node4&#45;&gt;Node5</title>
<path fill="none" stroke="midnightblue" d="M630.804,-361.522C662.849,-369.594 708.983,-381.215 743.607,-389.936"/>
<polygon fill="midnightblue" stroke="midnightblue" points="742.948,-393.379 753.5,-392.428 744.657,-386.591 742.948,-393.379"/>
</g>
<!-- Node6 -->
<g id="node6" class="node"><title>Node6</title>
<g id="a_node6"><a xlink:href="../../d6/d7e/class_t_m_c2208_stepper.html#a4ec5d2b2f5a31259c7aba1f3208d63b8" target="_top" xlink:title=" ">
<polygon fill="white" stroke="black" points="734.5,-354.5 734.5,-373.5 850.5,-373.5 850.5,-354.5 734.5,-354.5"/>
<text text-anchor="middle" x="792.5" y="-361.5" font-family="Helvetica,sans-Serif" font-size="10.00">TMC2208Stepper::ms2</text>
</a>
</g>
</g>
<!-- Node4&#45;&gt;Node6 -->
<g id="edge5" class="edge"><title>Node4&#45;&gt;Node6</title>
<path fill="none" stroke="midnightblue" d="M675.17,-356.967C691.532,-357.957 708.531,-358.984 724.318,-359.939"/>
<polygon fill="midnightblue" stroke="midnightblue" points="724.305,-363.444 734.498,-360.554 724.727,-356.457 724.305,-363.444"/>
</g>
<!-- Node8 -->
<g id="node8" class="node"><title>Node8</title>
<g id="a_node8"><a xlink:href="../../d6/d7e/class_t_m_c2208_stepper.html#a129ceb04c3ea18e2c4ec1a59a51ece85" target="_top" xlink:title=" ">
<polygon fill="white" stroke="black" points="720,-316.5 720,-335.5 865,-335.5 865,-316.5 720,-316.5"/>
<text text-anchor="middle" x="792.5" y="-323.5" font-family="Helvetica,sans-Serif" font-size="10.00">TMC2208Stepper::serial_read</text>
</a>
</g>
</g>
<!-- Node4&#45;&gt;Node8 -->
<g id="edge8" class="edge"><title>Node4&#45;&gt;Node8</title>
<path fill="none" stroke="midnightblue" d="M665.787,-342.466C680.081,-340.594 695.166,-338.618 709.731,-336.71"/>
<polygon fill="midnightblue" stroke="midnightblue" points="710.256,-340.172 719.716,-335.402 709.346,-333.231 710.256,-340.172"/>
</g>
<!-- Node9 -->
<g id="node9" class="node"><title>Node9</title>
<g id="a_node9"><a xlink:href="../../d6/d7e/class_t_m_c2208_stepper.html#aa7f2c1a3a1cda9a328c186c6d7cbfe41" target="_top" xlink:title=" ">
<polygon fill="white" stroke="black" points="732,-267 732,-297 853,-297 853,-267 732,-267"/>
<text text-anchor="start" x="740" y="-285" font-family="Helvetica,sans-Serif" font-size="10.00">TMC2208Stepper::serial</text>
<text text-anchor="middle" x="792.5" y="-274" font-family="Helvetica,sans-Serif" font-size="10.00">_write</text>
</a>
</g>
</g>
<!-- Node4&#45;&gt;Node9 -->
<g id="edge9" class="edge"><title>Node4&#45;&gt;Node9</title>
<path fill="none" stroke="midnightblue" d="M656.251,-342.393C665.759,-339.927 675.289,-336.845 684,-333 702.056,-325.031 702.502,-316.13 720,-307 724.044,-304.89 728.305,-302.893 732.65,-301.016"/>
<polygon fill="midnightblue" stroke="midnightblue" points="734.304,-304.121 742.243,-297.105 731.662,-297.639 734.304,-304.121"/>
</g>
<!-- Node7 -->
<g id="node7" class="node"><title>Node7</title>
<g id="a_node7"><a xlink:href="../../d6/d7e/class_t_m_c2208_stepper.html#a5441dd87d0bcea4ffc309cb012166a57" target="_top" xlink:title=" ">
<polygon fill="white" stroke="black" points="901,-272.5 901,-291.5 1017,-291.5 1017,-272.5 901,-272.5"/>
<text text-anchor="middle" x="959" y="-279.5" font-family="Helvetica,sans-Serif" font-size="10.00">TMC2208Stepper::IOIN</text>
</a>
</g>
</g>
<!-- Node6&#45;&gt;Node7 -->
<g id="edge6" class="edge"><title>Node6&#45;&gt;Node7</title>
<path fill="none" stroke="midnightblue" d="M838.551,-354.498C847.507,-351.927 856.702,-348.781 865,-345 892.451,-332.491 920.683,-312.097 938.73,-297.914"/>
<polygon fill="midnightblue" stroke="midnightblue" points="941.106,-300.495 946.723,-291.512 936.73,-295.032 941.106,-300.495"/>
</g>
<!-- Node7&#45;&gt;Node3 -->
<g id="edge7" class="edge"><title>Node7&#45;&gt;Node3</title>
<path fill="none" stroke="midnightblue" d="M948.209,-272.351C932.34,-257.466 899.305,-229.525 865,-219 709.914,-171.416 656.13,-174.961 500,-219 471.807,-226.952 443.729,-246.106 425.921,-260.021"/>
<polygon fill="midnightblue" stroke="midnightblue" points="423.643,-257.361 418.049,-266.359 428.033,-262.814 423.643,-257.361"/>
</g>
<!-- Node13 -->
<g id="node13" class="node"><title>Node13</title>
<g id="a_node13"><a xlink:href="../../d9/d98/class_s_switch.html#a6ff09d0850d551571dc333fb74ff8628" target="_top" xlink:title=" ">
<polygon fill="white" stroke="black" points="751,-228.5 751,-247.5 834,-247.5 834,-228.5 751,-228.5"/>
<text text-anchor="middle" x="792.5" y="-235.5" font-family="Helvetica,sans-Serif" font-size="10.00">SSwitch::active</text>
</a>
</g>
</g>
<!-- Node12&#45;&gt;Node13 -->
<g id="edge13" class="edge"><title>Node12&#45;&gt;Node13</title>
<path fill="none" stroke="midnightblue" d="M681.51,-238C701.828,-238 722.753,-238 740.826,-238"/>
<polygon fill="midnightblue" stroke="midnightblue" points="740.83,-241.5 750.83,-238 740.83,-234.5 740.83,-241.5"/>
</g>
<!-- Node14&#45;&gt;Node3 -->
<g id="edge15" class="edge"><title>Node14&#45;&gt;Node3</title>
<path fill="none" stroke="midnightblue" d="M299.932,-276C312.258,-276 325.169,-276 337.555,-276"/>
<polygon fill="midnightblue" stroke="midnightblue" points="337.811,-279.5 347.811,-276 337.811,-272.5 337.811,-279.5"/>
</g>
<!-- Node16&#45;&gt;Node3 -->
<g id="edge18" class="edge"><title>Node16&#45;&gt;Node3</title>
<path fill="none" stroke="midnightblue" d="M283.611,-209.604C293.2,-212.155 303.05,-215.267 312,-219 338.285,-229.963 365.783,-247.717 383.997,-260.499"/>
<polygon fill="midnightblue" stroke="midnightblue" points="381.976,-263.356 392.147,-266.323 386.046,-257.661 381.976,-263.356"/>
</g>
</g>
</svg>
        <g id="navigator" transform="translate(0 0)" fill="#404254">
                <rect fill="#f2f5e9" fill-opacity="0.5" stroke="#606060" stroke-width=".5" x="0" y="0" width="60" height="60"/>
                <use id="zoomplus" xlink:href="#zoomPlus" x="17" y="9" onmousedown="handleZoom(evt,'in')"/>
                <use id="zoomminus" xlink:href="#zoomMin" x="42" y="9" onmousedown="handleZoom(evt,'out')"/>
                <use id="reset" xlink:href="#resetDef" x="30" y="36" onmousedown="handleReset()"/>
                <g id="arrowUp" xlink:href="#dirArrow" transform="translate(30 24)" onmousedown="handlePan(0,-1)">
                  <use xlink:href="#rim" fill="#404040">
                        <set attributeName="fill" to="#808080" begin="arrowUp.mouseover" end="arrowUp.mouseout"/>
                  </use>
                  <path fill="none" stroke="white" stroke-width="1.5" d="M0,-3.0v7 M-2.5,-0.5L0,-3.0L2.5,-0.5"/>
                </g>
                <g id="arrowRight" xlink:href="#dirArrow" transform="rotate(90) translate(36 -43)" onmousedown="handlePan(1,0)">
                  <use xlink:href="#rim" fill="#404040">
                        <set attributeName="fill" to="#808080" begin="arrowRight.mouseover" end="arrowRight.mouseout"/>
                  </use>
                  <path fill="none" stroke="white" stroke-width="1.5" d="M0,-3.0v7 M-2.5,-0.5L0,-3.0L2.5,-0.5"/>
                </g>
                <g id="arrowDown" xlink:href="#dirArrow" transform="rotate(180) translate(-30 -48)" onmousedown="handlePan(0,1)">
                  <use xlink:href="#rim" fill="#404040">
                        <set attributeName="fill" to="#808080" begin="arrowDown.mouseover" end="arrowDown.mouseout"/>
                  </use>
                  <path fill="none" stroke="white" stroke-width="1.5" d="M0,-3.0v7 M-2.5,-0.5L0,-3.0L2.5,-0.5"/>
                </g>
                <g id="arrowLeft" xlink:href="#dirArrow" transform="rotate(270) translate(-36 17)" onmousedown="handlePan(-1,0)">
                  <use xlink:href="#rim" fill="#404040">
                        <set attributeName="fill" to="#808080" begin="arrowLeft.mouseover" end="arrowLeft.mouseout"/>
                  </use>
                  <path fill="none" stroke="white" stroke-width="1.5" d="M0,-3.0v7 M-2.5,-0.5L0,-3.0L2.5,-0.5"/>
                </g>
        </g>
        <svg viewBox="0 0 15 15" width="100%" height="30px" preserveAspectRatio="xMaxYMin meet">
         <g id="arrow_out" transform="scale(0.3 0.3)">
          <a xlink:href="class_t_m_c2209_stepper_a180f4b9a78e526592d946ec12f71982e_cgraph_org.svg" target="_base">
           <rect id="button" ry="5" rx="5" y="6" x="6" height="38" width="38"
                fill="#f2f5e9" fill-opacity="0.5" stroke="#606060" stroke-width="1.0"/>
           <path id="arrow"
             d="M 11.500037,31.436501 C 11.940474,20.09759 22.043105,11.32322 32.158766,21.979434 L 37.068811,17.246167 C 37.068811,17.246167 37.088388,32 37.088388,32 L 22.160133,31.978069 C 22.160133,31.978069 26.997745,27.140456 26.997745,27.140456 C 18.528582,18.264221 13.291696,25.230495 11.500037,31.436501 z"
             style="fill:#404040;"/>
          </a>
         </g>
        </svg>
</svg>
