<?xml version="1.0" encoding="UTF-8" standalone="no"?>
<!DOCTYPE svg PUBLIC "-//W3C//DTD SVG 1.1//EN"
 "http://www.w3.org/Graphics/SVG/1.1/DTD/svg11.dtd">
<!-- Generated by graphviz version 2.38.0 (20140413.2041)
 -->
<!-- Title: TMC2209Stepper::spread_en Pages: 1 -->
<svg width="1008pt" height="235pt"
 viewBox="0.00 0.00 1008.00 235.47" xmlns="http://www.w3.org/2000/svg" xmlns:xlink="http://www.w3.org/1999/xlink">
<g id="graph0" class="graph" transform="scale(1 1) rotate(0) translate(4 231.47)">
<title>TMC2209Stepper::spread_en</title>
<polygon fill="white" stroke="none" points="-4,4 -4,-231.47 1004,-231.47 1004,4 -4,4"/>
<!-- Node1 -->
<g id="node1" class="node"><title>Node1</title>
<g id="a_node1"><a xlink:title=" ">
<polygon fill="#bfbfbf" stroke="black" points="0,-81.9696 0,-100.97 143,-100.97 143,-81.9696 0,-81.9696"/>
<text text-anchor="middle" x="71.5" y="-88.9696" font-family="Helvetica,sans-Serif" font-size="10.00">TMC2209Stepper::spread_en</text>
</a>
</g>
</g>
<!-- Node2 -->
<g id="node2" class="node"><title>Node2</title>
<g id="a_node2"><a xlink:href="../../d3/dfe/class_t_m_c2209_stepper.html#aeab582b2f23d4e58f63aec80163b3838" target="_top" xlink:title=" ">
<polygon fill="white" stroke="black" points="179,-81.9696 179,-100.97 295,-100.97 295,-81.9696 179,-81.9696"/>
<text text-anchor="middle" x="237" y="-88.9696" font-family="Helvetica,sans-Serif" font-size="10.00">TMC2209Stepper::IOIN</text>
</a>
</g>
</g>
<!-- Node1&#45;&gt;Node2 -->
<g id="edge1" class="edge"><title>Node1&#45;&gt;Node2</title>
<path fill="none" stroke="midnightblue" d="M143.263,-91.4696C151.73,-91.4696 160.357,-91.4696 168.773,-91.4696"/>
<polygon fill="midnightblue" stroke="midnightblue" points="168.907,-94.9697 178.907,-91.4696 168.907,-87.9697 168.907,-94.9697"/>
</g>
<!-- Node3 -->
<g id="node3" class="node"><title>Node3</title>
<g id="a_node3"><a xlink:href="../../d6/d7e/class_t_m_c2208_stepper.html#a2fae2050849c3ab7968012def8ea1cc5" target="_top" xlink:title=" ">
<polygon fill="white" stroke="black" points="331,-81.9696 331,-100.97 447,-100.97 447,-81.9696 331,-81.9696"/>
<text text-anchor="middle" x="389" y="-88.9696" font-family="Helvetica,sans-Serif" font-size="10.00">TMC2208Stepper::read</text>
</a>
</g>
</g>
<!-- Node2&#45;&gt;Node3 -->
<g id="edge2" class="edge"><title>Node2&#45;&gt;Node3</title>
<path fill="none" stroke="midnightblue" d="M295.136,-91.4696C303.377,-91.4696 311.923,-91.4696 320.344,-91.4696"/>
<polygon fill="midnightblue" stroke="midnightblue" points="320.526,-94.9697 330.525,-91.4696 320.525,-87.9697 320.526,-94.9697"/>
</g>
<!-- Node4 -->
<g id="node4" class="node"><title>Node4</title>
<g id="a_node4"><a xlink:href="../../d6/d7e/class_t_m_c2208_stepper.html#a321ad81155b7a20c0858920d32d0b074" target="_top" xlink:title=" ">
<polygon fill="white" stroke="black" points="492,-157.97 492,-176.97 658,-176.97 658,-157.97 492,-157.97"/>
<text text-anchor="middle" x="575" y="-164.97" font-family="Helvetica,sans-Serif" font-size="10.00">TMC2208Stepper::_sendDatagram</text>
</a>
</g>
</g>
<!-- Node3&#45;&gt;Node4 -->
<g id="edge3" class="edge"><title>Node3&#45;&gt;Node4</title>
<path fill="none" stroke="midnightblue" d="M402.494,-101.088C419.681,-113.843 452.022,-136.174 483,-148.47 489.6,-151.089 496.62,-153.37 503.72,-155.35"/>
<polygon fill="midnightblue" stroke="midnightblue" points="502.861,-158.743 513.42,-157.869 504.62,-151.968 502.861,-158.743"/>
</g>
<!-- Node10 -->
<g id="node10" class="node"><title>Node10</title>
<g id="a_node10"><a xlink:href="../../d6/d7e/class_t_m_c2208_stepper.html#a409c19fa6b052a370a317d061bf9af4e" target="_top" xlink:title=" ">
<polygon fill="white" stroke="black" points="507,-119.97 507,-138.97 643,-138.97 643,-119.97 507,-119.97"/>
<text text-anchor="middle" x="575" y="-126.97" font-family="Helvetica,sans-Serif" font-size="10.00">TMC2208Stepper::calcCRC</text>
</a>
</g>
</g>
<!-- Node3&#45;&gt;Node10 -->
<g id="edge10" class="edge"><title>Node3&#45;&gt;Node10</title>
<path fill="none" stroke="midnightblue" d="M436.431,-101.059C461.149,-106.163 491.739,-112.481 517.792,-117.861"/>
<polygon fill="midnightblue" stroke="midnightblue" points="517.402,-121.355 527.903,-119.95 518.817,-114.499 517.402,-121.355"/>
</g>
<!-- Node11 -->
<g id="node11" class="node"><title>Node11</title>
<g id="a_node11"><a xlink:href="../../d6/d7e/class_t_m_c2208_stepper.html#a673ade174158b47e3b345b1d7b3c473d" target="_top" xlink:title=" ">
<polygon fill="white" stroke="black" points="483,-81.9696 483,-100.97 667,-100.97 667,-81.9696 483,-81.9696"/>
<text text-anchor="middle" x="575" y="-88.9696" font-family="Helvetica,sans-Serif" font-size="10.00">TMC2208Stepper::postCommunication</text>
</a>
</g>
</g>
<!-- Node3&#45;&gt;Node11 -->
<g id="edge11" class="edge"><title>Node3&#45;&gt;Node11</title>
<path fill="none" stroke="midnightblue" d="M447.21,-91.4696C455.323,-91.4696 463.86,-91.4696 472.51,-91.4696"/>
<polygon fill="midnightblue" stroke="midnightblue" points="472.697,-94.9697 482.697,-91.4696 472.697,-87.9697 472.697,-94.9697"/>
</g>
<!-- Node12 -->
<g id="node12" class="node"><title>Node12</title>
<g id="a_node12"><a xlink:href="../../d6/d7e/class_t_m_c2208_stepper.html#a0ba01db6c4c01da7cb0ace8a524ab1da" target="_top" xlink:title=" ">
<polygon fill="white" stroke="black" points="485.5,-43.9696 485.5,-62.9696 664.5,-62.9696 664.5,-43.9696 485.5,-43.9696"/>
<text text-anchor="middle" x="575" y="-50.9696" font-family="Helvetica,sans-Serif" font-size="10.00">TMC2208Stepper::preCommunication</text>
</a>
</g>
</g>
<!-- Node3&#45;&gt;Node12 -->
<g id="edge12" class="edge"><title>Node3&#45;&gt;Node12</title>
<path fill="none" stroke="midnightblue" d="M436.431,-81.8806C461.149,-76.7758 491.739,-70.4583 517.792,-65.0778"/>
<polygon fill="midnightblue" stroke="midnightblue" points="518.817,-68.44 527.903,-62.9897 517.402,-61.5846 518.817,-68.44"/>
</g>
<!-- Node5 -->
<g id="node5" class="node"><title>Node5</title>
<g id="a_node5"><a xlink:href="../../d6/d7e/class_t_m_c2208_stepper.html#a7a670b15f45466f8d167a9b80fbf384f" target="_top" xlink:title=" ">
<polygon fill="white" stroke="black" points="708.5,-207.97 708.5,-226.97 842.5,-226.97 842.5,-207.97 708.5,-207.97"/>
<text text-anchor="middle" x="775.5" y="-214.97" font-family="Helvetica,sans-Serif" font-size="10.00">TMC2208Stepper::available</text>
</a>
</g>
</g>
<!-- Node4&#45;&gt;Node5 -->
<g id="edge4" class="edge"><title>Node4&#45;&gt;Node5</title>
<path fill="none" stroke="midnightblue" d="M613.804,-176.992C645.849,-185.064 691.983,-196.684 726.607,-205.406"/>
<polygon fill="midnightblue" stroke="midnightblue" points="725.948,-208.849 736.5,-207.898 727.657,-202.061 725.948,-208.849"/>
</g>
<!-- Node6 -->
<g id="node6" class="node"><title>Node6</title>
<g id="a_node6"><a xlink:href="../../d6/d7e/class_t_m_c2208_stepper.html#a4ec5d2b2f5a31259c7aba1f3208d63b8" target="_top" xlink:title=" ">
<polygon fill="white" stroke="black" points="717.5,-169.97 717.5,-188.97 833.5,-188.97 833.5,-169.97 717.5,-169.97"/>
<text text-anchor="middle" x="775.5" y="-176.97" font-family="Helvetica,sans-Serif" font-size="10.00">TMC2208Stepper::ms2</text>
</a>
</g>
</g>
<!-- Node4&#45;&gt;Node6 -->
<g id="edge5" class="edge"><title>Node4&#45;&gt;Node6</title>
<path fill="none" stroke="midnightblue" d="M658.17,-172.437C674.532,-173.426 691.531,-174.454 707.318,-175.408"/>
<polygon fill="midnightblue" stroke="midnightblue" points="707.305,-178.914 717.498,-176.024 707.727,-171.927 707.305,-178.914"/>
</g>
<!-- Node8 -->
<g id="node8" class="node"><title>Node8</title>
<g id="a_node8"><a xlink:href="../../d6/d7e/class_t_m_c2208_stepper.html#a129ceb04c3ea18e2c4ec1a59a51ece85" target="_top" xlink:title=" ">
<polygon fill="white" stroke="black" points="703,-131.97 703,-150.97 848,-150.97 848,-131.97 703,-131.97"/>
<text text-anchor="middle" x="775.5" y="-138.97" font-family="Helvetica,sans-Serif" font-size="10.00">TMC2208Stepper::serial_read</text>
</a>
</g>
</g>
<!-- Node4&#45;&gt;Node8 -->
<g id="edge8" class="edge"><title>Node4&#45;&gt;Node8</title>
<path fill="none" stroke="midnightblue" d="M648.787,-157.936C663.081,-156.064 678.166,-154.088 692.731,-152.18"/>
<polygon fill="midnightblue" stroke="midnightblue" points="693.256,-155.641 702.716,-150.872 692.346,-148.7 693.256,-155.641"/>
</g>
<!-- Node9 -->
<g id="node9" class="node"><title>Node9</title>
<g id="a_node9"><a xlink:href="../../d6/d7e/class_t_m_c2208_stepper.html#aa7f2c1a3a1cda9a328c186c6d7cbfe41" target="_top" xlink:title=" ">
<polygon fill="white" stroke="black" points="715,-82.4696 715,-112.47 836,-112.47 836,-82.4696 715,-82.4696"/>
<text text-anchor="start" x="723" y="-100.47" font-family="Helvetica,sans-Serif" font-size="10.00">TMC2208Stepper::serial</text>
<text text-anchor="middle" x="775.5" y="-89.4696" font-family="Helvetica,sans-Serif" font-size="10.00">_write</text>
</a>
</g>
</g>
<!-- Node4&#45;&gt;Node9 -->
<g id="edge9" class="edge"><title>Node4&#45;&gt;Node9</title>
<path fill="none" stroke="midnightblue" d="M639.251,-157.863C648.759,-155.397 658.289,-152.315 667,-148.47 685.056,-140.5 685.502,-131.6 703,-122.47 707.044,-120.36 711.305,-118.362 715.65,-116.486"/>
<polygon fill="midnightblue" stroke="midnightblue" points="717.304,-119.591 725.243,-112.575 714.662,-113.109 717.304,-119.591"/>
</g>
<!-- Node7 -->
<g id="node7" class="node"><title>Node7</title>
<g id="a_node7"><a xlink:href="../../d6/d7e/class_t_m_c2208_stepper.html#a5441dd87d0bcea4ffc309cb012166a57" target="_top" xlink:title=" ">
<polygon fill="white" stroke="black" points="884,-87.9696 884,-106.97 1000,-106.97 1000,-87.9696 884,-87.9696"/>
<text text-anchor="middle" x="942" y="-94.9696" font-family="Helvetica,sans-Serif" font-size="10.00">TMC2208Stepper::IOIN</text>
</a>
</g>
</g>
<!-- Node6&#45;&gt;Node7 -->
<g id="edge6" class="edge"><title>Node6&#45;&gt;Node7</title>
<path fill="none" stroke="midnightblue" d="M821.551,-169.968C830.507,-167.396 839.702,-164.251 848,-160.47 875.451,-147.961 903.683,-127.566 921.73,-113.383"/>
<polygon fill="midnightblue" stroke="midnightblue" points="924.106,-115.965 929.723,-106.982 919.73,-110.501 924.106,-115.965"/>
</g>
<!-- Node7&#45;&gt;Node3 -->
<g id="edge7" class="edge"><title>Node7&#45;&gt;Node3</title>
<path fill="none" stroke="midnightblue" d="M931.209,-87.8203C915.34,-72.9361 882.305,-44.9951 848,-34.4696 692.914,13.1145 639.13,9.56986 483,-34.4696 454.807,-42.4221 426.729,-61.5756 408.921,-75.4902"/>
<polygon fill="midnightblue" stroke="midnightblue" points="406.643,-72.8308 401.049,-81.8281 411.033,-78.2834 406.643,-72.8308"/>
</g>
<!-- Node13 -->
<g id="node13" class="node"><title>Node13</title>
<g id="a_node13"><a xlink:href="../../d9/d98/class_s_switch.html#a6ff09d0850d551571dc333fb74ff8628" target="_top" xlink:title=" ">
<polygon fill="white" stroke="black" points="734,-43.9696 734,-62.9696 817,-62.9696 817,-43.9696 734,-43.9696"/>
<text text-anchor="middle" x="775.5" y="-50.9696" font-family="Helvetica,sans-Serif" font-size="10.00">SSwitch::active</text>
</a>
</g>
</g>
<!-- Node12&#45;&gt;Node13 -->
<g id="edge13" class="edge"><title>Node12&#45;&gt;Node13</title>
<path fill="none" stroke="midnightblue" d="M664.51,-53.4696C684.828,-53.4696 705.753,-53.4696 723.826,-53.4696"/>
<polygon fill="midnightblue" stroke="midnightblue" points="723.83,-56.9697 733.83,-53.4696 723.83,-49.9697 723.83,-56.9697"/>
</g>
</g>
</svg>
