<?xml version="1.0" encoding="UTF-8" standalone="no"?>
<!DOCTYPE svg PUBLIC "-//W3C//DTD SVG 1.1//EN"
 "http://www.w3.org/Graphics/SVG/1.1/DTD/svg11.dtd">
<!-- Generated by graphviz version 2.38.0 (20140413.2041)
 -->
<!-- Title: TMC2209Stepper::pdn_uart Pages: 1 -->
<svg width="1000pt" height="235pt"
 viewBox="0.00 0.00 1000.00 235.47" xmlns="http://www.w3.org/2000/svg" xmlns:xlink="http://www.w3.org/1999/xlink">
<g id="graph0" class="graph" transform="scale(1 1) rotate(0) translate(4 231.47)">
<title>TMC2209Stepper::pdn_uart</title>
<polygon fill="white" stroke="none" points="-4,4 -4,-231.47 996,-231.47 996,4 -4,4"/>
<!-- Node1 -->
<g id="node1" class="node"><title>Node1</title>
<g id="a_node1"><a xlink:title=" ">
<polygon fill="#bfbfbf" stroke="black" points="0,-81.9696 0,-100.97 135,-100.97 135,-81.9696 0,-81.9696"/>
<text text-anchor="middle" x="67.5" y="-88.9696" font-family="Helvetica,sans-Serif" font-size="10.00">TMC2209Stepper::pdn_uart</text>
</a>
</g>
</g>
<!-- Node2 -->
<g id="node2" class="node"><title>Node2</title>
<g id="a_node2"><a xlink:href="../../d3/dfe/class_t_m_c2209_stepper.html#aeab582b2f23d4e58f63aec80163b3838" target="_top" xlink:title=" ">
<polygon fill="white" stroke="black" points="171,-81.9696 171,-100.97 287,-100.97 287,-81.9696 171,-81.9696"/>
<text text-anchor="middle" x="229" y="-88.9696" font-family="Helvetica,sans-Serif" font-size="10.00">TMC2209Stepper::IOIN</text>
</a>
</g>
</g>
<!-- Node1&#45;&gt;Node2 -->
<g id="edge1" class="edge"><title>Node1&#45;&gt;Node2</title>
<path fill="none" stroke="midnightblue" d="M135.218,-91.4696C143.593,-91.4696 152.166,-91.4696 160.552,-91.4696"/>
<polygon fill="midnightblue" stroke="midnightblue" points="160.663,-94.9697 170.663,-91.4696 160.663,-87.9697 160.663,-94.9697"/>
</g>
<!-- Node3 -->
<g id="node3" class="node"><title>Node3</title>
<g id="a_node3"><a xlink:href="../../d6/d7e/class_t_m_c2208_stepper.html#a2fae2050849c3ab7968012def8ea1cc5" target="_top" xlink:title=" ">
<polygon fill="white" stroke="black" points="323,-81.9696 323,-100.97 439,-100.97 439,-81.9696 323,-81.9696"/>
<text text-anchor="middle" x="381" y="-88.9696" font-family="Helvetica,sans-Serif" font-size="10.00">TMC2208Stepper::read</text>
</a>
</g>
</g>
<!-- Node2&#45;&gt;Node3 -->
<g id="edge2" class="edge"><title>Node2&#45;&gt;Node3</title>
<path fill="none" stroke="midnightblue" d="M287.136,-91.4696C295.377,-91.4696 303.923,-91.4696 312.344,-91.4696"/>
<polygon fill="midnightblue" stroke="midnightblue" points="312.526,-94.9697 322.525,-91.4696 312.525,-87.9697 312.526,-94.9697"/>
</g>
<!-- Node4 -->
<g id="node4" class="node"><title>Node4</title>
<g id="a_node4"><a xlink:href="../../d6/d7e/class_t_m_c2208_stepper.html#a321ad81155b7a20c0858920d32d0b074" target="_top" xlink:title=" ">
<polygon fill="white" stroke="black" points="484,-157.97 484,-176.97 650,-176.97 650,-157.97 484,-157.97"/>
<text text-anchor="middle" x="567" y="-164.97" font-family="Helvetica,sans-Serif" font-size="10.00">TMC2208Stepper::_sendDatagram</text>
</a>
</g>
</g>
<!-- Node3&#45;&gt;Node4 -->
<g id="edge3" class="edge"><title>Node3&#45;&gt;Node4</title>
<path fill="none" stroke="midnightblue" d="M394.494,-101.088C411.681,-113.843 444.022,-136.174 475,-148.47 481.6,-151.089 488.62,-153.37 495.72,-155.35"/>
<polygon fill="midnightblue" stroke="midnightblue" points="494.861,-158.743 505.42,-157.869 496.62,-151.968 494.861,-158.743"/>
</g>
<!-- Node10 -->
<g id="node10" class="node"><title>Node10</title>
<g id="a_node10"><a xlink:href="../../d6/d7e/class_t_m_c2208_stepper.html#a409c19fa6b052a370a317d061bf9af4e" target="_top" xlink:title=" ">
<polygon fill="white" stroke="black" points="499,-119.97 499,-138.97 635,-138.97 635,-119.97 499,-119.97"/>
<text text-anchor="middle" x="567" y="-126.97" font-family="Helvetica,sans-Serif" font-size="10.00">TMC2208Stepper::calcCRC</text>
</a>
</g>
</g>
<!-- Node3&#45;&gt;Node10 -->
<g id="edge10" class="edge"><title>Node3&#45;&gt;Node10</title>
<path fill="none" stroke="midnightblue" d="M428.431,-101.059C453.149,-106.163 483.739,-112.481 509.792,-117.861"/>
<polygon fill="midnightblue" stroke="midnightblue" points="509.402,-121.355 519.903,-119.95 510.817,-114.499 509.402,-121.355"/>
</g>
<!-- Node11 -->
<g id="node11" class="node"><title>Node11</title>
<g id="a_node11"><a xlink:href="../../d6/d7e/class_t_m_c2208_stepper.html#a673ade174158b47e3b345b1d7b3c473d" target="_top" xlink:title=" ">
<polygon fill="white" stroke="black" points="475,-81.9696 475,-100.97 659,-100.97 659,-81.9696 475,-81.9696"/>
<text text-anchor="middle" x="567" y="-88.9696" font-family="Helvetica,sans-Serif" font-size="10.00">TMC2208Stepper::postCommunication</text>
</a>
</g>
</g>
<!-- Node3&#45;&gt;Node11 -->
<g id="edge11" class="edge"><title>Node3&#45;&gt;Node11</title>
<path fill="none" stroke="midnightblue" d="M439.21,-91.4696C447.323,-91.4696 455.86,-91.4696 464.51,-91.4696"/>
<polygon fill="midnightblue" stroke="midnightblue" points="464.697,-94.9697 474.697,-91.4696 464.697,-87.9697 464.697,-94.9697"/>
</g>
<!-- Node12 -->
<g id="node12" class="node"><title>Node12</title>
<g id="a_node12"><a xlink:href="../../d6/d7e/class_t_m_c2208_stepper.html#a0ba01db6c4c01da7cb0ace8a524ab1da" target="_top" xlink:title=" ">
<polygon fill="white" stroke="black" points="477.5,-43.9696 477.5,-62.9696 656.5,-62.9696 656.5,-43.9696 477.5,-43.9696"/>
<text text-anchor="middle" x="567" y="-50.9696" font-family="Helvetica,sans-Serif" font-size="10.00">TMC2208Stepper::preCommunication</text>
</a>
</g>
</g>
<!-- Node3&#45;&gt;Node12 -->
<g id="edge12" class="edge"><title>Node3&#45;&gt;Node12</title>
<path fill="none" stroke="midnightblue" d="M428.431,-81.8806C453.149,-76.7758 483.739,-70.4583 509.792,-65.0778"/>
<polygon fill="midnightblue" stroke="midnightblue" points="510.817,-68.44 519.903,-62.9897 509.402,-61.5846 510.817,-68.44"/>
</g>
<!-- Node5 -->
<g id="node5" class="node"><title>Node5</title>
<g id="a_node5"><a xlink:href="../../d6/d7e/class_t_m_c2208_stepper.html#a7a670b15f45466f8d167a9b80fbf384f" target="_top" xlink:title=" ">
<polygon fill="white" stroke="black" points="700.5,-207.97 700.5,-226.97 834.5,-226.97 834.5,-207.97 700.5,-207.97"/>
<text text-anchor="middle" x="767.5" y="-214.97" font-family="Helvetica,sans-Serif" font-size="10.00">TMC2208Stepper::available</text>
</a>
</g>
</g>
<!-- Node4&#45;&gt;Node5 -->
<g id="edge4" class="edge"><title>Node4&#45;&gt;Node5</title>
<path fill="none" stroke="midnightblue" d="M605.804,-176.992C637.849,-185.064 683.983,-196.684 718.607,-205.406"/>
<polygon fill="midnightblue" stroke="midnightblue" points="717.948,-208.849 728.5,-207.898 719.657,-202.061 717.948,-208.849"/>
</g>
<!-- Node6 -->
<g id="node6" class="node"><title>Node6</title>
<g id="a_node6"><a xlink:href="../../d6/d7e/class_t_m_c2208_stepper.html#a4ec5d2b2f5a31259c7aba1f3208d63b8" target="_top" xlink:title=" ">
<polygon fill="white" stroke="black" points="709.5,-169.97 709.5,-188.97 825.5,-188.97 825.5,-169.97 709.5,-169.97"/>
<text text-anchor="middle" x="767.5" y="-176.97" font-family="Helvetica,sans-Serif" font-size="10.00">TMC2208Stepper::ms2</text>
</a>
</g>
</g>
<!-- Node4&#45;&gt;Node6 -->
<g id="edge5" class="edge"><title>Node4&#45;&gt;Node6</title>
<path fill="none" stroke="midnightblue" d="M650.17,-172.437C666.532,-173.426 683.531,-174.454 699.318,-175.408"/>
<polygon fill="midnightblue" stroke="midnightblue" points="699.305,-178.914 709.498,-176.024 699.727,-171.927 699.305,-178.914"/>
</g>
<!-- Node8 -->
<g id="node8" class="node"><title>Node8</title>
<g id="a_node8"><a xlink:href="../../d6/d7e/class_t_m_c2208_stepper.html#a129ceb04c3ea18e2c4ec1a59a51ece85" target="_top" xlink:title=" ">
<polygon fill="white" stroke="black" points="695,-131.97 695,-150.97 840,-150.97 840,-131.97 695,-131.97"/>
<text text-anchor="middle" x="767.5" y="-138.97" font-family="Helvetica,sans-Serif" font-size="10.00">TMC2208Stepper::serial_read</text>
</a>
</g>
</g>
<!-- Node4&#45;&gt;Node8 -->
<g id="edge8" class="edge"><title>Node4&#45;&gt;Node8</title>
<path fill="none" stroke="midnightblue" d="M640.787,-157.936C655.081,-156.064 670.166,-154.088 684.731,-152.18"/>
<polygon fill="midnightblue" stroke="midnightblue" points="685.256,-155.641 694.716,-150.872 684.346,-148.7 685.256,-155.641"/>
</g>
<!-- Node9 -->
<g id="node9" class="node"><title>Node9</title>
<g id="a_node9"><a xlink:href="../../d6/d7e/class_t_m_c2208_stepper.html#aa7f2c1a3a1cda9a328c186c6d7cbfe41" target="_top" xlink:title=" ">
<polygon fill="white" stroke="black" points="707,-82.4696 707,-112.47 828,-112.47 828,-82.4696 707,-82.4696"/>
<text text-anchor="start" x="715" y="-100.47" font-family="Helvetica,sans-Serif" font-size="10.00">TMC2208Stepper::serial</text>
<text text-anchor="middle" x="767.5" y="-89.4696" font-family="Helvetica,sans-Serif" font-size="10.00">_write</text>
</a>
</g>
</g>
<!-- Node4&#45;&gt;Node9 -->
<g id="edge9" class="edge"><title>Node4&#45;&gt;Node9</title>
<path fill="none" stroke="midnightblue" d="M631.251,-157.863C640.759,-155.397 650.289,-152.315 659,-148.47 677.056,-140.5 677.502,-131.6 695,-122.47 699.044,-120.36 703.305,-118.362 707.65,-116.486"/>
<polygon fill="midnightblue" stroke="midnightblue" points="709.304,-119.591 717.243,-112.575 706.662,-113.109 709.304,-119.591"/>
</g>
<!-- Node7 -->
<g id="node7" class="node"><title>Node7</title>
<g id="a_node7"><a xlink:href="../../d6/d7e/class_t_m_c2208_stepper.html#a5441dd87d0bcea4ffc309cb012166a57" target="_top" xlink:title=" ">
<polygon fill="white" stroke="black" points="876,-87.9696 876,-106.97 992,-106.97 992,-87.9696 876,-87.9696"/>
<text text-anchor="middle" x="934" y="-94.9696" font-family="Helvetica,sans-Serif" font-size="10.00">TMC2208Stepper::IOIN</text>
</a>
</g>
</g>
<!-- Node6&#45;&gt;Node7 -->
<g id="edge6" class="edge"><title>Node6&#45;&gt;Node7</title>
<path fill="none" stroke="midnightblue" d="M813.551,-169.968C822.507,-167.396 831.702,-164.251 840,-160.47 867.451,-147.961 895.683,-127.566 913.73,-113.383"/>
<polygon fill="midnightblue" stroke="midnightblue" points="916.106,-115.965 921.723,-106.982 911.73,-110.501 916.106,-115.965"/>
</g>
<!-- Node7&#45;&gt;Node3 -->
<g id="edge7" class="edge"><title>Node7&#45;&gt;Node3</title>
<path fill="none" stroke="midnightblue" d="M923.209,-87.8203C907.34,-72.9361 874.305,-44.9951 840,-34.4696 684.914,13.1145 631.13,9.56986 475,-34.4696 446.807,-42.4221 418.729,-61.5756 400.921,-75.4902"/>
<polygon fill="midnightblue" stroke="midnightblue" points="398.643,-72.8308 393.049,-81.8281 403.033,-78.2834 398.643,-72.8308"/>
</g>
<!-- Node13 -->
<g id="node13" class="node"><title>Node13</title>
<g id="a_node13"><a xlink:href="../../d9/d98/class_s_switch.html#a6ff09d0850d551571dc333fb74ff8628" target="_top" xlink:title=" ">
<polygon fill="white" stroke="black" points="726,-43.9696 726,-62.9696 809,-62.9696 809,-43.9696 726,-43.9696"/>
<text text-anchor="middle" x="767.5" y="-50.9696" font-family="Helvetica,sans-Serif" font-size="10.00">SSwitch::active</text>
</a>
</g>
</g>
<!-- Node12&#45;&gt;Node13 -->
<g id="edge13" class="edge"><title>Node12&#45;&gt;Node13</title>
<path fill="none" stroke="midnightblue" d="M656.51,-53.4696C676.828,-53.4696 697.753,-53.4696 715.826,-53.4696"/>
<polygon fill="midnightblue" stroke="midnightblue" points="715.83,-56.9697 725.83,-53.4696 715.83,-49.9697 715.83,-56.9697"/>
</g>
</g>
</svg>
