<?xml version="1.0" encoding="UTF-8" standalone="no"?>
<!DOCTYPE svg PUBLIC "-//W3C//DTD SVG 1.1//EN"
 "http://www.w3.org/Graphics/SVG/1.1/DTD/svg11.dtd">
<!-- Generated by graphviz version 2.38.0 (20140413.2041)
 -->
<!-- Title: TMC2209Stepper::SG_RESULT Pages: 1 -->
<svg width="825pt" height="235pt"
 viewBox="0.00 0.00 825.00 235.47" xmlns="http://www.w3.org/2000/svg" xmlns:xlink="http://www.w3.org/1999/xlink">
<g id="graph0" class="graph" transform="scale(1 1) rotate(0) translate(4 231.47)">
<title>TMC2209Stepper::SG_RESULT</title>
<polygon fill="white" stroke="none" points="-4,4 -4,-231.47 821,-231.47 821,4 -4,4"/>
<!-- Node1 -->
<g id="node1" class="node"><title>Node1</title>
<g id="a_node1"><a xlink:title=" ">
<polygon fill="#bfbfbf" stroke="black" points="0,-76.4696 0,-106.47 112,-106.47 112,-76.4696 0,-76.4696"/>
<text text-anchor="start" x="8" y="-94.4696" font-family="Helvetica,sans-Serif" font-size="10.00">TMC2209Stepper::SG</text>
<text text-anchor="middle" x="56" y="-83.4696" font-family="Helvetica,sans-Serif" font-size="10.00">_RESULT</text>
</a>
</g>
</g>
<!-- Node2 -->
<g id="node2" class="node"><title>Node2</title>
<g id="a_node2"><a xlink:href="../../d6/d7e/class_t_m_c2208_stepper.html#a2fae2050849c3ab7968012def8ea1cc5" target="_top" xlink:title=" ">
<polygon fill="white" stroke="black" points="148,-81.9696 148,-100.97 264,-100.97 264,-81.9696 148,-81.9696"/>
<text text-anchor="middle" x="206" y="-88.9696" font-family="Helvetica,sans-Serif" font-size="10.00">TMC2208Stepper::read</text>
</a>
</g>
</g>
<!-- Node1&#45;&gt;Node2 -->
<g id="edge1" class="edge"><title>Node1&#45;&gt;Node2</title>
<path fill="none" stroke="midnightblue" d="M112.11,-91.4696C120.498,-91.4696 129.233,-91.4696 137.843,-91.4696"/>
<polygon fill="midnightblue" stroke="midnightblue" points="137.865,-94.9697 147.865,-91.4696 137.865,-87.9697 137.865,-94.9697"/>
</g>
<!-- Node3 -->
<g id="node3" class="node"><title>Node3</title>
<g id="a_node3"><a xlink:href="../../d6/d7e/class_t_m_c2208_stepper.html#a321ad81155b7a20c0858920d32d0b074" target="_top" xlink:title=" ">
<polygon fill="white" stroke="black" points="309,-157.97 309,-176.97 475,-176.97 475,-157.97 309,-157.97"/>
<text text-anchor="middle" x="392" y="-164.97" font-family="Helvetica,sans-Serif" font-size="10.00">TMC2208Stepper::_sendDatagram</text>
</a>
</g>
</g>
<!-- Node2&#45;&gt;Node3 -->
<g id="edge2" class="edge"><title>Node2&#45;&gt;Node3</title>
<path fill="none" stroke="midnightblue" d="M219.494,-101.088C236.681,-113.843 269.022,-136.174 300,-148.47 306.6,-151.089 313.62,-153.37 320.72,-155.35"/>
<polygon fill="midnightblue" stroke="midnightblue" points="319.861,-158.743 330.42,-157.869 321.62,-151.968 319.861,-158.743"/>
</g>
<!-- Node9 -->
<g id="node9" class="node"><title>Node9</title>
<g id="a_node9"><a xlink:href="../../d6/d7e/class_t_m_c2208_stepper.html#a409c19fa6b052a370a317d061bf9af4e" target="_top" xlink:title=" ">
<polygon fill="white" stroke="black" points="324,-119.97 324,-138.97 460,-138.97 460,-119.97 324,-119.97"/>
<text text-anchor="middle" x="392" y="-126.97" font-family="Helvetica,sans-Serif" font-size="10.00">TMC2208Stepper::calcCRC</text>
</a>
</g>
</g>
<!-- Node2&#45;&gt;Node9 -->
<g id="edge9" class="edge"><title>Node2&#45;&gt;Node9</title>
<path fill="none" stroke="midnightblue" d="M253.431,-101.059C278.149,-106.163 308.739,-112.481 334.792,-117.861"/>
<polygon fill="midnightblue" stroke="midnightblue" points="334.402,-121.355 344.903,-119.95 335.817,-114.499 334.402,-121.355"/>
</g>
<!-- Node10 -->
<g id="node10" class="node"><title>Node10</title>
<g id="a_node10"><a xlink:href="../../d6/d7e/class_t_m_c2208_stepper.html#a673ade174158b47e3b345b1d7b3c473d" target="_top" xlink:title=" ">
<polygon fill="white" stroke="black" points="300,-81.9696 300,-100.97 484,-100.97 484,-81.9696 300,-81.9696"/>
<text text-anchor="middle" x="392" y="-88.9696" font-family="Helvetica,sans-Serif" font-size="10.00">TMC2208Stepper::postCommunication</text>
</a>
</g>
</g>
<!-- Node2&#45;&gt;Node10 -->
<g id="edge10" class="edge"><title>Node2&#45;&gt;Node10</title>
<path fill="none" stroke="midnightblue" d="M264.21,-91.4696C272.323,-91.4696 280.86,-91.4696 289.51,-91.4696"/>
<polygon fill="midnightblue" stroke="midnightblue" points="289.697,-94.9697 299.697,-91.4696 289.697,-87.9697 289.697,-94.9697"/>
</g>
<!-- Node11 -->
<g id="node11" class="node"><title>Node11</title>
<g id="a_node11"><a xlink:href="../../d6/d7e/class_t_m_c2208_stepper.html#a0ba01db6c4c01da7cb0ace8a524ab1da" target="_top" xlink:title=" ">
<polygon fill="white" stroke="black" points="302.5,-43.9696 302.5,-62.9696 481.5,-62.9696 481.5,-43.9696 302.5,-43.9696"/>
<text text-anchor="middle" x="392" y="-50.9696" font-family="Helvetica,sans-Serif" font-size="10.00">TMC2208Stepper::preCommunication</text>
</a>
</g>
</g>
<!-- Node2&#45;&gt;Node11 -->
<g id="edge11" class="edge"><title>Node2&#45;&gt;Node11</title>
<path fill="none" stroke="midnightblue" d="M253.431,-81.8806C278.149,-76.7758 308.739,-70.4583 334.792,-65.0778"/>
<polygon fill="midnightblue" stroke="midnightblue" points="335.817,-68.44 344.903,-62.9897 334.402,-61.5846 335.817,-68.44"/>
</g>
<!-- Node4 -->
<g id="node4" class="node"><title>Node4</title>
<g id="a_node4"><a xlink:href="../../d6/d7e/class_t_m_c2208_stepper.html#a7a670b15f45466f8d167a9b80fbf384f" target="_top" xlink:title=" ">
<polygon fill="white" stroke="black" points="525.5,-207.97 525.5,-226.97 659.5,-226.97 659.5,-207.97 525.5,-207.97"/>
<text text-anchor="middle" x="592.5" y="-214.97" font-family="Helvetica,sans-Serif" font-size="10.00">TMC2208Stepper::available</text>
</a>
</g>
</g>
<!-- Node3&#45;&gt;Node4 -->
<g id="edge3" class="edge"><title>Node3&#45;&gt;Node4</title>
<path fill="none" stroke="midnightblue" d="M430.804,-176.992C462.849,-185.064 508.983,-196.684 543.607,-205.406"/>
<polygon fill="midnightblue" stroke="midnightblue" points="542.948,-208.849 553.5,-207.898 544.657,-202.061 542.948,-208.849"/>
</g>
<!-- Node5 -->
<g id="node5" class="node"><title>Node5</title>
<g id="a_node5"><a xlink:href="../../d6/d7e/class_t_m_c2208_stepper.html#a4ec5d2b2f5a31259c7aba1f3208d63b8" target="_top" xlink:title=" ">
<polygon fill="white" stroke="black" points="534.5,-169.97 534.5,-188.97 650.5,-188.97 650.5,-169.97 534.5,-169.97"/>
<text text-anchor="middle" x="592.5" y="-176.97" font-family="Helvetica,sans-Serif" font-size="10.00">TMC2208Stepper::ms2</text>
</a>
</g>
</g>
<!-- Node3&#45;&gt;Node5 -->
<g id="edge4" class="edge"><title>Node3&#45;&gt;Node5</title>
<path fill="none" stroke="midnightblue" d="M475.17,-172.437C491.532,-173.426 508.531,-174.454 524.318,-175.408"/>
<polygon fill="midnightblue" stroke="midnightblue" points="524.305,-178.914 534.498,-176.024 524.727,-171.927 524.305,-178.914"/>
</g>
<!-- Node7 -->
<g id="node7" class="node"><title>Node7</title>
<g id="a_node7"><a xlink:href="../../d6/d7e/class_t_m_c2208_stepper.html#a129ceb04c3ea18e2c4ec1a59a51ece85" target="_top" xlink:title=" ">
<polygon fill="white" stroke="black" points="520,-131.97 520,-150.97 665,-150.97 665,-131.97 520,-131.97"/>
<text text-anchor="middle" x="592.5" y="-138.97" font-family="Helvetica,sans-Serif" font-size="10.00">TMC2208Stepper::serial_read</text>
</a>
</g>
</g>
<!-- Node3&#45;&gt;Node7 -->
<g id="edge7" class="edge"><title>Node3&#45;&gt;Node7</title>
<path fill="none" stroke="midnightblue" d="M465.787,-157.936C480.081,-156.064 495.166,-154.088 509.731,-152.18"/>
<polygon fill="midnightblue" stroke="midnightblue" points="510.256,-155.641 519.716,-150.872 509.346,-148.7 510.256,-155.641"/>
</g>
<!-- Node8 -->
<g id="node8" class="node"><title>Node8</title>
<g id="a_node8"><a xlink:href="../../d6/d7e/class_t_m_c2208_stepper.html#aa7f2c1a3a1cda9a328c186c6d7cbfe41" target="_top" xlink:title=" ">
<polygon fill="white" stroke="black" points="532,-82.4696 532,-112.47 653,-112.47 653,-82.4696 532,-82.4696"/>
<text text-anchor="start" x="540" y="-100.47" font-family="Helvetica,sans-Serif" font-size="10.00">TMC2208Stepper::serial</text>
<text text-anchor="middle" x="592.5" y="-89.4696" font-family="Helvetica,sans-Serif" font-size="10.00">_write</text>
</a>
</g>
</g>
<!-- Node3&#45;&gt;Node8 -->
<g id="edge8" class="edge"><title>Node3&#45;&gt;Node8</title>
<path fill="none" stroke="midnightblue" d="M456.251,-157.863C465.759,-155.397 475.289,-152.315 484,-148.47 502.056,-140.5 502.502,-131.6 520,-122.47 524.044,-120.36 528.305,-118.362 532.65,-116.486"/>
<polygon fill="midnightblue" stroke="midnightblue" points="534.304,-119.591 542.243,-112.575 531.662,-113.109 534.304,-119.591"/>
</g>
<!-- Node6 -->
<g id="node6" class="node"><title>Node6</title>
<g id="a_node6"><a xlink:href="../../d6/d7e/class_t_m_c2208_stepper.html#a5441dd87d0bcea4ffc309cb012166a57" target="_top" xlink:title=" ">
<polygon fill="white" stroke="black" points="701,-87.9696 701,-106.97 817,-106.97 817,-87.9696 701,-87.9696"/>
<text text-anchor="middle" x="759" y="-94.9696" font-family="Helvetica,sans-Serif" font-size="10.00">TMC2208Stepper::IOIN</text>
</a>
</g>
</g>
<!-- Node5&#45;&gt;Node6 -->
<g id="edge5" class="edge"><title>Node5&#45;&gt;Node6</title>
<path fill="none" stroke="midnightblue" d="M638.551,-169.968C647.507,-167.396 656.702,-164.251 665,-160.47 692.451,-147.961 720.683,-127.566 738.73,-113.383"/>
<polygon fill="midnightblue" stroke="midnightblue" points="741.106,-115.965 746.723,-106.982 736.73,-110.501 741.106,-115.965"/>
</g>
<!-- Node6&#45;&gt;Node2 -->
<g id="edge6" class="edge"><title>Node6&#45;&gt;Node2</title>
<path fill="none" stroke="midnightblue" d="M748.209,-87.8203C732.34,-72.9361 699.305,-44.9951 665,-34.4696 509.914,13.1145 456.13,9.56986 300,-34.4696 271.807,-42.4221 243.729,-61.5756 225.921,-75.4902"/>
<polygon fill="midnightblue" stroke="midnightblue" points="223.643,-72.8308 218.049,-81.8281 228.033,-78.2834 223.643,-72.8308"/>
</g>
<!-- Node12 -->
<g id="node12" class="node"><title>Node12</title>
<g id="a_node12"><a xlink:href="../../d9/d98/class_s_switch.html#a6ff09d0850d551571dc333fb74ff8628" target="_top" xlink:title=" ">
<polygon fill="white" stroke="black" points="551,-43.9696 551,-62.9696 634,-62.9696 634,-43.9696 551,-43.9696"/>
<text text-anchor="middle" x="592.5" y="-50.9696" font-family="Helvetica,sans-Serif" font-size="10.00">SSwitch::active</text>
</a>
</g>
</g>
<!-- Node11&#45;&gt;Node12 -->
<g id="edge12" class="edge"><title>Node11&#45;&gt;Node12</title>
<path fill="none" stroke="midnightblue" d="M481.51,-53.4696C501.828,-53.4696 522.753,-53.4696 540.826,-53.4696"/>
<polygon fill="midnightblue" stroke="midnightblue" points="540.83,-56.9697 550.83,-53.4696 540.83,-49.9697 540.83,-56.9697"/>
</g>
</g>
</svg>
