<?xml version="1.0" encoding="UTF-8" standalone="no"?>
<!DOCTYPE svg PUBLIC "-//W3C//DTD SVG 1.1//EN"
 "http://www.w3.org/Graphics/SVG/1.1/DTD/svg11.dtd">
<!-- Generated by graphviz version 2.38.0 (20140413.2041)
 -->
<!-- Title: TMC2209Stepper::enn Pages: 1 -->
<svg width="978pt" height="235pt"
 viewBox="0.00 0.00 978.00 235.47" xmlns="http://www.w3.org/2000/svg" xmlns:xlink="http://www.w3.org/1999/xlink">
<g id="graph0" class="graph" transform="scale(1 1) rotate(0) translate(4 231.47)">
<title>TMC2209Stepper::enn</title>
<polygon fill="white" stroke="none" points="-4,4 -4,-231.47 974,-231.47 974,4 -4,4"/>
<!-- Node1 -->
<g id="node1" class="node"><title>Node1</title>
<g id="a_node1"><a xlink:title=" ">
<polygon fill="#bfbfbf" stroke="black" points="0,-81.9696 0,-100.97 113,-100.97 113,-81.9696 0,-81.9696"/>
<text text-anchor="middle" x="56.5" y="-88.9696" font-family="Helvetica,sans-Serif" font-size="10.00">TMC2209Stepper::enn</text>
</a>
</g>
</g>
<!-- Node2 -->
<g id="node2" class="node"><title>Node2</title>
<g id="a_node2"><a xlink:href="../../d3/dfe/class_t_m_c2209_stepper.html#aeab582b2f23d4e58f63aec80163b3838" target="_top" xlink:title=" ">
<polygon fill="white" stroke="black" points="149,-81.9696 149,-100.97 265,-100.97 265,-81.9696 149,-81.9696"/>
<text text-anchor="middle" x="207" y="-88.9696" font-family="Helvetica,sans-Serif" font-size="10.00">TMC2209Stepper::IOIN</text>
</a>
</g>
</g>
<!-- Node1&#45;&gt;Node2 -->
<g id="edge1" class="edge"><title>Node1&#45;&gt;Node2</title>
<path fill="none" stroke="midnightblue" d="M113.218,-91.4696C121.618,-91.4696 130.356,-91.4696 138.963,-91.4696"/>
<polygon fill="midnightblue" stroke="midnightblue" points="138.979,-94.9697 148.979,-91.4696 138.979,-87.9697 138.979,-94.9697"/>
</g>
<!-- Node3 -->
<g id="node3" class="node"><title>Node3</title>
<g id="a_node3"><a xlink:href="../../d6/d7e/class_t_m_c2208_stepper.html#a2fae2050849c3ab7968012def8ea1cc5" target="_top" xlink:title=" ">
<polygon fill="white" stroke="black" points="301,-81.9696 301,-100.97 417,-100.97 417,-81.9696 301,-81.9696"/>
<text text-anchor="middle" x="359" y="-88.9696" font-family="Helvetica,sans-Serif" font-size="10.00">TMC2208Stepper::read</text>
</a>
</g>
</g>
<!-- Node2&#45;&gt;Node3 -->
<g id="edge2" class="edge"><title>Node2&#45;&gt;Node3</title>
<path fill="none" stroke="midnightblue" d="M265.136,-91.4696C273.377,-91.4696 281.923,-91.4696 290.344,-91.4696"/>
<polygon fill="midnightblue" stroke="midnightblue" points="290.526,-94.9697 300.525,-91.4696 290.525,-87.9697 290.526,-94.9697"/>
</g>
<!-- Node4 -->
<g id="node4" class="node"><title>Node4</title>
<g id="a_node4"><a xlink:href="../../d6/d7e/class_t_m_c2208_stepper.html#a321ad81155b7a20c0858920d32d0b074" target="_top" xlink:title=" ">
<polygon fill="white" stroke="black" points="462,-157.97 462,-176.97 628,-176.97 628,-157.97 462,-157.97"/>
<text text-anchor="middle" x="545" y="-164.97" font-family="Helvetica,sans-Serif" font-size="10.00">TMC2208Stepper::_sendDatagram</text>
</a>
</g>
</g>
<!-- Node3&#45;&gt;Node4 -->
<g id="edge3" class="edge"><title>Node3&#45;&gt;Node4</title>
<path fill="none" stroke="midnightblue" d="M372.494,-101.088C389.681,-113.843 422.022,-136.174 453,-148.47 459.6,-151.089 466.62,-153.37 473.72,-155.35"/>
<polygon fill="midnightblue" stroke="midnightblue" points="472.861,-158.743 483.42,-157.869 474.62,-151.968 472.861,-158.743"/>
</g>
<!-- Node10 -->
<g id="node10" class="node"><title>Node10</title>
<g id="a_node10"><a xlink:href="../../d6/d7e/class_t_m_c2208_stepper.html#a409c19fa6b052a370a317d061bf9af4e" target="_top" xlink:title=" ">
<polygon fill="white" stroke="black" points="477,-119.97 477,-138.97 613,-138.97 613,-119.97 477,-119.97"/>
<text text-anchor="middle" x="545" y="-126.97" font-family="Helvetica,sans-Serif" font-size="10.00">TMC2208Stepper::calcCRC</text>
</a>
</g>
</g>
<!-- Node3&#45;&gt;Node10 -->
<g id="edge10" class="edge"><title>Node3&#45;&gt;Node10</title>
<path fill="none" stroke="midnightblue" d="M406.431,-101.059C431.149,-106.163 461.739,-112.481 487.792,-117.861"/>
<polygon fill="midnightblue" stroke="midnightblue" points="487.402,-121.355 497.903,-119.95 488.817,-114.499 487.402,-121.355"/>
</g>
<!-- Node11 -->
<g id="node11" class="node"><title>Node11</title>
<g id="a_node11"><a xlink:href="../../d6/d7e/class_t_m_c2208_stepper.html#a673ade174158b47e3b345b1d7b3c473d" target="_top" xlink:title=" ">
<polygon fill="white" stroke="black" points="453,-81.9696 453,-100.97 637,-100.97 637,-81.9696 453,-81.9696"/>
<text text-anchor="middle" x="545" y="-88.9696" font-family="Helvetica,sans-Serif" font-size="10.00">TMC2208Stepper::postCommunication</text>
</a>
</g>
</g>
<!-- Node3&#45;&gt;Node11 -->
<g id="edge11" class="edge"><title>Node3&#45;&gt;Node11</title>
<path fill="none" stroke="midnightblue" d="M417.21,-91.4696C425.323,-91.4696 433.86,-91.4696 442.51,-91.4696"/>
<polygon fill="midnightblue" stroke="midnightblue" points="442.697,-94.9697 452.697,-91.4696 442.697,-87.9697 442.697,-94.9697"/>
</g>
<!-- Node12 -->
<g id="node12" class="node"><title>Node12</title>
<g id="a_node12"><a xlink:href="../../d6/d7e/class_t_m_c2208_stepper.html#a0ba01db6c4c01da7cb0ace8a524ab1da" target="_top" xlink:title=" ">
<polygon fill="white" stroke="black" points="455.5,-43.9696 455.5,-62.9696 634.5,-62.9696 634.5,-43.9696 455.5,-43.9696"/>
<text text-anchor="middle" x="545" y="-50.9696" font-family="Helvetica,sans-Serif" font-size="10.00">TMC2208Stepper::preCommunication</text>
</a>
</g>
</g>
<!-- Node3&#45;&gt;Node12 -->
<g id="edge12" class="edge"><title>Node3&#45;&gt;Node12</title>
<path fill="none" stroke="midnightblue" d="M406.431,-81.8806C431.149,-76.7758 461.739,-70.4583 487.792,-65.0778"/>
<polygon fill="midnightblue" stroke="midnightblue" points="488.817,-68.44 497.903,-62.9897 487.402,-61.5846 488.817,-68.44"/>
</g>
<!-- Node5 -->
<g id="node5" class="node"><title>Node5</title>
<g id="a_node5"><a xlink:href="../../d6/d7e/class_t_m_c2208_stepper.html#a7a670b15f45466f8d167a9b80fbf384f" target="_top" xlink:title=" ">
<polygon fill="white" stroke="black" points="678.5,-207.97 678.5,-226.97 812.5,-226.97 812.5,-207.97 678.5,-207.97"/>
<text text-anchor="middle" x="745.5" y="-214.97" font-family="Helvetica,sans-Serif" font-size="10.00">TMC2208Stepper::available</text>
</a>
</g>
</g>
<!-- Node4&#45;&gt;Node5 -->
<g id="edge4" class="edge"><title>Node4&#45;&gt;Node5</title>
<path fill="none" stroke="midnightblue" d="M583.804,-176.992C615.849,-185.064 661.983,-196.684 696.607,-205.406"/>
<polygon fill="midnightblue" stroke="midnightblue" points="695.948,-208.849 706.5,-207.898 697.657,-202.061 695.948,-208.849"/>
</g>
<!-- Node6 -->
<g id="node6" class="node"><title>Node6</title>
<g id="a_node6"><a xlink:href="../../d6/d7e/class_t_m_c2208_stepper.html#a4ec5d2b2f5a31259c7aba1f3208d63b8" target="_top" xlink:title=" ">
<polygon fill="white" stroke="black" points="687.5,-169.97 687.5,-188.97 803.5,-188.97 803.5,-169.97 687.5,-169.97"/>
<text text-anchor="middle" x="745.5" y="-176.97" font-family="Helvetica,sans-Serif" font-size="10.00">TMC2208Stepper::ms2</text>
</a>
</g>
</g>
<!-- Node4&#45;&gt;Node6 -->
<g id="edge5" class="edge"><title>Node4&#45;&gt;Node6</title>
<path fill="none" stroke="midnightblue" d="M628.17,-172.437C644.532,-173.426 661.531,-174.454 677.318,-175.408"/>
<polygon fill="midnightblue" stroke="midnightblue" points="677.305,-178.914 687.498,-176.024 677.727,-171.927 677.305,-178.914"/>
</g>
<!-- Node8 -->
<g id="node8" class="node"><title>Node8</title>
<g id="a_node8"><a xlink:href="../../d6/d7e/class_t_m_c2208_stepper.html#a129ceb04c3ea18e2c4ec1a59a51ece85" target="_top" xlink:title=" ">
<polygon fill="white" stroke="black" points="673,-131.97 673,-150.97 818,-150.97 818,-131.97 673,-131.97"/>
<text text-anchor="middle" x="745.5" y="-138.97" font-family="Helvetica,sans-Serif" font-size="10.00">TMC2208Stepper::serial_read</text>
</a>
</g>
</g>
<!-- Node4&#45;&gt;Node8 -->
<g id="edge8" class="edge"><title>Node4&#45;&gt;Node8</title>
<path fill="none" stroke="midnightblue" d="M618.787,-157.936C633.081,-156.064 648.166,-154.088 662.731,-152.18"/>
<polygon fill="midnightblue" stroke="midnightblue" points="663.256,-155.641 672.716,-150.872 662.346,-148.7 663.256,-155.641"/>
</g>
<!-- Node9 -->
<g id="node9" class="node"><title>Node9</title>
<g id="a_node9"><a xlink:href="../../d6/d7e/class_t_m_c2208_stepper.html#aa7f2c1a3a1cda9a328c186c6d7cbfe41" target="_top" xlink:title=" ">
<polygon fill="white" stroke="black" points="685,-82.4696 685,-112.47 806,-112.47 806,-82.4696 685,-82.4696"/>
<text text-anchor="start" x="693" y="-100.47" font-family="Helvetica,sans-Serif" font-size="10.00">TMC2208Stepper::serial</text>
<text text-anchor="middle" x="745.5" y="-89.4696" font-family="Helvetica,sans-Serif" font-size="10.00">_write</text>
</a>
</g>
</g>
<!-- Node4&#45;&gt;Node9 -->
<g id="edge9" class="edge"><title>Node4&#45;&gt;Node9</title>
<path fill="none" stroke="midnightblue" d="M609.251,-157.863C618.759,-155.397 628.289,-152.315 637,-148.47 655.056,-140.5 655.502,-131.6 673,-122.47 677.044,-120.36 681.305,-118.362 685.65,-116.486"/>
<polygon fill="midnightblue" stroke="midnightblue" points="687.304,-119.591 695.243,-112.575 684.662,-113.109 687.304,-119.591"/>
</g>
<!-- Node7 -->
<g id="node7" class="node"><title>Node7</title>
<g id="a_node7"><a xlink:href="../../d6/d7e/class_t_m_c2208_stepper.html#a5441dd87d0bcea4ffc309cb012166a57" target="_top" xlink:title=" ">
<polygon fill="white" stroke="black" points="854,-87.9696 854,-106.97 970,-106.97 970,-87.9696 854,-87.9696"/>
<text text-anchor="middle" x="912" y="-94.9696" font-family="Helvetica,sans-Serif" font-size="10.00">TMC2208Stepper::IOIN</text>
</a>
</g>
</g>
<!-- Node6&#45;&gt;Node7 -->
<g id="edge6" class="edge"><title>Node6&#45;&gt;Node7</title>
<path fill="none" stroke="midnightblue" d="M791.551,-169.968C800.507,-167.396 809.702,-164.251 818,-160.47 845.451,-147.961 873.683,-127.566 891.73,-113.383"/>
<polygon fill="midnightblue" stroke="midnightblue" points="894.106,-115.965 899.723,-106.982 889.73,-110.501 894.106,-115.965"/>
</g>
<!-- Node7&#45;&gt;Node3 -->
<g id="edge7" class="edge"><title>Node7&#45;&gt;Node3</title>
<path fill="none" stroke="midnightblue" d="M901.209,-87.8203C885.34,-72.9361 852.305,-44.9951 818,-34.4696 662.914,13.1145 609.13,9.56986 453,-34.4696 424.807,-42.4221 396.729,-61.5756 378.921,-75.4902"/>
<polygon fill="midnightblue" stroke="midnightblue" points="376.643,-72.8308 371.049,-81.8281 381.033,-78.2834 376.643,-72.8308"/>
</g>
<!-- Node13 -->
<g id="node13" class="node"><title>Node13</title>
<g id="a_node13"><a xlink:href="../../d9/d98/class_s_switch.html#a6ff09d0850d551571dc333fb74ff8628" target="_top" xlink:title=" ">
<polygon fill="white" stroke="black" points="704,-43.9696 704,-62.9696 787,-62.9696 787,-43.9696 704,-43.9696"/>
<text text-anchor="middle" x="745.5" y="-50.9696" font-family="Helvetica,sans-Serif" font-size="10.00">SSwitch::active</text>
</a>
</g>
</g>
<!-- Node12&#45;&gt;Node13 -->
<g id="edge13" class="edge"><title>Node12&#45;&gt;Node13</title>
<path fill="none" stroke="midnightblue" d="M634.51,-53.4696C654.828,-53.4696 675.753,-53.4696 693.826,-53.4696"/>
<polygon fill="midnightblue" stroke="midnightblue" points="693.83,-56.9697 703.83,-53.4696 693.83,-49.9697 693.83,-56.9697"/>
</g>
</g>
</svg>
