<?xml version="1.0" encoding="UTF-8" standalone="no"?>
<!DOCTYPE svg PUBLIC "-//W3C//DTD SVG 1.1//EN"
 "http://www.w3.org/Graphics/SVG/1.1/DTD/svg11.dtd">
<!-- Generated by graphviz version 2.38.0 (20140413.2041)
 -->
<!-- Title: TMC2130Stepper::enc_commutation Pages: 1 -->
<svg width="1116pt" height="192pt"
 viewBox="0.00 0.00 1116.00 191.50" xmlns="http://www.w3.org/2000/svg" xmlns:xlink="http://www.w3.org/1999/xlink">
<g id="graph0" class="graph" transform="scale(1 1) rotate(0) translate(4 187.5)">
<title>TMC2130Stepper::enc_commutation</title>
<polygon fill="white" stroke="none" points="-4,4 -4,-187.5 1112,-187.5 1112,4 -4,4"/>
<!-- Node1 -->
<g id="node1" class="node"><title>Node1</title>
<g id="a_node1"><a xlink:title=" ">
<polygon fill="#bfbfbf" stroke="black" points="0,-82.5 0,-112.5 113,-112.5 113,-82.5 0,-82.5"/>
<text text-anchor="start" x="8" y="-100.5" font-family="Helvetica,sans-Serif" font-size="10.00">TMC2130Stepper::enc</text>
<text text-anchor="middle" x="56.5" y="-89.5" font-family="Helvetica,sans-Serif" font-size="10.00">_commutation</text>
</a>
</g>
</g>
<!-- Node2 -->
<g id="node2" class="node"><title>Node2</title>
<g id="a_node2"><a xlink:href="../../dd/deb/class_t_m_c2130_stepper.html#aaa69ce5d7eb9d4969611bdffb6c93069" target="_top" xlink:title=" ">
<polygon fill="white" stroke="black" points="149,-82.5 149,-112.5 262,-112.5 262,-82.5 149,-82.5"/>
<text text-anchor="start" x="157" y="-100.5" font-family="Helvetica,sans-Serif" font-size="10.00">TMC2130Stepper::enc</text>
<text text-anchor="middle" x="205.5" y="-89.5" font-family="Helvetica,sans-Serif" font-size="10.00">_commutation</text>
</a>
</g>
</g>
<!-- Node1&#45;&gt;Node2 -->
<g id="edge1" class="edge"><title>Node1&#45;&gt;Node2</title>
<path fill="none" stroke="midnightblue" d="M113.074,-97.5C121.489,-97.5 130.238,-97.5 138.842,-97.5"/>
<polygon fill="midnightblue" stroke="midnightblue" points="138.847,-101 148.847,-97.5 138.847,-94.0001 138.847,-101"/>
</g>
<!-- Node3 -->
<g id="node3" class="node"><title>Node3</title>
<g id="a_node3"><a xlink:href="../../dd/deb/class_t_m_c2130_stepper.html#aee84a9abfc84b387c6ae5658f90bf684" target="_top" xlink:title=" ">
<polygon fill="white" stroke="black" points="298,-88 298,-107 430,-107 430,-88 298,-88"/>
<text text-anchor="middle" x="364" y="-95" font-family="Helvetica,sans-Serif" font-size="10.00">TMC2130Stepper::GCONF</text>
</a>
</g>
</g>
<!-- Node2&#45;&gt;Node3 -->
<g id="edge2" class="edge"><title>Node2&#45;&gt;Node3</title>
<path fill="none" stroke="midnightblue" d="M262.117,-97.5C270.452,-97.5 279.162,-97.5 287.822,-97.5"/>
<polygon fill="midnightblue" stroke="midnightblue" points="287.94,-101 297.94,-97.5 287.94,-94.0001 287.94,-101"/>
</g>
<!-- Node4 -->
<g id="node4" class="node"><title>Node4</title>
<g id="a_node4"><a xlink:href="../../dd/deb/class_t_m_c2130_stepper.html#a161ca6ebe3736454e17e9236572a6001" target="_top" xlink:title=" ">
<polygon fill="white" stroke="black" points="466,-88 466,-107 582,-107 582,-88 466,-88"/>
<text text-anchor="middle" x="524" y="-95" font-family="Helvetica,sans-Serif" font-size="10.00">TMC2130Stepper::read</text>
</a>
</g>
</g>
<!-- Node3&#45;&gt;Node4 -->
<g id="edge3" class="edge"><title>Node3&#45;&gt;Node4</title>
<path fill="none" stroke="midnightblue" d="M430.177,-97.5C438.517,-97.5 447.069,-97.5 455.445,-97.5"/>
<polygon fill="midnightblue" stroke="midnightblue" points="455.55,-101 465.55,-97.5 455.55,-94.0001 455.55,-101"/>
</g>
<!-- Node5 -->
<g id="node5" class="node"><title>Node5</title>
<g id="a_node5"><a xlink:href="../../dd/deb/class_t_m_c2130_stepper.html#a1fc868601a32fb0cd8fc536dafa8ecea" target="_top" xlink:title=" ">
<polygon fill="white" stroke="black" points="618,-164 618,-183 789,-183 789,-164 618,-164"/>
<text text-anchor="middle" x="703.5" y="-171" font-family="Helvetica,sans-Serif" font-size="10.00">TMC2130Stepper::beginTransaction</text>
</a>
</g>
</g>
<!-- Node4&#45;&gt;Node5 -->
<g id="edge4" class="edge"><title>Node4&#45;&gt;Node5</title>
<path fill="none" stroke="midnightblue" d="M537.522,-107.048C554.741,-119.725 587.117,-141.967 618,-154.5 624.272,-157.045 630.951,-159.283 637.7,-161.242"/>
<polygon fill="midnightblue" stroke="midnightblue" points="637.032,-164.687 647.599,-163.918 638.858,-157.93 637.032,-164.687"/>
</g>
<!-- Node6 -->
<g id="node6" class="node"><title>Node6</title>
<g id="a_node6"><a xlink:href="../../dd/deb/class_t_m_c2130_stepper.html#aeace18dcee808585dd4449e783811600" target="_top" xlink:title=" ">
<polygon fill="white" stroke="black" points="621.5,-126 621.5,-145 785.5,-145 785.5,-126 621.5,-126"/>
<text text-anchor="middle" x="703.5" y="-133" font-family="Helvetica,sans-Serif" font-size="10.00">TMC2130Stepper::endTransaction</text>
</a>
</g>
</g>
<!-- Node4&#45;&gt;Node6 -->
<g id="edge5" class="edge"><title>Node4&#45;&gt;Node6</title>
<path fill="none" stroke="midnightblue" d="M569.791,-107.089C593.53,-112.171 622.884,-118.455 647.944,-123.82"/>
<polygon fill="midnightblue" stroke="midnightblue" points="647.52,-127.309 658.031,-125.98 648.986,-120.464 647.52,-127.309"/>
</g>
<!-- Node7 -->
<g id="node7" class="node"><title>Node7</title>
<g id="a_node7"><a xlink:href="../../dd/deb/class_t_m_c2130_stepper.html#a4a8f3b6ac100045ed5f84fe4d18d9d5a" target="_top" xlink:title=" ">
<polygon fill="white" stroke="black" points="627.5,-88 627.5,-107 779.5,-107 779.5,-88 627.5,-88"/>
<text text-anchor="middle" x="703.5" y="-95" font-family="Helvetica,sans-Serif" font-size="10.00">TMC2130Stepper::switchCSpin</text>
</a>
</g>
</g>
<!-- Node4&#45;&gt;Node7 -->
<g id="edge6" class="edge"><title>Node4&#45;&gt;Node7</title>
<path fill="none" stroke="midnightblue" d="M582.139,-97.5C593.27,-97.5 605.163,-97.5 616.981,-97.5"/>
<polygon fill="midnightblue" stroke="midnightblue" points="617.325,-101 627.325,-97.5 617.324,-94.0001 617.325,-101"/>
</g>
<!-- Node8 -->
<g id="node8" class="node"><title>Node8</title>
<g id="a_node8"><a xlink:href="../../dd/deb/class_t_m_c2130_stepper.html#a0673af4887ec52b23aa658aa290f6623" target="_top" xlink:title=" ">
<polygon fill="white" stroke="black" points="825,-28 825,-47 955,-47 955,-28 825,-28"/>
<text text-anchor="middle" x="890" y="-35" font-family="Helvetica,sans-Serif" font-size="10.00">TMC2130Stepper::transfer</text>
</a>
</g>
</g>
<!-- Node4&#45;&gt;Node8 -->
<g id="edge7" class="edge"><title>Node4&#45;&gt;Node8</title>
<path fill="none" stroke="midnightblue" d="M569.378,-87.9498C584.744,-84.7717 602.099,-81.3252 618,-78.5 684.378,-66.7062 760.291,-55.4085 814.852,-47.6702"/>
<polygon fill="midnightblue" stroke="midnightblue" points="815.372,-51.1316 824.784,-46.2674 814.393,-44.2004 815.372,-51.1316"/>
</g>
<!-- Node10 -->
<g id="node10" class="node"><title>Node10</title>
<g id="a_node10"><a xlink:href="../../dd/deb/class_t_m_c2130_stepper.html#aba94fc7bb8e2c8c12191f44561f19d95" target="_top" xlink:title=" ">
<polygon fill="white" stroke="black" points="638.5,-0.5 638.5,-30.5 768.5,-30.5 768.5,-0.5 638.5,-0.5"/>
<text text-anchor="start" x="646.5" y="-18.5" font-family="Helvetica,sans-Serif" font-size="10.00">TMC2130Stepper::transfer</text>
<text text-anchor="middle" x="703.5" y="-7.5" font-family="Helvetica,sans-Serif" font-size="10.00">EmptyBytes</text>
</a>
</g>
</g>
<!-- Node4&#45;&gt;Node10 -->
<g id="edge9" class="edge"><title>Node4&#45;&gt;Node10</title>
<path fill="none" stroke="midnightblue" d="M540.378,-87.8381C558.488,-76.7136 589.694,-58.3277 618,-45.5 626.84,-41.494 636.386,-37.66 645.769,-34.1517"/>
<polygon fill="midnightblue" stroke="midnightblue" points="647.257,-37.3346 655.453,-30.6201 644.859,-30.7583 647.257,-37.3346"/>
</g>
<!-- Node9 -->
<g id="node9" class="node"><title>Node9</title>
<g id="a_node9"><a xlink:href="../../df/d8b/class_s_w___s_p_i_class.html#af260fdc0af3f1312b106483161e559c3" target="_top" xlink:title=" ">
<polygon fill="white" stroke="black" points="991,-28 991,-47 1108,-47 1108,-28 991,-28"/>
<text text-anchor="middle" x="1049.5" y="-35" font-family="Helvetica,sans-Serif" font-size="10.00">SW_SPIClass::transfer</text>
</a>
</g>
</g>
<!-- Node8&#45;&gt;Node9 -->
<g id="edge8" class="edge"><title>Node8&#45;&gt;Node9</title>
<path fill="none" stroke="midnightblue" d="M955.061,-37.5C963.477,-37.5 972.125,-37.5 980.603,-37.5"/>
<polygon fill="midnightblue" stroke="midnightblue" points="980.831,-41.0001 990.831,-37.5 980.831,-34.0001 980.831,-41.0001"/>
</g>
<!-- Node10&#45;&gt;Node8 -->
<g id="edge10" class="edge"><title>Node10&#45;&gt;Node8</title>
<path fill="none" stroke="midnightblue" d="M768.511,-23.1328C783.452,-24.9144 799.487,-26.8263 814.827,-28.6556"/>
<polygon fill="midnightblue" stroke="midnightblue" points="814.445,-32.1347 824.79,-29.8435 815.274,-25.184 814.445,-32.1347"/>
</g>
</g>
</svg>
