<?xml version="1.0" encoding="UTF-8" standalone="no"?>
<!DOCTYPE svg PUBLIC "-//W3C//DTD SVG 1.1//EN"
 "http://www.w3.org/Graphics/SVG/1.1/DTD/svg11.dtd">
<!-- Generated by graphviz version 2.38.0 (20140413.2041)
 -->
<!-- Title: TMC2130Stepper::vhighchm Pages: 1 -->
<svg width="1186pt" height="192pt"
 viewBox="0.00 0.00 1186.00 191.50" xmlns="http://www.w3.org/2000/svg" xmlns:xlink="http://www.w3.org/1999/xlink">
<g id="graph0" class="graph" transform="scale(1 1) rotate(0) translate(4 187.5)">
<title>TMC2130Stepper::vhighchm</title>
<polygon fill="white" stroke="none" points="-4,4 -4,-187.5 1182,-187.5 1182,4 -4,4"/>
<!-- Node1 -->
<g id="node1" class="node"><title>Node1</title>
<g id="a_node1"><a xlink:title=" ">
<polygon fill="#bfbfbf" stroke="black" points="0,-88 0,-107 138,-107 138,-88 0,-88"/>
<text text-anchor="middle" x="69" y="-95" font-family="Helvetica,sans-Serif" font-size="10.00">TMC2130Stepper::vhighchm</text>
</a>
</g>
</g>
<!-- Node2 -->
<g id="node2" class="node"><title>Node2</title>
<g id="a_node2"><a xlink:href="../../dd/deb/class_t_m_c2130_stepper.html#a3d1cc1fd7e97ad59f981a70ba1d9f37f" target="_top" xlink:title=" ">
<polygon fill="white" stroke="black" points="174,-88 174,-107 312,-107 312,-88 174,-88"/>
<text text-anchor="middle" x="243" y="-95" font-family="Helvetica,sans-Serif" font-size="10.00">TMC2130Stepper::vhighchm</text>
</a>
</g>
</g>
<!-- Node1&#45;&gt;Node2 -->
<g id="edge1" class="edge"><title>Node1&#45;&gt;Node2</title>
<path fill="none" stroke="midnightblue" d="M138.473,-97.5C146.732,-97.5 155.216,-97.5 163.602,-97.5"/>
<polygon fill="midnightblue" stroke="midnightblue" points="163.762,-101 173.762,-97.5 163.762,-94.0001 163.762,-101"/>
</g>
<!-- Node3 -->
<g id="node3" class="node"><title>Node3</title>
<g id="a_node3"><a xlink:href="../../dd/deb/class_t_m_c2130_stepper.html#a67541b27d97ce45f175e9f6e4a2d0bff" target="_top" xlink:title=" ">
<polygon fill="white" stroke="black" points="348,-88 348,-107 500,-107 500,-88 348,-88"/>
<text text-anchor="middle" x="424" y="-95" font-family="Helvetica,sans-Serif" font-size="10.00">TMC2130Stepper::CHOPCONF</text>
</a>
</g>
</g>
<!-- Node2&#45;&gt;Node3 -->
<g id="edge2" class="edge"><title>Node2&#45;&gt;Node3</title>
<path fill="none" stroke="midnightblue" d="M312.183,-97.5C320.562,-97.5 329.206,-97.5 337.798,-97.5"/>
<polygon fill="midnightblue" stroke="midnightblue" points="337.84,-101 347.84,-97.5 337.84,-94.0001 337.84,-101"/>
</g>
<!-- Node4 -->
<g id="node4" class="node"><title>Node4</title>
<g id="a_node4"><a xlink:href="../../dd/deb/class_t_m_c2130_stepper.html#a161ca6ebe3736454e17e9236572a6001" target="_top" xlink:title=" ">
<polygon fill="white" stroke="black" points="536,-88 536,-107 652,-107 652,-88 536,-88"/>
<text text-anchor="middle" x="594" y="-95" font-family="Helvetica,sans-Serif" font-size="10.00">TMC2130Stepper::read</text>
</a>
</g>
</g>
<!-- Node3&#45;&gt;Node4 -->
<g id="edge3" class="edge"><title>Node3&#45;&gt;Node4</title>
<path fill="none" stroke="midnightblue" d="M500.155,-97.5C508.664,-97.5 517.296,-97.5 525.696,-97.5"/>
<polygon fill="midnightblue" stroke="midnightblue" points="525.802,-101 535.802,-97.5 525.802,-94.0001 525.802,-101"/>
</g>
<!-- Node5 -->
<g id="node5" class="node"><title>Node5</title>
<g id="a_node5"><a xlink:href="../../dd/deb/class_t_m_c2130_stepper.html#a1fc868601a32fb0cd8fc536dafa8ecea" target="_top" xlink:title=" ">
<polygon fill="white" stroke="black" points="688,-164 688,-183 859,-183 859,-164 688,-164"/>
<text text-anchor="middle" x="773.5" y="-171" font-family="Helvetica,sans-Serif" font-size="10.00">TMC2130Stepper::beginTransaction</text>
</a>
</g>
</g>
<!-- Node4&#45;&gt;Node5 -->
<g id="edge4" class="edge"><title>Node4&#45;&gt;Node5</title>
<path fill="none" stroke="midnightblue" d="M607.522,-107.048C624.741,-119.725 657.117,-141.967 688,-154.5 694.272,-157.045 700.951,-159.283 707.7,-161.242"/>
<polygon fill="midnightblue" stroke="midnightblue" points="707.032,-164.687 717.599,-163.918 708.858,-157.93 707.032,-164.687"/>
</g>
<!-- Node6 -->
<g id="node6" class="node"><title>Node6</title>
<g id="a_node6"><a xlink:href="../../dd/deb/class_t_m_c2130_stepper.html#aeace18dcee808585dd4449e783811600" target="_top" xlink:title=" ">
<polygon fill="white" stroke="black" points="691.5,-126 691.5,-145 855.5,-145 855.5,-126 691.5,-126"/>
<text text-anchor="middle" x="773.5" y="-133" font-family="Helvetica,sans-Serif" font-size="10.00">TMC2130Stepper::endTransaction</text>
</a>
</g>
</g>
<!-- Node4&#45;&gt;Node6 -->
<g id="edge5" class="edge"><title>Node4&#45;&gt;Node6</title>
<path fill="none" stroke="midnightblue" d="M639.791,-107.089C663.53,-112.171 692.884,-118.455 717.944,-123.82"/>
<polygon fill="midnightblue" stroke="midnightblue" points="717.52,-127.309 728.031,-125.98 718.986,-120.464 717.52,-127.309"/>
</g>
<!-- Node7 -->
<g id="node7" class="node"><title>Node7</title>
<g id="a_node7"><a xlink:href="../../dd/deb/class_t_m_c2130_stepper.html#a4a8f3b6ac100045ed5f84fe4d18d9d5a" target="_top" xlink:title=" ">
<polygon fill="white" stroke="black" points="697.5,-88 697.5,-107 849.5,-107 849.5,-88 697.5,-88"/>
<text text-anchor="middle" x="773.5" y="-95" font-family="Helvetica,sans-Serif" font-size="10.00">TMC2130Stepper::switchCSpin</text>
</a>
</g>
</g>
<!-- Node4&#45;&gt;Node7 -->
<g id="edge6" class="edge"><title>Node4&#45;&gt;Node7</title>
<path fill="none" stroke="midnightblue" d="M652.139,-97.5C663.27,-97.5 675.163,-97.5 686.981,-97.5"/>
<polygon fill="midnightblue" stroke="midnightblue" points="687.325,-101 697.325,-97.5 687.324,-94.0001 687.325,-101"/>
</g>
<!-- Node8 -->
<g id="node8" class="node"><title>Node8</title>
<g id="a_node8"><a xlink:href="../../dd/deb/class_t_m_c2130_stepper.html#a0673af4887ec52b23aa658aa290f6623" target="_top" xlink:title=" ">
<polygon fill="white" stroke="black" points="895,-28 895,-47 1025,-47 1025,-28 895,-28"/>
<text text-anchor="middle" x="960" y="-35" font-family="Helvetica,sans-Serif" font-size="10.00">TMC2130Stepper::transfer</text>
</a>
</g>
</g>
<!-- Node4&#45;&gt;Node8 -->
<g id="edge7" class="edge"><title>Node4&#45;&gt;Node8</title>
<path fill="none" stroke="midnightblue" d="M639.378,-87.9498C654.744,-84.7717 672.099,-81.3252 688,-78.5 754.378,-66.7062 830.291,-55.4085 884.852,-47.6702"/>
<polygon fill="midnightblue" stroke="midnightblue" points="885.372,-51.1316 894.784,-46.2674 884.393,-44.2004 885.372,-51.1316"/>
</g>
<!-- Node10 -->
<g id="node10" class="node"><title>Node10</title>
<g id="a_node10"><a xlink:href="../../dd/deb/class_t_m_c2130_stepper.html#aba94fc7bb8e2c8c12191f44561f19d95" target="_top" xlink:title=" ">
<polygon fill="white" stroke="black" points="708.5,-0.5 708.5,-30.5 838.5,-30.5 838.5,-0.5 708.5,-0.5"/>
<text text-anchor="start" x="716.5" y="-18.5" font-family="Helvetica,sans-Serif" font-size="10.00">TMC2130Stepper::transfer</text>
<text text-anchor="middle" x="773.5" y="-7.5" font-family="Helvetica,sans-Serif" font-size="10.00">EmptyBytes</text>
</a>
</g>
</g>
<!-- Node4&#45;&gt;Node10 -->
<g id="edge9" class="edge"><title>Node4&#45;&gt;Node10</title>
<path fill="none" stroke="midnightblue" d="M610.378,-87.8381C628.488,-76.7136 659.694,-58.3277 688,-45.5 696.84,-41.494 706.386,-37.66 715.769,-34.1517"/>
<polygon fill="midnightblue" stroke="midnightblue" points="717.257,-37.3346 725.453,-30.6201 714.859,-30.7583 717.257,-37.3346"/>
</g>
<!-- Node9 -->
<g id="node9" class="node"><title>Node9</title>
<g id="a_node9"><a xlink:href="../../df/d8b/class_s_w___s_p_i_class.html#af260fdc0af3f1312b106483161e559c3" target="_top" xlink:title=" ">
<polygon fill="white" stroke="black" points="1061,-28 1061,-47 1178,-47 1178,-28 1061,-28"/>
<text text-anchor="middle" x="1119.5" y="-35" font-family="Helvetica,sans-Serif" font-size="10.00">SW_SPIClass::transfer</text>
</a>
</g>
</g>
<!-- Node8&#45;&gt;Node9 -->
<g id="edge8" class="edge"><title>Node8&#45;&gt;Node9</title>
<path fill="none" stroke="midnightblue" d="M1025.06,-37.5C1033.48,-37.5 1042.13,-37.5 1050.6,-37.5"/>
<polygon fill="midnightblue" stroke="midnightblue" points="1050.83,-41.0001 1060.83,-37.5 1050.83,-34.0001 1050.83,-41.0001"/>
</g>
<!-- Node10&#45;&gt;Node8 -->
<g id="edge10" class="edge"><title>Node10&#45;&gt;Node8</title>
<path fill="none" stroke="midnightblue" d="M838.511,-23.1328C853.452,-24.9144 869.487,-26.8263 884.827,-28.6556"/>
<polygon fill="midnightblue" stroke="midnightblue" points="884.445,-32.1347 894.79,-29.8435 885.274,-25.184 884.445,-32.1347"/>
</g>
</g>
</svg>
