<?xml version="1.0" encoding="UTF-8" standalone="no"?>
<!DOCTYPE svg PUBLIC "-//W3C//DTD SVG 1.1//EN"
 "http://www.w3.org/Graphics/SVG/1.1/DTD/svg11.dtd">
<!-- Generated by graphviz version 2.38.0 (20140413.2041)
 -->
<!-- Title: TMC2130Stepper::vhighfs Pages: 1 -->
<svg width="1001pt" height="192pt"
 viewBox="0.00 0.00 1001.00 191.50" xmlns="http://www.w3.org/2000/svg" xmlns:xlink="http://www.w3.org/1999/xlink">
<g id="graph0" class="graph" transform="scale(1 1) rotate(0) translate(4 187.5)">
<title>TMC2130Stepper::vhighfs</title>
<polygon fill="white" stroke="none" points="-4,4 -4,-187.5 997,-187.5 997,4 -4,4"/>
<!-- Node1 -->
<g id="node1" class="node"><title>Node1</title>
<g id="a_node1"><a xlink:title=" ">
<polygon fill="#bfbfbf" stroke="black" points="0,-88 0,-107 127,-107 127,-88 0,-88"/>
<text text-anchor="middle" x="63.5" y="-95" font-family="Helvetica,sans-Serif" font-size="10.00">TMC2130Stepper::vhighfs</text>
</a>
</g>
</g>
<!-- Node2 -->
<g id="node2" class="node"><title>Node2</title>
<g id="a_node2"><a xlink:href="../../dd/deb/class_t_m_c2130_stepper.html#a67541b27d97ce45f175e9f6e4a2d0bff" target="_top" xlink:title=" ">
<polygon fill="white" stroke="black" points="163,-88 163,-107 315,-107 315,-88 163,-88"/>
<text text-anchor="middle" x="239" y="-95" font-family="Helvetica,sans-Serif" font-size="10.00">TMC2130Stepper::CHOPCONF</text>
</a>
</g>
</g>
<!-- Node1&#45;&gt;Node2 -->
<g id="edge1" class="edge"><title>Node1&#45;&gt;Node2</title>
<path fill="none" stroke="midnightblue" d="M127.137,-97.5C135.44,-97.5 144.062,-97.5 152.665,-97.5"/>
<polygon fill="midnightblue" stroke="midnightblue" points="152.736,-101 162.736,-97.5 152.736,-94.0001 152.736,-101"/>
</g>
<!-- Node3 -->
<g id="node3" class="node"><title>Node3</title>
<g id="a_node3"><a xlink:href="../../dd/deb/class_t_m_c2130_stepper.html#a161ca6ebe3736454e17e9236572a6001" target="_top" xlink:title=" ">
<polygon fill="white" stroke="black" points="351,-88 351,-107 467,-107 467,-88 351,-88"/>
<text text-anchor="middle" x="409" y="-95" font-family="Helvetica,sans-Serif" font-size="10.00">TMC2130Stepper::read</text>
</a>
</g>
</g>
<!-- Node2&#45;&gt;Node3 -->
<g id="edge2" class="edge"><title>Node2&#45;&gt;Node3</title>
<path fill="none" stroke="midnightblue" d="M315.155,-97.5C323.664,-97.5 332.296,-97.5 340.696,-97.5"/>
<polygon fill="midnightblue" stroke="midnightblue" points="340.802,-101 350.802,-97.5 340.802,-94.0001 340.802,-101"/>
</g>
<!-- Node4 -->
<g id="node4" class="node"><title>Node4</title>
<g id="a_node4"><a xlink:href="../../dd/deb/class_t_m_c2130_stepper.html#a1fc868601a32fb0cd8fc536dafa8ecea" target="_top" xlink:title=" ">
<polygon fill="white" stroke="black" points="503,-164 503,-183 674,-183 674,-164 503,-164"/>
<text text-anchor="middle" x="588.5" y="-171" font-family="Helvetica,sans-Serif" font-size="10.00">TMC2130Stepper::beginTransaction</text>
</a>
</g>
</g>
<!-- Node3&#45;&gt;Node4 -->
<g id="edge3" class="edge"><title>Node3&#45;&gt;Node4</title>
<path fill="none" stroke="midnightblue" d="M422.522,-107.048C439.741,-119.725 472.117,-141.967 503,-154.5 509.272,-157.045 515.951,-159.283 522.7,-161.242"/>
<polygon fill="midnightblue" stroke="midnightblue" points="522.032,-164.687 532.599,-163.918 523.858,-157.93 522.032,-164.687"/>
</g>
<!-- Node5 -->
<g id="node5" class="node"><title>Node5</title>
<g id="a_node5"><a xlink:href="../../dd/deb/class_t_m_c2130_stepper.html#aeace18dcee808585dd4449e783811600" target="_top" xlink:title=" ">
<polygon fill="white" stroke="black" points="506.5,-126 506.5,-145 670.5,-145 670.5,-126 506.5,-126"/>
<text text-anchor="middle" x="588.5" y="-133" font-family="Helvetica,sans-Serif" font-size="10.00">TMC2130Stepper::endTransaction</text>
</a>
</g>
</g>
<!-- Node3&#45;&gt;Node5 -->
<g id="edge4" class="edge"><title>Node3&#45;&gt;Node5</title>
<path fill="none" stroke="midnightblue" d="M454.791,-107.089C478.53,-112.171 507.884,-118.455 532.944,-123.82"/>
<polygon fill="midnightblue" stroke="midnightblue" points="532.52,-127.309 543.031,-125.98 533.986,-120.464 532.52,-127.309"/>
</g>
<!-- Node6 -->
<g id="node6" class="node"><title>Node6</title>
<g id="a_node6"><a xlink:href="../../dd/deb/class_t_m_c2130_stepper.html#a4a8f3b6ac100045ed5f84fe4d18d9d5a" target="_top" xlink:title=" ">
<polygon fill="white" stroke="black" points="512.5,-88 512.5,-107 664.5,-107 664.5,-88 512.5,-88"/>
<text text-anchor="middle" x="588.5" y="-95" font-family="Helvetica,sans-Serif" font-size="10.00">TMC2130Stepper::switchCSpin</text>
</a>
</g>
</g>
<!-- Node3&#45;&gt;Node6 -->
<g id="edge5" class="edge"><title>Node3&#45;&gt;Node6</title>
<path fill="none" stroke="midnightblue" d="M467.139,-97.5C478.27,-97.5 490.163,-97.5 501.981,-97.5"/>
<polygon fill="midnightblue" stroke="midnightblue" points="502.325,-101 512.325,-97.5 502.324,-94.0001 502.325,-101"/>
</g>
<!-- Node7 -->
<g id="node7" class="node"><title>Node7</title>
<g id="a_node7"><a xlink:href="../../dd/deb/class_t_m_c2130_stepper.html#a0673af4887ec52b23aa658aa290f6623" target="_top" xlink:title=" ">
<polygon fill="white" stroke="black" points="710,-28 710,-47 840,-47 840,-28 710,-28"/>
<text text-anchor="middle" x="775" y="-35" font-family="Helvetica,sans-Serif" font-size="10.00">TMC2130Stepper::transfer</text>
</a>
</g>
</g>
<!-- Node3&#45;&gt;Node7 -->
<g id="edge6" class="edge"><title>Node3&#45;&gt;Node7</title>
<path fill="none" stroke="midnightblue" d="M454.378,-87.9498C469.744,-84.7717 487.099,-81.3252 503,-78.5 569.378,-66.7062 645.291,-55.4085 699.852,-47.6702"/>
<polygon fill="midnightblue" stroke="midnightblue" points="700.372,-51.1316 709.784,-46.2674 699.393,-44.2004 700.372,-51.1316"/>
</g>
<!-- Node9 -->
<g id="node9" class="node"><title>Node9</title>
<g id="a_node9"><a xlink:href="../../dd/deb/class_t_m_c2130_stepper.html#aba94fc7bb8e2c8c12191f44561f19d95" target="_top" xlink:title=" ">
<polygon fill="white" stroke="black" points="523.5,-0.5 523.5,-30.5 653.5,-30.5 653.5,-0.5 523.5,-0.5"/>
<text text-anchor="start" x="531.5" y="-18.5" font-family="Helvetica,sans-Serif" font-size="10.00">TMC2130Stepper::transfer</text>
<text text-anchor="middle" x="588.5" y="-7.5" font-family="Helvetica,sans-Serif" font-size="10.00">EmptyBytes</text>
</a>
</g>
</g>
<!-- Node3&#45;&gt;Node9 -->
<g id="edge8" class="edge"><title>Node3&#45;&gt;Node9</title>
<path fill="none" stroke="midnightblue" d="M425.378,-87.8381C443.488,-76.7136 474.694,-58.3277 503,-45.5 511.84,-41.494 521.386,-37.66 530.769,-34.1517"/>
<polygon fill="midnightblue" stroke="midnightblue" points="532.257,-37.3346 540.453,-30.6201 529.859,-30.7583 532.257,-37.3346"/>
</g>
<!-- Node8 -->
<g id="node8" class="node"><title>Node8</title>
<g id="a_node8"><a xlink:href="../../df/d8b/class_s_w___s_p_i_class.html#af260fdc0af3f1312b106483161e559c3" target="_top" xlink:title=" ">
<polygon fill="white" stroke="black" points="876,-28 876,-47 993,-47 993,-28 876,-28"/>
<text text-anchor="middle" x="934.5" y="-35" font-family="Helvetica,sans-Serif" font-size="10.00">SW_SPIClass::transfer</text>
</a>
</g>
</g>
<!-- Node7&#45;&gt;Node8 -->
<g id="edge7" class="edge"><title>Node7&#45;&gt;Node8</title>
<path fill="none" stroke="midnightblue" d="M840.061,-37.5C848.477,-37.5 857.125,-37.5 865.603,-37.5"/>
<polygon fill="midnightblue" stroke="midnightblue" points="865.831,-41.0001 875.831,-37.5 865.831,-34.0001 865.831,-41.0001"/>
</g>
<!-- Node9&#45;&gt;Node7 -->
<g id="edge9" class="edge"><title>Node9&#45;&gt;Node7</title>
<path fill="none" stroke="midnightblue" d="M653.511,-23.1328C668.452,-24.9144 684.487,-26.8263 699.827,-28.6556"/>
<polygon fill="midnightblue" stroke="midnightblue" points="699.445,-32.1347 709.79,-29.8435 700.274,-25.184 699.445,-32.1347"/>
</g>
</g>
</svg>
