<?xml version="1.0" encoding="UTF-8" standalone="no"?>
<!DOCTYPE svg PUBLIC "-//W3C//DTD SVG 1.1//EN"
 "http://www.w3.org/Graphics/SVG/1.1/DTD/svg11.dtd">
<!-- Generated by graphviz version 2.38.0 (20140413.2041)
 -->
<!-- Title: TMC2130Stepper::dc_sg Pages: 1 -->
<svg width="981pt" height="192pt"
 viewBox="0.00 0.00 981.00 191.50" xmlns="http://www.w3.org/2000/svg" xmlns:xlink="http://www.w3.org/1999/xlink">
<g id="graph0" class="graph" transform="scale(1 1) rotate(0) translate(4 187.5)">
<title>TMC2130Stepper::dc_sg</title>
<polygon fill="white" stroke="none" points="-4,4 -4,-187.5 977,-187.5 977,4 -4,4"/>
<!-- Node1 -->
<g id="node1" class="node"><title>Node1</title>
<g id="a_node1"><a xlink:title=" ">
<polygon fill="#bfbfbf" stroke="black" points="0,-88 0,-107 124,-107 124,-88 0,-88"/>
<text text-anchor="middle" x="62" y="-95" font-family="Helvetica,sans-Serif" font-size="10.00">TMC2130Stepper::dc_sg</text>
</a>
</g>
</g>
<!-- Node2 -->
<g id="node2" class="node"><title>Node2</title>
<g id="a_node2"><a xlink:href="../../dd/deb/class_t_m_c2130_stepper.html#a1a90b2919efe61dd825552c2fbeca993" target="_top" xlink:title=" ">
<polygon fill="white" stroke="black" points="160,-88 160,-107 295,-107 295,-88 160,-88"/>
<text text-anchor="middle" x="227.5" y="-95" font-family="Helvetica,sans-Serif" font-size="10.00">TMC2130Stepper::DCCTRL</text>
</a>
</g>
</g>
<!-- Node1&#45;&gt;Node2 -->
<g id="edge1" class="edge"><title>Node1&#45;&gt;Node2</title>
<path fill="none" stroke="midnightblue" d="M124.347,-97.5C132.592,-97.5 141.134,-97.5 149.606,-97.5"/>
<polygon fill="midnightblue" stroke="midnightblue" points="149.88,-101 159.88,-97.5 149.88,-94.0001 149.88,-101"/>
</g>
<!-- Node3 -->
<g id="node3" class="node"><title>Node3</title>
<g id="a_node3"><a xlink:href="../../dd/deb/class_t_m_c2130_stepper.html#a161ca6ebe3736454e17e9236572a6001" target="_top" xlink:title=" ">
<polygon fill="white" stroke="black" points="331,-88 331,-107 447,-107 447,-88 331,-88"/>
<text text-anchor="middle" x="389" y="-95" font-family="Helvetica,sans-Serif" font-size="10.00">TMC2130Stepper::read</text>
</a>
</g>
</g>
<!-- Node2&#45;&gt;Node3 -->
<g id="edge2" class="edge"><title>Node2&#45;&gt;Node3</title>
<path fill="none" stroke="midnightblue" d="M295.218,-97.5C303.593,-97.5 312.166,-97.5 320.552,-97.5"/>
<polygon fill="midnightblue" stroke="midnightblue" points="320.663,-101 330.663,-97.5 320.663,-94.0001 320.663,-101"/>
</g>
<!-- Node4 -->
<g id="node4" class="node"><title>Node4</title>
<g id="a_node4"><a xlink:href="../../dd/deb/class_t_m_c2130_stepper.html#a1fc868601a32fb0cd8fc536dafa8ecea" target="_top" xlink:title=" ">
<polygon fill="white" stroke="black" points="483,-164 483,-183 654,-183 654,-164 483,-164"/>
<text text-anchor="middle" x="568.5" y="-171" font-family="Helvetica,sans-Serif" font-size="10.00">TMC2130Stepper::beginTransaction</text>
</a>
</g>
</g>
<!-- Node3&#45;&gt;Node4 -->
<g id="edge3" class="edge"><title>Node3&#45;&gt;Node4</title>
<path fill="none" stroke="midnightblue" d="M402.522,-107.048C419.741,-119.725 452.117,-141.967 483,-154.5 489.272,-157.045 495.951,-159.283 502.7,-161.242"/>
<polygon fill="midnightblue" stroke="midnightblue" points="502.032,-164.687 512.599,-163.918 503.858,-157.93 502.032,-164.687"/>
</g>
<!-- Node5 -->
<g id="node5" class="node"><title>Node5</title>
<g id="a_node5"><a xlink:href="../../dd/deb/class_t_m_c2130_stepper.html#aeace18dcee808585dd4449e783811600" target="_top" xlink:title=" ">
<polygon fill="white" stroke="black" points="486.5,-126 486.5,-145 650.5,-145 650.5,-126 486.5,-126"/>
<text text-anchor="middle" x="568.5" y="-133" font-family="Helvetica,sans-Serif" font-size="10.00">TMC2130Stepper::endTransaction</text>
</a>
</g>
</g>
<!-- Node3&#45;&gt;Node5 -->
<g id="edge4" class="edge"><title>Node3&#45;&gt;Node5</title>
<path fill="none" stroke="midnightblue" d="M434.791,-107.089C458.53,-112.171 487.884,-118.455 512.944,-123.82"/>
<polygon fill="midnightblue" stroke="midnightblue" points="512.52,-127.309 523.031,-125.98 513.986,-120.464 512.52,-127.309"/>
</g>
<!-- Node6 -->
<g id="node6" class="node"><title>Node6</title>
<g id="a_node6"><a xlink:href="../../dd/deb/class_t_m_c2130_stepper.html#a4a8f3b6ac100045ed5f84fe4d18d9d5a" target="_top" xlink:title=" ">
<polygon fill="white" stroke="black" points="492.5,-88 492.5,-107 644.5,-107 644.5,-88 492.5,-88"/>
<text text-anchor="middle" x="568.5" y="-95" font-family="Helvetica,sans-Serif" font-size="10.00">TMC2130Stepper::switchCSpin</text>
</a>
</g>
</g>
<!-- Node3&#45;&gt;Node6 -->
<g id="edge5" class="edge"><title>Node3&#45;&gt;Node6</title>
<path fill="none" stroke="midnightblue" d="M447.139,-97.5C458.27,-97.5 470.163,-97.5 481.981,-97.5"/>
<polygon fill="midnightblue" stroke="midnightblue" points="482.325,-101 492.325,-97.5 482.324,-94.0001 482.325,-101"/>
</g>
<!-- Node7 -->
<g id="node7" class="node"><title>Node7</title>
<g id="a_node7"><a xlink:href="../../dd/deb/class_t_m_c2130_stepper.html#a0673af4887ec52b23aa658aa290f6623" target="_top" xlink:title=" ">
<polygon fill="white" stroke="black" points="690,-28 690,-47 820,-47 820,-28 690,-28"/>
<text text-anchor="middle" x="755" y="-35" font-family="Helvetica,sans-Serif" font-size="10.00">TMC2130Stepper::transfer</text>
</a>
</g>
</g>
<!-- Node3&#45;&gt;Node7 -->
<g id="edge6" class="edge"><title>Node3&#45;&gt;Node7</title>
<path fill="none" stroke="midnightblue" d="M434.378,-87.9498C449.744,-84.7717 467.099,-81.3252 483,-78.5 549.378,-66.7062 625.291,-55.4085 679.852,-47.6702"/>
<polygon fill="midnightblue" stroke="midnightblue" points="680.372,-51.1316 689.784,-46.2674 679.393,-44.2004 680.372,-51.1316"/>
</g>
<!-- Node9 -->
<g id="node9" class="node"><title>Node9</title>
<g id="a_node9"><a xlink:href="../../dd/deb/class_t_m_c2130_stepper.html#aba94fc7bb8e2c8c12191f44561f19d95" target="_top" xlink:title=" ">
<polygon fill="white" stroke="black" points="503.5,-0.5 503.5,-30.5 633.5,-30.5 633.5,-0.5 503.5,-0.5"/>
<text text-anchor="start" x="511.5" y="-18.5" font-family="Helvetica,sans-Serif" font-size="10.00">TMC2130Stepper::transfer</text>
<text text-anchor="middle" x="568.5" y="-7.5" font-family="Helvetica,sans-Serif" font-size="10.00">EmptyBytes</text>
</a>
</g>
</g>
<!-- Node3&#45;&gt;Node9 -->
<g id="edge8" class="edge"><title>Node3&#45;&gt;Node9</title>
<path fill="none" stroke="midnightblue" d="M405.378,-87.8381C423.488,-76.7136 454.694,-58.3277 483,-45.5 491.84,-41.494 501.386,-37.66 510.769,-34.1517"/>
<polygon fill="midnightblue" stroke="midnightblue" points="512.257,-37.3346 520.453,-30.6201 509.859,-30.7583 512.257,-37.3346"/>
</g>
<!-- Node8 -->
<g id="node8" class="node"><title>Node8</title>
<g id="a_node8"><a xlink:href="../../df/d8b/class_s_w___s_p_i_class.html#af260fdc0af3f1312b106483161e559c3" target="_top" xlink:title=" ">
<polygon fill="white" stroke="black" points="856,-28 856,-47 973,-47 973,-28 856,-28"/>
<text text-anchor="middle" x="914.5" y="-35" font-family="Helvetica,sans-Serif" font-size="10.00">SW_SPIClass::transfer</text>
</a>
</g>
</g>
<!-- Node7&#45;&gt;Node8 -->
<g id="edge7" class="edge"><title>Node7&#45;&gt;Node8</title>
<path fill="none" stroke="midnightblue" d="M820.061,-37.5C828.477,-37.5 837.125,-37.5 845.603,-37.5"/>
<polygon fill="midnightblue" stroke="midnightblue" points="845.831,-41.0001 855.831,-37.5 845.831,-34.0001 845.831,-41.0001"/>
</g>
<!-- Node9&#45;&gt;Node7 -->
<g id="edge9" class="edge"><title>Node9&#45;&gt;Node7</title>
<path fill="none" stroke="midnightblue" d="M633.511,-23.1328C648.452,-24.9144 664.487,-26.8263 679.827,-28.6556"/>
<polygon fill="midnightblue" stroke="midnightblue" points="679.445,-32.1347 689.79,-29.8435 680.274,-25.184 679.445,-32.1347"/>
</g>
</g>
</svg>
