<?xml version="1.0" encoding="UTF-8" standalone="no"?>
<!DOCTYPE svg PUBLIC "-//W3C//DTD SVG 1.1//EN"
 "http://www.w3.org/Graphics/SVG/1.1/DTD/svg11.dtd">
<!-- Generated by graphviz version 2.38.0 (20140413.2041)
 -->
<!-- Title: TMC2130Stepper::disfdcc Pages: 1 -->
<svg width="1166pt" height="192pt"
 viewBox="0.00 0.00 1166.00 191.50" xmlns="http://www.w3.org/2000/svg" xmlns:xlink="http://www.w3.org/1999/xlink">
<g id="graph0" class="graph" transform="scale(1 1) rotate(0) translate(4 187.5)">
<title>TMC2130Stepper::disfdcc</title>
<polygon fill="white" stroke="none" points="-4,4 -4,-187.5 1162,-187.5 1162,4 -4,4"/>
<!-- Node1 -->
<g id="node1" class="node"><title>Node1</title>
<g id="a_node1"><a xlink:title=" ">
<polygon fill="#bfbfbf" stroke="black" points="0,-88 0,-107 128,-107 128,-88 0,-88"/>
<text text-anchor="middle" x="64" y="-95" font-family="Helvetica,sans-Serif" font-size="10.00">TMC2130Stepper::disfdcc</text>
</a>
</g>
</g>
<!-- Node2 -->
<g id="node2" class="node"><title>Node2</title>
<g id="a_node2"><a xlink:href="../../dd/deb/class_t_m_c2130_stepper.html#a90753acc1c350c0d130e67a4bd72ab00" target="_top" xlink:title=" ">
<polygon fill="white" stroke="black" points="164,-88 164,-107 292,-107 292,-88 164,-88"/>
<text text-anchor="middle" x="228" y="-95" font-family="Helvetica,sans-Serif" font-size="10.00">TMC2130Stepper::disfdcc</text>
</a>
</g>
</g>
<!-- Node1&#45;&gt;Node2 -->
<g id="edge1" class="edge"><title>Node1&#45;&gt;Node2</title>
<path fill="none" stroke="midnightblue" d="M128.097,-97.5C136.435,-97.5 145.038,-97.5 153.53,-97.5"/>
<polygon fill="midnightblue" stroke="midnightblue" points="153.808,-101 163.808,-97.5 153.808,-94.0001 153.808,-101"/>
</g>
<!-- Node3 -->
<g id="node3" class="node"><title>Node3</title>
<g id="a_node3"><a xlink:href="../../dd/deb/class_t_m_c2130_stepper.html#a67541b27d97ce45f175e9f6e4a2d0bff" target="_top" xlink:title=" ">
<polygon fill="white" stroke="black" points="328,-88 328,-107 480,-107 480,-88 328,-88"/>
<text text-anchor="middle" x="404" y="-95" font-family="Helvetica,sans-Serif" font-size="10.00">TMC2130Stepper::CHOPCONF</text>
</a>
</g>
</g>
<!-- Node2&#45;&gt;Node3 -->
<g id="edge2" class="edge"><title>Node2&#45;&gt;Node3</title>
<path fill="none" stroke="midnightblue" d="M292.31,-97.5C300.621,-97.5 309.245,-97.5 317.844,-97.5"/>
<polygon fill="midnightblue" stroke="midnightblue" points="317.907,-101 327.907,-97.5 317.907,-94.0001 317.907,-101"/>
</g>
<!-- Node4 -->
<g id="node4" class="node"><title>Node4</title>
<g id="a_node4"><a xlink:href="../../dd/deb/class_t_m_c2130_stepper.html#a161ca6ebe3736454e17e9236572a6001" target="_top" xlink:title=" ">
<polygon fill="white" stroke="black" points="516,-88 516,-107 632,-107 632,-88 516,-88"/>
<text text-anchor="middle" x="574" y="-95" font-family="Helvetica,sans-Serif" font-size="10.00">TMC2130Stepper::read</text>
</a>
</g>
</g>
<!-- Node3&#45;&gt;Node4 -->
<g id="edge3" class="edge"><title>Node3&#45;&gt;Node4</title>
<path fill="none" stroke="midnightblue" d="M480.155,-97.5C488.664,-97.5 497.296,-97.5 505.696,-97.5"/>
<polygon fill="midnightblue" stroke="midnightblue" points="505.802,-101 515.802,-97.5 505.802,-94.0001 505.802,-101"/>
</g>
<!-- Node5 -->
<g id="node5" class="node"><title>Node5</title>
<g id="a_node5"><a xlink:href="../../dd/deb/class_t_m_c2130_stepper.html#a1fc868601a32fb0cd8fc536dafa8ecea" target="_top" xlink:title=" ">
<polygon fill="white" stroke="black" points="668,-164 668,-183 839,-183 839,-164 668,-164"/>
<text text-anchor="middle" x="753.5" y="-171" font-family="Helvetica,sans-Serif" font-size="10.00">TMC2130Stepper::beginTransaction</text>
</a>
</g>
</g>
<!-- Node4&#45;&gt;Node5 -->
<g id="edge4" class="edge"><title>Node4&#45;&gt;Node5</title>
<path fill="none" stroke="midnightblue" d="M587.522,-107.048C604.741,-119.725 637.117,-141.967 668,-154.5 674.272,-157.045 680.951,-159.283 687.7,-161.242"/>
<polygon fill="midnightblue" stroke="midnightblue" points="687.032,-164.687 697.599,-163.918 688.858,-157.93 687.032,-164.687"/>
</g>
<!-- Node6 -->
<g id="node6" class="node"><title>Node6</title>
<g id="a_node6"><a xlink:href="../../dd/deb/class_t_m_c2130_stepper.html#aeace18dcee808585dd4449e783811600" target="_top" xlink:title=" ">
<polygon fill="white" stroke="black" points="671.5,-126 671.5,-145 835.5,-145 835.5,-126 671.5,-126"/>
<text text-anchor="middle" x="753.5" y="-133" font-family="Helvetica,sans-Serif" font-size="10.00">TMC2130Stepper::endTransaction</text>
</a>
</g>
</g>
<!-- Node4&#45;&gt;Node6 -->
<g id="edge5" class="edge"><title>Node4&#45;&gt;Node6</title>
<path fill="none" stroke="midnightblue" d="M619.791,-107.089C643.53,-112.171 672.884,-118.455 697.944,-123.82"/>
<polygon fill="midnightblue" stroke="midnightblue" points="697.52,-127.309 708.031,-125.98 698.986,-120.464 697.52,-127.309"/>
</g>
<!-- Node7 -->
<g id="node7" class="node"><title>Node7</title>
<g id="a_node7"><a xlink:href="../../dd/deb/class_t_m_c2130_stepper.html#a4a8f3b6ac100045ed5f84fe4d18d9d5a" target="_top" xlink:title=" ">
<polygon fill="white" stroke="black" points="677.5,-88 677.5,-107 829.5,-107 829.5,-88 677.5,-88"/>
<text text-anchor="middle" x="753.5" y="-95" font-family="Helvetica,sans-Serif" font-size="10.00">TMC2130Stepper::switchCSpin</text>
</a>
</g>
</g>
<!-- Node4&#45;&gt;Node7 -->
<g id="edge6" class="edge"><title>Node4&#45;&gt;Node7</title>
<path fill="none" stroke="midnightblue" d="M632.139,-97.5C643.27,-97.5 655.163,-97.5 666.981,-97.5"/>
<polygon fill="midnightblue" stroke="midnightblue" points="667.325,-101 677.325,-97.5 667.324,-94.0001 667.325,-101"/>
</g>
<!-- Node8 -->
<g id="node8" class="node"><title>Node8</title>
<g id="a_node8"><a xlink:href="../../dd/deb/class_t_m_c2130_stepper.html#a0673af4887ec52b23aa658aa290f6623" target="_top" xlink:title=" ">
<polygon fill="white" stroke="black" points="875,-28 875,-47 1005,-47 1005,-28 875,-28"/>
<text text-anchor="middle" x="940" y="-35" font-family="Helvetica,sans-Serif" font-size="10.00">TMC2130Stepper::transfer</text>
</a>
</g>
</g>
<!-- Node4&#45;&gt;Node8 -->
<g id="edge7" class="edge"><title>Node4&#45;&gt;Node8</title>
<path fill="none" stroke="midnightblue" d="M619.378,-87.9498C634.744,-84.7717 652.099,-81.3252 668,-78.5 734.378,-66.7062 810.291,-55.4085 864.852,-47.6702"/>
<polygon fill="midnightblue" stroke="midnightblue" points="865.372,-51.1316 874.784,-46.2674 864.393,-44.2004 865.372,-51.1316"/>
</g>
<!-- Node10 -->
<g id="node10" class="node"><title>Node10</title>
<g id="a_node10"><a xlink:href="../../dd/deb/class_t_m_c2130_stepper.html#aba94fc7bb8e2c8c12191f44561f19d95" target="_top" xlink:title=" ">
<polygon fill="white" stroke="black" points="688.5,-0.5 688.5,-30.5 818.5,-30.5 818.5,-0.5 688.5,-0.5"/>
<text text-anchor="start" x="696.5" y="-18.5" font-family="Helvetica,sans-Serif" font-size="10.00">TMC2130Stepper::transfer</text>
<text text-anchor="middle" x="753.5" y="-7.5" font-family="Helvetica,sans-Serif" font-size="10.00">EmptyBytes</text>
</a>
</g>
</g>
<!-- Node4&#45;&gt;Node10 -->
<g id="edge9" class="edge"><title>Node4&#45;&gt;Node10</title>
<path fill="none" stroke="midnightblue" d="M590.378,-87.8381C608.488,-76.7136 639.694,-58.3277 668,-45.5 676.84,-41.494 686.386,-37.66 695.769,-34.1517"/>
<polygon fill="midnightblue" stroke="midnightblue" points="697.257,-37.3346 705.453,-30.6201 694.859,-30.7583 697.257,-37.3346"/>
</g>
<!-- Node9 -->
<g id="node9" class="node"><title>Node9</title>
<g id="a_node9"><a xlink:href="../../df/d8b/class_s_w___s_p_i_class.html#af260fdc0af3f1312b106483161e559c3" target="_top" xlink:title=" ">
<polygon fill="white" stroke="black" points="1041,-28 1041,-47 1158,-47 1158,-28 1041,-28"/>
<text text-anchor="middle" x="1099.5" y="-35" font-family="Helvetica,sans-Serif" font-size="10.00">SW_SPIClass::transfer</text>
</a>
</g>
</g>
<!-- Node8&#45;&gt;Node9 -->
<g id="edge8" class="edge"><title>Node8&#45;&gt;Node9</title>
<path fill="none" stroke="midnightblue" d="M1005.06,-37.5C1013.48,-37.5 1022.13,-37.5 1030.6,-37.5"/>
<polygon fill="midnightblue" stroke="midnightblue" points="1030.83,-41.0001 1040.83,-37.5 1030.83,-34.0001 1030.83,-41.0001"/>
</g>
<!-- Node10&#45;&gt;Node8 -->
<g id="edge10" class="edge"><title>Node10&#45;&gt;Node8</title>
<path fill="none" stroke="midnightblue" d="M818.511,-23.1328C833.452,-24.9144 849.487,-26.8263 864.827,-28.6556"/>
<polygon fill="midnightblue" stroke="midnightblue" points="864.445,-32.1347 874.79,-29.8435 865.274,-25.184 864.445,-32.1347"/>
</g>
</g>
</svg>
