<?xml version="1.0" encoding="UTF-8" standalone="no"?>
<!DOCTYPE svg PUBLIC "-//W3C//DTD SVG 1.1//EN"
 "http://www.w3.org/Graphics/SVG/1.1/DTD/svg11.dtd">
<!-- Generated by graphviz version 2.38.0 (20140413.2041)
 -->
<!-- Title: TMC2130Stepper::shaft Pages: 1 -->
<svg width="973pt" height="192pt"
 viewBox="0.00 0.00 973.00 191.50" xmlns="http://www.w3.org/2000/svg" xmlns:xlink="http://www.w3.org/1999/xlink">
<g id="graph0" class="graph" transform="scale(1 1) rotate(0) translate(4 187.5)">
<title>TMC2130Stepper::shaft</title>
<polygon fill="white" stroke="none" points="-4,4 -4,-187.5 969,-187.5 969,4 -4,4"/>
<!-- Node1 -->
<g id="node1" class="node"><title>Node1</title>
<g id="a_node1"><a xlink:title=" ">
<polygon fill="#bfbfbf" stroke="black" points="0,-88 0,-107 119,-107 119,-88 0,-88"/>
<text text-anchor="middle" x="59.5" y="-95" font-family="Helvetica,sans-Serif" font-size="10.00">TMC2130Stepper::shaft</text>
</a>
</g>
</g>
<!-- Node2 -->
<g id="node2" class="node"><title>Node2</title>
<g id="a_node2"><a xlink:href="../../dd/deb/class_t_m_c2130_stepper.html#aee84a9abfc84b387c6ae5658f90bf684" target="_top" xlink:title=" ">
<polygon fill="white" stroke="black" points="155,-88 155,-107 287,-107 287,-88 155,-88"/>
<text text-anchor="middle" x="221" y="-95" font-family="Helvetica,sans-Serif" font-size="10.00">TMC2130Stepper::GCONF</text>
</a>
</g>
</g>
<!-- Node1&#45;&gt;Node2 -->
<g id="edge1" class="edge"><title>Node1&#45;&gt;Node2</title>
<path fill="none" stroke="midnightblue" d="M119.439,-97.5C127.64,-97.5 136.158,-97.5 144.61,-97.5"/>
<polygon fill="midnightblue" stroke="midnightblue" points="144.861,-101 154.861,-97.5 144.861,-94.0001 144.861,-101"/>
</g>
<!-- Node3 -->
<g id="node3" class="node"><title>Node3</title>
<g id="a_node3"><a xlink:href="../../dd/deb/class_t_m_c2130_stepper.html#a161ca6ebe3736454e17e9236572a6001" target="_top" xlink:title=" ">
<polygon fill="white" stroke="black" points="323,-88 323,-107 439,-107 439,-88 323,-88"/>
<text text-anchor="middle" x="381" y="-95" font-family="Helvetica,sans-Serif" font-size="10.00">TMC2130Stepper::read</text>
</a>
</g>
</g>
<!-- Node2&#45;&gt;Node3 -->
<g id="edge2" class="edge"><title>Node2&#45;&gt;Node3</title>
<path fill="none" stroke="midnightblue" d="M287.177,-97.5C295.517,-97.5 304.069,-97.5 312.445,-97.5"/>
<polygon fill="midnightblue" stroke="midnightblue" points="312.55,-101 322.55,-97.5 312.55,-94.0001 312.55,-101"/>
</g>
<!-- Node4 -->
<g id="node4" class="node"><title>Node4</title>
<g id="a_node4"><a xlink:href="../../dd/deb/class_t_m_c2130_stepper.html#a1fc868601a32fb0cd8fc536dafa8ecea" target="_top" xlink:title=" ">
<polygon fill="white" stroke="black" points="475,-164 475,-183 646,-183 646,-164 475,-164"/>
<text text-anchor="middle" x="560.5" y="-171" font-family="Helvetica,sans-Serif" font-size="10.00">TMC2130Stepper::beginTransaction</text>
</a>
</g>
</g>
<!-- Node3&#45;&gt;Node4 -->
<g id="edge3" class="edge"><title>Node3&#45;&gt;Node4</title>
<path fill="none" stroke="midnightblue" d="M394.522,-107.048C411.741,-119.725 444.117,-141.967 475,-154.5 481.272,-157.045 487.951,-159.283 494.7,-161.242"/>
<polygon fill="midnightblue" stroke="midnightblue" points="494.032,-164.687 504.599,-163.918 495.858,-157.93 494.032,-164.687"/>
</g>
<!-- Node5 -->
<g id="node5" class="node"><title>Node5</title>
<g id="a_node5"><a xlink:href="../../dd/deb/class_t_m_c2130_stepper.html#aeace18dcee808585dd4449e783811600" target="_top" xlink:title=" ">
<polygon fill="white" stroke="black" points="478.5,-126 478.5,-145 642.5,-145 642.5,-126 478.5,-126"/>
<text text-anchor="middle" x="560.5" y="-133" font-family="Helvetica,sans-Serif" font-size="10.00">TMC2130Stepper::endTransaction</text>
</a>
</g>
</g>
<!-- Node3&#45;&gt;Node5 -->
<g id="edge4" class="edge"><title>Node3&#45;&gt;Node5</title>
<path fill="none" stroke="midnightblue" d="M426.791,-107.089C450.53,-112.171 479.884,-118.455 504.944,-123.82"/>
<polygon fill="midnightblue" stroke="midnightblue" points="504.52,-127.309 515.031,-125.98 505.986,-120.464 504.52,-127.309"/>
</g>
<!-- Node6 -->
<g id="node6" class="node"><title>Node6</title>
<g id="a_node6"><a xlink:href="../../dd/deb/class_t_m_c2130_stepper.html#a4a8f3b6ac100045ed5f84fe4d18d9d5a" target="_top" xlink:title=" ">
<polygon fill="white" stroke="black" points="484.5,-88 484.5,-107 636.5,-107 636.5,-88 484.5,-88"/>
<text text-anchor="middle" x="560.5" y="-95" font-family="Helvetica,sans-Serif" font-size="10.00">TMC2130Stepper::switchCSpin</text>
</a>
</g>
</g>
<!-- Node3&#45;&gt;Node6 -->
<g id="edge5" class="edge"><title>Node3&#45;&gt;Node6</title>
<path fill="none" stroke="midnightblue" d="M439.139,-97.5C450.27,-97.5 462.163,-97.5 473.981,-97.5"/>
<polygon fill="midnightblue" stroke="midnightblue" points="474.325,-101 484.325,-97.5 474.324,-94.0001 474.325,-101"/>
</g>
<!-- Node7 -->
<g id="node7" class="node"><title>Node7</title>
<g id="a_node7"><a xlink:href="../../dd/deb/class_t_m_c2130_stepper.html#a0673af4887ec52b23aa658aa290f6623" target="_top" xlink:title=" ">
<polygon fill="white" stroke="black" points="682,-28 682,-47 812,-47 812,-28 682,-28"/>
<text text-anchor="middle" x="747" y="-35" font-family="Helvetica,sans-Serif" font-size="10.00">TMC2130Stepper::transfer</text>
</a>
</g>
</g>
<!-- Node3&#45;&gt;Node7 -->
<g id="edge6" class="edge"><title>Node3&#45;&gt;Node7</title>
<path fill="none" stroke="midnightblue" d="M426.378,-87.9498C441.744,-84.7717 459.099,-81.3252 475,-78.5 541.378,-66.7062 617.291,-55.4085 671.852,-47.6702"/>
<polygon fill="midnightblue" stroke="midnightblue" points="672.372,-51.1316 681.784,-46.2674 671.393,-44.2004 672.372,-51.1316"/>
</g>
<!-- Node9 -->
<g id="node9" class="node"><title>Node9</title>
<g id="a_node9"><a xlink:href="../../dd/deb/class_t_m_c2130_stepper.html#aba94fc7bb8e2c8c12191f44561f19d95" target="_top" xlink:title=" ">
<polygon fill="white" stroke="black" points="495.5,-0.5 495.5,-30.5 625.5,-30.5 625.5,-0.5 495.5,-0.5"/>
<text text-anchor="start" x="503.5" y="-18.5" font-family="Helvetica,sans-Serif" font-size="10.00">TMC2130Stepper::transfer</text>
<text text-anchor="middle" x="560.5" y="-7.5" font-family="Helvetica,sans-Serif" font-size="10.00">EmptyBytes</text>
</a>
</g>
</g>
<!-- Node3&#45;&gt;Node9 -->
<g id="edge8" class="edge"><title>Node3&#45;&gt;Node9</title>
<path fill="none" stroke="midnightblue" d="M397.378,-87.8381C415.488,-76.7136 446.694,-58.3277 475,-45.5 483.84,-41.494 493.386,-37.66 502.769,-34.1517"/>
<polygon fill="midnightblue" stroke="midnightblue" points="504.257,-37.3346 512.453,-30.6201 501.859,-30.7583 504.257,-37.3346"/>
</g>
<!-- Node8 -->
<g id="node8" class="node"><title>Node8</title>
<g id="a_node8"><a xlink:href="../../df/d8b/class_s_w___s_p_i_class.html#af260fdc0af3f1312b106483161e559c3" target="_top" xlink:title=" ">
<polygon fill="white" stroke="black" points="848,-28 848,-47 965,-47 965,-28 848,-28"/>
<text text-anchor="middle" x="906.5" y="-35" font-family="Helvetica,sans-Serif" font-size="10.00">SW_SPIClass::transfer</text>
</a>
</g>
</g>
<!-- Node7&#45;&gt;Node8 -->
<g id="edge7" class="edge"><title>Node7&#45;&gt;Node8</title>
<path fill="none" stroke="midnightblue" d="M812.061,-37.5C820.477,-37.5 829.125,-37.5 837.603,-37.5"/>
<polygon fill="midnightblue" stroke="midnightblue" points="837.831,-41.0001 847.831,-37.5 837.831,-34.0001 837.831,-41.0001"/>
</g>
<!-- Node9&#45;&gt;Node7 -->
<g id="edge9" class="edge"><title>Node9&#45;&gt;Node7</title>
<path fill="none" stroke="midnightblue" d="M625.511,-23.1328C640.452,-24.9144 656.487,-26.8263 671.827,-28.6556"/>
<polygon fill="midnightblue" stroke="midnightblue" points="671.445,-32.1347 681.79,-29.8435 672.274,-25.184 671.445,-32.1347"/>
</g>
</g>
</svg>
