<?xml version="1.0" encoding="UTF-8" standalone="no"?>
<!DOCTYPE svg PUBLIC "-//W3C//DTD SVG 1.1//EN"
 "http://www.w3.org/Graphics/SVG/1.1/DTD/svg11.dtd">
<!-- Generated by graphviz version 2.38.0 (20140413.2041)
 -->
<!-- Title: TMC2130Stepper::hstrt Pages: 1 -->
<svg width="991pt" height="192pt"
 viewBox="0.00 0.00 991.00 191.50" xmlns="http://www.w3.org/2000/svg" xmlns:xlink="http://www.w3.org/1999/xlink">
<g id="graph0" class="graph" transform="scale(1 1) rotate(0) translate(4 187.5)">
<title>TMC2130Stepper::hstrt</title>
<polygon fill="white" stroke="none" points="-4,4 -4,-187.5 987,-187.5 987,4 -4,4"/>
<!-- Node1 -->
<g id="node1" class="node"><title>Node1</title>
<g id="a_node1"><a xlink:title=" ">
<polygon fill="#bfbfbf" stroke="black" points="0,-88 0,-107 117,-107 117,-88 0,-88"/>
<text text-anchor="middle" x="58.5" y="-95" font-family="Helvetica,sans-Serif" font-size="10.00">TMC2130Stepper::hstrt</text>
</a>
</g>
</g>
<!-- Node2 -->
<g id="node2" class="node"><title>Node2</title>
<g id="a_node2"><a xlink:href="../../dd/deb/class_t_m_c2130_stepper.html#a67541b27d97ce45f175e9f6e4a2d0bff" target="_top" xlink:title=" ">
<polygon fill="white" stroke="black" points="153,-88 153,-107 305,-107 305,-88 153,-88"/>
<text text-anchor="middle" x="229" y="-95" font-family="Helvetica,sans-Serif" font-size="10.00">TMC2130Stepper::CHOPCONF</text>
</a>
</g>
</g>
<!-- Node1&#45;&gt;Node2 -->
<g id="edge1" class="edge"><title>Node1&#45;&gt;Node2</title>
<path fill="none" stroke="midnightblue" d="M117.017,-97.5C125.308,-97.5 133.985,-97.5 142.677,-97.5"/>
<polygon fill="midnightblue" stroke="midnightblue" points="142.866,-101 152.866,-97.5 142.866,-94.0001 142.866,-101"/>
</g>
<!-- Node3 -->
<g id="node3" class="node"><title>Node3</title>
<g id="a_node3"><a xlink:href="../../dd/deb/class_t_m_c2130_stepper.html#a161ca6ebe3736454e17e9236572a6001" target="_top" xlink:title=" ">
<polygon fill="white" stroke="black" points="341,-88 341,-107 457,-107 457,-88 341,-88"/>
<text text-anchor="middle" x="399" y="-95" font-family="Helvetica,sans-Serif" font-size="10.00">TMC2130Stepper::read</text>
</a>
</g>
</g>
<!-- Node2&#45;&gt;Node3 -->
<g id="edge2" class="edge"><title>Node2&#45;&gt;Node3</title>
<path fill="none" stroke="midnightblue" d="M305.155,-97.5C313.664,-97.5 322.296,-97.5 330.696,-97.5"/>
<polygon fill="midnightblue" stroke="midnightblue" points="330.802,-101 340.802,-97.5 330.802,-94.0001 330.802,-101"/>
</g>
<!-- Node4 -->
<g id="node4" class="node"><title>Node4</title>
<g id="a_node4"><a xlink:href="../../dd/deb/class_t_m_c2130_stepper.html#a1fc868601a32fb0cd8fc536dafa8ecea" target="_top" xlink:title=" ">
<polygon fill="white" stroke="black" points="493,-164 493,-183 664,-183 664,-164 493,-164"/>
<text text-anchor="middle" x="578.5" y="-171" font-family="Helvetica,sans-Serif" font-size="10.00">TMC2130Stepper::beginTransaction</text>
</a>
</g>
</g>
<!-- Node3&#45;&gt;Node4 -->
<g id="edge3" class="edge"><title>Node3&#45;&gt;Node4</title>
<path fill="none" stroke="midnightblue" d="M412.522,-107.048C429.741,-119.725 462.117,-141.967 493,-154.5 499.272,-157.045 505.951,-159.283 512.7,-161.242"/>
<polygon fill="midnightblue" stroke="midnightblue" points="512.032,-164.687 522.599,-163.918 513.858,-157.93 512.032,-164.687"/>
</g>
<!-- Node5 -->
<g id="node5" class="node"><title>Node5</title>
<g id="a_node5"><a xlink:href="../../dd/deb/class_t_m_c2130_stepper.html#aeace18dcee808585dd4449e783811600" target="_top" xlink:title=" ">
<polygon fill="white" stroke="black" points="496.5,-126 496.5,-145 660.5,-145 660.5,-126 496.5,-126"/>
<text text-anchor="middle" x="578.5" y="-133" font-family="Helvetica,sans-Serif" font-size="10.00">TMC2130Stepper::endTransaction</text>
</a>
</g>
</g>
<!-- Node3&#45;&gt;Node5 -->
<g id="edge4" class="edge"><title>Node3&#45;&gt;Node5</title>
<path fill="none" stroke="midnightblue" d="M444.791,-107.089C468.53,-112.171 497.884,-118.455 522.944,-123.82"/>
<polygon fill="midnightblue" stroke="midnightblue" points="522.52,-127.309 533.031,-125.98 523.986,-120.464 522.52,-127.309"/>
</g>
<!-- Node6 -->
<g id="node6" class="node"><title>Node6</title>
<g id="a_node6"><a xlink:href="../../dd/deb/class_t_m_c2130_stepper.html#a4a8f3b6ac100045ed5f84fe4d18d9d5a" target="_top" xlink:title=" ">
<polygon fill="white" stroke="black" points="502.5,-88 502.5,-107 654.5,-107 654.5,-88 502.5,-88"/>
<text text-anchor="middle" x="578.5" y="-95" font-family="Helvetica,sans-Serif" font-size="10.00">TMC2130Stepper::switchCSpin</text>
</a>
</g>
</g>
<!-- Node3&#45;&gt;Node6 -->
<g id="edge5" class="edge"><title>Node3&#45;&gt;Node6</title>
<path fill="none" stroke="midnightblue" d="M457.139,-97.5C468.27,-97.5 480.163,-97.5 491.981,-97.5"/>
<polygon fill="midnightblue" stroke="midnightblue" points="492.325,-101 502.325,-97.5 492.324,-94.0001 492.325,-101"/>
</g>
<!-- Node7 -->
<g id="node7" class="node"><title>Node7</title>
<g id="a_node7"><a xlink:href="../../dd/deb/class_t_m_c2130_stepper.html#a0673af4887ec52b23aa658aa290f6623" target="_top" xlink:title=" ">
<polygon fill="white" stroke="black" points="700,-28 700,-47 830,-47 830,-28 700,-28"/>
<text text-anchor="middle" x="765" y="-35" font-family="Helvetica,sans-Serif" font-size="10.00">TMC2130Stepper::transfer</text>
</a>
</g>
</g>
<!-- Node3&#45;&gt;Node7 -->
<g id="edge6" class="edge"><title>Node3&#45;&gt;Node7</title>
<path fill="none" stroke="midnightblue" d="M444.378,-87.9498C459.744,-84.7717 477.099,-81.3252 493,-78.5 559.378,-66.7062 635.291,-55.4085 689.852,-47.6702"/>
<polygon fill="midnightblue" stroke="midnightblue" points="690.372,-51.1316 699.784,-46.2674 689.393,-44.2004 690.372,-51.1316"/>
</g>
<!-- Node9 -->
<g id="node9" class="node"><title>Node9</title>
<g id="a_node9"><a xlink:href="../../dd/deb/class_t_m_c2130_stepper.html#aba94fc7bb8e2c8c12191f44561f19d95" target="_top" xlink:title=" ">
<polygon fill="white" stroke="black" points="513.5,-0.5 513.5,-30.5 643.5,-30.5 643.5,-0.5 513.5,-0.5"/>
<text text-anchor="start" x="521.5" y="-18.5" font-family="Helvetica,sans-Serif" font-size="10.00">TMC2130Stepper::transfer</text>
<text text-anchor="middle" x="578.5" y="-7.5" font-family="Helvetica,sans-Serif" font-size="10.00">EmptyBytes</text>
</a>
</g>
</g>
<!-- Node3&#45;&gt;Node9 -->
<g id="edge8" class="edge"><title>Node3&#45;&gt;Node9</title>
<path fill="none" stroke="midnightblue" d="M415.378,-87.8381C433.488,-76.7136 464.694,-58.3277 493,-45.5 501.84,-41.494 511.386,-37.66 520.769,-34.1517"/>
<polygon fill="midnightblue" stroke="midnightblue" points="522.257,-37.3346 530.453,-30.6201 519.859,-30.7583 522.257,-37.3346"/>
</g>
<!-- Node8 -->
<g id="node8" class="node"><title>Node8</title>
<g id="a_node8"><a xlink:href="../../df/d8b/class_s_w___s_p_i_class.html#af260fdc0af3f1312b106483161e559c3" target="_top" xlink:title=" ">
<polygon fill="white" stroke="black" points="866,-28 866,-47 983,-47 983,-28 866,-28"/>
<text text-anchor="middle" x="924.5" y="-35" font-family="Helvetica,sans-Serif" font-size="10.00">SW_SPIClass::transfer</text>
</a>
</g>
</g>
<!-- Node7&#45;&gt;Node8 -->
<g id="edge7" class="edge"><title>Node7&#45;&gt;Node8</title>
<path fill="none" stroke="midnightblue" d="M830.061,-37.5C838.477,-37.5 847.125,-37.5 855.603,-37.5"/>
<polygon fill="midnightblue" stroke="midnightblue" points="855.831,-41.0001 865.831,-37.5 855.831,-34.0001 855.831,-41.0001"/>
</g>
<!-- Node9&#45;&gt;Node7 -->
<g id="edge9" class="edge"><title>Node9&#45;&gt;Node7</title>
<path fill="none" stroke="midnightblue" d="M643.511,-23.1328C658.452,-24.9144 674.487,-26.8263 689.827,-28.6556"/>
<polygon fill="midnightblue" stroke="midnightblue" points="689.445,-32.1347 699.79,-29.8435 690.274,-25.184 689.445,-32.1347"/>
</g>
</g>
</svg>
