<?xml version="1.0" encoding="UTF-8" standalone="no"?>
<!DOCTYPE svg PUBLIC "-//W3C//DTD SVG 1.1//EN"
 "http://www.w3.org/Graphics/SVG/1.1/DTD/svg11.dtd">
<!-- Generated by graphviz version 2.38.0 (20140413.2041)
 -->
<!-- Title: TMC2130Stepper::vhighfs Pages: 1 -->
<svg width="1164pt" height="192pt"
 viewBox="0.00 0.00 1164.00 191.50" xmlns="http://www.w3.org/2000/svg" xmlns:xlink="http://www.w3.org/1999/xlink">
<g id="graph0" class="graph" transform="scale(1 1) rotate(0) translate(4 187.5)">
<title>TMC2130Stepper::vhighfs</title>
<polygon fill="white" stroke="none" points="-4,4 -4,-187.5 1160,-187.5 1160,4 -4,4"/>
<!-- Node1 -->
<g id="node1" class="node"><title>Node1</title>
<g id="a_node1"><a xlink:title=" ">
<polygon fill="#bfbfbf" stroke="black" points="0,-88 0,-107 127,-107 127,-88 0,-88"/>
<text text-anchor="middle" x="63.5" y="-95" font-family="Helvetica,sans-Serif" font-size="10.00">TMC2130Stepper::vhighfs</text>
</a>
</g>
</g>
<!-- Node2 -->
<g id="node2" class="node"><title>Node2</title>
<g id="a_node2"><a xlink:href="../../dd/deb/class_t_m_c2130_stepper.html#ae7e437dd00948f511047ea6ee9386718" target="_top" xlink:title=" ">
<polygon fill="white" stroke="black" points="163,-88 163,-107 290,-107 290,-88 163,-88"/>
<text text-anchor="middle" x="226.5" y="-95" font-family="Helvetica,sans-Serif" font-size="10.00">TMC2130Stepper::vhighfs</text>
</a>
</g>
</g>
<!-- Node1&#45;&gt;Node2 -->
<g id="edge1" class="edge"><title>Node1&#45;&gt;Node2</title>
<path fill="none" stroke="midnightblue" d="M127.208,-97.5C135.648,-97.5 144.363,-97.5 152.956,-97.5"/>
<polygon fill="midnightblue" stroke="midnightblue" points="152.963,-101 162.963,-97.5 152.963,-94.0001 152.963,-101"/>
</g>
<!-- Node3 -->
<g id="node3" class="node"><title>Node3</title>
<g id="a_node3"><a xlink:href="../../dd/deb/class_t_m_c2130_stepper.html#a67541b27d97ce45f175e9f6e4a2d0bff" target="_top" xlink:title=" ">
<polygon fill="white" stroke="black" points="326,-88 326,-107 478,-107 478,-88 326,-88"/>
<text text-anchor="middle" x="402" y="-95" font-family="Helvetica,sans-Serif" font-size="10.00">TMC2130Stepper::CHOPCONF</text>
</a>
</g>
</g>
<!-- Node2&#45;&gt;Node3 -->
<g id="edge2" class="edge"><title>Node2&#45;&gt;Node3</title>
<path fill="none" stroke="midnightblue" d="M290.137,-97.5C298.44,-97.5 307.062,-97.5 315.665,-97.5"/>
<polygon fill="midnightblue" stroke="midnightblue" points="315.736,-101 325.736,-97.5 315.736,-94.0001 315.736,-101"/>
</g>
<!-- Node4 -->
<g id="node4" class="node"><title>Node4</title>
<g id="a_node4"><a xlink:href="../../dd/deb/class_t_m_c2130_stepper.html#a161ca6ebe3736454e17e9236572a6001" target="_top" xlink:title=" ">
<polygon fill="white" stroke="black" points="514,-88 514,-107 630,-107 630,-88 514,-88"/>
<text text-anchor="middle" x="572" y="-95" font-family="Helvetica,sans-Serif" font-size="10.00">TMC2130Stepper::read</text>
</a>
</g>
</g>
<!-- Node3&#45;&gt;Node4 -->
<g id="edge3" class="edge"><title>Node3&#45;&gt;Node4</title>
<path fill="none" stroke="midnightblue" d="M478.155,-97.5C486.664,-97.5 495.296,-97.5 503.696,-97.5"/>
<polygon fill="midnightblue" stroke="midnightblue" points="503.802,-101 513.802,-97.5 503.802,-94.0001 503.802,-101"/>
</g>
<!-- Node5 -->
<g id="node5" class="node"><title>Node5</title>
<g id="a_node5"><a xlink:href="../../dd/deb/class_t_m_c2130_stepper.html#a1fc868601a32fb0cd8fc536dafa8ecea" target="_top" xlink:title=" ">
<polygon fill="white" stroke="black" points="666,-164 666,-183 837,-183 837,-164 666,-164"/>
<text text-anchor="middle" x="751.5" y="-171" font-family="Helvetica,sans-Serif" font-size="10.00">TMC2130Stepper::beginTransaction</text>
</a>
</g>
</g>
<!-- Node4&#45;&gt;Node5 -->
<g id="edge4" class="edge"><title>Node4&#45;&gt;Node5</title>
<path fill="none" stroke="midnightblue" d="M585.522,-107.048C602.741,-119.725 635.117,-141.967 666,-154.5 672.272,-157.045 678.951,-159.283 685.7,-161.242"/>
<polygon fill="midnightblue" stroke="midnightblue" points="685.032,-164.687 695.599,-163.918 686.858,-157.93 685.032,-164.687"/>
</g>
<!-- Node6 -->
<g id="node6" class="node"><title>Node6</title>
<g id="a_node6"><a xlink:href="../../dd/deb/class_t_m_c2130_stepper.html#aeace18dcee808585dd4449e783811600" target="_top" xlink:title=" ">
<polygon fill="white" stroke="black" points="669.5,-126 669.5,-145 833.5,-145 833.5,-126 669.5,-126"/>
<text text-anchor="middle" x="751.5" y="-133" font-family="Helvetica,sans-Serif" font-size="10.00">TMC2130Stepper::endTransaction</text>
</a>
</g>
</g>
<!-- Node4&#45;&gt;Node6 -->
<g id="edge5" class="edge"><title>Node4&#45;&gt;Node6</title>
<path fill="none" stroke="midnightblue" d="M617.791,-107.089C641.53,-112.171 670.884,-118.455 695.944,-123.82"/>
<polygon fill="midnightblue" stroke="midnightblue" points="695.52,-127.309 706.031,-125.98 696.986,-120.464 695.52,-127.309"/>
</g>
<!-- Node7 -->
<g id="node7" class="node"><title>Node7</title>
<g id="a_node7"><a xlink:href="../../dd/deb/class_t_m_c2130_stepper.html#a4a8f3b6ac100045ed5f84fe4d18d9d5a" target="_top" xlink:title=" ">
<polygon fill="white" stroke="black" points="675.5,-88 675.5,-107 827.5,-107 827.5,-88 675.5,-88"/>
<text text-anchor="middle" x="751.5" y="-95" font-family="Helvetica,sans-Serif" font-size="10.00">TMC2130Stepper::switchCSpin</text>
</a>
</g>
</g>
<!-- Node4&#45;&gt;Node7 -->
<g id="edge6" class="edge"><title>Node4&#45;&gt;Node7</title>
<path fill="none" stroke="midnightblue" d="M630.139,-97.5C641.27,-97.5 653.163,-97.5 664.981,-97.5"/>
<polygon fill="midnightblue" stroke="midnightblue" points="665.325,-101 675.325,-97.5 665.324,-94.0001 665.325,-101"/>
</g>
<!-- Node8 -->
<g id="node8" class="node"><title>Node8</title>
<g id="a_node8"><a xlink:href="../../dd/deb/class_t_m_c2130_stepper.html#a0673af4887ec52b23aa658aa290f6623" target="_top" xlink:title=" ">
<polygon fill="white" stroke="black" points="873,-28 873,-47 1003,-47 1003,-28 873,-28"/>
<text text-anchor="middle" x="938" y="-35" font-family="Helvetica,sans-Serif" font-size="10.00">TMC2130Stepper::transfer</text>
</a>
</g>
</g>
<!-- Node4&#45;&gt;Node8 -->
<g id="edge7" class="edge"><title>Node4&#45;&gt;Node8</title>
<path fill="none" stroke="midnightblue" d="M617.378,-87.9498C632.744,-84.7717 650.099,-81.3252 666,-78.5 732.378,-66.7062 808.291,-55.4085 862.852,-47.6702"/>
<polygon fill="midnightblue" stroke="midnightblue" points="863.372,-51.1316 872.784,-46.2674 862.393,-44.2004 863.372,-51.1316"/>
</g>
<!-- Node10 -->
<g id="node10" class="node"><title>Node10</title>
<g id="a_node10"><a xlink:href="../../dd/deb/class_t_m_c2130_stepper.html#aba94fc7bb8e2c8c12191f44561f19d95" target="_top" xlink:title=" ">
<polygon fill="white" stroke="black" points="686.5,-0.5 686.5,-30.5 816.5,-30.5 816.5,-0.5 686.5,-0.5"/>
<text text-anchor="start" x="694.5" y="-18.5" font-family="Helvetica,sans-Serif" font-size="10.00">TMC2130Stepper::transfer</text>
<text text-anchor="middle" x="751.5" y="-7.5" font-family="Helvetica,sans-Serif" font-size="10.00">EmptyBytes</text>
</a>
</g>
</g>
<!-- Node4&#45;&gt;Node10 -->
<g id="edge9" class="edge"><title>Node4&#45;&gt;Node10</title>
<path fill="none" stroke="midnightblue" d="M588.378,-87.8381C606.488,-76.7136 637.694,-58.3277 666,-45.5 674.84,-41.494 684.386,-37.66 693.769,-34.1517"/>
<polygon fill="midnightblue" stroke="midnightblue" points="695.257,-37.3346 703.453,-30.6201 692.859,-30.7583 695.257,-37.3346"/>
</g>
<!-- Node9 -->
<g id="node9" class="node"><title>Node9</title>
<g id="a_node9"><a xlink:href="../../df/d8b/class_s_w___s_p_i_class.html#af260fdc0af3f1312b106483161e559c3" target="_top" xlink:title=" ">
<polygon fill="white" stroke="black" points="1039,-28 1039,-47 1156,-47 1156,-28 1039,-28"/>
<text text-anchor="middle" x="1097.5" y="-35" font-family="Helvetica,sans-Serif" font-size="10.00">SW_SPIClass::transfer</text>
</a>
</g>
</g>
<!-- Node8&#45;&gt;Node9 -->
<g id="edge8" class="edge"><title>Node8&#45;&gt;Node9</title>
<path fill="none" stroke="midnightblue" d="M1003.06,-37.5C1011.48,-37.5 1020.13,-37.5 1028.6,-37.5"/>
<polygon fill="midnightblue" stroke="midnightblue" points="1028.83,-41.0001 1038.83,-37.5 1028.83,-34.0001 1028.83,-41.0001"/>
</g>
<!-- Node10&#45;&gt;Node8 -->
<g id="edge10" class="edge"><title>Node10&#45;&gt;Node8</title>
<path fill="none" stroke="midnightblue" d="M816.511,-23.1328C831.452,-24.9144 847.487,-26.8263 862.827,-28.6556"/>
<polygon fill="midnightblue" stroke="midnightblue" points="862.445,-32.1347 872.79,-29.8435 863.274,-25.184 862.445,-32.1347"/>
</g>
</g>
</svg>
