<?xml version="1.0" encoding="UTF-8" standalone="no"?>
<!DOCTYPE svg PUBLIC "-//W3C//DTD SVG 1.1//EN"
 "http://www.w3.org/Graphics/SVG/1.1/DTD/svg11.dtd">
<!-- Generated by graphviz version 2.38.0 (20140413.2041)
 -->
<!-- Title: TMC2130Stepper::intpol Pages: 1 -->
<svg width="995pt" height="192pt"
 viewBox="0.00 0.00 995.00 191.50" xmlns="http://www.w3.org/2000/svg" xmlns:xlink="http://www.w3.org/1999/xlink">
<g id="graph0" class="graph" transform="scale(1 1) rotate(0) translate(4 187.5)">
<title>TMC2130Stepper::intpol</title>
<polygon fill="white" stroke="none" points="-4,4 -4,-187.5 991,-187.5 991,4 -4,4"/>
<!-- Node1 -->
<g id="node1" class="node"><title>Node1</title>
<g id="a_node1"><a xlink:title=" ">
<polygon fill="#bfbfbf" stroke="black" points="0,-88 0,-107 121,-107 121,-88 0,-88"/>
<text text-anchor="middle" x="60.5" y="-95" font-family="Helvetica,sans-Serif" font-size="10.00">TMC2130Stepper::intpol</text>
</a>
</g>
</g>
<!-- Node2 -->
<g id="node2" class="node"><title>Node2</title>
<g id="a_node2"><a xlink:href="../../dd/deb/class_t_m_c2130_stepper.html#a67541b27d97ce45f175e9f6e4a2d0bff" target="_top" xlink:title=" ">
<polygon fill="white" stroke="black" points="157,-88 157,-107 309,-107 309,-88 157,-88"/>
<text text-anchor="middle" x="233" y="-95" font-family="Helvetica,sans-Serif" font-size="10.00">TMC2130Stepper::CHOPCONF</text>
</a>
</g>
</g>
<!-- Node1&#45;&gt;Node2 -->
<g id="edge1" class="edge"><title>Node1&#45;&gt;Node2</title>
<path fill="none" stroke="midnightblue" d="M121.133,-97.5C129.415,-97.5 138.053,-97.5 146.692,-97.5"/>
<polygon fill="midnightblue" stroke="midnightblue" points="146.813,-101 156.813,-97.5 146.813,-94.0001 146.813,-101"/>
</g>
<!-- Node3 -->
<g id="node3" class="node"><title>Node3</title>
<g id="a_node3"><a xlink:href="../../dd/deb/class_t_m_c2130_stepper.html#a161ca6ebe3736454e17e9236572a6001" target="_top" xlink:title=" ">
<polygon fill="white" stroke="black" points="345,-88 345,-107 461,-107 461,-88 345,-88"/>
<text text-anchor="middle" x="403" y="-95" font-family="Helvetica,sans-Serif" font-size="10.00">TMC2130Stepper::read</text>
</a>
</g>
</g>
<!-- Node2&#45;&gt;Node3 -->
<g id="edge2" class="edge"><title>Node2&#45;&gt;Node3</title>
<path fill="none" stroke="midnightblue" d="M309.155,-97.5C317.664,-97.5 326.296,-97.5 334.696,-97.5"/>
<polygon fill="midnightblue" stroke="midnightblue" points="334.802,-101 344.802,-97.5 334.802,-94.0001 334.802,-101"/>
</g>
<!-- Node4 -->
<g id="node4" class="node"><title>Node4</title>
<g id="a_node4"><a xlink:href="../../dd/deb/class_t_m_c2130_stepper.html#a1fc868601a32fb0cd8fc536dafa8ecea" target="_top" xlink:title=" ">
<polygon fill="white" stroke="black" points="497,-164 497,-183 668,-183 668,-164 497,-164"/>
<text text-anchor="middle" x="582.5" y="-171" font-family="Helvetica,sans-Serif" font-size="10.00">TMC2130Stepper::beginTransaction</text>
</a>
</g>
</g>
<!-- Node3&#45;&gt;Node4 -->
<g id="edge3" class="edge"><title>Node3&#45;&gt;Node4</title>
<path fill="none" stroke="midnightblue" d="M416.522,-107.048C433.741,-119.725 466.117,-141.967 497,-154.5 503.272,-157.045 509.951,-159.283 516.7,-161.242"/>
<polygon fill="midnightblue" stroke="midnightblue" points="516.032,-164.687 526.599,-163.918 517.858,-157.93 516.032,-164.687"/>
</g>
<!-- Node5 -->
<g id="node5" class="node"><title>Node5</title>
<g id="a_node5"><a xlink:href="../../dd/deb/class_t_m_c2130_stepper.html#aeace18dcee808585dd4449e783811600" target="_top" xlink:title=" ">
<polygon fill="white" stroke="black" points="500.5,-126 500.5,-145 664.5,-145 664.5,-126 500.5,-126"/>
<text text-anchor="middle" x="582.5" y="-133" font-family="Helvetica,sans-Serif" font-size="10.00">TMC2130Stepper::endTransaction</text>
</a>
</g>
</g>
<!-- Node3&#45;&gt;Node5 -->
<g id="edge4" class="edge"><title>Node3&#45;&gt;Node5</title>
<path fill="none" stroke="midnightblue" d="M448.791,-107.089C472.53,-112.171 501.884,-118.455 526.944,-123.82"/>
<polygon fill="midnightblue" stroke="midnightblue" points="526.52,-127.309 537.031,-125.98 527.986,-120.464 526.52,-127.309"/>
</g>
<!-- Node6 -->
<g id="node6" class="node"><title>Node6</title>
<g id="a_node6"><a xlink:href="../../dd/deb/class_t_m_c2130_stepper.html#a4a8f3b6ac100045ed5f84fe4d18d9d5a" target="_top" xlink:title=" ">
<polygon fill="white" stroke="black" points="506.5,-88 506.5,-107 658.5,-107 658.5,-88 506.5,-88"/>
<text text-anchor="middle" x="582.5" y="-95" font-family="Helvetica,sans-Serif" font-size="10.00">TMC2130Stepper::switchCSpin</text>
</a>
</g>
</g>
<!-- Node3&#45;&gt;Node6 -->
<g id="edge5" class="edge"><title>Node3&#45;&gt;Node6</title>
<path fill="none" stroke="midnightblue" d="M461.139,-97.5C472.27,-97.5 484.163,-97.5 495.981,-97.5"/>
<polygon fill="midnightblue" stroke="midnightblue" points="496.325,-101 506.325,-97.5 496.324,-94.0001 496.325,-101"/>
</g>
<!-- Node7 -->
<g id="node7" class="node"><title>Node7</title>
<g id="a_node7"><a xlink:href="../../dd/deb/class_t_m_c2130_stepper.html#a0673af4887ec52b23aa658aa290f6623" target="_top" xlink:title=" ">
<polygon fill="white" stroke="black" points="704,-28 704,-47 834,-47 834,-28 704,-28"/>
<text text-anchor="middle" x="769" y="-35" font-family="Helvetica,sans-Serif" font-size="10.00">TMC2130Stepper::transfer</text>
</a>
</g>
</g>
<!-- Node3&#45;&gt;Node7 -->
<g id="edge6" class="edge"><title>Node3&#45;&gt;Node7</title>
<path fill="none" stroke="midnightblue" d="M448.378,-87.9498C463.744,-84.7717 481.099,-81.3252 497,-78.5 563.378,-66.7062 639.291,-55.4085 693.852,-47.6702"/>
<polygon fill="midnightblue" stroke="midnightblue" points="694.372,-51.1316 703.784,-46.2674 693.393,-44.2004 694.372,-51.1316"/>
</g>
<!-- Node9 -->
<g id="node9" class="node"><title>Node9</title>
<g id="a_node9"><a xlink:href="../../dd/deb/class_t_m_c2130_stepper.html#aba94fc7bb8e2c8c12191f44561f19d95" target="_top" xlink:title=" ">
<polygon fill="white" stroke="black" points="517.5,-0.5 517.5,-30.5 647.5,-30.5 647.5,-0.5 517.5,-0.5"/>
<text text-anchor="start" x="525.5" y="-18.5" font-family="Helvetica,sans-Serif" font-size="10.00">TMC2130Stepper::transfer</text>
<text text-anchor="middle" x="582.5" y="-7.5" font-family="Helvetica,sans-Serif" font-size="10.00">EmptyBytes</text>
</a>
</g>
</g>
<!-- Node3&#45;&gt;Node9 -->
<g id="edge8" class="edge"><title>Node3&#45;&gt;Node9</title>
<path fill="none" stroke="midnightblue" d="M419.378,-87.8381C437.488,-76.7136 468.694,-58.3277 497,-45.5 505.84,-41.494 515.386,-37.66 524.769,-34.1517"/>
<polygon fill="midnightblue" stroke="midnightblue" points="526.257,-37.3346 534.453,-30.6201 523.859,-30.7583 526.257,-37.3346"/>
</g>
<!-- Node8 -->
<g id="node8" class="node"><title>Node8</title>
<g id="a_node8"><a xlink:href="../../df/d8b/class_s_w___s_p_i_class.html#af260fdc0af3f1312b106483161e559c3" target="_top" xlink:title=" ">
<polygon fill="white" stroke="black" points="870,-28 870,-47 987,-47 987,-28 870,-28"/>
<text text-anchor="middle" x="928.5" y="-35" font-family="Helvetica,sans-Serif" font-size="10.00">SW_SPIClass::transfer</text>
</a>
</g>
</g>
<!-- Node7&#45;&gt;Node8 -->
<g id="edge7" class="edge"><title>Node7&#45;&gt;Node8</title>
<path fill="none" stroke="midnightblue" d="M834.061,-37.5C842.477,-37.5 851.125,-37.5 859.603,-37.5"/>
<polygon fill="midnightblue" stroke="midnightblue" points="859.831,-41.0001 869.831,-37.5 859.831,-34.0001 859.831,-41.0001"/>
</g>
<!-- Node9&#45;&gt;Node7 -->
<g id="edge9" class="edge"><title>Node9&#45;&gt;Node7</title>
<path fill="none" stroke="midnightblue" d="M647.511,-23.1328C662.452,-24.9144 678.487,-26.8263 693.827,-28.6556"/>
<polygon fill="midnightblue" stroke="midnightblue" points="693.445,-32.1347 703.79,-29.8435 694.274,-25.184 693.445,-32.1347"/>
</g>
</g>
</svg>
