<?xml version="1.0" encoding="UTF-8" standalone="no"?>
<!DOCTYPE svg PUBLIC "-//W3C//DTD SVG 1.1//EN"
 "http://www.w3.org/Graphics/SVG/1.1/DTD/svg11.dtd">
<!-- Generated by graphviz version 2.38.0 (20140413.2041)
 -->
<!-- Title: TMC2130Stepper::direct_mode Pages: 1 -->
<svg width="1192pt" height="192pt"
 viewBox="0.00 0.00 1192.00 191.50" xmlns="http://www.w3.org/2000/svg" xmlns:xlink="http://www.w3.org/1999/xlink">
<g id="graph0" class="graph" transform="scale(1 1) rotate(0) translate(4 187.5)">
<title>TMC2130Stepper::direct_mode</title>
<polygon fill="white" stroke="none" points="-4,4 -4,-187.5 1188,-187.5 1188,4 -4,4"/>
<!-- Node1 -->
<g id="node1" class="node"><title>Node1</title>
<g id="a_node1"><a xlink:title=" ">
<polygon fill="#bfbfbf" stroke="black" points="0,-88 0,-107 151,-107 151,-88 0,-88"/>
<text text-anchor="middle" x="75.5" y="-95" font-family="Helvetica,sans-Serif" font-size="10.00">TMC2130Stepper::direct_mode</text>
</a>
</g>
</g>
<!-- Node2 -->
<g id="node2" class="node"><title>Node2</title>
<g id="a_node2"><a xlink:href="../../dd/deb/class_t_m_c2130_stepper.html#a6dc182cb867bbeaf8ce2476e74d90679" target="_top" xlink:title=" ">
<polygon fill="white" stroke="black" points="187,-88 187,-107 338,-107 338,-88 187,-88"/>
<text text-anchor="middle" x="262.5" y="-95" font-family="Helvetica,sans-Serif" font-size="10.00">TMC2130Stepper::direct_mode</text>
</a>
</g>
</g>
<!-- Node1&#45;&gt;Node2 -->
<g id="edge1" class="edge"><title>Node1&#45;&gt;Node2</title>
<path fill="none" stroke="midnightblue" d="M151.213,-97.5C159.555,-97.5 168.097,-97.5 176.554,-97.5"/>
<polygon fill="midnightblue" stroke="midnightblue" points="176.809,-101 186.809,-97.5 176.809,-94.0001 176.809,-101"/>
</g>
<!-- Node3 -->
<g id="node3" class="node"><title>Node3</title>
<g id="a_node3"><a xlink:href="../../dd/deb/class_t_m_c2130_stepper.html#aee84a9abfc84b387c6ae5658f90bf684" target="_top" xlink:title=" ">
<polygon fill="white" stroke="black" points="374,-88 374,-107 506,-107 506,-88 374,-88"/>
<text text-anchor="middle" x="440" y="-95" font-family="Helvetica,sans-Serif" font-size="10.00">TMC2130Stepper::GCONF</text>
</a>
</g>
</g>
<!-- Node2&#45;&gt;Node3 -->
<g id="edge2" class="edge"><title>Node2&#45;&gt;Node3</title>
<path fill="none" stroke="midnightblue" d="M338.182,-97.5C346.606,-97.5 355.194,-97.5 363.626,-97.5"/>
<polygon fill="midnightblue" stroke="midnightblue" points="363.813,-101 373.813,-97.5 363.812,-94.0001 363.813,-101"/>
</g>
<!-- Node4 -->
<g id="node4" class="node"><title>Node4</title>
<g id="a_node4"><a xlink:href="../../dd/deb/class_t_m_c2130_stepper.html#a161ca6ebe3736454e17e9236572a6001" target="_top" xlink:title=" ">
<polygon fill="white" stroke="black" points="542,-88 542,-107 658,-107 658,-88 542,-88"/>
<text text-anchor="middle" x="600" y="-95" font-family="Helvetica,sans-Serif" font-size="10.00">TMC2130Stepper::read</text>
</a>
</g>
</g>
<!-- Node3&#45;&gt;Node4 -->
<g id="edge3" class="edge"><title>Node3&#45;&gt;Node4</title>
<path fill="none" stroke="midnightblue" d="M506.177,-97.5C514.517,-97.5 523.069,-97.5 531.445,-97.5"/>
<polygon fill="midnightblue" stroke="midnightblue" points="531.55,-101 541.55,-97.5 531.55,-94.0001 531.55,-101"/>
</g>
<!-- Node5 -->
<g id="node5" class="node"><title>Node5</title>
<g id="a_node5"><a xlink:href="../../dd/deb/class_t_m_c2130_stepper.html#a1fc868601a32fb0cd8fc536dafa8ecea" target="_top" xlink:title=" ">
<polygon fill="white" stroke="black" points="694,-164 694,-183 865,-183 865,-164 694,-164"/>
<text text-anchor="middle" x="779.5" y="-171" font-family="Helvetica,sans-Serif" font-size="10.00">TMC2130Stepper::beginTransaction</text>
</a>
</g>
</g>
<!-- Node4&#45;&gt;Node5 -->
<g id="edge4" class="edge"><title>Node4&#45;&gt;Node5</title>
<path fill="none" stroke="midnightblue" d="M613.522,-107.048C630.741,-119.725 663.117,-141.967 694,-154.5 700.272,-157.045 706.951,-159.283 713.7,-161.242"/>
<polygon fill="midnightblue" stroke="midnightblue" points="713.032,-164.687 723.599,-163.918 714.858,-157.93 713.032,-164.687"/>
</g>
<!-- Node6 -->
<g id="node6" class="node"><title>Node6</title>
<g id="a_node6"><a xlink:href="../../dd/deb/class_t_m_c2130_stepper.html#aeace18dcee808585dd4449e783811600" target="_top" xlink:title=" ">
<polygon fill="white" stroke="black" points="697.5,-126 697.5,-145 861.5,-145 861.5,-126 697.5,-126"/>
<text text-anchor="middle" x="779.5" y="-133" font-family="Helvetica,sans-Serif" font-size="10.00">TMC2130Stepper::endTransaction</text>
</a>
</g>
</g>
<!-- Node4&#45;&gt;Node6 -->
<g id="edge5" class="edge"><title>Node4&#45;&gt;Node6</title>
<path fill="none" stroke="midnightblue" d="M645.791,-107.089C669.53,-112.171 698.884,-118.455 723.944,-123.82"/>
<polygon fill="midnightblue" stroke="midnightblue" points="723.52,-127.309 734.031,-125.98 724.986,-120.464 723.52,-127.309"/>
</g>
<!-- Node7 -->
<g id="node7" class="node"><title>Node7</title>
<g id="a_node7"><a xlink:href="../../dd/deb/class_t_m_c2130_stepper.html#a4a8f3b6ac100045ed5f84fe4d18d9d5a" target="_top" xlink:title=" ">
<polygon fill="white" stroke="black" points="703.5,-88 703.5,-107 855.5,-107 855.5,-88 703.5,-88"/>
<text text-anchor="middle" x="779.5" y="-95" font-family="Helvetica,sans-Serif" font-size="10.00">TMC2130Stepper::switchCSpin</text>
</a>
</g>
</g>
<!-- Node4&#45;&gt;Node7 -->
<g id="edge6" class="edge"><title>Node4&#45;&gt;Node7</title>
<path fill="none" stroke="midnightblue" d="M658.139,-97.5C669.27,-97.5 681.163,-97.5 692.981,-97.5"/>
<polygon fill="midnightblue" stroke="midnightblue" points="693.325,-101 703.325,-97.5 693.324,-94.0001 693.325,-101"/>
</g>
<!-- Node8 -->
<g id="node8" class="node"><title>Node8</title>
<g id="a_node8"><a xlink:href="../../dd/deb/class_t_m_c2130_stepper.html#a0673af4887ec52b23aa658aa290f6623" target="_top" xlink:title=" ">
<polygon fill="white" stroke="black" points="901,-28 901,-47 1031,-47 1031,-28 901,-28"/>
<text text-anchor="middle" x="966" y="-35" font-family="Helvetica,sans-Serif" font-size="10.00">TMC2130Stepper::transfer</text>
</a>
</g>
</g>
<!-- Node4&#45;&gt;Node8 -->
<g id="edge7" class="edge"><title>Node4&#45;&gt;Node8</title>
<path fill="none" stroke="midnightblue" d="M645.378,-87.9498C660.744,-84.7717 678.099,-81.3252 694,-78.5 760.378,-66.7062 836.291,-55.4085 890.852,-47.6702"/>
<polygon fill="midnightblue" stroke="midnightblue" points="891.372,-51.1316 900.784,-46.2674 890.393,-44.2004 891.372,-51.1316"/>
</g>
<!-- Node10 -->
<g id="node10" class="node"><title>Node10</title>
<g id="a_node10"><a xlink:href="../../dd/deb/class_t_m_c2130_stepper.html#aba94fc7bb8e2c8c12191f44561f19d95" target="_top" xlink:title=" ">
<polygon fill="white" stroke="black" points="714.5,-0.5 714.5,-30.5 844.5,-30.5 844.5,-0.5 714.5,-0.5"/>
<text text-anchor="start" x="722.5" y="-18.5" font-family="Helvetica,sans-Serif" font-size="10.00">TMC2130Stepper::transfer</text>
<text text-anchor="middle" x="779.5" y="-7.5" font-family="Helvetica,sans-Serif" font-size="10.00">EmptyBytes</text>
</a>
</g>
</g>
<!-- Node4&#45;&gt;Node10 -->
<g id="edge9" class="edge"><title>Node4&#45;&gt;Node10</title>
<path fill="none" stroke="midnightblue" d="M616.378,-87.8381C634.488,-76.7136 665.694,-58.3277 694,-45.5 702.84,-41.494 712.386,-37.66 721.769,-34.1517"/>
<polygon fill="midnightblue" stroke="midnightblue" points="723.257,-37.3346 731.453,-30.6201 720.859,-30.7583 723.257,-37.3346"/>
</g>
<!-- Node9 -->
<g id="node9" class="node"><title>Node9</title>
<g id="a_node9"><a xlink:href="../../df/d8b/class_s_w___s_p_i_class.html#af260fdc0af3f1312b106483161e559c3" target="_top" xlink:title=" ">
<polygon fill="white" stroke="black" points="1067,-28 1067,-47 1184,-47 1184,-28 1067,-28"/>
<text text-anchor="middle" x="1125.5" y="-35" font-family="Helvetica,sans-Serif" font-size="10.00">SW_SPIClass::transfer</text>
</a>
</g>
</g>
<!-- Node8&#45;&gt;Node9 -->
<g id="edge8" class="edge"><title>Node8&#45;&gt;Node9</title>
<path fill="none" stroke="midnightblue" d="M1031.06,-37.5C1039.48,-37.5 1048.13,-37.5 1056.6,-37.5"/>
<polygon fill="midnightblue" stroke="midnightblue" points="1056.83,-41.0001 1066.83,-37.5 1056.83,-34.0001 1056.83,-41.0001"/>
</g>
<!-- Node10&#45;&gt;Node8 -->
<g id="edge10" class="edge"><title>Node10&#45;&gt;Node8</title>
<path fill="none" stroke="midnightblue" d="M844.511,-23.1328C859.452,-24.9144 875.487,-26.8263 890.827,-28.6556"/>
<polygon fill="midnightblue" stroke="midnightblue" points="890.445,-32.1347 900.79,-29.8435 891.274,-25.184 890.445,-32.1347"/>
</g>
</g>
</svg>
