<?xml version="1.0" encoding="UTF-8" standalone="no"?>
<!DOCTYPE svg PUBLIC "-//W3C//DTD SVG 1.1//EN"
 "http://www.w3.org/Graphics/SVG/1.1/DTD/svg11.dtd">
<!-- Generated by graphviz version 2.38.0 (20140413.2041)
 -->
<!-- Title: TMC2130Stepper::vhighchm Pages: 1 -->
<svg width="1012pt" height="192pt"
 viewBox="0.00 0.00 1012.00 191.50" xmlns="http://www.w3.org/2000/svg" xmlns:xlink="http://www.w3.org/1999/xlink">
<g id="graph0" class="graph" transform="scale(1 1) rotate(0) translate(4 187.5)">
<title>TMC2130Stepper::vhighchm</title>
<polygon fill="white" stroke="none" points="-4,4 -4,-187.5 1008,-187.5 1008,4 -4,4"/>
<!-- Node1 -->
<g id="node1" class="node"><title>Node1</title>
<g id="a_node1"><a xlink:title=" ">
<polygon fill="#bfbfbf" stroke="black" points="0,-88 0,-107 138,-107 138,-88 0,-88"/>
<text text-anchor="middle" x="69" y="-95" font-family="Helvetica,sans-Serif" font-size="10.00">TMC2130Stepper::vhighchm</text>
</a>
</g>
</g>
<!-- Node2 -->
<g id="node2" class="node"><title>Node2</title>
<g id="a_node2"><a xlink:href="../../dd/deb/class_t_m_c2130_stepper.html#a67541b27d97ce45f175e9f6e4a2d0bff" target="_top" xlink:title=" ">
<polygon fill="white" stroke="black" points="174,-88 174,-107 326,-107 326,-88 174,-88"/>
<text text-anchor="middle" x="250" y="-95" font-family="Helvetica,sans-Serif" font-size="10.00">TMC2130Stepper::CHOPCONF</text>
</a>
</g>
</g>
<!-- Node1&#45;&gt;Node2 -->
<g id="edge1" class="edge"><title>Node1&#45;&gt;Node2</title>
<path fill="none" stroke="midnightblue" d="M138.183,-97.5C146.562,-97.5 155.206,-97.5 163.798,-97.5"/>
<polygon fill="midnightblue" stroke="midnightblue" points="163.84,-101 173.84,-97.5 163.84,-94.0001 163.84,-101"/>
</g>
<!-- Node3 -->
<g id="node3" class="node"><title>Node3</title>
<g id="a_node3"><a xlink:href="../../dd/deb/class_t_m_c2130_stepper.html#a161ca6ebe3736454e17e9236572a6001" target="_top" xlink:title=" ">
<polygon fill="white" stroke="black" points="362,-88 362,-107 478,-107 478,-88 362,-88"/>
<text text-anchor="middle" x="420" y="-95" font-family="Helvetica,sans-Serif" font-size="10.00">TMC2130Stepper::read</text>
</a>
</g>
</g>
<!-- Node2&#45;&gt;Node3 -->
<g id="edge2" class="edge"><title>Node2&#45;&gt;Node3</title>
<path fill="none" stroke="midnightblue" d="M326.155,-97.5C334.664,-97.5 343.296,-97.5 351.696,-97.5"/>
<polygon fill="midnightblue" stroke="midnightblue" points="351.802,-101 361.802,-97.5 351.802,-94.0001 351.802,-101"/>
</g>
<!-- Node4 -->
<g id="node4" class="node"><title>Node4</title>
<g id="a_node4"><a xlink:href="../../dd/deb/class_t_m_c2130_stepper.html#a1fc868601a32fb0cd8fc536dafa8ecea" target="_top" xlink:title=" ">
<polygon fill="white" stroke="black" points="514,-164 514,-183 685,-183 685,-164 514,-164"/>
<text text-anchor="middle" x="599.5" y="-171" font-family="Helvetica,sans-Serif" font-size="10.00">TMC2130Stepper::beginTransaction</text>
</a>
</g>
</g>
<!-- Node3&#45;&gt;Node4 -->
<g id="edge3" class="edge"><title>Node3&#45;&gt;Node4</title>
<path fill="none" stroke="midnightblue" d="M433.522,-107.048C450.741,-119.725 483.117,-141.967 514,-154.5 520.272,-157.045 526.951,-159.283 533.7,-161.242"/>
<polygon fill="midnightblue" stroke="midnightblue" points="533.032,-164.687 543.599,-163.918 534.858,-157.93 533.032,-164.687"/>
</g>
<!-- Node5 -->
<g id="node5" class="node"><title>Node5</title>
<g id="a_node5"><a xlink:href="../../dd/deb/class_t_m_c2130_stepper.html#aeace18dcee808585dd4449e783811600" target="_top" xlink:title=" ">
<polygon fill="white" stroke="black" points="517.5,-126 517.5,-145 681.5,-145 681.5,-126 517.5,-126"/>
<text text-anchor="middle" x="599.5" y="-133" font-family="Helvetica,sans-Serif" font-size="10.00">TMC2130Stepper::endTransaction</text>
</a>
</g>
</g>
<!-- Node3&#45;&gt;Node5 -->
<g id="edge4" class="edge"><title>Node3&#45;&gt;Node5</title>
<path fill="none" stroke="midnightblue" d="M465.791,-107.089C489.53,-112.171 518.884,-118.455 543.944,-123.82"/>
<polygon fill="midnightblue" stroke="midnightblue" points="543.52,-127.309 554.031,-125.98 544.986,-120.464 543.52,-127.309"/>
</g>
<!-- Node6 -->
<g id="node6" class="node"><title>Node6</title>
<g id="a_node6"><a xlink:href="../../dd/deb/class_t_m_c2130_stepper.html#a4a8f3b6ac100045ed5f84fe4d18d9d5a" target="_top" xlink:title=" ">
<polygon fill="white" stroke="black" points="523.5,-88 523.5,-107 675.5,-107 675.5,-88 523.5,-88"/>
<text text-anchor="middle" x="599.5" y="-95" font-family="Helvetica,sans-Serif" font-size="10.00">TMC2130Stepper::switchCSpin</text>
</a>
</g>
</g>
<!-- Node3&#45;&gt;Node6 -->
<g id="edge5" class="edge"><title>Node3&#45;&gt;Node6</title>
<path fill="none" stroke="midnightblue" d="M478.139,-97.5C489.27,-97.5 501.163,-97.5 512.981,-97.5"/>
<polygon fill="midnightblue" stroke="midnightblue" points="513.325,-101 523.325,-97.5 513.324,-94.0001 513.325,-101"/>
</g>
<!-- Node7 -->
<g id="node7" class="node"><title>Node7</title>
<g id="a_node7"><a xlink:href="../../dd/deb/class_t_m_c2130_stepper.html#a0673af4887ec52b23aa658aa290f6623" target="_top" xlink:title=" ">
<polygon fill="white" stroke="black" points="721,-28 721,-47 851,-47 851,-28 721,-28"/>
<text text-anchor="middle" x="786" y="-35" font-family="Helvetica,sans-Serif" font-size="10.00">TMC2130Stepper::transfer</text>
</a>
</g>
</g>
<!-- Node3&#45;&gt;Node7 -->
<g id="edge6" class="edge"><title>Node3&#45;&gt;Node7</title>
<path fill="none" stroke="midnightblue" d="M465.378,-87.9498C480.744,-84.7717 498.099,-81.3252 514,-78.5 580.378,-66.7062 656.291,-55.4085 710.852,-47.6702"/>
<polygon fill="midnightblue" stroke="midnightblue" points="711.372,-51.1316 720.784,-46.2674 710.393,-44.2004 711.372,-51.1316"/>
</g>
<!-- Node9 -->
<g id="node9" class="node"><title>Node9</title>
<g id="a_node9"><a xlink:href="../../dd/deb/class_t_m_c2130_stepper.html#aba94fc7bb8e2c8c12191f44561f19d95" target="_top" xlink:title=" ">
<polygon fill="white" stroke="black" points="534.5,-0.5 534.5,-30.5 664.5,-30.5 664.5,-0.5 534.5,-0.5"/>
<text text-anchor="start" x="542.5" y="-18.5" font-family="Helvetica,sans-Serif" font-size="10.00">TMC2130Stepper::transfer</text>
<text text-anchor="middle" x="599.5" y="-7.5" font-family="Helvetica,sans-Serif" font-size="10.00">EmptyBytes</text>
</a>
</g>
</g>
<!-- Node3&#45;&gt;Node9 -->
<g id="edge8" class="edge"><title>Node3&#45;&gt;Node9</title>
<path fill="none" stroke="midnightblue" d="M436.378,-87.8381C454.488,-76.7136 485.694,-58.3277 514,-45.5 522.84,-41.494 532.386,-37.66 541.769,-34.1517"/>
<polygon fill="midnightblue" stroke="midnightblue" points="543.257,-37.3346 551.453,-30.6201 540.859,-30.7583 543.257,-37.3346"/>
</g>
<!-- Node8 -->
<g id="node8" class="node"><title>Node8</title>
<g id="a_node8"><a xlink:href="../../df/d8b/class_s_w___s_p_i_class.html#af260fdc0af3f1312b106483161e559c3" target="_top" xlink:title=" ">
<polygon fill="white" stroke="black" points="887,-28 887,-47 1004,-47 1004,-28 887,-28"/>
<text text-anchor="middle" x="945.5" y="-35" font-family="Helvetica,sans-Serif" font-size="10.00">SW_SPIClass::transfer</text>
</a>
</g>
</g>
<!-- Node7&#45;&gt;Node8 -->
<g id="edge7" class="edge"><title>Node7&#45;&gt;Node8</title>
<path fill="none" stroke="midnightblue" d="M851.061,-37.5C859.477,-37.5 868.125,-37.5 876.603,-37.5"/>
<polygon fill="midnightblue" stroke="midnightblue" points="876.831,-41.0001 886.831,-37.5 876.831,-34.0001 876.831,-41.0001"/>
</g>
<!-- Node9&#45;&gt;Node7 -->
<g id="edge9" class="edge"><title>Node9&#45;&gt;Node7</title>
<path fill="none" stroke="midnightblue" d="M664.511,-23.1328C679.452,-24.9144 695.487,-26.8263 710.827,-28.6556"/>
<polygon fill="midnightblue" stroke="midnightblue" points="710.445,-32.1347 720.79,-29.8435 711.274,-25.184 710.445,-32.1347"/>
</g>
</g>
</svg>
