<?xml version="1.0" encoding="UTF-8" standalone="no"?>
<!DOCTYPE svg PUBLIC "-//W3C//DTD SVG 1.1//EN"
 "http://www.w3.org/Graphics/SVG/1.1/DTD/svg11.dtd">
<!-- Generated by graphviz version 2.38.0 (20140413.2041)
 -->
<!-- Title: TMC2130Stepper::chm Pages: 1 -->
<svg width="1142pt" height="192pt"
 viewBox="0.00 0.00 1142.00 191.50" xmlns="http://www.w3.org/2000/svg" xmlns:xlink="http://www.w3.org/1999/xlink">
<g id="graph0" class="graph" transform="scale(1 1) rotate(0) translate(4 187.5)">
<title>TMC2130Stepper::chm</title>
<polygon fill="white" stroke="none" points="-4,4 -4,-187.5 1138,-187.5 1138,4 -4,4"/>
<!-- Node1 -->
<g id="node1" class="node"><title>Node1</title>
<g id="a_node1"><a xlink:title=" ">
<polygon fill="#bfbfbf" stroke="black" points="0,-88 0,-107 116,-107 116,-88 0,-88"/>
<text text-anchor="middle" x="58" y="-95" font-family="Helvetica,sans-Serif" font-size="10.00">TMC2130Stepper::chm</text>
</a>
</g>
</g>
<!-- Node2 -->
<g id="node2" class="node"><title>Node2</title>
<g id="a_node2"><a xlink:href="../../dd/deb/class_t_m_c2130_stepper.html#a141275c7de1c4bbbe7fe27bd785716bc" target="_top" xlink:title=" ">
<polygon fill="white" stroke="black" points="152,-88 152,-107 268,-107 268,-88 152,-88"/>
<text text-anchor="middle" x="210" y="-95" font-family="Helvetica,sans-Serif" font-size="10.00">TMC2130Stepper::chm</text>
</a>
</g>
</g>
<!-- Node1&#45;&gt;Node2 -->
<g id="edge1" class="edge"><title>Node1&#45;&gt;Node2</title>
<path fill="none" stroke="midnightblue" d="M116.136,-97.5C124.377,-97.5 132.923,-97.5 141.344,-97.5"/>
<polygon fill="midnightblue" stroke="midnightblue" points="141.526,-101 151.525,-97.5 141.525,-94.0001 141.526,-101"/>
</g>
<!-- Node3 -->
<g id="node3" class="node"><title>Node3</title>
<g id="a_node3"><a xlink:href="../../dd/deb/class_t_m_c2130_stepper.html#a67541b27d97ce45f175e9f6e4a2d0bff" target="_top" xlink:title=" ">
<polygon fill="white" stroke="black" points="304,-88 304,-107 456,-107 456,-88 304,-88"/>
<text text-anchor="middle" x="380" y="-95" font-family="Helvetica,sans-Serif" font-size="10.00">TMC2130Stepper::CHOPCONF</text>
</a>
</g>
</g>
<!-- Node2&#45;&gt;Node3 -->
<g id="edge2" class="edge"><title>Node2&#45;&gt;Node3</title>
<path fill="none" stroke="midnightblue" d="M268.346,-97.5C276.545,-97.5 285.121,-97.5 293.716,-97.5"/>
<polygon fill="midnightblue" stroke="midnightblue" points="293.791,-101 303.791,-97.5 293.791,-94.0001 293.791,-101"/>
</g>
<!-- Node4 -->
<g id="node4" class="node"><title>Node4</title>
<g id="a_node4"><a xlink:href="../../dd/deb/class_t_m_c2130_stepper.html#a161ca6ebe3736454e17e9236572a6001" target="_top" xlink:title=" ">
<polygon fill="white" stroke="black" points="492,-88 492,-107 608,-107 608,-88 492,-88"/>
<text text-anchor="middle" x="550" y="-95" font-family="Helvetica,sans-Serif" font-size="10.00">TMC2130Stepper::read</text>
</a>
</g>
</g>
<!-- Node3&#45;&gt;Node4 -->
<g id="edge3" class="edge"><title>Node3&#45;&gt;Node4</title>
<path fill="none" stroke="midnightblue" d="M456.155,-97.5C464.664,-97.5 473.296,-97.5 481.696,-97.5"/>
<polygon fill="midnightblue" stroke="midnightblue" points="481.802,-101 491.802,-97.5 481.802,-94.0001 481.802,-101"/>
</g>
<!-- Node5 -->
<g id="node5" class="node"><title>Node5</title>
<g id="a_node5"><a xlink:href="../../dd/deb/class_t_m_c2130_stepper.html#a1fc868601a32fb0cd8fc536dafa8ecea" target="_top" xlink:title=" ">
<polygon fill="white" stroke="black" points="644,-164 644,-183 815,-183 815,-164 644,-164"/>
<text text-anchor="middle" x="729.5" y="-171" font-family="Helvetica,sans-Serif" font-size="10.00">TMC2130Stepper::beginTransaction</text>
</a>
</g>
</g>
<!-- Node4&#45;&gt;Node5 -->
<g id="edge4" class="edge"><title>Node4&#45;&gt;Node5</title>
<path fill="none" stroke="midnightblue" d="M563.522,-107.048C580.741,-119.725 613.117,-141.967 644,-154.5 650.272,-157.045 656.951,-159.283 663.7,-161.242"/>
<polygon fill="midnightblue" stroke="midnightblue" points="663.032,-164.687 673.599,-163.918 664.858,-157.93 663.032,-164.687"/>
</g>
<!-- Node6 -->
<g id="node6" class="node"><title>Node6</title>
<g id="a_node6"><a xlink:href="../../dd/deb/class_t_m_c2130_stepper.html#aeace18dcee808585dd4449e783811600" target="_top" xlink:title=" ">
<polygon fill="white" stroke="black" points="647.5,-126 647.5,-145 811.5,-145 811.5,-126 647.5,-126"/>
<text text-anchor="middle" x="729.5" y="-133" font-family="Helvetica,sans-Serif" font-size="10.00">TMC2130Stepper::endTransaction</text>
</a>
</g>
</g>
<!-- Node4&#45;&gt;Node6 -->
<g id="edge5" class="edge"><title>Node4&#45;&gt;Node6</title>
<path fill="none" stroke="midnightblue" d="M595.791,-107.089C619.53,-112.171 648.884,-118.455 673.944,-123.82"/>
<polygon fill="midnightblue" stroke="midnightblue" points="673.52,-127.309 684.031,-125.98 674.986,-120.464 673.52,-127.309"/>
</g>
<!-- Node7 -->
<g id="node7" class="node"><title>Node7</title>
<g id="a_node7"><a xlink:href="../../dd/deb/class_t_m_c2130_stepper.html#a4a8f3b6ac100045ed5f84fe4d18d9d5a" target="_top" xlink:title=" ">
<polygon fill="white" stroke="black" points="653.5,-88 653.5,-107 805.5,-107 805.5,-88 653.5,-88"/>
<text text-anchor="middle" x="729.5" y="-95" font-family="Helvetica,sans-Serif" font-size="10.00">TMC2130Stepper::switchCSpin</text>
</a>
</g>
</g>
<!-- Node4&#45;&gt;Node7 -->
<g id="edge6" class="edge"><title>Node4&#45;&gt;Node7</title>
<path fill="none" stroke="midnightblue" d="M608.139,-97.5C619.27,-97.5 631.163,-97.5 642.981,-97.5"/>
<polygon fill="midnightblue" stroke="midnightblue" points="643.325,-101 653.325,-97.5 643.324,-94.0001 643.325,-101"/>
</g>
<!-- Node8 -->
<g id="node8" class="node"><title>Node8</title>
<g id="a_node8"><a xlink:href="../../dd/deb/class_t_m_c2130_stepper.html#a0673af4887ec52b23aa658aa290f6623" target="_top" xlink:title=" ">
<polygon fill="white" stroke="black" points="851,-28 851,-47 981,-47 981,-28 851,-28"/>
<text text-anchor="middle" x="916" y="-35" font-family="Helvetica,sans-Serif" font-size="10.00">TMC2130Stepper::transfer</text>
</a>
</g>
</g>
<!-- Node4&#45;&gt;Node8 -->
<g id="edge7" class="edge"><title>Node4&#45;&gt;Node8</title>
<path fill="none" stroke="midnightblue" d="M595.378,-87.9498C610.744,-84.7717 628.099,-81.3252 644,-78.5 710.378,-66.7062 786.291,-55.4085 840.852,-47.6702"/>
<polygon fill="midnightblue" stroke="midnightblue" points="841.372,-51.1316 850.784,-46.2674 840.393,-44.2004 841.372,-51.1316"/>
</g>
<!-- Node10 -->
<g id="node10" class="node"><title>Node10</title>
<g id="a_node10"><a xlink:href="../../dd/deb/class_t_m_c2130_stepper.html#aba94fc7bb8e2c8c12191f44561f19d95" target="_top" xlink:title=" ">
<polygon fill="white" stroke="black" points="664.5,-0.5 664.5,-30.5 794.5,-30.5 794.5,-0.5 664.5,-0.5"/>
<text text-anchor="start" x="672.5" y="-18.5" font-family="Helvetica,sans-Serif" font-size="10.00">TMC2130Stepper::transfer</text>
<text text-anchor="middle" x="729.5" y="-7.5" font-family="Helvetica,sans-Serif" font-size="10.00">EmptyBytes</text>
</a>
</g>
</g>
<!-- Node4&#45;&gt;Node10 -->
<g id="edge9" class="edge"><title>Node4&#45;&gt;Node10</title>
<path fill="none" stroke="midnightblue" d="M566.378,-87.8381C584.488,-76.7136 615.694,-58.3277 644,-45.5 652.84,-41.494 662.386,-37.66 671.769,-34.1517"/>
<polygon fill="midnightblue" stroke="midnightblue" points="673.257,-37.3346 681.453,-30.6201 670.859,-30.7583 673.257,-37.3346"/>
</g>
<!-- Node9 -->
<g id="node9" class="node"><title>Node9</title>
<g id="a_node9"><a xlink:href="../../df/d8b/class_s_w___s_p_i_class.html#af260fdc0af3f1312b106483161e559c3" target="_top" xlink:title=" ">
<polygon fill="white" stroke="black" points="1017,-28 1017,-47 1134,-47 1134,-28 1017,-28"/>
<text text-anchor="middle" x="1075.5" y="-35" font-family="Helvetica,sans-Serif" font-size="10.00">SW_SPIClass::transfer</text>
</a>
</g>
</g>
<!-- Node8&#45;&gt;Node9 -->
<g id="edge8" class="edge"><title>Node8&#45;&gt;Node9</title>
<path fill="none" stroke="midnightblue" d="M981.061,-37.5C989.477,-37.5 998.125,-37.5 1006.6,-37.5"/>
<polygon fill="midnightblue" stroke="midnightblue" points="1006.83,-41.0001 1016.83,-37.5 1006.83,-34.0001 1006.83,-41.0001"/>
</g>
<!-- Node10&#45;&gt;Node8 -->
<g id="edge10" class="edge"><title>Node10&#45;&gt;Node8</title>
<path fill="none" stroke="midnightblue" d="M794.511,-23.1328C809.452,-24.9144 825.487,-26.8263 840.827,-28.6556"/>
<polygon fill="midnightblue" stroke="midnightblue" points="840.445,-32.1347 850.79,-29.8435 841.274,-25.184 840.445,-32.1347"/>
</g>
</g>
</svg>
