<?xml version="1.0" encoding="UTF-8" standalone="no"?>
<!DOCTYPE svg PUBLIC "-//W3C//DTD SVG 1.1//EN"
 "http://www.w3.org/Graphics/SVG/1.1/DTD/svg11.dtd">
<!-- Generated by graphviz version 2.38.0 (20140413.2041)
 -->
<!-- Title: TMC2130Stepper::dcin_cfg5 Pages: 1 -->
<svg width="977pt" height="192pt"
 viewBox="0.00 0.00 977.00 191.50" xmlns="http://www.w3.org/2000/svg" xmlns:xlink="http://www.w3.org/1999/xlink">
<g id="graph0" class="graph" transform="scale(1 1) rotate(0) translate(4 187.5)">
<title>TMC2130Stepper::dcin_cfg5</title>
<polygon fill="white" stroke="none" points="-4,4 -4,-187.5 973,-187.5 973,4 -4,4"/>
<!-- Node1 -->
<g id="node1" class="node"><title>Node1</title>
<g id="a_node1"><a xlink:title=" ">
<polygon fill="#bfbfbf" stroke="black" points="0,-88 0,-107 139,-107 139,-88 0,-88"/>
<text text-anchor="middle" x="69.5" y="-95" font-family="Helvetica,sans-Serif" font-size="10.00">TMC2130Stepper::dcin_cfg5</text>
</a>
</g>
</g>
<!-- Node2 -->
<g id="node2" class="node"><title>Node2</title>
<g id="a_node2"><a xlink:href="../../dd/deb/class_t_m_c2130_stepper.html#adde2041047c82600f5e01f52118f92a0" target="_top" xlink:title=" ">
<polygon fill="white" stroke="black" points="175,-88 175,-107 291,-107 291,-88 175,-88"/>
<text text-anchor="middle" x="233" y="-95" font-family="Helvetica,sans-Serif" font-size="10.00">TMC2130Stepper::IOIN</text>
</a>
</g>
</g>
<!-- Node1&#45;&gt;Node2 -->
<g id="edge1" class="edge"><title>Node1&#45;&gt;Node2</title>
<path fill="none" stroke="midnightblue" d="M139.459,-97.5C147.87,-97.5 156.456,-97.5 164.84,-97.5"/>
<polygon fill="midnightblue" stroke="midnightblue" points="164.942,-101 174.942,-97.5 164.942,-94.0001 164.942,-101"/>
</g>
<!-- Node3 -->
<g id="node3" class="node"><title>Node3</title>
<g id="a_node3"><a xlink:href="../../dd/deb/class_t_m_c2130_stepper.html#a161ca6ebe3736454e17e9236572a6001" target="_top" xlink:title=" ">
<polygon fill="white" stroke="black" points="327,-88 327,-107 443,-107 443,-88 327,-88"/>
<text text-anchor="middle" x="385" y="-95" font-family="Helvetica,sans-Serif" font-size="10.00">TMC2130Stepper::read</text>
</a>
</g>
</g>
<!-- Node2&#45;&gt;Node3 -->
<g id="edge2" class="edge"><title>Node2&#45;&gt;Node3</title>
<path fill="none" stroke="midnightblue" d="M291.136,-97.5C299.377,-97.5 307.923,-97.5 316.344,-97.5"/>
<polygon fill="midnightblue" stroke="midnightblue" points="316.526,-101 326.525,-97.5 316.525,-94.0001 316.526,-101"/>
</g>
<!-- Node4 -->
<g id="node4" class="node"><title>Node4</title>
<g id="a_node4"><a xlink:href="../../dd/deb/class_t_m_c2130_stepper.html#a1fc868601a32fb0cd8fc536dafa8ecea" target="_top" xlink:title=" ">
<polygon fill="white" stroke="black" points="479,-164 479,-183 650,-183 650,-164 479,-164"/>
<text text-anchor="middle" x="564.5" y="-171" font-family="Helvetica,sans-Serif" font-size="10.00">TMC2130Stepper::beginTransaction</text>
</a>
</g>
</g>
<!-- Node3&#45;&gt;Node4 -->
<g id="edge3" class="edge"><title>Node3&#45;&gt;Node4</title>
<path fill="none" stroke="midnightblue" d="M398.522,-107.048C415.741,-119.725 448.117,-141.967 479,-154.5 485.272,-157.045 491.951,-159.283 498.7,-161.242"/>
<polygon fill="midnightblue" stroke="midnightblue" points="498.032,-164.687 508.599,-163.918 499.858,-157.93 498.032,-164.687"/>
</g>
<!-- Node5 -->
<g id="node5" class="node"><title>Node5</title>
<g id="a_node5"><a xlink:href="../../dd/deb/class_t_m_c2130_stepper.html#aeace18dcee808585dd4449e783811600" target="_top" xlink:title=" ">
<polygon fill="white" stroke="black" points="482.5,-126 482.5,-145 646.5,-145 646.5,-126 482.5,-126"/>
<text text-anchor="middle" x="564.5" y="-133" font-family="Helvetica,sans-Serif" font-size="10.00">TMC2130Stepper::endTransaction</text>
</a>
</g>
</g>
<!-- Node3&#45;&gt;Node5 -->
<g id="edge4" class="edge"><title>Node3&#45;&gt;Node5</title>
<path fill="none" stroke="midnightblue" d="M430.791,-107.089C454.53,-112.171 483.884,-118.455 508.944,-123.82"/>
<polygon fill="midnightblue" stroke="midnightblue" points="508.52,-127.309 519.031,-125.98 509.986,-120.464 508.52,-127.309"/>
</g>
<!-- Node6 -->
<g id="node6" class="node"><title>Node6</title>
<g id="a_node6"><a xlink:href="../../dd/deb/class_t_m_c2130_stepper.html#a4a8f3b6ac100045ed5f84fe4d18d9d5a" target="_top" xlink:title=" ">
<polygon fill="white" stroke="black" points="488.5,-88 488.5,-107 640.5,-107 640.5,-88 488.5,-88"/>
<text text-anchor="middle" x="564.5" y="-95" font-family="Helvetica,sans-Serif" font-size="10.00">TMC2130Stepper::switchCSpin</text>
</a>
</g>
</g>
<!-- Node3&#45;&gt;Node6 -->
<g id="edge5" class="edge"><title>Node3&#45;&gt;Node6</title>
<path fill="none" stroke="midnightblue" d="M443.139,-97.5C454.27,-97.5 466.163,-97.5 477.981,-97.5"/>
<polygon fill="midnightblue" stroke="midnightblue" points="478.325,-101 488.325,-97.5 478.324,-94.0001 478.325,-101"/>
</g>
<!-- Node7 -->
<g id="node7" class="node"><title>Node7</title>
<g id="a_node7"><a xlink:href="../../dd/deb/class_t_m_c2130_stepper.html#a0673af4887ec52b23aa658aa290f6623" target="_top" xlink:title=" ">
<polygon fill="white" stroke="black" points="686,-28 686,-47 816,-47 816,-28 686,-28"/>
<text text-anchor="middle" x="751" y="-35" font-family="Helvetica,sans-Serif" font-size="10.00">TMC2130Stepper::transfer</text>
</a>
</g>
</g>
<!-- Node3&#45;&gt;Node7 -->
<g id="edge6" class="edge"><title>Node3&#45;&gt;Node7</title>
<path fill="none" stroke="midnightblue" d="M430.378,-87.9498C445.744,-84.7717 463.099,-81.3252 479,-78.5 545.378,-66.7062 621.291,-55.4085 675.852,-47.6702"/>
<polygon fill="midnightblue" stroke="midnightblue" points="676.372,-51.1316 685.784,-46.2674 675.393,-44.2004 676.372,-51.1316"/>
</g>
<!-- Node9 -->
<g id="node9" class="node"><title>Node9</title>
<g id="a_node9"><a xlink:href="../../dd/deb/class_t_m_c2130_stepper.html#aba94fc7bb8e2c8c12191f44561f19d95" target="_top" xlink:title=" ">
<polygon fill="white" stroke="black" points="499.5,-0.5 499.5,-30.5 629.5,-30.5 629.5,-0.5 499.5,-0.5"/>
<text text-anchor="start" x="507.5" y="-18.5" font-family="Helvetica,sans-Serif" font-size="10.00">TMC2130Stepper::transfer</text>
<text text-anchor="middle" x="564.5" y="-7.5" font-family="Helvetica,sans-Serif" font-size="10.00">EmptyBytes</text>
</a>
</g>
</g>
<!-- Node3&#45;&gt;Node9 -->
<g id="edge8" class="edge"><title>Node3&#45;&gt;Node9</title>
<path fill="none" stroke="midnightblue" d="M401.378,-87.8381C419.488,-76.7136 450.694,-58.3277 479,-45.5 487.84,-41.494 497.386,-37.66 506.769,-34.1517"/>
<polygon fill="midnightblue" stroke="midnightblue" points="508.257,-37.3346 516.453,-30.6201 505.859,-30.7583 508.257,-37.3346"/>
</g>
<!-- Node8 -->
<g id="node8" class="node"><title>Node8</title>
<g id="a_node8"><a xlink:href="../../df/d8b/class_s_w___s_p_i_class.html#af260fdc0af3f1312b106483161e559c3" target="_top" xlink:title=" ">
<polygon fill="white" stroke="black" points="852,-28 852,-47 969,-47 969,-28 852,-28"/>
<text text-anchor="middle" x="910.5" y="-35" font-family="Helvetica,sans-Serif" font-size="10.00">SW_SPIClass::transfer</text>
</a>
</g>
</g>
<!-- Node7&#45;&gt;Node8 -->
<g id="edge7" class="edge"><title>Node7&#45;&gt;Node8</title>
<path fill="none" stroke="midnightblue" d="M816.061,-37.5C824.477,-37.5 833.125,-37.5 841.603,-37.5"/>
<polygon fill="midnightblue" stroke="midnightblue" points="841.831,-41.0001 851.831,-37.5 841.831,-34.0001 841.831,-41.0001"/>
</g>
<!-- Node9&#45;&gt;Node7 -->
<g id="edge9" class="edge"><title>Node9&#45;&gt;Node7</title>
<path fill="none" stroke="midnightblue" d="M629.511,-23.1328C644.452,-24.9144 660.487,-26.8263 675.827,-28.6556"/>
<polygon fill="midnightblue" stroke="midnightblue" points="675.445,-32.1347 685.79,-29.8435 676.274,-25.184 675.445,-32.1347"/>
</g>
</g>
</svg>
