<?xml version="1.0" encoding="UTF-8" standalone="no"?>
<!DOCTYPE svg PUBLIC "-//W3C//DTD SVG 1.1//EN"
 "http://www.w3.org/Graphics/SVG/1.1/DTD/svg11.dtd">
<!-- Generated by graphviz version 2.38.0 (20140413.2041)
 -->
<!-- Title: TMC2130Stepper::direct_mode Pages: 1 -->
<svg width="1005pt" height="192pt"
 viewBox="0.00 0.00 1005.00 191.50" xmlns="http://www.w3.org/2000/svg" xmlns:xlink="http://www.w3.org/1999/xlink">
<g id="graph0" class="graph" transform="scale(1 1) rotate(0) translate(4 187.5)">
<title>TMC2130Stepper::direct_mode</title>
<polygon fill="white" stroke="none" points="-4,4 -4,-187.5 1001,-187.5 1001,4 -4,4"/>
<!-- Node1 -->
<g id="node1" class="node"><title>Node1</title>
<g id="a_node1"><a xlink:title=" ">
<polygon fill="#bfbfbf" stroke="black" points="0,-88 0,-107 151,-107 151,-88 0,-88"/>
<text text-anchor="middle" x="75.5" y="-95" font-family="Helvetica,sans-Serif" font-size="10.00">TMC2130Stepper::direct_mode</text>
</a>
</g>
</g>
<!-- Node2 -->
<g id="node2" class="node"><title>Node2</title>
<g id="a_node2"><a xlink:href="../../dd/deb/class_t_m_c2130_stepper.html#aee84a9abfc84b387c6ae5658f90bf684" target="_top" xlink:title=" ">
<polygon fill="white" stroke="black" points="187,-88 187,-107 319,-107 319,-88 187,-88"/>
<text text-anchor="middle" x="253" y="-95" font-family="Helvetica,sans-Serif" font-size="10.00">TMC2130Stepper::GCONF</text>
</a>
</g>
</g>
<!-- Node1&#45;&gt;Node2 -->
<g id="edge1" class="edge"><title>Node1&#45;&gt;Node2</title>
<path fill="none" stroke="midnightblue" d="M151.182,-97.5C159.606,-97.5 168.194,-97.5 176.626,-97.5"/>
<polygon fill="midnightblue" stroke="midnightblue" points="176.813,-101 186.813,-97.5 176.812,-94.0001 176.813,-101"/>
</g>
<!-- Node3 -->
<g id="node3" class="node"><title>Node3</title>
<g id="a_node3"><a xlink:href="../../dd/deb/class_t_m_c2130_stepper.html#a161ca6ebe3736454e17e9236572a6001" target="_top" xlink:title=" ">
<polygon fill="white" stroke="black" points="355,-88 355,-107 471,-107 471,-88 355,-88"/>
<text text-anchor="middle" x="413" y="-95" font-family="Helvetica,sans-Serif" font-size="10.00">TMC2130Stepper::read</text>
</a>
</g>
</g>
<!-- Node2&#45;&gt;Node3 -->
<g id="edge2" class="edge"><title>Node2&#45;&gt;Node3</title>
<path fill="none" stroke="midnightblue" d="M319.177,-97.5C327.517,-97.5 336.069,-97.5 344.445,-97.5"/>
<polygon fill="midnightblue" stroke="midnightblue" points="344.55,-101 354.55,-97.5 344.55,-94.0001 344.55,-101"/>
</g>
<!-- Node4 -->
<g id="node4" class="node"><title>Node4</title>
<g id="a_node4"><a xlink:href="../../dd/deb/class_t_m_c2130_stepper.html#a1fc868601a32fb0cd8fc536dafa8ecea" target="_top" xlink:title=" ">
<polygon fill="white" stroke="black" points="507,-164 507,-183 678,-183 678,-164 507,-164"/>
<text text-anchor="middle" x="592.5" y="-171" font-family="Helvetica,sans-Serif" font-size="10.00">TMC2130Stepper::beginTransaction</text>
</a>
</g>
</g>
<!-- Node3&#45;&gt;Node4 -->
<g id="edge3" class="edge"><title>Node3&#45;&gt;Node4</title>
<path fill="none" stroke="midnightblue" d="M426.522,-107.048C443.741,-119.725 476.117,-141.967 507,-154.5 513.272,-157.045 519.951,-159.283 526.7,-161.242"/>
<polygon fill="midnightblue" stroke="midnightblue" points="526.032,-164.687 536.599,-163.918 527.858,-157.93 526.032,-164.687"/>
</g>
<!-- Node5 -->
<g id="node5" class="node"><title>Node5</title>
<g id="a_node5"><a xlink:href="../../dd/deb/class_t_m_c2130_stepper.html#aeace18dcee808585dd4449e783811600" target="_top" xlink:title=" ">
<polygon fill="white" stroke="black" points="510.5,-126 510.5,-145 674.5,-145 674.5,-126 510.5,-126"/>
<text text-anchor="middle" x="592.5" y="-133" font-family="Helvetica,sans-Serif" font-size="10.00">TMC2130Stepper::endTransaction</text>
</a>
</g>
</g>
<!-- Node3&#45;&gt;Node5 -->
<g id="edge4" class="edge"><title>Node3&#45;&gt;Node5</title>
<path fill="none" stroke="midnightblue" d="M458.791,-107.089C482.53,-112.171 511.884,-118.455 536.944,-123.82"/>
<polygon fill="midnightblue" stroke="midnightblue" points="536.52,-127.309 547.031,-125.98 537.986,-120.464 536.52,-127.309"/>
</g>
<!-- Node6 -->
<g id="node6" class="node"><title>Node6</title>
<g id="a_node6"><a xlink:href="../../dd/deb/class_t_m_c2130_stepper.html#a4a8f3b6ac100045ed5f84fe4d18d9d5a" target="_top" xlink:title=" ">
<polygon fill="white" stroke="black" points="516.5,-88 516.5,-107 668.5,-107 668.5,-88 516.5,-88"/>
<text text-anchor="middle" x="592.5" y="-95" font-family="Helvetica,sans-Serif" font-size="10.00">TMC2130Stepper::switchCSpin</text>
</a>
</g>
</g>
<!-- Node3&#45;&gt;Node6 -->
<g id="edge5" class="edge"><title>Node3&#45;&gt;Node6</title>
<path fill="none" stroke="midnightblue" d="M471.139,-97.5C482.27,-97.5 494.163,-97.5 505.981,-97.5"/>
<polygon fill="midnightblue" stroke="midnightblue" points="506.325,-101 516.325,-97.5 506.324,-94.0001 506.325,-101"/>
</g>
<!-- Node7 -->
<g id="node7" class="node"><title>Node7</title>
<g id="a_node7"><a xlink:href="../../dd/deb/class_t_m_c2130_stepper.html#a0673af4887ec52b23aa658aa290f6623" target="_top" xlink:title=" ">
<polygon fill="white" stroke="black" points="714,-28 714,-47 844,-47 844,-28 714,-28"/>
<text text-anchor="middle" x="779" y="-35" font-family="Helvetica,sans-Serif" font-size="10.00">TMC2130Stepper::transfer</text>
</a>
</g>
</g>
<!-- Node3&#45;&gt;Node7 -->
<g id="edge6" class="edge"><title>Node3&#45;&gt;Node7</title>
<path fill="none" stroke="midnightblue" d="M458.378,-87.9498C473.744,-84.7717 491.099,-81.3252 507,-78.5 573.378,-66.7062 649.291,-55.4085 703.852,-47.6702"/>
<polygon fill="midnightblue" stroke="midnightblue" points="704.372,-51.1316 713.784,-46.2674 703.393,-44.2004 704.372,-51.1316"/>
</g>
<!-- Node9 -->
<g id="node9" class="node"><title>Node9</title>
<g id="a_node9"><a xlink:href="../../dd/deb/class_t_m_c2130_stepper.html#aba94fc7bb8e2c8c12191f44561f19d95" target="_top" xlink:title=" ">
<polygon fill="white" stroke="black" points="527.5,-0.5 527.5,-30.5 657.5,-30.5 657.5,-0.5 527.5,-0.5"/>
<text text-anchor="start" x="535.5" y="-18.5" font-family="Helvetica,sans-Serif" font-size="10.00">TMC2130Stepper::transfer</text>
<text text-anchor="middle" x="592.5" y="-7.5" font-family="Helvetica,sans-Serif" font-size="10.00">EmptyBytes</text>
</a>
</g>
</g>
<!-- Node3&#45;&gt;Node9 -->
<g id="edge8" class="edge"><title>Node3&#45;&gt;Node9</title>
<path fill="none" stroke="midnightblue" d="M429.378,-87.8381C447.488,-76.7136 478.694,-58.3277 507,-45.5 515.84,-41.494 525.386,-37.66 534.769,-34.1517"/>
<polygon fill="midnightblue" stroke="midnightblue" points="536.257,-37.3346 544.453,-30.6201 533.859,-30.7583 536.257,-37.3346"/>
</g>
<!-- Node8 -->
<g id="node8" class="node"><title>Node8</title>
<g id="a_node8"><a xlink:href="../../df/d8b/class_s_w___s_p_i_class.html#af260fdc0af3f1312b106483161e559c3" target="_top" xlink:title=" ">
<polygon fill="white" stroke="black" points="880,-28 880,-47 997,-47 997,-28 880,-28"/>
<text text-anchor="middle" x="938.5" y="-35" font-family="Helvetica,sans-Serif" font-size="10.00">SW_SPIClass::transfer</text>
</a>
</g>
</g>
<!-- Node7&#45;&gt;Node8 -->
<g id="edge7" class="edge"><title>Node7&#45;&gt;Node8</title>
<path fill="none" stroke="midnightblue" d="M844.061,-37.5C852.477,-37.5 861.125,-37.5 869.603,-37.5"/>
<polygon fill="midnightblue" stroke="midnightblue" points="869.831,-41.0001 879.831,-37.5 869.831,-34.0001 869.831,-41.0001"/>
</g>
<!-- Node9&#45;&gt;Node7 -->
<g id="edge9" class="edge"><title>Node9&#45;&gt;Node7</title>
<path fill="none" stroke="midnightblue" d="M657.511,-23.1328C672.452,-24.9144 688.487,-26.8263 703.827,-28.6556"/>
<polygon fill="midnightblue" stroke="midnightblue" points="703.445,-32.1347 713.79,-29.8435 704.274,-25.184 703.445,-32.1347"/>
</g>
</g>
</svg>
