<?xml version="1.0" encoding="UTF-8" standalone="no"?>
<!DOCTYPE svg PUBLIC "-//W3C//DTD SVG 1.1//EN"
 "http://www.w3.org/Graphics/SVG/1.1/DTD/svg11.dtd">
<!-- Generated by graphviz version 2.38.0 (20140413.2041)
 -->
<!-- Title: TMC2130Stepper::diag0_int_pushpull Pages: 1 -->
<svg width="1132pt" height="192pt"
 viewBox="0.00 0.00 1132.00 191.50" xmlns="http://www.w3.org/2000/svg" xmlns:xlink="http://www.w3.org/1999/xlink">
<g id="graph0" class="graph" transform="scale(1 1) rotate(0) translate(4 187.5)">
<title>TMC2130Stepper::diag0_int_pushpull</title>
<polygon fill="white" stroke="none" points="-4,4 -4,-187.5 1128,-187.5 1128,4 -4,4"/>
<!-- Node1 -->
<g id="node1" class="node"><title>Node1</title>
<g id="a_node1"><a xlink:title=" ">
<polygon fill="#bfbfbf" stroke="black" points="0,-82.5 0,-112.5 121,-112.5 121,-82.5 0,-82.5"/>
<text text-anchor="start" x="8" y="-100.5" font-family="Helvetica,sans-Serif" font-size="10.00">TMC2130Stepper::diag0</text>
<text text-anchor="middle" x="60.5" y="-89.5" font-family="Helvetica,sans-Serif" font-size="10.00">_int_pushpull</text>
</a>
</g>
</g>
<!-- Node2 -->
<g id="node2" class="node"><title>Node2</title>
<g id="a_node2"><a xlink:href="../../dd/deb/class_t_m_c2130_stepper.html#af1a14a5e85e37ff2887e5031126bc2bf" target="_top" xlink:title=" ">
<polygon fill="white" stroke="black" points="157,-82.5 157,-112.5 278,-112.5 278,-82.5 157,-82.5"/>
<text text-anchor="start" x="165" y="-100.5" font-family="Helvetica,sans-Serif" font-size="10.00">TMC2130Stepper::diag0</text>
<text text-anchor="middle" x="217.5" y="-89.5" font-family="Helvetica,sans-Serif" font-size="10.00">_int_pushpull</text>
</a>
</g>
</g>
<!-- Node1&#45;&gt;Node2 -->
<g id="edge1" class="edge"><title>Node1&#45;&gt;Node2</title>
<path fill="none" stroke="midnightblue" d="M121.427,-97.5C129.724,-97.5 138.305,-97.5 146.762,-97.5"/>
<polygon fill="midnightblue" stroke="midnightblue" points="146.988,-101 156.988,-97.5 146.988,-94.0001 146.988,-101"/>
</g>
<!-- Node3 -->
<g id="node3" class="node"><title>Node3</title>
<g id="a_node3"><a xlink:href="../../dd/deb/class_t_m_c2130_stepper.html#aee84a9abfc84b387c6ae5658f90bf684" target="_top" xlink:title=" ">
<polygon fill="white" stroke="black" points="314,-88 314,-107 446,-107 446,-88 314,-88"/>
<text text-anchor="middle" x="380" y="-95" font-family="Helvetica,sans-Serif" font-size="10.00">TMC2130Stepper::GCONF</text>
</a>
</g>
</g>
<!-- Node2&#45;&gt;Node3 -->
<g id="edge2" class="edge"><title>Node2&#45;&gt;Node3</title>
<path fill="none" stroke="midnightblue" d="M278.264,-97.5C286.501,-97.5 295.047,-97.5 303.522,-97.5"/>
<polygon fill="midnightblue" stroke="midnightblue" points="303.798,-101 313.798,-97.5 303.798,-94.0001 303.798,-101"/>
</g>
<!-- Node4 -->
<g id="node4" class="node"><title>Node4</title>
<g id="a_node4"><a xlink:href="../../dd/deb/class_t_m_c2130_stepper.html#a161ca6ebe3736454e17e9236572a6001" target="_top" xlink:title=" ">
<polygon fill="white" stroke="black" points="482,-88 482,-107 598,-107 598,-88 482,-88"/>
<text text-anchor="middle" x="540" y="-95" font-family="Helvetica,sans-Serif" font-size="10.00">TMC2130Stepper::read</text>
</a>
</g>
</g>
<!-- Node3&#45;&gt;Node4 -->
<g id="edge3" class="edge"><title>Node3&#45;&gt;Node4</title>
<path fill="none" stroke="midnightblue" d="M446.177,-97.5C454.517,-97.5 463.069,-97.5 471.445,-97.5"/>
<polygon fill="midnightblue" stroke="midnightblue" points="471.55,-101 481.55,-97.5 471.55,-94.0001 471.55,-101"/>
</g>
<!-- Node5 -->
<g id="node5" class="node"><title>Node5</title>
<g id="a_node5"><a xlink:href="../../dd/deb/class_t_m_c2130_stepper.html#a1fc868601a32fb0cd8fc536dafa8ecea" target="_top" xlink:title=" ">
<polygon fill="white" stroke="black" points="634,-164 634,-183 805,-183 805,-164 634,-164"/>
<text text-anchor="middle" x="719.5" y="-171" font-family="Helvetica,sans-Serif" font-size="10.00">TMC2130Stepper::beginTransaction</text>
</a>
</g>
</g>
<!-- Node4&#45;&gt;Node5 -->
<g id="edge4" class="edge"><title>Node4&#45;&gt;Node5</title>
<path fill="none" stroke="midnightblue" d="M553.522,-107.048C570.741,-119.725 603.117,-141.967 634,-154.5 640.272,-157.045 646.951,-159.283 653.7,-161.242"/>
<polygon fill="midnightblue" stroke="midnightblue" points="653.032,-164.687 663.599,-163.918 654.858,-157.93 653.032,-164.687"/>
</g>
<!-- Node6 -->
<g id="node6" class="node"><title>Node6</title>
<g id="a_node6"><a xlink:href="../../dd/deb/class_t_m_c2130_stepper.html#aeace18dcee808585dd4449e783811600" target="_top" xlink:title=" ">
<polygon fill="white" stroke="black" points="637.5,-126 637.5,-145 801.5,-145 801.5,-126 637.5,-126"/>
<text text-anchor="middle" x="719.5" y="-133" font-family="Helvetica,sans-Serif" font-size="10.00">TMC2130Stepper::endTransaction</text>
</a>
</g>
</g>
<!-- Node4&#45;&gt;Node6 -->
<g id="edge5" class="edge"><title>Node4&#45;&gt;Node6</title>
<path fill="none" stroke="midnightblue" d="M585.791,-107.089C609.53,-112.171 638.884,-118.455 663.944,-123.82"/>
<polygon fill="midnightblue" stroke="midnightblue" points="663.52,-127.309 674.031,-125.98 664.986,-120.464 663.52,-127.309"/>
</g>
<!-- Node7 -->
<g id="node7" class="node"><title>Node7</title>
<g id="a_node7"><a xlink:href="../../dd/deb/class_t_m_c2130_stepper.html#a4a8f3b6ac100045ed5f84fe4d18d9d5a" target="_top" xlink:title=" ">
<polygon fill="white" stroke="black" points="643.5,-88 643.5,-107 795.5,-107 795.5,-88 643.5,-88"/>
<text text-anchor="middle" x="719.5" y="-95" font-family="Helvetica,sans-Serif" font-size="10.00">TMC2130Stepper::switchCSpin</text>
</a>
</g>
</g>
<!-- Node4&#45;&gt;Node7 -->
<g id="edge6" class="edge"><title>Node4&#45;&gt;Node7</title>
<path fill="none" stroke="midnightblue" d="M598.139,-97.5C609.27,-97.5 621.163,-97.5 632.981,-97.5"/>
<polygon fill="midnightblue" stroke="midnightblue" points="633.325,-101 643.325,-97.5 633.324,-94.0001 633.325,-101"/>
</g>
<!-- Node8 -->
<g id="node8" class="node"><title>Node8</title>
<g id="a_node8"><a xlink:href="../../dd/deb/class_t_m_c2130_stepper.html#a0673af4887ec52b23aa658aa290f6623" target="_top" xlink:title=" ">
<polygon fill="white" stroke="black" points="841,-28 841,-47 971,-47 971,-28 841,-28"/>
<text text-anchor="middle" x="906" y="-35" font-family="Helvetica,sans-Serif" font-size="10.00">TMC2130Stepper::transfer</text>
</a>
</g>
</g>
<!-- Node4&#45;&gt;Node8 -->
<g id="edge7" class="edge"><title>Node4&#45;&gt;Node8</title>
<path fill="none" stroke="midnightblue" d="M585.378,-87.9498C600.744,-84.7717 618.099,-81.3252 634,-78.5 700.378,-66.7062 776.291,-55.4085 830.852,-47.6702"/>
<polygon fill="midnightblue" stroke="midnightblue" points="831.372,-51.1316 840.784,-46.2674 830.393,-44.2004 831.372,-51.1316"/>
</g>
<!-- Node10 -->
<g id="node10" class="node"><title>Node10</title>
<g id="a_node10"><a xlink:href="../../dd/deb/class_t_m_c2130_stepper.html#aba94fc7bb8e2c8c12191f44561f19d95" target="_top" xlink:title=" ">
<polygon fill="white" stroke="black" points="654.5,-0.5 654.5,-30.5 784.5,-30.5 784.5,-0.5 654.5,-0.5"/>
<text text-anchor="start" x="662.5" y="-18.5" font-family="Helvetica,sans-Serif" font-size="10.00">TMC2130Stepper::transfer</text>
<text text-anchor="middle" x="719.5" y="-7.5" font-family="Helvetica,sans-Serif" font-size="10.00">EmptyBytes</text>
</a>
</g>
</g>
<!-- Node4&#45;&gt;Node10 -->
<g id="edge9" class="edge"><title>Node4&#45;&gt;Node10</title>
<path fill="none" stroke="midnightblue" d="M556.378,-87.8381C574.488,-76.7136 605.694,-58.3277 634,-45.5 642.84,-41.494 652.386,-37.66 661.769,-34.1517"/>
<polygon fill="midnightblue" stroke="midnightblue" points="663.257,-37.3346 671.453,-30.6201 660.859,-30.7583 663.257,-37.3346"/>
</g>
<!-- Node9 -->
<g id="node9" class="node"><title>Node9</title>
<g id="a_node9"><a xlink:href="../../df/d8b/class_s_w___s_p_i_class.html#af260fdc0af3f1312b106483161e559c3" target="_top" xlink:title=" ">
<polygon fill="white" stroke="black" points="1007,-28 1007,-47 1124,-47 1124,-28 1007,-28"/>
<text text-anchor="middle" x="1065.5" y="-35" font-family="Helvetica,sans-Serif" font-size="10.00">SW_SPIClass::transfer</text>
</a>
</g>
</g>
<!-- Node8&#45;&gt;Node9 -->
<g id="edge8" class="edge"><title>Node8&#45;&gt;Node9</title>
<path fill="none" stroke="midnightblue" d="M971.061,-37.5C979.477,-37.5 988.125,-37.5 996.603,-37.5"/>
<polygon fill="midnightblue" stroke="midnightblue" points="996.831,-41.0001 1006.83,-37.5 996.831,-34.0001 996.831,-41.0001"/>
</g>
<!-- Node10&#45;&gt;Node8 -->
<g id="edge10" class="edge"><title>Node10&#45;&gt;Node8</title>
<path fill="none" stroke="midnightblue" d="M784.511,-23.1328C799.452,-24.9144 815.487,-26.8263 830.827,-28.6556"/>
<polygon fill="midnightblue" stroke="midnightblue" points="830.445,-32.1347 840.79,-29.8435 831.274,-25.184 830.445,-32.1347"/>
</g>
</g>
</svg>
