<?xml version="1.0" encoding="UTF-8" standalone="no"?>
<!DOCTYPE svg PUBLIC "-//W3C//DTD SVG 1.1//EN"
 "http://www.w3.org/Graphics/SVG/1.1/DTD/svg11.dtd">
<!-- Generated by graphviz version 2.38.0 (20140413.2041)
 -->
<!-- Title: TMC2130Stepper::transfer Pages: 1 -->
<svg width="662pt" height="1864pt"
 viewBox="0.00 0.00 662.00 1863.50" xmlns="http://www.w3.org/2000/svg" xmlns:xlink="http://www.w3.org/1999/xlink">
<g id="graph0" class="graph" transform="scale(1 1) rotate(0) translate(4 1859.5)">
<title>TMC2130Stepper::transfer</title>
<polygon fill="white" stroke="none" points="-4,4 -4,-1859.5 658,-1859.5 658,4 -4,4"/>
<!-- Node1 -->
<g id="node1" class="node"><title>Node1</title>
<g id="a_node1"><a xlink:title=" ">
<polygon fill="#bfbfbf" stroke="black" points="524,-947 524,-966 654,-966 654,-947 524,-947"/>
<text text-anchor="middle" x="589" y="-954" font-family="Helvetica,sans-Serif" font-size="10.00">TMC2130Stepper::transfer</text>
</a>
</g>
</g>
<!-- Node2 -->
<g id="node2" class="node"><title>Node2</title>
<g id="a_node2"><a xlink:href="../../dd/deb/class_t_m_c2130_stepper.html#a161ca6ebe3736454e17e9236572a6001" target="_top" xlink:title=" ">
<polygon fill="white" stroke="black" points="205,-1266 205,-1285 321,-1285 321,-1266 205,-1266"/>
<text text-anchor="middle" x="263" y="-1273" font-family="Helvetica,sans-Serif" font-size="10.00">TMC2130Stepper::read</text>
</a>
</g>
</g>
<!-- Node1&#45;&gt;Node2 -->
<g id="edge1" class="edge"><title>Node1&#45;&gt;Node2</title>
<path fill="none" stroke="midnightblue" d="M570.926,-973.31C512.125,-1031.2 319.132,-1221.22 273.659,-1265.99"/>
<polygon fill="midnightblue" stroke="midnightblue" points="573.633,-975.557 578.303,-966.047 568.722,-970.569 573.633,-975.557"/>
</g>
<!-- Node143 -->
<g id="node29" class="node"><title>Node143</title>
<g id="a_node29"><a xlink:href="../../dd/deb/class_t_m_c2130_stepper.html#aba94fc7bb8e2c8c12191f44561f19d95" target="_top" xlink:title=" ">
<polygon fill="white" stroke="black" points="358,-941.5 358,-971.5 488,-971.5 488,-941.5 358,-941.5"/>
<text text-anchor="start" x="366" y="-959.5" font-family="Helvetica,sans-Serif" font-size="10.00">TMC2130Stepper::transfer</text>
<text text-anchor="middle" x="423" y="-948.5" font-family="Helvetica,sans-Serif" font-size="10.00">EmptyBytes</text>
</a>
</g>
</g>
<!-- Node1&#45;&gt;Node143 -->
<g id="edge28" class="edge"><title>Node1&#45;&gt;Node143</title>
<path fill="none" stroke="midnightblue" d="M513.436,-956.5C504.996,-956.5 496.451,-956.5 488.161,-956.5"/>
<polygon fill="midnightblue" stroke="midnightblue" points="513.654,-960 523.654,-956.5 513.654,-953 513.654,-960"/>
</g>
<!-- Node144 -->
<g id="node30" class="node"><title>Node144</title>
<g id="a_node30"><a xlink:href="../../dd/deb/class_t_m_c2130_stepper.html#a6b02e33ab452a7869426ede7ba370445" target="_top" xlink:title=" ">
<polygon fill="white" stroke="red" points="204,-445 204,-464 322,-464 322,-445 204,-445"/>
<text text-anchor="middle" x="263" y="-452" font-family="Helvetica,sans-Serif" font-size="10.00">TMC2130Stepper::write</text>
</a>
</g>
</g>
<!-- Node1&#45;&gt;Node144 -->
<g id="edge51" class="edge"><title>Node1&#45;&gt;Node144</title>
<path fill="none" stroke="midnightblue" d="M576.196,-938.212C523.381,-856.38 309.616,-525.177 270.248,-464.18"/>
<polygon fill="midnightblue" stroke="midnightblue" points="573.453,-940.416 581.817,-946.92 579.335,-936.62 573.453,-940.416"/>
</g>
<!-- Node3 -->
<g id="node3" class="node"><title>Node3</title>
<g id="a_node3"><a xlink:href="../../dd/deb/class_t_m_c2130_stepper.html#a67541b27d97ce45f175e9f6e4a2d0bff" target="_top" xlink:title=" ">
<polygon fill="white" stroke="red" points="8,-1836 8,-1855 160,-1855 160,-1836 8,-1836"/>
<text text-anchor="middle" x="84" y="-1843" font-family="Helvetica,sans-Serif" font-size="10.00">TMC2130Stepper::CHOPCONF</text>
</a>
</g>
</g>
<!-- Node2&#45;&gt;Node3 -->
<g id="edge2" class="edge"><title>Node2&#45;&gt;Node3</title>
<path fill="none" stroke="midnightblue" d="M261.468,-1295.27C258.661,-1384.33 242.727,-1747.46 168,-1826.5 164.446,-1830.26 160.312,-1833.35 155.823,-1835.87"/>
<polygon fill="midnightblue" stroke="midnightblue" points="264.969,-1295.28 261.765,-1285.18 257.972,-1295.07 264.969,-1295.28"/>
</g>
<!-- Node46 -->
<g id="node4" class="node"><title>Node46</title>
<g id="a_node4"><a xlink:href="../../dd/deb/class_t_m_c2130_stepper.html#a1a90b2919efe61dd825552c2fbeca993" target="_top" xlink:title=" ">
<polygon fill="white" stroke="red" points="16.5,-1798 16.5,-1817 151.5,-1817 151.5,-1798 16.5,-1798"/>
<text text-anchor="middle" x="84" y="-1805" font-family="Helvetica,sans-Serif" font-size="10.00">TMC2130Stepper::DCCTRL</text>
</a>
</g>
</g>
<!-- Node2&#45;&gt;Node46 -->
<g id="edge3" class="edge"><title>Node2&#45;&gt;Node46</title>
<path fill="none" stroke="midnightblue" d="M261.184,-1295.51C257.283,-1381.15 237.732,-1715.64 168,-1788.5 163.4,-1793.31 157.853,-1797.01 151.834,-1799.85"/>
<polygon fill="midnightblue" stroke="midnightblue" points="264.689,-1295.48 261.626,-1285.33 257.696,-1295.17 264.689,-1295.48"/>
</g>
<!-- Node49 -->
<g id="node5" class="node"><title>Node49</title>
<g id="a_node5"><a xlink:href="../../dd/deb/class_t_m_c2130_stepper.html#a8d6feb6e1ed123a0b1008d80b6d53287" target="_top" xlink:title=" ">
<polygon fill="white" stroke="black" points="25,-1748.5 25,-1778.5 143,-1778.5 143,-1748.5 25,-1748.5"/>
<text text-anchor="start" x="33" y="-1766.5" font-family="Helvetica,sans-Serif" font-size="10.00">TMC2130Stepper::DRV</text>
<text text-anchor="middle" x="84" y="-1755.5" font-family="Helvetica,sans-Serif" font-size="10.00">_STATUS</text>
</a>
</g>
</g>
<!-- Node2&#45;&gt;Node49 -->
<g id="edge4" class="edge"><title>Node2&#45;&gt;Node49</title>
<path fill="none" stroke="midnightblue" d="M260.67,-1295.27C254.912,-1375.1 229.583,-1672.68 168,-1739.5 161.291,-1746.78 152.525,-1751.9 143.207,-1755.49"/>
<polygon fill="midnightblue" stroke="midnightblue" points="264.174,-1295.34 261.38,-1285.12 257.191,-1294.85 264.174,-1295.34"/>
</g>
<!-- Node50 -->
<g id="node6" class="node"><title>Node50</title>
<g id="a_node6"><a xlink:href="../../d9/df8/class_t_m_c5130_stepper.html#a2dfc06fb1bfb9610b94257c822d803f4" target="_top" xlink:title=" ">
<polygon fill="white" stroke="black" points="25,-1699.5 25,-1729.5 143,-1729.5 143,-1699.5 25,-1699.5"/>
<text text-anchor="start" x="33" y="-1717.5" font-family="Helvetica,sans-Serif" font-size="10.00">TMC5130Stepper::ENC</text>
<text text-anchor="middle" x="84" y="-1706.5" font-family="Helvetica,sans-Serif" font-size="10.00">_LATCH</text>
</a>
</g>
</g>
<!-- Node2&#45;&gt;Node50 -->
<g id="edge5" class="edge"><title>Node2&#45;&gt;Node50</title>
<path fill="none" stroke="midnightblue" d="M260.134,-1295.52C252.778,-1370.27 223.443,-1631.7 168,-1690.5 161.208,-1697.7 152.402,-1702.79 143.071,-1706.37"/>
<polygon fill="midnightblue" stroke="midnightblue" points="263.654,-1295.48 261.126,-1285.19 256.686,-1294.81 263.654,-1295.48"/>
</g>
<!-- Node51 -->
<g id="node7" class="node"><title>Node51</title>
<g id="a_node7"><a xlink:href="../../d9/df8/class_t_m_c5130_stepper.html#aa51b7320a8feccf48756dbd81638be43" target="_top" xlink:title=" ">
<polygon fill="white" stroke="black" points="25,-1650.5 25,-1680.5 143,-1680.5 143,-1650.5 25,-1650.5"/>
<text text-anchor="start" x="33" y="-1668.5" font-family="Helvetica,sans-Serif" font-size="10.00">TMC5130Stepper::ENC</text>
<text text-anchor="middle" x="84" y="-1657.5" font-family="Helvetica,sans-Serif" font-size="10.00">_STATUS</text>
</a>
</g>
</g>
<!-- Node2&#45;&gt;Node51 -->
<g id="edge6" class="edge"><title>Node2&#45;&gt;Node51</title>
<path fill="none" stroke="midnightblue" d="M259.506,-1295.33C250.484,-1364.05 217.45,-1590.54 168,-1641.5 161.21,-1648.5 152.517,-1653.49 143.326,-1657.04"/>
<polygon fill="midnightblue" stroke="midnightblue" points="263.024,-1295.42 260.829,-1285.06 256.081,-1294.53 263.024,-1295.42"/>
</g>
<!-- Node52 -->
<g id="node8" class="node"><title>Node52</title>
<g id="a_node8"><a xlink:href="../../d2/d6e/class_t_m_c5160_stepper.html#a3a64ce4aeeda0a8c3fbe07baed1c5317" target="_top" xlink:title=" ">
<polygon fill="white" stroke="black" points="25,-1601.5 25,-1631.5 143,-1631.5 143,-1601.5 25,-1601.5"/>
<text text-anchor="start" x="33" y="-1619.5" font-family="Helvetica,sans-Serif" font-size="10.00">TMC5160Stepper::ENC</text>
<text text-anchor="middle" x="84" y="-1608.5" font-family="Helvetica,sans-Serif" font-size="10.00">_STATUS</text>
</a>
</g>
</g>
<!-- Node2&#45;&gt;Node52 -->
<g id="edge7" class="edge"><title>Node2&#45;&gt;Node52</title>
<path fill="none" stroke="midnightblue" d="M262.194,-1295.24C261.629,-1350.28 252.305,-1506.91 168,-1591.5 161.095,-1598.43 152.346,-1603.45 143.133,-1607.09"/>
<polygon fill="midnightblue" stroke="midnightblue" points="265.694,-1295.11 262.206,-1285.1 258.694,-1295.1 265.694,-1295.11"/>
</g>
<!-- Node53 -->
<g id="node9" class="node"><title>Node53</title>
<g id="a_node9"><a xlink:href="../../d9/df8/class_t_m_c5130_stepper.html#a3c7840e9435d4332fc6a7742deeefa9f" target="_top" xlink:title=" ">
<polygon fill="white" stroke="red" points="10.5,-1563 10.5,-1582 157.5,-1582 157.5,-1563 10.5,-1563"/>
<text text-anchor="middle" x="84" y="-1570" font-family="Helvetica,sans-Serif" font-size="10.00">TMC5130Stepper::ENCMODE</text>
</a>
</g>
</g>
<!-- Node2&#45;&gt;Node53 -->
<g id="edge8" class="edge"><title>Node2&#45;&gt;Node53</title>
<path fill="none" stroke="midnightblue" d="M261.552,-1295.17C259.274,-1346.1 245.838,-1483.15 168,-1553.5 163.832,-1557.27 159.073,-1560.33 153.99,-1562.83"/>
<polygon fill="midnightblue" stroke="midnightblue" points="265.05,-1295.28 261.9,-1285.16 258.054,-1295.04 265.05,-1295.28"/>
</g>
<!-- Node54 -->
<g id="node10" class="node"><title>Node54</title>
<g id="a_node10"><a xlink:href="../../dd/deb/class_t_m_c2130_stepper.html#aee84a9abfc84b387c6ae5658f90bf684" target="_top" xlink:title=" ">
<polygon fill="white" stroke="red" points="18,-1525 18,-1544 150,-1544 150,-1525 18,-1525"/>
<text text-anchor="middle" x="84" y="-1532" font-family="Helvetica,sans-Serif" font-size="10.00">TMC2130Stepper::GCONF</text>
</a>
</g>
</g>
<!-- Node2&#45;&gt;Node54 -->
<g id="edge9" class="edge"><title>Node2&#45;&gt;Node54</title>
<path fill="none" stroke="midnightblue" d="M260.349,-1295.23C255.394,-1341.3 236.438,-1456.52 168,-1515.5 162.737,-1520.04 156.609,-1523.55 150.11,-1526.26"/>
<polygon fill="midnightblue" stroke="midnightblue" points="263.852,-1295.37 261.329,-1285.08 256.884,-1294.7 263.852,-1295.37"/>
</g>
<!-- Node93 -->
<g id="node11" class="node"><title>Node93</title>
<g id="a_node11"><a xlink:href="../../d9/df8/class_t_m_c5130_stepper.html#a2d2a5babc82b261952616363464fcd47" target="_top" xlink:title=" ">
<polygon fill="white" stroke="black" points="21.5,-1487 21.5,-1506 146.5,-1506 146.5,-1487 21.5,-1487"/>
<text text-anchor="middle" x="84" y="-1494" font-family="Helvetica,sans-Serif" font-size="10.00">TMC5130Stepper::IFCNT</text>
</a>
</g>
</g>
<!-- Node2&#45;&gt;Node93 -->
<g id="edge10" class="edge"><title>Node2&#45;&gt;Node93</title>
<path fill="none" stroke="midnightblue" d="M258.706,-1295.4C250.858,-1336.24 227.101,-1429.69 168,-1477.5 161.794,-1482.52 154.513,-1486.27 146.886,-1489.06"/>
<polygon fill="midnightblue" stroke="midnightblue" points="262.187,-1295.82 260.514,-1285.36 255.298,-1294.58 262.187,-1295.82"/>
</g>
<!-- Node94 -->
<g id="node12" class="node"><title>Node94</title>
<g id="a_node12"><a xlink:href="../../dd/deb/class_t_m_c2130_stepper.html#adde2041047c82600f5e01f52118f92a0" target="_top" xlink:title=" ">
<polygon fill="white" stroke="red" points="26,-1449 26,-1468 142,-1468 142,-1449 26,-1449"/>
<text text-anchor="middle" x="84" y="-1456" font-family="Helvetica,sans-Serif" font-size="10.00">TMC2130Stepper::IOIN</text>
</a>
</g>
</g>
<!-- Node2&#45;&gt;Node94 -->
<g id="edge11" class="edge"><title>Node2&#45;&gt;Node94</title>
<path fill="none" stroke="midnightblue" d="M256.535,-1294.96C245.726,-1329.72 218.203,-1402.3 168,-1439.5 160.399,-1445.13 151.41,-1449.14 142.204,-1451.97"/>
<polygon fill="midnightblue" stroke="midnightblue" points="259.972,-1295.68 259.465,-1285.1 253.262,-1293.69 259.972,-1295.68"/>
</g>
<!-- Node102 -->
<g id="node13" class="node"><title>Node102</title>
<g id="a_node13"><a xlink:href="../../db/d9d/class_t_m_c2160_stepper.html#a3d1beb78c3356e99799915df3b424e60" target="_top" xlink:title=" ">
<polygon fill="white" stroke="red" points="26,-1411 26,-1430 142,-1430 142,-1411 26,-1411"/>
<text text-anchor="middle" x="84" y="-1418" font-family="Helvetica,sans-Serif" font-size="10.00">TMC2160Stepper::IOIN</text>
</a>
</g>
</g>
<!-- Node2&#45;&gt;Node102 -->
<g id="edge12" class="edge"><title>Node2&#45;&gt;Node102</title>
<path fill="none" stroke="midnightblue" d="M253.339,-1294.35C239.468,-1322.32 209.546,-1374.43 168,-1401.5 160.197,-1406.58 151.208,-1410.32 142.089,-1413.05"/>
<polygon fill="midnightblue" stroke="midnightblue" points="256.545,-1295.75 257.714,-1285.22 250.234,-1292.73 256.545,-1295.75"/>
</g>
<!-- Node110 -->
<g id="node14" class="node"><title>Node110</title>
<g id="a_node14"><a xlink:href="../../d9/df8/class_t_m_c5130_stepper.html#a74e9e262a8da77925d246916b431161d" target="_top" xlink:title=" ">
<polygon fill="white" stroke="red" points="26,-1373 26,-1392 142,-1392 142,-1373 26,-1373"/>
<text text-anchor="middle" x="84" y="-1380" font-family="Helvetica,sans-Serif" font-size="10.00">TMC5130Stepper::IOIN</text>
</a>
</g>
</g>
<!-- Node2&#45;&gt;Node110 -->
<g id="edge13" class="edge"><title>Node2&#45;&gt;Node110</title>
<path fill="none" stroke="midnightblue" d="M248.33,-1292.98C231.593,-1313.14 201.332,-1345.78 168,-1363.5 160.038,-1367.73 151.158,-1371.03 142.25,-1373.59"/>
<polygon fill="midnightblue" stroke="midnightblue" points="251.07,-1295.16 254.644,-1285.18 245.631,-1290.75 251.07,-1295.16"/>
</g>
<!-- Node122 -->
<g id="node15" class="node"><title>Node122</title>
<g id="a_node15"><a xlink:href="../../dd/deb/class_t_m_c2130_stepper.html#ab5b7c77b1826da5c2e40a420880da513" target="_top" xlink:title=" ">
<polygon fill="white" stroke="black" points="23,-1323.5 23,-1353.5 145,-1353.5 145,-1323.5 23,-1323.5"/>
<text text-anchor="start" x="31" y="-1341.5" font-family="Helvetica,sans-Serif" font-size="10.00">TMC2130Stepper::LOST</text>
<text text-anchor="middle" x="84" y="-1330.5" font-family="Helvetica,sans-Serif" font-size="10.00">_STEPS</text>
</a>
</g>
</g>
<!-- Node2&#45;&gt;Node122 -->
<g id="edge14" class="edge"><title>Node2&#45;&gt;Node122</title>
<path fill="none" stroke="midnightblue" d="M230.325,-1289.15C212.226,-1296.73 189.015,-1306.1 168,-1313.5 158.205,-1316.95 147.66,-1320.35 137.482,-1323.49"/>
<polygon fill="midnightblue" stroke="midnightblue" points="231.959,-1292.26 239.808,-1285.14 229.235,-1285.81 231.959,-1292.26"/>
</g>
<!-- Node123 -->
<g id="node16" class="node"><title>Node123</title>
<g id="a_node16"><a xlink:href="../../db/d9d/class_t_m_c2160_stepper.html#a6e35363428a742e1e14cf225e683fa4c" target="_top" xlink:title=" ">
<polygon fill="white" stroke="black" points="0,-1285 0,-1304 168,-1304 168,-1285 0,-1285"/>
<text text-anchor="middle" x="84" y="-1292" font-family="Helvetica,sans-Serif" font-size="10.00">TMC2160Stepper::OFFSET_READ</text>
</a>
</g>
</g>
<!-- Node2&#45;&gt;Node123 -->
<g id="edge15" class="edge"><title>Node2&#45;&gt;Node123</title>
<path fill="none" stroke="midnightblue" d="M194.566,-1282.74C185.947,-1283.66 177.045,-1284.62 168.213,-1285.57"/>
<polygon fill="midnightblue" stroke="midnightblue" points="194.964,-1286.22 204.533,-1281.67 194.217,-1279.26 194.964,-1286.22"/>
</g>
<!-- Node124 -->
<g id="node17" class="node"><title>Node124</title>
<g id="a_node17"><a xlink:href="../../d2/d6e/class_t_m_c5160_stepper.html#a7e8ae217437e9ca5ab353cb7a9d30b82" target="_top" xlink:title=" ">
<polygon fill="white" stroke="red" points="7,-1247 7,-1266 161,-1266 161,-1247 7,-1247"/>
<text text-anchor="middle" x="84" y="-1254" font-family="Helvetica,sans-Serif" font-size="10.00">TMC5160Stepper::PWM_AUTO</text>
</a>
</g>
</g>
<!-- Node2&#45;&gt;Node124 -->
<g id="edge16" class="edge"><title>Node2&#45;&gt;Node124</title>
<path fill="none" stroke="midnightblue" d="M194.305,-1268.23C183.471,-1267.07 172.197,-1265.86 161.183,-1264.68"/>
<polygon fill="midnightblue" stroke="midnightblue" points="194.217,-1271.74 204.533,-1269.33 194.964,-1264.78 194.217,-1271.74"/>
</g>
<!-- Node127 -->
<g id="node18" class="node"><title>Node127</title>
<g id="a_node18"><a xlink:href="../../dd/deb/class_t_m_c2130_stepper.html#ad207fa693692567d117d4b02c217a4e9" target="_top" xlink:title=" ">
<polygon fill="white" stroke="black" points="23,-1197.5 23,-1227.5 145,-1227.5 145,-1197.5 23,-1197.5"/>
<text text-anchor="start" x="31" y="-1215.5" font-family="Helvetica,sans-Serif" font-size="10.00">TMC2130Stepper::PWM</text>
<text text-anchor="middle" x="84" y="-1204.5" font-family="Helvetica,sans-Serif" font-size="10.00">_SCALE</text>
</a>
</g>
</g>
<!-- Node2&#45;&gt;Node127 -->
<g id="edge17" class="edge"><title>Node2&#45;&gt;Node127</title>
<path fill="none" stroke="midnightblue" d="M230.325,-1261.85C212.226,-1254.27 189.015,-1244.9 168,-1237.5 158.205,-1234.05 147.66,-1230.65 137.482,-1227.51"/>
<polygon fill="midnightblue" stroke="midnightblue" points="229.235,-1265.19 239.808,-1265.86 231.959,-1258.74 229.235,-1265.19"/>
</g>
<!-- Node128 -->
<g id="node19" class="node"><title>Node128</title>
<g id="a_node19"><a xlink:href="../../db/d9d/class_t_m_c2160_stepper.html#a105381369f3d6267e907ff4ea0b31aac" target="_top" xlink:title=" ">
<polygon fill="white" stroke="red" points="23,-1148.5 23,-1178.5 145,-1178.5 145,-1148.5 23,-1148.5"/>
<text text-anchor="start" x="31" y="-1166.5" font-family="Helvetica,sans-Serif" font-size="10.00">TMC2160Stepper::PWM</text>
<text text-anchor="middle" x="84" y="-1155.5" font-family="Helvetica,sans-Serif" font-size="10.00">_SCALE</text>
</a>
</g>
</g>
<!-- Node2&#45;&gt;Node128 -->
<g id="edge18" class="edge"><title>Node2&#45;&gt;Node128</title>
<path fill="none" stroke="midnightblue" d="M247.58,-1258.04C230.504,-1238.44 200.281,-1206.97 168,-1188.5 160.946,-1184.46 153.175,-1181.02 145.303,-1178.09"/>
<polygon fill="midnightblue" stroke="midnightblue" points="245.111,-1260.54 254.261,-1265.88 250.44,-1256 245.111,-1260.54"/>
</g>
<!-- Node131 -->
<g id="node20" class="node"><title>Node131</title>
<g id="a_node20"><a xlink:href="../../d9/df8/class_t_m_c5130_stepper.html#a1acd1a115fcf4dc050b3b0948cff9dc4" target="_top" xlink:title=" ">
<polygon fill="white" stroke="black" points="6.5,-1110 6.5,-1129 161.5,-1129 161.5,-1110 6.5,-1110"/>
<text text-anchor="middle" x="84" y="-1117" font-family="Helvetica,sans-Serif" font-size="10.00">TMC5130Stepper::RAMP_STAT</text>
</a>
</g>
</g>
<!-- Node2&#45;&gt;Node131 -->
<g id="edge19" class="edge"><title>Node2&#45;&gt;Node131</title>
<path fill="none" stroke="midnightblue" d="M254.269,-1256.5C241.145,-1226.73 211.615,-1169.42 168,-1139.5 161.644,-1135.14 154.446,-1131.73 147.009,-1129.05"/>
<polygon fill="midnightblue" stroke="midnightblue" points="251.087,-1257.96 258.223,-1265.79 257.527,-1255.22 251.087,-1257.96"/>
</g>
<!-- Node132 -->
<g id="node21" class="node"><title>Node132</title>
<g id="a_node21"><a xlink:href="../../d9/df8/class_t_m_c5130_stepper.html#a020e6ae2a6abce1a92338345aab2ae7c" target="_top" xlink:title=" ">
<polygon fill="white" stroke="red" points="6.5,-1072 6.5,-1091 161.5,-1091 161.5,-1072 6.5,-1072"/>
<text text-anchor="middle" x="84" y="-1079" font-family="Helvetica,sans-Serif" font-size="10.00">TMC5130Stepper::RAMPMODE</text>
</a>
</g>
</g>
<!-- Node2&#45;&gt;Node132 -->
<g id="edge20" class="edge"><title>Node2&#45;&gt;Node132</title>
<path fill="none" stroke="midnightblue" d="M257.205,-1255.76C247.237,-1219.11 220.689,-1140.68 168,-1100.5 162.945,-1096.65 157.247,-1093.55 151.264,-1091.07"/>
<polygon fill="midnightblue" stroke="midnightblue" points="253.883,-1256.89 259.777,-1265.7 260.66,-1255.14 253.883,-1256.89"/>
</g>
<!-- Node134 -->
<g id="node22" class="node"><title>Node134</title>
<g id="a_node22"><a xlink:href="../../d9/df8/class_t_m_c5130_stepper.html#af78bc5ec6076b4e7ac8006488b069413" target="_top" xlink:title=" ">
<polygon fill="white" stroke="red" points="9.5,-1034 9.5,-1053 158.5,-1053 158.5,-1034 9.5,-1034"/>
<text text-anchor="middle" x="84" y="-1041" font-family="Helvetica,sans-Serif" font-size="10.00">TMC5130Stepper::SW_MODE</text>
</a>
</g>
</g>
<!-- Node2&#45;&gt;Node134 -->
<g id="edge21" class="edge"><title>Node2&#45;&gt;Node134</title>
<path fill="none" stroke="midnightblue" d="M259.245,-1255.68C252.261,-1213.29 229.806,-1113.52 168,-1062.5 163.326,-1058.64 158.02,-1055.53 152.405,-1053.03"/>
<polygon fill="midnightblue" stroke="midnightblue" points="255.79,-1256.24 260.764,-1265.6 262.709,-1255.18 255.79,-1256.24"/>
</g>
<!-- Node135 -->
<g id="node23" class="node"><title>Node135</title>
<g id="a_node23"><a xlink:href="../../d9/df8/class_t_m_c5130_stepper.html#acd29f5c1f0f47342dd2d942c9c5252c1" target="_top" xlink:title=" ">
<polygon fill="white" stroke="black" points="13,-996 13,-1015 155,-1015 155,-996 13,-996"/>
<text text-anchor="middle" x="84" y="-1003" font-family="Helvetica,sans-Serif" font-size="10.00">TMC5130Stepper::VACTUAL</text>
</a>
</g>
</g>
<!-- Node2&#45;&gt;Node135 -->
<g id="edge22" class="edge"><title>Node2&#45;&gt;Node135</title>
<path fill="none" stroke="midnightblue" d="M260.709,-1255.52C256.506,-1207.82 239.016,-1086.63 168,-1024.5 163.661,-1020.7 158.718,-1017.62 153.455,-1015.13"/>
<polygon fill="midnightblue" stroke="midnightblue" points="257.239,-1256.05 261.5,-1265.75 264.218,-1255.51 257.239,-1256.05"/>
</g>
<!-- Node136 -->
<g id="node24" class="node"><title>Node136</title>
<g id="a_node24"><a xlink:href="../../d9/df8/class_t_m_c5130_stepper.html#a432764a59619856079ecfb56ee426f2d" target="_top" xlink:title=" ">
<polygon fill="white" stroke="black" points="20,-958 20,-977 148,-977 148,-958 20,-958"/>
<text text-anchor="middle" x="84" y="-965" font-family="Helvetica,sans-Serif" font-size="10.00">TMC5130Stepper::X_ENC</text>
</a>
</g>
</g>
<!-- Node2&#45;&gt;Node136 -->
<g id="edge23" class="edge"><title>Node2&#45;&gt;Node136</title>
<path fill="none" stroke="midnightblue" d="M261.832,-1255.43C260.245,-1202.82 248.364,-1059.98 168,-986.5 162.327,-981.313 155.534,-977.449 148.31,-974.585"/>
<polygon fill="midnightblue" stroke="midnightblue" points="258.339,-1255.82 262.04,-1265.74 265.338,-1255.67 258.339,-1255.82"/>
</g>
<!-- Node137 -->
<g id="node25" class="node"><title>Node137</title>
<g id="a_node25"><a xlink:href="../../d9/df8/class_t_m_c5130_stepper.html#a7ddd27bea8034e6aec78ab2cf83cedd4" target="_top" xlink:title=" ">
<polygon fill="white" stroke="red" points="14,-920 14,-939 154,-939 154,-920 14,-920"/>
<text text-anchor="middle" x="84" y="-927" font-family="Helvetica,sans-Serif" font-size="10.00">TMC5130Stepper::XACTUAL</text>
</a>
</g>
</g>
<!-- Node2&#45;&gt;Node137 -->
<g id="edge24" class="edge"><title>Node2&#45;&gt;Node137</title>
<path fill="none" stroke="midnightblue" d="M262.717,-1255.52C263.606,-1198.5 257.9,-1033.6 168,-948.5 163.92,-944.638 159.223,-941.505 154.182,-938.968"/>
<polygon fill="midnightblue" stroke="midnightblue" points="259.214,-1255.63 262.465,-1265.71 266.212,-1255.8 259.214,-1255.63"/>
</g>
<!-- Node138 -->
<g id="node26" class="node"><title>Node138</title>
<g id="a_node26"><a xlink:href="../../dd/deb/class_t_m_c2130_stepper.html#af486cd4712be021c735fc3bcb8eee9f5" target="_top" xlink:title=" ">
<polygon fill="white" stroke="red" points="15.5,-882 15.5,-901 152.5,-901 152.5,-882 15.5,-882"/>
<text text-anchor="middle" x="84" y="-889" font-family="Helvetica,sans-Serif" font-size="10.00">TMC2130Stepper::XDIRECT</text>
</a>
</g>
</g>
<!-- Node2&#45;&gt;Node138 -->
<g id="edge25" class="edge"><title>Node2&#45;&gt;Node138</title>
<path fill="none" stroke="midnightblue" d="M259.599,-1255.62C250.887,-1186.75 218.754,-959.901 168,-910.5 163.551,-906.17 158.328,-902.749 152.704,-900.055"/>
<polygon fill="midnightblue" stroke="midnightblue" points="256.173,-1256.43 260.875,-1265.92 263.119,-1255.57 256.173,-1256.43"/>
</g>
<!-- Node141 -->
<g id="node27" class="node"><title>Node141</title>
<g id="a_node27"><a xlink:href="../../d9/df8/class_t_m_c5130_stepper.html#aa027fe70ea5dc43b7bb0ac4452b4cbc3" target="_top" xlink:title=" ">
<polygon fill="white" stroke="black" points="17,-844 17,-863 151,-863 151,-844 17,-844"/>
<text text-anchor="middle" x="84" y="-851" font-family="Helvetica,sans-Serif" font-size="10.00">TMC5130Stepper::XLATCH</text>
</a>
</g>
</g>
<!-- Node2&#45;&gt;Node141 -->
<g id="edge26" class="edge"><title>Node2&#45;&gt;Node141</title>
<path fill="none" stroke="midnightblue" d="M260.102,-1255.48C252.723,-1181.89 223.568,-927.84 168,-872.5 163.182,-867.702 157.415,-864.014 151.197,-861.193"/>
<polygon fill="midnightblue" stroke="midnightblue" points="256.643,-1256.07 261.1,-1265.68 263.609,-1255.38 256.643,-1256.07"/>
</g>
<!-- Node142 -->
<g id="node28" class="node"><title>Node142</title>
<g id="a_node28"><a xlink:href="../../d9/df8/class_t_m_c5130_stepper.html#ae33c13bf7dc95cd8a8a4d8e1c444f9e5" target="_top" xlink:title=" ">
<polygon fill="white" stroke="red" points="13.5,-806 13.5,-825 154.5,-825 154.5,-806 13.5,-806"/>
<text text-anchor="middle" x="84" y="-813" font-family="Helvetica,sans-Serif" font-size="10.00">TMC5130Stepper::XTARGET</text>
</a>
</g>
</g>
<!-- Node2&#45;&gt;Node142 -->
<g id="edge27" class="edge"><title>Node2&#45;&gt;Node142</title>
<path fill="none" stroke="midnightblue" d="M260.548,-1255.64C254.464,-1177.95 228.484,-895.9 168,-834.5 164.162,-830.604 159.699,-827.436 154.873,-824.869"/>
<polygon fill="midnightblue" stroke="midnightblue" points="257.082,-1256.22 261.329,-1265.93 264.062,-1255.69 257.082,-1256.22"/>
</g>
<!-- Node143&#45;&gt;Node2 -->
<g id="edge29" class="edge"><title>Node143&#45;&gt;Node2</title>
<path fill="none" stroke="midnightblue" d="M409.839,-981.053C377.426,-1046.49 289.982,-1223.04 268.711,-1265.99"/>
<polygon fill="midnightblue" stroke="midnightblue" points="413.077,-982.401 414.379,-971.886 406.805,-979.294 413.077,-982.401"/>
</g>
<!-- Node143&#45;&gt;Node144 -->
<g id="edge30" class="edge"><title>Node143&#45;&gt;Node144</title>
<path fill="none" stroke="midnightblue" d="M414.191,-931.69C385.377,-840.141 285.725,-523.524 267.034,-464.14"/>
<polygon fill="midnightblue" stroke="midnightblue" points="410.931,-932.988 417.271,-941.476 417.608,-930.887 410.931,-932.988"/>
</g>
<!-- Node145 -->
<g id="node31" class="node"><title>Node145</title>
<g id="a_node31"><a xlink:href="../../d9/df8/class_t_m_c5130_stepper.html#a76052c6b0797d7f5707167f9dc38c070" target="_top" xlink:title=" ">
<polygon fill="white" stroke="black" points="29,-768 29,-787 139,-787 139,-768 29,-768"/>
<text text-anchor="middle" x="84" y="-775" font-family="Helvetica,sans-Serif" font-size="10.00">TMC5130Stepper::A1</text>
</a>
</g>
</g>
<!-- Node144&#45;&gt;Node145 -->
<g id="edge31" class="edge"><title>Node144&#45;&gt;Node145</title>
<path fill="none" stroke="midnightblue" d="M262.207,-474.503C261.62,-528.861 252.135,-680.438 168,-758.5 159.981,-765.94 149.663,-770.667 139.044,-773.627"/>
<polygon fill="midnightblue" stroke="midnightblue" points="265.707,-474.179 262.219,-464.175 258.707,-474.171 265.707,-474.179"/>
</g>
<!-- Node146 -->
<g id="node32" class="node"><title>Node146</title>
<g id="a_node32"><a xlink:href="../../d9/df8/class_t_m_c5130_stepper.html#a967f67e12de5fc725f34d1f07e751146" target="_top" xlink:title=" ">
<polygon fill="white" stroke="black" points="21.5,-730 21.5,-749 146.5,-749 146.5,-730 21.5,-730"/>
<text text-anchor="middle" x="84" y="-737" font-family="Helvetica,sans-Serif" font-size="10.00">TMC5130Stepper::AMAX</text>
</a>
</g>
</g>
<!-- Node144&#45;&gt;Node146 -->
<g id="edge32" class="edge"><title>Node144&#45;&gt;Node146</title>
<path fill="none" stroke="midnightblue" d="M261.2,-474.301C258.081,-523.817 242.803,-653.817 168,-720.5 161.821,-726.009 154.373,-730.016 146.508,-732.916"/>
<polygon fill="midnightblue" stroke="midnightblue" points="264.711,-474.187 261.74,-464.018 257.72,-473.82 264.711,-474.187"/>
</g>
<!-- Node147 -->
<g id="node33" class="node"><title>Node147</title>
<g id="a_node33"><a xlink:href="../../dd/deb/class_t_m_c2130_stepper.html#a8f881532eca7813597a1292ed060d18c" target="_top" xlink:title=" ">
<polygon fill="white" stroke="black" points="8,-692 8,-711 160,-711 160,-692 8,-692"/>
<text text-anchor="middle" x="84" y="-699" font-family="Helvetica,sans-Serif" font-size="10.00">TMC2130Stepper::CHOPCONF</text>
</a>
</g>
</g>
<!-- Node144&#45;&gt;Node147 -->
<g id="edge33" class="edge"><title>Node144&#45;&gt;Node147</title>
<path fill="none" stroke="midnightblue" d="M259.904,-474.154C254.08,-518.55 233.539,-627.028 168,-682.5 163.487,-686.32 158.357,-689.41 152.915,-691.905"/>
<polygon fill="midnightblue" stroke="midnightblue" points="263.395,-474.439 261.111,-464.094 256.445,-473.606 263.395,-474.439"/>
</g>
<!-- Node148 -->
<g id="node34" class="node"><title>Node148</title>
<g id="a_node34"><a xlink:href="../../dd/deb/class_t_m_c2130_stepper.html#a11e7ca8148bc856a18af9fa0394a647d" target="_top" xlink:title=" ">
<polygon fill="white" stroke="black" points="21.5,-654 21.5,-673 146.5,-673 146.5,-654 21.5,-654"/>
<text text-anchor="middle" x="84" y="-661" font-family="Helvetica,sans-Serif" font-size="10.00">TMC2130Stepper::coil_A</text>
</a>
</g>
</g>
<!-- Node144&#45;&gt;Node148 -->
<g id="edge34" class="edge"><title>Node144&#45;&gt;Node148</title>
<path fill="none" stroke="midnightblue" d="M258.097,-474.285C249.327,-513.271 224.265,-600.088 168,-644.5 161.734,-649.446 154.419,-653.15 146.775,-655.918"/>
<polygon fill="midnightblue" stroke="midnightblue" points="261.579,-474.733 260.232,-464.224 254.732,-473.28 261.579,-474.733"/>
</g>
<!-- Node149 -->
<g id="node35" class="node"><title>Node149</title>
<g id="a_node35"><a xlink:href="../../dd/deb/class_t_m_c2130_stepper.html#a40464704d8da6ad1998cb0c1ea564cce" target="_top" xlink:title=" ">
<polygon fill="white" stroke="black" points="21.5,-616 21.5,-635 146.5,-635 146.5,-616 21.5,-616"/>
<text text-anchor="middle" x="84" y="-623" font-family="Helvetica,sans-Serif" font-size="10.00">TMC2130Stepper::coil_B</text>
</a>
</g>
</g>
<!-- Node144&#45;&gt;Node149 -->
<g id="edge35" class="edge"><title>Node144&#45;&gt;Node149</title>
<path fill="none" stroke="midnightblue" d="M255.626,-473.911C243.829,-506.654 215.384,-572.601 168,-606.5 161.628,-611.059 154.337,-614.544 146.78,-617.205"/>
<polygon fill="midnightblue" stroke="midnightblue" points="259.032,-474.768 258.991,-464.174 252.416,-472.482 259.032,-474.768"/>
</g>
<!-- Node150 -->
<g id="node36" class="node"><title>Node150</title>
<g id="a_node36"><a xlink:href="../../dd/deb/class_t_m_c2130_stepper.html#afc1072e86397d2646fd4fb7b30e41ab8" target="_top" xlink:title=" ">
<polygon fill="white" stroke="black" points="8,-578 8,-597 160,-597 160,-578 8,-578"/>
<text text-anchor="middle" x="84" y="-585" font-family="Helvetica,sans-Serif" font-size="10.00">TMC2130Stepper::COOLCONF</text>
</a>
</g>
</g>
<!-- Node144&#45;&gt;Node150 -->
<g id="edge36" class="edge"><title>Node144&#45;&gt;Node150</title>
<path fill="none" stroke="midnightblue" d="M252.016,-473.02C237.199,-498.649 206.902,-544.48 168,-568.5 161.711,-572.383 154.712,-575.474 147.521,-577.934"/>
<polygon fill="midnightblue" stroke="midnightblue" points="255.082,-474.708 256.923,-464.274 248.978,-471.283 255.082,-474.708"/>
</g>
<!-- Node151 -->
<g id="node37" class="node"><title>Node151</title>
<g id="a_node37"><a xlink:href="../../d9/df8/class_t_m_c5130_stepper.html#abc7865021874083213e60aa77b7201d6" target="_top" xlink:title=" ">
<polygon fill="white" stroke="black" points="29,-540 29,-559 139,-559 139,-540 29,-540"/>
<text text-anchor="middle" x="84" y="-547" font-family="Helvetica,sans-Serif" font-size="10.00">TMC5130Stepper::D1</text>
</a>
</g>
</g>
<!-- Node144&#45;&gt;Node151 -->
<g id="edge37" class="edge"><title>Node144&#45;&gt;Node151</title>
<path fill="none" stroke="midnightblue" d="M245.987,-471.371C228.473,-488.813 198.771,-515.542 168,-530.5 159.092,-534.83 149.162,-538.195 139.355,-540.803"/>
<polygon fill="midnightblue" stroke="midnightblue" points="248.63,-473.676 253.137,-464.087 243.635,-468.772 248.63,-473.676"/>
</g>
<!-- Node152 -->
<g id="node38" class="node"><title>Node152</title>
<g id="a_node38"><a xlink:href="../../dd/deb/class_t_m_c2130_stepper.html#a55ea165bcc2fc0da6395340f17e47611" target="_top" xlink:title=" ">
<polygon fill="white" stroke="black" points="22,-502 22,-521 146,-521 146,-502 22,-502"/>
<text text-anchor="middle" x="84" y="-509" font-family="Helvetica,sans-Serif" font-size="10.00">TMC2130Stepper::dc_sg</text>
</a>
</g>
</g>
<!-- Node144&#45;&gt;Node152 -->
<g id="edge38" class="edge"><title>Node144&#45;&gt;Node152</title>
<path fill="none" stroke="midnightblue" d="M231.836,-468.123C213.615,-475.991 189.778,-485.653 168,-492.5 156.718,-496.047 144.382,-499.232 132.753,-501.936"/>
<polygon fill="midnightblue" stroke="midnightblue" points="233.314,-471.297 241.072,-464.082 230.507,-464.884 233.314,-471.297"/>
</g>
<!-- Node153 -->
<g id="node39" class="node"><title>Node153</title>
<g id="a_node39"><a xlink:href="../../dd/deb/class_t_m_c2130_stepper.html#a5b90d46cecffc6511b6bb95943b30bdb" target="_top" xlink:title=" ">
<polygon fill="white" stroke="black" points="18,-464 18,-483 150,-483 150,-464 18,-464"/>
<text text-anchor="middle" x="84" y="-471" font-family="Helvetica,sans-Serif" font-size="10.00">TMC2130Stepper::dc_time</text>
</a>
</g>
</g>
<!-- Node144&#45;&gt;Node153 -->
<g id="edge39" class="edge"><title>Node144&#45;&gt;Node153</title>
<path fill="none" stroke="midnightblue" d="M193.35,-461.869C179.133,-463.395 164.195,-464.999 150.109,-466.511"/>
<polygon fill="midnightblue" stroke="midnightblue" points="193.984,-465.321 203.553,-460.774 193.237,-458.361 193.984,-465.321"/>
</g>
<!-- Node154 -->
<g id="node40" class="node"><title>Node154</title>
<g id="a_node40"><a xlink:href="../../dd/deb/class_t_m_c2130_stepper.html#ae9a34eefa766c1c5f8bda09acb1e61c1" target="_top" xlink:title=" ">
<polygon fill="white" stroke="black" points="16.5,-426 16.5,-445 151.5,-445 151.5,-426 16.5,-426"/>
<text text-anchor="middle" x="84" y="-433" font-family="Helvetica,sans-Serif" font-size="10.00">TMC2130Stepper::DCCTRL</text>
</a>
</g>
</g>
<!-- Node144&#45;&gt;Node154 -->
<g id="edge40" class="edge"><title>Node144&#45;&gt;Node154</title>
<path fill="none" stroke="midnightblue" d="M193.253,-447.12C179.585,-445.653 165.254,-444.115 151.657,-442.655"/>
<polygon fill="midnightblue" stroke="midnightblue" points="193.237,-450.639 203.553,-448.226 193.984,-443.679 193.237,-450.639"/>
</g>
<!-- Node155 -->
<g id="node41" class="node"><title>Node155</title>
<g id="a_node41"><a xlink:href="../../d9/df8/class_t_m_c5130_stepper.html#a6fc018f81c10dd3307d55b31d070b816" target="_top" xlink:title=" ">
<polygon fill="white" stroke="black" points="21.5,-388 21.5,-407 146.5,-407 146.5,-388 21.5,-388"/>
<text text-anchor="middle" x="84" y="-395" font-family="Helvetica,sans-Serif" font-size="10.00">TMC5130Stepper::DMAX</text>
</a>
</g>
</g>
<!-- Node144&#45;&gt;Node155 -->
<g id="edge41" class="edge"><title>Node144&#45;&gt;Node155</title>
<path fill="none" stroke="midnightblue" d="M231.836,-440.877C213.615,-433.009 189.778,-423.347 168,-416.5 156.718,-412.953 144.382,-409.768 132.753,-407.064"/>
<polygon fill="midnightblue" stroke="midnightblue" points="230.507,-444.116 241.072,-444.918 233.314,-437.703 230.507,-444.116"/>
</g>
<!-- Node156 -->
<g id="node42" class="node"><title>Node156</title>
<g id="a_node42"><a xlink:href="../../db/d9d/class_t_m_c2160_stepper.html#a6aec416cc563c9a195929bfd36e1707a" target="_top" xlink:title=" ">
<polygon fill="white" stroke="black" points="9,-350 9,-369 159,-369 159,-350 9,-350"/>
<text text-anchor="middle" x="84" y="-357" font-family="Helvetica,sans-Serif" font-size="10.00">TMC2160Stepper::DRV_CONF</text>
</a>
</g>
</g>
<!-- Node144&#45;&gt;Node156 -->
<g id="edge42" class="edge"><title>Node144&#45;&gt;Node156</title>
<path fill="none" stroke="midnightblue" d="M245.987,-437.629C228.473,-420.187 198.771,-393.458 168,-378.5 160.023,-374.622 151.226,-371.519 142.431,-369.039"/>
<polygon fill="midnightblue" stroke="midnightblue" points="243.635,-440.228 253.137,-444.913 248.63,-435.324 243.635,-440.228"/>
</g>
<!-- Node157 -->
<g id="node43" class="node"><title>Node157</title>
<g id="a_node43"><a xlink:href="../../d9/df8/class_t_m_c5130_stepper.html#a4e170413a630ba0037569cb2cb96351c" target="_top" xlink:title=" ">
<polygon fill="white" stroke="black" points="25,-300.5 25,-330.5 143,-330.5 143,-300.5 25,-300.5"/>
<text text-anchor="start" x="33" y="-318.5" font-family="Helvetica,sans-Serif" font-size="10.00">TMC5130Stepper::ENC</text>
<text text-anchor="middle" x="84" y="-307.5" font-family="Helvetica,sans-Serif" font-size="10.00">_CONST</text>
</a>
</g>
</g>
<!-- Node144&#45;&gt;Node157 -->
<g id="edge43" class="edge"><title>Node144&#45;&gt;Node157</title>
<path fill="none" stroke="midnightblue" d="M251.585,-436.006C236.423,-410.742 205.901,-365.708 168,-340.5 160.482,-335.5 151.928,-331.47 143.238,-328.23"/>
<polygon fill="midnightblue" stroke="midnightblue" points="248.729,-438.056 256.793,-444.929 254.775,-434.528 248.729,-438.056"/>
</g>
<!-- Node158 -->
<g id="node44" class="node"><title>Node158</title>
<g id="a_node44"><a xlink:href="../../d2/d6e/class_t_m_c5160_stepper.html#a42b5bd196fdbb78044b669342384ec28" target="_top" xlink:title=" ">
<polygon fill="white" stroke="black" points="25,-251.5 25,-281.5 143,-281.5 143,-251.5 25,-251.5"/>
<text text-anchor="start" x="33" y="-269.5" font-family="Helvetica,sans-Serif" font-size="10.00">TMC5160Stepper::ENC</text>
<text text-anchor="middle" x="84" y="-258.5" font-family="Helvetica,sans-Serif" font-size="10.00">_DEVIATION</text>
</a>
</g>
</g>
<!-- Node144&#45;&gt;Node158 -->
<g id="edge44" class="edge"><title>Node144&#45;&gt;Node158</title>
<path fill="none" stroke="midnightblue" d="M256.165,-434.823C244.911,-400.317 216.901,-328.917 168,-290.5 160.687,-284.755 152.048,-280.385 143.154,-277.06"/>
<polygon fill="midnightblue" stroke="midnightblue" points="252.91,-436.142 259.235,-444.641 259.591,-434.053 252.91,-436.142"/>
</g>
<!-- Node159 -->
<g id="node45" class="node"><title>Node159</title>
<g id="a_node45"><a xlink:href="../../d2/d6e/class_t_m_c5160_stepper.html#a5b60cb0c1913fc270311011223782363" target="_top" xlink:title=" ">
<polygon fill="white" stroke="black" points="25,-202.5 25,-232.5 143,-232.5 143,-202.5 25,-202.5"/>
<text text-anchor="start" x="33" y="-220.5" font-family="Helvetica,sans-Serif" font-size="10.00">TMC5160Stepper::ENC</text>
<text text-anchor="middle" x="84" y="-209.5" font-family="Helvetica,sans-Serif" font-size="10.00">_STATUS</text>
</a>
</g>
</g>
<!-- Node144&#45;&gt;Node159 -->
<g id="edge45" class="edge"><title>Node144&#45;&gt;Node159</title>
<path fill="none" stroke="midnightblue" d="M258.974,-434.675C251.502,-392.644 228.213,-294.134 168,-241.5 160.885,-235.281 152.245,-230.669 143.262,-227.25"/>
<polygon fill="midnightblue" stroke="midnightblue" points="255.554,-435.443 260.647,-444.733 262.459,-434.294 255.554,-435.443"/>
</g>
<!-- Node160 -->
<g id="node46" class="node"><title>Node160</title>
<g id="a_node46"><a xlink:href="../../dd/deb/class_t_m_c2130_stepper.html#af193f7a3cecbeff29d0db36a2c8b3094" target="_top" xlink:title=" ">
<polygon fill="white" stroke="black" points="6.5,-164 6.5,-183 161.5,-183 161.5,-164 6.5,-164"/>
<text text-anchor="middle" x="84" y="-171" font-family="Helvetica,sans-Serif" font-size="10.00">TMC2130Stepper::ENCM_CTRL</text>
</a>
</g>
</g>
<!-- Node144&#45;&gt;Node160 -->
<g id="edge46" class="edge"><title>Node144&#45;&gt;Node160</title>
<path fill="none" stroke="midnightblue" d="M261.075,-434.657C257.671,-385.62 241.794,-257.967 168,-192.5 163.687,-188.674 158.762,-185.573 153.512,-183.064"/>
<polygon fill="midnightblue" stroke="midnightblue" points="257.594,-435.086 261.677,-444.862 264.582,-434.674 257.594,-435.086"/>
</g>
<!-- Node161 -->
<g id="node47" class="node"><title>Node161</title>
<g id="a_node47"><a xlink:href="../../d9/df8/class_t_m_c5130_stepper.html#aef59e4f446323c23418fe05051993e6f" target="_top" xlink:title=" ">
<polygon fill="white" stroke="black" points="10.5,-126 10.5,-145 157.5,-145 157.5,-126 10.5,-126"/>
<text text-anchor="middle" x="84" y="-133" font-family="Helvetica,sans-Serif" font-size="10.00">TMC5130Stepper::ENCMODE</text>
</a>
</g>
</g>
<!-- Node144&#45;&gt;Node161 -->
<g id="edge47" class="edge"><title>Node144&#45;&gt;Node161</title>
<path fill="none" stroke="midnightblue" d="M262.115,-434.753C261.294,-381.092 251.27,-231.469 168,-154.5 163.875,-150.687 159.146,-147.587 154.083,-145.073"/>
<polygon fill="midnightblue" stroke="midnightblue" points="258.616,-434.968 262.172,-444.949 265.616,-434.929 258.616,-434.968"/>
</g>
<!-- Node162 -->
<g id="node48" class="node"><title>Node162</title>
<g id="a_node48"><a xlink:href="../../db/d9d/class_t_m_c2160_stepper.html#a905cd46baa5574ef977964787379c30e" target="_top" xlink:title=" ">
<polygon fill="white" stroke="black" points="15,-88 15,-107 153,-107 153,-88 15,-88"/>
<text text-anchor="middle" x="84" y="-95" font-family="Helvetica,sans-Serif" font-size="10.00">TMC2160Stepper::freewheel</text>
</a>
</g>
</g>
<!-- Node144&#45;&gt;Node162 -->
<g id="edge48" class="edge"><title>Node144&#45;&gt;Node162</title>
<path fill="none" stroke="midnightblue" d="M259.195,-434.826C249.498,-369.553 215.375,-161.734 168,-116.5 163.616,-112.315 158.508,-108.982 153.02,-106.338"/>
<polygon fill="midnightblue" stroke="midnightblue" points="255.768,-435.585 260.675,-444.975 262.695,-434.575 255.768,-435.585"/>
</g>
<!-- Node163 -->
<g id="node49" class="node"><title>Node163</title>
<g id="a_node49"><a xlink:href="../../dd/deb/class_t_m_c2130_stepper.html#ad7e2c224a86768c38c5167b2bee7de05" target="_top" xlink:title=" ">
<polygon fill="white" stroke="black" points="18,-50 18,-69 150,-69 150,-50 18,-50"/>
<text text-anchor="middle" x="84" y="-57" font-family="Helvetica,sans-Serif" font-size="10.00">TMC2130Stepper::GCONF</text>
</a>
</g>
</g>
<!-- Node144&#45;&gt;Node163 -->
<g id="edge49" class="edge"><title>Node144&#45;&gt;Node163</title>
<path fill="none" stroke="midnightblue" d="M259.795,-434.922C251.541,-365.095 220.231,-129.7 168,-78.5 162.933,-73.5329 156.848,-69.7606 150.305,-66.9095"/>
<polygon fill="midnightblue" stroke="midnightblue" points="256.333,-435.453 260.959,-444.985 263.287,-434.649 256.333,-435.453"/>
</g>
<!-- Node164 -->
<g id="node50" class="node"><title>Node164</title>
<g id="a_node50"><a xlink:href="../../db/d9d/class_t_m_c2160_stepper.html#a182c03c51d92c565b15b6e7e459e55ae" target="_top" xlink:title=" ">
<polygon fill="white" stroke="black" points="15.5,-0.5 15.5,-30.5 152.5,-30.5 152.5,-0.5 15.5,-0.5"/>
<text text-anchor="start" x="23.5" y="-18.5" font-family="Helvetica,sans-Serif" font-size="10.00">TMC2160Stepper::GLOBAL</text>
<text text-anchor="middle" x="84" y="-7.5" font-family="Helvetica,sans-Serif" font-size="10.00">_SCALER</text>
</a>
</g>
</g>
<!-- Node144&#45;&gt;Node164 -->
<g id="edge50" class="edge"><title>Node144&#45;&gt;Node164</title>
<path fill="none" stroke="midnightblue" d="M260.106,-434.544C252.651,-360.045 223.005,-99.4553 168,-40.5 163.585,-35.7684 158.312,-31.9211 152.593,-28.7943"/>
<polygon fill="midnightblue" stroke="midnightblue" points="256.657,-435.232 261.113,-444.844 263.623,-434.551 256.657,-435.232"/>
</g>
</g>
</svg>
