<?xml version="1.0" encoding="UTF-8" standalone="no"?>
<!DOCTYPE svg PUBLIC "-//W3C//DTD SVG 1.1//EN"
 "http://www.w3.org/Graphics/SVG/1.1/DTD/svg11.dtd">
<!-- Generated by graphviz version 2.38.0 (20140413.2041)
 -->
<!-- Title: TMC2130Stepper::diag1_stall Pages: 1 -->
<svg width="975pt" height="192pt"
 viewBox="0.00 0.00 975.00 191.50" xmlns="http://www.w3.org/2000/svg" xmlns:xlink="http://www.w3.org/1999/xlink">
<g id="graph0" class="graph" transform="scale(1 1) rotate(0) translate(4 187.5)">
<title>TMC2130Stepper::diag1_stall</title>
<polygon fill="white" stroke="none" points="-4,4 -4,-187.5 971,-187.5 971,4 -4,4"/>
<!-- Node1 -->
<g id="node1" class="node"><title>Node1</title>
<g id="a_node1"><a xlink:title=" ">
<polygon fill="#bfbfbf" stroke="black" points="0,-82.5 0,-112.5 121,-112.5 121,-82.5 0,-82.5"/>
<text text-anchor="start" x="8" y="-100.5" font-family="Helvetica,sans-Serif" font-size="10.00">TMC2130Stepper::diag1</text>
<text text-anchor="middle" x="60.5" y="-89.5" font-family="Helvetica,sans-Serif" font-size="10.00">_stall</text>
</a>
</g>
</g>
<!-- Node2 -->
<g id="node2" class="node"><title>Node2</title>
<g id="a_node2"><a xlink:href="../../dd/deb/class_t_m_c2130_stepper.html#aee84a9abfc84b387c6ae5658f90bf684" target="_top" xlink:title=" ">
<polygon fill="white" stroke="black" points="157,-88 157,-107 289,-107 289,-88 157,-88"/>
<text text-anchor="middle" x="223" y="-95" font-family="Helvetica,sans-Serif" font-size="10.00">TMC2130Stepper::GCONF</text>
</a>
</g>
</g>
<!-- Node1&#45;&gt;Node2 -->
<g id="edge1" class="edge"><title>Node1&#45;&gt;Node2</title>
<path fill="none" stroke="midnightblue" d="M121.264,-97.5C129.501,-97.5 138.047,-97.5 146.522,-97.5"/>
<polygon fill="midnightblue" stroke="midnightblue" points="146.798,-101 156.798,-97.5 146.798,-94.0001 146.798,-101"/>
</g>
<!-- Node3 -->
<g id="node3" class="node"><title>Node3</title>
<g id="a_node3"><a xlink:href="../../dd/deb/class_t_m_c2130_stepper.html#a161ca6ebe3736454e17e9236572a6001" target="_top" xlink:title=" ">
<polygon fill="white" stroke="black" points="325,-88 325,-107 441,-107 441,-88 325,-88"/>
<text text-anchor="middle" x="383" y="-95" font-family="Helvetica,sans-Serif" font-size="10.00">TMC2130Stepper::read</text>
</a>
</g>
</g>
<!-- Node2&#45;&gt;Node3 -->
<g id="edge2" class="edge"><title>Node2&#45;&gt;Node3</title>
<path fill="none" stroke="midnightblue" d="M289.177,-97.5C297.517,-97.5 306.069,-97.5 314.445,-97.5"/>
<polygon fill="midnightblue" stroke="midnightblue" points="314.55,-101 324.55,-97.5 314.55,-94.0001 314.55,-101"/>
</g>
<!-- Node4 -->
<g id="node4" class="node"><title>Node4</title>
<g id="a_node4"><a xlink:href="../../dd/deb/class_t_m_c2130_stepper.html#a1fc868601a32fb0cd8fc536dafa8ecea" target="_top" xlink:title=" ">
<polygon fill="white" stroke="black" points="477,-164 477,-183 648,-183 648,-164 477,-164"/>
<text text-anchor="middle" x="562.5" y="-171" font-family="Helvetica,sans-Serif" font-size="10.00">TMC2130Stepper::beginTransaction</text>
</a>
</g>
</g>
<!-- Node3&#45;&gt;Node4 -->
<g id="edge3" class="edge"><title>Node3&#45;&gt;Node4</title>
<path fill="none" stroke="midnightblue" d="M396.522,-107.048C413.741,-119.725 446.117,-141.967 477,-154.5 483.272,-157.045 489.951,-159.283 496.7,-161.242"/>
<polygon fill="midnightblue" stroke="midnightblue" points="496.032,-164.687 506.599,-163.918 497.858,-157.93 496.032,-164.687"/>
</g>
<!-- Node5 -->
<g id="node5" class="node"><title>Node5</title>
<g id="a_node5"><a xlink:href="../../dd/deb/class_t_m_c2130_stepper.html#aeace18dcee808585dd4449e783811600" target="_top" xlink:title=" ">
<polygon fill="white" stroke="black" points="480.5,-126 480.5,-145 644.5,-145 644.5,-126 480.5,-126"/>
<text text-anchor="middle" x="562.5" y="-133" font-family="Helvetica,sans-Serif" font-size="10.00">TMC2130Stepper::endTransaction</text>
</a>
</g>
</g>
<!-- Node3&#45;&gt;Node5 -->
<g id="edge4" class="edge"><title>Node3&#45;&gt;Node5</title>
<path fill="none" stroke="midnightblue" d="M428.791,-107.089C452.53,-112.171 481.884,-118.455 506.944,-123.82"/>
<polygon fill="midnightblue" stroke="midnightblue" points="506.52,-127.309 517.031,-125.98 507.986,-120.464 506.52,-127.309"/>
</g>
<!-- Node6 -->
<g id="node6" class="node"><title>Node6</title>
<g id="a_node6"><a xlink:href="../../dd/deb/class_t_m_c2130_stepper.html#a4a8f3b6ac100045ed5f84fe4d18d9d5a" target="_top" xlink:title=" ">
<polygon fill="white" stroke="black" points="486.5,-88 486.5,-107 638.5,-107 638.5,-88 486.5,-88"/>
<text text-anchor="middle" x="562.5" y="-95" font-family="Helvetica,sans-Serif" font-size="10.00">TMC2130Stepper::switchCSpin</text>
</a>
</g>
</g>
<!-- Node3&#45;&gt;Node6 -->
<g id="edge5" class="edge"><title>Node3&#45;&gt;Node6</title>
<path fill="none" stroke="midnightblue" d="M441.139,-97.5C452.27,-97.5 464.163,-97.5 475.981,-97.5"/>
<polygon fill="midnightblue" stroke="midnightblue" points="476.325,-101 486.325,-97.5 476.324,-94.0001 476.325,-101"/>
</g>
<!-- Node7 -->
<g id="node7" class="node"><title>Node7</title>
<g id="a_node7"><a xlink:href="../../dd/deb/class_t_m_c2130_stepper.html#a0673af4887ec52b23aa658aa290f6623" target="_top" xlink:title=" ">
<polygon fill="white" stroke="black" points="684,-28 684,-47 814,-47 814,-28 684,-28"/>
<text text-anchor="middle" x="749" y="-35" font-family="Helvetica,sans-Serif" font-size="10.00">TMC2130Stepper::transfer</text>
</a>
</g>
</g>
<!-- Node3&#45;&gt;Node7 -->
<g id="edge6" class="edge"><title>Node3&#45;&gt;Node7</title>
<path fill="none" stroke="midnightblue" d="M428.378,-87.9498C443.744,-84.7717 461.099,-81.3252 477,-78.5 543.378,-66.7062 619.291,-55.4085 673.852,-47.6702"/>
<polygon fill="midnightblue" stroke="midnightblue" points="674.372,-51.1316 683.784,-46.2674 673.393,-44.2004 674.372,-51.1316"/>
</g>
<!-- Node9 -->
<g id="node9" class="node"><title>Node9</title>
<g id="a_node9"><a xlink:href="../../dd/deb/class_t_m_c2130_stepper.html#aba94fc7bb8e2c8c12191f44561f19d95" target="_top" xlink:title=" ">
<polygon fill="white" stroke="black" points="497.5,-0.5 497.5,-30.5 627.5,-30.5 627.5,-0.5 497.5,-0.5"/>
<text text-anchor="start" x="505.5" y="-18.5" font-family="Helvetica,sans-Serif" font-size="10.00">TMC2130Stepper::transfer</text>
<text text-anchor="middle" x="562.5" y="-7.5" font-family="Helvetica,sans-Serif" font-size="10.00">EmptyBytes</text>
</a>
</g>
</g>
<!-- Node3&#45;&gt;Node9 -->
<g id="edge8" class="edge"><title>Node3&#45;&gt;Node9</title>
<path fill="none" stroke="midnightblue" d="M399.378,-87.8381C417.488,-76.7136 448.694,-58.3277 477,-45.5 485.84,-41.494 495.386,-37.66 504.769,-34.1517"/>
<polygon fill="midnightblue" stroke="midnightblue" points="506.257,-37.3346 514.453,-30.6201 503.859,-30.7583 506.257,-37.3346"/>
</g>
<!-- Node8 -->
<g id="node8" class="node"><title>Node8</title>
<g id="a_node8"><a xlink:href="../../df/d8b/class_s_w___s_p_i_class.html#af260fdc0af3f1312b106483161e559c3" target="_top" xlink:title=" ">
<polygon fill="white" stroke="black" points="850,-28 850,-47 967,-47 967,-28 850,-28"/>
<text text-anchor="middle" x="908.5" y="-35" font-family="Helvetica,sans-Serif" font-size="10.00">SW_SPIClass::transfer</text>
</a>
</g>
</g>
<!-- Node7&#45;&gt;Node8 -->
<g id="edge7" class="edge"><title>Node7&#45;&gt;Node8</title>
<path fill="none" stroke="midnightblue" d="M814.061,-37.5C822.477,-37.5 831.125,-37.5 839.603,-37.5"/>
<polygon fill="midnightblue" stroke="midnightblue" points="839.831,-41.0001 849.831,-37.5 839.831,-34.0001 839.831,-41.0001"/>
</g>
<!-- Node9&#45;&gt;Node7 -->
<g id="edge9" class="edge"><title>Node9&#45;&gt;Node7</title>
<path fill="none" stroke="midnightblue" d="M627.511,-23.1328C642.452,-24.9144 658.487,-26.8263 673.827,-28.6556"/>
<polygon fill="midnightblue" stroke="midnightblue" points="673.445,-32.1347 683.79,-29.8435 674.274,-25.184 673.445,-32.1347"/>
</g>
</g>
</svg>
