<?xml version="1.0" encoding="UTF-8" standalone="no"?>
<!DOCTYPE svg PUBLIC "-//W3C//DTD SVG 1.1//EN"
 "http://www.w3.org/Graphics/SVG/1.1/DTD/svg11.dtd">
<!-- Generated by graphviz version 2.38.0 (20140413.2041)
 -->
<!-- Title: TMC2130Stepper::tbl Pages: 1 -->
<svg width="1126pt" height="192pt"
 viewBox="0.00 0.00 1126.00 191.50" xmlns="http://www.w3.org/2000/svg" xmlns:xlink="http://www.w3.org/1999/xlink">
<g id="graph0" class="graph" transform="scale(1 1) rotate(0) translate(4 187.5)">
<title>TMC2130Stepper::tbl</title>
<polygon fill="white" stroke="none" points="-4,4 -4,-187.5 1122,-187.5 1122,4 -4,4"/>
<!-- Node1 -->
<g id="node1" class="node"><title>Node1</title>
<g id="a_node1"><a xlink:title=" ">
<polygon fill="#bfbfbf" stroke="black" points="0,-88 0,-107 108,-107 108,-88 0,-88"/>
<text text-anchor="middle" x="54" y="-95" font-family="Helvetica,sans-Serif" font-size="10.00">TMC2130Stepper::tbl</text>
</a>
</g>
</g>
<!-- Node2 -->
<g id="node2" class="node"><title>Node2</title>
<g id="a_node2"><a xlink:href="../../dd/deb/class_t_m_c2130_stepper.html#ae54d816846ca2103976f490c5ab8e887" target="_top" xlink:title=" ">
<polygon fill="white" stroke="black" points="144,-88 144,-107 252,-107 252,-88 144,-88"/>
<text text-anchor="middle" x="198" y="-95" font-family="Helvetica,sans-Serif" font-size="10.00">TMC2130Stepper::tbl</text>
</a>
</g>
</g>
<!-- Node1&#45;&gt;Node2 -->
<g id="edge1" class="edge"><title>Node1&#45;&gt;Node2</title>
<path fill="none" stroke="midnightblue" d="M108.28,-97.5C116.56,-97.5 125.184,-97.5 133.661,-97.5"/>
<polygon fill="midnightblue" stroke="midnightblue" points="133.894,-101 143.894,-97.5 133.894,-94.0001 133.894,-101"/>
</g>
<!-- Node3 -->
<g id="node3" class="node"><title>Node3</title>
<g id="a_node3"><a xlink:href="../../dd/deb/class_t_m_c2130_stepper.html#a67541b27d97ce45f175e9f6e4a2d0bff" target="_top" xlink:title=" ">
<polygon fill="white" stroke="black" points="288,-88 288,-107 440,-107 440,-88 288,-88"/>
<text text-anchor="middle" x="364" y="-95" font-family="Helvetica,sans-Serif" font-size="10.00">TMC2130Stepper::CHOPCONF</text>
</a>
</g>
</g>
<!-- Node2&#45;&gt;Node3 -->
<g id="edge2" class="edge"><title>Node2&#45;&gt;Node3</title>
<path fill="none" stroke="midnightblue" d="M252.246,-97.5C260.447,-97.5 269.088,-97.5 277.777,-97.5"/>
<polygon fill="midnightblue" stroke="midnightblue" points="277.976,-101 287.976,-97.5 277.976,-94.0001 277.976,-101"/>
</g>
<!-- Node4 -->
<g id="node4" class="node"><title>Node4</title>
<g id="a_node4"><a xlink:href="../../dd/deb/class_t_m_c2130_stepper.html#a161ca6ebe3736454e17e9236572a6001" target="_top" xlink:title=" ">
<polygon fill="white" stroke="black" points="476,-88 476,-107 592,-107 592,-88 476,-88"/>
<text text-anchor="middle" x="534" y="-95" font-family="Helvetica,sans-Serif" font-size="10.00">TMC2130Stepper::read</text>
</a>
</g>
</g>
<!-- Node3&#45;&gt;Node4 -->
<g id="edge3" class="edge"><title>Node3&#45;&gt;Node4</title>
<path fill="none" stroke="midnightblue" d="M440.155,-97.5C448.664,-97.5 457.296,-97.5 465.696,-97.5"/>
<polygon fill="midnightblue" stroke="midnightblue" points="465.802,-101 475.802,-97.5 465.802,-94.0001 465.802,-101"/>
</g>
<!-- Node5 -->
<g id="node5" class="node"><title>Node5</title>
<g id="a_node5"><a xlink:href="../../dd/deb/class_t_m_c2130_stepper.html#a1fc868601a32fb0cd8fc536dafa8ecea" target="_top" xlink:title=" ">
<polygon fill="white" stroke="black" points="628,-164 628,-183 799,-183 799,-164 628,-164"/>
<text text-anchor="middle" x="713.5" y="-171" font-family="Helvetica,sans-Serif" font-size="10.00">TMC2130Stepper::beginTransaction</text>
</a>
</g>
</g>
<!-- Node4&#45;&gt;Node5 -->
<g id="edge4" class="edge"><title>Node4&#45;&gt;Node5</title>
<path fill="none" stroke="midnightblue" d="M547.522,-107.048C564.741,-119.725 597.117,-141.967 628,-154.5 634.272,-157.045 640.951,-159.283 647.7,-161.242"/>
<polygon fill="midnightblue" stroke="midnightblue" points="647.032,-164.687 657.599,-163.918 648.858,-157.93 647.032,-164.687"/>
</g>
<!-- Node6 -->
<g id="node6" class="node"><title>Node6</title>
<g id="a_node6"><a xlink:href="../../dd/deb/class_t_m_c2130_stepper.html#aeace18dcee808585dd4449e783811600" target="_top" xlink:title=" ">
<polygon fill="white" stroke="black" points="631.5,-126 631.5,-145 795.5,-145 795.5,-126 631.5,-126"/>
<text text-anchor="middle" x="713.5" y="-133" font-family="Helvetica,sans-Serif" font-size="10.00">TMC2130Stepper::endTransaction</text>
</a>
</g>
</g>
<!-- Node4&#45;&gt;Node6 -->
<g id="edge5" class="edge"><title>Node4&#45;&gt;Node6</title>
<path fill="none" stroke="midnightblue" d="M579.791,-107.089C603.53,-112.171 632.884,-118.455 657.944,-123.82"/>
<polygon fill="midnightblue" stroke="midnightblue" points="657.52,-127.309 668.031,-125.98 658.986,-120.464 657.52,-127.309"/>
</g>
<!-- Node7 -->
<g id="node7" class="node"><title>Node7</title>
<g id="a_node7"><a xlink:href="../../dd/deb/class_t_m_c2130_stepper.html#a4a8f3b6ac100045ed5f84fe4d18d9d5a" target="_top" xlink:title=" ">
<polygon fill="white" stroke="black" points="637.5,-88 637.5,-107 789.5,-107 789.5,-88 637.5,-88"/>
<text text-anchor="middle" x="713.5" y="-95" font-family="Helvetica,sans-Serif" font-size="10.00">TMC2130Stepper::switchCSpin</text>
</a>
</g>
</g>
<!-- Node4&#45;&gt;Node7 -->
<g id="edge6" class="edge"><title>Node4&#45;&gt;Node7</title>
<path fill="none" stroke="midnightblue" d="M592.139,-97.5C603.27,-97.5 615.163,-97.5 626.981,-97.5"/>
<polygon fill="midnightblue" stroke="midnightblue" points="627.325,-101 637.325,-97.5 627.324,-94.0001 627.325,-101"/>
</g>
<!-- Node8 -->
<g id="node8" class="node"><title>Node8</title>
<g id="a_node8"><a xlink:href="../../dd/deb/class_t_m_c2130_stepper.html#a0673af4887ec52b23aa658aa290f6623" target="_top" xlink:title=" ">
<polygon fill="white" stroke="black" points="835,-28 835,-47 965,-47 965,-28 835,-28"/>
<text text-anchor="middle" x="900" y="-35" font-family="Helvetica,sans-Serif" font-size="10.00">TMC2130Stepper::transfer</text>
</a>
</g>
</g>
<!-- Node4&#45;&gt;Node8 -->
<g id="edge7" class="edge"><title>Node4&#45;&gt;Node8</title>
<path fill="none" stroke="midnightblue" d="M579.378,-87.9498C594.744,-84.7717 612.099,-81.3252 628,-78.5 694.378,-66.7062 770.291,-55.4085 824.852,-47.6702"/>
<polygon fill="midnightblue" stroke="midnightblue" points="825.372,-51.1316 834.784,-46.2674 824.393,-44.2004 825.372,-51.1316"/>
</g>
<!-- Node10 -->
<g id="node10" class="node"><title>Node10</title>
<g id="a_node10"><a xlink:href="../../dd/deb/class_t_m_c2130_stepper.html#aba94fc7bb8e2c8c12191f44561f19d95" target="_top" xlink:title=" ">
<polygon fill="white" stroke="black" points="648.5,-0.5 648.5,-30.5 778.5,-30.5 778.5,-0.5 648.5,-0.5"/>
<text text-anchor="start" x="656.5" y="-18.5" font-family="Helvetica,sans-Serif" font-size="10.00">TMC2130Stepper::transfer</text>
<text text-anchor="middle" x="713.5" y="-7.5" font-family="Helvetica,sans-Serif" font-size="10.00">EmptyBytes</text>
</a>
</g>
</g>
<!-- Node4&#45;&gt;Node10 -->
<g id="edge9" class="edge"><title>Node4&#45;&gt;Node10</title>
<path fill="none" stroke="midnightblue" d="M550.378,-87.8381C568.488,-76.7136 599.694,-58.3277 628,-45.5 636.84,-41.494 646.386,-37.66 655.769,-34.1517"/>
<polygon fill="midnightblue" stroke="midnightblue" points="657.257,-37.3346 665.453,-30.6201 654.859,-30.7583 657.257,-37.3346"/>
</g>
<!-- Node9 -->
<g id="node9" class="node"><title>Node9</title>
<g id="a_node9"><a xlink:href="../../df/d8b/class_s_w___s_p_i_class.html#af260fdc0af3f1312b106483161e559c3" target="_top" xlink:title=" ">
<polygon fill="white" stroke="black" points="1001,-28 1001,-47 1118,-47 1118,-28 1001,-28"/>
<text text-anchor="middle" x="1059.5" y="-35" font-family="Helvetica,sans-Serif" font-size="10.00">SW_SPIClass::transfer</text>
</a>
</g>
</g>
<!-- Node8&#45;&gt;Node9 -->
<g id="edge8" class="edge"><title>Node8&#45;&gt;Node9</title>
<path fill="none" stroke="midnightblue" d="M965.061,-37.5C973.477,-37.5 982.125,-37.5 990.603,-37.5"/>
<polygon fill="midnightblue" stroke="midnightblue" points="990.831,-41.0001 1000.83,-37.5 990.831,-34.0001 990.831,-41.0001"/>
</g>
<!-- Node10&#45;&gt;Node8 -->
<g id="edge10" class="edge"><title>Node10&#45;&gt;Node8</title>
<path fill="none" stroke="midnightblue" d="M778.511,-23.1328C793.452,-24.9144 809.487,-26.8263 824.827,-28.6556"/>
<polygon fill="midnightblue" stroke="midnightblue" points="824.445,-32.1347 834.79,-29.8435 825.274,-25.184 824.445,-32.1347"/>
</g>
</g>
</svg>
