<?xml version="1.0" encoding="UTF-8" standalone="no"?>
<!DOCTYPE svg PUBLIC "-//W3C//DTD SVG 1.1//EN"
 "http://www.w3.org/Graphics/SVG/1.1/DTD/svg11.dtd">
<!-- Generated by graphviz version 2.38.0 (20140413.2041)
 -->
<!-- Title: TMC2130Stepper::step Pages: 1 -->
<svg width="954pt" height="192pt"
 viewBox="0.00 0.00 954.00 191.50" xmlns="http://www.w3.org/2000/svg" xmlns:xlink="http://www.w3.org/1999/xlink">
<g id="graph0" class="graph" transform="scale(1 1) rotate(0) translate(4 187.5)">
<title>TMC2130Stepper::step</title>
<polygon fill="white" stroke="none" points="-4,4 -4,-187.5 950,-187.5 950,4 -4,4"/>
<!-- Node1 -->
<g id="node1" class="node"><title>Node1</title>
<g id="a_node1"><a xlink:title=" ">
<polygon fill="#bfbfbf" stroke="black" points="0,-88 0,-107 116,-107 116,-88 0,-88"/>
<text text-anchor="middle" x="58" y="-95" font-family="Helvetica,sans-Serif" font-size="10.00">TMC2130Stepper::step</text>
</a>
</g>
</g>
<!-- Node2 -->
<g id="node2" class="node"><title>Node2</title>
<g id="a_node2"><a xlink:href="../../dd/deb/class_t_m_c2130_stepper.html#adde2041047c82600f5e01f52118f92a0" target="_top" xlink:title=" ">
<polygon fill="white" stroke="black" points="152,-88 152,-107 268,-107 268,-88 152,-88"/>
<text text-anchor="middle" x="210" y="-95" font-family="Helvetica,sans-Serif" font-size="10.00">TMC2130Stepper::IOIN</text>
</a>
</g>
</g>
<!-- Node1&#45;&gt;Node2 -->
<g id="edge1" class="edge"><title>Node1&#45;&gt;Node2</title>
<path fill="none" stroke="midnightblue" d="M116.136,-97.5C124.377,-97.5 132.923,-97.5 141.344,-97.5"/>
<polygon fill="midnightblue" stroke="midnightblue" points="141.526,-101 151.525,-97.5 141.525,-94.0001 141.526,-101"/>
</g>
<!-- Node3 -->
<g id="node3" class="node"><title>Node3</title>
<g id="a_node3"><a xlink:href="../../dd/deb/class_t_m_c2130_stepper.html#a161ca6ebe3736454e17e9236572a6001" target="_top" xlink:title=" ">
<polygon fill="white" stroke="black" points="304,-88 304,-107 420,-107 420,-88 304,-88"/>
<text text-anchor="middle" x="362" y="-95" font-family="Helvetica,sans-Serif" font-size="10.00">TMC2130Stepper::read</text>
</a>
</g>
</g>
<!-- Node2&#45;&gt;Node3 -->
<g id="edge2" class="edge"><title>Node2&#45;&gt;Node3</title>
<path fill="none" stroke="midnightblue" d="M268.136,-97.5C276.377,-97.5 284.923,-97.5 293.344,-97.5"/>
<polygon fill="midnightblue" stroke="midnightblue" points="293.526,-101 303.525,-97.5 293.525,-94.0001 293.526,-101"/>
</g>
<!-- Node4 -->
<g id="node4" class="node"><title>Node4</title>
<g id="a_node4"><a xlink:href="../../dd/deb/class_t_m_c2130_stepper.html#a1fc868601a32fb0cd8fc536dafa8ecea" target="_top" xlink:title=" ">
<polygon fill="white" stroke="black" points="456,-164 456,-183 627,-183 627,-164 456,-164"/>
<text text-anchor="middle" x="541.5" y="-171" font-family="Helvetica,sans-Serif" font-size="10.00">TMC2130Stepper::beginTransaction</text>
</a>
</g>
</g>
<!-- Node3&#45;&gt;Node4 -->
<g id="edge3" class="edge"><title>Node3&#45;&gt;Node4</title>
<path fill="none" stroke="midnightblue" d="M375.522,-107.048C392.741,-119.725 425.117,-141.967 456,-154.5 462.272,-157.045 468.951,-159.283 475.7,-161.242"/>
<polygon fill="midnightblue" stroke="midnightblue" points="475.032,-164.687 485.599,-163.918 476.858,-157.93 475.032,-164.687"/>
</g>
<!-- Node5 -->
<g id="node5" class="node"><title>Node5</title>
<g id="a_node5"><a xlink:href="../../dd/deb/class_t_m_c2130_stepper.html#aeace18dcee808585dd4449e783811600" target="_top" xlink:title=" ">
<polygon fill="white" stroke="black" points="459.5,-126 459.5,-145 623.5,-145 623.5,-126 459.5,-126"/>
<text text-anchor="middle" x="541.5" y="-133" font-family="Helvetica,sans-Serif" font-size="10.00">TMC2130Stepper::endTransaction</text>
</a>
</g>
</g>
<!-- Node3&#45;&gt;Node5 -->
<g id="edge4" class="edge"><title>Node3&#45;&gt;Node5</title>
<path fill="none" stroke="midnightblue" d="M407.791,-107.089C431.53,-112.171 460.884,-118.455 485.944,-123.82"/>
<polygon fill="midnightblue" stroke="midnightblue" points="485.52,-127.309 496.031,-125.98 486.986,-120.464 485.52,-127.309"/>
</g>
<!-- Node6 -->
<g id="node6" class="node"><title>Node6</title>
<g id="a_node6"><a xlink:href="../../dd/deb/class_t_m_c2130_stepper.html#a4a8f3b6ac100045ed5f84fe4d18d9d5a" target="_top" xlink:title=" ">
<polygon fill="white" stroke="black" points="465.5,-88 465.5,-107 617.5,-107 617.5,-88 465.5,-88"/>
<text text-anchor="middle" x="541.5" y="-95" font-family="Helvetica,sans-Serif" font-size="10.00">TMC2130Stepper::switchCSpin</text>
</a>
</g>
</g>
<!-- Node3&#45;&gt;Node6 -->
<g id="edge5" class="edge"><title>Node3&#45;&gt;Node6</title>
<path fill="none" stroke="midnightblue" d="M420.139,-97.5C431.27,-97.5 443.163,-97.5 454.981,-97.5"/>
<polygon fill="midnightblue" stroke="midnightblue" points="455.325,-101 465.325,-97.5 455.324,-94.0001 455.325,-101"/>
</g>
<!-- Node7 -->
<g id="node7" class="node"><title>Node7</title>
<g id="a_node7"><a xlink:href="../../dd/deb/class_t_m_c2130_stepper.html#a0673af4887ec52b23aa658aa290f6623" target="_top" xlink:title=" ">
<polygon fill="white" stroke="black" points="663,-28 663,-47 793,-47 793,-28 663,-28"/>
<text text-anchor="middle" x="728" y="-35" font-family="Helvetica,sans-Serif" font-size="10.00">TMC2130Stepper::transfer</text>
</a>
</g>
</g>
<!-- Node3&#45;&gt;Node7 -->
<g id="edge6" class="edge"><title>Node3&#45;&gt;Node7</title>
<path fill="none" stroke="midnightblue" d="M407.378,-87.9498C422.744,-84.7717 440.099,-81.3252 456,-78.5 522.378,-66.7062 598.291,-55.4085 652.852,-47.6702"/>
<polygon fill="midnightblue" stroke="midnightblue" points="653.372,-51.1316 662.784,-46.2674 652.393,-44.2004 653.372,-51.1316"/>
</g>
<!-- Node9 -->
<g id="node9" class="node"><title>Node9</title>
<g id="a_node9"><a xlink:href="../../dd/deb/class_t_m_c2130_stepper.html#aba94fc7bb8e2c8c12191f44561f19d95" target="_top" xlink:title=" ">
<polygon fill="white" stroke="black" points="476.5,-0.5 476.5,-30.5 606.5,-30.5 606.5,-0.5 476.5,-0.5"/>
<text text-anchor="start" x="484.5" y="-18.5" font-family="Helvetica,sans-Serif" font-size="10.00">TMC2130Stepper::transfer</text>
<text text-anchor="middle" x="541.5" y="-7.5" font-family="Helvetica,sans-Serif" font-size="10.00">EmptyBytes</text>
</a>
</g>
</g>
<!-- Node3&#45;&gt;Node9 -->
<g id="edge8" class="edge"><title>Node3&#45;&gt;Node9</title>
<path fill="none" stroke="midnightblue" d="M378.378,-87.8381C396.488,-76.7136 427.694,-58.3277 456,-45.5 464.84,-41.494 474.386,-37.66 483.769,-34.1517"/>
<polygon fill="midnightblue" stroke="midnightblue" points="485.257,-37.3346 493.453,-30.6201 482.859,-30.7583 485.257,-37.3346"/>
</g>
<!-- Node8 -->
<g id="node8" class="node"><title>Node8</title>
<g id="a_node8"><a xlink:href="../../df/d8b/class_s_w___s_p_i_class.html#af260fdc0af3f1312b106483161e559c3" target="_top" xlink:title=" ">
<polygon fill="white" stroke="black" points="829,-28 829,-47 946,-47 946,-28 829,-28"/>
<text text-anchor="middle" x="887.5" y="-35" font-family="Helvetica,sans-Serif" font-size="10.00">SW_SPIClass::transfer</text>
</a>
</g>
</g>
<!-- Node7&#45;&gt;Node8 -->
<g id="edge7" class="edge"><title>Node7&#45;&gt;Node8</title>
<path fill="none" stroke="midnightblue" d="M793.061,-37.5C801.477,-37.5 810.125,-37.5 818.603,-37.5"/>
<polygon fill="midnightblue" stroke="midnightblue" points="818.831,-41.0001 828.831,-37.5 818.831,-34.0001 818.831,-41.0001"/>
</g>
<!-- Node9&#45;&gt;Node7 -->
<g id="edge9" class="edge"><title>Node9&#45;&gt;Node7</title>
<path fill="none" stroke="midnightblue" d="M606.511,-23.1328C621.452,-24.9144 637.487,-26.8263 652.827,-28.6556"/>
<polygon fill="midnightblue" stroke="midnightblue" points="652.445,-32.1347 662.79,-29.8435 653.274,-25.184 652.445,-32.1347"/>
</g>
</g>
</svg>
