<?xml version="1.0" encoding="UTF-8" standalone="no"?>
<!DOCTYPE svg PUBLIC "-//W3C//DTD SVG 1.1//EN"
 "http://www.w3.org/Graphics/SVG/1.1/DTD/svg11.dtd">
<!-- Generated by graphviz version 2.38.0 (20140413.2041)
 -->
<!-- Title: TMC2130Stepper::chm Pages: 1 -->
<svg width="990pt" height="192pt"
 viewBox="0.00 0.00 990.00 191.50" xmlns="http://www.w3.org/2000/svg" xmlns:xlink="http://www.w3.org/1999/xlink">
<g id="graph0" class="graph" transform="scale(1 1) rotate(0) translate(4 187.5)">
<title>TMC2130Stepper::chm</title>
<polygon fill="white" stroke="none" points="-4,4 -4,-187.5 986,-187.5 986,4 -4,4"/>
<!-- Node1 -->
<g id="node1" class="node"><title>Node1</title>
<g id="a_node1"><a xlink:title=" ">
<polygon fill="#bfbfbf" stroke="black" points="0,-88 0,-107 116,-107 116,-88 0,-88"/>
<text text-anchor="middle" x="58" y="-95" font-family="Helvetica,sans-Serif" font-size="10.00">TMC2130Stepper::chm</text>
</a>
</g>
</g>
<!-- Node2 -->
<g id="node2" class="node"><title>Node2</title>
<g id="a_node2"><a xlink:href="../../dd/deb/class_t_m_c2130_stepper.html#a67541b27d97ce45f175e9f6e4a2d0bff" target="_top" xlink:title=" ">
<polygon fill="white" stroke="black" points="152,-88 152,-107 304,-107 304,-88 152,-88"/>
<text text-anchor="middle" x="228" y="-95" font-family="Helvetica,sans-Serif" font-size="10.00">TMC2130Stepper::CHOPCONF</text>
</a>
</g>
</g>
<!-- Node1&#45;&gt;Node2 -->
<g id="edge1" class="edge"><title>Node1&#45;&gt;Node2</title>
<path fill="none" stroke="midnightblue" d="M116.346,-97.5C124.545,-97.5 133.121,-97.5 141.716,-97.5"/>
<polygon fill="midnightblue" stroke="midnightblue" points="141.791,-101 151.791,-97.5 141.791,-94.0001 141.791,-101"/>
</g>
<!-- Node3 -->
<g id="node3" class="node"><title>Node3</title>
<g id="a_node3"><a xlink:href="../../dd/deb/class_t_m_c2130_stepper.html#a161ca6ebe3736454e17e9236572a6001" target="_top" xlink:title=" ">
<polygon fill="white" stroke="black" points="340,-88 340,-107 456,-107 456,-88 340,-88"/>
<text text-anchor="middle" x="398" y="-95" font-family="Helvetica,sans-Serif" font-size="10.00">TMC2130Stepper::read</text>
</a>
</g>
</g>
<!-- Node2&#45;&gt;Node3 -->
<g id="edge2" class="edge"><title>Node2&#45;&gt;Node3</title>
<path fill="none" stroke="midnightblue" d="M304.155,-97.5C312.664,-97.5 321.296,-97.5 329.696,-97.5"/>
<polygon fill="midnightblue" stroke="midnightblue" points="329.802,-101 339.802,-97.5 329.802,-94.0001 329.802,-101"/>
</g>
<!-- Node4 -->
<g id="node4" class="node"><title>Node4</title>
<g id="a_node4"><a xlink:href="../../dd/deb/class_t_m_c2130_stepper.html#a1fc868601a32fb0cd8fc536dafa8ecea" target="_top" xlink:title=" ">
<polygon fill="white" stroke="black" points="492,-164 492,-183 663,-183 663,-164 492,-164"/>
<text text-anchor="middle" x="577.5" y="-171" font-family="Helvetica,sans-Serif" font-size="10.00">TMC2130Stepper::beginTransaction</text>
</a>
</g>
</g>
<!-- Node3&#45;&gt;Node4 -->
<g id="edge3" class="edge"><title>Node3&#45;&gt;Node4</title>
<path fill="none" stroke="midnightblue" d="M411.522,-107.048C428.741,-119.725 461.117,-141.967 492,-154.5 498.272,-157.045 504.951,-159.283 511.7,-161.242"/>
<polygon fill="midnightblue" stroke="midnightblue" points="511.032,-164.687 521.599,-163.918 512.858,-157.93 511.032,-164.687"/>
</g>
<!-- Node5 -->
<g id="node5" class="node"><title>Node5</title>
<g id="a_node5"><a xlink:href="../../dd/deb/class_t_m_c2130_stepper.html#aeace18dcee808585dd4449e783811600" target="_top" xlink:title=" ">
<polygon fill="white" stroke="black" points="495.5,-126 495.5,-145 659.5,-145 659.5,-126 495.5,-126"/>
<text text-anchor="middle" x="577.5" y="-133" font-family="Helvetica,sans-Serif" font-size="10.00">TMC2130Stepper::endTransaction</text>
</a>
</g>
</g>
<!-- Node3&#45;&gt;Node5 -->
<g id="edge4" class="edge"><title>Node3&#45;&gt;Node5</title>
<path fill="none" stroke="midnightblue" d="M443.791,-107.089C467.53,-112.171 496.884,-118.455 521.944,-123.82"/>
<polygon fill="midnightblue" stroke="midnightblue" points="521.52,-127.309 532.031,-125.98 522.986,-120.464 521.52,-127.309"/>
</g>
<!-- Node6 -->
<g id="node6" class="node"><title>Node6</title>
<g id="a_node6"><a xlink:href="../../dd/deb/class_t_m_c2130_stepper.html#a4a8f3b6ac100045ed5f84fe4d18d9d5a" target="_top" xlink:title=" ">
<polygon fill="white" stroke="black" points="501.5,-88 501.5,-107 653.5,-107 653.5,-88 501.5,-88"/>
<text text-anchor="middle" x="577.5" y="-95" font-family="Helvetica,sans-Serif" font-size="10.00">TMC2130Stepper::switchCSpin</text>
</a>
</g>
</g>
<!-- Node3&#45;&gt;Node6 -->
<g id="edge5" class="edge"><title>Node3&#45;&gt;Node6</title>
<path fill="none" stroke="midnightblue" d="M456.139,-97.5C467.27,-97.5 479.163,-97.5 490.981,-97.5"/>
<polygon fill="midnightblue" stroke="midnightblue" points="491.325,-101 501.325,-97.5 491.324,-94.0001 491.325,-101"/>
</g>
<!-- Node7 -->
<g id="node7" class="node"><title>Node7</title>
<g id="a_node7"><a xlink:href="../../dd/deb/class_t_m_c2130_stepper.html#a0673af4887ec52b23aa658aa290f6623" target="_top" xlink:title=" ">
<polygon fill="white" stroke="black" points="699,-28 699,-47 829,-47 829,-28 699,-28"/>
<text text-anchor="middle" x="764" y="-35" font-family="Helvetica,sans-Serif" font-size="10.00">TMC2130Stepper::transfer</text>
</a>
</g>
</g>
<!-- Node3&#45;&gt;Node7 -->
<g id="edge6" class="edge"><title>Node3&#45;&gt;Node7</title>
<path fill="none" stroke="midnightblue" d="M443.378,-87.9498C458.744,-84.7717 476.099,-81.3252 492,-78.5 558.378,-66.7062 634.291,-55.4085 688.852,-47.6702"/>
<polygon fill="midnightblue" stroke="midnightblue" points="689.372,-51.1316 698.784,-46.2674 688.393,-44.2004 689.372,-51.1316"/>
</g>
<!-- Node9 -->
<g id="node9" class="node"><title>Node9</title>
<g id="a_node9"><a xlink:href="../../dd/deb/class_t_m_c2130_stepper.html#aba94fc7bb8e2c8c12191f44561f19d95" target="_top" xlink:title=" ">
<polygon fill="white" stroke="black" points="512.5,-0.5 512.5,-30.5 642.5,-30.5 642.5,-0.5 512.5,-0.5"/>
<text text-anchor="start" x="520.5" y="-18.5" font-family="Helvetica,sans-Serif" font-size="10.00">TMC2130Stepper::transfer</text>
<text text-anchor="middle" x="577.5" y="-7.5" font-family="Helvetica,sans-Serif" font-size="10.00">EmptyBytes</text>
</a>
</g>
</g>
<!-- Node3&#45;&gt;Node9 -->
<g id="edge8" class="edge"><title>Node3&#45;&gt;Node9</title>
<path fill="none" stroke="midnightblue" d="M414.378,-87.8381C432.488,-76.7136 463.694,-58.3277 492,-45.5 500.84,-41.494 510.386,-37.66 519.769,-34.1517"/>
<polygon fill="midnightblue" stroke="midnightblue" points="521.257,-37.3346 529.453,-30.6201 518.859,-30.7583 521.257,-37.3346"/>
</g>
<!-- Node8 -->
<g id="node8" class="node"><title>Node8</title>
<g id="a_node8"><a xlink:href="../../df/d8b/class_s_w___s_p_i_class.html#af260fdc0af3f1312b106483161e559c3" target="_top" xlink:title=" ">
<polygon fill="white" stroke="black" points="865,-28 865,-47 982,-47 982,-28 865,-28"/>
<text text-anchor="middle" x="923.5" y="-35" font-family="Helvetica,sans-Serif" font-size="10.00">SW_SPIClass::transfer</text>
</a>
</g>
</g>
<!-- Node7&#45;&gt;Node8 -->
<g id="edge7" class="edge"><title>Node7&#45;&gt;Node8</title>
<path fill="none" stroke="midnightblue" d="M829.061,-37.5C837.477,-37.5 846.125,-37.5 854.603,-37.5"/>
<polygon fill="midnightblue" stroke="midnightblue" points="854.831,-41.0001 864.831,-37.5 854.831,-34.0001 854.831,-41.0001"/>
</g>
<!-- Node9&#45;&gt;Node7 -->
<g id="edge9" class="edge"><title>Node9&#45;&gt;Node7</title>
<path fill="none" stroke="midnightblue" d="M642.511,-23.1328C657.452,-24.9144 673.487,-26.8263 688.827,-28.6556"/>
<polygon fill="midnightblue" stroke="midnightblue" points="688.445,-32.1347 698.79,-29.8435 689.274,-25.184 688.445,-32.1347"/>
</g>
</g>
</svg>
