<?xml version="1.0" encoding="UTF-8" standalone="no"?>
<!DOCTYPE svg PUBLIC "-//W3C//DTD SVG 1.1//EN"
 "http://www.w3.org/Graphics/SVG/1.1/DTD/svg11.dtd">
<!-- Generated by graphviz version 2.38.0 (20140413.2041)
 -->
<!-- Title: TMC2130Stepper::mres Pages: 1 -->
<svg width="1148pt" height="192pt"
 viewBox="0.00 0.00 1148.00 191.50" xmlns="http://www.w3.org/2000/svg" xmlns:xlink="http://www.w3.org/1999/xlink">
<g id="graph0" class="graph" transform="scale(1 1) rotate(0) translate(4 187.5)">
<title>TMC2130Stepper::mres</title>
<polygon fill="white" stroke="none" points="-4,4 -4,-187.5 1144,-187.5 1144,4 -4,4"/>
<!-- Node1 -->
<g id="node1" class="node"><title>Node1</title>
<g id="a_node1"><a xlink:title=" ">
<polygon fill="#bfbfbf" stroke="black" points="0,-88 0,-107 119,-107 119,-88 0,-88"/>
<text text-anchor="middle" x="59.5" y="-95" font-family="Helvetica,sans-Serif" font-size="10.00">TMC2130Stepper::mres</text>
</a>
</g>
</g>
<!-- Node2 -->
<g id="node2" class="node"><title>Node2</title>
<g id="a_node2"><a xlink:href="../../dd/deb/class_t_m_c2130_stepper.html#afb12526e87dba10d1f43fc484d962ec1" target="_top" xlink:title=" ">
<polygon fill="white" stroke="black" points="155,-88 155,-107 274,-107 274,-88 155,-88"/>
<text text-anchor="middle" x="214.5" y="-95" font-family="Helvetica,sans-Serif" font-size="10.00">TMC2130Stepper::mres</text>
</a>
</g>
</g>
<!-- Node1&#45;&gt;Node2 -->
<g id="edge1" class="edge"><title>Node1&#45;&gt;Node2</title>
<path fill="none" stroke="midnightblue" d="M119.216,-97.5C127.544,-97.5 136.169,-97.5 144.667,-97.5"/>
<polygon fill="midnightblue" stroke="midnightblue" points="144.941,-101 154.941,-97.5 144.941,-94.0001 144.941,-101"/>
</g>
<!-- Node3 -->
<g id="node3" class="node"><title>Node3</title>
<g id="a_node3"><a xlink:href="../../dd/deb/class_t_m_c2130_stepper.html#a67541b27d97ce45f175e9f6e4a2d0bff" target="_top" xlink:title=" ">
<polygon fill="white" stroke="black" points="310,-88 310,-107 462,-107 462,-88 310,-88"/>
<text text-anchor="middle" x="386" y="-95" font-family="Helvetica,sans-Serif" font-size="10.00">TMC2130Stepper::CHOPCONF</text>
</a>
</g>
</g>
<!-- Node2&#45;&gt;Node3 -->
<g id="edge2" class="edge"><title>Node2&#45;&gt;Node3</title>
<path fill="none" stroke="midnightblue" d="M274.307,-97.5C282.554,-97.5 291.164,-97.5 299.78,-97.5"/>
<polygon fill="midnightblue" stroke="midnightblue" points="299.876,-101 309.876,-97.5 299.876,-94.0001 299.876,-101"/>
</g>
<!-- Node4 -->
<g id="node4" class="node"><title>Node4</title>
<g id="a_node4"><a xlink:href="../../dd/deb/class_t_m_c2130_stepper.html#a161ca6ebe3736454e17e9236572a6001" target="_top" xlink:title=" ">
<polygon fill="white" stroke="black" points="498,-88 498,-107 614,-107 614,-88 498,-88"/>
<text text-anchor="middle" x="556" y="-95" font-family="Helvetica,sans-Serif" font-size="10.00">TMC2130Stepper::read</text>
</a>
</g>
</g>
<!-- Node3&#45;&gt;Node4 -->
<g id="edge3" class="edge"><title>Node3&#45;&gt;Node4</title>
<path fill="none" stroke="midnightblue" d="M462.155,-97.5C470.664,-97.5 479.296,-97.5 487.696,-97.5"/>
<polygon fill="midnightblue" stroke="midnightblue" points="487.802,-101 497.802,-97.5 487.802,-94.0001 487.802,-101"/>
</g>
<!-- Node5 -->
<g id="node5" class="node"><title>Node5</title>
<g id="a_node5"><a xlink:href="../../dd/deb/class_t_m_c2130_stepper.html#a1fc868601a32fb0cd8fc536dafa8ecea" target="_top" xlink:title=" ">
<polygon fill="white" stroke="black" points="650,-164 650,-183 821,-183 821,-164 650,-164"/>
<text text-anchor="middle" x="735.5" y="-171" font-family="Helvetica,sans-Serif" font-size="10.00">TMC2130Stepper::beginTransaction</text>
</a>
</g>
</g>
<!-- Node4&#45;&gt;Node5 -->
<g id="edge4" class="edge"><title>Node4&#45;&gt;Node5</title>
<path fill="none" stroke="midnightblue" d="M569.522,-107.048C586.741,-119.725 619.117,-141.967 650,-154.5 656.272,-157.045 662.951,-159.283 669.7,-161.242"/>
<polygon fill="midnightblue" stroke="midnightblue" points="669.032,-164.687 679.599,-163.918 670.858,-157.93 669.032,-164.687"/>
</g>
<!-- Node6 -->
<g id="node6" class="node"><title>Node6</title>
<g id="a_node6"><a xlink:href="../../dd/deb/class_t_m_c2130_stepper.html#aeace18dcee808585dd4449e783811600" target="_top" xlink:title=" ">
<polygon fill="white" stroke="black" points="653.5,-126 653.5,-145 817.5,-145 817.5,-126 653.5,-126"/>
<text text-anchor="middle" x="735.5" y="-133" font-family="Helvetica,sans-Serif" font-size="10.00">TMC2130Stepper::endTransaction</text>
</a>
</g>
</g>
<!-- Node4&#45;&gt;Node6 -->
<g id="edge5" class="edge"><title>Node4&#45;&gt;Node6</title>
<path fill="none" stroke="midnightblue" d="M601.791,-107.089C625.53,-112.171 654.884,-118.455 679.944,-123.82"/>
<polygon fill="midnightblue" stroke="midnightblue" points="679.52,-127.309 690.031,-125.98 680.986,-120.464 679.52,-127.309"/>
</g>
<!-- Node7 -->
<g id="node7" class="node"><title>Node7</title>
<g id="a_node7"><a xlink:href="../../dd/deb/class_t_m_c2130_stepper.html#a4a8f3b6ac100045ed5f84fe4d18d9d5a" target="_top" xlink:title=" ">
<polygon fill="white" stroke="black" points="659.5,-88 659.5,-107 811.5,-107 811.5,-88 659.5,-88"/>
<text text-anchor="middle" x="735.5" y="-95" font-family="Helvetica,sans-Serif" font-size="10.00">TMC2130Stepper::switchCSpin</text>
</a>
</g>
</g>
<!-- Node4&#45;&gt;Node7 -->
<g id="edge6" class="edge"><title>Node4&#45;&gt;Node7</title>
<path fill="none" stroke="midnightblue" d="M614.139,-97.5C625.27,-97.5 637.163,-97.5 648.981,-97.5"/>
<polygon fill="midnightblue" stroke="midnightblue" points="649.325,-101 659.325,-97.5 649.324,-94.0001 649.325,-101"/>
</g>
<!-- Node8 -->
<g id="node8" class="node"><title>Node8</title>
<g id="a_node8"><a xlink:href="../../dd/deb/class_t_m_c2130_stepper.html#a0673af4887ec52b23aa658aa290f6623" target="_top" xlink:title=" ">
<polygon fill="white" stroke="black" points="857,-28 857,-47 987,-47 987,-28 857,-28"/>
<text text-anchor="middle" x="922" y="-35" font-family="Helvetica,sans-Serif" font-size="10.00">TMC2130Stepper::transfer</text>
</a>
</g>
</g>
<!-- Node4&#45;&gt;Node8 -->
<g id="edge7" class="edge"><title>Node4&#45;&gt;Node8</title>
<path fill="none" stroke="midnightblue" d="M601.378,-87.9498C616.744,-84.7717 634.099,-81.3252 650,-78.5 716.378,-66.7062 792.291,-55.4085 846.852,-47.6702"/>
<polygon fill="midnightblue" stroke="midnightblue" points="847.372,-51.1316 856.784,-46.2674 846.393,-44.2004 847.372,-51.1316"/>
</g>
<!-- Node10 -->
<g id="node10" class="node"><title>Node10</title>
<g id="a_node10"><a xlink:href="../../dd/deb/class_t_m_c2130_stepper.html#aba94fc7bb8e2c8c12191f44561f19d95" target="_top" xlink:title=" ">
<polygon fill="white" stroke="black" points="670.5,-0.5 670.5,-30.5 800.5,-30.5 800.5,-0.5 670.5,-0.5"/>
<text text-anchor="start" x="678.5" y="-18.5" font-family="Helvetica,sans-Serif" font-size="10.00">TMC2130Stepper::transfer</text>
<text text-anchor="middle" x="735.5" y="-7.5" font-family="Helvetica,sans-Serif" font-size="10.00">EmptyBytes</text>
</a>
</g>
</g>
<!-- Node4&#45;&gt;Node10 -->
<g id="edge9" class="edge"><title>Node4&#45;&gt;Node10</title>
<path fill="none" stroke="midnightblue" d="M572.378,-87.8381C590.488,-76.7136 621.694,-58.3277 650,-45.5 658.84,-41.494 668.386,-37.66 677.769,-34.1517"/>
<polygon fill="midnightblue" stroke="midnightblue" points="679.257,-37.3346 687.453,-30.6201 676.859,-30.7583 679.257,-37.3346"/>
</g>
<!-- Node9 -->
<g id="node9" class="node"><title>Node9</title>
<g id="a_node9"><a xlink:href="../../df/d8b/class_s_w___s_p_i_class.html#af260fdc0af3f1312b106483161e559c3" target="_top" xlink:title=" ">
<polygon fill="white" stroke="black" points="1023,-28 1023,-47 1140,-47 1140,-28 1023,-28"/>
<text text-anchor="middle" x="1081.5" y="-35" font-family="Helvetica,sans-Serif" font-size="10.00">SW_SPIClass::transfer</text>
</a>
</g>
</g>
<!-- Node8&#45;&gt;Node9 -->
<g id="edge8" class="edge"><title>Node8&#45;&gt;Node9</title>
<path fill="none" stroke="midnightblue" d="M987.061,-37.5C995.477,-37.5 1004.13,-37.5 1012.6,-37.5"/>
<polygon fill="midnightblue" stroke="midnightblue" points="1012.83,-41.0001 1022.83,-37.5 1012.83,-34.0001 1012.83,-41.0001"/>
</g>
<!-- Node10&#45;&gt;Node8 -->
<g id="edge10" class="edge"><title>Node10&#45;&gt;Node8</title>
<path fill="none" stroke="midnightblue" d="M800.511,-23.1328C815.452,-24.9144 831.487,-26.8263 846.827,-28.6556"/>
<polygon fill="midnightblue" stroke="midnightblue" points="846.445,-32.1347 856.79,-29.8435 847.274,-25.184 846.445,-32.1347"/>
</g>
</g>
</svg>
