<?xml version="1.0" encoding="UTF-8" standalone="no"?>
<!DOCTYPE svg PUBLIC "-//W3C//DTD SVG 1.1//EN"
 "http://www.w3.org/Graphics/SVG/1.1/DTD/svg11.dtd">
<!-- Generated by graphviz version 2.38.0 (20140413.2041)
 -->
<!-- Title: TMC2130Stepper::CHOPCONF Pages: 1 -->
<svg width="838pt" height="192pt"
 viewBox="0.00 0.00 838.00 191.50" xmlns="http://www.w3.org/2000/svg" xmlns:xlink="http://www.w3.org/1999/xlink">
<g id="graph0" class="graph" transform="scale(1 1) rotate(0) translate(4 187.5)">
<title>TMC2130Stepper::CHOPCONF</title>
<polygon fill="white" stroke="none" points="-4,4 -4,-187.5 834,-187.5 834,4 -4,4"/>
<!-- Node1 -->
<g id="node1" class="node"><title>Node1</title>
<g id="a_node1"><a xlink:title=" ">
<polygon fill="#bfbfbf" stroke="black" points="0,-88 0,-107 152,-107 152,-88 0,-88"/>
<text text-anchor="middle" x="76" y="-95" font-family="Helvetica,sans-Serif" font-size="10.00">TMC2130Stepper::CHOPCONF</text>
</a>
</g>
</g>
<!-- Node2 -->
<g id="node2" class="node"><title>Node2</title>
<g id="a_node2"><a xlink:href="../../dd/deb/class_t_m_c2130_stepper.html#a161ca6ebe3736454e17e9236572a6001" target="_top" xlink:title=" ">
<polygon fill="white" stroke="black" points="188,-88 188,-107 304,-107 304,-88 188,-88"/>
<text text-anchor="middle" x="246" y="-95" font-family="Helvetica,sans-Serif" font-size="10.00">TMC2130Stepper::read</text>
</a>
</g>
</g>
<!-- Node1&#45;&gt;Node2 -->
<g id="edge1" class="edge"><title>Node1&#45;&gt;Node2</title>
<path fill="none" stroke="midnightblue" d="M152.155,-97.5C160.664,-97.5 169.296,-97.5 177.696,-97.5"/>
<polygon fill="midnightblue" stroke="midnightblue" points="177.802,-101 187.802,-97.5 177.802,-94.0001 177.802,-101"/>
</g>
<!-- Node3 -->
<g id="node3" class="node"><title>Node3</title>
<g id="a_node3"><a xlink:href="../../dd/deb/class_t_m_c2130_stepper.html#a1fc868601a32fb0cd8fc536dafa8ecea" target="_top" xlink:title=" ">
<polygon fill="white" stroke="black" points="340,-164 340,-183 511,-183 511,-164 340,-164"/>
<text text-anchor="middle" x="425.5" y="-171" font-family="Helvetica,sans-Serif" font-size="10.00">TMC2130Stepper::beginTransaction</text>
</a>
</g>
</g>
<!-- Node2&#45;&gt;Node3 -->
<g id="edge2" class="edge"><title>Node2&#45;&gt;Node3</title>
<path fill="none" stroke="midnightblue" d="M259.522,-107.048C276.741,-119.725 309.117,-141.967 340,-154.5 346.272,-157.045 352.951,-159.283 359.7,-161.242"/>
<polygon fill="midnightblue" stroke="midnightblue" points="359.032,-164.687 369.599,-163.918 360.858,-157.93 359.032,-164.687"/>
</g>
<!-- Node4 -->
<g id="node4" class="node"><title>Node4</title>
<g id="a_node4"><a xlink:href="../../dd/deb/class_t_m_c2130_stepper.html#aeace18dcee808585dd4449e783811600" target="_top" xlink:title=" ">
<polygon fill="white" stroke="black" points="343.5,-126 343.5,-145 507.5,-145 507.5,-126 343.5,-126"/>
<text text-anchor="middle" x="425.5" y="-133" font-family="Helvetica,sans-Serif" font-size="10.00">TMC2130Stepper::endTransaction</text>
</a>
</g>
</g>
<!-- Node2&#45;&gt;Node4 -->
<g id="edge3" class="edge"><title>Node2&#45;&gt;Node4</title>
<path fill="none" stroke="midnightblue" d="M291.791,-107.089C315.53,-112.171 344.884,-118.455 369.944,-123.82"/>
<polygon fill="midnightblue" stroke="midnightblue" points="369.52,-127.309 380.031,-125.98 370.986,-120.464 369.52,-127.309"/>
</g>
<!-- Node5 -->
<g id="node5" class="node"><title>Node5</title>
<g id="a_node5"><a xlink:href="../../dd/deb/class_t_m_c2130_stepper.html#a4a8f3b6ac100045ed5f84fe4d18d9d5a" target="_top" xlink:title=" ">
<polygon fill="white" stroke="black" points="349.5,-88 349.5,-107 501.5,-107 501.5,-88 349.5,-88"/>
<text text-anchor="middle" x="425.5" y="-95" font-family="Helvetica,sans-Serif" font-size="10.00">TMC2130Stepper::switchCSpin</text>
</a>
</g>
</g>
<!-- Node2&#45;&gt;Node5 -->
<g id="edge4" class="edge"><title>Node2&#45;&gt;Node5</title>
<path fill="none" stroke="midnightblue" d="M304.139,-97.5C315.27,-97.5 327.163,-97.5 338.981,-97.5"/>
<polygon fill="midnightblue" stroke="midnightblue" points="339.325,-101 349.325,-97.5 339.324,-94.0001 339.325,-101"/>
</g>
<!-- Node6 -->
<g id="node6" class="node"><title>Node6</title>
<g id="a_node6"><a xlink:href="../../dd/deb/class_t_m_c2130_stepper.html#a0673af4887ec52b23aa658aa290f6623" target="_top" xlink:title=" ">
<polygon fill="white" stroke="black" points="547,-28 547,-47 677,-47 677,-28 547,-28"/>
<text text-anchor="middle" x="612" y="-35" font-family="Helvetica,sans-Serif" font-size="10.00">TMC2130Stepper::transfer</text>
</a>
</g>
</g>
<!-- Node2&#45;&gt;Node6 -->
<g id="edge5" class="edge"><title>Node2&#45;&gt;Node6</title>
<path fill="none" stroke="midnightblue" d="M291.378,-87.9498C306.744,-84.7717 324.099,-81.3252 340,-78.5 406.378,-66.7062 482.291,-55.4085 536.852,-47.6702"/>
<polygon fill="midnightblue" stroke="midnightblue" points="537.372,-51.1316 546.784,-46.2674 536.393,-44.2004 537.372,-51.1316"/>
</g>
<!-- Node8 -->
<g id="node8" class="node"><title>Node8</title>
<g id="a_node8"><a xlink:href="../../dd/deb/class_t_m_c2130_stepper.html#aba94fc7bb8e2c8c12191f44561f19d95" target="_top" xlink:title=" ">
<polygon fill="white" stroke="black" points="360.5,-0.5 360.5,-30.5 490.5,-30.5 490.5,-0.5 360.5,-0.5"/>
<text text-anchor="start" x="368.5" y="-18.5" font-family="Helvetica,sans-Serif" font-size="10.00">TMC2130Stepper::transfer</text>
<text text-anchor="middle" x="425.5" y="-7.5" font-family="Helvetica,sans-Serif" font-size="10.00">EmptyBytes</text>
</a>
</g>
</g>
<!-- Node2&#45;&gt;Node8 -->
<g id="edge7" class="edge"><title>Node2&#45;&gt;Node8</title>
<path fill="none" stroke="midnightblue" d="M262.378,-87.8381C280.488,-76.7136 311.694,-58.3277 340,-45.5 348.84,-41.494 358.386,-37.66 367.769,-34.1517"/>
<polygon fill="midnightblue" stroke="midnightblue" points="369.257,-37.3346 377.453,-30.6201 366.859,-30.7583 369.257,-37.3346"/>
</g>
<!-- Node7 -->
<g id="node7" class="node"><title>Node7</title>
<g id="a_node7"><a xlink:href="../../df/d8b/class_s_w___s_p_i_class.html#af260fdc0af3f1312b106483161e559c3" target="_top" xlink:title=" ">
<polygon fill="white" stroke="black" points="713,-28 713,-47 830,-47 830,-28 713,-28"/>
<text text-anchor="middle" x="771.5" y="-35" font-family="Helvetica,sans-Serif" font-size="10.00">SW_SPIClass::transfer</text>
</a>
</g>
</g>
<!-- Node6&#45;&gt;Node7 -->
<g id="edge6" class="edge"><title>Node6&#45;&gt;Node7</title>
<path fill="none" stroke="midnightblue" d="M677.061,-37.5C685.477,-37.5 694.125,-37.5 702.603,-37.5"/>
<polygon fill="midnightblue" stroke="midnightblue" points="702.831,-41.0001 712.831,-37.5 702.831,-34.0001 702.831,-41.0001"/>
</g>
<!-- Node8&#45;&gt;Node6 -->
<g id="edge8" class="edge"><title>Node8&#45;&gt;Node6</title>
<path fill="none" stroke="midnightblue" d="M490.511,-23.1328C505.452,-24.9144 521.487,-26.8263 536.827,-28.6556"/>
<polygon fill="midnightblue" stroke="midnightblue" points="536.445,-32.1347 546.79,-29.8435 537.274,-25.184 536.445,-32.1347"/>
</g>
</g>
</svg>
