<?xml version="1.0" encoding="UTF-8" standalone="no"?>
<!DOCTYPE svg PUBLIC "-//W3C//DTD SVG 1.1//EN"
 "http://www.w3.org/Graphics/SVG/1.1/DTD/svg11.dtd">
<!-- Generated by graphviz version 2.38.0 (20140413.2041)
 -->
<!-- Title: TMC2130Stepper::DCCTRL Pages: 1 -->
<svg width="821pt" height="192pt"
 viewBox="0.00 0.00 821.00 191.50" xmlns="http://www.w3.org/2000/svg" xmlns:xlink="http://www.w3.org/1999/xlink">
<g id="graph0" class="graph" transform="scale(1 1) rotate(0) translate(4 187.5)">
<title>TMC2130Stepper::DCCTRL</title>
<polygon fill="white" stroke="none" points="-4,4 -4,-187.5 817,-187.5 817,4 -4,4"/>
<!-- Node1 -->
<g id="node1" class="node"><title>Node1</title>
<g id="a_node1"><a xlink:title=" ">
<polygon fill="#bfbfbf" stroke="black" points="0,-88 0,-107 135,-107 135,-88 0,-88"/>
<text text-anchor="middle" x="67.5" y="-95" font-family="Helvetica,sans-Serif" font-size="10.00">TMC2130Stepper::DCCTRL</text>
</a>
</g>
</g>
<!-- Node2 -->
<g id="node2" class="node"><title>Node2</title>
<g id="a_node2"><a xlink:href="../../dd/deb/class_t_m_c2130_stepper.html#a161ca6ebe3736454e17e9236572a6001" target="_top" xlink:title=" ">
<polygon fill="white" stroke="black" points="171,-88 171,-107 287,-107 287,-88 171,-88"/>
<text text-anchor="middle" x="229" y="-95" font-family="Helvetica,sans-Serif" font-size="10.00">TMC2130Stepper::read</text>
</a>
</g>
</g>
<!-- Node1&#45;&gt;Node2 -->
<g id="edge1" class="edge"><title>Node1&#45;&gt;Node2</title>
<path fill="none" stroke="midnightblue" d="M135.218,-97.5C143.593,-97.5 152.166,-97.5 160.552,-97.5"/>
<polygon fill="midnightblue" stroke="midnightblue" points="160.663,-101 170.663,-97.5 160.663,-94.0001 160.663,-101"/>
</g>
<!-- Node3 -->
<g id="node3" class="node"><title>Node3</title>
<g id="a_node3"><a xlink:href="../../dd/deb/class_t_m_c2130_stepper.html#a1fc868601a32fb0cd8fc536dafa8ecea" target="_top" xlink:title=" ">
<polygon fill="white" stroke="black" points="323,-164 323,-183 494,-183 494,-164 323,-164"/>
<text text-anchor="middle" x="408.5" y="-171" font-family="Helvetica,sans-Serif" font-size="10.00">TMC2130Stepper::beginTransaction</text>
</a>
</g>
</g>
<!-- Node2&#45;&gt;Node3 -->
<g id="edge2" class="edge"><title>Node2&#45;&gt;Node3</title>
<path fill="none" stroke="midnightblue" d="M242.522,-107.048C259.741,-119.725 292.117,-141.967 323,-154.5 329.272,-157.045 335.951,-159.283 342.7,-161.242"/>
<polygon fill="midnightblue" stroke="midnightblue" points="342.032,-164.687 352.599,-163.918 343.858,-157.93 342.032,-164.687"/>
</g>
<!-- Node4 -->
<g id="node4" class="node"><title>Node4</title>
<g id="a_node4"><a xlink:href="../../dd/deb/class_t_m_c2130_stepper.html#aeace18dcee808585dd4449e783811600" target="_top" xlink:title=" ">
<polygon fill="white" stroke="black" points="326.5,-126 326.5,-145 490.5,-145 490.5,-126 326.5,-126"/>
<text text-anchor="middle" x="408.5" y="-133" font-family="Helvetica,sans-Serif" font-size="10.00">TMC2130Stepper::endTransaction</text>
</a>
</g>
</g>
<!-- Node2&#45;&gt;Node4 -->
<g id="edge3" class="edge"><title>Node2&#45;&gt;Node4</title>
<path fill="none" stroke="midnightblue" d="M274.791,-107.089C298.53,-112.171 327.884,-118.455 352.944,-123.82"/>
<polygon fill="midnightblue" stroke="midnightblue" points="352.52,-127.309 363.031,-125.98 353.986,-120.464 352.52,-127.309"/>
</g>
<!-- Node5 -->
<g id="node5" class="node"><title>Node5</title>
<g id="a_node5"><a xlink:href="../../dd/deb/class_t_m_c2130_stepper.html#a4a8f3b6ac100045ed5f84fe4d18d9d5a" target="_top" xlink:title=" ">
<polygon fill="white" stroke="black" points="332.5,-88 332.5,-107 484.5,-107 484.5,-88 332.5,-88"/>
<text text-anchor="middle" x="408.5" y="-95" font-family="Helvetica,sans-Serif" font-size="10.00">TMC2130Stepper::switchCSpin</text>
</a>
</g>
</g>
<!-- Node2&#45;&gt;Node5 -->
<g id="edge4" class="edge"><title>Node2&#45;&gt;Node5</title>
<path fill="none" stroke="midnightblue" d="M287.139,-97.5C298.27,-97.5 310.163,-97.5 321.981,-97.5"/>
<polygon fill="midnightblue" stroke="midnightblue" points="322.325,-101 332.325,-97.5 322.324,-94.0001 322.325,-101"/>
</g>
<!-- Node6 -->
<g id="node6" class="node"><title>Node6</title>
<g id="a_node6"><a xlink:href="../../dd/deb/class_t_m_c2130_stepper.html#a0673af4887ec52b23aa658aa290f6623" target="_top" xlink:title=" ">
<polygon fill="white" stroke="black" points="530,-28 530,-47 660,-47 660,-28 530,-28"/>
<text text-anchor="middle" x="595" y="-35" font-family="Helvetica,sans-Serif" font-size="10.00">TMC2130Stepper::transfer</text>
</a>
</g>
</g>
<!-- Node2&#45;&gt;Node6 -->
<g id="edge5" class="edge"><title>Node2&#45;&gt;Node6</title>
<path fill="none" stroke="midnightblue" d="M274.378,-87.9498C289.744,-84.7717 307.099,-81.3252 323,-78.5 389.378,-66.7062 465.291,-55.4085 519.852,-47.6702"/>
<polygon fill="midnightblue" stroke="midnightblue" points="520.372,-51.1316 529.784,-46.2674 519.393,-44.2004 520.372,-51.1316"/>
</g>
<!-- Node8 -->
<g id="node8" class="node"><title>Node8</title>
<g id="a_node8"><a xlink:href="../../dd/deb/class_t_m_c2130_stepper.html#aba94fc7bb8e2c8c12191f44561f19d95" target="_top" xlink:title=" ">
<polygon fill="white" stroke="black" points="343.5,-0.5 343.5,-30.5 473.5,-30.5 473.5,-0.5 343.5,-0.5"/>
<text text-anchor="start" x="351.5" y="-18.5" font-family="Helvetica,sans-Serif" font-size="10.00">TMC2130Stepper::transfer</text>
<text text-anchor="middle" x="408.5" y="-7.5" font-family="Helvetica,sans-Serif" font-size="10.00">EmptyBytes</text>
</a>
</g>
</g>
<!-- Node2&#45;&gt;Node8 -->
<g id="edge7" class="edge"><title>Node2&#45;&gt;Node8</title>
<path fill="none" stroke="midnightblue" d="M245.378,-87.8381C263.488,-76.7136 294.694,-58.3277 323,-45.5 331.84,-41.494 341.386,-37.66 350.769,-34.1517"/>
<polygon fill="midnightblue" stroke="midnightblue" points="352.257,-37.3346 360.453,-30.6201 349.859,-30.7583 352.257,-37.3346"/>
</g>
<!-- Node7 -->
<g id="node7" class="node"><title>Node7</title>
<g id="a_node7"><a xlink:href="../../df/d8b/class_s_w___s_p_i_class.html#af260fdc0af3f1312b106483161e559c3" target="_top" xlink:title=" ">
<polygon fill="white" stroke="black" points="696,-28 696,-47 813,-47 813,-28 696,-28"/>
<text text-anchor="middle" x="754.5" y="-35" font-family="Helvetica,sans-Serif" font-size="10.00">SW_SPIClass::transfer</text>
</a>
</g>
</g>
<!-- Node6&#45;&gt;Node7 -->
<g id="edge6" class="edge"><title>Node6&#45;&gt;Node7</title>
<path fill="none" stroke="midnightblue" d="M660.061,-37.5C668.477,-37.5 677.125,-37.5 685.603,-37.5"/>
<polygon fill="midnightblue" stroke="midnightblue" points="685.831,-41.0001 695.831,-37.5 685.831,-34.0001 685.831,-41.0001"/>
</g>
<!-- Node8&#45;&gt;Node6 -->
<g id="edge8" class="edge"><title>Node8&#45;&gt;Node6</title>
<path fill="none" stroke="midnightblue" d="M473.511,-23.1328C488.452,-24.9144 504.487,-26.8263 519.827,-28.6556"/>
<polygon fill="midnightblue" stroke="midnightblue" points="519.445,-32.1347 529.79,-29.8435 520.274,-25.184 519.445,-32.1347"/>
</g>
</g>
</svg>
