<?xml version="1.0" encoding="UTF-8" standalone="no"?>
<!DOCTYPE svg PUBLIC "-//W3C//DTD SVG 1.1//EN"
 "http://www.w3.org/Graphics/SVG/1.1/DTD/svg11.dtd">
<!-- Generated by graphviz version 2.38.0 (20140413.2041)
 -->
<!-- Title: TMC2130Stepper::stop_enable Pages: 1 -->
<svg width="970pt" height="192pt"
 viewBox="0.00 0.00 970.00 191.50" xmlns="http://www.w3.org/2000/svg" xmlns:xlink="http://www.w3.org/1999/xlink">
<g id="graph0" class="graph" transform="scale(1 1) rotate(0) translate(4 187.5)">
<title>TMC2130Stepper::stop_enable</title>
<polygon fill="white" stroke="none" points="-4,4 -4,-187.5 966,-187.5 966,4 -4,4"/>
<!-- Node1 -->
<g id="node1" class="node"><title>Node1</title>
<g id="a_node1"><a xlink:title=" ">
<polygon fill="#bfbfbf" stroke="black" points="0,-82.5 0,-112.5 116,-112.5 116,-82.5 0,-82.5"/>
<text text-anchor="start" x="8" y="-100.5" font-family="Helvetica,sans-Serif" font-size="10.00">TMC2130Stepper::stop</text>
<text text-anchor="middle" x="58" y="-89.5" font-family="Helvetica,sans-Serif" font-size="10.00">_enable</text>
</a>
</g>
</g>
<!-- Node2 -->
<g id="node2" class="node"><title>Node2</title>
<g id="a_node2"><a xlink:href="../../dd/deb/class_t_m_c2130_stepper.html#aee84a9abfc84b387c6ae5658f90bf684" target="_top" xlink:title=" ">
<polygon fill="white" stroke="black" points="152,-88 152,-107 284,-107 284,-88 152,-88"/>
<text text-anchor="middle" x="218" y="-95" font-family="Helvetica,sans-Serif" font-size="10.00">TMC2130Stepper::GCONF</text>
</a>
</g>
</g>
<!-- Node1&#45;&gt;Node2 -->
<g id="edge1" class="edge"><title>Node1&#45;&gt;Node2</title>
<path fill="none" stroke="midnightblue" d="M116.042,-97.5C124.428,-97.5 133.173,-97.5 141.855,-97.5"/>
<polygon fill="midnightblue" stroke="midnightblue" points="141.994,-101 151.994,-97.5 141.994,-94.0001 141.994,-101"/>
</g>
<!-- Node3 -->
<g id="node3" class="node"><title>Node3</title>
<g id="a_node3"><a xlink:href="../../dd/deb/class_t_m_c2130_stepper.html#a161ca6ebe3736454e17e9236572a6001" target="_top" xlink:title=" ">
<polygon fill="white" stroke="black" points="320,-88 320,-107 436,-107 436,-88 320,-88"/>
<text text-anchor="middle" x="378" y="-95" font-family="Helvetica,sans-Serif" font-size="10.00">TMC2130Stepper::read</text>
</a>
</g>
</g>
<!-- Node2&#45;&gt;Node3 -->
<g id="edge2" class="edge"><title>Node2&#45;&gt;Node3</title>
<path fill="none" stroke="midnightblue" d="M284.177,-97.5C292.517,-97.5 301.069,-97.5 309.445,-97.5"/>
<polygon fill="midnightblue" stroke="midnightblue" points="309.55,-101 319.55,-97.5 309.55,-94.0001 309.55,-101"/>
</g>
<!-- Node4 -->
<g id="node4" class="node"><title>Node4</title>
<g id="a_node4"><a xlink:href="../../dd/deb/class_t_m_c2130_stepper.html#a1fc868601a32fb0cd8fc536dafa8ecea" target="_top" xlink:title=" ">
<polygon fill="white" stroke="black" points="472,-164 472,-183 643,-183 643,-164 472,-164"/>
<text text-anchor="middle" x="557.5" y="-171" font-family="Helvetica,sans-Serif" font-size="10.00">TMC2130Stepper::beginTransaction</text>
</a>
</g>
</g>
<!-- Node3&#45;&gt;Node4 -->
<g id="edge3" class="edge"><title>Node3&#45;&gt;Node4</title>
<path fill="none" stroke="midnightblue" d="M391.522,-107.048C408.741,-119.725 441.117,-141.967 472,-154.5 478.272,-157.045 484.951,-159.283 491.7,-161.242"/>
<polygon fill="midnightblue" stroke="midnightblue" points="491.032,-164.687 501.599,-163.918 492.858,-157.93 491.032,-164.687"/>
</g>
<!-- Node5 -->
<g id="node5" class="node"><title>Node5</title>
<g id="a_node5"><a xlink:href="../../dd/deb/class_t_m_c2130_stepper.html#aeace18dcee808585dd4449e783811600" target="_top" xlink:title=" ">
<polygon fill="white" stroke="black" points="475.5,-126 475.5,-145 639.5,-145 639.5,-126 475.5,-126"/>
<text text-anchor="middle" x="557.5" y="-133" font-family="Helvetica,sans-Serif" font-size="10.00">TMC2130Stepper::endTransaction</text>
</a>
</g>
</g>
<!-- Node3&#45;&gt;Node5 -->
<g id="edge4" class="edge"><title>Node3&#45;&gt;Node5</title>
<path fill="none" stroke="midnightblue" d="M423.791,-107.089C447.53,-112.171 476.884,-118.455 501.944,-123.82"/>
<polygon fill="midnightblue" stroke="midnightblue" points="501.52,-127.309 512.031,-125.98 502.986,-120.464 501.52,-127.309"/>
</g>
<!-- Node6 -->
<g id="node6" class="node"><title>Node6</title>
<g id="a_node6"><a xlink:href="../../dd/deb/class_t_m_c2130_stepper.html#a4a8f3b6ac100045ed5f84fe4d18d9d5a" target="_top" xlink:title=" ">
<polygon fill="white" stroke="black" points="481.5,-88 481.5,-107 633.5,-107 633.5,-88 481.5,-88"/>
<text text-anchor="middle" x="557.5" y="-95" font-family="Helvetica,sans-Serif" font-size="10.00">TMC2130Stepper::switchCSpin</text>
</a>
</g>
</g>
<!-- Node3&#45;&gt;Node6 -->
<g id="edge5" class="edge"><title>Node3&#45;&gt;Node6</title>
<path fill="none" stroke="midnightblue" d="M436.139,-97.5C447.27,-97.5 459.163,-97.5 470.981,-97.5"/>
<polygon fill="midnightblue" stroke="midnightblue" points="471.325,-101 481.325,-97.5 471.324,-94.0001 471.325,-101"/>
</g>
<!-- Node7 -->
<g id="node7" class="node"><title>Node7</title>
<g id="a_node7"><a xlink:href="../../dd/deb/class_t_m_c2130_stepper.html#a0673af4887ec52b23aa658aa290f6623" target="_top" xlink:title=" ">
<polygon fill="white" stroke="black" points="679,-28 679,-47 809,-47 809,-28 679,-28"/>
<text text-anchor="middle" x="744" y="-35" font-family="Helvetica,sans-Serif" font-size="10.00">TMC2130Stepper::transfer</text>
</a>
</g>
</g>
<!-- Node3&#45;&gt;Node7 -->
<g id="edge6" class="edge"><title>Node3&#45;&gt;Node7</title>
<path fill="none" stroke="midnightblue" d="M423.378,-87.9498C438.744,-84.7717 456.099,-81.3252 472,-78.5 538.378,-66.7062 614.291,-55.4085 668.852,-47.6702"/>
<polygon fill="midnightblue" stroke="midnightblue" points="669.372,-51.1316 678.784,-46.2674 668.393,-44.2004 669.372,-51.1316"/>
</g>
<!-- Node9 -->
<g id="node9" class="node"><title>Node9</title>
<g id="a_node9"><a xlink:href="../../dd/deb/class_t_m_c2130_stepper.html#aba94fc7bb8e2c8c12191f44561f19d95" target="_top" xlink:title=" ">
<polygon fill="white" stroke="black" points="492.5,-0.5 492.5,-30.5 622.5,-30.5 622.5,-0.5 492.5,-0.5"/>
<text text-anchor="start" x="500.5" y="-18.5" font-family="Helvetica,sans-Serif" font-size="10.00">TMC2130Stepper::transfer</text>
<text text-anchor="middle" x="557.5" y="-7.5" font-family="Helvetica,sans-Serif" font-size="10.00">EmptyBytes</text>
</a>
</g>
</g>
<!-- Node3&#45;&gt;Node9 -->
<g id="edge8" class="edge"><title>Node3&#45;&gt;Node9</title>
<path fill="none" stroke="midnightblue" d="M394.378,-87.8381C412.488,-76.7136 443.694,-58.3277 472,-45.5 480.84,-41.494 490.386,-37.66 499.769,-34.1517"/>
<polygon fill="midnightblue" stroke="midnightblue" points="501.257,-37.3346 509.453,-30.6201 498.859,-30.7583 501.257,-37.3346"/>
</g>
<!-- Node8 -->
<g id="node8" class="node"><title>Node8</title>
<g id="a_node8"><a xlink:href="../../df/d8b/class_s_w___s_p_i_class.html#af260fdc0af3f1312b106483161e559c3" target="_top" xlink:title=" ">
<polygon fill="white" stroke="black" points="845,-28 845,-47 962,-47 962,-28 845,-28"/>
<text text-anchor="middle" x="903.5" y="-35" font-family="Helvetica,sans-Serif" font-size="10.00">SW_SPIClass::transfer</text>
</a>
</g>
</g>
<!-- Node7&#45;&gt;Node8 -->
<g id="edge7" class="edge"><title>Node7&#45;&gt;Node8</title>
<path fill="none" stroke="midnightblue" d="M809.061,-37.5C817.477,-37.5 826.125,-37.5 834.603,-37.5"/>
<polygon fill="midnightblue" stroke="midnightblue" points="834.831,-41.0001 844.831,-37.5 834.831,-34.0001 834.831,-41.0001"/>
</g>
<!-- Node9&#45;&gt;Node7 -->
<g id="edge9" class="edge"><title>Node9&#45;&gt;Node7</title>
<path fill="none" stroke="midnightblue" d="M622.511,-23.1328C637.452,-24.9144 653.487,-26.8263 668.827,-28.6556"/>
<polygon fill="midnightblue" stroke="midnightblue" points="668.445,-32.1347 678.79,-29.8435 669.274,-25.184 668.445,-32.1347"/>
</g>
</g>
</svg>
