<?xml version="1.0" encoding="UTF-8" standalone="no"?>
<!DOCTYPE svg PUBLIC "-//W3C//DTD SVG 1.1//EN"
 "http://www.w3.org/Graphics/SVG/1.1/DTD/svg11.dtd">
<!-- Generated by graphviz version 2.38.0 (20140413.2041)
 -->
<!-- Title: TMC2130Stepper::XDIRECT Pages: 1 -->
<svg width="823pt" height="192pt"
 viewBox="0.00 0.00 823.00 191.50" xmlns="http://www.w3.org/2000/svg" xmlns:xlink="http://www.w3.org/1999/xlink">
<g id="graph0" class="graph" transform="scale(1 1) rotate(0) translate(4 187.5)">
<title>TMC2130Stepper::XDIRECT</title>
<polygon fill="white" stroke="none" points="-4,4 -4,-187.5 819,-187.5 819,4 -4,4"/>
<!-- Node1 -->
<g id="node1" class="node"><title>Node1</title>
<g id="a_node1"><a xlink:title=" ">
<polygon fill="#bfbfbf" stroke="black" points="0,-88 0,-107 137,-107 137,-88 0,-88"/>
<text text-anchor="middle" x="68.5" y="-95" font-family="Helvetica,sans-Serif" font-size="10.00">TMC2130Stepper::XDIRECT</text>
</a>
</g>
</g>
<!-- Node2 -->
<g id="node2" class="node"><title>Node2</title>
<g id="a_node2"><a xlink:href="../../dd/deb/class_t_m_c2130_stepper.html#a161ca6ebe3736454e17e9236572a6001" target="_top" xlink:title=" ">
<polygon fill="white" stroke="black" points="173,-88 173,-107 289,-107 289,-88 173,-88"/>
<text text-anchor="middle" x="231" y="-95" font-family="Helvetica,sans-Serif" font-size="10.00">TMC2130Stepper::read</text>
</a>
</g>
</g>
<!-- Node1&#45;&gt;Node2 -->
<g id="edge1" class="edge"><title>Node1&#45;&gt;Node2</title>
<path fill="none" stroke="midnightblue" d="M137.101,-97.5C145.567,-97.5 154.226,-97.5 162.688,-97.5"/>
<polygon fill="midnightblue" stroke="midnightblue" points="162.885,-101 172.885,-97.5 162.885,-94.0001 162.885,-101"/>
</g>
<!-- Node3 -->
<g id="node3" class="node"><title>Node3</title>
<g id="a_node3"><a xlink:href="../../dd/deb/class_t_m_c2130_stepper.html#a1fc868601a32fb0cd8fc536dafa8ecea" target="_top" xlink:title=" ">
<polygon fill="white" stroke="black" points="325,-164 325,-183 496,-183 496,-164 325,-164"/>
<text text-anchor="middle" x="410.5" y="-171" font-family="Helvetica,sans-Serif" font-size="10.00">TMC2130Stepper::beginTransaction</text>
</a>
</g>
</g>
<!-- Node2&#45;&gt;Node3 -->
<g id="edge2" class="edge"><title>Node2&#45;&gt;Node3</title>
<path fill="none" stroke="midnightblue" d="M244.522,-107.048C261.741,-119.725 294.117,-141.967 325,-154.5 331.272,-157.045 337.951,-159.283 344.7,-161.242"/>
<polygon fill="midnightblue" stroke="midnightblue" points="344.032,-164.687 354.599,-163.918 345.858,-157.93 344.032,-164.687"/>
</g>
<!-- Node4 -->
<g id="node4" class="node"><title>Node4</title>
<g id="a_node4"><a xlink:href="../../dd/deb/class_t_m_c2130_stepper.html#aeace18dcee808585dd4449e783811600" target="_top" xlink:title=" ">
<polygon fill="white" stroke="black" points="328.5,-126 328.5,-145 492.5,-145 492.5,-126 328.5,-126"/>
<text text-anchor="middle" x="410.5" y="-133" font-family="Helvetica,sans-Serif" font-size="10.00">TMC2130Stepper::endTransaction</text>
</a>
</g>
</g>
<!-- Node2&#45;&gt;Node4 -->
<g id="edge3" class="edge"><title>Node2&#45;&gt;Node4</title>
<path fill="none" stroke="midnightblue" d="M276.791,-107.089C300.53,-112.171 329.884,-118.455 354.944,-123.82"/>
<polygon fill="midnightblue" stroke="midnightblue" points="354.52,-127.309 365.031,-125.98 355.986,-120.464 354.52,-127.309"/>
</g>
<!-- Node5 -->
<g id="node5" class="node"><title>Node5</title>
<g id="a_node5"><a xlink:href="../../dd/deb/class_t_m_c2130_stepper.html#a4a8f3b6ac100045ed5f84fe4d18d9d5a" target="_top" xlink:title=" ">
<polygon fill="white" stroke="black" points="334.5,-88 334.5,-107 486.5,-107 486.5,-88 334.5,-88"/>
<text text-anchor="middle" x="410.5" y="-95" font-family="Helvetica,sans-Serif" font-size="10.00">TMC2130Stepper::switchCSpin</text>
</a>
</g>
</g>
<!-- Node2&#45;&gt;Node5 -->
<g id="edge4" class="edge"><title>Node2&#45;&gt;Node5</title>
<path fill="none" stroke="midnightblue" d="M289.139,-97.5C300.27,-97.5 312.163,-97.5 323.981,-97.5"/>
<polygon fill="midnightblue" stroke="midnightblue" points="324.325,-101 334.325,-97.5 324.324,-94.0001 324.325,-101"/>
</g>
<!-- Node6 -->
<g id="node6" class="node"><title>Node6</title>
<g id="a_node6"><a xlink:href="../../dd/deb/class_t_m_c2130_stepper.html#a0673af4887ec52b23aa658aa290f6623" target="_top" xlink:title=" ">
<polygon fill="white" stroke="black" points="532,-28 532,-47 662,-47 662,-28 532,-28"/>
<text text-anchor="middle" x="597" y="-35" font-family="Helvetica,sans-Serif" font-size="10.00">TMC2130Stepper::transfer</text>
</a>
</g>
</g>
<!-- Node2&#45;&gt;Node6 -->
<g id="edge5" class="edge"><title>Node2&#45;&gt;Node6</title>
<path fill="none" stroke="midnightblue" d="M276.378,-87.9498C291.744,-84.7717 309.099,-81.3252 325,-78.5 391.378,-66.7062 467.291,-55.4085 521.852,-47.6702"/>
<polygon fill="midnightblue" stroke="midnightblue" points="522.372,-51.1316 531.784,-46.2674 521.393,-44.2004 522.372,-51.1316"/>
</g>
<!-- Node8 -->
<g id="node8" class="node"><title>Node8</title>
<g id="a_node8"><a xlink:href="../../dd/deb/class_t_m_c2130_stepper.html#aba94fc7bb8e2c8c12191f44561f19d95" target="_top" xlink:title=" ">
<polygon fill="white" stroke="black" points="345.5,-0.5 345.5,-30.5 475.5,-30.5 475.5,-0.5 345.5,-0.5"/>
<text text-anchor="start" x="353.5" y="-18.5" font-family="Helvetica,sans-Serif" font-size="10.00">TMC2130Stepper::transfer</text>
<text text-anchor="middle" x="410.5" y="-7.5" font-family="Helvetica,sans-Serif" font-size="10.00">EmptyBytes</text>
</a>
</g>
</g>
<!-- Node2&#45;&gt;Node8 -->
<g id="edge7" class="edge"><title>Node2&#45;&gt;Node8</title>
<path fill="none" stroke="midnightblue" d="M247.378,-87.8381C265.488,-76.7136 296.694,-58.3277 325,-45.5 333.84,-41.494 343.386,-37.66 352.769,-34.1517"/>
<polygon fill="midnightblue" stroke="midnightblue" points="354.257,-37.3346 362.453,-30.6201 351.859,-30.7583 354.257,-37.3346"/>
</g>
<!-- Node7 -->
<g id="node7" class="node"><title>Node7</title>
<g id="a_node7"><a xlink:href="../../df/d8b/class_s_w___s_p_i_class.html#af260fdc0af3f1312b106483161e559c3" target="_top" xlink:title=" ">
<polygon fill="white" stroke="black" points="698,-28 698,-47 815,-47 815,-28 698,-28"/>
<text text-anchor="middle" x="756.5" y="-35" font-family="Helvetica,sans-Serif" font-size="10.00">SW_SPIClass::transfer</text>
</a>
</g>
</g>
<!-- Node6&#45;&gt;Node7 -->
<g id="edge6" class="edge"><title>Node6&#45;&gt;Node7</title>
<path fill="none" stroke="midnightblue" d="M662.061,-37.5C670.477,-37.5 679.125,-37.5 687.603,-37.5"/>
<polygon fill="midnightblue" stroke="midnightblue" points="687.831,-41.0001 697.831,-37.5 687.831,-34.0001 687.831,-41.0001"/>
</g>
<!-- Node8&#45;&gt;Node6 -->
<g id="edge8" class="edge"><title>Node8&#45;&gt;Node6</title>
<path fill="none" stroke="midnightblue" d="M475.511,-23.1328C490.452,-24.9144 506.487,-26.8263 521.827,-28.6556"/>
<polygon fill="midnightblue" stroke="midnightblue" points="521.445,-32.1347 531.79,-29.8435 522.274,-25.184 521.445,-32.1347"/>
</g>
</g>
</svg>
