<?xml version="1.0" encoding="UTF-8" standalone="no"?>
<!DOCTYPE svg PUBLIC "-//W3C//DTD SVG 1.1//EN"
 "http://www.w3.org/Graphics/SVG/1.1/DTD/svg11.dtd">
<!-- Generated by graphviz version 2.38.0 (20140413.2041)
 -->
<!-- Title: TMC2130Stepper::inv Pages: 1 -->
<svg width="797pt" height="192pt"
 viewBox="0.00 0.00 797.00 191.50" xmlns="http://www.w3.org/2000/svg" xmlns:xlink="http://www.w3.org/1999/xlink">
<g id="graph0" class="graph" transform="scale(1 1) rotate(0) translate(4 187.5)">
<title>TMC2130Stepper::inv</title>
<polygon fill="white" stroke="none" points="-4,4 -4,-187.5 793,-187.5 793,4 -4,4"/>
<!-- Node1 -->
<g id="node1" class="node"><title>Node1</title>
<g id="a_node1"><a xlink:title=" ">
<polygon fill="#bfbfbf" stroke="black" points="0,-88 0,-107 109,-107 109,-88 0,-88"/>
<text text-anchor="middle" x="54.5" y="-95" font-family="Helvetica,sans-Serif" font-size="10.00">TMC2130Stepper::inv</text>
</a>
</g>
</g>
<!-- Node2 -->
<g id="node2" class="node"><title>Node2</title>
<g id="a_node2"><a xlink:href="../../dd/deb/class_t_m_c2130_stepper.html#a6b02e33ab452a7869426ede7ba370445" target="_top" xlink:title=" ">
<polygon fill="white" stroke="black" points="145,-88 145,-107 263,-107 263,-88 145,-88"/>
<text text-anchor="middle" x="204" y="-95" font-family="Helvetica,sans-Serif" font-size="10.00">TMC2130Stepper::write</text>
</a>
</g>
</g>
<!-- Node1&#45;&gt;Node2 -->
<g id="edge1" class="edge"><title>Node1&#45;&gt;Node2</title>
<path fill="none" stroke="midnightblue" d="M109.168,-97.5C117.516,-97.5 126.235,-97.5 134.852,-97.5"/>
<polygon fill="midnightblue" stroke="midnightblue" points="134.892,-101 144.892,-97.5 134.892,-94.0001 134.892,-101"/>
</g>
<!-- Node3 -->
<g id="node3" class="node"><title>Node3</title>
<g id="a_node3"><a xlink:href="../../dd/deb/class_t_m_c2130_stepper.html#a1fc868601a32fb0cd8fc536dafa8ecea" target="_top" xlink:title=" ">
<polygon fill="white" stroke="black" points="299,-164 299,-183 470,-183 470,-164 299,-164"/>
<text text-anchor="middle" x="384.5" y="-171" font-family="Helvetica,sans-Serif" font-size="10.00">TMC2130Stepper::beginTransaction</text>
</a>
</g>
</g>
<!-- Node2&#45;&gt;Node3 -->
<g id="edge2" class="edge"><title>Node2&#45;&gt;Node3</title>
<path fill="none" stroke="midnightblue" d="M217.674,-107.041C235.099,-119.71 267.845,-141.943 299,-154.5 305.372,-157.068 312.16,-159.325 319.015,-161.299"/>
<polygon fill="midnightblue" stroke="midnightblue" points="318.497,-164.784 329.062,-163.994 320.31,-158.023 318.497,-164.784"/>
</g>
<!-- Node4 -->
<g id="node4" class="node"><title>Node4</title>
<g id="a_node4"><a xlink:href="../../dd/deb/class_t_m_c2130_stepper.html#aeace18dcee808585dd4449e783811600" target="_top" xlink:title=" ">
<polygon fill="white" stroke="black" points="302.5,-126 302.5,-145 466.5,-145 466.5,-126 302.5,-126"/>
<text text-anchor="middle" x="384.5" y="-133" font-family="Helvetica,sans-Serif" font-size="10.00">TMC2130Stepper::endTransaction</text>
</a>
</g>
</g>
<!-- Node2&#45;&gt;Node4 -->
<g id="edge3" class="edge"><title>Node2&#45;&gt;Node4</title>
<path fill="none" stroke="midnightblue" d="M250.043,-107.089C274.023,-112.194 303.698,-118.511 328.972,-123.892"/>
<polygon fill="midnightblue" stroke="midnightblue" points="328.271,-127.321 338.781,-125.98 329.729,-120.474 328.271,-127.321"/>
</g>
<!-- Node5 -->
<g id="node5" class="node"><title>Node5</title>
<g id="a_node5"><a xlink:href="../../dd/deb/class_t_m_c2130_stepper.html#a4a8f3b6ac100045ed5f84fe4d18d9d5a" target="_top" xlink:title=" ">
<polygon fill="white" stroke="black" points="308.5,-88 308.5,-107 460.5,-107 460.5,-88 308.5,-88"/>
<text text-anchor="middle" x="384.5" y="-95" font-family="Helvetica,sans-Serif" font-size="10.00">TMC2130Stepper::switchCSpin</text>
</a>
</g>
</g>
<!-- Node2&#45;&gt;Node5 -->
<g id="edge4" class="edge"><title>Node2&#45;&gt;Node5</title>
<path fill="none" stroke="midnightblue" d="M263.448,-97.5C274.536,-97.5 286.347,-97.5 298.07,-97.5"/>
<polygon fill="midnightblue" stroke="midnightblue" points="298.329,-101 308.329,-97.5 298.329,-94.0001 298.329,-101"/>
</g>
<!-- Node6 -->
<g id="node6" class="node"><title>Node6</title>
<g id="a_node6"><a xlink:href="../../dd/deb/class_t_m_c2130_stepper.html#a0673af4887ec52b23aa658aa290f6623" target="_top" xlink:title=" ">
<polygon fill="white" stroke="black" points="506,-28 506,-47 636,-47 636,-28 506,-28"/>
<text text-anchor="middle" x="571" y="-35" font-family="Helvetica,sans-Serif" font-size="10.00">TMC2130Stepper::transfer</text>
</a>
</g>
</g>
<!-- Node2&#45;&gt;Node6 -->
<g id="edge5" class="edge"><title>Node2&#45;&gt;Node6</title>
<path fill="none" stroke="midnightblue" d="M249.859,-87.964C265.391,-84.787 282.932,-81.3376 299,-78.5 365.39,-66.7755 441.302,-55.4704 495.859,-47.7117"/>
<polygon fill="midnightblue" stroke="midnightblue" points="496.381,-51.1729 505.791,-46.3049 495.399,-44.2421 496.381,-51.1729"/>
</g>
<!-- Node8 -->
<g id="node8" class="node"><title>Node8</title>
<g id="a_node8"><a xlink:href="../../dd/deb/class_t_m_c2130_stepper.html#aba94fc7bb8e2c8c12191f44561f19d95" target="_top" xlink:title=" ">
<polygon fill="white" stroke="black" points="319.5,-0.5 319.5,-30.5 449.5,-30.5 449.5,-0.5 319.5,-0.5"/>
<text text-anchor="start" x="327.5" y="-18.5" font-family="Helvetica,sans-Serif" font-size="10.00">TMC2130Stepper::transfer</text>
<text text-anchor="middle" x="384.5" y="-7.5" font-family="Helvetica,sans-Serif" font-size="10.00">EmptyBytes</text>
</a>
</g>
</g>
<!-- Node2&#45;&gt;Node8 -->
<g id="edge7" class="edge"><title>Node2&#45;&gt;Node8</title>
<path fill="none" stroke="midnightblue" d="M220.559,-87.8524C238.877,-76.7413 270.432,-58.368 299,-45.5 308.049,-41.4242 317.831,-37.5179 327.42,-33.9495"/>
<polygon fill="midnightblue" stroke="midnightblue" points="328.707,-37.2056 336.91,-30.5 326.316,-30.6267 328.707,-37.2056"/>
</g>
<!-- Node7 -->
<g id="node7" class="node"><title>Node7</title>
<g id="a_node7"><a xlink:href="../../df/d8b/class_s_w___s_p_i_class.html#af260fdc0af3f1312b106483161e559c3" target="_top" xlink:title=" ">
<polygon fill="white" stroke="black" points="672,-28 672,-47 789,-47 789,-28 672,-28"/>
<text text-anchor="middle" x="730.5" y="-35" font-family="Helvetica,sans-Serif" font-size="10.00">SW_SPIClass::transfer</text>
</a>
</g>
</g>
<!-- Node6&#45;&gt;Node7 -->
<g id="edge6" class="edge"><title>Node6&#45;&gt;Node7</title>
<path fill="none" stroke="midnightblue" d="M636.061,-37.5C644.477,-37.5 653.125,-37.5 661.603,-37.5"/>
<polygon fill="midnightblue" stroke="midnightblue" points="661.831,-41.0001 671.831,-37.5 661.831,-34.0001 661.831,-41.0001"/>
</g>
<!-- Node8&#45;&gt;Node6 -->
<g id="edge8" class="edge"><title>Node8&#45;&gt;Node6</title>
<path fill="none" stroke="midnightblue" d="M449.511,-23.1328C464.452,-24.9144 480.487,-26.8263 495.827,-28.6556"/>
<polygon fill="midnightblue" stroke="midnightblue" points="495.445,-32.1347 505.79,-29.8435 496.274,-25.184 495.445,-32.1347"/>
</g>
</g>
</svg>
