<?xml version="1.0" encoding="UTF-8" standalone="no"?>
<!DOCTYPE svg PUBLIC "-//W3C//DTD SVG 1.1//EN"
 "http://www.w3.org/Graphics/SVG/1.1/DTD/svg11.dtd">
<!-- Generated by graphviz version 2.38.0 (20140413.2041)
 -->
<!-- Title: TMC2130Stepper::diss2g Pages: 1 -->
<svg width="1162pt" height="192pt"
 viewBox="0.00 0.00 1162.00 191.50" xmlns="http://www.w3.org/2000/svg" xmlns:xlink="http://www.w3.org/1999/xlink">
<g id="graph0" class="graph" transform="scale(1 1) rotate(0) translate(4 187.5)">
<title>TMC2130Stepper::diss2g</title>
<polygon fill="white" stroke="none" points="-4,4 -4,-187.5 1158,-187.5 1158,4 -4,4"/>
<!-- Node1 -->
<g id="node1" class="node"><title>Node1</title>
<g id="a_node1"><a xlink:title=" ">
<polygon fill="#bfbfbf" stroke="black" points="0,-88 0,-107 126,-107 126,-88 0,-88"/>
<text text-anchor="middle" x="63" y="-95" font-family="Helvetica,sans-Serif" font-size="10.00">TMC2130Stepper::diss2g</text>
</a>
</g>
</g>
<!-- Node2 -->
<g id="node2" class="node"><title>Node2</title>
<g id="a_node2"><a xlink:href="../../dd/deb/class_t_m_c2130_stepper.html#a5929db451598d6a16f8e82b37fbf738f" target="_top" xlink:title=" ">
<polygon fill="white" stroke="black" points="162,-88 162,-107 288,-107 288,-88 162,-88"/>
<text text-anchor="middle" x="225" y="-95" font-family="Helvetica,sans-Serif" font-size="10.00">TMC2130Stepper::diss2g</text>
</a>
</g>
</g>
<!-- Node1&#45;&gt;Node2 -->
<g id="edge1" class="edge"><title>Node1&#45;&gt;Node2</title>
<path fill="none" stroke="midnightblue" d="M126.318,-97.5C134.615,-97.5 143.179,-97.5 151.628,-97.5"/>
<polygon fill="midnightblue" stroke="midnightblue" points="151.852,-101 161.852,-97.5 151.852,-94.0001 151.852,-101"/>
</g>
<!-- Node3 -->
<g id="node3" class="node"><title>Node3</title>
<g id="a_node3"><a xlink:href="../../dd/deb/class_t_m_c2130_stepper.html#a67541b27d97ce45f175e9f6e4a2d0bff" target="_top" xlink:title=" ">
<polygon fill="white" stroke="black" points="324,-88 324,-107 476,-107 476,-88 324,-88"/>
<text text-anchor="middle" x="400" y="-95" font-family="Helvetica,sans-Serif" font-size="10.00">TMC2130Stepper::CHOPCONF</text>
</a>
</g>
</g>
<!-- Node2&#45;&gt;Node3 -->
<g id="edge2" class="edge"><title>Node2&#45;&gt;Node3</title>
<path fill="none" stroke="midnightblue" d="M288.457,-97.5C296.735,-97.5 305.332,-97.5 313.911,-97.5"/>
<polygon fill="midnightblue" stroke="midnightblue" points="313.953,-101 323.953,-97.5 313.953,-94.0001 313.953,-101"/>
</g>
<!-- Node4 -->
<g id="node4" class="node"><title>Node4</title>
<g id="a_node4"><a xlink:href="../../dd/deb/class_t_m_c2130_stepper.html#a161ca6ebe3736454e17e9236572a6001" target="_top" xlink:title=" ">
<polygon fill="white" stroke="black" points="512,-88 512,-107 628,-107 628,-88 512,-88"/>
<text text-anchor="middle" x="570" y="-95" font-family="Helvetica,sans-Serif" font-size="10.00">TMC2130Stepper::read</text>
</a>
</g>
</g>
<!-- Node3&#45;&gt;Node4 -->
<g id="edge3" class="edge"><title>Node3&#45;&gt;Node4</title>
<path fill="none" stroke="midnightblue" d="M476.155,-97.5C484.664,-97.5 493.296,-97.5 501.696,-97.5"/>
<polygon fill="midnightblue" stroke="midnightblue" points="501.802,-101 511.802,-97.5 501.802,-94.0001 501.802,-101"/>
</g>
<!-- Node5 -->
<g id="node5" class="node"><title>Node5</title>
<g id="a_node5"><a xlink:href="../../dd/deb/class_t_m_c2130_stepper.html#a1fc868601a32fb0cd8fc536dafa8ecea" target="_top" xlink:title=" ">
<polygon fill="white" stroke="black" points="664,-164 664,-183 835,-183 835,-164 664,-164"/>
<text text-anchor="middle" x="749.5" y="-171" font-family="Helvetica,sans-Serif" font-size="10.00">TMC2130Stepper::beginTransaction</text>
</a>
</g>
</g>
<!-- Node4&#45;&gt;Node5 -->
<g id="edge4" class="edge"><title>Node4&#45;&gt;Node5</title>
<path fill="none" stroke="midnightblue" d="M583.522,-107.048C600.741,-119.725 633.117,-141.967 664,-154.5 670.272,-157.045 676.951,-159.283 683.7,-161.242"/>
<polygon fill="midnightblue" stroke="midnightblue" points="683.032,-164.687 693.599,-163.918 684.858,-157.93 683.032,-164.687"/>
</g>
<!-- Node6 -->
<g id="node6" class="node"><title>Node6</title>
<g id="a_node6"><a xlink:href="../../dd/deb/class_t_m_c2130_stepper.html#aeace18dcee808585dd4449e783811600" target="_top" xlink:title=" ">
<polygon fill="white" stroke="black" points="667.5,-126 667.5,-145 831.5,-145 831.5,-126 667.5,-126"/>
<text text-anchor="middle" x="749.5" y="-133" font-family="Helvetica,sans-Serif" font-size="10.00">TMC2130Stepper::endTransaction</text>
</a>
</g>
</g>
<!-- Node4&#45;&gt;Node6 -->
<g id="edge5" class="edge"><title>Node4&#45;&gt;Node6</title>
<path fill="none" stroke="midnightblue" d="M615.791,-107.089C639.53,-112.171 668.884,-118.455 693.944,-123.82"/>
<polygon fill="midnightblue" stroke="midnightblue" points="693.52,-127.309 704.031,-125.98 694.986,-120.464 693.52,-127.309"/>
</g>
<!-- Node7 -->
<g id="node7" class="node"><title>Node7</title>
<g id="a_node7"><a xlink:href="../../dd/deb/class_t_m_c2130_stepper.html#a4a8f3b6ac100045ed5f84fe4d18d9d5a" target="_top" xlink:title=" ">
<polygon fill="white" stroke="black" points="673.5,-88 673.5,-107 825.5,-107 825.5,-88 673.5,-88"/>
<text text-anchor="middle" x="749.5" y="-95" font-family="Helvetica,sans-Serif" font-size="10.00">TMC2130Stepper::switchCSpin</text>
</a>
</g>
</g>
<!-- Node4&#45;&gt;Node7 -->
<g id="edge6" class="edge"><title>Node4&#45;&gt;Node7</title>
<path fill="none" stroke="midnightblue" d="M628.139,-97.5C639.27,-97.5 651.163,-97.5 662.981,-97.5"/>
<polygon fill="midnightblue" stroke="midnightblue" points="663.325,-101 673.325,-97.5 663.324,-94.0001 663.325,-101"/>
</g>
<!-- Node8 -->
<g id="node8" class="node"><title>Node8</title>
<g id="a_node8"><a xlink:href="../../dd/deb/class_t_m_c2130_stepper.html#a0673af4887ec52b23aa658aa290f6623" target="_top" xlink:title=" ">
<polygon fill="white" stroke="black" points="871,-28 871,-47 1001,-47 1001,-28 871,-28"/>
<text text-anchor="middle" x="936" y="-35" font-family="Helvetica,sans-Serif" font-size="10.00">TMC2130Stepper::transfer</text>
</a>
</g>
</g>
<!-- Node4&#45;&gt;Node8 -->
<g id="edge7" class="edge"><title>Node4&#45;&gt;Node8</title>
<path fill="none" stroke="midnightblue" d="M615.378,-87.9498C630.744,-84.7717 648.099,-81.3252 664,-78.5 730.378,-66.7062 806.291,-55.4085 860.852,-47.6702"/>
<polygon fill="midnightblue" stroke="midnightblue" points="861.372,-51.1316 870.784,-46.2674 860.393,-44.2004 861.372,-51.1316"/>
</g>
<!-- Node10 -->
<g id="node10" class="node"><title>Node10</title>
<g id="a_node10"><a xlink:href="../../dd/deb/class_t_m_c2130_stepper.html#aba94fc7bb8e2c8c12191f44561f19d95" target="_top" xlink:title=" ">
<polygon fill="white" stroke="black" points="684.5,-0.5 684.5,-30.5 814.5,-30.5 814.5,-0.5 684.5,-0.5"/>
<text text-anchor="start" x="692.5" y="-18.5" font-family="Helvetica,sans-Serif" font-size="10.00">TMC2130Stepper::transfer</text>
<text text-anchor="middle" x="749.5" y="-7.5" font-family="Helvetica,sans-Serif" font-size="10.00">EmptyBytes</text>
</a>
</g>
</g>
<!-- Node4&#45;&gt;Node10 -->
<g id="edge9" class="edge"><title>Node4&#45;&gt;Node10</title>
<path fill="none" stroke="midnightblue" d="M586.378,-87.8381C604.488,-76.7136 635.694,-58.3277 664,-45.5 672.84,-41.494 682.386,-37.66 691.769,-34.1517"/>
<polygon fill="midnightblue" stroke="midnightblue" points="693.257,-37.3346 701.453,-30.6201 690.859,-30.7583 693.257,-37.3346"/>
</g>
<!-- Node9 -->
<g id="node9" class="node"><title>Node9</title>
<g id="a_node9"><a xlink:href="../../df/d8b/class_s_w___s_p_i_class.html#af260fdc0af3f1312b106483161e559c3" target="_top" xlink:title=" ">
<polygon fill="white" stroke="black" points="1037,-28 1037,-47 1154,-47 1154,-28 1037,-28"/>
<text text-anchor="middle" x="1095.5" y="-35" font-family="Helvetica,sans-Serif" font-size="10.00">SW_SPIClass::transfer</text>
</a>
</g>
</g>
<!-- Node8&#45;&gt;Node9 -->
<g id="edge8" class="edge"><title>Node8&#45;&gt;Node9</title>
<path fill="none" stroke="midnightblue" d="M1001.06,-37.5C1009.48,-37.5 1018.13,-37.5 1026.6,-37.5"/>
<polygon fill="midnightblue" stroke="midnightblue" points="1026.83,-41.0001 1036.83,-37.5 1026.83,-34.0001 1026.83,-41.0001"/>
</g>
<!-- Node10&#45;&gt;Node8 -->
<g id="edge10" class="edge"><title>Node10&#45;&gt;Node8</title>
<path fill="none" stroke="midnightblue" d="M814.511,-23.1328C829.452,-24.9144 845.487,-26.8263 860.827,-28.6556"/>
<polygon fill="midnightblue" stroke="midnightblue" points="860.445,-32.1347 870.79,-29.8435 861.274,-25.184 860.445,-32.1347"/>
</g>
</g>
</svg>
