<?xml version="1.0" encoding="UTF-8" standalone="no"?>
<!DOCTYPE svg PUBLIC "-//W3C//DTD SVG 1.1//EN"
 "http://www.w3.org/Graphics/SVG/1.1/DTD/svg11.dtd">
<!-- Generated by graphviz version 2.38.0 (20140413.2041)
 -->
<!-- Title: TMC2130Stepper::dedge Pages: 1 -->
<svg width="998pt" height="192pt"
 viewBox="0.00 0.00 998.00 191.50" xmlns="http://www.w3.org/2000/svg" xmlns:xlink="http://www.w3.org/1999/xlink">
<g id="graph0" class="graph" transform="scale(1 1) rotate(0) translate(4 187.5)">
<title>TMC2130Stepper::dedge</title>
<polygon fill="white" stroke="none" points="-4,4 -4,-187.5 994,-187.5 994,4 -4,4"/>
<!-- Node1 -->
<g id="node1" class="node"><title>Node1</title>
<g id="a_node1"><a xlink:title=" ">
<polygon fill="#bfbfbf" stroke="black" points="0,-88 0,-107 124,-107 124,-88 0,-88"/>
<text text-anchor="middle" x="62" y="-95" font-family="Helvetica,sans-Serif" font-size="10.00">TMC2130Stepper::dedge</text>
</a>
</g>
</g>
<!-- Node2 -->
<g id="node2" class="node"><title>Node2</title>
<g id="a_node2"><a xlink:href="../../dd/deb/class_t_m_c2130_stepper.html#a67541b27d97ce45f175e9f6e4a2d0bff" target="_top" xlink:title=" ">
<polygon fill="white" stroke="black" points="160,-88 160,-107 312,-107 312,-88 160,-88"/>
<text text-anchor="middle" x="236" y="-95" font-family="Helvetica,sans-Serif" font-size="10.00">TMC2130Stepper::CHOPCONF</text>
</a>
</g>
</g>
<!-- Node1&#45;&gt;Node2 -->
<g id="edge1" class="edge"><title>Node1&#45;&gt;Node2</title>
<path fill="none" stroke="midnightblue" d="M124.125,-97.5C132.453,-97.5 141.122,-97.5 149.78,-97.5"/>
<polygon fill="midnightblue" stroke="midnightblue" points="149.918,-101 159.918,-97.5 149.918,-94.0001 149.918,-101"/>
</g>
<!-- Node3 -->
<g id="node3" class="node"><title>Node3</title>
<g id="a_node3"><a xlink:href="../../dd/deb/class_t_m_c2130_stepper.html#a161ca6ebe3736454e17e9236572a6001" target="_top" xlink:title=" ">
<polygon fill="white" stroke="black" points="348,-88 348,-107 464,-107 464,-88 348,-88"/>
<text text-anchor="middle" x="406" y="-95" font-family="Helvetica,sans-Serif" font-size="10.00">TMC2130Stepper::read</text>
</a>
</g>
</g>
<!-- Node2&#45;&gt;Node3 -->
<g id="edge2" class="edge"><title>Node2&#45;&gt;Node3</title>
<path fill="none" stroke="midnightblue" d="M312.155,-97.5C320.664,-97.5 329.296,-97.5 337.696,-97.5"/>
<polygon fill="midnightblue" stroke="midnightblue" points="337.802,-101 347.802,-97.5 337.802,-94.0001 337.802,-101"/>
</g>
<!-- Node4 -->
<g id="node4" class="node"><title>Node4</title>
<g id="a_node4"><a xlink:href="../../dd/deb/class_t_m_c2130_stepper.html#a1fc868601a32fb0cd8fc536dafa8ecea" target="_top" xlink:title=" ">
<polygon fill="white" stroke="black" points="500,-164 500,-183 671,-183 671,-164 500,-164"/>
<text text-anchor="middle" x="585.5" y="-171" font-family="Helvetica,sans-Serif" font-size="10.00">TMC2130Stepper::beginTransaction</text>
</a>
</g>
</g>
<!-- Node3&#45;&gt;Node4 -->
<g id="edge3" class="edge"><title>Node3&#45;&gt;Node4</title>
<path fill="none" stroke="midnightblue" d="M419.522,-107.048C436.741,-119.725 469.117,-141.967 500,-154.5 506.272,-157.045 512.951,-159.283 519.7,-161.242"/>
<polygon fill="midnightblue" stroke="midnightblue" points="519.032,-164.687 529.599,-163.918 520.858,-157.93 519.032,-164.687"/>
</g>
<!-- Node5 -->
<g id="node5" class="node"><title>Node5</title>
<g id="a_node5"><a xlink:href="../../dd/deb/class_t_m_c2130_stepper.html#aeace18dcee808585dd4449e783811600" target="_top" xlink:title=" ">
<polygon fill="white" stroke="black" points="503.5,-126 503.5,-145 667.5,-145 667.5,-126 503.5,-126"/>
<text text-anchor="middle" x="585.5" y="-133" font-family="Helvetica,sans-Serif" font-size="10.00">TMC2130Stepper::endTransaction</text>
</a>
</g>
</g>
<!-- Node3&#45;&gt;Node5 -->
<g id="edge4" class="edge"><title>Node3&#45;&gt;Node5</title>
<path fill="none" stroke="midnightblue" d="M451.791,-107.089C475.53,-112.171 504.884,-118.455 529.944,-123.82"/>
<polygon fill="midnightblue" stroke="midnightblue" points="529.52,-127.309 540.031,-125.98 530.986,-120.464 529.52,-127.309"/>
</g>
<!-- Node6 -->
<g id="node6" class="node"><title>Node6</title>
<g id="a_node6"><a xlink:href="../../dd/deb/class_t_m_c2130_stepper.html#a4a8f3b6ac100045ed5f84fe4d18d9d5a" target="_top" xlink:title=" ">
<polygon fill="white" stroke="black" points="509.5,-88 509.5,-107 661.5,-107 661.5,-88 509.5,-88"/>
<text text-anchor="middle" x="585.5" y="-95" font-family="Helvetica,sans-Serif" font-size="10.00">TMC2130Stepper::switchCSpin</text>
</a>
</g>
</g>
<!-- Node3&#45;&gt;Node6 -->
<g id="edge5" class="edge"><title>Node3&#45;&gt;Node6</title>
<path fill="none" stroke="midnightblue" d="M464.139,-97.5C475.27,-97.5 487.163,-97.5 498.981,-97.5"/>
<polygon fill="midnightblue" stroke="midnightblue" points="499.325,-101 509.325,-97.5 499.324,-94.0001 499.325,-101"/>
</g>
<!-- Node7 -->
<g id="node7" class="node"><title>Node7</title>
<g id="a_node7"><a xlink:href="../../dd/deb/class_t_m_c2130_stepper.html#a0673af4887ec52b23aa658aa290f6623" target="_top" xlink:title=" ">
<polygon fill="white" stroke="black" points="707,-28 707,-47 837,-47 837,-28 707,-28"/>
<text text-anchor="middle" x="772" y="-35" font-family="Helvetica,sans-Serif" font-size="10.00">TMC2130Stepper::transfer</text>
</a>
</g>
</g>
<!-- Node3&#45;&gt;Node7 -->
<g id="edge6" class="edge"><title>Node3&#45;&gt;Node7</title>
<path fill="none" stroke="midnightblue" d="M451.378,-87.9498C466.744,-84.7717 484.099,-81.3252 500,-78.5 566.378,-66.7062 642.291,-55.4085 696.852,-47.6702"/>
<polygon fill="midnightblue" stroke="midnightblue" points="697.372,-51.1316 706.784,-46.2674 696.393,-44.2004 697.372,-51.1316"/>
</g>
<!-- Node9 -->
<g id="node9" class="node"><title>Node9</title>
<g id="a_node9"><a xlink:href="../../dd/deb/class_t_m_c2130_stepper.html#aba94fc7bb8e2c8c12191f44561f19d95" target="_top" xlink:title=" ">
<polygon fill="white" stroke="black" points="520.5,-0.5 520.5,-30.5 650.5,-30.5 650.5,-0.5 520.5,-0.5"/>
<text text-anchor="start" x="528.5" y="-18.5" font-family="Helvetica,sans-Serif" font-size="10.00">TMC2130Stepper::transfer</text>
<text text-anchor="middle" x="585.5" y="-7.5" font-family="Helvetica,sans-Serif" font-size="10.00">EmptyBytes</text>
</a>
</g>
</g>
<!-- Node3&#45;&gt;Node9 -->
<g id="edge8" class="edge"><title>Node3&#45;&gt;Node9</title>
<path fill="none" stroke="midnightblue" d="M422.378,-87.8381C440.488,-76.7136 471.694,-58.3277 500,-45.5 508.84,-41.494 518.386,-37.66 527.769,-34.1517"/>
<polygon fill="midnightblue" stroke="midnightblue" points="529.257,-37.3346 537.453,-30.6201 526.859,-30.7583 529.257,-37.3346"/>
</g>
<!-- Node8 -->
<g id="node8" class="node"><title>Node8</title>
<g id="a_node8"><a xlink:href="../../df/d8b/class_s_w___s_p_i_class.html#af260fdc0af3f1312b106483161e559c3" target="_top" xlink:title=" ">
<polygon fill="white" stroke="black" points="873,-28 873,-47 990,-47 990,-28 873,-28"/>
<text text-anchor="middle" x="931.5" y="-35" font-family="Helvetica,sans-Serif" font-size="10.00">SW_SPIClass::transfer</text>
</a>
</g>
</g>
<!-- Node7&#45;&gt;Node8 -->
<g id="edge7" class="edge"><title>Node7&#45;&gt;Node8</title>
<path fill="none" stroke="midnightblue" d="M837.061,-37.5C845.477,-37.5 854.125,-37.5 862.603,-37.5"/>
<polygon fill="midnightblue" stroke="midnightblue" points="862.831,-41.0001 872.831,-37.5 862.831,-34.0001 862.831,-41.0001"/>
</g>
<!-- Node9&#45;&gt;Node7 -->
<g id="edge9" class="edge"><title>Node9&#45;&gt;Node7</title>
<path fill="none" stroke="midnightblue" d="M650.511,-23.1328C665.452,-24.9144 681.487,-26.8263 696.827,-28.6556"/>
<polygon fill="midnightblue" stroke="midnightblue" points="696.445,-32.1347 706.79,-29.8435 697.274,-25.184 696.445,-32.1347"/>
</g>
</g>
</svg>
