<?xml version="1.0" encoding="UTF-8" standalone="no"?>
<!DOCTYPE svg PUBLIC "-//W3C//DTD SVG 1.1//EN"
 "http://www.w3.org/Graphics/SVG/1.1/DTD/svg11.dtd">
<!-- Generated by graphviz version 2.38.0 (20140413.2041)
 -->
<!-- Title: TMC2130Stepper::GCONF Pages: 1 -->
<svg width="818pt" height="192pt"
 viewBox="0.00 0.00 818.00 191.50" xmlns="http://www.w3.org/2000/svg" xmlns:xlink="http://www.w3.org/1999/xlink">
<g id="graph0" class="graph" transform="scale(1 1) rotate(0) translate(4 187.5)">
<title>TMC2130Stepper::GCONF</title>
<polygon fill="white" stroke="none" points="-4,4 -4,-187.5 814,-187.5 814,4 -4,4"/>
<!-- Node1 -->
<g id="node1" class="node"><title>Node1</title>
<g id="a_node1"><a xlink:title=" ">
<polygon fill="#bfbfbf" stroke="black" points="0,-88 0,-107 132,-107 132,-88 0,-88"/>
<text text-anchor="middle" x="66" y="-95" font-family="Helvetica,sans-Serif" font-size="10.00">TMC2130Stepper::GCONF</text>
</a>
</g>
</g>
<!-- Node2 -->
<g id="node2" class="node"><title>Node2</title>
<g id="a_node2"><a xlink:href="../../dd/deb/class_t_m_c2130_stepper.html#a161ca6ebe3736454e17e9236572a6001" target="_top" xlink:title=" ">
<polygon fill="white" stroke="black" points="168,-88 168,-107 284,-107 284,-88 168,-88"/>
<text text-anchor="middle" x="226" y="-95" font-family="Helvetica,sans-Serif" font-size="10.00">TMC2130Stepper::read</text>
</a>
</g>
</g>
<!-- Node1&#45;&gt;Node2 -->
<g id="edge1" class="edge"><title>Node1&#45;&gt;Node2</title>
<path fill="none" stroke="midnightblue" d="M132.177,-97.5C140.517,-97.5 149.069,-97.5 157.445,-97.5"/>
<polygon fill="midnightblue" stroke="midnightblue" points="157.55,-101 167.55,-97.5 157.55,-94.0001 157.55,-101"/>
</g>
<!-- Node3 -->
<g id="node3" class="node"><title>Node3</title>
<g id="a_node3"><a xlink:href="../../dd/deb/class_t_m_c2130_stepper.html#a1fc868601a32fb0cd8fc536dafa8ecea" target="_top" xlink:title=" ">
<polygon fill="white" stroke="black" points="320,-164 320,-183 491,-183 491,-164 320,-164"/>
<text text-anchor="middle" x="405.5" y="-171" font-family="Helvetica,sans-Serif" font-size="10.00">TMC2130Stepper::beginTransaction</text>
</a>
</g>
</g>
<!-- Node2&#45;&gt;Node3 -->
<g id="edge2" class="edge"><title>Node2&#45;&gt;Node3</title>
<path fill="none" stroke="midnightblue" d="M239.522,-107.048C256.741,-119.725 289.117,-141.967 320,-154.5 326.272,-157.045 332.951,-159.283 339.7,-161.242"/>
<polygon fill="midnightblue" stroke="midnightblue" points="339.032,-164.687 349.599,-163.918 340.858,-157.93 339.032,-164.687"/>
</g>
<!-- Node4 -->
<g id="node4" class="node"><title>Node4</title>
<g id="a_node4"><a xlink:href="../../dd/deb/class_t_m_c2130_stepper.html#aeace18dcee808585dd4449e783811600" target="_top" xlink:title=" ">
<polygon fill="white" stroke="black" points="323.5,-126 323.5,-145 487.5,-145 487.5,-126 323.5,-126"/>
<text text-anchor="middle" x="405.5" y="-133" font-family="Helvetica,sans-Serif" font-size="10.00">TMC2130Stepper::endTransaction</text>
</a>
</g>
</g>
<!-- Node2&#45;&gt;Node4 -->
<g id="edge3" class="edge"><title>Node2&#45;&gt;Node4</title>
<path fill="none" stroke="midnightblue" d="M271.791,-107.089C295.53,-112.171 324.884,-118.455 349.944,-123.82"/>
<polygon fill="midnightblue" stroke="midnightblue" points="349.52,-127.309 360.031,-125.98 350.986,-120.464 349.52,-127.309"/>
</g>
<!-- Node5 -->
<g id="node5" class="node"><title>Node5</title>
<g id="a_node5"><a xlink:href="../../dd/deb/class_t_m_c2130_stepper.html#a4a8f3b6ac100045ed5f84fe4d18d9d5a" target="_top" xlink:title=" ">
<polygon fill="white" stroke="black" points="329.5,-88 329.5,-107 481.5,-107 481.5,-88 329.5,-88"/>
<text text-anchor="middle" x="405.5" y="-95" font-family="Helvetica,sans-Serif" font-size="10.00">TMC2130Stepper::switchCSpin</text>
</a>
</g>
</g>
<!-- Node2&#45;&gt;Node5 -->
<g id="edge4" class="edge"><title>Node2&#45;&gt;Node5</title>
<path fill="none" stroke="midnightblue" d="M284.139,-97.5C295.27,-97.5 307.163,-97.5 318.981,-97.5"/>
<polygon fill="midnightblue" stroke="midnightblue" points="319.325,-101 329.325,-97.5 319.324,-94.0001 319.325,-101"/>
</g>
<!-- Node6 -->
<g id="node6" class="node"><title>Node6</title>
<g id="a_node6"><a xlink:href="../../dd/deb/class_t_m_c2130_stepper.html#a0673af4887ec52b23aa658aa290f6623" target="_top" xlink:title=" ">
<polygon fill="white" stroke="black" points="527,-28 527,-47 657,-47 657,-28 527,-28"/>
<text text-anchor="middle" x="592" y="-35" font-family="Helvetica,sans-Serif" font-size="10.00">TMC2130Stepper::transfer</text>
</a>
</g>
</g>
<!-- Node2&#45;&gt;Node6 -->
<g id="edge5" class="edge"><title>Node2&#45;&gt;Node6</title>
<path fill="none" stroke="midnightblue" d="M271.378,-87.9498C286.744,-84.7717 304.099,-81.3252 320,-78.5 386.378,-66.7062 462.291,-55.4085 516.852,-47.6702"/>
<polygon fill="midnightblue" stroke="midnightblue" points="517.372,-51.1316 526.784,-46.2674 516.393,-44.2004 517.372,-51.1316"/>
</g>
<!-- Node8 -->
<g id="node8" class="node"><title>Node8</title>
<g id="a_node8"><a xlink:href="../../dd/deb/class_t_m_c2130_stepper.html#aba94fc7bb8e2c8c12191f44561f19d95" target="_top" xlink:title=" ">
<polygon fill="white" stroke="black" points="340.5,-0.5 340.5,-30.5 470.5,-30.5 470.5,-0.5 340.5,-0.5"/>
<text text-anchor="start" x="348.5" y="-18.5" font-family="Helvetica,sans-Serif" font-size="10.00">TMC2130Stepper::transfer</text>
<text text-anchor="middle" x="405.5" y="-7.5" font-family="Helvetica,sans-Serif" font-size="10.00">EmptyBytes</text>
</a>
</g>
</g>
<!-- Node2&#45;&gt;Node8 -->
<g id="edge7" class="edge"><title>Node2&#45;&gt;Node8</title>
<path fill="none" stroke="midnightblue" d="M242.378,-87.8381C260.488,-76.7136 291.694,-58.3277 320,-45.5 328.84,-41.494 338.386,-37.66 347.769,-34.1517"/>
<polygon fill="midnightblue" stroke="midnightblue" points="349.257,-37.3346 357.453,-30.6201 346.859,-30.7583 349.257,-37.3346"/>
</g>
<!-- Node7 -->
<g id="node7" class="node"><title>Node7</title>
<g id="a_node7"><a xlink:href="../../df/d8b/class_s_w___s_p_i_class.html#af260fdc0af3f1312b106483161e559c3" target="_top" xlink:title=" ">
<polygon fill="white" stroke="black" points="693,-28 693,-47 810,-47 810,-28 693,-28"/>
<text text-anchor="middle" x="751.5" y="-35" font-family="Helvetica,sans-Serif" font-size="10.00">SW_SPIClass::transfer</text>
</a>
</g>
</g>
<!-- Node6&#45;&gt;Node7 -->
<g id="edge6" class="edge"><title>Node6&#45;&gt;Node7</title>
<path fill="none" stroke="midnightblue" d="M657.061,-37.5C665.477,-37.5 674.125,-37.5 682.603,-37.5"/>
<polygon fill="midnightblue" stroke="midnightblue" points="682.831,-41.0001 692.831,-37.5 682.831,-34.0001 682.831,-41.0001"/>
</g>
<!-- Node8&#45;&gt;Node6 -->
<g id="edge8" class="edge"><title>Node8&#45;&gt;Node6</title>
<path fill="none" stroke="midnightblue" d="M470.511,-23.1328C485.452,-24.9144 501.487,-26.8263 516.827,-28.6556"/>
<polygon fill="midnightblue" stroke="midnightblue" points="516.445,-32.1347 526.79,-29.8435 517.274,-25.184 516.445,-32.1347"/>
</g>
</g>
</svg>
