<?xml version="1.0" encoding="UTF-8" standalone="no"?>
<!DOCTYPE svg PUBLIC "-//W3C//DTD SVG 1.1//EN"
 "http://www.w3.org/Graphics/SVG/1.1/DTD/svg11.dtd">
<!-- Generated by graphviz version 2.38.0 (20140413.2041)
 -->
<!-- Title: TMC2130Stepper::internal_Rsense Pages: 1 -->
<svg width="983pt" height="192pt"
 viewBox="0.00 0.00 983.00 191.50" xmlns="http://www.w3.org/2000/svg" xmlns:xlink="http://www.w3.org/1999/xlink">
<g id="graph0" class="graph" transform="scale(1 1) rotate(0) translate(4 187.5)">
<title>TMC2130Stepper::internal_Rsense</title>
<polygon fill="white" stroke="none" points="-4,4 -4,-187.5 979,-187.5 979,4 -4,4"/>
<!-- Node1 -->
<g id="node1" class="node"><title>Node1</title>
<g id="a_node1"><a xlink:title=" ">
<polygon fill="#bfbfbf" stroke="black" points="0,-82.5 0,-112.5 129,-112.5 129,-82.5 0,-82.5"/>
<text text-anchor="start" x="8" y="-100.5" font-family="Helvetica,sans-Serif" font-size="10.00">TMC2130Stepper::internal</text>
<text text-anchor="middle" x="64.5" y="-89.5" font-family="Helvetica,sans-Serif" font-size="10.00">_Rsense</text>
</a>
</g>
</g>
<!-- Node2 -->
<g id="node2" class="node"><title>Node2</title>
<g id="a_node2"><a xlink:href="../../dd/deb/class_t_m_c2130_stepper.html#aee84a9abfc84b387c6ae5658f90bf684" target="_top" xlink:title=" ">
<polygon fill="white" stroke="black" points="165,-88 165,-107 297,-107 297,-88 165,-88"/>
<text text-anchor="middle" x="231" y="-95" font-family="Helvetica,sans-Serif" font-size="10.00">TMC2130Stepper::GCONF</text>
</a>
</g>
</g>
<!-- Node1&#45;&gt;Node2 -->
<g id="edge1" class="edge"><title>Node1&#45;&gt;Node2</title>
<path fill="none" stroke="midnightblue" d="M129.1,-97.5C137.548,-97.5 146.273,-97.5 154.892,-97.5"/>
<polygon fill="midnightblue" stroke="midnightblue" points="154.939,-101 164.939,-97.5 154.939,-94.0001 154.939,-101"/>
</g>
<!-- Node3 -->
<g id="node3" class="node"><title>Node3</title>
<g id="a_node3"><a xlink:href="../../dd/deb/class_t_m_c2130_stepper.html#a161ca6ebe3736454e17e9236572a6001" target="_top" xlink:title=" ">
<polygon fill="white" stroke="black" points="333,-88 333,-107 449,-107 449,-88 333,-88"/>
<text text-anchor="middle" x="391" y="-95" font-family="Helvetica,sans-Serif" font-size="10.00">TMC2130Stepper::read</text>
</a>
</g>
</g>
<!-- Node2&#45;&gt;Node3 -->
<g id="edge2" class="edge"><title>Node2&#45;&gt;Node3</title>
<path fill="none" stroke="midnightblue" d="M297.177,-97.5C305.517,-97.5 314.069,-97.5 322.445,-97.5"/>
<polygon fill="midnightblue" stroke="midnightblue" points="322.55,-101 332.55,-97.5 322.55,-94.0001 322.55,-101"/>
</g>
<!-- Node4 -->
<g id="node4" class="node"><title>Node4</title>
<g id="a_node4"><a xlink:href="../../dd/deb/class_t_m_c2130_stepper.html#a1fc868601a32fb0cd8fc536dafa8ecea" target="_top" xlink:title=" ">
<polygon fill="white" stroke="black" points="485,-164 485,-183 656,-183 656,-164 485,-164"/>
<text text-anchor="middle" x="570.5" y="-171" font-family="Helvetica,sans-Serif" font-size="10.00">TMC2130Stepper::beginTransaction</text>
</a>
</g>
</g>
<!-- Node3&#45;&gt;Node4 -->
<g id="edge3" class="edge"><title>Node3&#45;&gt;Node4</title>
<path fill="none" stroke="midnightblue" d="M404.522,-107.048C421.741,-119.725 454.117,-141.967 485,-154.5 491.272,-157.045 497.951,-159.283 504.7,-161.242"/>
<polygon fill="midnightblue" stroke="midnightblue" points="504.032,-164.687 514.599,-163.918 505.858,-157.93 504.032,-164.687"/>
</g>
<!-- Node5 -->
<g id="node5" class="node"><title>Node5</title>
<g id="a_node5"><a xlink:href="../../dd/deb/class_t_m_c2130_stepper.html#aeace18dcee808585dd4449e783811600" target="_top" xlink:title=" ">
<polygon fill="white" stroke="black" points="488.5,-126 488.5,-145 652.5,-145 652.5,-126 488.5,-126"/>
<text text-anchor="middle" x="570.5" y="-133" font-family="Helvetica,sans-Serif" font-size="10.00">TMC2130Stepper::endTransaction</text>
</a>
</g>
</g>
<!-- Node3&#45;&gt;Node5 -->
<g id="edge4" class="edge"><title>Node3&#45;&gt;Node5</title>
<path fill="none" stroke="midnightblue" d="M436.791,-107.089C460.53,-112.171 489.884,-118.455 514.944,-123.82"/>
<polygon fill="midnightblue" stroke="midnightblue" points="514.52,-127.309 525.031,-125.98 515.986,-120.464 514.52,-127.309"/>
</g>
<!-- Node6 -->
<g id="node6" class="node"><title>Node6</title>
<g id="a_node6"><a xlink:href="../../dd/deb/class_t_m_c2130_stepper.html#a4a8f3b6ac100045ed5f84fe4d18d9d5a" target="_top" xlink:title=" ">
<polygon fill="white" stroke="black" points="494.5,-88 494.5,-107 646.5,-107 646.5,-88 494.5,-88"/>
<text text-anchor="middle" x="570.5" y="-95" font-family="Helvetica,sans-Serif" font-size="10.00">TMC2130Stepper::switchCSpin</text>
</a>
</g>
</g>
<!-- Node3&#45;&gt;Node6 -->
<g id="edge5" class="edge"><title>Node3&#45;&gt;Node6</title>
<path fill="none" stroke="midnightblue" d="M449.139,-97.5C460.27,-97.5 472.163,-97.5 483.981,-97.5"/>
<polygon fill="midnightblue" stroke="midnightblue" points="484.325,-101 494.325,-97.5 484.324,-94.0001 484.325,-101"/>
</g>
<!-- Node7 -->
<g id="node7" class="node"><title>Node7</title>
<g id="a_node7"><a xlink:href="../../dd/deb/class_t_m_c2130_stepper.html#a0673af4887ec52b23aa658aa290f6623" target="_top" xlink:title=" ">
<polygon fill="white" stroke="black" points="692,-28 692,-47 822,-47 822,-28 692,-28"/>
<text text-anchor="middle" x="757" y="-35" font-family="Helvetica,sans-Serif" font-size="10.00">TMC2130Stepper::transfer</text>
</a>
</g>
</g>
<!-- Node3&#45;&gt;Node7 -->
<g id="edge6" class="edge"><title>Node3&#45;&gt;Node7</title>
<path fill="none" stroke="midnightblue" d="M436.378,-87.9498C451.744,-84.7717 469.099,-81.3252 485,-78.5 551.378,-66.7062 627.291,-55.4085 681.852,-47.6702"/>
<polygon fill="midnightblue" stroke="midnightblue" points="682.372,-51.1316 691.784,-46.2674 681.393,-44.2004 682.372,-51.1316"/>
</g>
<!-- Node9 -->
<g id="node9" class="node"><title>Node9</title>
<g id="a_node9"><a xlink:href="../../dd/deb/class_t_m_c2130_stepper.html#aba94fc7bb8e2c8c12191f44561f19d95" target="_top" xlink:title=" ">
<polygon fill="white" stroke="black" points="505.5,-0.5 505.5,-30.5 635.5,-30.5 635.5,-0.5 505.5,-0.5"/>
<text text-anchor="start" x="513.5" y="-18.5" font-family="Helvetica,sans-Serif" font-size="10.00">TMC2130Stepper::transfer</text>
<text text-anchor="middle" x="570.5" y="-7.5" font-family="Helvetica,sans-Serif" font-size="10.00">EmptyBytes</text>
</a>
</g>
</g>
<!-- Node3&#45;&gt;Node9 -->
<g id="edge8" class="edge"><title>Node3&#45;&gt;Node9</title>
<path fill="none" stroke="midnightblue" d="M407.378,-87.8381C425.488,-76.7136 456.694,-58.3277 485,-45.5 493.84,-41.494 503.386,-37.66 512.769,-34.1517"/>
<polygon fill="midnightblue" stroke="midnightblue" points="514.257,-37.3346 522.453,-30.6201 511.859,-30.7583 514.257,-37.3346"/>
</g>
<!-- Node8 -->
<g id="node8" class="node"><title>Node8</title>
<g id="a_node8"><a xlink:href="../../df/d8b/class_s_w___s_p_i_class.html#af260fdc0af3f1312b106483161e559c3" target="_top" xlink:title=" ">
<polygon fill="white" stroke="black" points="858,-28 858,-47 975,-47 975,-28 858,-28"/>
<text text-anchor="middle" x="916.5" y="-35" font-family="Helvetica,sans-Serif" font-size="10.00">SW_SPIClass::transfer</text>
</a>
</g>
</g>
<!-- Node7&#45;&gt;Node8 -->
<g id="edge7" class="edge"><title>Node7&#45;&gt;Node8</title>
<path fill="none" stroke="midnightblue" d="M822.061,-37.5C830.477,-37.5 839.125,-37.5 847.603,-37.5"/>
<polygon fill="midnightblue" stroke="midnightblue" points="847.831,-41.0001 857.831,-37.5 847.831,-34.0001 847.831,-41.0001"/>
</g>
<!-- Node9&#45;&gt;Node7 -->
<g id="edge9" class="edge"><title>Node9&#45;&gt;Node7</title>
<path fill="none" stroke="midnightblue" d="M635.511,-23.1328C650.452,-24.9144 666.487,-26.8263 681.827,-28.6556"/>
<polygon fill="midnightblue" stroke="midnightblue" points="681.445,-32.1347 691.79,-29.8435 682.274,-25.184 681.445,-32.1347"/>
</g>
</g>
</svg>
