<?xml version="1.0" encoding="UTF-8" standalone="no"?>
<!DOCTYPE svg PUBLIC "-//W3C//DTD SVG 1.1//EN"
 "http://www.w3.org/Graphics/SVG/1.1/DTD/svg11.dtd">
<!-- Generated by graphviz version 2.38.0 (20140413.2041)
 -->
<!-- Title: TMC2130Stepper::drv_enn_cfg6 Pages: 1 -->
<svg width="948pt" height="192pt"
 viewBox="0.00 0.00 948.00 191.50" xmlns="http://www.w3.org/2000/svg" xmlns:xlink="http://www.w3.org/1999/xlink">
<g id="graph0" class="graph" transform="scale(1 1) rotate(0) translate(4 187.5)">
<title>TMC2130Stepper::drv_enn_cfg6</title>
<polygon fill="white" stroke="none" points="-4,4 -4,-187.5 944,-187.5 944,4 -4,4"/>
<!-- Node1 -->
<g id="node1" class="node"><title>Node1</title>
<g id="a_node1"><a xlink:title=" ">
<polygon fill="#bfbfbf" stroke="black" points="0,-82.5 0,-112.5 110,-112.5 110,-82.5 0,-82.5"/>
<text text-anchor="start" x="8" y="-100.5" font-family="Helvetica,sans-Serif" font-size="10.00">TMC2130Stepper::drv</text>
<text text-anchor="middle" x="55" y="-89.5" font-family="Helvetica,sans-Serif" font-size="10.00">_enn_cfg6</text>
</a>
</g>
</g>
<!-- Node2 -->
<g id="node2" class="node"><title>Node2</title>
<g id="a_node2"><a xlink:href="../../dd/deb/class_t_m_c2130_stepper.html#adde2041047c82600f5e01f52118f92a0" target="_top" xlink:title=" ">
<polygon fill="white" stroke="black" points="146,-88 146,-107 262,-107 262,-88 146,-88"/>
<text text-anchor="middle" x="204" y="-95" font-family="Helvetica,sans-Serif" font-size="10.00">TMC2130Stepper::IOIN</text>
</a>
</g>
</g>
<!-- Node1&#45;&gt;Node2 -->
<g id="edge1" class="edge"><title>Node1&#45;&gt;Node2</title>
<path fill="none" stroke="midnightblue" d="M110.32,-97.5C118.576,-97.5 127.18,-97.5 135.673,-97.5"/>
<polygon fill="midnightblue" stroke="midnightblue" points="135.947,-101 145.947,-97.5 135.947,-94.0001 135.947,-101"/>
</g>
<!-- Node3 -->
<g id="node3" class="node"><title>Node3</title>
<g id="a_node3"><a xlink:href="../../dd/deb/class_t_m_c2130_stepper.html#a161ca6ebe3736454e17e9236572a6001" target="_top" xlink:title=" ">
<polygon fill="white" stroke="black" points="298,-88 298,-107 414,-107 414,-88 298,-88"/>
<text text-anchor="middle" x="356" y="-95" font-family="Helvetica,sans-Serif" font-size="10.00">TMC2130Stepper::read</text>
</a>
</g>
</g>
<!-- Node2&#45;&gt;Node3 -->
<g id="edge2" class="edge"><title>Node2&#45;&gt;Node3</title>
<path fill="none" stroke="midnightblue" d="M262.136,-97.5C270.377,-97.5 278.923,-97.5 287.344,-97.5"/>
<polygon fill="midnightblue" stroke="midnightblue" points="287.526,-101 297.525,-97.5 287.525,-94.0001 287.526,-101"/>
</g>
<!-- Node4 -->
<g id="node4" class="node"><title>Node4</title>
<g id="a_node4"><a xlink:href="../../dd/deb/class_t_m_c2130_stepper.html#a1fc868601a32fb0cd8fc536dafa8ecea" target="_top" xlink:title=" ">
<polygon fill="white" stroke="black" points="450,-164 450,-183 621,-183 621,-164 450,-164"/>
<text text-anchor="middle" x="535.5" y="-171" font-family="Helvetica,sans-Serif" font-size="10.00">TMC2130Stepper::beginTransaction</text>
</a>
</g>
</g>
<!-- Node3&#45;&gt;Node4 -->
<g id="edge3" class="edge"><title>Node3&#45;&gt;Node4</title>
<path fill="none" stroke="midnightblue" d="M369.522,-107.048C386.741,-119.725 419.117,-141.967 450,-154.5 456.272,-157.045 462.951,-159.283 469.7,-161.242"/>
<polygon fill="midnightblue" stroke="midnightblue" points="469.032,-164.687 479.599,-163.918 470.858,-157.93 469.032,-164.687"/>
</g>
<!-- Node5 -->
<g id="node5" class="node"><title>Node5</title>
<g id="a_node5"><a xlink:href="../../dd/deb/class_t_m_c2130_stepper.html#aeace18dcee808585dd4449e783811600" target="_top" xlink:title=" ">
<polygon fill="white" stroke="black" points="453.5,-126 453.5,-145 617.5,-145 617.5,-126 453.5,-126"/>
<text text-anchor="middle" x="535.5" y="-133" font-family="Helvetica,sans-Serif" font-size="10.00">TMC2130Stepper::endTransaction</text>
</a>
</g>
</g>
<!-- Node3&#45;&gt;Node5 -->
<g id="edge4" class="edge"><title>Node3&#45;&gt;Node5</title>
<path fill="none" stroke="midnightblue" d="M401.791,-107.089C425.53,-112.171 454.884,-118.455 479.944,-123.82"/>
<polygon fill="midnightblue" stroke="midnightblue" points="479.52,-127.309 490.031,-125.98 480.986,-120.464 479.52,-127.309"/>
</g>
<!-- Node6 -->
<g id="node6" class="node"><title>Node6</title>
<g id="a_node6"><a xlink:href="../../dd/deb/class_t_m_c2130_stepper.html#a4a8f3b6ac100045ed5f84fe4d18d9d5a" target="_top" xlink:title=" ">
<polygon fill="white" stroke="black" points="459.5,-88 459.5,-107 611.5,-107 611.5,-88 459.5,-88"/>
<text text-anchor="middle" x="535.5" y="-95" font-family="Helvetica,sans-Serif" font-size="10.00">TMC2130Stepper::switchCSpin</text>
</a>
</g>
</g>
<!-- Node3&#45;&gt;Node6 -->
<g id="edge5" class="edge"><title>Node3&#45;&gt;Node6</title>
<path fill="none" stroke="midnightblue" d="M414.139,-97.5C425.27,-97.5 437.163,-97.5 448.981,-97.5"/>
<polygon fill="midnightblue" stroke="midnightblue" points="449.325,-101 459.325,-97.5 449.324,-94.0001 449.325,-101"/>
</g>
<!-- Node7 -->
<g id="node7" class="node"><title>Node7</title>
<g id="a_node7"><a xlink:href="../../dd/deb/class_t_m_c2130_stepper.html#a0673af4887ec52b23aa658aa290f6623" target="_top" xlink:title=" ">
<polygon fill="white" stroke="black" points="657,-28 657,-47 787,-47 787,-28 657,-28"/>
<text text-anchor="middle" x="722" y="-35" font-family="Helvetica,sans-Serif" font-size="10.00">TMC2130Stepper::transfer</text>
</a>
</g>
</g>
<!-- Node3&#45;&gt;Node7 -->
<g id="edge6" class="edge"><title>Node3&#45;&gt;Node7</title>
<path fill="none" stroke="midnightblue" d="M401.378,-87.9498C416.744,-84.7717 434.099,-81.3252 450,-78.5 516.378,-66.7062 592.291,-55.4085 646.852,-47.6702"/>
<polygon fill="midnightblue" stroke="midnightblue" points="647.372,-51.1316 656.784,-46.2674 646.393,-44.2004 647.372,-51.1316"/>
</g>
<!-- Node9 -->
<g id="node9" class="node"><title>Node9</title>
<g id="a_node9"><a xlink:href="../../dd/deb/class_t_m_c2130_stepper.html#aba94fc7bb8e2c8c12191f44561f19d95" target="_top" xlink:title=" ">
<polygon fill="white" stroke="black" points="470.5,-0.5 470.5,-30.5 600.5,-30.5 600.5,-0.5 470.5,-0.5"/>
<text text-anchor="start" x="478.5" y="-18.5" font-family="Helvetica,sans-Serif" font-size="10.00">TMC2130Stepper::transfer</text>
<text text-anchor="middle" x="535.5" y="-7.5" font-family="Helvetica,sans-Serif" font-size="10.00">EmptyBytes</text>
</a>
</g>
</g>
<!-- Node3&#45;&gt;Node9 -->
<g id="edge8" class="edge"><title>Node3&#45;&gt;Node9</title>
<path fill="none" stroke="midnightblue" d="M372.378,-87.8381C390.488,-76.7136 421.694,-58.3277 450,-45.5 458.84,-41.494 468.386,-37.66 477.769,-34.1517"/>
<polygon fill="midnightblue" stroke="midnightblue" points="479.257,-37.3346 487.453,-30.6201 476.859,-30.7583 479.257,-37.3346"/>
</g>
<!-- Node8 -->
<g id="node8" class="node"><title>Node8</title>
<g id="a_node8"><a xlink:href="../../df/d8b/class_s_w___s_p_i_class.html#af260fdc0af3f1312b106483161e559c3" target="_top" xlink:title=" ">
<polygon fill="white" stroke="black" points="823,-28 823,-47 940,-47 940,-28 823,-28"/>
<text text-anchor="middle" x="881.5" y="-35" font-family="Helvetica,sans-Serif" font-size="10.00">SW_SPIClass::transfer</text>
</a>
</g>
</g>
<!-- Node7&#45;&gt;Node8 -->
<g id="edge7" class="edge"><title>Node7&#45;&gt;Node8</title>
<path fill="none" stroke="midnightblue" d="M787.061,-37.5C795.477,-37.5 804.125,-37.5 812.603,-37.5"/>
<polygon fill="midnightblue" stroke="midnightblue" points="812.831,-41.0001 822.831,-37.5 812.831,-34.0001 812.831,-41.0001"/>
</g>
<!-- Node9&#45;&gt;Node7 -->
<g id="edge9" class="edge"><title>Node9&#45;&gt;Node7</title>
<path fill="none" stroke="midnightblue" d="M600.511,-23.1328C615.452,-24.9144 631.487,-26.8263 646.827,-28.6556"/>
<polygon fill="midnightblue" stroke="midnightblue" points="646.445,-32.1347 656.79,-29.8435 647.274,-25.184 646.445,-32.1347"/>
</g>
</g>
</svg>
