<?xml version="1.0" encoding="UTF-8" standalone="no"?>
<!DOCTYPE svg PUBLIC "-//W3C//DTD SVG 1.1//EN"
 "http://www.w3.org/Graphics/SVG/1.1/DTD/svg11.dtd">
<!-- Generated by graphviz version 2.38.0 (20140413.2041)
 -->
<!-- Title: TMC2130Stepper::hstrt Pages: 1 -->
<svg width="1144pt" height="192pt"
 viewBox="0.00 0.00 1144.00 191.50" xmlns="http://www.w3.org/2000/svg" xmlns:xlink="http://www.w3.org/1999/xlink">
<g id="graph0" class="graph" transform="scale(1 1) rotate(0) translate(4 187.5)">
<title>TMC2130Stepper::hstrt</title>
<polygon fill="white" stroke="none" points="-4,4 -4,-187.5 1140,-187.5 1140,4 -4,4"/>
<!-- Node1 -->
<g id="node1" class="node"><title>Node1</title>
<g id="a_node1"><a xlink:title=" ">
<polygon fill="#bfbfbf" stroke="black" points="0,-88 0,-107 117,-107 117,-88 0,-88"/>
<text text-anchor="middle" x="58.5" y="-95" font-family="Helvetica,sans-Serif" font-size="10.00">TMC2130Stepper::hstrt</text>
</a>
</g>
</g>
<!-- Node2 -->
<g id="node2" class="node"><title>Node2</title>
<g id="a_node2"><a xlink:href="../../dd/deb/class_t_m_c2130_stepper.html#a60ffa69ee70b01e21871a3e1b79d6d18" target="_top" xlink:title=" ">
<polygon fill="white" stroke="black" points="153,-88 153,-107 270,-107 270,-88 153,-88"/>
<text text-anchor="middle" x="211.5" y="-95" font-family="Helvetica,sans-Serif" font-size="10.00">TMC2130Stepper::hstrt</text>
</a>
</g>
</g>
<!-- Node1&#45;&gt;Node2 -->
<g id="edge1" class="edge"><title>Node1&#45;&gt;Node2</title>
<path fill="none" stroke="midnightblue" d="M117.017,-97.5C125.464,-97.5 134.229,-97.5 142.856,-97.5"/>
<polygon fill="midnightblue" stroke="midnightblue" points="142.893,-101 152.893,-97.5 142.892,-94.0001 142.893,-101"/>
</g>
<!-- Node3 -->
<g id="node3" class="node"><title>Node3</title>
<g id="a_node3"><a xlink:href="../../dd/deb/class_t_m_c2130_stepper.html#a67541b27d97ce45f175e9f6e4a2d0bff" target="_top" xlink:title=" ">
<polygon fill="white" stroke="black" points="306,-88 306,-107 458,-107 458,-88 306,-88"/>
<text text-anchor="middle" x="382" y="-95" font-family="Helvetica,sans-Serif" font-size="10.00">TMC2130Stepper::CHOPCONF</text>
</a>
</g>
</g>
<!-- Node2&#45;&gt;Node3 -->
<g id="edge2" class="edge"><title>Node2&#45;&gt;Node3</title>
<path fill="none" stroke="midnightblue" d="M270.017,-97.5C278.308,-97.5 286.985,-97.5 295.677,-97.5"/>
<polygon fill="midnightblue" stroke="midnightblue" points="295.866,-101 305.866,-97.5 295.866,-94.0001 295.866,-101"/>
</g>
<!-- Node4 -->
<g id="node4" class="node"><title>Node4</title>
<g id="a_node4"><a xlink:href="../../dd/deb/class_t_m_c2130_stepper.html#a161ca6ebe3736454e17e9236572a6001" target="_top" xlink:title=" ">
<polygon fill="white" stroke="black" points="494,-88 494,-107 610,-107 610,-88 494,-88"/>
<text text-anchor="middle" x="552" y="-95" font-family="Helvetica,sans-Serif" font-size="10.00">TMC2130Stepper::read</text>
</a>
</g>
</g>
<!-- Node3&#45;&gt;Node4 -->
<g id="edge3" class="edge"><title>Node3&#45;&gt;Node4</title>
<path fill="none" stroke="midnightblue" d="M458.155,-97.5C466.664,-97.5 475.296,-97.5 483.696,-97.5"/>
<polygon fill="midnightblue" stroke="midnightblue" points="483.802,-101 493.802,-97.5 483.802,-94.0001 483.802,-101"/>
</g>
<!-- Node5 -->
<g id="node5" class="node"><title>Node5</title>
<g id="a_node5"><a xlink:href="../../dd/deb/class_t_m_c2130_stepper.html#a1fc868601a32fb0cd8fc536dafa8ecea" target="_top" xlink:title=" ">
<polygon fill="white" stroke="black" points="646,-164 646,-183 817,-183 817,-164 646,-164"/>
<text text-anchor="middle" x="731.5" y="-171" font-family="Helvetica,sans-Serif" font-size="10.00">TMC2130Stepper::beginTransaction</text>
</a>
</g>
</g>
<!-- Node4&#45;&gt;Node5 -->
<g id="edge4" class="edge"><title>Node4&#45;&gt;Node5</title>
<path fill="none" stroke="midnightblue" d="M565.522,-107.048C582.741,-119.725 615.117,-141.967 646,-154.5 652.272,-157.045 658.951,-159.283 665.7,-161.242"/>
<polygon fill="midnightblue" stroke="midnightblue" points="665.032,-164.687 675.599,-163.918 666.858,-157.93 665.032,-164.687"/>
</g>
<!-- Node6 -->
<g id="node6" class="node"><title>Node6</title>
<g id="a_node6"><a xlink:href="../../dd/deb/class_t_m_c2130_stepper.html#aeace18dcee808585dd4449e783811600" target="_top" xlink:title=" ">
<polygon fill="white" stroke="black" points="649.5,-126 649.5,-145 813.5,-145 813.5,-126 649.5,-126"/>
<text text-anchor="middle" x="731.5" y="-133" font-family="Helvetica,sans-Serif" font-size="10.00">TMC2130Stepper::endTransaction</text>
</a>
</g>
</g>
<!-- Node4&#45;&gt;Node6 -->
<g id="edge5" class="edge"><title>Node4&#45;&gt;Node6</title>
<path fill="none" stroke="midnightblue" d="M597.791,-107.089C621.53,-112.171 650.884,-118.455 675.944,-123.82"/>
<polygon fill="midnightblue" stroke="midnightblue" points="675.52,-127.309 686.031,-125.98 676.986,-120.464 675.52,-127.309"/>
</g>
<!-- Node7 -->
<g id="node7" class="node"><title>Node7</title>
<g id="a_node7"><a xlink:href="../../dd/deb/class_t_m_c2130_stepper.html#a4a8f3b6ac100045ed5f84fe4d18d9d5a" target="_top" xlink:title=" ">
<polygon fill="white" stroke="black" points="655.5,-88 655.5,-107 807.5,-107 807.5,-88 655.5,-88"/>
<text text-anchor="middle" x="731.5" y="-95" font-family="Helvetica,sans-Serif" font-size="10.00">TMC2130Stepper::switchCSpin</text>
</a>
</g>
</g>
<!-- Node4&#45;&gt;Node7 -->
<g id="edge6" class="edge"><title>Node4&#45;&gt;Node7</title>
<path fill="none" stroke="midnightblue" d="M610.139,-97.5C621.27,-97.5 633.163,-97.5 644.981,-97.5"/>
<polygon fill="midnightblue" stroke="midnightblue" points="645.325,-101 655.325,-97.5 645.324,-94.0001 645.325,-101"/>
</g>
<!-- Node8 -->
<g id="node8" class="node"><title>Node8</title>
<g id="a_node8"><a xlink:href="../../dd/deb/class_t_m_c2130_stepper.html#a0673af4887ec52b23aa658aa290f6623" target="_top" xlink:title=" ">
<polygon fill="white" stroke="black" points="853,-28 853,-47 983,-47 983,-28 853,-28"/>
<text text-anchor="middle" x="918" y="-35" font-family="Helvetica,sans-Serif" font-size="10.00">TMC2130Stepper::transfer</text>
</a>
</g>
</g>
<!-- Node4&#45;&gt;Node8 -->
<g id="edge7" class="edge"><title>Node4&#45;&gt;Node8</title>
<path fill="none" stroke="midnightblue" d="M597.378,-87.9498C612.744,-84.7717 630.099,-81.3252 646,-78.5 712.378,-66.7062 788.291,-55.4085 842.852,-47.6702"/>
<polygon fill="midnightblue" stroke="midnightblue" points="843.372,-51.1316 852.784,-46.2674 842.393,-44.2004 843.372,-51.1316"/>
</g>
<!-- Node10 -->
<g id="node10" class="node"><title>Node10</title>
<g id="a_node10"><a xlink:href="../../dd/deb/class_t_m_c2130_stepper.html#aba94fc7bb8e2c8c12191f44561f19d95" target="_top" xlink:title=" ">
<polygon fill="white" stroke="black" points="666.5,-0.5 666.5,-30.5 796.5,-30.5 796.5,-0.5 666.5,-0.5"/>
<text text-anchor="start" x="674.5" y="-18.5" font-family="Helvetica,sans-Serif" font-size="10.00">TMC2130Stepper::transfer</text>
<text text-anchor="middle" x="731.5" y="-7.5" font-family="Helvetica,sans-Serif" font-size="10.00">EmptyBytes</text>
</a>
</g>
</g>
<!-- Node4&#45;&gt;Node10 -->
<g id="edge9" class="edge"><title>Node4&#45;&gt;Node10</title>
<path fill="none" stroke="midnightblue" d="M568.378,-87.8381C586.488,-76.7136 617.694,-58.3277 646,-45.5 654.84,-41.494 664.386,-37.66 673.769,-34.1517"/>
<polygon fill="midnightblue" stroke="midnightblue" points="675.257,-37.3346 683.453,-30.6201 672.859,-30.7583 675.257,-37.3346"/>
</g>
<!-- Node9 -->
<g id="node9" class="node"><title>Node9</title>
<g id="a_node9"><a xlink:href="../../df/d8b/class_s_w___s_p_i_class.html#af260fdc0af3f1312b106483161e559c3" target="_top" xlink:title=" ">
<polygon fill="white" stroke="black" points="1019,-28 1019,-47 1136,-47 1136,-28 1019,-28"/>
<text text-anchor="middle" x="1077.5" y="-35" font-family="Helvetica,sans-Serif" font-size="10.00">SW_SPIClass::transfer</text>
</a>
</g>
</g>
<!-- Node8&#45;&gt;Node9 -->
<g id="edge8" class="edge"><title>Node8&#45;&gt;Node9</title>
<path fill="none" stroke="midnightblue" d="M983.061,-37.5C991.477,-37.5 1000.13,-37.5 1008.6,-37.5"/>
<polygon fill="midnightblue" stroke="midnightblue" points="1008.83,-41.0001 1018.83,-37.5 1008.83,-34.0001 1008.83,-41.0001"/>
</g>
<!-- Node10&#45;&gt;Node8 -->
<g id="edge10" class="edge"><title>Node10&#45;&gt;Node8</title>
<path fill="none" stroke="midnightblue" d="M796.511,-23.1328C811.452,-24.9144 827.487,-26.8263 842.827,-28.6556"/>
<polygon fill="midnightblue" stroke="midnightblue" points="842.445,-32.1347 852.79,-29.8435 843.274,-25.184 842.445,-32.1347"/>
</g>
</g>
</svg>
