<?xml version="1.0" encoding="UTF-8" standalone="no"?>
<!DOCTYPE svg PUBLIC "-//W3C//DTD SVG 1.1//EN"
 "http://www.w3.org/Graphics/SVG/1.1/DTD/svg11.dtd">
<!-- Generated by graphviz version 2.38.0 (20140413.2041)
 -->
<!-- Title: TMC2130Stepper::dc_time Pages: 1 -->
<svg width="989pt" height="192pt"
 viewBox="0.00 0.00 989.00 191.50" xmlns="http://www.w3.org/2000/svg" xmlns:xlink="http://www.w3.org/1999/xlink">
<g id="graph0" class="graph" transform="scale(1 1) rotate(0) translate(4 187.5)">
<title>TMC2130Stepper::dc_time</title>
<polygon fill="white" stroke="none" points="-4,4 -4,-187.5 985,-187.5 985,4 -4,4"/>
<!-- Node1 -->
<g id="node1" class="node"><title>Node1</title>
<g id="a_node1"><a xlink:title=" ">
<polygon fill="#bfbfbf" stroke="black" points="0,-88 0,-107 132,-107 132,-88 0,-88"/>
<text text-anchor="middle" x="66" y="-95" font-family="Helvetica,sans-Serif" font-size="10.00">TMC2130Stepper::dc_time</text>
</a>
</g>
</g>
<!-- Node2 -->
<g id="node2" class="node"><title>Node2</title>
<g id="a_node2"><a xlink:href="../../dd/deb/class_t_m_c2130_stepper.html#a1a90b2919efe61dd825552c2fbeca993" target="_top" xlink:title=" ">
<polygon fill="white" stroke="black" points="168,-88 168,-107 303,-107 303,-88 168,-88"/>
<text text-anchor="middle" x="235.5" y="-95" font-family="Helvetica,sans-Serif" font-size="10.00">TMC2130Stepper::DCCTRL</text>
</a>
</g>
</g>
<!-- Node1&#45;&gt;Node2 -->
<g id="edge1" class="edge"><title>Node1&#45;&gt;Node2</title>
<path fill="none" stroke="midnightblue" d="M132.239,-97.5C140.533,-97.5 149.082,-97.5 157.538,-97.5"/>
<polygon fill="midnightblue" stroke="midnightblue" points="157.783,-101 167.783,-97.5 157.783,-94.0001 157.783,-101"/>
</g>
<!-- Node3 -->
<g id="node3" class="node"><title>Node3</title>
<g id="a_node3"><a xlink:href="../../dd/deb/class_t_m_c2130_stepper.html#a161ca6ebe3736454e17e9236572a6001" target="_top" xlink:title=" ">
<polygon fill="white" stroke="black" points="339,-88 339,-107 455,-107 455,-88 339,-88"/>
<text text-anchor="middle" x="397" y="-95" font-family="Helvetica,sans-Serif" font-size="10.00">TMC2130Stepper::read</text>
</a>
</g>
</g>
<!-- Node2&#45;&gt;Node3 -->
<g id="edge2" class="edge"><title>Node2&#45;&gt;Node3</title>
<path fill="none" stroke="midnightblue" d="M303.218,-97.5C311.593,-97.5 320.166,-97.5 328.552,-97.5"/>
<polygon fill="midnightblue" stroke="midnightblue" points="328.663,-101 338.663,-97.5 328.663,-94.0001 328.663,-101"/>
</g>
<!-- Node4 -->
<g id="node4" class="node"><title>Node4</title>
<g id="a_node4"><a xlink:href="../../dd/deb/class_t_m_c2130_stepper.html#a1fc868601a32fb0cd8fc536dafa8ecea" target="_top" xlink:title=" ">
<polygon fill="white" stroke="black" points="491,-164 491,-183 662,-183 662,-164 491,-164"/>
<text text-anchor="middle" x="576.5" y="-171" font-family="Helvetica,sans-Serif" font-size="10.00">TMC2130Stepper::beginTransaction</text>
</a>
</g>
</g>
<!-- Node3&#45;&gt;Node4 -->
<g id="edge3" class="edge"><title>Node3&#45;&gt;Node4</title>
<path fill="none" stroke="midnightblue" d="M410.522,-107.048C427.741,-119.725 460.117,-141.967 491,-154.5 497.272,-157.045 503.951,-159.283 510.7,-161.242"/>
<polygon fill="midnightblue" stroke="midnightblue" points="510.032,-164.687 520.599,-163.918 511.858,-157.93 510.032,-164.687"/>
</g>
<!-- Node5 -->
<g id="node5" class="node"><title>Node5</title>
<g id="a_node5"><a xlink:href="../../dd/deb/class_t_m_c2130_stepper.html#aeace18dcee808585dd4449e783811600" target="_top" xlink:title=" ">
<polygon fill="white" stroke="black" points="494.5,-126 494.5,-145 658.5,-145 658.5,-126 494.5,-126"/>
<text text-anchor="middle" x="576.5" y="-133" font-family="Helvetica,sans-Serif" font-size="10.00">TMC2130Stepper::endTransaction</text>
</a>
</g>
</g>
<!-- Node3&#45;&gt;Node5 -->
<g id="edge4" class="edge"><title>Node3&#45;&gt;Node5</title>
<path fill="none" stroke="midnightblue" d="M442.791,-107.089C466.53,-112.171 495.884,-118.455 520.944,-123.82"/>
<polygon fill="midnightblue" stroke="midnightblue" points="520.52,-127.309 531.031,-125.98 521.986,-120.464 520.52,-127.309"/>
</g>
<!-- Node6 -->
<g id="node6" class="node"><title>Node6</title>
<g id="a_node6"><a xlink:href="../../dd/deb/class_t_m_c2130_stepper.html#a4a8f3b6ac100045ed5f84fe4d18d9d5a" target="_top" xlink:title=" ">
<polygon fill="white" stroke="black" points="500.5,-88 500.5,-107 652.5,-107 652.5,-88 500.5,-88"/>
<text text-anchor="middle" x="576.5" y="-95" font-family="Helvetica,sans-Serif" font-size="10.00">TMC2130Stepper::switchCSpin</text>
</a>
</g>
</g>
<!-- Node3&#45;&gt;Node6 -->
<g id="edge5" class="edge"><title>Node3&#45;&gt;Node6</title>
<path fill="none" stroke="midnightblue" d="M455.139,-97.5C466.27,-97.5 478.163,-97.5 489.981,-97.5"/>
<polygon fill="midnightblue" stroke="midnightblue" points="490.325,-101 500.325,-97.5 490.324,-94.0001 490.325,-101"/>
</g>
<!-- Node7 -->
<g id="node7" class="node"><title>Node7</title>
<g id="a_node7"><a xlink:href="../../dd/deb/class_t_m_c2130_stepper.html#a0673af4887ec52b23aa658aa290f6623" target="_top" xlink:title=" ">
<polygon fill="white" stroke="black" points="698,-28 698,-47 828,-47 828,-28 698,-28"/>
<text text-anchor="middle" x="763" y="-35" font-family="Helvetica,sans-Serif" font-size="10.00">TMC2130Stepper::transfer</text>
</a>
</g>
</g>
<!-- Node3&#45;&gt;Node7 -->
<g id="edge6" class="edge"><title>Node3&#45;&gt;Node7</title>
<path fill="none" stroke="midnightblue" d="M442.378,-87.9498C457.744,-84.7717 475.099,-81.3252 491,-78.5 557.378,-66.7062 633.291,-55.4085 687.852,-47.6702"/>
<polygon fill="midnightblue" stroke="midnightblue" points="688.372,-51.1316 697.784,-46.2674 687.393,-44.2004 688.372,-51.1316"/>
</g>
<!-- Node9 -->
<g id="node9" class="node"><title>Node9</title>
<g id="a_node9"><a xlink:href="../../dd/deb/class_t_m_c2130_stepper.html#aba94fc7bb8e2c8c12191f44561f19d95" target="_top" xlink:title=" ">
<polygon fill="white" stroke="black" points="511.5,-0.5 511.5,-30.5 641.5,-30.5 641.5,-0.5 511.5,-0.5"/>
<text text-anchor="start" x="519.5" y="-18.5" font-family="Helvetica,sans-Serif" font-size="10.00">TMC2130Stepper::transfer</text>
<text text-anchor="middle" x="576.5" y="-7.5" font-family="Helvetica,sans-Serif" font-size="10.00">EmptyBytes</text>
</a>
</g>
</g>
<!-- Node3&#45;&gt;Node9 -->
<g id="edge8" class="edge"><title>Node3&#45;&gt;Node9</title>
<path fill="none" stroke="midnightblue" d="M413.378,-87.8381C431.488,-76.7136 462.694,-58.3277 491,-45.5 499.84,-41.494 509.386,-37.66 518.769,-34.1517"/>
<polygon fill="midnightblue" stroke="midnightblue" points="520.257,-37.3346 528.453,-30.6201 517.859,-30.7583 520.257,-37.3346"/>
</g>
<!-- Node8 -->
<g id="node8" class="node"><title>Node8</title>
<g id="a_node8"><a xlink:href="../../df/d8b/class_s_w___s_p_i_class.html#af260fdc0af3f1312b106483161e559c3" target="_top" xlink:title=" ">
<polygon fill="white" stroke="black" points="864,-28 864,-47 981,-47 981,-28 864,-28"/>
<text text-anchor="middle" x="922.5" y="-35" font-family="Helvetica,sans-Serif" font-size="10.00">SW_SPIClass::transfer</text>
</a>
</g>
</g>
<!-- Node7&#45;&gt;Node8 -->
<g id="edge7" class="edge"><title>Node7&#45;&gt;Node8</title>
<path fill="none" stroke="midnightblue" d="M828.061,-37.5C836.477,-37.5 845.125,-37.5 853.603,-37.5"/>
<polygon fill="midnightblue" stroke="midnightblue" points="853.831,-41.0001 863.831,-37.5 853.831,-34.0001 853.831,-41.0001"/>
</g>
<!-- Node9&#45;&gt;Node7 -->
<g id="edge9" class="edge"><title>Node9&#45;&gt;Node7</title>
<path fill="none" stroke="midnightblue" d="M641.511,-23.1328C656.452,-24.9144 672.487,-26.8263 687.827,-28.6556"/>
<polygon fill="midnightblue" stroke="midnightblue" points="687.445,-32.1347 697.79,-29.8435 688.274,-25.184 687.445,-32.1347"/>
</g>
</g>
</svg>
