<?xml version="1.0" encoding="UTF-8" standalone="no"?>
<!DOCTYPE svg PUBLIC "-//W3C//DTD SVG 1.1//EN"
 "http://www.w3.org/Graphics/SVG/1.1/DTD/svg11.dtd">
<!-- Generated by graphviz version 2.38.0 (20140413.2041)
 -->
<!-- Title: TMC2130Stepper::maxspeed Pages: 1 -->
<svg width="831pt" height="192pt"
 viewBox="0.00 0.00 831.00 191.50" xmlns="http://www.w3.org/2000/svg" xmlns:xlink="http://www.w3.org/1999/xlink">
<g id="graph0" class="graph" transform="scale(1 1) rotate(0) translate(4 187.5)">
<title>TMC2130Stepper::maxspeed</title>
<polygon fill="white" stroke="none" points="-4,4 -4,-187.5 827,-187.5 827,4 -4,4"/>
<!-- Node1 -->
<g id="node1" class="node"><title>Node1</title>
<g id="a_node1"><a xlink:title=" ">
<polygon fill="#bfbfbf" stroke="black" points="0,-88 0,-107 143,-107 143,-88 0,-88"/>
<text text-anchor="middle" x="71.5" y="-95" font-family="Helvetica,sans-Serif" font-size="10.00">TMC2130Stepper::maxspeed</text>
</a>
</g>
</g>
<!-- Node2 -->
<g id="node2" class="node"><title>Node2</title>
<g id="a_node2"><a xlink:href="../../dd/deb/class_t_m_c2130_stepper.html#a6b02e33ab452a7869426ede7ba370445" target="_top" xlink:title=" ">
<polygon fill="white" stroke="black" points="179,-88 179,-107 297,-107 297,-88 179,-88"/>
<text text-anchor="middle" x="238" y="-95" font-family="Helvetica,sans-Serif" font-size="10.00">TMC2130Stepper::write</text>
</a>
</g>
</g>
<!-- Node1&#45;&gt;Node2 -->
<g id="edge1" class="edge"><title>Node1&#45;&gt;Node2</title>
<path fill="none" stroke="midnightblue" d="M143.217,-97.5C151.699,-97.5 160.347,-97.5 168.792,-97.5"/>
<polygon fill="midnightblue" stroke="midnightblue" points="168.967,-101 178.967,-97.5 168.967,-94.0001 168.967,-101"/>
</g>
<!-- Node3 -->
<g id="node3" class="node"><title>Node3</title>
<g id="a_node3"><a xlink:href="../../dd/deb/class_t_m_c2130_stepper.html#a1fc868601a32fb0cd8fc536dafa8ecea" target="_top" xlink:title=" ">
<polygon fill="white" stroke="black" points="333,-164 333,-183 504,-183 504,-164 333,-164"/>
<text text-anchor="middle" x="418.5" y="-171" font-family="Helvetica,sans-Serif" font-size="10.00">TMC2130Stepper::beginTransaction</text>
</a>
</g>
</g>
<!-- Node2&#45;&gt;Node3 -->
<g id="edge2" class="edge"><title>Node2&#45;&gt;Node3</title>
<path fill="none" stroke="midnightblue" d="M251.674,-107.041C269.099,-119.71 301.845,-141.943 333,-154.5 339.372,-157.068 346.16,-159.325 353.015,-161.299"/>
<polygon fill="midnightblue" stroke="midnightblue" points="352.497,-164.784 363.062,-163.994 354.31,-158.023 352.497,-164.784"/>
</g>
<!-- Node4 -->
<g id="node4" class="node"><title>Node4</title>
<g id="a_node4"><a xlink:href="../../dd/deb/class_t_m_c2130_stepper.html#aeace18dcee808585dd4449e783811600" target="_top" xlink:title=" ">
<polygon fill="white" stroke="black" points="336.5,-126 336.5,-145 500.5,-145 500.5,-126 336.5,-126"/>
<text text-anchor="middle" x="418.5" y="-133" font-family="Helvetica,sans-Serif" font-size="10.00">TMC2130Stepper::endTransaction</text>
</a>
</g>
</g>
<!-- Node2&#45;&gt;Node4 -->
<g id="edge3" class="edge"><title>Node2&#45;&gt;Node4</title>
<path fill="none" stroke="midnightblue" d="M284.043,-107.089C308.023,-112.194 337.698,-118.511 362.972,-123.892"/>
<polygon fill="midnightblue" stroke="midnightblue" points="362.271,-127.321 372.781,-125.98 363.729,-120.474 362.271,-127.321"/>
</g>
<!-- Node5 -->
<g id="node5" class="node"><title>Node5</title>
<g id="a_node5"><a xlink:href="../../dd/deb/class_t_m_c2130_stepper.html#a4a8f3b6ac100045ed5f84fe4d18d9d5a" target="_top" xlink:title=" ">
<polygon fill="white" stroke="black" points="342.5,-88 342.5,-107 494.5,-107 494.5,-88 342.5,-88"/>
<text text-anchor="middle" x="418.5" y="-95" font-family="Helvetica,sans-Serif" font-size="10.00">TMC2130Stepper::switchCSpin</text>
</a>
</g>
</g>
<!-- Node2&#45;&gt;Node5 -->
<g id="edge4" class="edge"><title>Node2&#45;&gt;Node5</title>
<path fill="none" stroke="midnightblue" d="M297.448,-97.5C308.536,-97.5 320.347,-97.5 332.07,-97.5"/>
<polygon fill="midnightblue" stroke="midnightblue" points="332.329,-101 342.329,-97.5 332.329,-94.0001 332.329,-101"/>
</g>
<!-- Node6 -->
<g id="node6" class="node"><title>Node6</title>
<g id="a_node6"><a xlink:href="../../dd/deb/class_t_m_c2130_stepper.html#a0673af4887ec52b23aa658aa290f6623" target="_top" xlink:title=" ">
<polygon fill="white" stroke="black" points="540,-28 540,-47 670,-47 670,-28 540,-28"/>
<text text-anchor="middle" x="605" y="-35" font-family="Helvetica,sans-Serif" font-size="10.00">TMC2130Stepper::transfer</text>
</a>
</g>
</g>
<!-- Node2&#45;&gt;Node6 -->
<g id="edge5" class="edge"><title>Node2&#45;&gt;Node6</title>
<path fill="none" stroke="midnightblue" d="M283.859,-87.964C299.391,-84.787 316.932,-81.3376 333,-78.5 399.39,-66.7755 475.302,-55.4704 529.859,-47.7117"/>
<polygon fill="midnightblue" stroke="midnightblue" points="530.381,-51.1729 539.791,-46.3049 529.399,-44.2421 530.381,-51.1729"/>
</g>
<!-- Node8 -->
<g id="node8" class="node"><title>Node8</title>
<g id="a_node8"><a xlink:href="../../dd/deb/class_t_m_c2130_stepper.html#aba94fc7bb8e2c8c12191f44561f19d95" target="_top" xlink:title=" ">
<polygon fill="white" stroke="black" points="353.5,-0.5 353.5,-30.5 483.5,-30.5 483.5,-0.5 353.5,-0.5"/>
<text text-anchor="start" x="361.5" y="-18.5" font-family="Helvetica,sans-Serif" font-size="10.00">TMC2130Stepper::transfer</text>
<text text-anchor="middle" x="418.5" y="-7.5" font-family="Helvetica,sans-Serif" font-size="10.00">EmptyBytes</text>
</a>
</g>
</g>
<!-- Node2&#45;&gt;Node8 -->
<g id="edge7" class="edge"><title>Node2&#45;&gt;Node8</title>
<path fill="none" stroke="midnightblue" d="M254.559,-87.8524C272.877,-76.7413 304.432,-58.368 333,-45.5 342.049,-41.4242 351.831,-37.5179 361.42,-33.9495"/>
<polygon fill="midnightblue" stroke="midnightblue" points="362.707,-37.2056 370.91,-30.5 360.316,-30.6267 362.707,-37.2056"/>
</g>
<!-- Node7 -->
<g id="node7" class="node"><title>Node7</title>
<g id="a_node7"><a xlink:href="../../df/d8b/class_s_w___s_p_i_class.html#af260fdc0af3f1312b106483161e559c3" target="_top" xlink:title=" ">
<polygon fill="white" stroke="black" points="706,-28 706,-47 823,-47 823,-28 706,-28"/>
<text text-anchor="middle" x="764.5" y="-35" font-family="Helvetica,sans-Serif" font-size="10.00">SW_SPIClass::transfer</text>
</a>
</g>
</g>
<!-- Node6&#45;&gt;Node7 -->
<g id="edge6" class="edge"><title>Node6&#45;&gt;Node7</title>
<path fill="none" stroke="midnightblue" d="M670.061,-37.5C678.477,-37.5 687.125,-37.5 695.603,-37.5"/>
<polygon fill="midnightblue" stroke="midnightblue" points="695.831,-41.0001 705.831,-37.5 695.831,-34.0001 695.831,-41.0001"/>
</g>
<!-- Node8&#45;&gt;Node6 -->
<g id="edge8" class="edge"><title>Node8&#45;&gt;Node6</title>
<path fill="none" stroke="midnightblue" d="M483.511,-23.1328C498.452,-24.9144 514.487,-26.8263 529.827,-28.6556"/>
<polygon fill="midnightblue" stroke="midnightblue" points="529.445,-32.1347 539.79,-29.8435 530.274,-25.184 529.445,-32.1347"/>
</g>
</g>
</svg>
