<?xml version="1.0" encoding="UTF-8" standalone="no"?>
<!DOCTYPE svg PUBLIC "-//W3C//DTD SVG 1.1//EN"
 "http://www.w3.org/Graphics/SVG/1.1/DTD/svg11.dtd">
<!-- Generated by graphviz version 2.38.0 (20140413.2041)
 -->
<!-- Title: TMC2130Stepper::diss2g Pages: 1 -->
<svg width="1000pt" height="192pt"
 viewBox="0.00 0.00 1000.00 191.50" xmlns="http://www.w3.org/2000/svg" xmlns:xlink="http://www.w3.org/1999/xlink">
<g id="graph0" class="graph" transform="scale(1 1) rotate(0) translate(4 187.5)">
<title>TMC2130Stepper::diss2g</title>
<polygon fill="white" stroke="none" points="-4,4 -4,-187.5 996,-187.5 996,4 -4,4"/>
<!-- Node1 -->
<g id="node1" class="node"><title>Node1</title>
<g id="a_node1"><a xlink:title=" ">
<polygon fill="#bfbfbf" stroke="black" points="0,-88 0,-107 126,-107 126,-88 0,-88"/>
<text text-anchor="middle" x="63" y="-95" font-family="Helvetica,sans-Serif" font-size="10.00">TMC2130Stepper::diss2g</text>
</a>
</g>
</g>
<!-- Node2 -->
<g id="node2" class="node"><title>Node2</title>
<g id="a_node2"><a xlink:href="../../dd/deb/class_t_m_c2130_stepper.html#a67541b27d97ce45f175e9f6e4a2d0bff" target="_top" xlink:title=" ">
<polygon fill="white" stroke="black" points="162,-88 162,-107 314,-107 314,-88 162,-88"/>
<text text-anchor="middle" x="238" y="-95" font-family="Helvetica,sans-Serif" font-size="10.00">TMC2130Stepper::CHOPCONF</text>
</a>
</g>
</g>
<!-- Node1&#45;&gt;Node2 -->
<g id="edge1" class="edge"><title>Node1&#45;&gt;Node2</title>
<path fill="none" stroke="midnightblue" d="M126.457,-97.5C134.735,-97.5 143.332,-97.5 151.911,-97.5"/>
<polygon fill="midnightblue" stroke="midnightblue" points="151.953,-101 161.953,-97.5 151.953,-94.0001 151.953,-101"/>
</g>
<!-- Node3 -->
<g id="node3" class="node"><title>Node3</title>
<g id="a_node3"><a xlink:href="../../dd/deb/class_t_m_c2130_stepper.html#a161ca6ebe3736454e17e9236572a6001" target="_top" xlink:title=" ">
<polygon fill="white" stroke="black" points="350,-88 350,-107 466,-107 466,-88 350,-88"/>
<text text-anchor="middle" x="408" y="-95" font-family="Helvetica,sans-Serif" font-size="10.00">TMC2130Stepper::read</text>
</a>
</g>
</g>
<!-- Node2&#45;&gt;Node3 -->
<g id="edge2" class="edge"><title>Node2&#45;&gt;Node3</title>
<path fill="none" stroke="midnightblue" d="M314.155,-97.5C322.664,-97.5 331.296,-97.5 339.696,-97.5"/>
<polygon fill="midnightblue" stroke="midnightblue" points="339.802,-101 349.802,-97.5 339.802,-94.0001 339.802,-101"/>
</g>
<!-- Node4 -->
<g id="node4" class="node"><title>Node4</title>
<g id="a_node4"><a xlink:href="../../dd/deb/class_t_m_c2130_stepper.html#a1fc868601a32fb0cd8fc536dafa8ecea" target="_top" xlink:title=" ">
<polygon fill="white" stroke="black" points="502,-164 502,-183 673,-183 673,-164 502,-164"/>
<text text-anchor="middle" x="587.5" y="-171" font-family="Helvetica,sans-Serif" font-size="10.00">TMC2130Stepper::beginTransaction</text>
</a>
</g>
</g>
<!-- Node3&#45;&gt;Node4 -->
<g id="edge3" class="edge"><title>Node3&#45;&gt;Node4</title>
<path fill="none" stroke="midnightblue" d="M421.522,-107.048C438.741,-119.725 471.117,-141.967 502,-154.5 508.272,-157.045 514.951,-159.283 521.7,-161.242"/>
<polygon fill="midnightblue" stroke="midnightblue" points="521.032,-164.687 531.599,-163.918 522.858,-157.93 521.032,-164.687"/>
</g>
<!-- Node5 -->
<g id="node5" class="node"><title>Node5</title>
<g id="a_node5"><a xlink:href="../../dd/deb/class_t_m_c2130_stepper.html#aeace18dcee808585dd4449e783811600" target="_top" xlink:title=" ">
<polygon fill="white" stroke="black" points="505.5,-126 505.5,-145 669.5,-145 669.5,-126 505.5,-126"/>
<text text-anchor="middle" x="587.5" y="-133" font-family="Helvetica,sans-Serif" font-size="10.00">TMC2130Stepper::endTransaction</text>
</a>
</g>
</g>
<!-- Node3&#45;&gt;Node5 -->
<g id="edge4" class="edge"><title>Node3&#45;&gt;Node5</title>
<path fill="none" stroke="midnightblue" d="M453.791,-107.089C477.53,-112.171 506.884,-118.455 531.944,-123.82"/>
<polygon fill="midnightblue" stroke="midnightblue" points="531.52,-127.309 542.031,-125.98 532.986,-120.464 531.52,-127.309"/>
</g>
<!-- Node6 -->
<g id="node6" class="node"><title>Node6</title>
<g id="a_node6"><a xlink:href="../../dd/deb/class_t_m_c2130_stepper.html#a4a8f3b6ac100045ed5f84fe4d18d9d5a" target="_top" xlink:title=" ">
<polygon fill="white" stroke="black" points="511.5,-88 511.5,-107 663.5,-107 663.5,-88 511.5,-88"/>
<text text-anchor="middle" x="587.5" y="-95" font-family="Helvetica,sans-Serif" font-size="10.00">TMC2130Stepper::switchCSpin</text>
</a>
</g>
</g>
<!-- Node3&#45;&gt;Node6 -->
<g id="edge5" class="edge"><title>Node3&#45;&gt;Node6</title>
<path fill="none" stroke="midnightblue" d="M466.139,-97.5C477.27,-97.5 489.163,-97.5 500.981,-97.5"/>
<polygon fill="midnightblue" stroke="midnightblue" points="501.325,-101 511.325,-97.5 501.324,-94.0001 501.325,-101"/>
</g>
<!-- Node7 -->
<g id="node7" class="node"><title>Node7</title>
<g id="a_node7"><a xlink:href="../../dd/deb/class_t_m_c2130_stepper.html#a0673af4887ec52b23aa658aa290f6623" target="_top" xlink:title=" ">
<polygon fill="white" stroke="black" points="709,-28 709,-47 839,-47 839,-28 709,-28"/>
<text text-anchor="middle" x="774" y="-35" font-family="Helvetica,sans-Serif" font-size="10.00">TMC2130Stepper::transfer</text>
</a>
</g>
</g>
<!-- Node3&#45;&gt;Node7 -->
<g id="edge6" class="edge"><title>Node3&#45;&gt;Node7</title>
<path fill="none" stroke="midnightblue" d="M453.378,-87.9498C468.744,-84.7717 486.099,-81.3252 502,-78.5 568.378,-66.7062 644.291,-55.4085 698.852,-47.6702"/>
<polygon fill="midnightblue" stroke="midnightblue" points="699.372,-51.1316 708.784,-46.2674 698.393,-44.2004 699.372,-51.1316"/>
</g>
<!-- Node9 -->
<g id="node9" class="node"><title>Node9</title>
<g id="a_node9"><a xlink:href="../../dd/deb/class_t_m_c2130_stepper.html#aba94fc7bb8e2c8c12191f44561f19d95" target="_top" xlink:title=" ">
<polygon fill="white" stroke="black" points="522.5,-0.5 522.5,-30.5 652.5,-30.5 652.5,-0.5 522.5,-0.5"/>
<text text-anchor="start" x="530.5" y="-18.5" font-family="Helvetica,sans-Serif" font-size="10.00">TMC2130Stepper::transfer</text>
<text text-anchor="middle" x="587.5" y="-7.5" font-family="Helvetica,sans-Serif" font-size="10.00">EmptyBytes</text>
</a>
</g>
</g>
<!-- Node3&#45;&gt;Node9 -->
<g id="edge8" class="edge"><title>Node3&#45;&gt;Node9</title>
<path fill="none" stroke="midnightblue" d="M424.378,-87.8381C442.488,-76.7136 473.694,-58.3277 502,-45.5 510.84,-41.494 520.386,-37.66 529.769,-34.1517"/>
<polygon fill="midnightblue" stroke="midnightblue" points="531.257,-37.3346 539.453,-30.6201 528.859,-30.7583 531.257,-37.3346"/>
</g>
<!-- Node8 -->
<g id="node8" class="node"><title>Node8</title>
<g id="a_node8"><a xlink:href="../../df/d8b/class_s_w___s_p_i_class.html#af260fdc0af3f1312b106483161e559c3" target="_top" xlink:title=" ">
<polygon fill="white" stroke="black" points="875,-28 875,-47 992,-47 992,-28 875,-28"/>
<text text-anchor="middle" x="933.5" y="-35" font-family="Helvetica,sans-Serif" font-size="10.00">SW_SPIClass::transfer</text>
</a>
</g>
</g>
<!-- Node7&#45;&gt;Node8 -->
<g id="edge7" class="edge"><title>Node7&#45;&gt;Node8</title>
<path fill="none" stroke="midnightblue" d="M839.061,-37.5C847.477,-37.5 856.125,-37.5 864.603,-37.5"/>
<polygon fill="midnightblue" stroke="midnightblue" points="864.831,-41.0001 874.831,-37.5 864.831,-34.0001 864.831,-41.0001"/>
</g>
<!-- Node9&#45;&gt;Node7 -->
<g id="edge9" class="edge"><title>Node9&#45;&gt;Node7</title>
<path fill="none" stroke="midnightblue" d="M652.511,-23.1328C667.452,-24.9144 683.487,-26.8263 698.827,-28.6556"/>
<polygon fill="midnightblue" stroke="midnightblue" points="698.445,-32.1347 708.79,-29.8435 699.274,-25.184 698.445,-32.1347"/>
</g>
</g>
</svg>
