<?xml version="1.0" encoding="UTF-8" standalone="no"?>
<!DOCTYPE svg PUBLIC "-//W3C//DTD SVG 1.1//EN"
 "http://www.w3.org/Graphics/SVG/1.1/DTD/svg11.dtd">
<!-- Generated by graphviz version 2.38.0 (20140413.2041)
 -->
<!-- Title: TMC2130Stepper::isEnabled Pages: 1 -->
<svg width="1160pt" height="192pt"
 viewBox="0.00 0.00 1160.00 191.50" xmlns="http://www.w3.org/2000/svg" xmlns:xlink="http://www.w3.org/1999/xlink">
<g id="graph0" class="graph" transform="scale(1 1) rotate(0) translate(4 187.5)">
<title>TMC2130Stepper::isEnabled</title>
<polygon fill="white" stroke="none" points="-4,4 -4,-187.5 1156,-187.5 1156,4 -4,4"/>
<!-- Node1 -->
<g id="node1" class="node"><title>Node1</title>
<g id="a_node1"><a xlink:title=" ">
<polygon fill="#bfbfbf" stroke="black" points="0,-88 0,-107 140,-107 140,-88 0,-88"/>
<text text-anchor="middle" x="70" y="-95" font-family="Helvetica,sans-Serif" font-size="10.00">TMC2130Stepper::isEnabled</text>
</a>
</g>
</g>
<!-- Node2 -->
<g id="node2" class="node"><title>Node2</title>
<g id="a_node2"><a xlink:href="../../dd/deb/class_t_m_c2130_stepper.html#a838f3e6896ee64d6c8e203e9d5883667" target="_top" xlink:title=" ">
<polygon fill="white" stroke="black" points="176,-104.5 176,-134.5 286,-134.5 286,-104.5 176,-104.5"/>
<text text-anchor="start" x="184" y="-122.5" font-family="Helvetica,sans-Serif" font-size="10.00">TMC2130Stepper::drv</text>
<text text-anchor="middle" x="231" y="-111.5" font-family="Helvetica,sans-Serif" font-size="10.00">_enn_cfg6</text>
</a>
</g>
</g>
<!-- Node1&#45;&gt;Node2 -->
<g id="edge1" class="edge"><title>Node1&#45;&gt;Node2</title>
<path fill="none" stroke="midnightblue" d="M139.815,-107.022C148.502,-108.223 157.362,-109.449 165.97,-110.64"/>
<polygon fill="midnightblue" stroke="midnightblue" points="165.549,-114.115 175.934,-112.019 166.508,-107.182 165.549,-114.115"/>
</g>
<!-- Node11 -->
<g id="node11" class="node"><title>Node11</title>
<g id="a_node11"><a xlink:href="../../dd/deb/class_t_m_c2130_stepper.html#ac34bf4add4f669e935f2a91e1b42817c" target="_top" xlink:title=" ">
<polygon fill="white" stroke="black" points="176,-66 176,-85 286,-85 286,-66 176,-66"/>
<text text-anchor="middle" x="231" y="-73" font-family="Helvetica,sans-Serif" font-size="10.00">TMC2130Stepper::toff</text>
</a>
</g>
</g>
<!-- Node1&#45;&gt;Node11 -->
<g id="edge11" class="edge"><title>Node1&#45;&gt;Node11</title>
<path fill="none" stroke="midnightblue" d="M139.815,-87.9784C148.502,-86.7765 157.362,-85.5506 165.97,-84.3595"/>
<polygon fill="midnightblue" stroke="midnightblue" points="166.508,-87.8185 175.934,-82.9808 165.549,-80.8845 166.508,-87.8185"/>
</g>
<!-- Node3 -->
<g id="node3" class="node"><title>Node3</title>
<g id="a_node3"><a xlink:href="../../dd/deb/class_t_m_c2130_stepper.html#adde2041047c82600f5e01f52118f92a0" target="_top" xlink:title=" ">
<polygon fill="white" stroke="black" points="340,-108 340,-127 456,-127 456,-108 340,-108"/>
<text text-anchor="middle" x="398" y="-115" font-family="Helvetica,sans-Serif" font-size="10.00">TMC2130Stepper::IOIN</text>
</a>
</g>
</g>
<!-- Node2&#45;&gt;Node3 -->
<g id="edge2" class="edge"><title>Node2&#45;&gt;Node3</title>
<path fill="none" stroke="midnightblue" d="M286.027,-118.845C299.867,-118.677 314.926,-118.495 329.358,-118.32"/>
<polygon fill="midnightblue" stroke="midnightblue" points="329.772,-121.815 339.729,-118.194 329.687,-114.816 329.772,-121.815"/>
</g>
<!-- Node4 -->
<g id="node4" class="node"><title>Node4</title>
<g id="a_node4"><a xlink:href="../../dd/deb/class_t_m_c2130_stepper.html#a161ca6ebe3736454e17e9236572a6001" target="_top" xlink:title=" ">
<polygon fill="white" stroke="black" points="510,-88 510,-107 626,-107 626,-88 510,-88"/>
<text text-anchor="middle" x="568" y="-95" font-family="Helvetica,sans-Serif" font-size="10.00">TMC2130Stepper::read</text>
</a>
</g>
</g>
<!-- Node3&#45;&gt;Node4 -->
<g id="edge3" class="edge"><title>Node3&#45;&gt;Node4</title>
<path fill="none" stroke="midnightblue" d="M456.346,-110.673C470.267,-109.016 485.278,-107.229 499.616,-105.522"/>
<polygon fill="midnightblue" stroke="midnightblue" points="500.396,-108.954 509.912,-104.296 499.569,-102.003 500.396,-108.954"/>
</g>
<!-- Node5 -->
<g id="node5" class="node"><title>Node5</title>
<g id="a_node5"><a xlink:href="../../dd/deb/class_t_m_c2130_stepper.html#a1fc868601a32fb0cd8fc536dafa8ecea" target="_top" xlink:title=" ">
<polygon fill="white" stroke="black" points="662,-164 662,-183 833,-183 833,-164 662,-164"/>
<text text-anchor="middle" x="747.5" y="-171" font-family="Helvetica,sans-Serif" font-size="10.00">TMC2130Stepper::beginTransaction</text>
</a>
</g>
</g>
<!-- Node4&#45;&gt;Node5 -->
<g id="edge4" class="edge"><title>Node4&#45;&gt;Node5</title>
<path fill="none" stroke="midnightblue" d="M581.522,-107.048C598.741,-119.725 631.117,-141.967 662,-154.5 668.272,-157.045 674.951,-159.283 681.7,-161.242"/>
<polygon fill="midnightblue" stroke="midnightblue" points="681.032,-164.687 691.599,-163.918 682.858,-157.93 681.032,-164.687"/>
</g>
<!-- Node6 -->
<g id="node6" class="node"><title>Node6</title>
<g id="a_node6"><a xlink:href="../../dd/deb/class_t_m_c2130_stepper.html#aeace18dcee808585dd4449e783811600" target="_top" xlink:title=" ">
<polygon fill="white" stroke="black" points="665.5,-126 665.5,-145 829.5,-145 829.5,-126 665.5,-126"/>
<text text-anchor="middle" x="747.5" y="-133" font-family="Helvetica,sans-Serif" font-size="10.00">TMC2130Stepper::endTransaction</text>
</a>
</g>
</g>
<!-- Node4&#45;&gt;Node6 -->
<g id="edge5" class="edge"><title>Node4&#45;&gt;Node6</title>
<path fill="none" stroke="midnightblue" d="M613.791,-107.089C637.53,-112.171 666.884,-118.455 691.944,-123.82"/>
<polygon fill="midnightblue" stroke="midnightblue" points="691.52,-127.309 702.031,-125.98 692.986,-120.464 691.52,-127.309"/>
</g>
<!-- Node7 -->
<g id="node7" class="node"><title>Node7</title>
<g id="a_node7"><a xlink:href="../../dd/deb/class_t_m_c2130_stepper.html#a4a8f3b6ac100045ed5f84fe4d18d9d5a" target="_top" xlink:title=" ">
<polygon fill="white" stroke="black" points="671.5,-88 671.5,-107 823.5,-107 823.5,-88 671.5,-88"/>
<text text-anchor="middle" x="747.5" y="-95" font-family="Helvetica,sans-Serif" font-size="10.00">TMC2130Stepper::switchCSpin</text>
</a>
</g>
</g>
<!-- Node4&#45;&gt;Node7 -->
<g id="edge6" class="edge"><title>Node4&#45;&gt;Node7</title>
<path fill="none" stroke="midnightblue" d="M626.139,-97.5C637.27,-97.5 649.163,-97.5 660.981,-97.5"/>
<polygon fill="midnightblue" stroke="midnightblue" points="661.325,-101 671.325,-97.5 661.324,-94.0001 661.325,-101"/>
</g>
<!-- Node8 -->
<g id="node8" class="node"><title>Node8</title>
<g id="a_node8"><a xlink:href="../../dd/deb/class_t_m_c2130_stepper.html#a0673af4887ec52b23aa658aa290f6623" target="_top" xlink:title=" ">
<polygon fill="white" stroke="black" points="869,-28 869,-47 999,-47 999,-28 869,-28"/>
<text text-anchor="middle" x="934" y="-35" font-family="Helvetica,sans-Serif" font-size="10.00">TMC2130Stepper::transfer</text>
</a>
</g>
</g>
<!-- Node4&#45;&gt;Node8 -->
<g id="edge7" class="edge"><title>Node4&#45;&gt;Node8</title>
<path fill="none" stroke="midnightblue" d="M613.378,-87.9498C628.744,-84.7717 646.099,-81.3252 662,-78.5 728.378,-66.7062 804.291,-55.4085 858.852,-47.6702"/>
<polygon fill="midnightblue" stroke="midnightblue" points="859.372,-51.1316 868.784,-46.2674 858.393,-44.2004 859.372,-51.1316"/>
</g>
<!-- Node10 -->
<g id="node10" class="node"><title>Node10</title>
<g id="a_node10"><a xlink:href="../../dd/deb/class_t_m_c2130_stepper.html#aba94fc7bb8e2c8c12191f44561f19d95" target="_top" xlink:title=" ">
<polygon fill="white" stroke="black" points="682.5,-0.5 682.5,-30.5 812.5,-30.5 812.5,-0.5 682.5,-0.5"/>
<text text-anchor="start" x="690.5" y="-18.5" font-family="Helvetica,sans-Serif" font-size="10.00">TMC2130Stepper::transfer</text>
<text text-anchor="middle" x="747.5" y="-7.5" font-family="Helvetica,sans-Serif" font-size="10.00">EmptyBytes</text>
</a>
</g>
</g>
<!-- Node4&#45;&gt;Node10 -->
<g id="edge9" class="edge"><title>Node4&#45;&gt;Node10</title>
<path fill="none" stroke="midnightblue" d="M584.378,-87.8381C602.488,-76.7136 633.694,-58.3277 662,-45.5 670.84,-41.494 680.386,-37.66 689.769,-34.1517"/>
<polygon fill="midnightblue" stroke="midnightblue" points="691.257,-37.3346 699.453,-30.6201 688.859,-30.7583 691.257,-37.3346"/>
</g>
<!-- Node9 -->
<g id="node9" class="node"><title>Node9</title>
<g id="a_node9"><a xlink:href="../../df/d8b/class_s_w___s_p_i_class.html#af260fdc0af3f1312b106483161e559c3" target="_top" xlink:title=" ">
<polygon fill="white" stroke="black" points="1035,-28 1035,-47 1152,-47 1152,-28 1035,-28"/>
<text text-anchor="middle" x="1093.5" y="-35" font-family="Helvetica,sans-Serif" font-size="10.00">SW_SPIClass::transfer</text>
</a>
</g>
</g>
<!-- Node8&#45;&gt;Node9 -->
<g id="edge8" class="edge"><title>Node8&#45;&gt;Node9</title>
<path fill="none" stroke="midnightblue" d="M999.061,-37.5C1007.48,-37.5 1016.13,-37.5 1024.6,-37.5"/>
<polygon fill="midnightblue" stroke="midnightblue" points="1024.83,-41.0001 1034.83,-37.5 1024.83,-34.0001 1024.83,-41.0001"/>
</g>
<!-- Node10&#45;&gt;Node8 -->
<g id="edge10" class="edge"><title>Node10&#45;&gt;Node8</title>
<path fill="none" stroke="midnightblue" d="M812.511,-23.1328C827.452,-24.9144 843.487,-26.8263 858.827,-28.6556"/>
<polygon fill="midnightblue" stroke="midnightblue" points="858.445,-32.1347 868.79,-29.8435 859.274,-25.184 858.445,-32.1347"/>
</g>
<!-- Node12 -->
<g id="node12" class="node"><title>Node12</title>
<g id="a_node12"><a xlink:href="../../dd/deb/class_t_m_c2130_stepper.html#a67541b27d97ce45f175e9f6e4a2d0bff" target="_top" xlink:title=" ">
<polygon fill="white" stroke="black" points="322,-69 322,-88 474,-88 474,-69 322,-69"/>
<text text-anchor="middle" x="398" y="-76" font-family="Helvetica,sans-Serif" font-size="10.00">TMC2130Stepper::CHOPCONF</text>
</a>
</g>
</g>
<!-- Node11&#45;&gt;Node12 -->
<g id="edge12" class="edge"><title>Node11&#45;&gt;Node12</title>
<path fill="none" stroke="midnightblue" d="M286.027,-76.4823C294.269,-76.6322 302.942,-76.7899 311.658,-76.9483"/>
<polygon fill="midnightblue" stroke="midnightblue" points="311.824,-80.4518 321.886,-77.1343 311.951,-73.453 311.824,-80.4518"/>
</g>
<!-- Node12&#45;&gt;Node4 -->
<g id="edge13" class="edge"><title>Node12&#45;&gt;Node4</title>
<path fill="none" stroke="midnightblue" d="M474.155,-86.9997C482.664,-87.962 491.296,-88.9382 499.696,-89.8882"/>
<polygon fill="midnightblue" stroke="midnightblue" points="499.472,-93.3852 509.802,-91.0312 500.259,-86.4295 499.472,-93.3852"/>
</g>
</g>
</svg>
