<?xml version="1.0" encoding="UTF-8" standalone="no"?>
<!DOCTYPE svg PUBLIC "-//W3C//DTD SVG 1.1//EN"
 "http://www.w3.org/Graphics/SVG/1.1/DTD/svg11.dtd">
<!-- Generated by graphviz version 2.38.0 (20140413.2041)
 -->
<!-- Title: TMC2130Stepper::dir Pages: 1 -->
<svg width="946pt" height="192pt"
 viewBox="0.00 0.00 946.00 191.50" xmlns="http://www.w3.org/2000/svg" xmlns:xlink="http://www.w3.org/1999/xlink">
<g id="graph0" class="graph" transform="scale(1 1) rotate(0) translate(4 187.5)">
<title>TMC2130Stepper::dir</title>
<polygon fill="white" stroke="none" points="-4,4 -4,-187.5 942,-187.5 942,4 -4,4"/>
<!-- Node1 -->
<g id="node1" class="node"><title>Node1</title>
<g id="a_node1"><a xlink:title=" ">
<polygon fill="#bfbfbf" stroke="black" points="0,-88 0,-107 108,-107 108,-88 0,-88"/>
<text text-anchor="middle" x="54" y="-95" font-family="Helvetica,sans-Serif" font-size="10.00">TMC2130Stepper::dir</text>
</a>
</g>
</g>
<!-- Node2 -->
<g id="node2" class="node"><title>Node2</title>
<g id="a_node2"><a xlink:href="../../dd/deb/class_t_m_c2130_stepper.html#adde2041047c82600f5e01f52118f92a0" target="_top" xlink:title=" ">
<polygon fill="white" stroke="black" points="144,-88 144,-107 260,-107 260,-88 144,-88"/>
<text text-anchor="middle" x="202" y="-95" font-family="Helvetica,sans-Serif" font-size="10.00">TMC2130Stepper::IOIN</text>
</a>
</g>
</g>
<!-- Node1&#45;&gt;Node2 -->
<g id="edge1" class="edge"><title>Node1&#45;&gt;Node2</title>
<path fill="none" stroke="midnightblue" d="M108.122,-97.5C116.444,-97.5 125.138,-97.5 133.727,-97.5"/>
<polygon fill="midnightblue" stroke="midnightblue" points="133.731,-101 143.731,-97.5 133.731,-94.0001 133.731,-101"/>
</g>
<!-- Node3 -->
<g id="node3" class="node"><title>Node3</title>
<g id="a_node3"><a xlink:href="../../dd/deb/class_t_m_c2130_stepper.html#a161ca6ebe3736454e17e9236572a6001" target="_top" xlink:title=" ">
<polygon fill="white" stroke="black" points="296,-88 296,-107 412,-107 412,-88 296,-88"/>
<text text-anchor="middle" x="354" y="-95" font-family="Helvetica,sans-Serif" font-size="10.00">TMC2130Stepper::read</text>
</a>
</g>
</g>
<!-- Node2&#45;&gt;Node3 -->
<g id="edge2" class="edge"><title>Node2&#45;&gt;Node3</title>
<path fill="none" stroke="midnightblue" d="M260.136,-97.5C268.377,-97.5 276.923,-97.5 285.344,-97.5"/>
<polygon fill="midnightblue" stroke="midnightblue" points="285.526,-101 295.525,-97.5 285.525,-94.0001 285.526,-101"/>
</g>
<!-- Node4 -->
<g id="node4" class="node"><title>Node4</title>
<g id="a_node4"><a xlink:href="../../dd/deb/class_t_m_c2130_stepper.html#a1fc868601a32fb0cd8fc536dafa8ecea" target="_top" xlink:title=" ">
<polygon fill="white" stroke="black" points="448,-164 448,-183 619,-183 619,-164 448,-164"/>
<text text-anchor="middle" x="533.5" y="-171" font-family="Helvetica,sans-Serif" font-size="10.00">TMC2130Stepper::beginTransaction</text>
</a>
</g>
</g>
<!-- Node3&#45;&gt;Node4 -->
<g id="edge3" class="edge"><title>Node3&#45;&gt;Node4</title>
<path fill="none" stroke="midnightblue" d="M367.522,-107.048C384.741,-119.725 417.117,-141.967 448,-154.5 454.272,-157.045 460.951,-159.283 467.7,-161.242"/>
<polygon fill="midnightblue" stroke="midnightblue" points="467.032,-164.687 477.599,-163.918 468.858,-157.93 467.032,-164.687"/>
</g>
<!-- Node5 -->
<g id="node5" class="node"><title>Node5</title>
<g id="a_node5"><a xlink:href="../../dd/deb/class_t_m_c2130_stepper.html#aeace18dcee808585dd4449e783811600" target="_top" xlink:title=" ">
<polygon fill="white" stroke="black" points="451.5,-126 451.5,-145 615.5,-145 615.5,-126 451.5,-126"/>
<text text-anchor="middle" x="533.5" y="-133" font-family="Helvetica,sans-Serif" font-size="10.00">TMC2130Stepper::endTransaction</text>
</a>
</g>
</g>
<!-- Node3&#45;&gt;Node5 -->
<g id="edge4" class="edge"><title>Node3&#45;&gt;Node5</title>
<path fill="none" stroke="midnightblue" d="M399.791,-107.089C423.53,-112.171 452.884,-118.455 477.944,-123.82"/>
<polygon fill="midnightblue" stroke="midnightblue" points="477.52,-127.309 488.031,-125.98 478.986,-120.464 477.52,-127.309"/>
</g>
<!-- Node6 -->
<g id="node6" class="node"><title>Node6</title>
<g id="a_node6"><a xlink:href="../../dd/deb/class_t_m_c2130_stepper.html#a4a8f3b6ac100045ed5f84fe4d18d9d5a" target="_top" xlink:title=" ">
<polygon fill="white" stroke="black" points="457.5,-88 457.5,-107 609.5,-107 609.5,-88 457.5,-88"/>
<text text-anchor="middle" x="533.5" y="-95" font-family="Helvetica,sans-Serif" font-size="10.00">TMC2130Stepper::switchCSpin</text>
</a>
</g>
</g>
<!-- Node3&#45;&gt;Node6 -->
<g id="edge5" class="edge"><title>Node3&#45;&gt;Node6</title>
<path fill="none" stroke="midnightblue" d="M412.139,-97.5C423.27,-97.5 435.163,-97.5 446.981,-97.5"/>
<polygon fill="midnightblue" stroke="midnightblue" points="447.325,-101 457.325,-97.5 447.324,-94.0001 447.325,-101"/>
</g>
<!-- Node7 -->
<g id="node7" class="node"><title>Node7</title>
<g id="a_node7"><a xlink:href="../../dd/deb/class_t_m_c2130_stepper.html#a0673af4887ec52b23aa658aa290f6623" target="_top" xlink:title=" ">
<polygon fill="white" stroke="black" points="655,-28 655,-47 785,-47 785,-28 655,-28"/>
<text text-anchor="middle" x="720" y="-35" font-family="Helvetica,sans-Serif" font-size="10.00">TMC2130Stepper::transfer</text>
</a>
</g>
</g>
<!-- Node3&#45;&gt;Node7 -->
<g id="edge6" class="edge"><title>Node3&#45;&gt;Node7</title>
<path fill="none" stroke="midnightblue" d="M399.378,-87.9498C414.744,-84.7717 432.099,-81.3252 448,-78.5 514.378,-66.7062 590.291,-55.4085 644.852,-47.6702"/>
<polygon fill="midnightblue" stroke="midnightblue" points="645.372,-51.1316 654.784,-46.2674 644.393,-44.2004 645.372,-51.1316"/>
</g>
<!-- Node9 -->
<g id="node9" class="node"><title>Node9</title>
<g id="a_node9"><a xlink:href="../../dd/deb/class_t_m_c2130_stepper.html#aba94fc7bb8e2c8c12191f44561f19d95" target="_top" xlink:title=" ">
<polygon fill="white" stroke="black" points="468.5,-0.5 468.5,-30.5 598.5,-30.5 598.5,-0.5 468.5,-0.5"/>
<text text-anchor="start" x="476.5" y="-18.5" font-family="Helvetica,sans-Serif" font-size="10.00">TMC2130Stepper::transfer</text>
<text text-anchor="middle" x="533.5" y="-7.5" font-family="Helvetica,sans-Serif" font-size="10.00">EmptyBytes</text>
</a>
</g>
</g>
<!-- Node3&#45;&gt;Node9 -->
<g id="edge8" class="edge"><title>Node3&#45;&gt;Node9</title>
<path fill="none" stroke="midnightblue" d="M370.378,-87.8381C388.488,-76.7136 419.694,-58.3277 448,-45.5 456.84,-41.494 466.386,-37.66 475.769,-34.1517"/>
<polygon fill="midnightblue" stroke="midnightblue" points="477.257,-37.3346 485.453,-30.6201 474.859,-30.7583 477.257,-37.3346"/>
</g>
<!-- Node8 -->
<g id="node8" class="node"><title>Node8</title>
<g id="a_node8"><a xlink:href="../../df/d8b/class_s_w___s_p_i_class.html#af260fdc0af3f1312b106483161e559c3" target="_top" xlink:title=" ">
<polygon fill="white" stroke="black" points="821,-28 821,-47 938,-47 938,-28 821,-28"/>
<text text-anchor="middle" x="879.5" y="-35" font-family="Helvetica,sans-Serif" font-size="10.00">SW_SPIClass::transfer</text>
</a>
</g>
</g>
<!-- Node7&#45;&gt;Node8 -->
<g id="edge7" class="edge"><title>Node7&#45;&gt;Node8</title>
<path fill="none" stroke="midnightblue" d="M785.061,-37.5C793.477,-37.5 802.125,-37.5 810.603,-37.5"/>
<polygon fill="midnightblue" stroke="midnightblue" points="810.831,-41.0001 820.831,-37.5 810.831,-34.0001 810.831,-41.0001"/>
</g>
<!-- Node9&#45;&gt;Node7 -->
<g id="edge9" class="edge"><title>Node9&#45;&gt;Node7</title>
<path fill="none" stroke="midnightblue" d="M598.511,-23.1328C613.452,-24.9144 629.487,-26.8263 644.827,-28.6556"/>
<polygon fill="midnightblue" stroke="midnightblue" points="644.445,-32.1347 654.79,-29.8435 645.274,-25.184 644.445,-32.1347"/>
</g>
</g>
</svg>
