<?xml version="1.0" encoding="UTF-8" standalone="no"?>
<!DOCTYPE svg PUBLIC "-//W3C//DTD SVG 1.1//EN"
 "http://www.w3.org/Graphics/SVG/1.1/DTD/svg11.dtd">
<!-- Generated by graphviz version 2.38.0 (20140413.2041)
 -->
<!-- Title: TMC2130Stepper::coil_A Pages: 1 -->
<svg width="984pt" height="192pt"
 viewBox="0.00 0.00 984.00 191.50" xmlns="http://www.w3.org/2000/svg" xmlns:xlink="http://www.w3.org/1999/xlink">
<g id="graph0" class="graph" transform="scale(1 1) rotate(0) translate(4 187.5)">
<title>TMC2130Stepper::coil_A</title>
<polygon fill="white" stroke="none" points="-4,4 -4,-187.5 980,-187.5 980,4 -4,4"/>
<!-- Node1 -->
<g id="node1" class="node"><title>Node1</title>
<g id="a_node1"><a xlink:title=" ">
<polygon fill="#bfbfbf" stroke="black" points="0,-88 0,-107 125,-107 125,-88 0,-88"/>
<text text-anchor="middle" x="62.5" y="-95" font-family="Helvetica,sans-Serif" font-size="10.00">TMC2130Stepper::coil_A</text>
</a>
</g>
</g>
<!-- Node2 -->
<g id="node2" class="node"><title>Node2</title>
<g id="a_node2"><a xlink:href="../../dd/deb/class_t_m_c2130_stepper.html#af486cd4712be021c735fc3bcb8eee9f5" target="_top" xlink:title=" ">
<polygon fill="white" stroke="black" points="161,-88 161,-107 298,-107 298,-88 161,-88"/>
<text text-anchor="middle" x="229.5" y="-95" font-family="Helvetica,sans-Serif" font-size="10.00">TMC2130Stepper::XDIRECT</text>
</a>
</g>
</g>
<!-- Node1&#45;&gt;Node2 -->
<g id="edge1" class="edge"><title>Node1&#45;&gt;Node2</title>
<path fill="none" stroke="midnightblue" d="M125.409,-97.5C133.756,-97.5 142.404,-97.5 150.98,-97.5"/>
<polygon fill="midnightblue" stroke="midnightblue" points="150.991,-101 160.991,-97.5 150.991,-94.0001 150.991,-101"/>
</g>
<!-- Node3 -->
<g id="node3" class="node"><title>Node3</title>
<g id="a_node3"><a xlink:href="../../dd/deb/class_t_m_c2130_stepper.html#a161ca6ebe3736454e17e9236572a6001" target="_top" xlink:title=" ">
<polygon fill="white" stroke="black" points="334,-88 334,-107 450,-107 450,-88 334,-88"/>
<text text-anchor="middle" x="392" y="-95" font-family="Helvetica,sans-Serif" font-size="10.00">TMC2130Stepper::read</text>
</a>
</g>
</g>
<!-- Node2&#45;&gt;Node3 -->
<g id="edge2" class="edge"><title>Node2&#45;&gt;Node3</title>
<path fill="none" stroke="midnightblue" d="M298.101,-97.5C306.567,-97.5 315.226,-97.5 323.688,-97.5"/>
<polygon fill="midnightblue" stroke="midnightblue" points="323.885,-101 333.885,-97.5 323.885,-94.0001 323.885,-101"/>
</g>
<!-- Node4 -->
<g id="node4" class="node"><title>Node4</title>
<g id="a_node4"><a xlink:href="../../dd/deb/class_t_m_c2130_stepper.html#a1fc868601a32fb0cd8fc536dafa8ecea" target="_top" xlink:title=" ">
<polygon fill="white" stroke="black" points="486,-164 486,-183 657,-183 657,-164 486,-164"/>
<text text-anchor="middle" x="571.5" y="-171" font-family="Helvetica,sans-Serif" font-size="10.00">TMC2130Stepper::beginTransaction</text>
</a>
</g>
</g>
<!-- Node3&#45;&gt;Node4 -->
<g id="edge3" class="edge"><title>Node3&#45;&gt;Node4</title>
<path fill="none" stroke="midnightblue" d="M405.522,-107.048C422.741,-119.725 455.117,-141.967 486,-154.5 492.272,-157.045 498.951,-159.283 505.7,-161.242"/>
<polygon fill="midnightblue" stroke="midnightblue" points="505.032,-164.687 515.599,-163.918 506.858,-157.93 505.032,-164.687"/>
</g>
<!-- Node5 -->
<g id="node5" class="node"><title>Node5</title>
<g id="a_node5"><a xlink:href="../../dd/deb/class_t_m_c2130_stepper.html#aeace18dcee808585dd4449e783811600" target="_top" xlink:title=" ">
<polygon fill="white" stroke="black" points="489.5,-126 489.5,-145 653.5,-145 653.5,-126 489.5,-126"/>
<text text-anchor="middle" x="571.5" y="-133" font-family="Helvetica,sans-Serif" font-size="10.00">TMC2130Stepper::endTransaction</text>
</a>
</g>
</g>
<!-- Node3&#45;&gt;Node5 -->
<g id="edge4" class="edge"><title>Node3&#45;&gt;Node5</title>
<path fill="none" stroke="midnightblue" d="M437.791,-107.089C461.53,-112.171 490.884,-118.455 515.944,-123.82"/>
<polygon fill="midnightblue" stroke="midnightblue" points="515.52,-127.309 526.031,-125.98 516.986,-120.464 515.52,-127.309"/>
</g>
<!-- Node6 -->
<g id="node6" class="node"><title>Node6</title>
<g id="a_node6"><a xlink:href="../../dd/deb/class_t_m_c2130_stepper.html#a4a8f3b6ac100045ed5f84fe4d18d9d5a" target="_top" xlink:title=" ">
<polygon fill="white" stroke="black" points="495.5,-88 495.5,-107 647.5,-107 647.5,-88 495.5,-88"/>
<text text-anchor="middle" x="571.5" y="-95" font-family="Helvetica,sans-Serif" font-size="10.00">TMC2130Stepper::switchCSpin</text>
</a>
</g>
</g>
<!-- Node3&#45;&gt;Node6 -->
<g id="edge5" class="edge"><title>Node3&#45;&gt;Node6</title>
<path fill="none" stroke="midnightblue" d="M450.139,-97.5C461.27,-97.5 473.163,-97.5 484.981,-97.5"/>
<polygon fill="midnightblue" stroke="midnightblue" points="485.325,-101 495.325,-97.5 485.324,-94.0001 485.325,-101"/>
</g>
<!-- Node7 -->
<g id="node7" class="node"><title>Node7</title>
<g id="a_node7"><a xlink:href="../../dd/deb/class_t_m_c2130_stepper.html#a0673af4887ec52b23aa658aa290f6623" target="_top" xlink:title=" ">
<polygon fill="white" stroke="black" points="693,-28 693,-47 823,-47 823,-28 693,-28"/>
<text text-anchor="middle" x="758" y="-35" font-family="Helvetica,sans-Serif" font-size="10.00">TMC2130Stepper::transfer</text>
</a>
</g>
</g>
<!-- Node3&#45;&gt;Node7 -->
<g id="edge6" class="edge"><title>Node3&#45;&gt;Node7</title>
<path fill="none" stroke="midnightblue" d="M437.378,-87.9498C452.744,-84.7717 470.099,-81.3252 486,-78.5 552.378,-66.7062 628.291,-55.4085 682.852,-47.6702"/>
<polygon fill="midnightblue" stroke="midnightblue" points="683.372,-51.1316 692.784,-46.2674 682.393,-44.2004 683.372,-51.1316"/>
</g>
<!-- Node9 -->
<g id="node9" class="node"><title>Node9</title>
<g id="a_node9"><a xlink:href="../../dd/deb/class_t_m_c2130_stepper.html#aba94fc7bb8e2c8c12191f44561f19d95" target="_top" xlink:title=" ">
<polygon fill="white" stroke="black" points="506.5,-0.5 506.5,-30.5 636.5,-30.5 636.5,-0.5 506.5,-0.5"/>
<text text-anchor="start" x="514.5" y="-18.5" font-family="Helvetica,sans-Serif" font-size="10.00">TMC2130Stepper::transfer</text>
<text text-anchor="middle" x="571.5" y="-7.5" font-family="Helvetica,sans-Serif" font-size="10.00">EmptyBytes</text>
</a>
</g>
</g>
<!-- Node3&#45;&gt;Node9 -->
<g id="edge8" class="edge"><title>Node3&#45;&gt;Node9</title>
<path fill="none" stroke="midnightblue" d="M408.378,-87.8381C426.488,-76.7136 457.694,-58.3277 486,-45.5 494.84,-41.494 504.386,-37.66 513.769,-34.1517"/>
<polygon fill="midnightblue" stroke="midnightblue" points="515.257,-37.3346 523.453,-30.6201 512.859,-30.7583 515.257,-37.3346"/>
</g>
<!-- Node8 -->
<g id="node8" class="node"><title>Node8</title>
<g id="a_node8"><a xlink:href="../../df/d8b/class_s_w___s_p_i_class.html#af260fdc0af3f1312b106483161e559c3" target="_top" xlink:title=" ">
<polygon fill="white" stroke="black" points="859,-28 859,-47 976,-47 976,-28 859,-28"/>
<text text-anchor="middle" x="917.5" y="-35" font-family="Helvetica,sans-Serif" font-size="10.00">SW_SPIClass::transfer</text>
</a>
</g>
</g>
<!-- Node7&#45;&gt;Node8 -->
<g id="edge7" class="edge"><title>Node7&#45;&gt;Node8</title>
<path fill="none" stroke="midnightblue" d="M823.061,-37.5C831.477,-37.5 840.125,-37.5 848.603,-37.5"/>
<polygon fill="midnightblue" stroke="midnightblue" points="848.831,-41.0001 858.831,-37.5 848.831,-34.0001 848.831,-41.0001"/>
</g>
<!-- Node9&#45;&gt;Node7 -->
<g id="edge9" class="edge"><title>Node9&#45;&gt;Node7</title>
<path fill="none" stroke="midnightblue" d="M636.511,-23.1328C651.452,-24.9144 667.487,-26.8263 682.827,-28.6556"/>
<polygon fill="midnightblue" stroke="midnightblue" points="682.445,-32.1347 692.79,-29.8435 683.274,-25.184 682.445,-32.1347"/>
</g>
</g>
</svg>
