<?xml version="1.0" encoding="UTF-8" standalone="no"?>
<!DOCTYPE svg PUBLIC "-//W3C//DTD SVG 1.1//EN"
 "http://www.w3.org/Graphics/SVG/1.1/DTD/svg11.dtd">
<!-- Generated by graphviz version 2.38.0 (20140413.2041)
 -->
<!-- Title: TMC2130Stepper::write Pages: 1 -->
<svg width="652pt" height="192pt"
 viewBox="0.00 0.00 652.00 191.50" xmlns="http://www.w3.org/2000/svg" xmlns:xlink="http://www.w3.org/1999/xlink">
<g id="graph0" class="graph" transform="scale(1 1) rotate(0) translate(4 187.5)">
<title>TMC2130Stepper::write</title>
<polygon fill="white" stroke="none" points="-4,4 -4,-187.5 648,-187.5 648,4 -4,4"/>
<!-- Node1 -->
<g id="node1" class="node"><title>Node1</title>
<g id="a_node1"><a xlink:title=" ">
<polygon fill="#bfbfbf" stroke="black" points="0,-88 0,-107 118,-107 118,-88 0,-88"/>
<text text-anchor="middle" x="59" y="-95" font-family="Helvetica,sans-Serif" font-size="10.00">TMC2130Stepper::write</text>
</a>
</g>
</g>
<!-- Node2 -->
<g id="node2" class="node"><title>Node2</title>
<g id="a_node2"><a xlink:href="../../dd/deb/class_t_m_c2130_stepper.html#a1fc868601a32fb0cd8fc536dafa8ecea" target="_top" xlink:title=" ">
<polygon fill="white" stroke="black" points="154,-164 154,-183 325,-183 325,-164 154,-164"/>
<text text-anchor="middle" x="239.5" y="-171" font-family="Helvetica,sans-Serif" font-size="10.00">TMC2130Stepper::beginTransaction</text>
</a>
</g>
</g>
<!-- Node1&#45;&gt;Node2 -->
<g id="edge1" class="edge"><title>Node1&#45;&gt;Node2</title>
<path fill="none" stroke="midnightblue" d="M72.6744,-107.041C90.0985,-119.71 122.845,-141.943 154,-154.5 160.372,-157.068 167.16,-159.325 174.015,-161.299"/>
<polygon fill="midnightblue" stroke="midnightblue" points="173.497,-164.784 184.062,-163.994 175.31,-158.023 173.497,-164.784"/>
</g>
<!-- Node3 -->
<g id="node3" class="node"><title>Node3</title>
<g id="a_node3"><a xlink:href="../../dd/deb/class_t_m_c2130_stepper.html#aeace18dcee808585dd4449e783811600" target="_top" xlink:title=" ">
<polygon fill="white" stroke="black" points="157.5,-126 157.5,-145 321.5,-145 321.5,-126 157.5,-126"/>
<text text-anchor="middle" x="239.5" y="-133" font-family="Helvetica,sans-Serif" font-size="10.00">TMC2130Stepper::endTransaction</text>
</a>
</g>
</g>
<!-- Node1&#45;&gt;Node3 -->
<g id="edge2" class="edge"><title>Node1&#45;&gt;Node3</title>
<path fill="none" stroke="midnightblue" d="M105.043,-107.089C129.023,-112.194 158.698,-118.511 183.972,-123.892"/>
<polygon fill="midnightblue" stroke="midnightblue" points="183.271,-127.321 193.781,-125.98 184.729,-120.474 183.271,-127.321"/>
</g>
<!-- Node4 -->
<g id="node4" class="node"><title>Node4</title>
<g id="a_node4"><a xlink:href="../../dd/deb/class_t_m_c2130_stepper.html#a4a8f3b6ac100045ed5f84fe4d18d9d5a" target="_top" xlink:title=" ">
<polygon fill="white" stroke="black" points="163.5,-88 163.5,-107 315.5,-107 315.5,-88 163.5,-88"/>
<text text-anchor="middle" x="239.5" y="-95" font-family="Helvetica,sans-Serif" font-size="10.00">TMC2130Stepper::switchCSpin</text>
</a>
</g>
</g>
<!-- Node1&#45;&gt;Node4 -->
<g id="edge3" class="edge"><title>Node1&#45;&gt;Node4</title>
<path fill="none" stroke="midnightblue" d="M118.448,-97.5C129.536,-97.5 141.347,-97.5 153.07,-97.5"/>
<polygon fill="midnightblue" stroke="midnightblue" points="153.329,-101 163.329,-97.5 153.329,-94.0001 153.329,-101"/>
</g>
<!-- Node5 -->
<g id="node5" class="node"><title>Node5</title>
<g id="a_node5"><a xlink:href="../../dd/deb/class_t_m_c2130_stepper.html#a0673af4887ec52b23aa658aa290f6623" target="_top" xlink:title=" ">
<polygon fill="white" stroke="black" points="361,-28 361,-47 491,-47 491,-28 361,-28"/>
<text text-anchor="middle" x="426" y="-35" font-family="Helvetica,sans-Serif" font-size="10.00">TMC2130Stepper::transfer</text>
</a>
</g>
</g>
<!-- Node1&#45;&gt;Node5 -->
<g id="edge4" class="edge"><title>Node1&#45;&gt;Node5</title>
<path fill="none" stroke="midnightblue" d="M104.859,-87.964C120.391,-84.787 137.932,-81.3376 154,-78.5 220.39,-66.7755 296.302,-55.4704 350.859,-47.7117"/>
<polygon fill="midnightblue" stroke="midnightblue" points="351.381,-51.1729 360.791,-46.3049 350.399,-44.2421 351.381,-51.1729"/>
</g>
<!-- Node7 -->
<g id="node7" class="node"><title>Node7</title>
<g id="a_node7"><a xlink:href="../../dd/deb/class_t_m_c2130_stepper.html#aba94fc7bb8e2c8c12191f44561f19d95" target="_top" xlink:title=" ">
<polygon fill="white" stroke="black" points="174.5,-0.5 174.5,-30.5 304.5,-30.5 304.5,-0.5 174.5,-0.5"/>
<text text-anchor="start" x="182.5" y="-18.5" font-family="Helvetica,sans-Serif" font-size="10.00">TMC2130Stepper::transfer</text>
<text text-anchor="middle" x="239.5" y="-7.5" font-family="Helvetica,sans-Serif" font-size="10.00">EmptyBytes</text>
</a>
</g>
</g>
<!-- Node1&#45;&gt;Node7 -->
<g id="edge6" class="edge"><title>Node1&#45;&gt;Node7</title>
<path fill="none" stroke="midnightblue" d="M75.5589,-87.8524C93.8773,-76.7413 125.432,-58.368 154,-45.5 163.049,-41.4242 172.831,-37.5179 182.42,-33.9495"/>
<polygon fill="midnightblue" stroke="midnightblue" points="183.707,-37.2056 191.91,-30.5 181.316,-30.6267 183.707,-37.2056"/>
</g>
<!-- Node6 -->
<g id="node6" class="node"><title>Node6</title>
<g id="a_node6"><a xlink:href="../../df/d8b/class_s_w___s_p_i_class.html#af260fdc0af3f1312b106483161e559c3" target="_top" xlink:title=" ">
<polygon fill="white" stroke="black" points="527,-28 527,-47 644,-47 644,-28 527,-28"/>
<text text-anchor="middle" x="585.5" y="-35" font-family="Helvetica,sans-Serif" font-size="10.00">SW_SPIClass::transfer</text>
</a>
</g>
</g>
<!-- Node5&#45;&gt;Node6 -->
<g id="edge5" class="edge"><title>Node5&#45;&gt;Node6</title>
<path fill="none" stroke="midnightblue" d="M491.061,-37.5C499.477,-37.5 508.125,-37.5 516.603,-37.5"/>
<polygon fill="midnightblue" stroke="midnightblue" points="516.831,-41.0001 526.831,-37.5 516.831,-34.0001 516.831,-41.0001"/>
</g>
<!-- Node7&#45;&gt;Node5 -->
<g id="edge7" class="edge"><title>Node7&#45;&gt;Node5</title>
<path fill="none" stroke="midnightblue" d="M304.511,-23.1328C319.452,-24.9144 335.487,-26.8263 350.827,-28.6556"/>
<polygon fill="midnightblue" stroke="midnightblue" points="350.445,-32.1347 360.79,-29.8435 351.274,-25.184 350.445,-32.1347"/>
</g>
</g>
</svg>
