<?xml version="1.0" encoding="UTF-8" standalone="no"?>
<!DOCTYPE svg PUBLIC "-//W3C//DTD SVG 1.1//EN"
 "http://www.w3.org/Graphics/SVG/1.1/DTD/svg11.dtd">
<!-- Generated by graphviz version 2.38.0 (20140413.2041)
 -->
<!-- Title: TMC2130Stepper::XDIRECT Pages: 1 -->
<svg width="825pt" height="192pt"
 viewBox="0.00 0.00 825.00 191.50" xmlns="http://www.w3.org/2000/svg" xmlns:xlink="http://www.w3.org/1999/xlink">
<g id="graph0" class="graph" transform="scale(1 1) rotate(0) translate(4 187.5)">
<title>TMC2130Stepper::XDIRECT</title>
<polygon fill="white" stroke="none" points="-4,4 -4,-187.5 821,-187.5 821,4 -4,4"/>
<!-- Node1 -->
<g id="node1" class="node"><title>Node1</title>
<g id="a_node1"><a xlink:title=" ">
<polygon fill="#bfbfbf" stroke="black" points="0,-88 0,-107 137,-107 137,-88 0,-88"/>
<text text-anchor="middle" x="68.5" y="-95" font-family="Helvetica,sans-Serif" font-size="10.00">TMC2130Stepper::XDIRECT</text>
</a>
</g>
</g>
<!-- Node2 -->
<g id="node2" class="node"><title>Node2</title>
<g id="a_node2"><a xlink:href="../../dd/deb/class_t_m_c2130_stepper.html#a6b02e33ab452a7869426ede7ba370445" target="_top" xlink:title=" ">
<polygon fill="white" stroke="black" points="173,-88 173,-107 291,-107 291,-88 173,-88"/>
<text text-anchor="middle" x="232" y="-95" font-family="Helvetica,sans-Serif" font-size="10.00">TMC2130Stepper::write</text>
</a>
</g>
</g>
<!-- Node1&#45;&gt;Node2 -->
<g id="edge1" class="edge"><title>Node1&#45;&gt;Node2</title>
<path fill="none" stroke="midnightblue" d="M137.055,-97.5C145.535,-97.5 154.215,-97.5 162.706,-97.5"/>
<polygon fill="midnightblue" stroke="midnightblue" points="162.944,-101 172.944,-97.5 162.944,-94.0001 162.944,-101"/>
</g>
<!-- Node3 -->
<g id="node3" class="node"><title>Node3</title>
<g id="a_node3"><a xlink:href="../../dd/deb/class_t_m_c2130_stepper.html#a1fc868601a32fb0cd8fc536dafa8ecea" target="_top" xlink:title=" ">
<polygon fill="white" stroke="black" points="327,-164 327,-183 498,-183 498,-164 327,-164"/>
<text text-anchor="middle" x="412.5" y="-171" font-family="Helvetica,sans-Serif" font-size="10.00">TMC2130Stepper::beginTransaction</text>
</a>
</g>
</g>
<!-- Node2&#45;&gt;Node3 -->
<g id="edge2" class="edge"><title>Node2&#45;&gt;Node3</title>
<path fill="none" stroke="midnightblue" d="M245.674,-107.041C263.099,-119.71 295.845,-141.943 327,-154.5 333.372,-157.068 340.16,-159.325 347.015,-161.299"/>
<polygon fill="midnightblue" stroke="midnightblue" points="346.497,-164.784 357.062,-163.994 348.31,-158.023 346.497,-164.784"/>
</g>
<!-- Node4 -->
<g id="node4" class="node"><title>Node4</title>
<g id="a_node4"><a xlink:href="../../dd/deb/class_t_m_c2130_stepper.html#aeace18dcee808585dd4449e783811600" target="_top" xlink:title=" ">
<polygon fill="white" stroke="black" points="330.5,-126 330.5,-145 494.5,-145 494.5,-126 330.5,-126"/>
<text text-anchor="middle" x="412.5" y="-133" font-family="Helvetica,sans-Serif" font-size="10.00">TMC2130Stepper::endTransaction</text>
</a>
</g>
</g>
<!-- Node2&#45;&gt;Node4 -->
<g id="edge3" class="edge"><title>Node2&#45;&gt;Node4</title>
<path fill="none" stroke="midnightblue" d="M278.043,-107.089C302.023,-112.194 331.698,-118.511 356.972,-123.892"/>
<polygon fill="midnightblue" stroke="midnightblue" points="356.271,-127.321 366.781,-125.98 357.729,-120.474 356.271,-127.321"/>
</g>
<!-- Node5 -->
<g id="node5" class="node"><title>Node5</title>
<g id="a_node5"><a xlink:href="../../dd/deb/class_t_m_c2130_stepper.html#a4a8f3b6ac100045ed5f84fe4d18d9d5a" target="_top" xlink:title=" ">
<polygon fill="white" stroke="black" points="336.5,-88 336.5,-107 488.5,-107 488.5,-88 336.5,-88"/>
<text text-anchor="middle" x="412.5" y="-95" font-family="Helvetica,sans-Serif" font-size="10.00">TMC2130Stepper::switchCSpin</text>
</a>
</g>
</g>
<!-- Node2&#45;&gt;Node5 -->
<g id="edge4" class="edge"><title>Node2&#45;&gt;Node5</title>
<path fill="none" stroke="midnightblue" d="M291.448,-97.5C302.536,-97.5 314.347,-97.5 326.07,-97.5"/>
<polygon fill="midnightblue" stroke="midnightblue" points="326.329,-101 336.329,-97.5 326.329,-94.0001 326.329,-101"/>
</g>
<!-- Node6 -->
<g id="node6" class="node"><title>Node6</title>
<g id="a_node6"><a xlink:href="../../dd/deb/class_t_m_c2130_stepper.html#a0673af4887ec52b23aa658aa290f6623" target="_top" xlink:title=" ">
<polygon fill="white" stroke="black" points="534,-28 534,-47 664,-47 664,-28 534,-28"/>
<text text-anchor="middle" x="599" y="-35" font-family="Helvetica,sans-Serif" font-size="10.00">TMC2130Stepper::transfer</text>
</a>
</g>
</g>
<!-- Node2&#45;&gt;Node6 -->
<g id="edge5" class="edge"><title>Node2&#45;&gt;Node6</title>
<path fill="none" stroke="midnightblue" d="M277.859,-87.964C293.391,-84.787 310.932,-81.3376 327,-78.5 393.39,-66.7755 469.302,-55.4704 523.859,-47.7117"/>
<polygon fill="midnightblue" stroke="midnightblue" points="524.381,-51.1729 533.791,-46.3049 523.399,-44.2421 524.381,-51.1729"/>
</g>
<!-- Node8 -->
<g id="node8" class="node"><title>Node8</title>
<g id="a_node8"><a xlink:href="../../dd/deb/class_t_m_c2130_stepper.html#aba94fc7bb8e2c8c12191f44561f19d95" target="_top" xlink:title=" ">
<polygon fill="white" stroke="black" points="347.5,-0.5 347.5,-30.5 477.5,-30.5 477.5,-0.5 347.5,-0.5"/>
<text text-anchor="start" x="355.5" y="-18.5" font-family="Helvetica,sans-Serif" font-size="10.00">TMC2130Stepper::transfer</text>
<text text-anchor="middle" x="412.5" y="-7.5" font-family="Helvetica,sans-Serif" font-size="10.00">EmptyBytes</text>
</a>
</g>
</g>
<!-- Node2&#45;&gt;Node8 -->
<g id="edge7" class="edge"><title>Node2&#45;&gt;Node8</title>
<path fill="none" stroke="midnightblue" d="M248.559,-87.8524C266.877,-76.7413 298.432,-58.368 327,-45.5 336.049,-41.4242 345.831,-37.5179 355.42,-33.9495"/>
<polygon fill="midnightblue" stroke="midnightblue" points="356.707,-37.2056 364.91,-30.5 354.316,-30.6267 356.707,-37.2056"/>
</g>
<!-- Node7 -->
<g id="node7" class="node"><title>Node7</title>
<g id="a_node7"><a xlink:href="../../df/d8b/class_s_w___s_p_i_class.html#af260fdc0af3f1312b106483161e559c3" target="_top" xlink:title=" ">
<polygon fill="white" stroke="black" points="700,-28 700,-47 817,-47 817,-28 700,-28"/>
<text text-anchor="middle" x="758.5" y="-35" font-family="Helvetica,sans-Serif" font-size="10.00">SW_SPIClass::transfer</text>
</a>
</g>
</g>
<!-- Node6&#45;&gt;Node7 -->
<g id="edge6" class="edge"><title>Node6&#45;&gt;Node7</title>
<path fill="none" stroke="midnightblue" d="M664.061,-37.5C672.477,-37.5 681.125,-37.5 689.603,-37.5"/>
<polygon fill="midnightblue" stroke="midnightblue" points="689.831,-41.0001 699.831,-37.5 689.831,-34.0001 689.831,-41.0001"/>
</g>
<!-- Node8&#45;&gt;Node6 -->
<g id="edge8" class="edge"><title>Node8&#45;&gt;Node6</title>
<path fill="none" stroke="midnightblue" d="M477.511,-23.1328C492.452,-24.9144 508.487,-26.8263 523.827,-28.6556"/>
<polygon fill="midnightblue" stroke="midnightblue" points="523.445,-32.1347 533.79,-29.8435 524.274,-25.184 523.445,-32.1347"/>
</g>
</g>
</svg>
