<?xml version="1.0" encoding="UTF-8" standalone="no"?>
<!DOCTYPE svg PUBLIC "-//W3C//DTD SVG 1.1//EN"
 "http://www.w3.org/Graphics/SVG/1.1/DTD/svg11.dtd">
<!-- Generated by graphviz version 2.38.0 (20140413.2041)
 -->
<!-- Title: TMC2130Stepper::mres Pages: 1 -->
<svg width="993pt" height="192pt"
 viewBox="0.00 0.00 993.00 191.50" xmlns="http://www.w3.org/2000/svg" xmlns:xlink="http://www.w3.org/1999/xlink">
<g id="graph0" class="graph" transform="scale(1 1) rotate(0) translate(4 187.5)">
<title>TMC2130Stepper::mres</title>
<polygon fill="white" stroke="none" points="-4,4 -4,-187.5 989,-187.5 989,4 -4,4"/>
<!-- Node1 -->
<g id="node1" class="node"><title>Node1</title>
<g id="a_node1"><a xlink:title=" ">
<polygon fill="#bfbfbf" stroke="black" points="0,-88 0,-107 119,-107 119,-88 0,-88"/>
<text text-anchor="middle" x="59.5" y="-95" font-family="Helvetica,sans-Serif" font-size="10.00">TMC2130Stepper::mres</text>
</a>
</g>
</g>
<!-- Node2 -->
<g id="node2" class="node"><title>Node2</title>
<g id="a_node2"><a xlink:href="../../dd/deb/class_t_m_c2130_stepper.html#a67541b27d97ce45f175e9f6e4a2d0bff" target="_top" xlink:title=" ">
<polygon fill="white" stroke="black" points="155,-88 155,-107 307,-107 307,-88 155,-88"/>
<text text-anchor="middle" x="231" y="-95" font-family="Helvetica,sans-Serif" font-size="10.00">TMC2130Stepper::CHOPCONF</text>
</a>
</g>
</g>
<!-- Node1&#45;&gt;Node2 -->
<g id="edge1" class="edge"><title>Node1&#45;&gt;Node2</title>
<path fill="none" stroke="midnightblue" d="M119.307,-97.5C127.554,-97.5 136.164,-97.5 144.78,-97.5"/>
<polygon fill="midnightblue" stroke="midnightblue" points="144.876,-101 154.876,-97.5 144.876,-94.0001 144.876,-101"/>
</g>
<!-- Node3 -->
<g id="node3" class="node"><title>Node3</title>
<g id="a_node3"><a xlink:href="../../dd/deb/class_t_m_c2130_stepper.html#a161ca6ebe3736454e17e9236572a6001" target="_top" xlink:title=" ">
<polygon fill="white" stroke="black" points="343,-88 343,-107 459,-107 459,-88 343,-88"/>
<text text-anchor="middle" x="401" y="-95" font-family="Helvetica,sans-Serif" font-size="10.00">TMC2130Stepper::read</text>
</a>
</g>
</g>
<!-- Node2&#45;&gt;Node3 -->
<g id="edge2" class="edge"><title>Node2&#45;&gt;Node3</title>
<path fill="none" stroke="midnightblue" d="M307.155,-97.5C315.664,-97.5 324.296,-97.5 332.696,-97.5"/>
<polygon fill="midnightblue" stroke="midnightblue" points="332.802,-101 342.802,-97.5 332.802,-94.0001 332.802,-101"/>
</g>
<!-- Node4 -->
<g id="node4" class="node"><title>Node4</title>
<g id="a_node4"><a xlink:href="../../dd/deb/class_t_m_c2130_stepper.html#a1fc868601a32fb0cd8fc536dafa8ecea" target="_top" xlink:title=" ">
<polygon fill="white" stroke="black" points="495,-164 495,-183 666,-183 666,-164 495,-164"/>
<text text-anchor="middle" x="580.5" y="-171" font-family="Helvetica,sans-Serif" font-size="10.00">TMC2130Stepper::beginTransaction</text>
</a>
</g>
</g>
<!-- Node3&#45;&gt;Node4 -->
<g id="edge3" class="edge"><title>Node3&#45;&gt;Node4</title>
<path fill="none" stroke="midnightblue" d="M414.522,-107.048C431.741,-119.725 464.117,-141.967 495,-154.5 501.272,-157.045 507.951,-159.283 514.7,-161.242"/>
<polygon fill="midnightblue" stroke="midnightblue" points="514.032,-164.687 524.599,-163.918 515.858,-157.93 514.032,-164.687"/>
</g>
<!-- Node5 -->
<g id="node5" class="node"><title>Node5</title>
<g id="a_node5"><a xlink:href="../../dd/deb/class_t_m_c2130_stepper.html#aeace18dcee808585dd4449e783811600" target="_top" xlink:title=" ">
<polygon fill="white" stroke="black" points="498.5,-126 498.5,-145 662.5,-145 662.5,-126 498.5,-126"/>
<text text-anchor="middle" x="580.5" y="-133" font-family="Helvetica,sans-Serif" font-size="10.00">TMC2130Stepper::endTransaction</text>
</a>
</g>
</g>
<!-- Node3&#45;&gt;Node5 -->
<g id="edge4" class="edge"><title>Node3&#45;&gt;Node5</title>
<path fill="none" stroke="midnightblue" d="M446.791,-107.089C470.53,-112.171 499.884,-118.455 524.944,-123.82"/>
<polygon fill="midnightblue" stroke="midnightblue" points="524.52,-127.309 535.031,-125.98 525.986,-120.464 524.52,-127.309"/>
</g>
<!-- Node6 -->
<g id="node6" class="node"><title>Node6</title>
<g id="a_node6"><a xlink:href="../../dd/deb/class_t_m_c2130_stepper.html#a4a8f3b6ac100045ed5f84fe4d18d9d5a" target="_top" xlink:title=" ">
<polygon fill="white" stroke="black" points="504.5,-88 504.5,-107 656.5,-107 656.5,-88 504.5,-88"/>
<text text-anchor="middle" x="580.5" y="-95" font-family="Helvetica,sans-Serif" font-size="10.00">TMC2130Stepper::switchCSpin</text>
</a>
</g>
</g>
<!-- Node3&#45;&gt;Node6 -->
<g id="edge5" class="edge"><title>Node3&#45;&gt;Node6</title>
<path fill="none" stroke="midnightblue" d="M459.139,-97.5C470.27,-97.5 482.163,-97.5 493.981,-97.5"/>
<polygon fill="midnightblue" stroke="midnightblue" points="494.325,-101 504.325,-97.5 494.324,-94.0001 494.325,-101"/>
</g>
<!-- Node7 -->
<g id="node7" class="node"><title>Node7</title>
<g id="a_node7"><a xlink:href="../../dd/deb/class_t_m_c2130_stepper.html#a0673af4887ec52b23aa658aa290f6623" target="_top" xlink:title=" ">
<polygon fill="white" stroke="black" points="702,-28 702,-47 832,-47 832,-28 702,-28"/>
<text text-anchor="middle" x="767" y="-35" font-family="Helvetica,sans-Serif" font-size="10.00">TMC2130Stepper::transfer</text>
</a>
</g>
</g>
<!-- Node3&#45;&gt;Node7 -->
<g id="edge6" class="edge"><title>Node3&#45;&gt;Node7</title>
<path fill="none" stroke="midnightblue" d="M446.378,-87.9498C461.744,-84.7717 479.099,-81.3252 495,-78.5 561.378,-66.7062 637.291,-55.4085 691.852,-47.6702"/>
<polygon fill="midnightblue" stroke="midnightblue" points="692.372,-51.1316 701.784,-46.2674 691.393,-44.2004 692.372,-51.1316"/>
</g>
<!-- Node9 -->
<g id="node9" class="node"><title>Node9</title>
<g id="a_node9"><a xlink:href="../../dd/deb/class_t_m_c2130_stepper.html#aba94fc7bb8e2c8c12191f44561f19d95" target="_top" xlink:title=" ">
<polygon fill="white" stroke="black" points="515.5,-0.5 515.5,-30.5 645.5,-30.5 645.5,-0.5 515.5,-0.5"/>
<text text-anchor="start" x="523.5" y="-18.5" font-family="Helvetica,sans-Serif" font-size="10.00">TMC2130Stepper::transfer</text>
<text text-anchor="middle" x="580.5" y="-7.5" font-family="Helvetica,sans-Serif" font-size="10.00">EmptyBytes</text>
</a>
</g>
</g>
<!-- Node3&#45;&gt;Node9 -->
<g id="edge8" class="edge"><title>Node3&#45;&gt;Node9</title>
<path fill="none" stroke="midnightblue" d="M417.378,-87.8381C435.488,-76.7136 466.694,-58.3277 495,-45.5 503.84,-41.494 513.386,-37.66 522.769,-34.1517"/>
<polygon fill="midnightblue" stroke="midnightblue" points="524.257,-37.3346 532.453,-30.6201 521.859,-30.7583 524.257,-37.3346"/>
</g>
<!-- Node8 -->
<g id="node8" class="node"><title>Node8</title>
<g id="a_node8"><a xlink:href="../../df/d8b/class_s_w___s_p_i_class.html#af260fdc0af3f1312b106483161e559c3" target="_top" xlink:title=" ">
<polygon fill="white" stroke="black" points="868,-28 868,-47 985,-47 985,-28 868,-28"/>
<text text-anchor="middle" x="926.5" y="-35" font-family="Helvetica,sans-Serif" font-size="10.00">SW_SPIClass::transfer</text>
</a>
</g>
</g>
<!-- Node7&#45;&gt;Node8 -->
<g id="edge7" class="edge"><title>Node7&#45;&gt;Node8</title>
<path fill="none" stroke="midnightblue" d="M832.061,-37.5C840.477,-37.5 849.125,-37.5 857.603,-37.5"/>
<polygon fill="midnightblue" stroke="midnightblue" points="857.831,-41.0001 867.831,-37.5 857.831,-34.0001 857.831,-41.0001"/>
</g>
<!-- Node9&#45;&gt;Node7 -->
<g id="edge9" class="edge"><title>Node9&#45;&gt;Node7</title>
<path fill="none" stroke="midnightblue" d="M645.511,-23.1328C660.452,-24.9144 676.487,-26.8263 691.827,-28.6556"/>
<polygon fill="midnightblue" stroke="midnightblue" points="691.445,-32.1347 701.79,-29.8435 692.274,-25.184 691.445,-32.1347"/>
</g>
</g>
</svg>
