<?xml version="1.0" encoding="UTF-8" standalone="no"?>
<!DOCTYPE svg PUBLIC "-//W3C//DTD SVG 1.1//EN"
 "http://www.w3.org/Graphics/SVG/1.1/DTD/svg11.dtd">
<!-- Generated by graphviz version 2.38.0 (20140413.2041)
 -->
<!-- Title: TMC2130Stepper::dc_time Pages: 1 -->
<svg width="820pt" height="192pt"
 viewBox="0.00 0.00 820.00 191.50" xmlns="http://www.w3.org/2000/svg" xmlns:xlink="http://www.w3.org/1999/xlink">
<g id="graph0" class="graph" transform="scale(1 1) rotate(0) translate(4 187.5)">
<title>TMC2130Stepper::dc_time</title>
<polygon fill="white" stroke="none" points="-4,4 -4,-187.5 816,-187.5 816,4 -4,4"/>
<!-- Node1 -->
<g id="node1" class="node"><title>Node1</title>
<g id="a_node1"><a xlink:title=" ">
<polygon fill="#bfbfbf" stroke="black" points="0,-88 0,-107 132,-107 132,-88 0,-88"/>
<text text-anchor="middle" x="66" y="-95" font-family="Helvetica,sans-Serif" font-size="10.00">TMC2130Stepper::dc_time</text>
</a>
</g>
</g>
<!-- Node2 -->
<g id="node2" class="node"><title>Node2</title>
<g id="a_node2"><a xlink:href="../../dd/deb/class_t_m_c2130_stepper.html#a6b02e33ab452a7869426ede7ba370445" target="_top" xlink:title=" ">
<polygon fill="white" stroke="black" points="168,-88 168,-107 286,-107 286,-88 168,-88"/>
<text text-anchor="middle" x="227" y="-95" font-family="Helvetica,sans-Serif" font-size="10.00">TMC2130Stepper::write</text>
</a>
</g>
</g>
<!-- Node1&#45;&gt;Node2 -->
<g id="edge1" class="edge"><title>Node1&#45;&gt;Node2</title>
<path fill="none" stroke="midnightblue" d="M132.13,-97.5C140.544,-97.5 149.18,-97.5 157.645,-97.5"/>
<polygon fill="midnightblue" stroke="midnightblue" points="157.857,-101 167.857,-97.5 157.857,-94.0001 157.857,-101"/>
</g>
<!-- Node3 -->
<g id="node3" class="node"><title>Node3</title>
<g id="a_node3"><a xlink:href="../../dd/deb/class_t_m_c2130_stepper.html#a1fc868601a32fb0cd8fc536dafa8ecea" target="_top" xlink:title=" ">
<polygon fill="white" stroke="black" points="322,-164 322,-183 493,-183 493,-164 322,-164"/>
<text text-anchor="middle" x="407.5" y="-171" font-family="Helvetica,sans-Serif" font-size="10.00">TMC2130Stepper::beginTransaction</text>
</a>
</g>
</g>
<!-- Node2&#45;&gt;Node3 -->
<g id="edge2" class="edge"><title>Node2&#45;&gt;Node3</title>
<path fill="none" stroke="midnightblue" d="M240.674,-107.041C258.099,-119.71 290.845,-141.943 322,-154.5 328.372,-157.068 335.16,-159.325 342.015,-161.299"/>
<polygon fill="midnightblue" stroke="midnightblue" points="341.497,-164.784 352.062,-163.994 343.31,-158.023 341.497,-164.784"/>
</g>
<!-- Node4 -->
<g id="node4" class="node"><title>Node4</title>
<g id="a_node4"><a xlink:href="../../dd/deb/class_t_m_c2130_stepper.html#aeace18dcee808585dd4449e783811600" target="_top" xlink:title=" ">
<polygon fill="white" stroke="black" points="325.5,-126 325.5,-145 489.5,-145 489.5,-126 325.5,-126"/>
<text text-anchor="middle" x="407.5" y="-133" font-family="Helvetica,sans-Serif" font-size="10.00">TMC2130Stepper::endTransaction</text>
</a>
</g>
</g>
<!-- Node2&#45;&gt;Node4 -->
<g id="edge3" class="edge"><title>Node2&#45;&gt;Node4</title>
<path fill="none" stroke="midnightblue" d="M273.043,-107.089C297.023,-112.194 326.698,-118.511 351.972,-123.892"/>
<polygon fill="midnightblue" stroke="midnightblue" points="351.271,-127.321 361.781,-125.98 352.729,-120.474 351.271,-127.321"/>
</g>
<!-- Node5 -->
<g id="node5" class="node"><title>Node5</title>
<g id="a_node5"><a xlink:href="../../dd/deb/class_t_m_c2130_stepper.html#a4a8f3b6ac100045ed5f84fe4d18d9d5a" target="_top" xlink:title=" ">
<polygon fill="white" stroke="black" points="331.5,-88 331.5,-107 483.5,-107 483.5,-88 331.5,-88"/>
<text text-anchor="middle" x="407.5" y="-95" font-family="Helvetica,sans-Serif" font-size="10.00">TMC2130Stepper::switchCSpin</text>
</a>
</g>
</g>
<!-- Node2&#45;&gt;Node5 -->
<g id="edge4" class="edge"><title>Node2&#45;&gt;Node5</title>
<path fill="none" stroke="midnightblue" d="M286.448,-97.5C297.536,-97.5 309.347,-97.5 321.07,-97.5"/>
<polygon fill="midnightblue" stroke="midnightblue" points="321.329,-101 331.329,-97.5 321.329,-94.0001 321.329,-101"/>
</g>
<!-- Node6 -->
<g id="node6" class="node"><title>Node6</title>
<g id="a_node6"><a xlink:href="../../dd/deb/class_t_m_c2130_stepper.html#a0673af4887ec52b23aa658aa290f6623" target="_top" xlink:title=" ">
<polygon fill="white" stroke="black" points="529,-28 529,-47 659,-47 659,-28 529,-28"/>
<text text-anchor="middle" x="594" y="-35" font-family="Helvetica,sans-Serif" font-size="10.00">TMC2130Stepper::transfer</text>
</a>
</g>
</g>
<!-- Node2&#45;&gt;Node6 -->
<g id="edge5" class="edge"><title>Node2&#45;&gt;Node6</title>
<path fill="none" stroke="midnightblue" d="M272.859,-87.964C288.391,-84.787 305.932,-81.3376 322,-78.5 388.39,-66.7755 464.302,-55.4704 518.859,-47.7117"/>
<polygon fill="midnightblue" stroke="midnightblue" points="519.381,-51.1729 528.791,-46.3049 518.399,-44.2421 519.381,-51.1729"/>
</g>
<!-- Node8 -->
<g id="node8" class="node"><title>Node8</title>
<g id="a_node8"><a xlink:href="../../dd/deb/class_t_m_c2130_stepper.html#aba94fc7bb8e2c8c12191f44561f19d95" target="_top" xlink:title=" ">
<polygon fill="white" stroke="black" points="342.5,-0.5 342.5,-30.5 472.5,-30.5 472.5,-0.5 342.5,-0.5"/>
<text text-anchor="start" x="350.5" y="-18.5" font-family="Helvetica,sans-Serif" font-size="10.00">TMC2130Stepper::transfer</text>
<text text-anchor="middle" x="407.5" y="-7.5" font-family="Helvetica,sans-Serif" font-size="10.00">EmptyBytes</text>
</a>
</g>
</g>
<!-- Node2&#45;&gt;Node8 -->
<g id="edge7" class="edge"><title>Node2&#45;&gt;Node8</title>
<path fill="none" stroke="midnightblue" d="M243.559,-87.8524C261.877,-76.7413 293.432,-58.368 322,-45.5 331.049,-41.4242 340.831,-37.5179 350.42,-33.9495"/>
<polygon fill="midnightblue" stroke="midnightblue" points="351.707,-37.2056 359.91,-30.5 349.316,-30.6267 351.707,-37.2056"/>
</g>
<!-- Node7 -->
<g id="node7" class="node"><title>Node7</title>
<g id="a_node7"><a xlink:href="../../df/d8b/class_s_w___s_p_i_class.html#af260fdc0af3f1312b106483161e559c3" target="_top" xlink:title=" ">
<polygon fill="white" stroke="black" points="695,-28 695,-47 812,-47 812,-28 695,-28"/>
<text text-anchor="middle" x="753.5" y="-35" font-family="Helvetica,sans-Serif" font-size="10.00">SW_SPIClass::transfer</text>
</a>
</g>
</g>
<!-- Node6&#45;&gt;Node7 -->
<g id="edge6" class="edge"><title>Node6&#45;&gt;Node7</title>
<path fill="none" stroke="midnightblue" d="M659.061,-37.5C667.477,-37.5 676.125,-37.5 684.603,-37.5"/>
<polygon fill="midnightblue" stroke="midnightblue" points="684.831,-41.0001 694.831,-37.5 684.831,-34.0001 684.831,-41.0001"/>
</g>
<!-- Node8&#45;&gt;Node6 -->
<g id="edge8" class="edge"><title>Node8&#45;&gt;Node6</title>
<path fill="none" stroke="midnightblue" d="M472.511,-23.1328C487.452,-24.9144 503.487,-26.8263 518.827,-28.6556"/>
<polygon fill="midnightblue" stroke="midnightblue" points="518.445,-32.1347 528.79,-29.8435 519.274,-25.184 518.445,-32.1347"/>
</g>
</g>
</svg>
