<?xml version="1.0" encoding="UTF-8" standalone="no"?>
<!DOCTYPE svg PUBLIC "-//W3C//DTD SVG 1.1//EN"
 "http://www.w3.org/Graphics/SVG/1.1/DTD/svg11.dtd">
<!-- Generated by graphviz version 2.38.0 (20140413.2041)
 -->
<!-- Title: TMC2130Stepper::intpol Pages: 1 -->
<svg width="1152pt" height="192pt"
 viewBox="0.00 0.00 1152.00 191.50" xmlns="http://www.w3.org/2000/svg" xmlns:xlink="http://www.w3.org/1999/xlink">
<g id="graph0" class="graph" transform="scale(1 1) rotate(0) translate(4 187.5)">
<title>TMC2130Stepper::intpol</title>
<polygon fill="white" stroke="none" points="-4,4 -4,-187.5 1148,-187.5 1148,4 -4,4"/>
<!-- Node1 -->
<g id="node1" class="node"><title>Node1</title>
<g id="a_node1"><a xlink:title=" ">
<polygon fill="#bfbfbf" stroke="black" points="0,-88 0,-107 121,-107 121,-88 0,-88"/>
<text text-anchor="middle" x="60.5" y="-95" font-family="Helvetica,sans-Serif" font-size="10.00">TMC2130Stepper::intpol</text>
</a>
</g>
</g>
<!-- Node2 -->
<g id="node2" class="node"><title>Node2</title>
<g id="a_node2"><a xlink:href="../../dd/deb/class_t_m_c2130_stepper.html#a546ad69c482d0d33621fac89078966e1" target="_top" xlink:title=" ">
<polygon fill="white" stroke="black" points="157,-88 157,-107 278,-107 278,-88 157,-88"/>
<text text-anchor="middle" x="217.5" y="-95" font-family="Helvetica,sans-Serif" font-size="10.00">TMC2130Stepper::intpol</text>
</a>
</g>
</g>
<!-- Node1&#45;&gt;Node2 -->
<g id="edge1" class="edge"><title>Node1&#45;&gt;Node2</title>
<path fill="none" stroke="midnightblue" d="M121.427,-97.5C129.724,-97.5 138.305,-97.5 146.762,-97.5"/>
<polygon fill="midnightblue" stroke="midnightblue" points="146.988,-101 156.988,-97.5 146.988,-94.0001 146.988,-101"/>
</g>
<!-- Node3 -->
<g id="node3" class="node"><title>Node3</title>
<g id="a_node3"><a xlink:href="../../dd/deb/class_t_m_c2130_stepper.html#a67541b27d97ce45f175e9f6e4a2d0bff" target="_top" xlink:title=" ">
<polygon fill="white" stroke="black" points="314,-88 314,-107 466,-107 466,-88 314,-88"/>
<text text-anchor="middle" x="390" y="-95" font-family="Helvetica,sans-Serif" font-size="10.00">TMC2130Stepper::CHOPCONF</text>
</a>
</g>
</g>
<!-- Node2&#45;&gt;Node3 -->
<g id="edge2" class="edge"><title>Node2&#45;&gt;Node3</title>
<path fill="none" stroke="midnightblue" d="M278.133,-97.5C286.415,-97.5 295.053,-97.5 303.692,-97.5"/>
<polygon fill="midnightblue" stroke="midnightblue" points="303.813,-101 313.813,-97.5 303.813,-94.0001 303.813,-101"/>
</g>
<!-- Node4 -->
<g id="node4" class="node"><title>Node4</title>
<g id="a_node4"><a xlink:href="../../dd/deb/class_t_m_c2130_stepper.html#a161ca6ebe3736454e17e9236572a6001" target="_top" xlink:title=" ">
<polygon fill="white" stroke="black" points="502,-88 502,-107 618,-107 618,-88 502,-88"/>
<text text-anchor="middle" x="560" y="-95" font-family="Helvetica,sans-Serif" font-size="10.00">TMC2130Stepper::read</text>
</a>
</g>
</g>
<!-- Node3&#45;&gt;Node4 -->
<g id="edge3" class="edge"><title>Node3&#45;&gt;Node4</title>
<path fill="none" stroke="midnightblue" d="M466.155,-97.5C474.664,-97.5 483.296,-97.5 491.696,-97.5"/>
<polygon fill="midnightblue" stroke="midnightblue" points="491.802,-101 501.802,-97.5 491.802,-94.0001 491.802,-101"/>
</g>
<!-- Node5 -->
<g id="node5" class="node"><title>Node5</title>
<g id="a_node5"><a xlink:href="../../dd/deb/class_t_m_c2130_stepper.html#a1fc868601a32fb0cd8fc536dafa8ecea" target="_top" xlink:title=" ">
<polygon fill="white" stroke="black" points="654,-164 654,-183 825,-183 825,-164 654,-164"/>
<text text-anchor="middle" x="739.5" y="-171" font-family="Helvetica,sans-Serif" font-size="10.00">TMC2130Stepper::beginTransaction</text>
</a>
</g>
</g>
<!-- Node4&#45;&gt;Node5 -->
<g id="edge4" class="edge"><title>Node4&#45;&gt;Node5</title>
<path fill="none" stroke="midnightblue" d="M573.522,-107.048C590.741,-119.725 623.117,-141.967 654,-154.5 660.272,-157.045 666.951,-159.283 673.7,-161.242"/>
<polygon fill="midnightblue" stroke="midnightblue" points="673.032,-164.687 683.599,-163.918 674.858,-157.93 673.032,-164.687"/>
</g>
<!-- Node6 -->
<g id="node6" class="node"><title>Node6</title>
<g id="a_node6"><a xlink:href="../../dd/deb/class_t_m_c2130_stepper.html#aeace18dcee808585dd4449e783811600" target="_top" xlink:title=" ">
<polygon fill="white" stroke="black" points="657.5,-126 657.5,-145 821.5,-145 821.5,-126 657.5,-126"/>
<text text-anchor="middle" x="739.5" y="-133" font-family="Helvetica,sans-Serif" font-size="10.00">TMC2130Stepper::endTransaction</text>
</a>
</g>
</g>
<!-- Node4&#45;&gt;Node6 -->
<g id="edge5" class="edge"><title>Node4&#45;&gt;Node6</title>
<path fill="none" stroke="midnightblue" d="M605.791,-107.089C629.53,-112.171 658.884,-118.455 683.944,-123.82"/>
<polygon fill="midnightblue" stroke="midnightblue" points="683.52,-127.309 694.031,-125.98 684.986,-120.464 683.52,-127.309"/>
</g>
<!-- Node7 -->
<g id="node7" class="node"><title>Node7</title>
<g id="a_node7"><a xlink:href="../../dd/deb/class_t_m_c2130_stepper.html#a4a8f3b6ac100045ed5f84fe4d18d9d5a" target="_top" xlink:title=" ">
<polygon fill="white" stroke="black" points="663.5,-88 663.5,-107 815.5,-107 815.5,-88 663.5,-88"/>
<text text-anchor="middle" x="739.5" y="-95" font-family="Helvetica,sans-Serif" font-size="10.00">TMC2130Stepper::switchCSpin</text>
</a>
</g>
</g>
<!-- Node4&#45;&gt;Node7 -->
<g id="edge6" class="edge"><title>Node4&#45;&gt;Node7</title>
<path fill="none" stroke="midnightblue" d="M618.139,-97.5C629.27,-97.5 641.163,-97.5 652.981,-97.5"/>
<polygon fill="midnightblue" stroke="midnightblue" points="653.325,-101 663.325,-97.5 653.324,-94.0001 653.325,-101"/>
</g>
<!-- Node8 -->
<g id="node8" class="node"><title>Node8</title>
<g id="a_node8"><a xlink:href="../../dd/deb/class_t_m_c2130_stepper.html#a0673af4887ec52b23aa658aa290f6623" target="_top" xlink:title=" ">
<polygon fill="white" stroke="black" points="861,-28 861,-47 991,-47 991,-28 861,-28"/>
<text text-anchor="middle" x="926" y="-35" font-family="Helvetica,sans-Serif" font-size="10.00">TMC2130Stepper::transfer</text>
</a>
</g>
</g>
<!-- Node4&#45;&gt;Node8 -->
<g id="edge7" class="edge"><title>Node4&#45;&gt;Node8</title>
<path fill="none" stroke="midnightblue" d="M605.378,-87.9498C620.744,-84.7717 638.099,-81.3252 654,-78.5 720.378,-66.7062 796.291,-55.4085 850.852,-47.6702"/>
<polygon fill="midnightblue" stroke="midnightblue" points="851.372,-51.1316 860.784,-46.2674 850.393,-44.2004 851.372,-51.1316"/>
</g>
<!-- Node10 -->
<g id="node10" class="node"><title>Node10</title>
<g id="a_node10"><a xlink:href="../../dd/deb/class_t_m_c2130_stepper.html#aba94fc7bb8e2c8c12191f44561f19d95" target="_top" xlink:title=" ">
<polygon fill="white" stroke="black" points="674.5,-0.5 674.5,-30.5 804.5,-30.5 804.5,-0.5 674.5,-0.5"/>
<text text-anchor="start" x="682.5" y="-18.5" font-family="Helvetica,sans-Serif" font-size="10.00">TMC2130Stepper::transfer</text>
<text text-anchor="middle" x="739.5" y="-7.5" font-family="Helvetica,sans-Serif" font-size="10.00">EmptyBytes</text>
</a>
</g>
</g>
<!-- Node4&#45;&gt;Node10 -->
<g id="edge9" class="edge"><title>Node4&#45;&gt;Node10</title>
<path fill="none" stroke="midnightblue" d="M576.378,-87.8381C594.488,-76.7136 625.694,-58.3277 654,-45.5 662.84,-41.494 672.386,-37.66 681.769,-34.1517"/>
<polygon fill="midnightblue" stroke="midnightblue" points="683.257,-37.3346 691.453,-30.6201 680.859,-30.7583 683.257,-37.3346"/>
</g>
<!-- Node9 -->
<g id="node9" class="node"><title>Node9</title>
<g id="a_node9"><a xlink:href="../../df/d8b/class_s_w___s_p_i_class.html#af260fdc0af3f1312b106483161e559c3" target="_top" xlink:title=" ">
<polygon fill="white" stroke="black" points="1027,-28 1027,-47 1144,-47 1144,-28 1027,-28"/>
<text text-anchor="middle" x="1085.5" y="-35" font-family="Helvetica,sans-Serif" font-size="10.00">SW_SPIClass::transfer</text>
</a>
</g>
</g>
<!-- Node8&#45;&gt;Node9 -->
<g id="edge8" class="edge"><title>Node8&#45;&gt;Node9</title>
<path fill="none" stroke="midnightblue" d="M991.061,-37.5C999.477,-37.5 1008.13,-37.5 1016.6,-37.5"/>
<polygon fill="midnightblue" stroke="midnightblue" points="1016.83,-41.0001 1026.83,-37.5 1016.83,-34.0001 1016.83,-41.0001"/>
</g>
<!-- Node10&#45;&gt;Node8 -->
<g id="edge10" class="edge"><title>Node10&#45;&gt;Node8</title>
<path fill="none" stroke="midnightblue" d="M804.511,-23.1328C819.452,-24.9144 835.487,-26.8263 850.827,-28.6556"/>
<polygon fill="midnightblue" stroke="midnightblue" points="850.445,-32.1347 860.79,-29.8435 851.274,-25.184 850.445,-32.1347"/>
</g>
</g>
</svg>
