<?xml version="1.0" encoding="UTF-8" standalone="no"?>
<!DOCTYPE svg PUBLIC "-//W3C//DTD SVG 1.1//EN"
 "http://www.w3.org/Graphics/SVG/1.1/DTD/svg11.dtd">
<!-- Generated by graphviz version 2.38.0 (20140413.2041)
 -->
<!-- Title: TMC2130Stepper::enc_commutation Pages: 1 -->
<svg width="967pt" height="192pt"
 viewBox="0.00 0.00 967.00 191.50" xmlns="http://www.w3.org/2000/svg" xmlns:xlink="http://www.w3.org/1999/xlink">
<g id="graph0" class="graph" transform="scale(1 1) rotate(0) translate(4 187.5)">
<title>TMC2130Stepper::enc_commutation</title>
<polygon fill="white" stroke="none" points="-4,4 -4,-187.5 963,-187.5 963,4 -4,4"/>
<!-- Node1 -->
<g id="node1" class="node"><title>Node1</title>
<g id="a_node1"><a xlink:title=" ">
<polygon fill="#bfbfbf" stroke="black" points="0,-82.5 0,-112.5 113,-112.5 113,-82.5 0,-82.5"/>
<text text-anchor="start" x="8" y="-100.5" font-family="Helvetica,sans-Serif" font-size="10.00">TMC2130Stepper::enc</text>
<text text-anchor="middle" x="56.5" y="-89.5" font-family="Helvetica,sans-Serif" font-size="10.00">_commutation</text>
</a>
</g>
</g>
<!-- Node2 -->
<g id="node2" class="node"><title>Node2</title>
<g id="a_node2"><a xlink:href="../../dd/deb/class_t_m_c2130_stepper.html#aee84a9abfc84b387c6ae5658f90bf684" target="_top" xlink:title=" ">
<polygon fill="white" stroke="black" points="149,-88 149,-107 281,-107 281,-88 149,-88"/>
<text text-anchor="middle" x="215" y="-95" font-family="Helvetica,sans-Serif" font-size="10.00">TMC2130Stepper::GCONF</text>
</a>
</g>
</g>
<!-- Node1&#45;&gt;Node2 -->
<g id="edge1" class="edge"><title>Node1&#45;&gt;Node2</title>
<path fill="none" stroke="midnightblue" d="M113.117,-97.5C121.452,-97.5 130.162,-97.5 138.822,-97.5"/>
<polygon fill="midnightblue" stroke="midnightblue" points="138.94,-101 148.94,-97.5 138.94,-94.0001 138.94,-101"/>
</g>
<!-- Node3 -->
<g id="node3" class="node"><title>Node3</title>
<g id="a_node3"><a xlink:href="../../dd/deb/class_t_m_c2130_stepper.html#a161ca6ebe3736454e17e9236572a6001" target="_top" xlink:title=" ">
<polygon fill="white" stroke="black" points="317,-88 317,-107 433,-107 433,-88 317,-88"/>
<text text-anchor="middle" x="375" y="-95" font-family="Helvetica,sans-Serif" font-size="10.00">TMC2130Stepper::read</text>
</a>
</g>
</g>
<!-- Node2&#45;&gt;Node3 -->
<g id="edge2" class="edge"><title>Node2&#45;&gt;Node3</title>
<path fill="none" stroke="midnightblue" d="M281.177,-97.5C289.517,-97.5 298.069,-97.5 306.445,-97.5"/>
<polygon fill="midnightblue" stroke="midnightblue" points="306.55,-101 316.55,-97.5 306.55,-94.0001 306.55,-101"/>
</g>
<!-- Node4 -->
<g id="node4" class="node"><title>Node4</title>
<g id="a_node4"><a xlink:href="../../dd/deb/class_t_m_c2130_stepper.html#a1fc868601a32fb0cd8fc536dafa8ecea" target="_top" xlink:title=" ">
<polygon fill="white" stroke="black" points="469,-164 469,-183 640,-183 640,-164 469,-164"/>
<text text-anchor="middle" x="554.5" y="-171" font-family="Helvetica,sans-Serif" font-size="10.00">TMC2130Stepper::beginTransaction</text>
</a>
</g>
</g>
<!-- Node3&#45;&gt;Node4 -->
<g id="edge3" class="edge"><title>Node3&#45;&gt;Node4</title>
<path fill="none" stroke="midnightblue" d="M388.522,-107.048C405.741,-119.725 438.117,-141.967 469,-154.5 475.272,-157.045 481.951,-159.283 488.7,-161.242"/>
<polygon fill="midnightblue" stroke="midnightblue" points="488.032,-164.687 498.599,-163.918 489.858,-157.93 488.032,-164.687"/>
</g>
<!-- Node5 -->
<g id="node5" class="node"><title>Node5</title>
<g id="a_node5"><a xlink:href="../../dd/deb/class_t_m_c2130_stepper.html#aeace18dcee808585dd4449e783811600" target="_top" xlink:title=" ">
<polygon fill="white" stroke="black" points="472.5,-126 472.5,-145 636.5,-145 636.5,-126 472.5,-126"/>
<text text-anchor="middle" x="554.5" y="-133" font-family="Helvetica,sans-Serif" font-size="10.00">TMC2130Stepper::endTransaction</text>
</a>
</g>
</g>
<!-- Node3&#45;&gt;Node5 -->
<g id="edge4" class="edge"><title>Node3&#45;&gt;Node5</title>
<path fill="none" stroke="midnightblue" d="M420.791,-107.089C444.53,-112.171 473.884,-118.455 498.944,-123.82"/>
<polygon fill="midnightblue" stroke="midnightblue" points="498.52,-127.309 509.031,-125.98 499.986,-120.464 498.52,-127.309"/>
</g>
<!-- Node6 -->
<g id="node6" class="node"><title>Node6</title>
<g id="a_node6"><a xlink:href="../../dd/deb/class_t_m_c2130_stepper.html#a4a8f3b6ac100045ed5f84fe4d18d9d5a" target="_top" xlink:title=" ">
<polygon fill="white" stroke="black" points="478.5,-88 478.5,-107 630.5,-107 630.5,-88 478.5,-88"/>
<text text-anchor="middle" x="554.5" y="-95" font-family="Helvetica,sans-Serif" font-size="10.00">TMC2130Stepper::switchCSpin</text>
</a>
</g>
</g>
<!-- Node3&#45;&gt;Node6 -->
<g id="edge5" class="edge"><title>Node3&#45;&gt;Node6</title>
<path fill="none" stroke="midnightblue" d="M433.139,-97.5C444.27,-97.5 456.163,-97.5 467.981,-97.5"/>
<polygon fill="midnightblue" stroke="midnightblue" points="468.325,-101 478.325,-97.5 468.324,-94.0001 468.325,-101"/>
</g>
<!-- Node7 -->
<g id="node7" class="node"><title>Node7</title>
<g id="a_node7"><a xlink:href="../../dd/deb/class_t_m_c2130_stepper.html#a0673af4887ec52b23aa658aa290f6623" target="_top" xlink:title=" ">
<polygon fill="white" stroke="black" points="676,-28 676,-47 806,-47 806,-28 676,-28"/>
<text text-anchor="middle" x="741" y="-35" font-family="Helvetica,sans-Serif" font-size="10.00">TMC2130Stepper::transfer</text>
</a>
</g>
</g>
<!-- Node3&#45;&gt;Node7 -->
<g id="edge6" class="edge"><title>Node3&#45;&gt;Node7</title>
<path fill="none" stroke="midnightblue" d="M420.378,-87.9498C435.744,-84.7717 453.099,-81.3252 469,-78.5 535.378,-66.7062 611.291,-55.4085 665.852,-47.6702"/>
<polygon fill="midnightblue" stroke="midnightblue" points="666.372,-51.1316 675.784,-46.2674 665.393,-44.2004 666.372,-51.1316"/>
</g>
<!-- Node9 -->
<g id="node9" class="node"><title>Node9</title>
<g id="a_node9"><a xlink:href="../../dd/deb/class_t_m_c2130_stepper.html#aba94fc7bb8e2c8c12191f44561f19d95" target="_top" xlink:title=" ">
<polygon fill="white" stroke="black" points="489.5,-0.5 489.5,-30.5 619.5,-30.5 619.5,-0.5 489.5,-0.5"/>
<text text-anchor="start" x="497.5" y="-18.5" font-family="Helvetica,sans-Serif" font-size="10.00">TMC2130Stepper::transfer</text>
<text text-anchor="middle" x="554.5" y="-7.5" font-family="Helvetica,sans-Serif" font-size="10.00">EmptyBytes</text>
</a>
</g>
</g>
<!-- Node3&#45;&gt;Node9 -->
<g id="edge8" class="edge"><title>Node3&#45;&gt;Node9</title>
<path fill="none" stroke="midnightblue" d="M391.378,-87.8381C409.488,-76.7136 440.694,-58.3277 469,-45.5 477.84,-41.494 487.386,-37.66 496.769,-34.1517"/>
<polygon fill="midnightblue" stroke="midnightblue" points="498.257,-37.3346 506.453,-30.6201 495.859,-30.7583 498.257,-37.3346"/>
</g>
<!-- Node8 -->
<g id="node8" class="node"><title>Node8</title>
<g id="a_node8"><a xlink:href="../../df/d8b/class_s_w___s_p_i_class.html#af260fdc0af3f1312b106483161e559c3" target="_top" xlink:title=" ">
<polygon fill="white" stroke="black" points="842,-28 842,-47 959,-47 959,-28 842,-28"/>
<text text-anchor="middle" x="900.5" y="-35" font-family="Helvetica,sans-Serif" font-size="10.00">SW_SPIClass::transfer</text>
</a>
</g>
</g>
<!-- Node7&#45;&gt;Node8 -->
<g id="edge7" class="edge"><title>Node7&#45;&gt;Node8</title>
<path fill="none" stroke="midnightblue" d="M806.061,-37.5C814.477,-37.5 823.125,-37.5 831.603,-37.5"/>
<polygon fill="midnightblue" stroke="midnightblue" points="831.831,-41.0001 841.831,-37.5 831.831,-34.0001 831.831,-41.0001"/>
</g>
<!-- Node9&#45;&gt;Node7 -->
<g id="edge9" class="edge"><title>Node9&#45;&gt;Node7</title>
<path fill="none" stroke="midnightblue" d="M619.511,-23.1328C634.452,-24.9144 650.487,-26.8263 665.827,-28.6556"/>
<polygon fill="midnightblue" stroke="midnightblue" points="665.445,-32.1347 675.79,-29.8435 666.274,-25.184 665.445,-32.1347"/>
</g>
</g>
</svg>
