<?xml version="1.0" encoding="UTF-8" standalone="no"?>
<!DOCTYPE svg PUBLIC "-//W3C//DTD SVG 1.1//EN"
 "http://www.w3.org/Graphics/SVG/1.1/DTD/svg11.dtd">
<!-- Generated by graphviz version 2.38.0 (20140413.2041)
 -->
<!-- Title: TMC2130Stepper::dedge Pages: 1 -->
<svg width="1158pt" height="192pt"
 viewBox="0.00 0.00 1158.00 191.50" xmlns="http://www.w3.org/2000/svg" xmlns:xlink="http://www.w3.org/1999/xlink">
<g id="graph0" class="graph" transform="scale(1 1) rotate(0) translate(4 187.5)">
<title>TMC2130Stepper::dedge</title>
<polygon fill="white" stroke="none" points="-4,4 -4,-187.5 1154,-187.5 1154,4 -4,4"/>
<!-- Node1 -->
<g id="node1" class="node"><title>Node1</title>
<g id="a_node1"><a xlink:title=" ">
<polygon fill="#bfbfbf" stroke="black" points="0,-88 0,-107 124,-107 124,-88 0,-88"/>
<text text-anchor="middle" x="62" y="-95" font-family="Helvetica,sans-Serif" font-size="10.00">TMC2130Stepper::dedge</text>
</a>
</g>
</g>
<!-- Node2 -->
<g id="node2" class="node"><title>Node2</title>
<g id="a_node2"><a xlink:href="../../dd/deb/class_t_m_c2130_stepper.html#a4eeb04668c41d5f4b7548b521bb82c8c" target="_top" xlink:title=" ">
<polygon fill="white" stroke="black" points="160,-88 160,-107 284,-107 284,-88 160,-88"/>
<text text-anchor="middle" x="222" y="-95" font-family="Helvetica,sans-Serif" font-size="10.00">TMC2130Stepper::dedge</text>
</a>
</g>
</g>
<!-- Node1&#45;&gt;Node2 -->
<g id="edge1" class="edge"><title>Node1&#45;&gt;Node2</title>
<path fill="none" stroke="midnightblue" d="M124.087,-97.5C132.513,-97.5 141.226,-97.5 149.815,-97.5"/>
<polygon fill="midnightblue" stroke="midnightblue" points="149.815,-101 159.815,-97.5 149.815,-94.0001 149.815,-101"/>
</g>
<!-- Node3 -->
<g id="node3" class="node"><title>Node3</title>
<g id="a_node3"><a xlink:href="../../dd/deb/class_t_m_c2130_stepper.html#a67541b27d97ce45f175e9f6e4a2d0bff" target="_top" xlink:title=" ">
<polygon fill="white" stroke="black" points="320,-88 320,-107 472,-107 472,-88 320,-88"/>
<text text-anchor="middle" x="396" y="-95" font-family="Helvetica,sans-Serif" font-size="10.00">TMC2130Stepper::CHOPCONF</text>
</a>
</g>
</g>
<!-- Node2&#45;&gt;Node3 -->
<g id="edge2" class="edge"><title>Node2&#45;&gt;Node3</title>
<path fill="none" stroke="midnightblue" d="M284.125,-97.5C292.453,-97.5 301.122,-97.5 309.78,-97.5"/>
<polygon fill="midnightblue" stroke="midnightblue" points="309.918,-101 319.918,-97.5 309.918,-94.0001 309.918,-101"/>
</g>
<!-- Node4 -->
<g id="node4" class="node"><title>Node4</title>
<g id="a_node4"><a xlink:href="../../dd/deb/class_t_m_c2130_stepper.html#a161ca6ebe3736454e17e9236572a6001" target="_top" xlink:title=" ">
<polygon fill="white" stroke="black" points="508,-88 508,-107 624,-107 624,-88 508,-88"/>
<text text-anchor="middle" x="566" y="-95" font-family="Helvetica,sans-Serif" font-size="10.00">TMC2130Stepper::read</text>
</a>
</g>
</g>
<!-- Node3&#45;&gt;Node4 -->
<g id="edge3" class="edge"><title>Node3&#45;&gt;Node4</title>
<path fill="none" stroke="midnightblue" d="M472.155,-97.5C480.664,-97.5 489.296,-97.5 497.696,-97.5"/>
<polygon fill="midnightblue" stroke="midnightblue" points="497.802,-101 507.802,-97.5 497.802,-94.0001 497.802,-101"/>
</g>
<!-- Node5 -->
<g id="node5" class="node"><title>Node5</title>
<g id="a_node5"><a xlink:href="../../dd/deb/class_t_m_c2130_stepper.html#a1fc868601a32fb0cd8fc536dafa8ecea" target="_top" xlink:title=" ">
<polygon fill="white" stroke="black" points="660,-164 660,-183 831,-183 831,-164 660,-164"/>
<text text-anchor="middle" x="745.5" y="-171" font-family="Helvetica,sans-Serif" font-size="10.00">TMC2130Stepper::beginTransaction</text>
</a>
</g>
</g>
<!-- Node4&#45;&gt;Node5 -->
<g id="edge4" class="edge"><title>Node4&#45;&gt;Node5</title>
<path fill="none" stroke="midnightblue" d="M579.522,-107.048C596.741,-119.725 629.117,-141.967 660,-154.5 666.272,-157.045 672.951,-159.283 679.7,-161.242"/>
<polygon fill="midnightblue" stroke="midnightblue" points="679.032,-164.687 689.599,-163.918 680.858,-157.93 679.032,-164.687"/>
</g>
<!-- Node6 -->
<g id="node6" class="node"><title>Node6</title>
<g id="a_node6"><a xlink:href="../../dd/deb/class_t_m_c2130_stepper.html#aeace18dcee808585dd4449e783811600" target="_top" xlink:title=" ">
<polygon fill="white" stroke="black" points="663.5,-126 663.5,-145 827.5,-145 827.5,-126 663.5,-126"/>
<text text-anchor="middle" x="745.5" y="-133" font-family="Helvetica,sans-Serif" font-size="10.00">TMC2130Stepper::endTransaction</text>
</a>
</g>
</g>
<!-- Node4&#45;&gt;Node6 -->
<g id="edge5" class="edge"><title>Node4&#45;&gt;Node6</title>
<path fill="none" stroke="midnightblue" d="M611.791,-107.089C635.53,-112.171 664.884,-118.455 689.944,-123.82"/>
<polygon fill="midnightblue" stroke="midnightblue" points="689.52,-127.309 700.031,-125.98 690.986,-120.464 689.52,-127.309"/>
</g>
<!-- Node7 -->
<g id="node7" class="node"><title>Node7</title>
<g id="a_node7"><a xlink:href="../../dd/deb/class_t_m_c2130_stepper.html#a4a8f3b6ac100045ed5f84fe4d18d9d5a" target="_top" xlink:title=" ">
<polygon fill="white" stroke="black" points="669.5,-88 669.5,-107 821.5,-107 821.5,-88 669.5,-88"/>
<text text-anchor="middle" x="745.5" y="-95" font-family="Helvetica,sans-Serif" font-size="10.00">TMC2130Stepper::switchCSpin</text>
</a>
</g>
</g>
<!-- Node4&#45;&gt;Node7 -->
<g id="edge6" class="edge"><title>Node4&#45;&gt;Node7</title>
<path fill="none" stroke="midnightblue" d="M624.139,-97.5C635.27,-97.5 647.163,-97.5 658.981,-97.5"/>
<polygon fill="midnightblue" stroke="midnightblue" points="659.325,-101 669.325,-97.5 659.324,-94.0001 659.325,-101"/>
</g>
<!-- Node8 -->
<g id="node8" class="node"><title>Node8</title>
<g id="a_node8"><a xlink:href="../../dd/deb/class_t_m_c2130_stepper.html#a0673af4887ec52b23aa658aa290f6623" target="_top" xlink:title=" ">
<polygon fill="white" stroke="black" points="867,-28 867,-47 997,-47 997,-28 867,-28"/>
<text text-anchor="middle" x="932" y="-35" font-family="Helvetica,sans-Serif" font-size="10.00">TMC2130Stepper::transfer</text>
</a>
</g>
</g>
<!-- Node4&#45;&gt;Node8 -->
<g id="edge7" class="edge"><title>Node4&#45;&gt;Node8</title>
<path fill="none" stroke="midnightblue" d="M611.378,-87.9498C626.744,-84.7717 644.099,-81.3252 660,-78.5 726.378,-66.7062 802.291,-55.4085 856.852,-47.6702"/>
<polygon fill="midnightblue" stroke="midnightblue" points="857.372,-51.1316 866.784,-46.2674 856.393,-44.2004 857.372,-51.1316"/>
</g>
<!-- Node10 -->
<g id="node10" class="node"><title>Node10</title>
<g id="a_node10"><a xlink:href="../../dd/deb/class_t_m_c2130_stepper.html#aba94fc7bb8e2c8c12191f44561f19d95" target="_top" xlink:title=" ">
<polygon fill="white" stroke="black" points="680.5,-0.5 680.5,-30.5 810.5,-30.5 810.5,-0.5 680.5,-0.5"/>
<text text-anchor="start" x="688.5" y="-18.5" font-family="Helvetica,sans-Serif" font-size="10.00">TMC2130Stepper::transfer</text>
<text text-anchor="middle" x="745.5" y="-7.5" font-family="Helvetica,sans-Serif" font-size="10.00">EmptyBytes</text>
</a>
</g>
</g>
<!-- Node4&#45;&gt;Node10 -->
<g id="edge9" class="edge"><title>Node4&#45;&gt;Node10</title>
<path fill="none" stroke="midnightblue" d="M582.378,-87.8381C600.488,-76.7136 631.694,-58.3277 660,-45.5 668.84,-41.494 678.386,-37.66 687.769,-34.1517"/>
<polygon fill="midnightblue" stroke="midnightblue" points="689.257,-37.3346 697.453,-30.6201 686.859,-30.7583 689.257,-37.3346"/>
</g>
<!-- Node9 -->
<g id="node9" class="node"><title>Node9</title>
<g id="a_node9"><a xlink:href="../../df/d8b/class_s_w___s_p_i_class.html#af260fdc0af3f1312b106483161e559c3" target="_top" xlink:title=" ">
<polygon fill="white" stroke="black" points="1033,-28 1033,-47 1150,-47 1150,-28 1033,-28"/>
<text text-anchor="middle" x="1091.5" y="-35" font-family="Helvetica,sans-Serif" font-size="10.00">SW_SPIClass::transfer</text>
</a>
</g>
</g>
<!-- Node8&#45;&gt;Node9 -->
<g id="edge8" class="edge"><title>Node8&#45;&gt;Node9</title>
<path fill="none" stroke="midnightblue" d="M997.061,-37.5C1005.48,-37.5 1014.13,-37.5 1022.6,-37.5"/>
<polygon fill="midnightblue" stroke="midnightblue" points="1022.83,-41.0001 1032.83,-37.5 1022.83,-34.0001 1022.83,-41.0001"/>
</g>
<!-- Node10&#45;&gt;Node8 -->
<g id="edge10" class="edge"><title>Node10&#45;&gt;Node8</title>
<path fill="none" stroke="midnightblue" d="M810.511,-23.1328C825.452,-24.9144 841.487,-26.8263 856.827,-28.6556"/>
<polygon fill="midnightblue" stroke="midnightblue" points="856.445,-32.1347 866.79,-29.8435 857.274,-25.184 856.445,-32.1347"/>
</g>
</g>
</svg>
