<?xml version="1.0" encoding="UTF-8" standalone="no"?>
<!DOCTYPE svg PUBLIC "-//W3C//DTD SVG 1.1//EN"
 "http://www.w3.org/Graphics/SVG/1.1/DTD/svg11.dtd">
<!-- Generated by graphviz version 2.38.0 (20140413.2041)
 -->
<!-- Title: TMC2130Stepper::vsense Pages: 1 -->
<svg width="1002pt" height="192pt"
 viewBox="0.00 0.00 1002.00 191.50" xmlns="http://www.w3.org/2000/svg" xmlns:xlink="http://www.w3.org/1999/xlink">
<g id="graph0" class="graph" transform="scale(1 1) rotate(0) translate(4 187.5)">
<title>TMC2130Stepper::vsense</title>
<polygon fill="white" stroke="none" points="-4,4 -4,-187.5 998,-187.5 998,4 -4,4"/>
<!-- Node1 -->
<g id="node1" class="node"><title>Node1</title>
<g id="a_node1"><a xlink:title=" ">
<polygon fill="#bfbfbf" stroke="black" points="0,-88 0,-107 128,-107 128,-88 0,-88"/>
<text text-anchor="middle" x="64" y="-95" font-family="Helvetica,sans-Serif" font-size="10.00">TMC2130Stepper::vsense</text>
</a>
</g>
</g>
<!-- Node2 -->
<g id="node2" class="node"><title>Node2</title>
<g id="a_node2"><a xlink:href="../../dd/deb/class_t_m_c2130_stepper.html#a67541b27d97ce45f175e9f6e4a2d0bff" target="_top" xlink:title=" ">
<polygon fill="white" stroke="black" points="164,-88 164,-107 316,-107 316,-88 164,-88"/>
<text text-anchor="middle" x="240" y="-95" font-family="Helvetica,sans-Serif" font-size="10.00">TMC2130Stepper::CHOPCONF</text>
</a>
</g>
</g>
<!-- Node1&#45;&gt;Node2 -->
<g id="edge1" class="edge"><title>Node1&#45;&gt;Node2</title>
<path fill="none" stroke="midnightblue" d="M128.31,-97.5C136.621,-97.5 145.245,-97.5 153.844,-97.5"/>
<polygon fill="midnightblue" stroke="midnightblue" points="153.907,-101 163.907,-97.5 153.907,-94.0001 153.907,-101"/>
</g>
<!-- Node3 -->
<g id="node3" class="node"><title>Node3</title>
<g id="a_node3"><a xlink:href="../../dd/deb/class_t_m_c2130_stepper.html#a161ca6ebe3736454e17e9236572a6001" target="_top" xlink:title=" ">
<polygon fill="white" stroke="black" points="352,-88 352,-107 468,-107 468,-88 352,-88"/>
<text text-anchor="middle" x="410" y="-95" font-family="Helvetica,sans-Serif" font-size="10.00">TMC2130Stepper::read</text>
</a>
</g>
</g>
<!-- Node2&#45;&gt;Node3 -->
<g id="edge2" class="edge"><title>Node2&#45;&gt;Node3</title>
<path fill="none" stroke="midnightblue" d="M316.155,-97.5C324.664,-97.5 333.296,-97.5 341.696,-97.5"/>
<polygon fill="midnightblue" stroke="midnightblue" points="341.802,-101 351.802,-97.5 341.802,-94.0001 341.802,-101"/>
</g>
<!-- Node4 -->
<g id="node4" class="node"><title>Node4</title>
<g id="a_node4"><a xlink:href="../../dd/deb/class_t_m_c2130_stepper.html#a1fc868601a32fb0cd8fc536dafa8ecea" target="_top" xlink:title=" ">
<polygon fill="white" stroke="black" points="504,-164 504,-183 675,-183 675,-164 504,-164"/>
<text text-anchor="middle" x="589.5" y="-171" font-family="Helvetica,sans-Serif" font-size="10.00">TMC2130Stepper::beginTransaction</text>
</a>
</g>
</g>
<!-- Node3&#45;&gt;Node4 -->
<g id="edge3" class="edge"><title>Node3&#45;&gt;Node4</title>
<path fill="none" stroke="midnightblue" d="M423.522,-107.048C440.741,-119.725 473.117,-141.967 504,-154.5 510.272,-157.045 516.951,-159.283 523.7,-161.242"/>
<polygon fill="midnightblue" stroke="midnightblue" points="523.032,-164.687 533.599,-163.918 524.858,-157.93 523.032,-164.687"/>
</g>
<!-- Node5 -->
<g id="node5" class="node"><title>Node5</title>
<g id="a_node5"><a xlink:href="../../dd/deb/class_t_m_c2130_stepper.html#aeace18dcee808585dd4449e783811600" target="_top" xlink:title=" ">
<polygon fill="white" stroke="black" points="507.5,-126 507.5,-145 671.5,-145 671.5,-126 507.5,-126"/>
<text text-anchor="middle" x="589.5" y="-133" font-family="Helvetica,sans-Serif" font-size="10.00">TMC2130Stepper::endTransaction</text>
</a>
</g>
</g>
<!-- Node3&#45;&gt;Node5 -->
<g id="edge4" class="edge"><title>Node3&#45;&gt;Node5</title>
<path fill="none" stroke="midnightblue" d="M455.791,-107.089C479.53,-112.171 508.884,-118.455 533.944,-123.82"/>
<polygon fill="midnightblue" stroke="midnightblue" points="533.52,-127.309 544.031,-125.98 534.986,-120.464 533.52,-127.309"/>
</g>
<!-- Node6 -->
<g id="node6" class="node"><title>Node6</title>
<g id="a_node6"><a xlink:href="../../dd/deb/class_t_m_c2130_stepper.html#a4a8f3b6ac100045ed5f84fe4d18d9d5a" target="_top" xlink:title=" ">
<polygon fill="white" stroke="black" points="513.5,-88 513.5,-107 665.5,-107 665.5,-88 513.5,-88"/>
<text text-anchor="middle" x="589.5" y="-95" font-family="Helvetica,sans-Serif" font-size="10.00">TMC2130Stepper::switchCSpin</text>
</a>
</g>
</g>
<!-- Node3&#45;&gt;Node6 -->
<g id="edge5" class="edge"><title>Node3&#45;&gt;Node6</title>
<path fill="none" stroke="midnightblue" d="M468.139,-97.5C479.27,-97.5 491.163,-97.5 502.981,-97.5"/>
<polygon fill="midnightblue" stroke="midnightblue" points="503.325,-101 513.325,-97.5 503.324,-94.0001 503.325,-101"/>
</g>
<!-- Node7 -->
<g id="node7" class="node"><title>Node7</title>
<g id="a_node7"><a xlink:href="../../dd/deb/class_t_m_c2130_stepper.html#a0673af4887ec52b23aa658aa290f6623" target="_top" xlink:title=" ">
<polygon fill="white" stroke="black" points="711,-28 711,-47 841,-47 841,-28 711,-28"/>
<text text-anchor="middle" x="776" y="-35" font-family="Helvetica,sans-Serif" font-size="10.00">TMC2130Stepper::transfer</text>
</a>
</g>
</g>
<!-- Node3&#45;&gt;Node7 -->
<g id="edge6" class="edge"><title>Node3&#45;&gt;Node7</title>
<path fill="none" stroke="midnightblue" d="M455.378,-87.9498C470.744,-84.7717 488.099,-81.3252 504,-78.5 570.378,-66.7062 646.291,-55.4085 700.852,-47.6702"/>
<polygon fill="midnightblue" stroke="midnightblue" points="701.372,-51.1316 710.784,-46.2674 700.393,-44.2004 701.372,-51.1316"/>
</g>
<!-- Node9 -->
<g id="node9" class="node"><title>Node9</title>
<g id="a_node9"><a xlink:href="../../dd/deb/class_t_m_c2130_stepper.html#aba94fc7bb8e2c8c12191f44561f19d95" target="_top" xlink:title=" ">
<polygon fill="white" stroke="black" points="524.5,-0.5 524.5,-30.5 654.5,-30.5 654.5,-0.5 524.5,-0.5"/>
<text text-anchor="start" x="532.5" y="-18.5" font-family="Helvetica,sans-Serif" font-size="10.00">TMC2130Stepper::transfer</text>
<text text-anchor="middle" x="589.5" y="-7.5" font-family="Helvetica,sans-Serif" font-size="10.00">EmptyBytes</text>
</a>
</g>
</g>
<!-- Node3&#45;&gt;Node9 -->
<g id="edge8" class="edge"><title>Node3&#45;&gt;Node9</title>
<path fill="none" stroke="midnightblue" d="M426.378,-87.8381C444.488,-76.7136 475.694,-58.3277 504,-45.5 512.84,-41.494 522.386,-37.66 531.769,-34.1517"/>
<polygon fill="midnightblue" stroke="midnightblue" points="533.257,-37.3346 541.453,-30.6201 530.859,-30.7583 533.257,-37.3346"/>
</g>
<!-- Node8 -->
<g id="node8" class="node"><title>Node8</title>
<g id="a_node8"><a xlink:href="../../df/d8b/class_s_w___s_p_i_class.html#af260fdc0af3f1312b106483161e559c3" target="_top" xlink:title=" ">
<polygon fill="white" stroke="black" points="877,-28 877,-47 994,-47 994,-28 877,-28"/>
<text text-anchor="middle" x="935.5" y="-35" font-family="Helvetica,sans-Serif" font-size="10.00">SW_SPIClass::transfer</text>
</a>
</g>
</g>
<!-- Node7&#45;&gt;Node8 -->
<g id="edge7" class="edge"><title>Node7&#45;&gt;Node8</title>
<path fill="none" stroke="midnightblue" d="M841.061,-37.5C849.477,-37.5 858.125,-37.5 866.603,-37.5"/>
<polygon fill="midnightblue" stroke="midnightblue" points="866.831,-41.0001 876.831,-37.5 866.831,-34.0001 866.831,-41.0001"/>
</g>
<!-- Node9&#45;&gt;Node7 -->
<g id="edge9" class="edge"><title>Node9&#45;&gt;Node7</title>
<path fill="none" stroke="midnightblue" d="M654.511,-23.1328C669.452,-24.9144 685.487,-26.8263 700.827,-28.6556"/>
<polygon fill="midnightblue" stroke="midnightblue" points="700.445,-32.1347 710.79,-29.8435 701.274,-25.184 700.445,-32.1347"/>
</g>
</g>
</svg>
