<?xml version="1.0" encoding="UTF-8" standalone="no"?>
<!DOCTYPE svg PUBLIC "-//W3C//DTD SVG 1.1//EN"
 "http://www.w3.org/Graphics/SVG/1.1/DTD/svg11.dtd">
<!-- Generated by graphviz version 2.38.0 (20140413.2041)
 -->
<!-- Title: TMC2130Stepper::read Pages: 1 -->
<svg width="650pt" height="192pt"
 viewBox="0.00 0.00 650.00 191.50" xmlns="http://www.w3.org/2000/svg" xmlns:xlink="http://www.w3.org/1999/xlink">
<g id="graph0" class="graph" transform="scale(1 1) rotate(0) translate(4 187.5)">
<title>TMC2130Stepper::read</title>
<polygon fill="white" stroke="none" points="-4,4 -4,-187.5 646,-187.5 646,4 -4,4"/>
<!-- Node1 -->
<g id="node1" class="node"><title>Node1</title>
<g id="a_node1"><a xlink:title=" ">
<polygon fill="#bfbfbf" stroke="black" points="0,-88 0,-107 116,-107 116,-88 0,-88"/>
<text text-anchor="middle" x="58" y="-95" font-family="Helvetica,sans-Serif" font-size="10.00">TMC2130Stepper::read</text>
</a>
</g>
</g>
<!-- Node2 -->
<g id="node2" class="node"><title>Node2</title>
<g id="a_node2"><a xlink:href="../../dd/deb/class_t_m_c2130_stepper.html#a1fc868601a32fb0cd8fc536dafa8ecea" target="_top" xlink:title=" ">
<polygon fill="white" stroke="black" points="152,-164 152,-183 323,-183 323,-164 152,-164"/>
<text text-anchor="middle" x="237.5" y="-171" font-family="Helvetica,sans-Serif" font-size="10.00">TMC2130Stepper::beginTransaction</text>
</a>
</g>
</g>
<!-- Node1&#45;&gt;Node2 -->
<g id="edge1" class="edge"><title>Node1&#45;&gt;Node2</title>
<path fill="none" stroke="midnightblue" d="M71.522,-107.048C88.741,-119.725 121.117,-141.967 152,-154.5 158.272,-157.045 164.951,-159.283 171.7,-161.242"/>
<polygon fill="midnightblue" stroke="midnightblue" points="171.032,-164.687 181.599,-163.918 172.858,-157.93 171.032,-164.687"/>
</g>
<!-- Node3 -->
<g id="node3" class="node"><title>Node3</title>
<g id="a_node3"><a xlink:href="../../dd/deb/class_t_m_c2130_stepper.html#aeace18dcee808585dd4449e783811600" target="_top" xlink:title=" ">
<polygon fill="white" stroke="black" points="155.5,-126 155.5,-145 319.5,-145 319.5,-126 155.5,-126"/>
<text text-anchor="middle" x="237.5" y="-133" font-family="Helvetica,sans-Serif" font-size="10.00">TMC2130Stepper::endTransaction</text>
</a>
</g>
</g>
<!-- Node1&#45;&gt;Node3 -->
<g id="edge2" class="edge"><title>Node1&#45;&gt;Node3</title>
<path fill="none" stroke="midnightblue" d="M103.791,-107.089C127.53,-112.171 156.884,-118.455 181.944,-123.82"/>
<polygon fill="midnightblue" stroke="midnightblue" points="181.52,-127.309 192.031,-125.98 182.986,-120.464 181.52,-127.309"/>
</g>
<!-- Node4 -->
<g id="node4" class="node"><title>Node4</title>
<g id="a_node4"><a xlink:href="../../dd/deb/class_t_m_c2130_stepper.html#a4a8f3b6ac100045ed5f84fe4d18d9d5a" target="_top" xlink:title=" ">
<polygon fill="white" stroke="black" points="161.5,-88 161.5,-107 313.5,-107 313.5,-88 161.5,-88"/>
<text text-anchor="middle" x="237.5" y="-95" font-family="Helvetica,sans-Serif" font-size="10.00">TMC2130Stepper::switchCSpin</text>
</a>
</g>
</g>
<!-- Node1&#45;&gt;Node4 -->
<g id="edge3" class="edge"><title>Node1&#45;&gt;Node4</title>
<path fill="none" stroke="midnightblue" d="M116.139,-97.5C127.27,-97.5 139.163,-97.5 150.981,-97.5"/>
<polygon fill="midnightblue" stroke="midnightblue" points="151.325,-101 161.325,-97.5 151.324,-94.0001 151.325,-101"/>
</g>
<!-- Node5 -->
<g id="node5" class="node"><title>Node5</title>
<g id="a_node5"><a xlink:href="../../dd/deb/class_t_m_c2130_stepper.html#a0673af4887ec52b23aa658aa290f6623" target="_top" xlink:title=" ">
<polygon fill="white" stroke="black" points="359,-28 359,-47 489,-47 489,-28 359,-28"/>
<text text-anchor="middle" x="424" y="-35" font-family="Helvetica,sans-Serif" font-size="10.00">TMC2130Stepper::transfer</text>
</a>
</g>
</g>
<!-- Node1&#45;&gt;Node5 -->
<g id="edge4" class="edge"><title>Node1&#45;&gt;Node5</title>
<path fill="none" stroke="midnightblue" d="M103.378,-87.9498C118.744,-84.7717 136.099,-81.3252 152,-78.5 218.378,-66.7062 294.291,-55.4085 348.852,-47.6702"/>
<polygon fill="midnightblue" stroke="midnightblue" points="349.372,-51.1316 358.784,-46.2674 348.393,-44.2004 349.372,-51.1316"/>
</g>
<!-- Node7 -->
<g id="node7" class="node"><title>Node7</title>
<g id="a_node7"><a xlink:href="../../dd/deb/class_t_m_c2130_stepper.html#aba94fc7bb8e2c8c12191f44561f19d95" target="_top" xlink:title=" ">
<polygon fill="white" stroke="black" points="172.5,-0.5 172.5,-30.5 302.5,-30.5 302.5,-0.5 172.5,-0.5"/>
<text text-anchor="start" x="180.5" y="-18.5" font-family="Helvetica,sans-Serif" font-size="10.00">TMC2130Stepper::transfer</text>
<text text-anchor="middle" x="237.5" y="-7.5" font-family="Helvetica,sans-Serif" font-size="10.00">EmptyBytes</text>
</a>
</g>
</g>
<!-- Node1&#45;&gt;Node7 -->
<g id="edge6" class="edge"><title>Node1&#45;&gt;Node7</title>
<path fill="none" stroke="midnightblue" d="M74.3783,-87.8381C92.4877,-76.7136 123.694,-58.3277 152,-45.5 160.84,-41.494 170.386,-37.66 179.769,-34.1517"/>
<polygon fill="midnightblue" stroke="midnightblue" points="181.257,-37.3346 189.453,-30.6201 178.859,-30.7583 181.257,-37.3346"/>
</g>
<!-- Node6 -->
<g id="node6" class="node"><title>Node6</title>
<g id="a_node6"><a xlink:href="../../df/d8b/class_s_w___s_p_i_class.html#af260fdc0af3f1312b106483161e559c3" target="_top" xlink:title=" ">
<polygon fill="white" stroke="black" points="525,-28 525,-47 642,-47 642,-28 525,-28"/>
<text text-anchor="middle" x="583.5" y="-35" font-family="Helvetica,sans-Serif" font-size="10.00">SW_SPIClass::transfer</text>
</a>
</g>
</g>
<!-- Node5&#45;&gt;Node6 -->
<g id="edge5" class="edge"><title>Node5&#45;&gt;Node6</title>
<path fill="none" stroke="midnightblue" d="M489.061,-37.5C497.477,-37.5 506.125,-37.5 514.603,-37.5"/>
<polygon fill="midnightblue" stroke="midnightblue" points="514.831,-41.0001 524.831,-37.5 514.831,-34.0001 514.831,-41.0001"/>
</g>
<!-- Node7&#45;&gt;Node5 -->
<g id="edge7" class="edge"><title>Node7&#45;&gt;Node5</title>
<path fill="none" stroke="midnightblue" d="M302.511,-23.1328C317.452,-24.9144 333.487,-26.8263 348.827,-28.6556"/>
<polygon fill="midnightblue" stroke="midnightblue" points="348.445,-32.1347 358.79,-29.8435 349.274,-25.184 348.445,-32.1347"/>
</g>
</g>
</svg>
