<?xml version="1.0" encoding="UTF-8" standalone="no"?>
<!DOCTYPE svg PUBLIC "-//W3C//DTD SVG 1.1//EN"
 "http://www.w3.org/Graphics/SVG/1.1/DTD/svg11.dtd">
<!-- Generated by graphviz version 2.38.0 (20140413.2041)
 -->
<!-- Title: TMC2130Stepper::diag0_otpw Pages: 1 -->
<svg width="1182pt" height="192pt"
 viewBox="0.00 0.00 1182.00 191.50" xmlns="http://www.w3.org/2000/svg" xmlns:xlink="http://www.w3.org/1999/xlink">
<g id="graph0" class="graph" transform="scale(1 1) rotate(0) translate(4 187.5)">
<title>TMC2130Stepper::diag0_otpw</title>
<polygon fill="white" stroke="none" points="-4,4 -4,-187.5 1178,-187.5 1178,4 -4,4"/>
<!-- Node1 -->
<g id="node1" class="node"><title>Node1</title>
<g id="a_node1"><a xlink:title=" ">
<polygon fill="#bfbfbf" stroke="black" points="0,-88 0,-107 146,-107 146,-88 0,-88"/>
<text text-anchor="middle" x="73" y="-95" font-family="Helvetica,sans-Serif" font-size="10.00">TMC2130Stepper::diag0_otpw</text>
</a>
</g>
</g>
<!-- Node2 -->
<g id="node2" class="node"><title>Node2</title>
<g id="a_node2"><a xlink:href="../../dd/deb/class_t_m_c2130_stepper.html#a774e7d003b2e993fdaef68e2869df70d" target="_top" xlink:title=" ">
<polygon fill="white" stroke="black" points="182,-88 182,-107 328,-107 328,-88 182,-88"/>
<text text-anchor="middle" x="255" y="-95" font-family="Helvetica,sans-Serif" font-size="10.00">TMC2130Stepper::diag0_otpw</text>
</a>
</g>
</g>
<!-- Node1&#45;&gt;Node2 -->
<g id="edge1" class="edge"><title>Node1&#45;&gt;Node2</title>
<path fill="none" stroke="midnightblue" d="M146.176,-97.5C154.52,-97.5 163.077,-97.5 171.544,-97.5"/>
<polygon fill="midnightblue" stroke="midnightblue" points="171.808,-101 181.808,-97.5 171.808,-94.0001 171.808,-101"/>
</g>
<!-- Node3 -->
<g id="node3" class="node"><title>Node3</title>
<g id="a_node3"><a xlink:href="../../dd/deb/class_t_m_c2130_stepper.html#aee84a9abfc84b387c6ae5658f90bf684" target="_top" xlink:title=" ">
<polygon fill="white" stroke="black" points="364,-88 364,-107 496,-107 496,-88 364,-88"/>
<text text-anchor="middle" x="430" y="-95" font-family="Helvetica,sans-Serif" font-size="10.00">TMC2130Stepper::GCONF</text>
</a>
</g>
</g>
<!-- Node2&#45;&gt;Node3 -->
<g id="edge2" class="edge"><title>Node2&#45;&gt;Node3</title>
<path fill="none" stroke="midnightblue" d="M328.115,-97.5C336.552,-97.5 345.177,-97.5 353.656,-97.5"/>
<polygon fill="midnightblue" stroke="midnightblue" points="353.904,-101 363.904,-97.5 353.904,-94.0001 353.904,-101"/>
</g>
<!-- Node4 -->
<g id="node4" class="node"><title>Node4</title>
<g id="a_node4"><a xlink:href="../../dd/deb/class_t_m_c2130_stepper.html#a161ca6ebe3736454e17e9236572a6001" target="_top" xlink:title=" ">
<polygon fill="white" stroke="black" points="532,-88 532,-107 648,-107 648,-88 532,-88"/>
<text text-anchor="middle" x="590" y="-95" font-family="Helvetica,sans-Serif" font-size="10.00">TMC2130Stepper::read</text>
</a>
</g>
</g>
<!-- Node3&#45;&gt;Node4 -->
<g id="edge3" class="edge"><title>Node3&#45;&gt;Node4</title>
<path fill="none" stroke="midnightblue" d="M496.177,-97.5C504.517,-97.5 513.069,-97.5 521.445,-97.5"/>
<polygon fill="midnightblue" stroke="midnightblue" points="521.55,-101 531.55,-97.5 521.55,-94.0001 521.55,-101"/>
</g>
<!-- Node5 -->
<g id="node5" class="node"><title>Node5</title>
<g id="a_node5"><a xlink:href="../../dd/deb/class_t_m_c2130_stepper.html#a1fc868601a32fb0cd8fc536dafa8ecea" target="_top" xlink:title=" ">
<polygon fill="white" stroke="black" points="684,-164 684,-183 855,-183 855,-164 684,-164"/>
<text text-anchor="middle" x="769.5" y="-171" font-family="Helvetica,sans-Serif" font-size="10.00">TMC2130Stepper::beginTransaction</text>
</a>
</g>
</g>
<!-- Node4&#45;&gt;Node5 -->
<g id="edge4" class="edge"><title>Node4&#45;&gt;Node5</title>
<path fill="none" stroke="midnightblue" d="M603.522,-107.048C620.741,-119.725 653.117,-141.967 684,-154.5 690.272,-157.045 696.951,-159.283 703.7,-161.242"/>
<polygon fill="midnightblue" stroke="midnightblue" points="703.032,-164.687 713.599,-163.918 704.858,-157.93 703.032,-164.687"/>
</g>
<!-- Node6 -->
<g id="node6" class="node"><title>Node6</title>
<g id="a_node6"><a xlink:href="../../dd/deb/class_t_m_c2130_stepper.html#aeace18dcee808585dd4449e783811600" target="_top" xlink:title=" ">
<polygon fill="white" stroke="black" points="687.5,-126 687.5,-145 851.5,-145 851.5,-126 687.5,-126"/>
<text text-anchor="middle" x="769.5" y="-133" font-family="Helvetica,sans-Serif" font-size="10.00">TMC2130Stepper::endTransaction</text>
</a>
</g>
</g>
<!-- Node4&#45;&gt;Node6 -->
<g id="edge5" class="edge"><title>Node4&#45;&gt;Node6</title>
<path fill="none" stroke="midnightblue" d="M635.791,-107.089C659.53,-112.171 688.884,-118.455 713.944,-123.82"/>
<polygon fill="midnightblue" stroke="midnightblue" points="713.52,-127.309 724.031,-125.98 714.986,-120.464 713.52,-127.309"/>
</g>
<!-- Node7 -->
<g id="node7" class="node"><title>Node7</title>
<g id="a_node7"><a xlink:href="../../dd/deb/class_t_m_c2130_stepper.html#a4a8f3b6ac100045ed5f84fe4d18d9d5a" target="_top" xlink:title=" ">
<polygon fill="white" stroke="black" points="693.5,-88 693.5,-107 845.5,-107 845.5,-88 693.5,-88"/>
<text text-anchor="middle" x="769.5" y="-95" font-family="Helvetica,sans-Serif" font-size="10.00">TMC2130Stepper::switchCSpin</text>
</a>
</g>
</g>
<!-- Node4&#45;&gt;Node7 -->
<g id="edge6" class="edge"><title>Node4&#45;&gt;Node7</title>
<path fill="none" stroke="midnightblue" d="M648.139,-97.5C659.27,-97.5 671.163,-97.5 682.981,-97.5"/>
<polygon fill="midnightblue" stroke="midnightblue" points="683.325,-101 693.325,-97.5 683.324,-94.0001 683.325,-101"/>
</g>
<!-- Node8 -->
<g id="node8" class="node"><title>Node8</title>
<g id="a_node8"><a xlink:href="../../dd/deb/class_t_m_c2130_stepper.html#a0673af4887ec52b23aa658aa290f6623" target="_top" xlink:title=" ">
<polygon fill="white" stroke="black" points="891,-28 891,-47 1021,-47 1021,-28 891,-28"/>
<text text-anchor="middle" x="956" y="-35" font-family="Helvetica,sans-Serif" font-size="10.00">TMC2130Stepper::transfer</text>
</a>
</g>
</g>
<!-- Node4&#45;&gt;Node8 -->
<g id="edge7" class="edge"><title>Node4&#45;&gt;Node8</title>
<path fill="none" stroke="midnightblue" d="M635.378,-87.9498C650.744,-84.7717 668.099,-81.3252 684,-78.5 750.378,-66.7062 826.291,-55.4085 880.852,-47.6702"/>
<polygon fill="midnightblue" stroke="midnightblue" points="881.372,-51.1316 890.784,-46.2674 880.393,-44.2004 881.372,-51.1316"/>
</g>
<!-- Node10 -->
<g id="node10" class="node"><title>Node10</title>
<g id="a_node10"><a xlink:href="../../dd/deb/class_t_m_c2130_stepper.html#aba94fc7bb8e2c8c12191f44561f19d95" target="_top" xlink:title=" ">
<polygon fill="white" stroke="black" points="704.5,-0.5 704.5,-30.5 834.5,-30.5 834.5,-0.5 704.5,-0.5"/>
<text text-anchor="start" x="712.5" y="-18.5" font-family="Helvetica,sans-Serif" font-size="10.00">TMC2130Stepper::transfer</text>
<text text-anchor="middle" x="769.5" y="-7.5" font-family="Helvetica,sans-Serif" font-size="10.00">EmptyBytes</text>
</a>
</g>
</g>
<!-- Node4&#45;&gt;Node10 -->
<g id="edge9" class="edge"><title>Node4&#45;&gt;Node10</title>
<path fill="none" stroke="midnightblue" d="M606.378,-87.8381C624.488,-76.7136 655.694,-58.3277 684,-45.5 692.84,-41.494 702.386,-37.66 711.769,-34.1517"/>
<polygon fill="midnightblue" stroke="midnightblue" points="713.257,-37.3346 721.453,-30.6201 710.859,-30.7583 713.257,-37.3346"/>
</g>
<!-- Node9 -->
<g id="node9" class="node"><title>Node9</title>
<g id="a_node9"><a xlink:href="../../df/d8b/class_s_w___s_p_i_class.html#af260fdc0af3f1312b106483161e559c3" target="_top" xlink:title=" ">
<polygon fill="white" stroke="black" points="1057,-28 1057,-47 1174,-47 1174,-28 1057,-28"/>
<text text-anchor="middle" x="1115.5" y="-35" font-family="Helvetica,sans-Serif" font-size="10.00">SW_SPIClass::transfer</text>
</a>
</g>
</g>
<!-- Node8&#45;&gt;Node9 -->
<g id="edge8" class="edge"><title>Node8&#45;&gt;Node9</title>
<path fill="none" stroke="midnightblue" d="M1021.06,-37.5C1029.48,-37.5 1038.13,-37.5 1046.6,-37.5"/>
<polygon fill="midnightblue" stroke="midnightblue" points="1046.83,-41.0001 1056.83,-37.5 1046.83,-34.0001 1046.83,-41.0001"/>
</g>
<!-- Node10&#45;&gt;Node8 -->
<g id="edge10" class="edge"><title>Node10&#45;&gt;Node8</title>
<path fill="none" stroke="midnightblue" d="M834.511,-23.1328C849.452,-24.9144 865.487,-26.8263 880.827,-28.6556"/>
<polygon fill="midnightblue" stroke="midnightblue" points="880.445,-32.1347 890.79,-29.8435 881.274,-25.184 880.445,-32.1347"/>
</g>
</g>
</svg>
