<?xml version="1.0" encoding="UTF-8" standalone="no"?>
<!DOCTYPE svg PUBLIC "-//W3C//DTD SVG 1.1//EN"
 "http://www.w3.org/Graphics/SVG/1.1/DTD/svg11.dtd">
<!-- Generated by graphviz version 2.38.0 (20140413.2041)
 -->
<!-- Title: TMC2130Stepper::shaft Pages: 1 -->
<svg width="1128pt" height="192pt"
 viewBox="0.00 0.00 1128.00 191.50" xmlns="http://www.w3.org/2000/svg" xmlns:xlink="http://www.w3.org/1999/xlink">
<g id="graph0" class="graph" transform="scale(1 1) rotate(0) translate(4 187.5)">
<title>TMC2130Stepper::shaft</title>
<polygon fill="white" stroke="none" points="-4,4 -4,-187.5 1124,-187.5 1124,4 -4,4"/>
<!-- Node1 -->
<g id="node1" class="node"><title>Node1</title>
<g id="a_node1"><a xlink:title=" ">
<polygon fill="#bfbfbf" stroke="black" points="0,-88 0,-107 119,-107 119,-88 0,-88"/>
<text text-anchor="middle" x="59.5" y="-95" font-family="Helvetica,sans-Serif" font-size="10.00">TMC2130Stepper::shaft</text>
</a>
</g>
</g>
<!-- Node2 -->
<g id="node2" class="node"><title>Node2</title>
<g id="a_node2"><a xlink:href="../../dd/deb/class_t_m_c2130_stepper.html#ac28cec0948c577e4988a1649248d1632" target="_top" xlink:title=" ">
<polygon fill="white" stroke="black" points="155,-88 155,-107 274,-107 274,-88 155,-88"/>
<text text-anchor="middle" x="214.5" y="-95" font-family="Helvetica,sans-Serif" font-size="10.00">TMC2130Stepper::shaft</text>
</a>
</g>
</g>
<!-- Node1&#45;&gt;Node2 -->
<g id="edge1" class="edge"><title>Node1&#45;&gt;Node2</title>
<path fill="none" stroke="midnightblue" d="M119.216,-97.5C127.544,-97.5 136.169,-97.5 144.667,-97.5"/>
<polygon fill="midnightblue" stroke="midnightblue" points="144.941,-101 154.941,-97.5 144.941,-94.0001 144.941,-101"/>
</g>
<!-- Node3 -->
<g id="node3" class="node"><title>Node3</title>
<g id="a_node3"><a xlink:href="../../dd/deb/class_t_m_c2130_stepper.html#aee84a9abfc84b387c6ae5658f90bf684" target="_top" xlink:title=" ">
<polygon fill="white" stroke="black" points="310,-88 310,-107 442,-107 442,-88 310,-88"/>
<text text-anchor="middle" x="376" y="-95" font-family="Helvetica,sans-Serif" font-size="10.00">TMC2130Stepper::GCONF</text>
</a>
</g>
</g>
<!-- Node2&#45;&gt;Node3 -->
<g id="edge2" class="edge"><title>Node2&#45;&gt;Node3</title>
<path fill="none" stroke="midnightblue" d="M274.439,-97.5C282.64,-97.5 291.158,-97.5 299.61,-97.5"/>
<polygon fill="midnightblue" stroke="midnightblue" points="299.861,-101 309.861,-97.5 299.861,-94.0001 299.861,-101"/>
</g>
<!-- Node4 -->
<g id="node4" class="node"><title>Node4</title>
<g id="a_node4"><a xlink:href="../../dd/deb/class_t_m_c2130_stepper.html#a161ca6ebe3736454e17e9236572a6001" target="_top" xlink:title=" ">
<polygon fill="white" stroke="black" points="478,-88 478,-107 594,-107 594,-88 478,-88"/>
<text text-anchor="middle" x="536" y="-95" font-family="Helvetica,sans-Serif" font-size="10.00">TMC2130Stepper::read</text>
</a>
</g>
</g>
<!-- Node3&#45;&gt;Node4 -->
<g id="edge3" class="edge"><title>Node3&#45;&gt;Node4</title>
<path fill="none" stroke="midnightblue" d="M442.177,-97.5C450.517,-97.5 459.069,-97.5 467.445,-97.5"/>
<polygon fill="midnightblue" stroke="midnightblue" points="467.55,-101 477.55,-97.5 467.55,-94.0001 467.55,-101"/>
</g>
<!-- Node5 -->
<g id="node5" class="node"><title>Node5</title>
<g id="a_node5"><a xlink:href="../../dd/deb/class_t_m_c2130_stepper.html#a1fc868601a32fb0cd8fc536dafa8ecea" target="_top" xlink:title=" ">
<polygon fill="white" stroke="black" points="630,-164 630,-183 801,-183 801,-164 630,-164"/>
<text text-anchor="middle" x="715.5" y="-171" font-family="Helvetica,sans-Serif" font-size="10.00">TMC2130Stepper::beginTransaction</text>
</a>
</g>
</g>
<!-- Node4&#45;&gt;Node5 -->
<g id="edge4" class="edge"><title>Node4&#45;&gt;Node5</title>
<path fill="none" stroke="midnightblue" d="M549.522,-107.048C566.741,-119.725 599.117,-141.967 630,-154.5 636.272,-157.045 642.951,-159.283 649.7,-161.242"/>
<polygon fill="midnightblue" stroke="midnightblue" points="649.032,-164.687 659.599,-163.918 650.858,-157.93 649.032,-164.687"/>
</g>
<!-- Node6 -->
<g id="node6" class="node"><title>Node6</title>
<g id="a_node6"><a xlink:href="../../dd/deb/class_t_m_c2130_stepper.html#aeace18dcee808585dd4449e783811600" target="_top" xlink:title=" ">
<polygon fill="white" stroke="black" points="633.5,-126 633.5,-145 797.5,-145 797.5,-126 633.5,-126"/>
<text text-anchor="middle" x="715.5" y="-133" font-family="Helvetica,sans-Serif" font-size="10.00">TMC2130Stepper::endTransaction</text>
</a>
</g>
</g>
<!-- Node4&#45;&gt;Node6 -->
<g id="edge5" class="edge"><title>Node4&#45;&gt;Node6</title>
<path fill="none" stroke="midnightblue" d="M581.791,-107.089C605.53,-112.171 634.884,-118.455 659.944,-123.82"/>
<polygon fill="midnightblue" stroke="midnightblue" points="659.52,-127.309 670.031,-125.98 660.986,-120.464 659.52,-127.309"/>
</g>
<!-- Node7 -->
<g id="node7" class="node"><title>Node7</title>
<g id="a_node7"><a xlink:href="../../dd/deb/class_t_m_c2130_stepper.html#a4a8f3b6ac100045ed5f84fe4d18d9d5a" target="_top" xlink:title=" ">
<polygon fill="white" stroke="black" points="639.5,-88 639.5,-107 791.5,-107 791.5,-88 639.5,-88"/>
<text text-anchor="middle" x="715.5" y="-95" font-family="Helvetica,sans-Serif" font-size="10.00">TMC2130Stepper::switchCSpin</text>
</a>
</g>
</g>
<!-- Node4&#45;&gt;Node7 -->
<g id="edge6" class="edge"><title>Node4&#45;&gt;Node7</title>
<path fill="none" stroke="midnightblue" d="M594.139,-97.5C605.27,-97.5 617.163,-97.5 628.981,-97.5"/>
<polygon fill="midnightblue" stroke="midnightblue" points="629.325,-101 639.325,-97.5 629.324,-94.0001 629.325,-101"/>
</g>
<!-- Node8 -->
<g id="node8" class="node"><title>Node8</title>
<g id="a_node8"><a xlink:href="../../dd/deb/class_t_m_c2130_stepper.html#a0673af4887ec52b23aa658aa290f6623" target="_top" xlink:title=" ">
<polygon fill="white" stroke="black" points="837,-28 837,-47 967,-47 967,-28 837,-28"/>
<text text-anchor="middle" x="902" y="-35" font-family="Helvetica,sans-Serif" font-size="10.00">TMC2130Stepper::transfer</text>
</a>
</g>
</g>
<!-- Node4&#45;&gt;Node8 -->
<g id="edge7" class="edge"><title>Node4&#45;&gt;Node8</title>
<path fill="none" stroke="midnightblue" d="M581.378,-87.9498C596.744,-84.7717 614.099,-81.3252 630,-78.5 696.378,-66.7062 772.291,-55.4085 826.852,-47.6702"/>
<polygon fill="midnightblue" stroke="midnightblue" points="827.372,-51.1316 836.784,-46.2674 826.393,-44.2004 827.372,-51.1316"/>
</g>
<!-- Node10 -->
<g id="node10" class="node"><title>Node10</title>
<g id="a_node10"><a xlink:href="../../dd/deb/class_t_m_c2130_stepper.html#aba94fc7bb8e2c8c12191f44561f19d95" target="_top" xlink:title=" ">
<polygon fill="white" stroke="black" points="650.5,-0.5 650.5,-30.5 780.5,-30.5 780.5,-0.5 650.5,-0.5"/>
<text text-anchor="start" x="658.5" y="-18.5" font-family="Helvetica,sans-Serif" font-size="10.00">TMC2130Stepper::transfer</text>
<text text-anchor="middle" x="715.5" y="-7.5" font-family="Helvetica,sans-Serif" font-size="10.00">EmptyBytes</text>
</a>
</g>
</g>
<!-- Node4&#45;&gt;Node10 -->
<g id="edge9" class="edge"><title>Node4&#45;&gt;Node10</title>
<path fill="none" stroke="midnightblue" d="M552.378,-87.8381C570.488,-76.7136 601.694,-58.3277 630,-45.5 638.84,-41.494 648.386,-37.66 657.769,-34.1517"/>
<polygon fill="midnightblue" stroke="midnightblue" points="659.257,-37.3346 667.453,-30.6201 656.859,-30.7583 659.257,-37.3346"/>
</g>
<!-- Node9 -->
<g id="node9" class="node"><title>Node9</title>
<g id="a_node9"><a xlink:href="../../df/d8b/class_s_w___s_p_i_class.html#af260fdc0af3f1312b106483161e559c3" target="_top" xlink:title=" ">
<polygon fill="white" stroke="black" points="1003,-28 1003,-47 1120,-47 1120,-28 1003,-28"/>
<text text-anchor="middle" x="1061.5" y="-35" font-family="Helvetica,sans-Serif" font-size="10.00">SW_SPIClass::transfer</text>
</a>
</g>
</g>
<!-- Node8&#45;&gt;Node9 -->
<g id="edge8" class="edge"><title>Node8&#45;&gt;Node9</title>
<path fill="none" stroke="midnightblue" d="M967.061,-37.5C975.477,-37.5 984.125,-37.5 992.603,-37.5"/>
<polygon fill="midnightblue" stroke="midnightblue" points="992.831,-41.0001 1002.83,-37.5 992.831,-34.0001 992.831,-41.0001"/>
</g>
<!-- Node10&#45;&gt;Node8 -->
<g id="edge10" class="edge"><title>Node10&#45;&gt;Node8</title>
<path fill="none" stroke="midnightblue" d="M780.511,-23.1328C795.452,-24.9144 811.487,-26.8263 826.827,-28.6556"/>
<polygon fill="midnightblue" stroke="midnightblue" points="826.445,-32.1347 836.79,-29.8435 827.274,-25.184 826.445,-32.1347"/>
</g>
</g>
</svg>
