<?xml version="1.0" encoding="UTF-8" standalone="no"?>
<!DOCTYPE svg PUBLIC "-//W3C//DTD SVG 1.1//EN"
 "http://www.w3.org/Graphics/SVG/1.1/DTD/svg11.dtd">
<!-- Generated by graphviz version 2.38.0 (20140413.2041)
 -->
<!-- Title: TMC2208Stepper::mstep_reg_select Pages: 1 -->
<svg width="1167pt" height="235pt"
 viewBox="0.00 0.00 1167.00 235.47" xmlns="http://www.w3.org/2000/svg" xmlns:xlink="http://www.w3.org/1999/xlink">
<g id="graph0" class="graph" transform="scale(1 1) rotate(0) translate(4 231.47)">
<title>TMC2208Stepper::mstep_reg_select</title>
<polygon fill="white" stroke="none" points="-4,4 -4,-231.47 1163,-231.47 1163,4 -4,4"/>
<!-- Node1 -->
<g id="node1" class="node"><title>Node1</title>
<g id="a_node1"><a xlink:title=" ">
<polygon fill="#bfbfbf" stroke="black" points="0,-76.4696 0,-106.47 125,-106.47 125,-76.4696 0,-76.4696"/>
<text text-anchor="start" x="8" y="-94.4696" font-family="Helvetica,sans-Serif" font-size="10.00">TMC2208Stepper::mstep</text>
<text text-anchor="middle" x="62.5" y="-83.4696" font-family="Helvetica,sans-Serif" font-size="10.00">_reg_select</text>
</a>
</g>
</g>
<!-- Node2 -->
<g id="node2" class="node"><title>Node2</title>
<g id="a_node2"><a xlink:href="../../d6/d7e/class_t_m_c2208_stepper.html#a02994cba6b9ac73b61799cf7af0fd588" target="_top" xlink:title=" ">
<polygon fill="white" stroke="black" points="161,-76.4696 161,-106.47 286,-106.47 286,-76.4696 161,-76.4696"/>
<text text-anchor="start" x="169" y="-94.4696" font-family="Helvetica,sans-Serif" font-size="10.00">TMC2208Stepper::mstep</text>
<text text-anchor="middle" x="223.5" y="-83.4696" font-family="Helvetica,sans-Serif" font-size="10.00">_reg_select</text>
</a>
</g>
</g>
<!-- Node1&#45;&gt;Node2 -->
<g id="edge1" class="edge"><title>Node1&#45;&gt;Node2</title>
<path fill="none" stroke="midnightblue" d="M125.429,-91.4696C133.674,-91.4696 142.184,-91.4696 150.58,-91.4696"/>
<polygon fill="midnightblue" stroke="midnightblue" points="150.74,-94.9697 160.74,-91.4696 150.74,-87.9697 150.74,-94.9697"/>
</g>
<!-- Node3 -->
<g id="node3" class="node"><title>Node3</title>
<g id="a_node3"><a xlink:href="../../d6/d7e/class_t_m_c2208_stepper.html#a549db4f962d4ae698dda33ef9a708e33" target="_top" xlink:title=" ">
<polygon fill="white" stroke="black" points="322,-81.9696 322,-100.97 454,-100.97 454,-81.9696 322,-81.9696"/>
<text text-anchor="middle" x="388" y="-88.9696" font-family="Helvetica,sans-Serif" font-size="10.00">TMC2208Stepper::GCONF</text>
</a>
</g>
</g>
<!-- Node2&#45;&gt;Node3 -->
<g id="edge2" class="edge"><title>Node2&#45;&gt;Node3</title>
<path fill="none" stroke="midnightblue" d="M286.398,-91.4696C294.624,-91.4696 303.13,-91.4696 311.553,-91.4696"/>
<polygon fill="midnightblue" stroke="midnightblue" points="311.762,-94.9697 321.762,-91.4696 311.762,-87.9697 311.762,-94.9697"/>
</g>
<!-- Node4 -->
<g id="node4" class="node"><title>Node4</title>
<g id="a_node4"><a xlink:href="../../d6/d7e/class_t_m_c2208_stepper.html#a2fae2050849c3ab7968012def8ea1cc5" target="_top" xlink:title=" ">
<polygon fill="white" stroke="black" points="490,-81.9696 490,-100.97 606,-100.97 606,-81.9696 490,-81.9696"/>
<text text-anchor="middle" x="548" y="-88.9696" font-family="Helvetica,sans-Serif" font-size="10.00">TMC2208Stepper::read</text>
</a>
</g>
</g>
<!-- Node3&#45;&gt;Node4 -->
<g id="edge3" class="edge"><title>Node3&#45;&gt;Node4</title>
<path fill="none" stroke="midnightblue" d="M454.177,-91.4696C462.517,-91.4696 471.069,-91.4696 479.445,-91.4696"/>
<polygon fill="midnightblue" stroke="midnightblue" points="479.55,-94.9697 489.55,-91.4696 479.55,-87.9697 479.55,-94.9697"/>
</g>
<!-- Node5 -->
<g id="node5" class="node"><title>Node5</title>
<g id="a_node5"><a xlink:href="../../d6/d7e/class_t_m_c2208_stepper.html#a321ad81155b7a20c0858920d32d0b074" target="_top" xlink:title=" ">
<polygon fill="white" stroke="black" points="651,-157.97 651,-176.97 817,-176.97 817,-157.97 651,-157.97"/>
<text text-anchor="middle" x="734" y="-164.97" font-family="Helvetica,sans-Serif" font-size="10.00">TMC2208Stepper::_sendDatagram</text>
</a>
</g>
</g>
<!-- Node4&#45;&gt;Node5 -->
<g id="edge4" class="edge"><title>Node4&#45;&gt;Node5</title>
<path fill="none" stroke="midnightblue" d="M561.494,-101.088C578.681,-113.843 611.022,-136.174 642,-148.47 648.6,-151.089 655.62,-153.37 662.72,-155.35"/>
<polygon fill="midnightblue" stroke="midnightblue" points="661.861,-158.743 672.42,-157.869 663.62,-151.968 661.861,-158.743"/>
</g>
<!-- Node11 -->
<g id="node11" class="node"><title>Node11</title>
<g id="a_node11"><a xlink:href="../../d6/d7e/class_t_m_c2208_stepper.html#a409c19fa6b052a370a317d061bf9af4e" target="_top" xlink:title=" ">
<polygon fill="white" stroke="black" points="666,-119.97 666,-138.97 802,-138.97 802,-119.97 666,-119.97"/>
<text text-anchor="middle" x="734" y="-126.97" font-family="Helvetica,sans-Serif" font-size="10.00">TMC2208Stepper::calcCRC</text>
</a>
</g>
</g>
<!-- Node4&#45;&gt;Node11 -->
<g id="edge11" class="edge"><title>Node4&#45;&gt;Node11</title>
<path fill="none" stroke="midnightblue" d="M595.431,-101.059C620.149,-106.163 650.739,-112.481 676.792,-117.861"/>
<polygon fill="midnightblue" stroke="midnightblue" points="676.402,-121.355 686.903,-119.95 677.817,-114.499 676.402,-121.355"/>
</g>
<!-- Node12 -->
<g id="node12" class="node"><title>Node12</title>
<g id="a_node12"><a xlink:href="../../d6/d7e/class_t_m_c2208_stepper.html#a673ade174158b47e3b345b1d7b3c473d" target="_top" xlink:title=" ">
<polygon fill="white" stroke="black" points="642,-81.9696 642,-100.97 826,-100.97 826,-81.9696 642,-81.9696"/>
<text text-anchor="middle" x="734" y="-88.9696" font-family="Helvetica,sans-Serif" font-size="10.00">TMC2208Stepper::postCommunication</text>
</a>
</g>
</g>
<!-- Node4&#45;&gt;Node12 -->
<g id="edge12" class="edge"><title>Node4&#45;&gt;Node12</title>
<path fill="none" stroke="midnightblue" d="M606.21,-91.4696C614.323,-91.4696 622.86,-91.4696 631.51,-91.4696"/>
<polygon fill="midnightblue" stroke="midnightblue" points="631.697,-94.9697 641.697,-91.4696 631.697,-87.9697 631.697,-94.9697"/>
</g>
<!-- Node13 -->
<g id="node13" class="node"><title>Node13</title>
<g id="a_node13"><a xlink:href="../../d6/d7e/class_t_m_c2208_stepper.html#a0ba01db6c4c01da7cb0ace8a524ab1da" target="_top" xlink:title=" ">
<polygon fill="white" stroke="black" points="644.5,-43.9696 644.5,-62.9696 823.5,-62.9696 823.5,-43.9696 644.5,-43.9696"/>
<text text-anchor="middle" x="734" y="-50.9696" font-family="Helvetica,sans-Serif" font-size="10.00">TMC2208Stepper::preCommunication</text>
</a>
</g>
</g>
<!-- Node4&#45;&gt;Node13 -->
<g id="edge13" class="edge"><title>Node4&#45;&gt;Node13</title>
<path fill="none" stroke="midnightblue" d="M595.431,-81.8806C620.149,-76.7758 650.739,-70.4583 676.792,-65.0778"/>
<polygon fill="midnightblue" stroke="midnightblue" points="677.817,-68.44 686.903,-62.9897 676.402,-61.5846 677.817,-68.44"/>
</g>
<!-- Node6 -->
<g id="node6" class="node"><title>Node6</title>
<g id="a_node6"><a xlink:href="../../d6/d7e/class_t_m_c2208_stepper.html#a7a670b15f45466f8d167a9b80fbf384f" target="_top" xlink:title=" ">
<polygon fill="white" stroke="black" points="867.5,-207.97 867.5,-226.97 1001.5,-226.97 1001.5,-207.97 867.5,-207.97"/>
<text text-anchor="middle" x="934.5" y="-214.97" font-family="Helvetica,sans-Serif" font-size="10.00">TMC2208Stepper::available</text>
</a>
</g>
</g>
<!-- Node5&#45;&gt;Node6 -->
<g id="edge5" class="edge"><title>Node5&#45;&gt;Node6</title>
<path fill="none" stroke="midnightblue" d="M772.804,-176.992C804.849,-185.064 850.983,-196.684 885.607,-205.406"/>
<polygon fill="midnightblue" stroke="midnightblue" points="884.948,-208.849 895.5,-207.898 886.657,-202.061 884.948,-208.849"/>
</g>
<!-- Node7 -->
<g id="node7" class="node"><title>Node7</title>
<g id="a_node7"><a xlink:href="../../d6/d7e/class_t_m_c2208_stepper.html#a4ec5d2b2f5a31259c7aba1f3208d63b8" target="_top" xlink:title=" ">
<polygon fill="white" stroke="black" points="876.5,-169.97 876.5,-188.97 992.5,-188.97 992.5,-169.97 876.5,-169.97"/>
<text text-anchor="middle" x="934.5" y="-176.97" font-family="Helvetica,sans-Serif" font-size="10.00">TMC2208Stepper::ms2</text>
</a>
</g>
</g>
<!-- Node5&#45;&gt;Node7 -->
<g id="edge6" class="edge"><title>Node5&#45;&gt;Node7</title>
<path fill="none" stroke="midnightblue" d="M817.17,-172.437C833.532,-173.426 850.531,-174.454 866.318,-175.408"/>
<polygon fill="midnightblue" stroke="midnightblue" points="866.305,-178.914 876.498,-176.024 866.727,-171.927 866.305,-178.914"/>
</g>
<!-- Node9 -->
<g id="node9" class="node"><title>Node9</title>
<g id="a_node9"><a xlink:href="../../d6/d7e/class_t_m_c2208_stepper.html#a129ceb04c3ea18e2c4ec1a59a51ece85" target="_top" xlink:title=" ">
<polygon fill="white" stroke="black" points="862,-131.97 862,-150.97 1007,-150.97 1007,-131.97 862,-131.97"/>
<text text-anchor="middle" x="934.5" y="-138.97" font-family="Helvetica,sans-Serif" font-size="10.00">TMC2208Stepper::serial_read</text>
</a>
</g>
</g>
<!-- Node5&#45;&gt;Node9 -->
<g id="edge9" class="edge"><title>Node5&#45;&gt;Node9</title>
<path fill="none" stroke="midnightblue" d="M807.787,-157.936C822.081,-156.064 837.166,-154.088 851.731,-152.18"/>
<polygon fill="midnightblue" stroke="midnightblue" points="852.256,-155.641 861.716,-150.872 851.346,-148.7 852.256,-155.641"/>
</g>
<!-- Node10 -->
<g id="node10" class="node"><title>Node10</title>
<g id="a_node10"><a xlink:href="../../d6/d7e/class_t_m_c2208_stepper.html#aa7f2c1a3a1cda9a328c186c6d7cbfe41" target="_top" xlink:title=" ">
<polygon fill="white" stroke="black" points="874,-82.4696 874,-112.47 995,-112.47 995,-82.4696 874,-82.4696"/>
<text text-anchor="start" x="882" y="-100.47" font-family="Helvetica,sans-Serif" font-size="10.00">TMC2208Stepper::serial</text>
<text text-anchor="middle" x="934.5" y="-89.4696" font-family="Helvetica,sans-Serif" font-size="10.00">_write</text>
</a>
</g>
</g>
<!-- Node5&#45;&gt;Node10 -->
<g id="edge10" class="edge"><title>Node5&#45;&gt;Node10</title>
<path fill="none" stroke="midnightblue" d="M798.251,-157.863C807.759,-155.397 817.289,-152.315 826,-148.47 844.056,-140.5 844.502,-131.6 862,-122.47 866.044,-120.36 870.305,-118.362 874.65,-116.486"/>
<polygon fill="midnightblue" stroke="midnightblue" points="876.304,-119.591 884.243,-112.575 873.662,-113.109 876.304,-119.591"/>
</g>
<!-- Node8 -->
<g id="node8" class="node"><title>Node8</title>
<g id="a_node8"><a xlink:href="../../d6/d7e/class_t_m_c2208_stepper.html#a5441dd87d0bcea4ffc309cb012166a57" target="_top" xlink:title=" ">
<polygon fill="white" stroke="black" points="1043,-87.9696 1043,-106.97 1159,-106.97 1159,-87.9696 1043,-87.9696"/>
<text text-anchor="middle" x="1101" y="-94.9696" font-family="Helvetica,sans-Serif" font-size="10.00">TMC2208Stepper::IOIN</text>
</a>
</g>
</g>
<!-- Node7&#45;&gt;Node8 -->
<g id="edge7" class="edge"><title>Node7&#45;&gt;Node8</title>
<path fill="none" stroke="midnightblue" d="M980.551,-169.968C989.507,-167.396 998.702,-164.251 1007,-160.47 1034.45,-147.961 1062.68,-127.566 1080.73,-113.383"/>
<polygon fill="midnightblue" stroke="midnightblue" points="1083.11,-115.965 1088.72,-106.982 1078.73,-110.501 1083.11,-115.965"/>
</g>
<!-- Node8&#45;&gt;Node4 -->
<g id="edge8" class="edge"><title>Node8&#45;&gt;Node4</title>
<path fill="none" stroke="midnightblue" d="M1090.21,-87.8203C1074.34,-72.9361 1041.3,-44.9951 1007,-34.4696 851.914,13.1145 798.13,9.56986 642,-34.4696 613.807,-42.4221 585.729,-61.5756 567.921,-75.4902"/>
<polygon fill="midnightblue" stroke="midnightblue" points="565.643,-72.8308 560.049,-81.8281 570.033,-78.2834 565.643,-72.8308"/>
</g>
<!-- Node14 -->
<g id="node14" class="node"><title>Node14</title>
<g id="a_node14"><a xlink:href="../../d9/d98/class_s_switch.html#a6ff09d0850d551571dc333fb74ff8628" target="_top" xlink:title=" ">
<polygon fill="white" stroke="black" points="893,-43.9696 893,-62.9696 976,-62.9696 976,-43.9696 893,-43.9696"/>
<text text-anchor="middle" x="934.5" y="-50.9696" font-family="Helvetica,sans-Serif" font-size="10.00">SSwitch::active</text>
</a>
</g>
</g>
<!-- Node13&#45;&gt;Node14 -->
<g id="edge14" class="edge"><title>Node13&#45;&gt;Node14</title>
<path fill="none" stroke="midnightblue" d="M823.51,-53.4696C843.828,-53.4696 864.753,-53.4696 882.826,-53.4696"/>
<polygon fill="midnightblue" stroke="midnightblue" points="882.83,-56.9697 892.83,-53.4696 882.83,-49.9697 882.83,-56.9697"/>
</g>
</g>
</svg>
