<?xml version="1.0" encoding="UTF-8" standalone="no"?>
<!DOCTYPE svg PUBLIC "-//W3C//DTD SVG 1.1//EN"
 "http://www.w3.org/Graphics/SVG/1.1/DTD/svg11.dtd">
<!-- Generated by graphviz version 2.38.0 (20140413.2041)
 -->
<!-- Title: TMC2208Stepper::FACTORY_CONF Pages: 1 -->
<svg width="889pt" height="235pt"
 viewBox="0.00 0.00 889.00 235.47" xmlns="http://www.w3.org/2000/svg" xmlns:xlink="http://www.w3.org/1999/xlink">
<g id="graph0" class="graph" transform="scale(1 1) rotate(0) translate(4 231.47)">
<title>TMC2208Stepper::FACTORY_CONF</title>
<polygon fill="white" stroke="none" points="-4,4 -4,-231.47 885,-231.47 885,4 -4,4"/>
<!-- Node1 -->
<g id="node1" class="node"><title>Node1</title>
<g id="a_node1"><a xlink:title=" ">
<polygon fill="#bfbfbf" stroke="black" points="0,-81.9696 0,-100.97 176,-100.97 176,-81.9696 0,-81.9696"/>
<text text-anchor="middle" x="88" y="-88.9696" font-family="Helvetica,sans-Serif" font-size="10.00">TMC2208Stepper::FACTORY_CONF</text>
</a>
</g>
</g>
<!-- Node2 -->
<g id="node2" class="node"><title>Node2</title>
<g id="a_node2"><a xlink:href="../../d6/d7e/class_t_m_c2208_stepper.html#a2fae2050849c3ab7968012def8ea1cc5" target="_top" xlink:title=" ">
<polygon fill="white" stroke="black" points="212,-81.9696 212,-100.97 328,-100.97 328,-81.9696 212,-81.9696"/>
<text text-anchor="middle" x="270" y="-88.9696" font-family="Helvetica,sans-Serif" font-size="10.00">TMC2208Stepper::read</text>
</a>
</g>
</g>
<!-- Node1&#45;&gt;Node2 -->
<g id="edge1" class="edge"><title>Node1&#45;&gt;Node2</title>
<path fill="none" stroke="midnightblue" d="M176.1,-91.4696C184.713,-91.4696 193.361,-91.4696 201.729,-91.4696"/>
<polygon fill="midnightblue" stroke="midnightblue" points="201.775,-94.9697 211.775,-91.4696 201.775,-87.9697 201.775,-94.9697"/>
</g>
<!-- Node3 -->
<g id="node3" class="node"><title>Node3</title>
<g id="a_node3"><a xlink:href="../../d6/d7e/class_t_m_c2208_stepper.html#a321ad81155b7a20c0858920d32d0b074" target="_top" xlink:title=" ">
<polygon fill="white" stroke="black" points="373,-157.97 373,-176.97 539,-176.97 539,-157.97 373,-157.97"/>
<text text-anchor="middle" x="456" y="-164.97" font-family="Helvetica,sans-Serif" font-size="10.00">TMC2208Stepper::_sendDatagram</text>
</a>
</g>
</g>
<!-- Node2&#45;&gt;Node3 -->
<g id="edge2" class="edge"><title>Node2&#45;&gt;Node3</title>
<path fill="none" stroke="midnightblue" d="M283.494,-101.088C300.681,-113.843 333.022,-136.174 364,-148.47 370.6,-151.089 377.62,-153.37 384.72,-155.35"/>
<polygon fill="midnightblue" stroke="midnightblue" points="383.861,-158.743 394.42,-157.869 385.62,-151.968 383.861,-158.743"/>
</g>
<!-- Node9 -->
<g id="node9" class="node"><title>Node9</title>
<g id="a_node9"><a xlink:href="../../d6/d7e/class_t_m_c2208_stepper.html#a409c19fa6b052a370a317d061bf9af4e" target="_top" xlink:title=" ">
<polygon fill="white" stroke="black" points="388,-119.97 388,-138.97 524,-138.97 524,-119.97 388,-119.97"/>
<text text-anchor="middle" x="456" y="-126.97" font-family="Helvetica,sans-Serif" font-size="10.00">TMC2208Stepper::calcCRC</text>
</a>
</g>
</g>
<!-- Node2&#45;&gt;Node9 -->
<g id="edge9" class="edge"><title>Node2&#45;&gt;Node9</title>
<path fill="none" stroke="midnightblue" d="M317.431,-101.059C342.149,-106.163 372.739,-112.481 398.792,-117.861"/>
<polygon fill="midnightblue" stroke="midnightblue" points="398.402,-121.355 408.903,-119.95 399.817,-114.499 398.402,-121.355"/>
</g>
<!-- Node10 -->
<g id="node10" class="node"><title>Node10</title>
<g id="a_node10"><a xlink:href="../../d6/d7e/class_t_m_c2208_stepper.html#a673ade174158b47e3b345b1d7b3c473d" target="_top" xlink:title=" ">
<polygon fill="white" stroke="black" points="364,-81.9696 364,-100.97 548,-100.97 548,-81.9696 364,-81.9696"/>
<text text-anchor="middle" x="456" y="-88.9696" font-family="Helvetica,sans-Serif" font-size="10.00">TMC2208Stepper::postCommunication</text>
</a>
</g>
</g>
<!-- Node2&#45;&gt;Node10 -->
<g id="edge10" class="edge"><title>Node2&#45;&gt;Node10</title>
<path fill="none" stroke="midnightblue" d="M328.21,-91.4696C336.323,-91.4696 344.86,-91.4696 353.51,-91.4696"/>
<polygon fill="midnightblue" stroke="midnightblue" points="353.697,-94.9697 363.697,-91.4696 353.697,-87.9697 353.697,-94.9697"/>
</g>
<!-- Node11 -->
<g id="node11" class="node"><title>Node11</title>
<g id="a_node11"><a xlink:href="../../d6/d7e/class_t_m_c2208_stepper.html#a0ba01db6c4c01da7cb0ace8a524ab1da" target="_top" xlink:title=" ">
<polygon fill="white" stroke="black" points="366.5,-43.9696 366.5,-62.9696 545.5,-62.9696 545.5,-43.9696 366.5,-43.9696"/>
<text text-anchor="middle" x="456" y="-50.9696" font-family="Helvetica,sans-Serif" font-size="10.00">TMC2208Stepper::preCommunication</text>
</a>
</g>
</g>
<!-- Node2&#45;&gt;Node11 -->
<g id="edge11" class="edge"><title>Node2&#45;&gt;Node11</title>
<path fill="none" stroke="midnightblue" d="M317.431,-81.8806C342.149,-76.7758 372.739,-70.4583 398.792,-65.0778"/>
<polygon fill="midnightblue" stroke="midnightblue" points="399.817,-68.44 408.903,-62.9897 398.402,-61.5846 399.817,-68.44"/>
</g>
<!-- Node4 -->
<g id="node4" class="node"><title>Node4</title>
<g id="a_node4"><a xlink:href="../../d6/d7e/class_t_m_c2208_stepper.html#a7a670b15f45466f8d167a9b80fbf384f" target="_top" xlink:title=" ">
<polygon fill="white" stroke="black" points="589.5,-207.97 589.5,-226.97 723.5,-226.97 723.5,-207.97 589.5,-207.97"/>
<text text-anchor="middle" x="656.5" y="-214.97" font-family="Helvetica,sans-Serif" font-size="10.00">TMC2208Stepper::available</text>
</a>
</g>
</g>
<!-- Node3&#45;&gt;Node4 -->
<g id="edge3" class="edge"><title>Node3&#45;&gt;Node4</title>
<path fill="none" stroke="midnightblue" d="M494.804,-176.992C526.849,-185.064 572.983,-196.684 607.607,-205.406"/>
<polygon fill="midnightblue" stroke="midnightblue" points="606.948,-208.849 617.5,-207.898 608.657,-202.061 606.948,-208.849"/>
</g>
<!-- Node5 -->
<g id="node5" class="node"><title>Node5</title>
<g id="a_node5"><a xlink:href="../../d6/d7e/class_t_m_c2208_stepper.html#a4ec5d2b2f5a31259c7aba1f3208d63b8" target="_top" xlink:title=" ">
<polygon fill="white" stroke="black" points="598.5,-169.97 598.5,-188.97 714.5,-188.97 714.5,-169.97 598.5,-169.97"/>
<text text-anchor="middle" x="656.5" y="-176.97" font-family="Helvetica,sans-Serif" font-size="10.00">TMC2208Stepper::ms2</text>
</a>
</g>
</g>
<!-- Node3&#45;&gt;Node5 -->
<g id="edge4" class="edge"><title>Node3&#45;&gt;Node5</title>
<path fill="none" stroke="midnightblue" d="M539.17,-172.437C555.532,-173.426 572.531,-174.454 588.318,-175.408"/>
<polygon fill="midnightblue" stroke="midnightblue" points="588.305,-178.914 598.498,-176.024 588.727,-171.927 588.305,-178.914"/>
</g>
<!-- Node7 -->
<g id="node7" class="node"><title>Node7</title>
<g id="a_node7"><a xlink:href="../../d6/d7e/class_t_m_c2208_stepper.html#a129ceb04c3ea18e2c4ec1a59a51ece85" target="_top" xlink:title=" ">
<polygon fill="white" stroke="black" points="584,-131.97 584,-150.97 729,-150.97 729,-131.97 584,-131.97"/>
<text text-anchor="middle" x="656.5" y="-138.97" font-family="Helvetica,sans-Serif" font-size="10.00">TMC2208Stepper::serial_read</text>
</a>
</g>
</g>
<!-- Node3&#45;&gt;Node7 -->
<g id="edge7" class="edge"><title>Node3&#45;&gt;Node7</title>
<path fill="none" stroke="midnightblue" d="M529.787,-157.936C544.081,-156.064 559.166,-154.088 573.731,-152.18"/>
<polygon fill="midnightblue" stroke="midnightblue" points="574.256,-155.641 583.716,-150.872 573.346,-148.7 574.256,-155.641"/>
</g>
<!-- Node8 -->
<g id="node8" class="node"><title>Node8</title>
<g id="a_node8"><a xlink:href="../../d6/d7e/class_t_m_c2208_stepper.html#aa7f2c1a3a1cda9a328c186c6d7cbfe41" target="_top" xlink:title=" ">
<polygon fill="white" stroke="black" points="596,-82.4696 596,-112.47 717,-112.47 717,-82.4696 596,-82.4696"/>
<text text-anchor="start" x="604" y="-100.47" font-family="Helvetica,sans-Serif" font-size="10.00">TMC2208Stepper::serial</text>
<text text-anchor="middle" x="656.5" y="-89.4696" font-family="Helvetica,sans-Serif" font-size="10.00">_write</text>
</a>
</g>
</g>
<!-- Node3&#45;&gt;Node8 -->
<g id="edge8" class="edge"><title>Node3&#45;&gt;Node8</title>
<path fill="none" stroke="midnightblue" d="M520.251,-157.863C529.759,-155.397 539.289,-152.315 548,-148.47 566.056,-140.5 566.502,-131.6 584,-122.47 588.044,-120.36 592.305,-118.362 596.65,-116.486"/>
<polygon fill="midnightblue" stroke="midnightblue" points="598.304,-119.591 606.243,-112.575 595.662,-113.109 598.304,-119.591"/>
</g>
<!-- Node6 -->
<g id="node6" class="node"><title>Node6</title>
<g id="a_node6"><a xlink:href="../../d6/d7e/class_t_m_c2208_stepper.html#a5441dd87d0bcea4ffc309cb012166a57" target="_top" xlink:title=" ">
<polygon fill="white" stroke="black" points="765,-87.9696 765,-106.97 881,-106.97 881,-87.9696 765,-87.9696"/>
<text text-anchor="middle" x="823" y="-94.9696" font-family="Helvetica,sans-Serif" font-size="10.00">TMC2208Stepper::IOIN</text>
</a>
</g>
</g>
<!-- Node5&#45;&gt;Node6 -->
<g id="edge5" class="edge"><title>Node5&#45;&gt;Node6</title>
<path fill="none" stroke="midnightblue" d="M702.551,-169.968C711.507,-167.396 720.702,-164.251 729,-160.47 756.451,-147.961 784.683,-127.566 802.73,-113.383"/>
<polygon fill="midnightblue" stroke="midnightblue" points="805.106,-115.965 810.723,-106.982 800.73,-110.501 805.106,-115.965"/>
</g>
<!-- Node6&#45;&gt;Node2 -->
<g id="edge6" class="edge"><title>Node6&#45;&gt;Node2</title>
<path fill="none" stroke="midnightblue" d="M812.209,-87.8203C796.34,-72.9361 763.305,-44.9951 729,-34.4696 573.914,13.1145 520.13,9.56986 364,-34.4696 335.807,-42.4221 307.729,-61.5756 289.921,-75.4902"/>
<polygon fill="midnightblue" stroke="midnightblue" points="287.643,-72.8308 282.049,-81.8281 292.033,-78.2834 287.643,-72.8308"/>
</g>
<!-- Node12 -->
<g id="node12" class="node"><title>Node12</title>
<g id="a_node12"><a xlink:href="../../d9/d98/class_s_switch.html#a6ff09d0850d551571dc333fb74ff8628" target="_top" xlink:title=" ">
<polygon fill="white" stroke="black" points="615,-43.9696 615,-62.9696 698,-62.9696 698,-43.9696 615,-43.9696"/>
<text text-anchor="middle" x="656.5" y="-50.9696" font-family="Helvetica,sans-Serif" font-size="10.00">SSwitch::active</text>
</a>
</g>
</g>
<!-- Node11&#45;&gt;Node12 -->
<g id="edge12" class="edge"><title>Node11&#45;&gt;Node12</title>
<path fill="none" stroke="midnightblue" d="M545.51,-53.4696C565.828,-53.4696 586.753,-53.4696 604.826,-53.4696"/>
<polygon fill="midnightblue" stroke="midnightblue" points="604.83,-56.9697 614.83,-53.4696 604.83,-49.9697 604.83,-56.9697"/>
</g>
</g>
</svg>
