<?xml version="1.0" encoding="UTF-8" standalone="no"?>
<!DOCTYPE svg PUBLIC "-//W3C//DTD SVG 1.1//EN"
 "http://www.w3.org/Graphics/SVG/1.1/DTD/svg11.dtd">
<!-- Generated by graphviz version 2.38.0 (20140413.2041)
 -->
<!-- Title: TMC2208Stepper::pdn_uart Pages: 1 -->
<svg width="848pt" height="201pt"
 viewBox="0.00 0.00 848.00 201.00" xmlns="http://www.w3.org/2000/svg" xmlns:xlink="http://www.w3.org/1999/xlink">
<g id="graph0" class="graph" transform="scale(1 1) rotate(0) translate(4 197)">
<title>TMC2208Stepper::pdn_uart</title>
<polygon fill="white" stroke="none" points="-4,4 -4,-197 844,-197 844,4 -4,4"/>
<!-- Node1 -->
<g id="node1" class="node"><title>Node1</title>
<g id="a_node1"><a xlink:title=" ">
<polygon fill="#bfbfbf" stroke="black" points="0,-19.5 0,-38.5 135,-38.5 135,-19.5 0,-19.5"/>
<text text-anchor="middle" x="67.5" y="-26.5" font-family="Helvetica,sans-Serif" font-size="10.00">TMC2208Stepper::pdn_uart</text>
</a>
</g>
</g>
<!-- Node2 -->
<g id="node2" class="node"><title>Node2</title>
<g id="a_node2"><a xlink:href="../../d6/d7e/class_t_m_c2208_stepper.html#a5441dd87d0bcea4ffc309cb012166a57" target="_top" xlink:title=" ">
<polygon fill="white" stroke="black" points="171,-19.5 171,-38.5 287,-38.5 287,-19.5 171,-19.5"/>
<text text-anchor="middle" x="229" y="-26.5" font-family="Helvetica,sans-Serif" font-size="10.00">TMC2208Stepper::IOIN</text>
</a>
</g>
</g>
<!-- Node1&#45;&gt;Node2 -->
<g id="edge1" class="edge"><title>Node1&#45;&gt;Node2</title>
<path fill="none" stroke="midnightblue" d="M135.218,-29C143.593,-29 152.166,-29 160.552,-29"/>
<polygon fill="midnightblue" stroke="midnightblue" points="160.663,-32.5001 170.663,-29 160.663,-25.5001 160.663,-32.5001"/>
</g>
<!-- Node3 -->
<g id="node3" class="node"><title>Node3</title>
<g id="a_node3"><a xlink:href="../../d6/d7e/class_t_m_c2208_stepper.html#a2fae2050849c3ab7968012def8ea1cc5" target="_top" xlink:title=" ">
<polygon fill="white" stroke="black" points="323,-57.5 323,-76.5 439,-76.5 439,-57.5 323,-57.5"/>
<text text-anchor="middle" x="381" y="-64.5" font-family="Helvetica,sans-Serif" font-size="10.00">TMC2208Stepper::read</text>
</a>
</g>
</g>
<!-- Node2&#45;&gt;Node3 -->
<g id="edge2" class="edge"><title>Node2&#45;&gt;Node3</title>
<path fill="none" stroke="midnightblue" d="M267.851,-38.589C287.467,-43.5583 311.619,-49.6767 332.479,-54.9613"/>
<polygon fill="midnightblue" stroke="midnightblue" points="331.868,-58.4169 342.421,-57.4799 333.587,-51.6313 331.868,-58.4169"/>
</g>
<!-- Node4 -->
<g id="node4" class="node"><title>Node4</title>
<g id="a_node4"><a xlink:href="../../d6/d7e/class_t_m_c2208_stepper.html#a321ad81155b7a20c0858920d32d0b074" target="_top" xlink:title=" ">
<polygon fill="white" stroke="black" points="484,-95.5 484,-114.5 650,-114.5 650,-95.5 484,-95.5"/>
<text text-anchor="middle" x="567" y="-102.5" font-family="Helvetica,sans-Serif" font-size="10.00">TMC2208Stepper::_sendDatagram</text>
</a>
</g>
</g>
<!-- Node3&#45;&gt;Node4 -->
<g id="edge3" class="edge"><title>Node3&#45;&gt;Node4</title>
<path fill="none" stroke="midnightblue" d="M428.431,-76.589C453.149,-81.6939 483.739,-88.0113 509.792,-93.3918"/>
<polygon fill="midnightblue" stroke="midnightblue" points="509.402,-96.885 519.903,-95.4799 510.817,-90.0297 509.402,-96.885"/>
</g>
<!-- Node9 -->
<g id="node9" class="node"><title>Node9</title>
<g id="a_node9"><a xlink:href="../../d6/d7e/class_t_m_c2208_stepper.html#a409c19fa6b052a370a317d061bf9af4e" target="_top" xlink:title=" ">
<polygon fill="white" stroke="black" points="499,-57.5 499,-76.5 635,-76.5 635,-57.5 499,-57.5"/>
<text text-anchor="middle" x="567" y="-64.5" font-family="Helvetica,sans-Serif" font-size="10.00">TMC2208Stepper::calcCRC</text>
</a>
</g>
</g>
<!-- Node3&#45;&gt;Node9 -->
<g id="edge9" class="edge"><title>Node3&#45;&gt;Node9</title>
<path fill="none" stroke="midnightblue" d="M439.21,-67C454.848,-67 472.059,-67 488.621,-67"/>
<polygon fill="midnightblue" stroke="midnightblue" points="488.829,-70.5001 498.829,-67 488.829,-63.5001 488.829,-70.5001"/>
</g>
<!-- Node10 -->
<g id="node10" class="node"><title>Node10</title>
<g id="a_node10"><a xlink:href="../../d6/d7e/class_t_m_c2208_stepper.html#a673ade174158b47e3b345b1d7b3c473d" target="_top" xlink:title=" ">
<polygon fill="white" stroke="black" points="475,-19.5 475,-38.5 659,-38.5 659,-19.5 475,-19.5"/>
<text text-anchor="middle" x="567" y="-26.5" font-family="Helvetica,sans-Serif" font-size="10.00">TMC2208Stepper::postCommunication</text>
</a>
</g>
</g>
<!-- Node3&#45;&gt;Node10 -->
<g id="edge10" class="edge"><title>Node3&#45;&gt;Node10</title>
<path fill="none" stroke="midnightblue" d="M428.431,-57.411C453.149,-52.3061 483.739,-45.9887 509.792,-40.6082"/>
<polygon fill="midnightblue" stroke="midnightblue" points="510.817,-43.9703 519.903,-38.5201 509.402,-37.115 510.817,-43.9703"/>
</g>
<!-- Node11 -->
<g id="node11" class="node"><title>Node11</title>
<g id="a_node11"><a xlink:href="../../d6/d7e/class_t_m_c2208_stepper.html#a0ba01db6c4c01da7cb0ace8a524ab1da" target="_top" xlink:title=" ">
<polygon fill="white" stroke="black" points="477.5,-139.5 477.5,-158.5 656.5,-158.5 656.5,-139.5 477.5,-139.5"/>
<text text-anchor="middle" x="567" y="-146.5" font-family="Helvetica,sans-Serif" font-size="10.00">TMC2208Stepper::preCommunication</text>
</a>
</g>
</g>
<!-- Node3&#45;&gt;Node11 -->
<g id="edge11" class="edge"><title>Node3&#45;&gt;Node11</title>
<path fill="none" stroke="midnightblue" d="M394.907,-76.5501C412.299,-89.0241 444.593,-110.821 475,-124 486.625,-129.038 499.529,-133.314 511.88,-136.828"/>
<polygon fill="midnightblue" stroke="midnightblue" points="511.064,-140.233 521.632,-139.483 512.903,-133.479 511.064,-140.233"/>
</g>
<!-- Node5 -->
<g id="node5" class="node"><title>Node5</title>
<g id="a_node5"><a xlink:href="../../d6/d7e/class_t_m_c2208_stepper.html#a7a670b15f45466f8d167a9b80fbf384f" target="_top" xlink:title=" ">
<polygon fill="white" stroke="black" points="700.5,-85.5 700.5,-104.5 834.5,-104.5 834.5,-85.5 700.5,-85.5"/>
<text text-anchor="middle" x="767.5" y="-92.5" font-family="Helvetica,sans-Serif" font-size="10.00">TMC2208Stepper::available</text>
</a>
</g>
</g>
<!-- Node4&#45;&gt;Node5 -->
<g id="edge4" class="edge"><title>Node4&#45;&gt;Node5</title>
<path fill="none" stroke="midnightblue" d="M650.17,-100.86C663.383,-100.195 677.013,-99.5082 690.084,-98.8497"/>
<polygon fill="midnightblue" stroke="midnightblue" points="690.616,-102.327 700.428,-98.3286 690.264,-95.3362 690.616,-102.327"/>
</g>
<!-- Node6 -->
<g id="node6" class="node"><title>Node6</title>
<g id="a_node6"><a xlink:href="../../d6/d7e/class_t_m_c2208_stepper.html#a4ec5d2b2f5a31259c7aba1f3208d63b8" target="_top" xlink:title=" ">
<polygon fill="white" stroke="black" points="709.5,-0.5 709.5,-19.5 825.5,-19.5 825.5,-0.5 709.5,-0.5"/>
<text text-anchor="middle" x="767.5" y="-7.5" font-family="Helvetica,sans-Serif" font-size="10.00">TMC2208Stepper::ms2</text>
</a>
</g>
</g>
<!-- Node4&#45;&gt;Node6 -->
<g id="edge5" class="edge"><title>Node4&#45;&gt;Node6</title>
<path fill="none" stroke="midnightblue" d="M639.064,-95.4993C646.087,-93.0129 652.872,-89.8981 659,-86 681.5,-71.687 673.776,-54.1441 695,-38 702.875,-32.01 712.193,-27.1398 721.457,-23.2435"/>
<polygon fill="midnightblue" stroke="midnightblue" points="722.97,-26.4104 731.027,-19.5296 720.438,-19.8845 722.97,-26.4104"/>
</g>
<!-- Node7 -->
<g id="node7" class="node"><title>Node7</title>
<g id="a_node7"><a xlink:href="../../d6/d7e/class_t_m_c2208_stepper.html#a129ceb04c3ea18e2c4ec1a59a51ece85" target="_top" xlink:title=" ">
<polygon fill="white" stroke="black" points="695,-47.5 695,-66.5 840,-66.5 840,-47.5 695,-47.5"/>
<text text-anchor="middle" x="767.5" y="-54.5" font-family="Helvetica,sans-Serif" font-size="10.00">TMC2208Stepper::serial_read</text>
</a>
</g>
</g>
<!-- Node4&#45;&gt;Node7 -->
<g id="edge7" class="edge"><title>Node4&#45;&gt;Node7</title>
<path fill="none" stroke="midnightblue" d="M616.775,-95.4266C630.476,-92.5721 645.356,-89.3157 659,-86 675.136,-82.0787 678.975,-80.3547 695,-76 703.196,-73.7728 711.928,-71.4285 720.373,-69.1762"/>
<polygon fill="midnightblue" stroke="midnightblue" points="721.341,-72.5405 730.105,-66.587 719.541,-65.7758 721.341,-72.5405"/>
</g>
<!-- Node8 -->
<g id="node8" class="node"><title>Node8</title>
<g id="a_node8"><a xlink:href="../../d6/d7e/class_t_m_c2208_stepper.html#aa7f2c1a3a1cda9a328c186c6d7cbfe41" target="_top" xlink:title=" ">
<polygon fill="white" stroke="black" points="707,-124 707,-154 828,-154 828,-124 707,-124"/>
<text text-anchor="start" x="715" y="-142" font-family="Helvetica,sans-Serif" font-size="10.00">TMC2208Stepper::serial</text>
<text text-anchor="middle" x="767.5" y="-131" font-family="Helvetica,sans-Serif" font-size="10.00">_write</text>
</a>
</g>
</g>
<!-- Node4&#45;&gt;Node8 -->
<g id="edge8" class="edge"><title>Node4&#45;&gt;Node8</title>
<path fill="none" stroke="midnightblue" d="M623.557,-114.516C646.238,-118.401 672.722,-122.937 696.688,-127.042"/>
<polygon fill="midnightblue" stroke="midnightblue" points="696.339,-130.533 706.787,-128.772 697.521,-123.634 696.339,-130.533"/>
</g>
<!-- Node6&#45;&gt;Node2 -->
<g id="edge6" class="edge"><title>Node6&#45;&gt;Node2</title>
<path fill="none" stroke="midnightblue" d="M709.227,-8.69287C650.429,-7.65791 556.291,-6.85263 475,-10 414.903,-12.3268 346.699,-17.8526 297.541,-22.3486"/>
<polygon fill="midnightblue" stroke="midnightblue" points="296.985,-18.8849 287.35,-23.2908 297.63,-25.8552 296.985,-18.8849"/>
</g>
<!-- Node12 -->
<g id="node12" class="node"><title>Node12</title>
<g id="a_node12"><a xlink:href="../../d9/d98/class_s_switch.html#a6ff09d0850d551571dc333fb74ff8628" target="_top" xlink:title=" ">
<polygon fill="white" stroke="black" points="726,-173.5 726,-192.5 809,-192.5 809,-173.5 726,-173.5"/>
<text text-anchor="middle" x="767.5" y="-180.5" font-family="Helvetica,sans-Serif" font-size="10.00">SSwitch::active</text>
</a>
</g>
</g>
<!-- Node11&#45;&gt;Node12 -->
<g id="edge12" class="edge"><title>Node11&#45;&gt;Node12</title>
<path fill="none" stroke="midnightblue" d="M623.557,-158.516C652.466,-163.468 687.552,-169.478 715.729,-174.304"/>
<polygon fill="midnightblue" stroke="midnightblue" points="715.326,-177.786 725.773,-176.024 716.508,-170.886 715.326,-177.786"/>
</g>
</g>
</svg>
