<?xml version="1.0" encoding="UTF-8" standalone="no"?>
<!DOCTYPE svg PUBLIC "-//W3C//DTD SVG 1.1//EN"
 "http://www.w3.org/Graphics/SVG/1.1/DTD/svg11.dtd">
<!-- Generated by graphviz version 2.38.0 (20140413.2041)
 -->
<!-- Title: TMC2208Stepper::ottrim Pages: 1 -->
<svg width="1047pt" height="235pt"
 viewBox="0.00 0.00 1047.00 235.47" xmlns="http://www.w3.org/2000/svg" xmlns:xlink="http://www.w3.org/1999/xlink">
<g id="graph0" class="graph" transform="scale(1 1) rotate(0) translate(4 231.47)">
<title>TMC2208Stepper::ottrim</title>
<polygon fill="white" stroke="none" points="-4,4 -4,-231.47 1043,-231.47 1043,4 -4,4"/>
<!-- Node1 -->
<g id="node1" class="node"><title>Node1</title>
<g id="a_node1"><a xlink:title=" ">
<polygon fill="#bfbfbf" stroke="black" points="0,-81.9696 0,-100.97 122,-100.97 122,-81.9696 0,-81.9696"/>
<text text-anchor="middle" x="61" y="-88.9696" font-family="Helvetica,sans-Serif" font-size="10.00">TMC2208Stepper::ottrim</text>
</a>
</g>
</g>
<!-- Node2 -->
<g id="node2" class="node"><title>Node2</title>
<g id="a_node2"><a xlink:href="../../d6/d7e/class_t_m_c2208_stepper.html#a64c51922eb2029e4bbcd4f8a51b6a6ae" target="_top" xlink:title=" ">
<polygon fill="white" stroke="black" points="158,-81.9696 158,-100.97 334,-100.97 334,-81.9696 158,-81.9696"/>
<text text-anchor="middle" x="246" y="-88.9696" font-family="Helvetica,sans-Serif" font-size="10.00">TMC2208Stepper::FACTORY_CONF</text>
</a>
</g>
</g>
<!-- Node1&#45;&gt;Node2 -->
<g id="edge1" class="edge"><title>Node1&#45;&gt;Node2</title>
<path fill="none" stroke="midnightblue" d="M122.175,-91.4696C130.411,-91.4696 139.032,-91.4696 147.723,-91.4696"/>
<polygon fill="midnightblue" stroke="midnightblue" points="147.939,-94.9697 157.939,-91.4696 147.939,-87.9697 147.939,-94.9697"/>
</g>
<!-- Node3 -->
<g id="node3" class="node"><title>Node3</title>
<g id="a_node3"><a xlink:href="../../d6/d7e/class_t_m_c2208_stepper.html#a2fae2050849c3ab7968012def8ea1cc5" target="_top" xlink:title=" ">
<polygon fill="white" stroke="black" points="370,-81.9696 370,-100.97 486,-100.97 486,-81.9696 370,-81.9696"/>
<text text-anchor="middle" x="428" y="-88.9696" font-family="Helvetica,sans-Serif" font-size="10.00">TMC2208Stepper::read</text>
</a>
</g>
</g>
<!-- Node2&#45;&gt;Node3 -->
<g id="edge2" class="edge"><title>Node2&#45;&gt;Node3</title>
<path fill="none" stroke="midnightblue" d="M334.1,-91.4696C342.713,-91.4696 351.361,-91.4696 359.729,-91.4696"/>
<polygon fill="midnightblue" stroke="midnightblue" points="359.775,-94.9697 369.775,-91.4696 359.775,-87.9697 359.775,-94.9697"/>
</g>
<!-- Node4 -->
<g id="node4" class="node"><title>Node4</title>
<g id="a_node4"><a xlink:href="../../d6/d7e/class_t_m_c2208_stepper.html#a321ad81155b7a20c0858920d32d0b074" target="_top" xlink:title=" ">
<polygon fill="white" stroke="black" points="531,-157.97 531,-176.97 697,-176.97 697,-157.97 531,-157.97"/>
<text text-anchor="middle" x="614" y="-164.97" font-family="Helvetica,sans-Serif" font-size="10.00">TMC2208Stepper::_sendDatagram</text>
</a>
</g>
</g>
<!-- Node3&#45;&gt;Node4 -->
<g id="edge3" class="edge"><title>Node3&#45;&gt;Node4</title>
<path fill="none" stroke="midnightblue" d="M441.494,-101.088C458.681,-113.843 491.022,-136.174 522,-148.47 528.6,-151.089 535.62,-153.37 542.72,-155.35"/>
<polygon fill="midnightblue" stroke="midnightblue" points="541.861,-158.743 552.42,-157.869 543.62,-151.968 541.861,-158.743"/>
</g>
<!-- Node10 -->
<g id="node10" class="node"><title>Node10</title>
<g id="a_node10"><a xlink:href="../../d6/d7e/class_t_m_c2208_stepper.html#a409c19fa6b052a370a317d061bf9af4e" target="_top" xlink:title=" ">
<polygon fill="white" stroke="black" points="546,-119.97 546,-138.97 682,-138.97 682,-119.97 546,-119.97"/>
<text text-anchor="middle" x="614" y="-126.97" font-family="Helvetica,sans-Serif" font-size="10.00">TMC2208Stepper::calcCRC</text>
</a>
</g>
</g>
<!-- Node3&#45;&gt;Node10 -->
<g id="edge10" class="edge"><title>Node3&#45;&gt;Node10</title>
<path fill="none" stroke="midnightblue" d="M475.431,-101.059C500.149,-106.163 530.739,-112.481 556.792,-117.861"/>
<polygon fill="midnightblue" stroke="midnightblue" points="556.402,-121.355 566.903,-119.95 557.817,-114.499 556.402,-121.355"/>
</g>
<!-- Node11 -->
<g id="node11" class="node"><title>Node11</title>
<g id="a_node11"><a xlink:href="../../d6/d7e/class_t_m_c2208_stepper.html#a673ade174158b47e3b345b1d7b3c473d" target="_top" xlink:title=" ">
<polygon fill="white" stroke="black" points="522,-81.9696 522,-100.97 706,-100.97 706,-81.9696 522,-81.9696"/>
<text text-anchor="middle" x="614" y="-88.9696" font-family="Helvetica,sans-Serif" font-size="10.00">TMC2208Stepper::postCommunication</text>
</a>
</g>
</g>
<!-- Node3&#45;&gt;Node11 -->
<g id="edge11" class="edge"><title>Node3&#45;&gt;Node11</title>
<path fill="none" stroke="midnightblue" d="M486.21,-91.4696C494.323,-91.4696 502.86,-91.4696 511.51,-91.4696"/>
<polygon fill="midnightblue" stroke="midnightblue" points="511.697,-94.9697 521.697,-91.4696 511.697,-87.9697 511.697,-94.9697"/>
</g>
<!-- Node12 -->
<g id="node12" class="node"><title>Node12</title>
<g id="a_node12"><a xlink:href="../../d6/d7e/class_t_m_c2208_stepper.html#a0ba01db6c4c01da7cb0ace8a524ab1da" target="_top" xlink:title=" ">
<polygon fill="white" stroke="black" points="524.5,-43.9696 524.5,-62.9696 703.5,-62.9696 703.5,-43.9696 524.5,-43.9696"/>
<text text-anchor="middle" x="614" y="-50.9696" font-family="Helvetica,sans-Serif" font-size="10.00">TMC2208Stepper::preCommunication</text>
</a>
</g>
</g>
<!-- Node3&#45;&gt;Node12 -->
<g id="edge12" class="edge"><title>Node3&#45;&gt;Node12</title>
<path fill="none" stroke="midnightblue" d="M475.431,-81.8806C500.149,-76.7758 530.739,-70.4583 556.792,-65.0778"/>
<polygon fill="midnightblue" stroke="midnightblue" points="557.817,-68.44 566.903,-62.9897 556.402,-61.5846 557.817,-68.44"/>
</g>
<!-- Node5 -->
<g id="node5" class="node"><title>Node5</title>
<g id="a_node5"><a xlink:href="../../d6/d7e/class_t_m_c2208_stepper.html#a7a670b15f45466f8d167a9b80fbf384f" target="_top" xlink:title=" ">
<polygon fill="white" stroke="black" points="747.5,-207.97 747.5,-226.97 881.5,-226.97 881.5,-207.97 747.5,-207.97"/>
<text text-anchor="middle" x="814.5" y="-214.97" font-family="Helvetica,sans-Serif" font-size="10.00">TMC2208Stepper::available</text>
</a>
</g>
</g>
<!-- Node4&#45;&gt;Node5 -->
<g id="edge4" class="edge"><title>Node4&#45;&gt;Node5</title>
<path fill="none" stroke="midnightblue" d="M652.804,-176.992C684.849,-185.064 730.983,-196.684 765.607,-205.406"/>
<polygon fill="midnightblue" stroke="midnightblue" points="764.948,-208.849 775.5,-207.898 766.657,-202.061 764.948,-208.849"/>
</g>
<!-- Node6 -->
<g id="node6" class="node"><title>Node6</title>
<g id="a_node6"><a xlink:href="../../d6/d7e/class_t_m_c2208_stepper.html#a4ec5d2b2f5a31259c7aba1f3208d63b8" target="_top" xlink:title=" ">
<polygon fill="white" stroke="black" points="756.5,-169.97 756.5,-188.97 872.5,-188.97 872.5,-169.97 756.5,-169.97"/>
<text text-anchor="middle" x="814.5" y="-176.97" font-family="Helvetica,sans-Serif" font-size="10.00">TMC2208Stepper::ms2</text>
</a>
</g>
</g>
<!-- Node4&#45;&gt;Node6 -->
<g id="edge5" class="edge"><title>Node4&#45;&gt;Node6</title>
<path fill="none" stroke="midnightblue" d="M697.17,-172.437C713.532,-173.426 730.531,-174.454 746.318,-175.408"/>
<polygon fill="midnightblue" stroke="midnightblue" points="746.305,-178.914 756.498,-176.024 746.727,-171.927 746.305,-178.914"/>
</g>
<!-- Node8 -->
<g id="node8" class="node"><title>Node8</title>
<g id="a_node8"><a xlink:href="../../d6/d7e/class_t_m_c2208_stepper.html#a129ceb04c3ea18e2c4ec1a59a51ece85" target="_top" xlink:title=" ">
<polygon fill="white" stroke="black" points="742,-131.97 742,-150.97 887,-150.97 887,-131.97 742,-131.97"/>
<text text-anchor="middle" x="814.5" y="-138.97" font-family="Helvetica,sans-Serif" font-size="10.00">TMC2208Stepper::serial_read</text>
</a>
</g>
</g>
<!-- Node4&#45;&gt;Node8 -->
<g id="edge8" class="edge"><title>Node4&#45;&gt;Node8</title>
<path fill="none" stroke="midnightblue" d="M687.787,-157.936C702.081,-156.064 717.166,-154.088 731.731,-152.18"/>
<polygon fill="midnightblue" stroke="midnightblue" points="732.256,-155.641 741.716,-150.872 731.346,-148.7 732.256,-155.641"/>
</g>
<!-- Node9 -->
<g id="node9" class="node"><title>Node9</title>
<g id="a_node9"><a xlink:href="../../d6/d7e/class_t_m_c2208_stepper.html#aa7f2c1a3a1cda9a328c186c6d7cbfe41" target="_top" xlink:title=" ">
<polygon fill="white" stroke="black" points="754,-82.4696 754,-112.47 875,-112.47 875,-82.4696 754,-82.4696"/>
<text text-anchor="start" x="762" y="-100.47" font-family="Helvetica,sans-Serif" font-size="10.00">TMC2208Stepper::serial</text>
<text text-anchor="middle" x="814.5" y="-89.4696" font-family="Helvetica,sans-Serif" font-size="10.00">_write</text>
</a>
</g>
</g>
<!-- Node4&#45;&gt;Node9 -->
<g id="edge9" class="edge"><title>Node4&#45;&gt;Node9</title>
<path fill="none" stroke="midnightblue" d="M678.251,-157.863C687.759,-155.397 697.289,-152.315 706,-148.47 724.056,-140.5 724.502,-131.6 742,-122.47 746.044,-120.36 750.305,-118.362 754.65,-116.486"/>
<polygon fill="midnightblue" stroke="midnightblue" points="756.304,-119.591 764.243,-112.575 753.662,-113.109 756.304,-119.591"/>
</g>
<!-- Node7 -->
<g id="node7" class="node"><title>Node7</title>
<g id="a_node7"><a xlink:href="../../d6/d7e/class_t_m_c2208_stepper.html#a5441dd87d0bcea4ffc309cb012166a57" target="_top" xlink:title=" ">
<polygon fill="white" stroke="black" points="923,-87.9696 923,-106.97 1039,-106.97 1039,-87.9696 923,-87.9696"/>
<text text-anchor="middle" x="981" y="-94.9696" font-family="Helvetica,sans-Serif" font-size="10.00">TMC2208Stepper::IOIN</text>
</a>
</g>
</g>
<!-- Node6&#45;&gt;Node7 -->
<g id="edge6" class="edge"><title>Node6&#45;&gt;Node7</title>
<path fill="none" stroke="midnightblue" d="M860.551,-169.968C869.507,-167.396 878.702,-164.251 887,-160.47 914.451,-147.961 942.683,-127.566 960.73,-113.383"/>
<polygon fill="midnightblue" stroke="midnightblue" points="963.106,-115.965 968.723,-106.982 958.73,-110.501 963.106,-115.965"/>
</g>
<!-- Node7&#45;&gt;Node3 -->
<g id="edge7" class="edge"><title>Node7&#45;&gt;Node3</title>
<path fill="none" stroke="midnightblue" d="M970.209,-87.8203C954.34,-72.9361 921.305,-44.9951 887,-34.4696 731.914,13.1145 678.13,9.56986 522,-34.4696 493.807,-42.4221 465.729,-61.5756 447.921,-75.4902"/>
<polygon fill="midnightblue" stroke="midnightblue" points="445.643,-72.8308 440.049,-81.8281 450.033,-78.2834 445.643,-72.8308"/>
</g>
<!-- Node13 -->
<g id="node13" class="node"><title>Node13</title>
<g id="a_node13"><a xlink:href="../../d9/d98/class_s_switch.html#a6ff09d0850d551571dc333fb74ff8628" target="_top" xlink:title=" ">
<polygon fill="white" stroke="black" points="773,-43.9696 773,-62.9696 856,-62.9696 856,-43.9696 773,-43.9696"/>
<text text-anchor="middle" x="814.5" y="-50.9696" font-family="Helvetica,sans-Serif" font-size="10.00">SSwitch::active</text>
</a>
</g>
</g>
<!-- Node12&#45;&gt;Node13 -->
<g id="edge13" class="edge"><title>Node12&#45;&gt;Node13</title>
<path fill="none" stroke="midnightblue" d="M703.51,-53.4696C723.828,-53.4696 744.753,-53.4696 762.826,-53.4696"/>
<polygon fill="midnightblue" stroke="midnightblue" points="762.83,-56.9697 772.83,-53.4696 762.83,-49.9697 762.83,-56.9697"/>
</g>
</g>
</svg>
