<?xml version="1.0" encoding="UTF-8" standalone="no"?>
<!DOCTYPE svg PUBLIC "-//W3C//DTD SVG 1.1//EN"
 "http://www.w3.org/Graphics/SVG/1.1/DTD/svg11.dtd">
<!-- Generated by graphviz version 2.38.0 (20140413.2041)
 -->
<!-- Title: TMC2208Stepper::VACTUAL Pages: 1 -->
<svg width="643pt" height="154pt"
 viewBox="0.00 0.00 643.00 153.50" xmlns="http://www.w3.org/2000/svg" xmlns:xlink="http://www.w3.org/1999/xlink">
<g id="graph0" class="graph" transform="scale(1 1) rotate(0) translate(4 149.5)">
<title>TMC2208Stepper::VACTUAL</title>
<polygon fill="white" stroke="none" points="-4,4 -4,-149.5 639,-149.5 639,4 -4,4"/>
<!-- Node1 -->
<g id="node1" class="node"><title>Node1</title>
<g id="a_node1"><a xlink:title=" ">
<polygon fill="#bfbfbf" stroke="black" points="0,-69 0,-88 142,-88 142,-69 0,-69"/>
<text text-anchor="middle" x="71" y="-76" font-family="Helvetica,sans-Serif" font-size="10.00">TMC2208Stepper::VACTUAL</text>
</a>
</g>
</g>
<!-- Node2 -->
<g id="node2" class="node"><title>Node2</title>
<g id="a_node2"><a xlink:href="../../d6/d7e/class_t_m_c2208_stepper.html#a142b14de8a4dcc6cf76b4a6ede9e1cea" target="_top" xlink:title=" ">
<polygon fill="white" stroke="black" points="178,-69 178,-88 296,-88 296,-69 178,-69"/>
<text text-anchor="middle" x="237" y="-76" font-family="Helvetica,sans-Serif" font-size="10.00">TMC2208Stepper::write</text>
</a>
</g>
</g>
<!-- Node1&#45;&gt;Node2 -->
<g id="edge1" class="edge"><title>Node1&#45;&gt;Node2</title>
<path fill="none" stroke="midnightblue" d="M142.026,-78.5C150.506,-78.5 159.16,-78.5 167.615,-78.5"/>
<polygon fill="midnightblue" stroke="midnightblue" points="167.806,-82.0001 177.806,-78.5 167.805,-75.0001 167.806,-82.0001"/>
</g>
<!-- Node3 -->
<g id="node3" class="node"><title>Node3</title>
<g id="a_node3"><a xlink:href="../../d6/d7e/class_t_m_c2208_stepper.html#a409c19fa6b052a370a317d061bf9af4e" target="_top" xlink:title=" ">
<polygon fill="white" stroke="black" points="356,-126 356,-145 492,-145 492,-126 356,-126"/>
<text text-anchor="middle" x="424" y="-133" font-family="Helvetica,sans-Serif" font-size="10.00">TMC2208Stepper::calcCRC</text>
</a>
</g>
</g>
<!-- Node2&#45;&gt;Node3 -->
<g id="edge2" class="edge"><title>Node2&#45;&gt;Node3</title>
<path fill="none" stroke="midnightblue" d="M258.524,-88.037C277.315,-96.4682 306.063,-108.619 332,-116.5 340.732,-119.153 350.046,-121.562 359.26,-123.703"/>
<polygon fill="midnightblue" stroke="midnightblue" points="358.663,-127.156 369.186,-125.922 360.19,-120.325 358.663,-127.156"/>
</g>
<!-- Node4 -->
<g id="node4" class="node"><title>Node4</title>
<g id="a_node4"><a xlink:href="../../d6/d7e/class_t_m_c2208_stepper.html#a673ade174158b47e3b345b1d7b3c473d" target="_top" xlink:title=" ">
<polygon fill="white" stroke="black" points="332,-88 332,-107 516,-107 516,-88 332,-88"/>
<text text-anchor="middle" x="424" y="-95" font-family="Helvetica,sans-Serif" font-size="10.00">TMC2208Stepper::postCommunication</text>
</a>
</g>
</g>
<!-- Node2&#45;&gt;Node4 -->
<g id="edge3" class="edge"><title>Node2&#45;&gt;Node4</title>
<path fill="none" stroke="midnightblue" d="M296.028,-84.4596C304.343,-85.3136 313.091,-86.2121 321.945,-87.1214"/>
<polygon fill="midnightblue" stroke="midnightblue" points="321.664,-90.6108 331.969,-88.1509 322.379,-83.6475 321.664,-90.6108"/>
</g>
<!-- Node5 -->
<g id="node5" class="node"><title>Node5</title>
<g id="a_node5"><a xlink:href="../../d6/d7e/class_t_m_c2208_stepper.html#a0ba01db6c4c01da7cb0ace8a524ab1da" target="_top" xlink:title=" ">
<polygon fill="white" stroke="black" points="334.5,-50 334.5,-69 513.5,-69 513.5,-50 334.5,-50"/>
<text text-anchor="middle" x="424" y="-57" font-family="Helvetica,sans-Serif" font-size="10.00">TMC2208Stepper::preCommunication</text>
</a>
</g>
</g>
<!-- Node2&#45;&gt;Node5 -->
<g id="edge4" class="edge"><title>Node2&#45;&gt;Node5</title>
<path fill="none" stroke="midnightblue" d="M296.028,-72.5404C305.072,-71.6115 314.629,-70.63 324.277,-69.6391"/>
<polygon fill="midnightblue" stroke="midnightblue" points="324.757,-73.1083 334.347,-68.6049 324.042,-66.145 324.757,-73.1083"/>
</g>
<!-- Node7 -->
<g id="node7" class="node"><title>Node7</title>
<g id="a_node7"><a xlink:href="../../d6/d7e/class_t_m_c2208_stepper.html#aa7f2c1a3a1cda9a328c186c6d7cbfe41" target="_top" xlink:title=" ">
<polygon fill="white" stroke="black" points="363.5,-0.5 363.5,-30.5 484.5,-30.5 484.5,-0.5 363.5,-0.5"/>
<text text-anchor="start" x="371.5" y="-18.5" font-family="Helvetica,sans-Serif" font-size="10.00">TMC2208Stepper::serial</text>
<text text-anchor="middle" x="424" y="-7.5" font-family="Helvetica,sans-Serif" font-size="10.00">_write</text>
</a>
</g>
</g>
<!-- Node2&#45;&gt;Node7 -->
<g id="edge6" class="edge"><title>Node2&#45;&gt;Node7</title>
<path fill="none" stroke="midnightblue" d="M259.761,-68.8638C278.642,-60.7065 306.821,-49.0159 332,-40.5 339.312,-38.0271 347.014,-35.6178 354.715,-33.3323"/>
<polygon fill="midnightblue" stroke="midnightblue" points="355.813,-36.6581 364.44,-30.5082 353.861,-29.9358 355.813,-36.6581"/>
</g>
<!-- Node6 -->
<g id="node6" class="node"><title>Node6</title>
<g id="a_node6"><a xlink:href="../../d9/d98/class_s_switch.html#a6ff09d0850d551571dc333fb74ff8628" target="_top" xlink:title=" ">
<polygon fill="white" stroke="black" points="552,-50 552,-69 635,-69 635,-50 552,-50"/>
<text text-anchor="middle" x="593.5" y="-57" font-family="Helvetica,sans-Serif" font-size="10.00">SSwitch::active</text>
</a>
</g>
</g>
<!-- Node5&#45;&gt;Node6 -->
<g id="edge5" class="edge"><title>Node5&#45;&gt;Node6</title>
<path fill="none" stroke="midnightblue" d="M513.655,-59.5C523.243,-59.5 532.745,-59.5 541.657,-59.5"/>
<polygon fill="midnightblue" stroke="midnightblue" points="541.816,-63.0001 551.816,-59.5 541.816,-56.0001 541.816,-63.0001"/>
</g>
</g>
</svg>
