<?xml version="1.0" encoding="UTF-8" standalone="no"?>
<!DOCTYPE svg PUBLIC "-//W3C//DTD SVG 1.1//EN"
 "http://www.w3.org/Graphics/SVG/1.1/DTD/svg11.dtd">
<!-- Generated by graphviz version 2.38.0 (20140413.2041)
 -->
<!-- Title: TMC2208Stepper::pdn_disable Pages: 1 -->
<svg width="994pt" height="235pt"
 viewBox="0.00 0.00 994.00 235.47" xmlns="http://www.w3.org/2000/svg" xmlns:xlink="http://www.w3.org/1999/xlink">
<g id="graph0" class="graph" transform="scale(1 1) rotate(0) translate(4 231.47)">
<title>TMC2208Stepper::pdn_disable</title>
<polygon fill="white" stroke="none" points="-4,4 -4,-231.47 990,-231.47 990,4 -4,4"/>
<!-- Node1 -->
<g id="node1" class="node"><title>Node1</title>
<g id="a_node1"><a xlink:title=" ">
<polygon fill="#bfbfbf" stroke="black" points="0,-76.4696 0,-106.47 113,-106.47 113,-76.4696 0,-76.4696"/>
<text text-anchor="start" x="8" y="-94.4696" font-family="Helvetica,sans-Serif" font-size="10.00">TMC2208Stepper::pdn</text>
<text text-anchor="middle" x="56.5" y="-83.4696" font-family="Helvetica,sans-Serif" font-size="10.00">_disable</text>
</a>
</g>
</g>
<!-- Node2 -->
<g id="node2" class="node"><title>Node2</title>
<g id="a_node2"><a xlink:href="../../d6/d7e/class_t_m_c2208_stepper.html#a549db4f962d4ae698dda33ef9a708e33" target="_top" xlink:title=" ">
<polygon fill="white" stroke="black" points="149,-81.9696 149,-100.97 281,-100.97 281,-81.9696 149,-81.9696"/>
<text text-anchor="middle" x="215" y="-88.9696" font-family="Helvetica,sans-Serif" font-size="10.00">TMC2208Stepper::GCONF</text>
</a>
</g>
</g>
<!-- Node1&#45;&gt;Node2 -->
<g id="edge1" class="edge"><title>Node1&#45;&gt;Node2</title>
<path fill="none" stroke="midnightblue" d="M113.117,-91.4696C121.452,-91.4696 130.162,-91.4696 138.822,-91.4696"/>
<polygon fill="midnightblue" stroke="midnightblue" points="138.94,-94.9697 148.94,-91.4696 138.94,-87.9697 138.94,-94.9697"/>
</g>
<!-- Node3 -->
<g id="node3" class="node"><title>Node3</title>
<g id="a_node3"><a xlink:href="../../d6/d7e/class_t_m_c2208_stepper.html#a2fae2050849c3ab7968012def8ea1cc5" target="_top" xlink:title=" ">
<polygon fill="white" stroke="black" points="317,-81.9696 317,-100.97 433,-100.97 433,-81.9696 317,-81.9696"/>
<text text-anchor="middle" x="375" y="-88.9696" font-family="Helvetica,sans-Serif" font-size="10.00">TMC2208Stepper::read</text>
</a>
</g>
</g>
<!-- Node2&#45;&gt;Node3 -->
<g id="edge2" class="edge"><title>Node2&#45;&gt;Node3</title>
<path fill="none" stroke="midnightblue" d="M281.177,-91.4696C289.517,-91.4696 298.069,-91.4696 306.445,-91.4696"/>
<polygon fill="midnightblue" stroke="midnightblue" points="306.55,-94.9697 316.55,-91.4696 306.55,-87.9697 306.55,-94.9697"/>
</g>
<!-- Node4 -->
<g id="node4" class="node"><title>Node4</title>
<g id="a_node4"><a xlink:href="../../d6/d7e/class_t_m_c2208_stepper.html#a321ad81155b7a20c0858920d32d0b074" target="_top" xlink:title=" ">
<polygon fill="white" stroke="black" points="478,-157.97 478,-176.97 644,-176.97 644,-157.97 478,-157.97"/>
<text text-anchor="middle" x="561" y="-164.97" font-family="Helvetica,sans-Serif" font-size="10.00">TMC2208Stepper::_sendDatagram</text>
</a>
</g>
</g>
<!-- Node3&#45;&gt;Node4 -->
<g id="edge3" class="edge"><title>Node3&#45;&gt;Node4</title>
<path fill="none" stroke="midnightblue" d="M388.494,-101.088C405.681,-113.843 438.022,-136.174 469,-148.47 475.6,-151.089 482.62,-153.37 489.72,-155.35"/>
<polygon fill="midnightblue" stroke="midnightblue" points="488.861,-158.743 499.42,-157.869 490.62,-151.968 488.861,-158.743"/>
</g>
<!-- Node10 -->
<g id="node10" class="node"><title>Node10</title>
<g id="a_node10"><a xlink:href="../../d6/d7e/class_t_m_c2208_stepper.html#a409c19fa6b052a370a317d061bf9af4e" target="_top" xlink:title=" ">
<polygon fill="white" stroke="black" points="493,-119.97 493,-138.97 629,-138.97 629,-119.97 493,-119.97"/>
<text text-anchor="middle" x="561" y="-126.97" font-family="Helvetica,sans-Serif" font-size="10.00">TMC2208Stepper::calcCRC</text>
</a>
</g>
</g>
<!-- Node3&#45;&gt;Node10 -->
<g id="edge10" class="edge"><title>Node3&#45;&gt;Node10</title>
<path fill="none" stroke="midnightblue" d="M422.431,-101.059C447.149,-106.163 477.739,-112.481 503.792,-117.861"/>
<polygon fill="midnightblue" stroke="midnightblue" points="503.402,-121.355 513.903,-119.95 504.817,-114.499 503.402,-121.355"/>
</g>
<!-- Node11 -->
<g id="node11" class="node"><title>Node11</title>
<g id="a_node11"><a xlink:href="../../d6/d7e/class_t_m_c2208_stepper.html#a673ade174158b47e3b345b1d7b3c473d" target="_top" xlink:title=" ">
<polygon fill="white" stroke="black" points="469,-81.9696 469,-100.97 653,-100.97 653,-81.9696 469,-81.9696"/>
<text text-anchor="middle" x="561" y="-88.9696" font-family="Helvetica,sans-Serif" font-size="10.00">TMC2208Stepper::postCommunication</text>
</a>
</g>
</g>
<!-- Node3&#45;&gt;Node11 -->
<g id="edge11" class="edge"><title>Node3&#45;&gt;Node11</title>
<path fill="none" stroke="midnightblue" d="M433.21,-91.4696C441.323,-91.4696 449.86,-91.4696 458.51,-91.4696"/>
<polygon fill="midnightblue" stroke="midnightblue" points="458.697,-94.9697 468.697,-91.4696 458.697,-87.9697 458.697,-94.9697"/>
</g>
<!-- Node12 -->
<g id="node12" class="node"><title>Node12</title>
<g id="a_node12"><a xlink:href="../../d6/d7e/class_t_m_c2208_stepper.html#a0ba01db6c4c01da7cb0ace8a524ab1da" target="_top" xlink:title=" ">
<polygon fill="white" stroke="black" points="471.5,-43.9696 471.5,-62.9696 650.5,-62.9696 650.5,-43.9696 471.5,-43.9696"/>
<text text-anchor="middle" x="561" y="-50.9696" font-family="Helvetica,sans-Serif" font-size="10.00">TMC2208Stepper::preCommunication</text>
</a>
</g>
</g>
<!-- Node3&#45;&gt;Node12 -->
<g id="edge12" class="edge"><title>Node3&#45;&gt;Node12</title>
<path fill="none" stroke="midnightblue" d="M422.431,-81.8806C447.149,-76.7758 477.739,-70.4583 503.792,-65.0778"/>
<polygon fill="midnightblue" stroke="midnightblue" points="504.817,-68.44 513.903,-62.9897 503.402,-61.5846 504.817,-68.44"/>
</g>
<!-- Node5 -->
<g id="node5" class="node"><title>Node5</title>
<g id="a_node5"><a xlink:href="../../d6/d7e/class_t_m_c2208_stepper.html#a7a670b15f45466f8d167a9b80fbf384f" target="_top" xlink:title=" ">
<polygon fill="white" stroke="black" points="694.5,-207.97 694.5,-226.97 828.5,-226.97 828.5,-207.97 694.5,-207.97"/>
<text text-anchor="middle" x="761.5" y="-214.97" font-family="Helvetica,sans-Serif" font-size="10.00">TMC2208Stepper::available</text>
</a>
</g>
</g>
<!-- Node4&#45;&gt;Node5 -->
<g id="edge4" class="edge"><title>Node4&#45;&gt;Node5</title>
<path fill="none" stroke="midnightblue" d="M599.804,-176.992C631.849,-185.064 677.983,-196.684 712.607,-205.406"/>
<polygon fill="midnightblue" stroke="midnightblue" points="711.948,-208.849 722.5,-207.898 713.657,-202.061 711.948,-208.849"/>
</g>
<!-- Node6 -->
<g id="node6" class="node"><title>Node6</title>
<g id="a_node6"><a xlink:href="../../d6/d7e/class_t_m_c2208_stepper.html#a4ec5d2b2f5a31259c7aba1f3208d63b8" target="_top" xlink:title=" ">
<polygon fill="white" stroke="black" points="703.5,-169.97 703.5,-188.97 819.5,-188.97 819.5,-169.97 703.5,-169.97"/>
<text text-anchor="middle" x="761.5" y="-176.97" font-family="Helvetica,sans-Serif" font-size="10.00">TMC2208Stepper::ms2</text>
</a>
</g>
</g>
<!-- Node4&#45;&gt;Node6 -->
<g id="edge5" class="edge"><title>Node4&#45;&gt;Node6</title>
<path fill="none" stroke="midnightblue" d="M644.17,-172.437C660.532,-173.426 677.531,-174.454 693.318,-175.408"/>
<polygon fill="midnightblue" stroke="midnightblue" points="693.305,-178.914 703.498,-176.024 693.727,-171.927 693.305,-178.914"/>
</g>
<!-- Node8 -->
<g id="node8" class="node"><title>Node8</title>
<g id="a_node8"><a xlink:href="../../d6/d7e/class_t_m_c2208_stepper.html#a129ceb04c3ea18e2c4ec1a59a51ece85" target="_top" xlink:title=" ">
<polygon fill="white" stroke="black" points="689,-131.97 689,-150.97 834,-150.97 834,-131.97 689,-131.97"/>
<text text-anchor="middle" x="761.5" y="-138.97" font-family="Helvetica,sans-Serif" font-size="10.00">TMC2208Stepper::serial_read</text>
</a>
</g>
</g>
<!-- Node4&#45;&gt;Node8 -->
<g id="edge8" class="edge"><title>Node4&#45;&gt;Node8</title>
<path fill="none" stroke="midnightblue" d="M634.787,-157.936C649.081,-156.064 664.166,-154.088 678.731,-152.18"/>
<polygon fill="midnightblue" stroke="midnightblue" points="679.256,-155.641 688.716,-150.872 678.346,-148.7 679.256,-155.641"/>
</g>
<!-- Node9 -->
<g id="node9" class="node"><title>Node9</title>
<g id="a_node9"><a xlink:href="../../d6/d7e/class_t_m_c2208_stepper.html#aa7f2c1a3a1cda9a328c186c6d7cbfe41" target="_top" xlink:title=" ">
<polygon fill="white" stroke="black" points="701,-82.4696 701,-112.47 822,-112.47 822,-82.4696 701,-82.4696"/>
<text text-anchor="start" x="709" y="-100.47" font-family="Helvetica,sans-Serif" font-size="10.00">TMC2208Stepper::serial</text>
<text text-anchor="middle" x="761.5" y="-89.4696" font-family="Helvetica,sans-Serif" font-size="10.00">_write</text>
</a>
</g>
</g>
<!-- Node4&#45;&gt;Node9 -->
<g id="edge9" class="edge"><title>Node4&#45;&gt;Node9</title>
<path fill="none" stroke="midnightblue" d="M625.251,-157.863C634.759,-155.397 644.289,-152.315 653,-148.47 671.056,-140.5 671.502,-131.6 689,-122.47 693.044,-120.36 697.305,-118.362 701.65,-116.486"/>
<polygon fill="midnightblue" stroke="midnightblue" points="703.304,-119.591 711.243,-112.575 700.662,-113.109 703.304,-119.591"/>
</g>
<!-- Node7 -->
<g id="node7" class="node"><title>Node7</title>
<g id="a_node7"><a xlink:href="../../d6/d7e/class_t_m_c2208_stepper.html#a5441dd87d0bcea4ffc309cb012166a57" target="_top" xlink:title=" ">
<polygon fill="white" stroke="black" points="870,-87.9696 870,-106.97 986,-106.97 986,-87.9696 870,-87.9696"/>
<text text-anchor="middle" x="928" y="-94.9696" font-family="Helvetica,sans-Serif" font-size="10.00">TMC2208Stepper::IOIN</text>
</a>
</g>
</g>
<!-- Node6&#45;&gt;Node7 -->
<g id="edge6" class="edge"><title>Node6&#45;&gt;Node7</title>
<path fill="none" stroke="midnightblue" d="M807.551,-169.968C816.507,-167.396 825.702,-164.251 834,-160.47 861.451,-147.961 889.683,-127.566 907.73,-113.383"/>
<polygon fill="midnightblue" stroke="midnightblue" points="910.106,-115.965 915.723,-106.982 905.73,-110.501 910.106,-115.965"/>
</g>
<!-- Node7&#45;&gt;Node3 -->
<g id="edge7" class="edge"><title>Node7&#45;&gt;Node3</title>
<path fill="none" stroke="midnightblue" d="M917.209,-87.8203C901.34,-72.9361 868.305,-44.9951 834,-34.4696 678.914,13.1145 625.13,9.56986 469,-34.4696 440.807,-42.4221 412.729,-61.5756 394.921,-75.4902"/>
<polygon fill="midnightblue" stroke="midnightblue" points="392.643,-72.8308 387.049,-81.8281 397.033,-78.2834 392.643,-72.8308"/>
</g>
<!-- Node13 -->
<g id="node13" class="node"><title>Node13</title>
<g id="a_node13"><a xlink:href="../../d9/d98/class_s_switch.html#a6ff09d0850d551571dc333fb74ff8628" target="_top" xlink:title=" ">
<polygon fill="white" stroke="black" points="720,-43.9696 720,-62.9696 803,-62.9696 803,-43.9696 720,-43.9696"/>
<text text-anchor="middle" x="761.5" y="-50.9696" font-family="Helvetica,sans-Serif" font-size="10.00">SSwitch::active</text>
</a>
</g>
</g>
<!-- Node12&#45;&gt;Node13 -->
<g id="edge13" class="edge"><title>Node12&#45;&gt;Node13</title>
<path fill="none" stroke="midnightblue" d="M650.51,-53.4696C670.828,-53.4696 691.753,-53.4696 709.826,-53.4696"/>
<polygon fill="midnightblue" stroke="midnightblue" points="709.83,-56.9697 719.83,-53.4696 709.83,-49.9697 709.83,-56.9697"/>
</g>
</g>
</svg>
