<?xml version="1.0" encoding="UTF-8" standalone="no"?>
<!DOCTYPE svg PUBLIC "-//W3C//DTD SVG 1.1//EN"
 "http://www.w3.org/Graphics/SVG/1.1/DTD/svg11.dtd">
<!-- Generated by graphviz version 2.38.0 (20140413.2041)
 -->
<!-- Title: TMC2208Stepper::begin Pages: 1 -->
<!--zoomable 235 -->
<svg id="main" version="1.1" xmlns="http://www.w3.org/2000/svg" xmlns:xlink="http://www.w3.org/1999/xlink" xml:space="preserve" onload="init(evt)">
<style type="text/css"><![CDATA[
.edge:hover path { stroke: red; }
.edge:hover polygon { stroke: red; fill: red; }
]]></style>
<script type="text/javascript"><![CDATA[
var edges = document.getElementsByTagName('g');
if (edges && edges.length) {
  for (var i=0;i<edges.length;i++) {
    if (edges[i].id.substr(0,4)=='edge') {
      edges[i].setAttribute('class','edge');
    }
  }
}
]]></script>
        <defs>
                <circle id="rim" cx="0" cy="0" r="7"/>
                <circle id="rim2" cx="0" cy="0" r="3.5"/>
                <g id="zoomPlus">
                        <use xlink:href="#rim" fill="#404040">
                                <set attributeName="fill" to="#808080" begin="zoomplus.mouseover" end="zoomplus.mouseout"/>
                        </use>
                        <path d="M-4,0h8M0,-4v8" fill="none" stroke="white" stroke-width="1.5" pointer-events="none"/>
                </g>
                <g id="zoomMin">
                        <use xlink:href="#rim" fill="#404040">
                                <set attributeName="fill" to="#808080" begin="zoomminus.mouseover" end="zoomminus.mouseout"/>
                        </use>
                        <path d="M-4,0h8" fill="none" stroke="white" stroke-width="1.5" pointer-events="none"/>
                </g>
                <g id="dirArrow">
                        <path fill="none" stroke="white" stroke-width="1.5" d="M0,-3.0v7 M-2.5,-0.5L0,-3.0L2.5,-0.5"/>
                </g>
               <g id="resetDef">
                       <use xlink:href="#rim2" fill="#404040">
                               <set attributeName="fill" to="#808080" begin="reset.mouseover" end="reset.mouseout"/>
                       </use>
               </g>
        </defs>

<script type="text/javascript">
var viewWidth = 1184;
var viewHeight = 235;
var sectionId = 'dynsection-6';
</script>
<script xlink:href="../../svgpan.js"/>
<svg id="graph" class="graph">
<g id="viewport">
<title>TMC2208Stepper::begin</title>
<polygon fill="white" stroke="none" points="-4,4 -4,-231.47 1180,-231.47 1180,4 -4,4"/>
<!-- Node1 -->
<g id="node1" class="node"><title>Node1</title>
<g id="a_node1"><a xlink:title=" ">
<polygon fill="#bfbfbf" stroke="black" points="0,-106.97 0,-125.97 121,-125.97 121,-106.97 0,-106.97"/>
<text text-anchor="middle" x="60.5" y="-113.97" font-family="Helvetica,sans-Serif" font-size="10.00">TMC2208Stepper::begin</text>
</a>
</g>
</g>
<!-- Node2 -->
<g id="node2" class="node"><title>Node2</title>
<g id="a_node2"><a xlink:href="../../d6/d7e/class_t_m_c2208_stepper.html#a6621972ab7af79ca78579f692048a205" target="_top" xlink:title=" ">
<polygon fill="white" stroke="black" points="157,-150.97 157,-169.97 303,-169.97 303,-150.97 157,-150.97"/>
<text text-anchor="middle" x="230" y="-157.97" font-family="Helvetica,sans-Serif" font-size="10.00">TMC2208Stepper::beginSerial</text>
</a>
</g>
</g>
<!-- Node1&#45;&gt;Node2 -->
<g id="edge1" class="edge"><title>Node1&#45;&gt;Node2</title>
<path fill="none" stroke="midnightblue" d="M97.845,-126.017C122.758,-132.561 156.015,-141.297 182.806,-148.335"/>
<polygon fill="midnightblue" stroke="midnightblue" points="182.165,-151.785 192.726,-150.941 183.943,-145.015 182.165,-151.785"/>
</g>
<!-- Node3 -->
<g id="node3" class="node"><title>Node3</title>
<g id="a_node3"><a xlink:href="../../d6/d7e/class_t_m_c2208_stepper.html#a02994cba6b9ac73b61799cf7af0fd588" target="_top" xlink:title=" ">
<polygon fill="white" stroke="black" points="167.5,-101.47 167.5,-131.47 292.5,-131.47 292.5,-101.47 167.5,-101.47"/>
<text text-anchor="start" x="175.5" y="-119.47" font-family="Helvetica,sans-Serif" font-size="10.00">TMC2208Stepper::mstep</text>
<text text-anchor="middle" x="230" y="-108.47" font-family="Helvetica,sans-Serif" font-size="10.00">_reg_select</text>
</a>
</g>
</g>
<!-- Node1&#45;&gt;Node3 -->
<g id="edge2" class="edge"><title>Node1&#45;&gt;Node3</title>
<path fill="none" stroke="midnightblue" d="M121.026,-116.47C132.78,-116.47 145.23,-116.47 157.337,-116.47"/>
<polygon fill="midnightblue" stroke="midnightblue" points="157.402,-119.97 167.402,-116.47 157.402,-112.97 157.402,-119.97"/>
</g>
<!-- Node16 -->
<g id="node16" class="node"><title>Node16</title>
<g id="a_node16"><a xlink:href="../../d6/d7e/class_t_m_c2208_stepper.html#a9de4a150926f2875903be27063f00973" target="_top" xlink:title=" ">
<polygon fill="white" stroke="black" points="173.5,-52.4696 173.5,-82.4696 286.5,-82.4696 286.5,-52.4696 173.5,-52.4696"/>
<text text-anchor="start" x="181.5" y="-70.4696" font-family="Helvetica,sans-Serif" font-size="10.00">TMC2208Stepper::pdn</text>
<text text-anchor="middle" x="230" y="-59.4696" font-family="Helvetica,sans-Serif" font-size="10.00">_disable</text>
</a>
</g>
</g>
<!-- Node1&#45;&gt;Node16 -->
<g id="edge16" class="edge"><title>Node1&#45;&gt;Node16</title>
<path fill="none" stroke="midnightblue" d="M94.1933,-106.906C115.122,-100.783 142.928,-92.6488 167.849,-85.3585"/>
<polygon fill="midnightblue" stroke="midnightblue" points="168.983,-88.6736 177.598,-82.5066 167.018,-81.9552 168.983,-88.6736"/>
</g>
<!-- Node4 -->
<g id="node4" class="node"><title>Node4</title>
<g id="a_node4"><a xlink:href="../../d6/d7e/class_t_m_c2208_stepper.html#a549db4f962d4ae698dda33ef9a708e33" target="_top" xlink:title=" ">
<polygon fill="white" stroke="black" points="339,-81.9696 339,-100.97 471,-100.97 471,-81.9696 339,-81.9696"/>
<text text-anchor="middle" x="405" y="-88.9696" font-family="Helvetica,sans-Serif" font-size="10.00">TMC2208Stepper::GCONF</text>
</a>
</g>
</g>
<!-- Node3&#45;&gt;Node4 -->
<g id="edge3" class="edge"><title>Node3&#45;&gt;Node4</title>
<path fill="none" stroke="midnightblue" d="M292.968,-107.515C304.633,-105.829 316.947,-104.05 328.96,-102.314"/>
<polygon fill="midnightblue" stroke="midnightblue" points="329.563,-105.763 338.96,-100.868 328.562,-98.8348 329.563,-105.763"/>
</g>
<!-- Node5 -->
<g id="node5" class="node"><title>Node5</title>
<g id="a_node5"><a xlink:href="../../d6/d7e/class_t_m_c2208_stepper.html#a2fae2050849c3ab7968012def8ea1cc5" target="_top" xlink:title=" ">
<polygon fill="white" stroke="black" points="507,-81.9696 507,-100.97 623,-100.97 623,-81.9696 507,-81.9696"/>
<text text-anchor="middle" x="565" y="-88.9696" font-family="Helvetica,sans-Serif" font-size="10.00">TMC2208Stepper::read</text>
</a>
</g>
</g>
<!-- Node4&#45;&gt;Node5 -->
<g id="edge4" class="edge"><title>Node4&#45;&gt;Node5</title>
<path fill="none" stroke="midnightblue" d="M471.177,-91.4696C479.517,-91.4696 488.069,-91.4696 496.445,-91.4696"/>
<polygon fill="midnightblue" stroke="midnightblue" points="496.55,-94.9697 506.55,-91.4696 496.55,-87.9697 496.55,-94.9697"/>
</g>
<!-- Node6 -->
<g id="node6" class="node"><title>Node6</title>
<g id="a_node6"><a xlink:href="../../d6/d7e/class_t_m_c2208_stepper.html#a321ad81155b7a20c0858920d32d0b074" target="_top" xlink:title=" ">
<polygon fill="white" stroke="black" points="668,-157.97 668,-176.97 834,-176.97 834,-157.97 668,-157.97"/>
<text text-anchor="middle" x="751" y="-164.97" font-family="Helvetica,sans-Serif" font-size="10.00">TMC2208Stepper::_sendDatagram</text>
</a>
</g>
</g>
<!-- Node5&#45;&gt;Node6 -->
<g id="edge5" class="edge"><title>Node5&#45;&gt;Node6</title>
<path fill="none" stroke="midnightblue" d="M578.494,-101.088C595.681,-113.843 628.022,-136.174 659,-148.47 665.6,-151.089 672.62,-153.37 679.72,-155.35"/>
<polygon fill="midnightblue" stroke="midnightblue" points="678.861,-158.743 689.42,-157.869 680.62,-151.968 678.861,-158.743"/>
</g>
<!-- Node12 -->
<g id="node12" class="node"><title>Node12</title>
<g id="a_node12"><a xlink:href="../../d6/d7e/class_t_m_c2208_stepper.html#a409c19fa6b052a370a317d061bf9af4e" target="_top" xlink:title=" ">
<polygon fill="white" stroke="black" points="683,-119.97 683,-138.97 819,-138.97 819,-119.97 683,-119.97"/>
<text text-anchor="middle" x="751" y="-126.97" font-family="Helvetica,sans-Serif" font-size="10.00">TMC2208Stepper::calcCRC</text>
</a>
</g>
</g>
<!-- Node5&#45;&gt;Node12 -->
<g id="edge12" class="edge"><title>Node5&#45;&gt;Node12</title>
<path fill="none" stroke="midnightblue" d="M612.431,-101.059C637.149,-106.163 667.739,-112.481 693.792,-117.861"/>
<polygon fill="midnightblue" stroke="midnightblue" points="693.402,-121.355 703.903,-119.95 694.817,-114.499 693.402,-121.355"/>
</g>
<!-- Node13 -->
<g id="node13" class="node"><title>Node13</title>
<g id="a_node13"><a xlink:href="../../d6/d7e/class_t_m_c2208_stepper.html#a673ade174158b47e3b345b1d7b3c473d" target="_top" xlink:title=" ">
<polygon fill="white" stroke="black" points="659,-81.9696 659,-100.97 843,-100.97 843,-81.9696 659,-81.9696"/>
<text text-anchor="middle" x="751" y="-88.9696" font-family="Helvetica,sans-Serif" font-size="10.00">TMC2208Stepper::postCommunication</text>
</a>
</g>
</g>
<!-- Node5&#45;&gt;Node13 -->
<g id="edge13" class="edge"><title>Node5&#45;&gt;Node13</title>
<path fill="none" stroke="midnightblue" d="M623.21,-91.4696C631.323,-91.4696 639.86,-91.4696 648.51,-91.4696"/>
<polygon fill="midnightblue" stroke="midnightblue" points="648.697,-94.9697 658.697,-91.4696 648.697,-87.9697 648.697,-94.9697"/>
</g>
<!-- Node14 -->
<g id="node14" class="node"><title>Node14</title>
<g id="a_node14"><a xlink:href="../../d6/d7e/class_t_m_c2208_stepper.html#a0ba01db6c4c01da7cb0ace8a524ab1da" target="_top" xlink:title=" ">
<polygon fill="white" stroke="black" points="661.5,-43.9696 661.5,-62.9696 840.5,-62.9696 840.5,-43.9696 661.5,-43.9696"/>
<text text-anchor="middle" x="751" y="-50.9696" font-family="Helvetica,sans-Serif" font-size="10.00">TMC2208Stepper::preCommunication</text>
</a>
</g>
</g>
<!-- Node5&#45;&gt;Node14 -->
<g id="edge14" class="edge"><title>Node5&#45;&gt;Node14</title>
<path fill="none" stroke="midnightblue" d="M612.431,-81.8806C637.149,-76.7758 667.739,-70.4583 693.792,-65.0778"/>
<polygon fill="midnightblue" stroke="midnightblue" points="694.817,-68.44 703.903,-62.9897 693.402,-61.5846 694.817,-68.44"/>
</g>
<!-- Node7 -->
<g id="node7" class="node"><title>Node7</title>
<g id="a_node7"><a xlink:href="../../d6/d7e/class_t_m_c2208_stepper.html#a7a670b15f45466f8d167a9b80fbf384f" target="_top" xlink:title=" ">
<polygon fill="white" stroke="black" points="884.5,-207.97 884.5,-226.97 1018.5,-226.97 1018.5,-207.97 884.5,-207.97"/>
<text text-anchor="middle" x="951.5" y="-214.97" font-family="Helvetica,sans-Serif" font-size="10.00">TMC2208Stepper::available</text>
</a>
</g>
</g>
<!-- Node6&#45;&gt;Node7 -->
<g id="edge6" class="edge"><title>Node6&#45;&gt;Node7</title>
<path fill="none" stroke="midnightblue" d="M789.804,-176.992C821.849,-185.064 867.983,-196.684 902.607,-205.406"/>
<polygon fill="midnightblue" stroke="midnightblue" points="901.948,-208.849 912.5,-207.898 903.657,-202.061 901.948,-208.849"/>
</g>
<!-- Node8 -->
<g id="node8" class="node"><title>Node8</title>
<g id="a_node8"><a xlink:href="../../d6/d7e/class_t_m_c2208_stepper.html#a4ec5d2b2f5a31259c7aba1f3208d63b8" target="_top" xlink:title=" ">
<polygon fill="white" stroke="black" points="893.5,-169.97 893.5,-188.97 1009.5,-188.97 1009.5,-169.97 893.5,-169.97"/>
<text text-anchor="middle" x="951.5" y="-176.97" font-family="Helvetica,sans-Serif" font-size="10.00">TMC2208Stepper::ms2</text>
</a>
</g>
</g>
<!-- Node6&#45;&gt;Node8 -->
<g id="edge7" class="edge"><title>Node6&#45;&gt;Node8</title>
<path fill="none" stroke="midnightblue" d="M834.17,-172.437C850.532,-173.426 867.531,-174.454 883.318,-175.408"/>
<polygon fill="midnightblue" stroke="midnightblue" points="883.305,-178.914 893.498,-176.024 883.727,-171.927 883.305,-178.914"/>
</g>
<!-- Node10 -->
<g id="node10" class="node"><title>Node10</title>
<g id="a_node10"><a xlink:href="../../d6/d7e/class_t_m_c2208_stepper.html#a129ceb04c3ea18e2c4ec1a59a51ece85" target="_top" xlink:title=" ">
<polygon fill="white" stroke="black" points="879,-131.97 879,-150.97 1024,-150.97 1024,-131.97 879,-131.97"/>
<text text-anchor="middle" x="951.5" y="-138.97" font-family="Helvetica,sans-Serif" font-size="10.00">TMC2208Stepper::serial_read</text>
</a>
</g>
</g>
<!-- Node6&#45;&gt;Node10 -->
<g id="edge10" class="edge"><title>Node6&#45;&gt;Node10</title>
<path fill="none" stroke="midnightblue" d="M824.787,-157.936C839.081,-156.064 854.166,-154.088 868.731,-152.18"/>
<polygon fill="midnightblue" stroke="midnightblue" points="869.256,-155.641 878.716,-150.872 868.346,-148.7 869.256,-155.641"/>
</g>
<!-- Node11 -->
<g id="node11" class="node"><title>Node11</title>
<g id="a_node11"><a xlink:href="../../d6/d7e/class_t_m_c2208_stepper.html#aa7f2c1a3a1cda9a328c186c6d7cbfe41" target="_top" xlink:title=" ">
<polygon fill="white" stroke="black" points="891,-82.4696 891,-112.47 1012,-112.47 1012,-82.4696 891,-82.4696"/>
<text text-anchor="start" x="899" y="-100.47" font-family="Helvetica,sans-Serif" font-size="10.00">TMC2208Stepper::serial</text>
<text text-anchor="middle" x="951.5" y="-89.4696" font-family="Helvetica,sans-Serif" font-size="10.00">_write</text>
</a>
</g>
</g>
<!-- Node6&#45;&gt;Node11 -->
<g id="edge11" class="edge"><title>Node6&#45;&gt;Node11</title>
<path fill="none" stroke="midnightblue" d="M815.251,-157.863C824.759,-155.397 834.289,-152.315 843,-148.47 861.056,-140.5 861.502,-131.6 879,-122.47 883.044,-120.36 887.305,-118.362 891.65,-116.486"/>
<polygon fill="midnightblue" stroke="midnightblue" points="893.304,-119.591 901.243,-112.575 890.662,-113.109 893.304,-119.591"/>
</g>
<!-- Node9 -->
<g id="node9" class="node"><title>Node9</title>
<g id="a_node9"><a xlink:href="../../d6/d7e/class_t_m_c2208_stepper.html#a5441dd87d0bcea4ffc309cb012166a57" target="_top" xlink:title=" ">
<polygon fill="white" stroke="black" points="1060,-87.9696 1060,-106.97 1176,-106.97 1176,-87.9696 1060,-87.9696"/>
<text text-anchor="middle" x="1118" y="-94.9696" font-family="Helvetica,sans-Serif" font-size="10.00">TMC2208Stepper::IOIN</text>
</a>
</g>
</g>
<!-- Node8&#45;&gt;Node9 -->
<g id="edge8" class="edge"><title>Node8&#45;&gt;Node9</title>
<path fill="none" stroke="midnightblue" d="M997.551,-169.968C1006.51,-167.396 1015.7,-164.251 1024,-160.47 1051.45,-147.961 1079.68,-127.566 1097.73,-113.383"/>
<polygon fill="midnightblue" stroke="midnightblue" points="1100.11,-115.965 1105.72,-106.982 1095.73,-110.501 1100.11,-115.965"/>
</g>
<!-- Node9&#45;&gt;Node5 -->
<g id="edge9" class="edge"><title>Node9&#45;&gt;Node5</title>
<path fill="none" stroke="midnightblue" d="M1107.21,-87.8203C1091.34,-72.9361 1058.3,-44.9951 1024,-34.4696 868.914,13.1145 815.13,9.56986 659,-34.4696 630.807,-42.4221 602.729,-61.5756 584.921,-75.4902"/>
<polygon fill="midnightblue" stroke="midnightblue" points="582.643,-72.8308 577.049,-81.8281 587.033,-78.2834 582.643,-72.8308"/>
</g>
<!-- Node15 -->
<g id="node15" class="node"><title>Node15</title>
<g id="a_node15"><a xlink:href="../../d9/d98/class_s_switch.html#a6ff09d0850d551571dc333fb74ff8628" target="_top" xlink:title=" ">
<polygon fill="white" stroke="black" points="910,-43.9696 910,-62.9696 993,-62.9696 993,-43.9696 910,-43.9696"/>
<text text-anchor="middle" x="951.5" y="-50.9696" font-family="Helvetica,sans-Serif" font-size="10.00">SSwitch::active</text>
</a>
</g>
</g>
<!-- Node14&#45;&gt;Node15 -->
<g id="edge15" class="edge"><title>Node14&#45;&gt;Node15</title>
<path fill="none" stroke="midnightblue" d="M840.51,-53.4696C860.828,-53.4696 881.753,-53.4696 899.826,-53.4696"/>
<polygon fill="midnightblue" stroke="midnightblue" points="899.83,-56.9697 909.83,-53.4696 899.83,-49.9697 899.83,-56.9697"/>
</g>
<!-- Node16&#45;&gt;Node4 -->
<g id="edge17" class="edge"><title>Node16&#45;&gt;Node4</title>
<path fill="none" stroke="midnightblue" d="M286.691,-75.1955C300.044,-77.048 314.524,-79.0568 328.605,-81.0102"/>
<polygon fill="midnightblue" stroke="midnightblue" points="328.38,-84.5124 338.766,-82.4198 329.341,-77.5788 328.38,-84.5124"/>
</g>
</g>
</svg>
        <g id="navigator" transform="translate(0 0)" fill="#404254">
                <rect fill="#f2f5e9" fill-opacity="0.5" stroke="#606060" stroke-width=".5" x="0" y="0" width="60" height="60"/>
                <use id="zoomplus" xlink:href="#zoomPlus" x="17" y="9" onmousedown="handleZoom(evt,'in')"/>
                <use id="zoomminus" xlink:href="#zoomMin" x="42" y="9" onmousedown="handleZoom(evt,'out')"/>
                <use id="reset" xlink:href="#resetDef" x="30" y="36" onmousedown="handleReset()"/>
                <g id="arrowUp" xlink:href="#dirArrow" transform="translate(30 24)" onmousedown="handlePan(0,-1)">
                  <use xlink:href="#rim" fill="#404040">
                        <set attributeName="fill" to="#808080" begin="arrowUp.mouseover" end="arrowUp.mouseout"/>
                  </use>
                  <path fill="none" stroke="white" stroke-width="1.5" d="M0,-3.0v7 M-2.5,-0.5L0,-3.0L2.5,-0.5"/>
                </g>
                <g id="arrowRight" xlink:href="#dirArrow" transform="rotate(90) translate(36 -43)" onmousedown="handlePan(1,0)">
                  <use xlink:href="#rim" fill="#404040">
                        <set attributeName="fill" to="#808080" begin="arrowRight.mouseover" end="arrowRight.mouseout"/>
                  </use>
                  <path fill="none" stroke="white" stroke-width="1.5" d="M0,-3.0v7 M-2.5,-0.5L0,-3.0L2.5,-0.5"/>
                </g>
                <g id="arrowDown" xlink:href="#dirArrow" transform="rotate(180) translate(-30 -48)" onmousedown="handlePan(0,1)">
                  <use xlink:href="#rim" fill="#404040">
                        <set attributeName="fill" to="#808080" begin="arrowDown.mouseover" end="arrowDown.mouseout"/>
                  </use>
                  <path fill="none" stroke="white" stroke-width="1.5" d="M0,-3.0v7 M-2.5,-0.5L0,-3.0L2.5,-0.5"/>
                </g>
                <g id="arrowLeft" xlink:href="#dirArrow" transform="rotate(270) translate(-36 17)" onmousedown="handlePan(-1,0)">
                  <use xlink:href="#rim" fill="#404040">
                        <set attributeName="fill" to="#808080" begin="arrowLeft.mouseover" end="arrowLeft.mouseout"/>
                  </use>
                  <path fill="none" stroke="white" stroke-width="1.5" d="M0,-3.0v7 M-2.5,-0.5L0,-3.0L2.5,-0.5"/>
                </g>
        </g>
        <svg viewBox="0 0 15 15" width="100%" height="30px" preserveAspectRatio="xMaxYMin meet">
         <g id="arrow_out" transform="scale(0.3 0.3)">
          <a xlink:href="class_t_m_c2208_stepper_a974fa83e3bab04cd9f9a7b2d31ebd18e_cgraph_org.svg" target="_base">
           <rect id="button" ry="5" rx="5" y="6" x="6" height="38" width="38"
                fill="#f2f5e9" fill-opacity="0.5" stroke="#606060" stroke-width="1.0"/>
           <path id="arrow"
             d="M 11.500037,31.436501 C 11.940474,20.09759 22.043105,11.32322 32.158766,21.979434 L 37.068811,17.246167 C 37.068811,17.246167 37.088388,32 37.088388,32 L 22.160133,31.978069 C 22.160133,31.978069 26.997745,27.140456 26.997745,27.140456 C 18.528582,18.264221 13.291696,25.230495 11.500037,31.436501 z"
             style="fill:#404040;"/>
          </a>
         </g>
        </svg>
</svg>
