<?xml version="1.0" encoding="UTF-8" standalone="no"?>
<!DOCTYPE svg PUBLIC "-//W3C//DTD SVG 1.1//EN"
 "http://www.w3.org/Graphics/SVG/1.1/DTD/svg11.dtd">
<!-- Generated by graphviz version 2.38.0 (20140413.2041)
 -->
<!-- Title: TMC2208Stepper::index_step Pages: 1 -->
<svg width="1207pt" height="235pt"
 viewBox="0.00 0.00 1207.00 235.47" xmlns="http://www.w3.org/2000/svg" xmlns:xlink="http://www.w3.org/1999/xlink">
<g id="graph0" class="graph" transform="scale(1 1) rotate(0) translate(4 231.47)">
<title>TMC2208Stepper::index_step</title>
<polygon fill="white" stroke="none" points="-4,4 -4,-231.47 1203,-231.47 1203,4 -4,4"/>
<!-- Node1 -->
<g id="node1" class="node"><title>Node1</title>
<g id="a_node1"><a xlink:title=" ">
<polygon fill="#bfbfbf" stroke="black" points="0,-81.9696 0,-100.97 145,-100.97 145,-81.9696 0,-81.9696"/>
<text text-anchor="middle" x="72.5" y="-88.9696" font-family="Helvetica,sans-Serif" font-size="10.00">TMC2208Stepper::index_step</text>
</a>
</g>
</g>
<!-- Node2 -->
<g id="node2" class="node"><title>Node2</title>
<g id="a_node2"><a xlink:href="../../d6/d7e/class_t_m_c2208_stepper.html#aa0f677d760ac3c9a297a6f6d2778ec81" target="_top" xlink:title=" ">
<polygon fill="white" stroke="black" points="181,-81.9696 181,-100.97 326,-100.97 326,-81.9696 181,-81.9696"/>
<text text-anchor="middle" x="253.5" y="-88.9696" font-family="Helvetica,sans-Serif" font-size="10.00">TMC2208Stepper::index_step</text>
</a>
</g>
</g>
<!-- Node1&#45;&gt;Node2 -->
<g id="edge1" class="edge"><title>Node1&#45;&gt;Node2</title>
<path fill="none" stroke="midnightblue" d="M145.017,-91.4696C153.486,-91.4696 162.179,-91.4696 170.776,-91.4696"/>
<polygon fill="midnightblue" stroke="midnightblue" points="170.804,-94.9697 180.804,-91.4696 170.804,-87.9697 170.804,-94.9697"/>
</g>
<!-- Node3 -->
<g id="node3" class="node"><title>Node3</title>
<g id="a_node3"><a xlink:href="../../d6/d7e/class_t_m_c2208_stepper.html#a549db4f962d4ae698dda33ef9a708e33" target="_top" xlink:title=" ">
<polygon fill="white" stroke="black" points="362,-81.9696 362,-100.97 494,-100.97 494,-81.9696 362,-81.9696"/>
<text text-anchor="middle" x="428" y="-88.9696" font-family="Helvetica,sans-Serif" font-size="10.00">TMC2208Stepper::GCONF</text>
</a>
</g>
</g>
<!-- Node2&#45;&gt;Node3 -->
<g id="edge2" class="edge"><title>Node2&#45;&gt;Node3</title>
<path fill="none" stroke="midnightblue" d="M326.157,-91.4696C334.58,-91.4696 343.195,-91.4696 351.667,-91.4696"/>
<polygon fill="midnightblue" stroke="midnightblue" points="351.908,-94.9697 361.908,-91.4696 351.908,-87.9697 351.908,-94.9697"/>
</g>
<!-- Node4 -->
<g id="node4" class="node"><title>Node4</title>
<g id="a_node4"><a xlink:href="../../d6/d7e/class_t_m_c2208_stepper.html#a2fae2050849c3ab7968012def8ea1cc5" target="_top" xlink:title=" ">
<polygon fill="white" stroke="black" points="530,-81.9696 530,-100.97 646,-100.97 646,-81.9696 530,-81.9696"/>
<text text-anchor="middle" x="588" y="-88.9696" font-family="Helvetica,sans-Serif" font-size="10.00">TMC2208Stepper::read</text>
</a>
</g>
</g>
<!-- Node3&#45;&gt;Node4 -->
<g id="edge3" class="edge"><title>Node3&#45;&gt;Node4</title>
<path fill="none" stroke="midnightblue" d="M494.177,-91.4696C502.517,-91.4696 511.069,-91.4696 519.445,-91.4696"/>
<polygon fill="midnightblue" stroke="midnightblue" points="519.55,-94.9697 529.55,-91.4696 519.55,-87.9697 519.55,-94.9697"/>
</g>
<!-- Node5 -->
<g id="node5" class="node"><title>Node5</title>
<g id="a_node5"><a xlink:href="../../d6/d7e/class_t_m_c2208_stepper.html#a321ad81155b7a20c0858920d32d0b074" target="_top" xlink:title=" ">
<polygon fill="white" stroke="black" points="691,-157.97 691,-176.97 857,-176.97 857,-157.97 691,-157.97"/>
<text text-anchor="middle" x="774" y="-164.97" font-family="Helvetica,sans-Serif" font-size="10.00">TMC2208Stepper::_sendDatagram</text>
</a>
</g>
</g>
<!-- Node4&#45;&gt;Node5 -->
<g id="edge4" class="edge"><title>Node4&#45;&gt;Node5</title>
<path fill="none" stroke="midnightblue" d="M601.494,-101.088C618.681,-113.843 651.022,-136.174 682,-148.47 688.6,-151.089 695.62,-153.37 702.72,-155.35"/>
<polygon fill="midnightblue" stroke="midnightblue" points="701.861,-158.743 712.42,-157.869 703.62,-151.968 701.861,-158.743"/>
</g>
<!-- Node11 -->
<g id="node11" class="node"><title>Node11</title>
<g id="a_node11"><a xlink:href="../../d6/d7e/class_t_m_c2208_stepper.html#a409c19fa6b052a370a317d061bf9af4e" target="_top" xlink:title=" ">
<polygon fill="white" stroke="black" points="706,-119.97 706,-138.97 842,-138.97 842,-119.97 706,-119.97"/>
<text text-anchor="middle" x="774" y="-126.97" font-family="Helvetica,sans-Serif" font-size="10.00">TMC2208Stepper::calcCRC</text>
</a>
</g>
</g>
<!-- Node4&#45;&gt;Node11 -->
<g id="edge11" class="edge"><title>Node4&#45;&gt;Node11</title>
<path fill="none" stroke="midnightblue" d="M635.431,-101.059C660.149,-106.163 690.739,-112.481 716.792,-117.861"/>
<polygon fill="midnightblue" stroke="midnightblue" points="716.402,-121.355 726.903,-119.95 717.817,-114.499 716.402,-121.355"/>
</g>
<!-- Node12 -->
<g id="node12" class="node"><title>Node12</title>
<g id="a_node12"><a xlink:href="../../d6/d7e/class_t_m_c2208_stepper.html#a673ade174158b47e3b345b1d7b3c473d" target="_top" xlink:title=" ">
<polygon fill="white" stroke="black" points="682,-81.9696 682,-100.97 866,-100.97 866,-81.9696 682,-81.9696"/>
<text text-anchor="middle" x="774" y="-88.9696" font-family="Helvetica,sans-Serif" font-size="10.00">TMC2208Stepper::postCommunication</text>
</a>
</g>
</g>
<!-- Node4&#45;&gt;Node12 -->
<g id="edge12" class="edge"><title>Node4&#45;&gt;Node12</title>
<path fill="none" stroke="midnightblue" d="M646.21,-91.4696C654.323,-91.4696 662.86,-91.4696 671.51,-91.4696"/>
<polygon fill="midnightblue" stroke="midnightblue" points="671.697,-94.9697 681.697,-91.4696 671.697,-87.9697 671.697,-94.9697"/>
</g>
<!-- Node13 -->
<g id="node13" class="node"><title>Node13</title>
<g id="a_node13"><a xlink:href="../../d6/d7e/class_t_m_c2208_stepper.html#a0ba01db6c4c01da7cb0ace8a524ab1da" target="_top" xlink:title=" ">
<polygon fill="white" stroke="black" points="684.5,-43.9696 684.5,-62.9696 863.5,-62.9696 863.5,-43.9696 684.5,-43.9696"/>
<text text-anchor="middle" x="774" y="-50.9696" font-family="Helvetica,sans-Serif" font-size="10.00">TMC2208Stepper::preCommunication</text>
</a>
</g>
</g>
<!-- Node4&#45;&gt;Node13 -->
<g id="edge13" class="edge"><title>Node4&#45;&gt;Node13</title>
<path fill="none" stroke="midnightblue" d="M635.431,-81.8806C660.149,-76.7758 690.739,-70.4583 716.792,-65.0778"/>
<polygon fill="midnightblue" stroke="midnightblue" points="717.817,-68.44 726.903,-62.9897 716.402,-61.5846 717.817,-68.44"/>
</g>
<!-- Node6 -->
<g id="node6" class="node"><title>Node6</title>
<g id="a_node6"><a xlink:href="../../d6/d7e/class_t_m_c2208_stepper.html#a7a670b15f45466f8d167a9b80fbf384f" target="_top" xlink:title=" ">
<polygon fill="white" stroke="black" points="907.5,-207.97 907.5,-226.97 1041.5,-226.97 1041.5,-207.97 907.5,-207.97"/>
<text text-anchor="middle" x="974.5" y="-214.97" font-family="Helvetica,sans-Serif" font-size="10.00">TMC2208Stepper::available</text>
</a>
</g>
</g>
<!-- Node5&#45;&gt;Node6 -->
<g id="edge5" class="edge"><title>Node5&#45;&gt;Node6</title>
<path fill="none" stroke="midnightblue" d="M812.804,-176.992C844.849,-185.064 890.983,-196.684 925.607,-205.406"/>
<polygon fill="midnightblue" stroke="midnightblue" points="924.948,-208.849 935.5,-207.898 926.657,-202.061 924.948,-208.849"/>
</g>
<!-- Node7 -->
<g id="node7" class="node"><title>Node7</title>
<g id="a_node7"><a xlink:href="../../d6/d7e/class_t_m_c2208_stepper.html#a4ec5d2b2f5a31259c7aba1f3208d63b8" target="_top" xlink:title=" ">
<polygon fill="white" stroke="black" points="916.5,-169.97 916.5,-188.97 1032.5,-188.97 1032.5,-169.97 916.5,-169.97"/>
<text text-anchor="middle" x="974.5" y="-176.97" font-family="Helvetica,sans-Serif" font-size="10.00">TMC2208Stepper::ms2</text>
</a>
</g>
</g>
<!-- Node5&#45;&gt;Node7 -->
<g id="edge6" class="edge"><title>Node5&#45;&gt;Node7</title>
<path fill="none" stroke="midnightblue" d="M857.17,-172.437C873.532,-173.426 890.531,-174.454 906.318,-175.408"/>
<polygon fill="midnightblue" stroke="midnightblue" points="906.305,-178.914 916.498,-176.024 906.727,-171.927 906.305,-178.914"/>
</g>
<!-- Node9 -->
<g id="node9" class="node"><title>Node9</title>
<g id="a_node9"><a xlink:href="../../d6/d7e/class_t_m_c2208_stepper.html#a129ceb04c3ea18e2c4ec1a59a51ece85" target="_top" xlink:title=" ">
<polygon fill="white" stroke="black" points="902,-131.97 902,-150.97 1047,-150.97 1047,-131.97 902,-131.97"/>
<text text-anchor="middle" x="974.5" y="-138.97" font-family="Helvetica,sans-Serif" font-size="10.00">TMC2208Stepper::serial_read</text>
</a>
</g>
</g>
<!-- Node5&#45;&gt;Node9 -->
<g id="edge9" class="edge"><title>Node5&#45;&gt;Node9</title>
<path fill="none" stroke="midnightblue" d="M847.787,-157.936C862.081,-156.064 877.166,-154.088 891.731,-152.18"/>
<polygon fill="midnightblue" stroke="midnightblue" points="892.256,-155.641 901.716,-150.872 891.346,-148.7 892.256,-155.641"/>
</g>
<!-- Node10 -->
<g id="node10" class="node"><title>Node10</title>
<g id="a_node10"><a xlink:href="../../d6/d7e/class_t_m_c2208_stepper.html#aa7f2c1a3a1cda9a328c186c6d7cbfe41" target="_top" xlink:title=" ">
<polygon fill="white" stroke="black" points="914,-82.4696 914,-112.47 1035,-112.47 1035,-82.4696 914,-82.4696"/>
<text text-anchor="start" x="922" y="-100.47" font-family="Helvetica,sans-Serif" font-size="10.00">TMC2208Stepper::serial</text>
<text text-anchor="middle" x="974.5" y="-89.4696" font-family="Helvetica,sans-Serif" font-size="10.00">_write</text>
</a>
</g>
</g>
<!-- Node5&#45;&gt;Node10 -->
<g id="edge10" class="edge"><title>Node5&#45;&gt;Node10</title>
<path fill="none" stroke="midnightblue" d="M838.251,-157.863C847.759,-155.397 857.289,-152.315 866,-148.47 884.056,-140.5 884.502,-131.6 902,-122.47 906.044,-120.36 910.305,-118.362 914.65,-116.486"/>
<polygon fill="midnightblue" stroke="midnightblue" points="916.304,-119.591 924.243,-112.575 913.662,-113.109 916.304,-119.591"/>
</g>
<!-- Node8 -->
<g id="node8" class="node"><title>Node8</title>
<g id="a_node8"><a xlink:href="../../d6/d7e/class_t_m_c2208_stepper.html#a5441dd87d0bcea4ffc309cb012166a57" target="_top" xlink:title=" ">
<polygon fill="white" stroke="black" points="1083,-87.9696 1083,-106.97 1199,-106.97 1199,-87.9696 1083,-87.9696"/>
<text text-anchor="middle" x="1141" y="-94.9696" font-family="Helvetica,sans-Serif" font-size="10.00">TMC2208Stepper::IOIN</text>
</a>
</g>
</g>
<!-- Node7&#45;&gt;Node8 -->
<g id="edge7" class="edge"><title>Node7&#45;&gt;Node8</title>
<path fill="none" stroke="midnightblue" d="M1020.55,-169.968C1029.51,-167.396 1038.7,-164.251 1047,-160.47 1074.45,-147.961 1102.68,-127.566 1120.73,-113.383"/>
<polygon fill="midnightblue" stroke="midnightblue" points="1123.11,-115.965 1128.72,-106.982 1118.73,-110.501 1123.11,-115.965"/>
</g>
<!-- Node8&#45;&gt;Node4 -->
<g id="edge8" class="edge"><title>Node8&#45;&gt;Node4</title>
<path fill="none" stroke="midnightblue" d="M1130.21,-87.8203C1114.34,-72.9361 1081.3,-44.9951 1047,-34.4696 891.914,13.1145 838.13,9.56986 682,-34.4696 653.807,-42.4221 625.729,-61.5756 607.921,-75.4902"/>
<polygon fill="midnightblue" stroke="midnightblue" points="605.643,-72.8308 600.049,-81.8281 610.033,-78.2834 605.643,-72.8308"/>
</g>
<!-- Node14 -->
<g id="node14" class="node"><title>Node14</title>
<g id="a_node14"><a xlink:href="../../d9/d98/class_s_switch.html#a6ff09d0850d551571dc333fb74ff8628" target="_top" xlink:title=" ">
<polygon fill="white" stroke="black" points="933,-43.9696 933,-62.9696 1016,-62.9696 1016,-43.9696 933,-43.9696"/>
<text text-anchor="middle" x="974.5" y="-50.9696" font-family="Helvetica,sans-Serif" font-size="10.00">SSwitch::active</text>
</a>
</g>
</g>
<!-- Node13&#45;&gt;Node14 -->
<g id="edge14" class="edge"><title>Node13&#45;&gt;Node14</title>
<path fill="none" stroke="midnightblue" d="M863.51,-53.4696C883.828,-53.4696 904.753,-53.4696 922.826,-53.4696"/>
<polygon fill="midnightblue" stroke="midnightblue" points="922.83,-56.9697 932.83,-53.4696 922.83,-49.9697 922.83,-56.9697"/>
</g>
</g>
</svg>
