<?xml version="1.0" encoding="UTF-8" standalone="no"?>
<!DOCTYPE svg PUBLIC "-//W3C//DTD SVG 1.1//EN"
 "http://www.w3.org/Graphics/SVG/1.1/DTD/svg11.dtd">
<!-- Generated by graphviz version 2.38.0 (20140413.2041)
 -->
<!-- Title: TMC2208Stepper::pwm_freq Pages: 1 -->
<svg width="1037pt" height="235pt"
 viewBox="0.00 0.00 1037.00 235.47" xmlns="http://www.w3.org/2000/svg" xmlns:xlink="http://www.w3.org/1999/xlink">
<g id="graph0" class="graph" transform="scale(1 1) rotate(0) translate(4 231.47)">
<title>TMC2208Stepper::pwm_freq</title>
<polygon fill="white" stroke="none" points="-4,4 -4,-231.47 1033,-231.47 1033,4 -4,4"/>
<!-- Node1 -->
<g id="node1" class="node"><title>Node1</title>
<g id="a_node1"><a xlink:title=" ">
<polygon fill="#bfbfbf" stroke="black" points="0,-81.9696 0,-100.97 139,-100.97 139,-81.9696 0,-81.9696"/>
<text text-anchor="middle" x="69.5" y="-88.9696" font-family="Helvetica,sans-Serif" font-size="10.00">TMC2208Stepper::pwm_freq</text>
</a>
</g>
</g>
<!-- Node2 -->
<g id="node2" class="node"><title>Node2</title>
<g id="a_node2"><a xlink:href="../../d6/d7e/class_t_m_c2208_stepper.html#a7c2e849de2f2933ba9bf8ede8dc53f53" target="_top" xlink:title=" ">
<polygon fill="white" stroke="black" points="175,-81.9696 175,-100.97 324,-100.97 324,-81.9696 175,-81.9696"/>
<text text-anchor="middle" x="249.5" y="-88.9696" font-family="Helvetica,sans-Serif" font-size="10.00">TMC2208Stepper::PWMCONF</text>
</a>
</g>
</g>
<!-- Node1&#45;&gt;Node2 -->
<g id="edge1" class="edge"><title>Node1&#45;&gt;Node2</title>
<path fill="none" stroke="midnightblue" d="M139.065,-91.4696C147.512,-91.4696 156.218,-91.4696 164.857,-91.4696"/>
<polygon fill="midnightblue" stroke="midnightblue" points="164.948,-94.9697 174.948,-91.4696 164.948,-87.9697 164.948,-94.9697"/>
</g>
<!-- Node3 -->
<g id="node3" class="node"><title>Node3</title>
<g id="a_node3"><a xlink:href="../../d6/d7e/class_t_m_c2208_stepper.html#a2fae2050849c3ab7968012def8ea1cc5" target="_top" xlink:title=" ">
<polygon fill="white" stroke="black" points="360,-81.9696 360,-100.97 476,-100.97 476,-81.9696 360,-81.9696"/>
<text text-anchor="middle" x="418" y="-88.9696" font-family="Helvetica,sans-Serif" font-size="10.00">TMC2208Stepper::read</text>
</a>
</g>
</g>
<!-- Node2&#45;&gt;Node3 -->
<g id="edge2" class="edge"><title>Node2&#45;&gt;Node3</title>
<path fill="none" stroke="midnightblue" d="M324.014,-91.4696C332.561,-91.4696 341.246,-91.4696 349.704,-91.4696"/>
<polygon fill="midnightblue" stroke="midnightblue" points="349.882,-94.9697 359.882,-91.4696 349.882,-87.9697 349.882,-94.9697"/>
</g>
<!-- Node4 -->
<g id="node4" class="node"><title>Node4</title>
<g id="a_node4"><a xlink:href="../../d6/d7e/class_t_m_c2208_stepper.html#a321ad81155b7a20c0858920d32d0b074" target="_top" xlink:title=" ">
<polygon fill="white" stroke="black" points="521,-157.97 521,-176.97 687,-176.97 687,-157.97 521,-157.97"/>
<text text-anchor="middle" x="604" y="-164.97" font-family="Helvetica,sans-Serif" font-size="10.00">TMC2208Stepper::_sendDatagram</text>
</a>
</g>
</g>
<!-- Node3&#45;&gt;Node4 -->
<g id="edge3" class="edge"><title>Node3&#45;&gt;Node4</title>
<path fill="none" stroke="midnightblue" d="M431.494,-101.088C448.681,-113.843 481.022,-136.174 512,-148.47 518.6,-151.089 525.62,-153.37 532.72,-155.35"/>
<polygon fill="midnightblue" stroke="midnightblue" points="531.861,-158.743 542.42,-157.869 533.62,-151.968 531.861,-158.743"/>
</g>
<!-- Node10 -->
<g id="node10" class="node"><title>Node10</title>
<g id="a_node10"><a xlink:href="../../d6/d7e/class_t_m_c2208_stepper.html#a409c19fa6b052a370a317d061bf9af4e" target="_top" xlink:title=" ">
<polygon fill="white" stroke="black" points="536,-119.97 536,-138.97 672,-138.97 672,-119.97 536,-119.97"/>
<text text-anchor="middle" x="604" y="-126.97" font-family="Helvetica,sans-Serif" font-size="10.00">TMC2208Stepper::calcCRC</text>
</a>
</g>
</g>
<!-- Node3&#45;&gt;Node10 -->
<g id="edge10" class="edge"><title>Node3&#45;&gt;Node10</title>
<path fill="none" stroke="midnightblue" d="M465.431,-101.059C490.149,-106.163 520.739,-112.481 546.792,-117.861"/>
<polygon fill="midnightblue" stroke="midnightblue" points="546.402,-121.355 556.903,-119.95 547.817,-114.499 546.402,-121.355"/>
</g>
<!-- Node11 -->
<g id="node11" class="node"><title>Node11</title>
<g id="a_node11"><a xlink:href="../../d6/d7e/class_t_m_c2208_stepper.html#a673ade174158b47e3b345b1d7b3c473d" target="_top" xlink:title=" ">
<polygon fill="white" stroke="black" points="512,-81.9696 512,-100.97 696,-100.97 696,-81.9696 512,-81.9696"/>
<text text-anchor="middle" x="604" y="-88.9696" font-family="Helvetica,sans-Serif" font-size="10.00">TMC2208Stepper::postCommunication</text>
</a>
</g>
</g>
<!-- Node3&#45;&gt;Node11 -->
<g id="edge11" class="edge"><title>Node3&#45;&gt;Node11</title>
<path fill="none" stroke="midnightblue" d="M476.21,-91.4696C484.323,-91.4696 492.86,-91.4696 501.51,-91.4696"/>
<polygon fill="midnightblue" stroke="midnightblue" points="501.697,-94.9697 511.697,-91.4696 501.697,-87.9697 501.697,-94.9697"/>
</g>
<!-- Node12 -->
<g id="node12" class="node"><title>Node12</title>
<g id="a_node12"><a xlink:href="../../d6/d7e/class_t_m_c2208_stepper.html#a0ba01db6c4c01da7cb0ace8a524ab1da" target="_top" xlink:title=" ">
<polygon fill="white" stroke="black" points="514.5,-43.9696 514.5,-62.9696 693.5,-62.9696 693.5,-43.9696 514.5,-43.9696"/>
<text text-anchor="middle" x="604" y="-50.9696" font-family="Helvetica,sans-Serif" font-size="10.00">TMC2208Stepper::preCommunication</text>
</a>
</g>
</g>
<!-- Node3&#45;&gt;Node12 -->
<g id="edge12" class="edge"><title>Node3&#45;&gt;Node12</title>
<path fill="none" stroke="midnightblue" d="M465.431,-81.8806C490.149,-76.7758 520.739,-70.4583 546.792,-65.0778"/>
<polygon fill="midnightblue" stroke="midnightblue" points="547.817,-68.44 556.903,-62.9897 546.402,-61.5846 547.817,-68.44"/>
</g>
<!-- Node5 -->
<g id="node5" class="node"><title>Node5</title>
<g id="a_node5"><a xlink:href="../../d6/d7e/class_t_m_c2208_stepper.html#a7a670b15f45466f8d167a9b80fbf384f" target="_top" xlink:title=" ">
<polygon fill="white" stroke="black" points="737.5,-207.97 737.5,-226.97 871.5,-226.97 871.5,-207.97 737.5,-207.97"/>
<text text-anchor="middle" x="804.5" y="-214.97" font-family="Helvetica,sans-Serif" font-size="10.00">TMC2208Stepper::available</text>
</a>
</g>
</g>
<!-- Node4&#45;&gt;Node5 -->
<g id="edge4" class="edge"><title>Node4&#45;&gt;Node5</title>
<path fill="none" stroke="midnightblue" d="M642.804,-176.992C674.849,-185.064 720.983,-196.684 755.607,-205.406"/>
<polygon fill="midnightblue" stroke="midnightblue" points="754.948,-208.849 765.5,-207.898 756.657,-202.061 754.948,-208.849"/>
</g>
<!-- Node6 -->
<g id="node6" class="node"><title>Node6</title>
<g id="a_node6"><a xlink:href="../../d6/d7e/class_t_m_c2208_stepper.html#a4ec5d2b2f5a31259c7aba1f3208d63b8" target="_top" xlink:title=" ">
<polygon fill="white" stroke="black" points="746.5,-169.97 746.5,-188.97 862.5,-188.97 862.5,-169.97 746.5,-169.97"/>
<text text-anchor="middle" x="804.5" y="-176.97" font-family="Helvetica,sans-Serif" font-size="10.00">TMC2208Stepper::ms2</text>
</a>
</g>
</g>
<!-- Node4&#45;&gt;Node6 -->
<g id="edge5" class="edge"><title>Node4&#45;&gt;Node6</title>
<path fill="none" stroke="midnightblue" d="M687.17,-172.437C703.532,-173.426 720.531,-174.454 736.318,-175.408"/>
<polygon fill="midnightblue" stroke="midnightblue" points="736.305,-178.914 746.498,-176.024 736.727,-171.927 736.305,-178.914"/>
</g>
<!-- Node8 -->
<g id="node8" class="node"><title>Node8</title>
<g id="a_node8"><a xlink:href="../../d6/d7e/class_t_m_c2208_stepper.html#a129ceb04c3ea18e2c4ec1a59a51ece85" target="_top" xlink:title=" ">
<polygon fill="white" stroke="black" points="732,-131.97 732,-150.97 877,-150.97 877,-131.97 732,-131.97"/>
<text text-anchor="middle" x="804.5" y="-138.97" font-family="Helvetica,sans-Serif" font-size="10.00">TMC2208Stepper::serial_read</text>
</a>
</g>
</g>
<!-- Node4&#45;&gt;Node8 -->
<g id="edge8" class="edge"><title>Node4&#45;&gt;Node8</title>
<path fill="none" stroke="midnightblue" d="M677.787,-157.936C692.081,-156.064 707.166,-154.088 721.731,-152.18"/>
<polygon fill="midnightblue" stroke="midnightblue" points="722.256,-155.641 731.716,-150.872 721.346,-148.7 722.256,-155.641"/>
</g>
<!-- Node9 -->
<g id="node9" class="node"><title>Node9</title>
<g id="a_node9"><a xlink:href="../../d6/d7e/class_t_m_c2208_stepper.html#aa7f2c1a3a1cda9a328c186c6d7cbfe41" target="_top" xlink:title=" ">
<polygon fill="white" stroke="black" points="744,-82.4696 744,-112.47 865,-112.47 865,-82.4696 744,-82.4696"/>
<text text-anchor="start" x="752" y="-100.47" font-family="Helvetica,sans-Serif" font-size="10.00">TMC2208Stepper::serial</text>
<text text-anchor="middle" x="804.5" y="-89.4696" font-family="Helvetica,sans-Serif" font-size="10.00">_write</text>
</a>
</g>
</g>
<!-- Node4&#45;&gt;Node9 -->
<g id="edge9" class="edge"><title>Node4&#45;&gt;Node9</title>
<path fill="none" stroke="midnightblue" d="M668.251,-157.863C677.759,-155.397 687.289,-152.315 696,-148.47 714.056,-140.5 714.502,-131.6 732,-122.47 736.044,-120.36 740.305,-118.362 744.65,-116.486"/>
<polygon fill="midnightblue" stroke="midnightblue" points="746.304,-119.591 754.243,-112.575 743.662,-113.109 746.304,-119.591"/>
</g>
<!-- Node7 -->
<g id="node7" class="node"><title>Node7</title>
<g id="a_node7"><a xlink:href="../../d6/d7e/class_t_m_c2208_stepper.html#a5441dd87d0bcea4ffc309cb012166a57" target="_top" xlink:title=" ">
<polygon fill="white" stroke="black" points="913,-87.9696 913,-106.97 1029,-106.97 1029,-87.9696 913,-87.9696"/>
<text text-anchor="middle" x="971" y="-94.9696" font-family="Helvetica,sans-Serif" font-size="10.00">TMC2208Stepper::IOIN</text>
</a>
</g>
</g>
<!-- Node6&#45;&gt;Node7 -->
<g id="edge6" class="edge"><title>Node6&#45;&gt;Node7</title>
<path fill="none" stroke="midnightblue" d="M850.551,-169.968C859.507,-167.396 868.702,-164.251 877,-160.47 904.451,-147.961 932.683,-127.566 950.73,-113.383"/>
<polygon fill="midnightblue" stroke="midnightblue" points="953.106,-115.965 958.723,-106.982 948.73,-110.501 953.106,-115.965"/>
</g>
<!-- Node7&#45;&gt;Node3 -->
<g id="edge7" class="edge"><title>Node7&#45;&gt;Node3</title>
<path fill="none" stroke="midnightblue" d="M960.209,-87.8203C944.34,-72.9361 911.305,-44.9951 877,-34.4696 721.914,13.1145 668.13,9.56986 512,-34.4696 483.807,-42.4221 455.729,-61.5756 437.921,-75.4902"/>
<polygon fill="midnightblue" stroke="midnightblue" points="435.643,-72.8308 430.049,-81.8281 440.033,-78.2834 435.643,-72.8308"/>
</g>
<!-- Node13 -->
<g id="node13" class="node"><title>Node13</title>
<g id="a_node13"><a xlink:href="../../d9/d98/class_s_switch.html#a6ff09d0850d551571dc333fb74ff8628" target="_top" xlink:title=" ">
<polygon fill="white" stroke="black" points="763,-43.9696 763,-62.9696 846,-62.9696 846,-43.9696 763,-43.9696"/>
<text text-anchor="middle" x="804.5" y="-50.9696" font-family="Helvetica,sans-Serif" font-size="10.00">SSwitch::active</text>
</a>
</g>
</g>
<!-- Node12&#45;&gt;Node13 -->
<g id="edge13" class="edge"><title>Node12&#45;&gt;Node13</title>
<path fill="none" stroke="midnightblue" d="M693.51,-53.4696C713.828,-53.4696 734.753,-53.4696 752.826,-53.4696"/>
<polygon fill="midnightblue" stroke="midnightblue" points="752.83,-56.9697 762.83,-53.4696 752.83,-49.9697 752.83,-56.9697"/>
</g>
</g>
</svg>
