<?xml version="1.0" encoding="UTF-8" standalone="no"?>
<!DOCTYPE svg PUBLIC "-//W3C//DTD SVG 1.1//EN"
 "http://www.w3.org/Graphics/SVG/1.1/DTD/svg11.dtd">
<!-- Generated by graphviz version 2.38.0 (20140413.2041)
 -->
<!-- Title: TMC2208Stepper::hend Pages: 1 -->
<svg width="1175pt" height="235pt"
 viewBox="0.00 0.00 1175.00 235.47" xmlns="http://www.w3.org/2000/svg" xmlns:xlink="http://www.w3.org/1999/xlink">
<g id="graph0" class="graph" transform="scale(1 1) rotate(0) translate(4 231.47)">
<title>TMC2208Stepper::hend</title>
<polygon fill="white" stroke="none" points="-4,4 -4,-231.47 1171,-231.47 1171,4 -4,4"/>
<!-- Node1 -->
<g id="node1" class="node"><title>Node1</title>
<g id="a_node1"><a xlink:title=" ">
<polygon fill="#bfbfbf" stroke="black" points="0,-81.9696 0,-100.97 119,-100.97 119,-81.9696 0,-81.9696"/>
<text text-anchor="middle" x="59.5" y="-88.9696" font-family="Helvetica,sans-Serif" font-size="10.00">TMC2208Stepper::hend</text>
</a>
</g>
</g>
<!-- Node2 -->
<g id="node2" class="node"><title>Node2</title>
<g id="a_node2"><a xlink:href="../../d6/d7e/class_t_m_c2208_stepper.html#a2f36996a01d99a96f40d179931eb606a" target="_top" xlink:title=" ">
<polygon fill="white" stroke="black" points="155,-81.9696 155,-100.97 274,-100.97 274,-81.9696 155,-81.9696"/>
<text text-anchor="middle" x="214.5" y="-88.9696" font-family="Helvetica,sans-Serif" font-size="10.00">TMC2208Stepper::hend</text>
</a>
</g>
</g>
<!-- Node1&#45;&gt;Node2 -->
<g id="edge1" class="edge"><title>Node1&#45;&gt;Node2</title>
<path fill="none" stroke="midnightblue" d="M119.216,-91.4696C127.544,-91.4696 136.169,-91.4696 144.667,-91.4696"/>
<polygon fill="midnightblue" stroke="midnightblue" points="144.941,-94.9697 154.941,-91.4696 144.941,-87.9697 144.941,-94.9697"/>
</g>
<!-- Node3 -->
<g id="node3" class="node"><title>Node3</title>
<g id="a_node3"><a xlink:href="../../d6/d7e/class_t_m_c2208_stepper.html#aa11281f54c293f3ff2539b1a583682a9" target="_top" xlink:title=" ">
<polygon fill="white" stroke="black" points="310,-81.9696 310,-100.97 462,-100.97 462,-81.9696 310,-81.9696"/>
<text text-anchor="middle" x="386" y="-88.9696" font-family="Helvetica,sans-Serif" font-size="10.00">TMC2208Stepper::CHOPCONF</text>
</a>
</g>
</g>
<!-- Node2&#45;&gt;Node3 -->
<g id="edge2" class="edge"><title>Node2&#45;&gt;Node3</title>
<path fill="none" stroke="midnightblue" d="M274.307,-91.4696C282.554,-91.4696 291.164,-91.4696 299.78,-91.4696"/>
<polygon fill="midnightblue" stroke="midnightblue" points="299.876,-94.9697 309.876,-91.4696 299.876,-87.9697 299.876,-94.9697"/>
</g>
<!-- Node4 -->
<g id="node4" class="node"><title>Node4</title>
<g id="a_node4"><a xlink:href="../../d6/d7e/class_t_m_c2208_stepper.html#a2fae2050849c3ab7968012def8ea1cc5" target="_top" xlink:title=" ">
<polygon fill="white" stroke="black" points="498,-81.9696 498,-100.97 614,-100.97 614,-81.9696 498,-81.9696"/>
<text text-anchor="middle" x="556" y="-88.9696" font-family="Helvetica,sans-Serif" font-size="10.00">TMC2208Stepper::read</text>
</a>
</g>
</g>
<!-- Node3&#45;&gt;Node4 -->
<g id="edge3" class="edge"><title>Node3&#45;&gt;Node4</title>
<path fill="none" stroke="midnightblue" d="M462.155,-91.4696C470.664,-91.4696 479.296,-91.4696 487.696,-91.4696"/>
<polygon fill="midnightblue" stroke="midnightblue" points="487.802,-94.9697 497.802,-91.4696 487.802,-87.9697 487.802,-94.9697"/>
</g>
<!-- Node5 -->
<g id="node5" class="node"><title>Node5</title>
<g id="a_node5"><a xlink:href="../../d6/d7e/class_t_m_c2208_stepper.html#a321ad81155b7a20c0858920d32d0b074" target="_top" xlink:title=" ">
<polygon fill="white" stroke="black" points="659,-157.97 659,-176.97 825,-176.97 825,-157.97 659,-157.97"/>
<text text-anchor="middle" x="742" y="-164.97" font-family="Helvetica,sans-Serif" font-size="10.00">TMC2208Stepper::_sendDatagram</text>
</a>
</g>
</g>
<!-- Node4&#45;&gt;Node5 -->
<g id="edge4" class="edge"><title>Node4&#45;&gt;Node5</title>
<path fill="none" stroke="midnightblue" d="M569.494,-101.088C586.681,-113.843 619.022,-136.174 650,-148.47 656.6,-151.089 663.62,-153.37 670.72,-155.35"/>
<polygon fill="midnightblue" stroke="midnightblue" points="669.861,-158.743 680.42,-157.869 671.62,-151.968 669.861,-158.743"/>
</g>
<!-- Node11 -->
<g id="node11" class="node"><title>Node11</title>
<g id="a_node11"><a xlink:href="../../d6/d7e/class_t_m_c2208_stepper.html#a409c19fa6b052a370a317d061bf9af4e" target="_top" xlink:title=" ">
<polygon fill="white" stroke="black" points="674,-119.97 674,-138.97 810,-138.97 810,-119.97 674,-119.97"/>
<text text-anchor="middle" x="742" y="-126.97" font-family="Helvetica,sans-Serif" font-size="10.00">TMC2208Stepper::calcCRC</text>
</a>
</g>
</g>
<!-- Node4&#45;&gt;Node11 -->
<g id="edge11" class="edge"><title>Node4&#45;&gt;Node11</title>
<path fill="none" stroke="midnightblue" d="M603.431,-101.059C628.149,-106.163 658.739,-112.481 684.792,-117.861"/>
<polygon fill="midnightblue" stroke="midnightblue" points="684.402,-121.355 694.903,-119.95 685.817,-114.499 684.402,-121.355"/>
</g>
<!-- Node12 -->
<g id="node12" class="node"><title>Node12</title>
<g id="a_node12"><a xlink:href="../../d6/d7e/class_t_m_c2208_stepper.html#a673ade174158b47e3b345b1d7b3c473d" target="_top" xlink:title=" ">
<polygon fill="white" stroke="black" points="650,-81.9696 650,-100.97 834,-100.97 834,-81.9696 650,-81.9696"/>
<text text-anchor="middle" x="742" y="-88.9696" font-family="Helvetica,sans-Serif" font-size="10.00">TMC2208Stepper::postCommunication</text>
</a>
</g>
</g>
<!-- Node4&#45;&gt;Node12 -->
<g id="edge12" class="edge"><title>Node4&#45;&gt;Node12</title>
<path fill="none" stroke="midnightblue" d="M614.21,-91.4696C622.323,-91.4696 630.86,-91.4696 639.51,-91.4696"/>
<polygon fill="midnightblue" stroke="midnightblue" points="639.697,-94.9697 649.697,-91.4696 639.697,-87.9697 639.697,-94.9697"/>
</g>
<!-- Node13 -->
<g id="node13" class="node"><title>Node13</title>
<g id="a_node13"><a xlink:href="../../d6/d7e/class_t_m_c2208_stepper.html#a0ba01db6c4c01da7cb0ace8a524ab1da" target="_top" xlink:title=" ">
<polygon fill="white" stroke="black" points="652.5,-43.9696 652.5,-62.9696 831.5,-62.9696 831.5,-43.9696 652.5,-43.9696"/>
<text text-anchor="middle" x="742" y="-50.9696" font-family="Helvetica,sans-Serif" font-size="10.00">TMC2208Stepper::preCommunication</text>
</a>
</g>
</g>
<!-- Node4&#45;&gt;Node13 -->
<g id="edge13" class="edge"><title>Node4&#45;&gt;Node13</title>
<path fill="none" stroke="midnightblue" d="M603.431,-81.8806C628.149,-76.7758 658.739,-70.4583 684.792,-65.0778"/>
<polygon fill="midnightblue" stroke="midnightblue" points="685.817,-68.44 694.903,-62.9897 684.402,-61.5846 685.817,-68.44"/>
</g>
<!-- Node6 -->
<g id="node6" class="node"><title>Node6</title>
<g id="a_node6"><a xlink:href="../../d6/d7e/class_t_m_c2208_stepper.html#a7a670b15f45466f8d167a9b80fbf384f" target="_top" xlink:title=" ">
<polygon fill="white" stroke="black" points="875.5,-207.97 875.5,-226.97 1009.5,-226.97 1009.5,-207.97 875.5,-207.97"/>
<text text-anchor="middle" x="942.5" y="-214.97" font-family="Helvetica,sans-Serif" font-size="10.00">TMC2208Stepper::available</text>
</a>
</g>
</g>
<!-- Node5&#45;&gt;Node6 -->
<g id="edge5" class="edge"><title>Node5&#45;&gt;Node6</title>
<path fill="none" stroke="midnightblue" d="M780.804,-176.992C812.849,-185.064 858.983,-196.684 893.607,-205.406"/>
<polygon fill="midnightblue" stroke="midnightblue" points="892.948,-208.849 903.5,-207.898 894.657,-202.061 892.948,-208.849"/>
</g>
<!-- Node7 -->
<g id="node7" class="node"><title>Node7</title>
<g id="a_node7"><a xlink:href="../../d6/d7e/class_t_m_c2208_stepper.html#a4ec5d2b2f5a31259c7aba1f3208d63b8" target="_top" xlink:title=" ">
<polygon fill="white" stroke="black" points="884.5,-169.97 884.5,-188.97 1000.5,-188.97 1000.5,-169.97 884.5,-169.97"/>
<text text-anchor="middle" x="942.5" y="-176.97" font-family="Helvetica,sans-Serif" font-size="10.00">TMC2208Stepper::ms2</text>
</a>
</g>
</g>
<!-- Node5&#45;&gt;Node7 -->
<g id="edge6" class="edge"><title>Node5&#45;&gt;Node7</title>
<path fill="none" stroke="midnightblue" d="M825.17,-172.437C841.532,-173.426 858.531,-174.454 874.318,-175.408"/>
<polygon fill="midnightblue" stroke="midnightblue" points="874.305,-178.914 884.498,-176.024 874.727,-171.927 874.305,-178.914"/>
</g>
<!-- Node9 -->
<g id="node9" class="node"><title>Node9</title>
<g id="a_node9"><a xlink:href="../../d6/d7e/class_t_m_c2208_stepper.html#a129ceb04c3ea18e2c4ec1a59a51ece85" target="_top" xlink:title=" ">
<polygon fill="white" stroke="black" points="870,-131.97 870,-150.97 1015,-150.97 1015,-131.97 870,-131.97"/>
<text text-anchor="middle" x="942.5" y="-138.97" font-family="Helvetica,sans-Serif" font-size="10.00">TMC2208Stepper::serial_read</text>
</a>
</g>
</g>
<!-- Node5&#45;&gt;Node9 -->
<g id="edge9" class="edge"><title>Node5&#45;&gt;Node9</title>
<path fill="none" stroke="midnightblue" d="M815.787,-157.936C830.081,-156.064 845.166,-154.088 859.731,-152.18"/>
<polygon fill="midnightblue" stroke="midnightblue" points="860.256,-155.641 869.716,-150.872 859.346,-148.7 860.256,-155.641"/>
</g>
<!-- Node10 -->
<g id="node10" class="node"><title>Node10</title>
<g id="a_node10"><a xlink:href="../../d6/d7e/class_t_m_c2208_stepper.html#aa7f2c1a3a1cda9a328c186c6d7cbfe41" target="_top" xlink:title=" ">
<polygon fill="white" stroke="black" points="882,-82.4696 882,-112.47 1003,-112.47 1003,-82.4696 882,-82.4696"/>
<text text-anchor="start" x="890" y="-100.47" font-family="Helvetica,sans-Serif" font-size="10.00">TMC2208Stepper::serial</text>
<text text-anchor="middle" x="942.5" y="-89.4696" font-family="Helvetica,sans-Serif" font-size="10.00">_write</text>
</a>
</g>
</g>
<!-- Node5&#45;&gt;Node10 -->
<g id="edge10" class="edge"><title>Node5&#45;&gt;Node10</title>
<path fill="none" stroke="midnightblue" d="M806.251,-157.863C815.759,-155.397 825.289,-152.315 834,-148.47 852.056,-140.5 852.502,-131.6 870,-122.47 874.044,-120.36 878.305,-118.362 882.65,-116.486"/>
<polygon fill="midnightblue" stroke="midnightblue" points="884.304,-119.591 892.243,-112.575 881.662,-113.109 884.304,-119.591"/>
</g>
<!-- Node8 -->
<g id="node8" class="node"><title>Node8</title>
<g id="a_node8"><a xlink:href="../../d6/d7e/class_t_m_c2208_stepper.html#a5441dd87d0bcea4ffc309cb012166a57" target="_top" xlink:title=" ">
<polygon fill="white" stroke="black" points="1051,-87.9696 1051,-106.97 1167,-106.97 1167,-87.9696 1051,-87.9696"/>
<text text-anchor="middle" x="1109" y="-94.9696" font-family="Helvetica,sans-Serif" font-size="10.00">TMC2208Stepper::IOIN</text>
</a>
</g>
</g>
<!-- Node7&#45;&gt;Node8 -->
<g id="edge7" class="edge"><title>Node7&#45;&gt;Node8</title>
<path fill="none" stroke="midnightblue" d="M988.551,-169.968C997.507,-167.396 1006.7,-164.251 1015,-160.47 1042.45,-147.961 1070.68,-127.566 1088.73,-113.383"/>
<polygon fill="midnightblue" stroke="midnightblue" points="1091.11,-115.965 1096.72,-106.982 1086.73,-110.501 1091.11,-115.965"/>
</g>
<!-- Node8&#45;&gt;Node4 -->
<g id="edge8" class="edge"><title>Node8&#45;&gt;Node4</title>
<path fill="none" stroke="midnightblue" d="M1098.21,-87.8203C1082.34,-72.9361 1049.3,-44.9951 1015,-34.4696 859.914,13.1145 806.13,9.56986 650,-34.4696 621.807,-42.4221 593.729,-61.5756 575.921,-75.4902"/>
<polygon fill="midnightblue" stroke="midnightblue" points="573.643,-72.8308 568.049,-81.8281 578.033,-78.2834 573.643,-72.8308"/>
</g>
<!-- Node14 -->
<g id="node14" class="node"><title>Node14</title>
<g id="a_node14"><a xlink:href="../../d9/d98/class_s_switch.html#a6ff09d0850d551571dc333fb74ff8628" target="_top" xlink:title=" ">
<polygon fill="white" stroke="black" points="901,-43.9696 901,-62.9696 984,-62.9696 984,-43.9696 901,-43.9696"/>
<text text-anchor="middle" x="942.5" y="-50.9696" font-family="Helvetica,sans-Serif" font-size="10.00">SSwitch::active</text>
</a>
</g>
</g>
<!-- Node13&#45;&gt;Node14 -->
<g id="edge14" class="edge"><title>Node13&#45;&gt;Node14</title>
<path fill="none" stroke="midnightblue" d="M831.51,-53.4696C851.828,-53.4696 872.753,-53.4696 890.826,-53.4696"/>
<polygon fill="midnightblue" stroke="midnightblue" points="890.83,-56.9697 900.83,-53.4696 890.83,-49.9697 890.83,-56.9697"/>
</g>
</g>
</svg>
