<?xml version="1.0" encoding="UTF-8" standalone="no"?>
<!DOCTYPE svg PUBLIC "-//W3C//DTD SVG 1.1//EN"
 "http://www.w3.org/Graphics/SVG/1.1/DTD/svg11.dtd">
<!-- Generated by graphviz version 2.38.0 (20140413.2041)
 -->
<!-- Title: TMC2208Stepper::pwm_scale_sum Pages: 1 -->
<svg width="989pt" height="235pt"
 viewBox="0.00 0.00 989.00 235.47" xmlns="http://www.w3.org/2000/svg" xmlns:xlink="http://www.w3.org/1999/xlink">
<g id="graph0" class="graph" transform="scale(1 1) rotate(0) translate(4 231.47)">
<title>TMC2208Stepper::pwm_scale_sum</title>
<polygon fill="white" stroke="none" points="-4,4 -4,-231.47 985,-231.47 985,4 -4,4"/>
<!-- Node1 -->
<g id="node1" class="node"><title>Node1</title>
<g id="a_node1"><a xlink:title=" ">
<polygon fill="#bfbfbf" stroke="black" points="0,-76.4696 0,-106.47 118,-106.47 118,-76.4696 0,-76.4696"/>
<text text-anchor="start" x="8" y="-94.4696" font-family="Helvetica,sans-Serif" font-size="10.00">TMC2208Stepper::pwm</text>
<text text-anchor="middle" x="59" y="-83.4696" font-family="Helvetica,sans-Serif" font-size="10.00">_scale_sum</text>
</a>
</g>
</g>
<!-- Node2 -->
<g id="node2" class="node"><title>Node2</title>
<g id="a_node2"><a xlink:href="../../d6/d7e/class_t_m_c2208_stepper.html#adc81db53cf0291216352b13e5425e67b" target="_top" xlink:title=" ">
<polygon fill="white" stroke="black" points="154,-76.4696 154,-106.47 276,-106.47 276,-76.4696 154,-76.4696"/>
<text text-anchor="start" x="162" y="-94.4696" font-family="Helvetica,sans-Serif" font-size="10.00">TMC2208Stepper::PWM</text>
<text text-anchor="middle" x="215" y="-83.4696" font-family="Helvetica,sans-Serif" font-size="10.00">_SCALE</text>
</a>
</g>
</g>
<!-- Node1&#45;&gt;Node2 -->
<g id="edge1" class="edge"><title>Node1&#45;&gt;Node2</title>
<path fill="none" stroke="midnightblue" d="M118.221,-91.4696C126.608,-91.4696 135.312,-91.4696 143.9,-91.4696"/>
<polygon fill="midnightblue" stroke="midnightblue" points="143.903,-94.9697 153.903,-91.4696 143.903,-87.9697 143.903,-94.9697"/>
</g>
<!-- Node3 -->
<g id="node3" class="node"><title>Node3</title>
<g id="a_node3"><a xlink:href="../../d6/d7e/class_t_m_c2208_stepper.html#a2fae2050849c3ab7968012def8ea1cc5" target="_top" xlink:title=" ">
<polygon fill="white" stroke="black" points="312,-81.9696 312,-100.97 428,-100.97 428,-81.9696 312,-81.9696"/>
<text text-anchor="middle" x="370" y="-88.9696" font-family="Helvetica,sans-Serif" font-size="10.00">TMC2208Stepper::read</text>
</a>
</g>
</g>
<!-- Node2&#45;&gt;Node3 -->
<g id="edge2" class="edge"><title>Node2&#45;&gt;Node3</title>
<path fill="none" stroke="midnightblue" d="M276.031,-91.4696C284.363,-91.4696 292.969,-91.4696 301.428,-91.4696"/>
<polygon fill="midnightblue" stroke="midnightblue" points="301.644,-94.9697 311.644,-91.4696 301.644,-87.9697 301.644,-94.9697"/>
</g>
<!-- Node4 -->
<g id="node4" class="node"><title>Node4</title>
<g id="a_node4"><a xlink:href="../../d6/d7e/class_t_m_c2208_stepper.html#a321ad81155b7a20c0858920d32d0b074" target="_top" xlink:title=" ">
<polygon fill="white" stroke="black" points="473,-157.97 473,-176.97 639,-176.97 639,-157.97 473,-157.97"/>
<text text-anchor="middle" x="556" y="-164.97" font-family="Helvetica,sans-Serif" font-size="10.00">TMC2208Stepper::_sendDatagram</text>
</a>
</g>
</g>
<!-- Node3&#45;&gt;Node4 -->
<g id="edge3" class="edge"><title>Node3&#45;&gt;Node4</title>
<path fill="none" stroke="midnightblue" d="M383.494,-101.088C400.681,-113.843 433.022,-136.174 464,-148.47 470.6,-151.089 477.62,-153.37 484.72,-155.35"/>
<polygon fill="midnightblue" stroke="midnightblue" points="483.861,-158.743 494.42,-157.869 485.62,-151.968 483.861,-158.743"/>
</g>
<!-- Node10 -->
<g id="node10" class="node"><title>Node10</title>
<g id="a_node10"><a xlink:href="../../d6/d7e/class_t_m_c2208_stepper.html#a409c19fa6b052a370a317d061bf9af4e" target="_top" xlink:title=" ">
<polygon fill="white" stroke="black" points="488,-119.97 488,-138.97 624,-138.97 624,-119.97 488,-119.97"/>
<text text-anchor="middle" x="556" y="-126.97" font-family="Helvetica,sans-Serif" font-size="10.00">TMC2208Stepper::calcCRC</text>
</a>
</g>
</g>
<!-- Node3&#45;&gt;Node10 -->
<g id="edge10" class="edge"><title>Node3&#45;&gt;Node10</title>
<path fill="none" stroke="midnightblue" d="M417.431,-101.059C442.149,-106.163 472.739,-112.481 498.792,-117.861"/>
<polygon fill="midnightblue" stroke="midnightblue" points="498.402,-121.355 508.903,-119.95 499.817,-114.499 498.402,-121.355"/>
</g>
<!-- Node11 -->
<g id="node11" class="node"><title>Node11</title>
<g id="a_node11"><a xlink:href="../../d6/d7e/class_t_m_c2208_stepper.html#a673ade174158b47e3b345b1d7b3c473d" target="_top" xlink:title=" ">
<polygon fill="white" stroke="black" points="464,-81.9696 464,-100.97 648,-100.97 648,-81.9696 464,-81.9696"/>
<text text-anchor="middle" x="556" y="-88.9696" font-family="Helvetica,sans-Serif" font-size="10.00">TMC2208Stepper::postCommunication</text>
</a>
</g>
</g>
<!-- Node3&#45;&gt;Node11 -->
<g id="edge11" class="edge"><title>Node3&#45;&gt;Node11</title>
<path fill="none" stroke="midnightblue" d="M428.21,-91.4696C436.323,-91.4696 444.86,-91.4696 453.51,-91.4696"/>
<polygon fill="midnightblue" stroke="midnightblue" points="453.697,-94.9697 463.697,-91.4696 453.697,-87.9697 453.697,-94.9697"/>
</g>
<!-- Node12 -->
<g id="node12" class="node"><title>Node12</title>
<g id="a_node12"><a xlink:href="../../d6/d7e/class_t_m_c2208_stepper.html#a0ba01db6c4c01da7cb0ace8a524ab1da" target="_top" xlink:title=" ">
<polygon fill="white" stroke="black" points="466.5,-43.9696 466.5,-62.9696 645.5,-62.9696 645.5,-43.9696 466.5,-43.9696"/>
<text text-anchor="middle" x="556" y="-50.9696" font-family="Helvetica,sans-Serif" font-size="10.00">TMC2208Stepper::preCommunication</text>
</a>
</g>
</g>
<!-- Node3&#45;&gt;Node12 -->
<g id="edge12" class="edge"><title>Node3&#45;&gt;Node12</title>
<path fill="none" stroke="midnightblue" d="M417.431,-81.8806C442.149,-76.7758 472.739,-70.4583 498.792,-65.0778"/>
<polygon fill="midnightblue" stroke="midnightblue" points="499.817,-68.44 508.903,-62.9897 498.402,-61.5846 499.817,-68.44"/>
</g>
<!-- Node5 -->
<g id="node5" class="node"><title>Node5</title>
<g id="a_node5"><a xlink:href="../../d6/d7e/class_t_m_c2208_stepper.html#a7a670b15f45466f8d167a9b80fbf384f" target="_top" xlink:title=" ">
<polygon fill="white" stroke="black" points="689.5,-207.97 689.5,-226.97 823.5,-226.97 823.5,-207.97 689.5,-207.97"/>
<text text-anchor="middle" x="756.5" y="-214.97" font-family="Helvetica,sans-Serif" font-size="10.00">TMC2208Stepper::available</text>
</a>
</g>
</g>
<!-- Node4&#45;&gt;Node5 -->
<g id="edge4" class="edge"><title>Node4&#45;&gt;Node5</title>
<path fill="none" stroke="midnightblue" d="M594.804,-176.992C626.849,-185.064 672.983,-196.684 707.607,-205.406"/>
<polygon fill="midnightblue" stroke="midnightblue" points="706.948,-208.849 717.5,-207.898 708.657,-202.061 706.948,-208.849"/>
</g>
<!-- Node6 -->
<g id="node6" class="node"><title>Node6</title>
<g id="a_node6"><a xlink:href="../../d6/d7e/class_t_m_c2208_stepper.html#a4ec5d2b2f5a31259c7aba1f3208d63b8" target="_top" xlink:title=" ">
<polygon fill="white" stroke="black" points="698.5,-169.97 698.5,-188.97 814.5,-188.97 814.5,-169.97 698.5,-169.97"/>
<text text-anchor="middle" x="756.5" y="-176.97" font-family="Helvetica,sans-Serif" font-size="10.00">TMC2208Stepper::ms2</text>
</a>
</g>
</g>
<!-- Node4&#45;&gt;Node6 -->
<g id="edge5" class="edge"><title>Node4&#45;&gt;Node6</title>
<path fill="none" stroke="midnightblue" d="M639.17,-172.437C655.532,-173.426 672.531,-174.454 688.318,-175.408"/>
<polygon fill="midnightblue" stroke="midnightblue" points="688.305,-178.914 698.498,-176.024 688.727,-171.927 688.305,-178.914"/>
</g>
<!-- Node8 -->
<g id="node8" class="node"><title>Node8</title>
<g id="a_node8"><a xlink:href="../../d6/d7e/class_t_m_c2208_stepper.html#a129ceb04c3ea18e2c4ec1a59a51ece85" target="_top" xlink:title=" ">
<polygon fill="white" stroke="black" points="684,-131.97 684,-150.97 829,-150.97 829,-131.97 684,-131.97"/>
<text text-anchor="middle" x="756.5" y="-138.97" font-family="Helvetica,sans-Serif" font-size="10.00">TMC2208Stepper::serial_read</text>
</a>
</g>
</g>
<!-- Node4&#45;&gt;Node8 -->
<g id="edge8" class="edge"><title>Node4&#45;&gt;Node8</title>
<path fill="none" stroke="midnightblue" d="M629.787,-157.936C644.081,-156.064 659.166,-154.088 673.731,-152.18"/>
<polygon fill="midnightblue" stroke="midnightblue" points="674.256,-155.641 683.716,-150.872 673.346,-148.7 674.256,-155.641"/>
</g>
<!-- Node9 -->
<g id="node9" class="node"><title>Node9</title>
<g id="a_node9"><a xlink:href="../../d6/d7e/class_t_m_c2208_stepper.html#aa7f2c1a3a1cda9a328c186c6d7cbfe41" target="_top" xlink:title=" ">
<polygon fill="white" stroke="black" points="696,-82.4696 696,-112.47 817,-112.47 817,-82.4696 696,-82.4696"/>
<text text-anchor="start" x="704" y="-100.47" font-family="Helvetica,sans-Serif" font-size="10.00">TMC2208Stepper::serial</text>
<text text-anchor="middle" x="756.5" y="-89.4696" font-family="Helvetica,sans-Serif" font-size="10.00">_write</text>
</a>
</g>
</g>
<!-- Node4&#45;&gt;Node9 -->
<g id="edge9" class="edge"><title>Node4&#45;&gt;Node9</title>
<path fill="none" stroke="midnightblue" d="M620.251,-157.863C629.759,-155.397 639.289,-152.315 648,-148.47 666.056,-140.5 666.502,-131.6 684,-122.47 688.044,-120.36 692.305,-118.362 696.65,-116.486"/>
<polygon fill="midnightblue" stroke="midnightblue" points="698.304,-119.591 706.243,-112.575 695.662,-113.109 698.304,-119.591"/>
</g>
<!-- Node7 -->
<g id="node7" class="node"><title>Node7</title>
<g id="a_node7"><a xlink:href="../../d6/d7e/class_t_m_c2208_stepper.html#a5441dd87d0bcea4ffc309cb012166a57" target="_top" xlink:title=" ">
<polygon fill="white" stroke="black" points="865,-87.9696 865,-106.97 981,-106.97 981,-87.9696 865,-87.9696"/>
<text text-anchor="middle" x="923" y="-94.9696" font-family="Helvetica,sans-Serif" font-size="10.00">TMC2208Stepper::IOIN</text>
</a>
</g>
</g>
<!-- Node6&#45;&gt;Node7 -->
<g id="edge6" class="edge"><title>Node6&#45;&gt;Node7</title>
<path fill="none" stroke="midnightblue" d="M802.551,-169.968C811.507,-167.396 820.702,-164.251 829,-160.47 856.451,-147.961 884.683,-127.566 902.73,-113.383"/>
<polygon fill="midnightblue" stroke="midnightblue" points="905.106,-115.965 910.723,-106.982 900.73,-110.501 905.106,-115.965"/>
</g>
<!-- Node7&#45;&gt;Node3 -->
<g id="edge7" class="edge"><title>Node7&#45;&gt;Node3</title>
<path fill="none" stroke="midnightblue" d="M912.209,-87.8203C896.34,-72.9361 863.305,-44.9951 829,-34.4696 673.914,13.1145 620.13,9.56986 464,-34.4696 435.807,-42.4221 407.729,-61.5756 389.921,-75.4902"/>
<polygon fill="midnightblue" stroke="midnightblue" points="387.643,-72.8308 382.049,-81.8281 392.033,-78.2834 387.643,-72.8308"/>
</g>
<!-- Node13 -->
<g id="node13" class="node"><title>Node13</title>
<g id="a_node13"><a xlink:href="../../d9/d98/class_s_switch.html#a6ff09d0850d551571dc333fb74ff8628" target="_top" xlink:title=" ">
<polygon fill="white" stroke="black" points="715,-43.9696 715,-62.9696 798,-62.9696 798,-43.9696 715,-43.9696"/>
<text text-anchor="middle" x="756.5" y="-50.9696" font-family="Helvetica,sans-Serif" font-size="10.00">SSwitch::active</text>
</a>
</g>
</g>
<!-- Node12&#45;&gt;Node13 -->
<g id="edge13" class="edge"><title>Node12&#45;&gt;Node13</title>
<path fill="none" stroke="midnightblue" d="M645.51,-53.4696C665.828,-53.4696 686.753,-53.4696 704.826,-53.4696"/>
<polygon fill="midnightblue" stroke="midnightblue" points="704.83,-56.9697 714.83,-53.4696 704.83,-49.9697 704.83,-56.9697"/>
</g>
</g>
</svg>
