<?xml version="1.0" encoding="UTF-8" standalone="no"?>
<!DOCTYPE svg PUBLIC "-//W3C//DTD SVG 1.1//EN"
 "http://www.w3.org/Graphics/SVG/1.1/DTD/svg11.dtd">
<!-- Generated by graphviz version 2.38.0 (20140413.2041)
 -->
<!-- Title: TMC2208Stepper::multistep_filt Pages: 1 -->
<!--zoomable 235 -->
<svg id="main" version="1.1" xmlns="http://www.w3.org/2000/svg" xmlns:xlink="http://www.w3.org/1999/xlink" xml:space="preserve" onload="init(evt)">
<style type="text/css"><![CDATA[
.edge:hover path { stroke: red; }
.edge:hover polygon { stroke: red; fill: red; }
]]></style>
<script type="text/javascript"><![CDATA[
var edges = document.getElementsByTagName('g');
if (edges && edges.length) {
  for (var i=0;i<edges.length;i++) {
    if (edges[i].id.substr(0,4)=='edge') {
      edges[i].setAttribute('class','edge');
    }
  }
}
]]></script>
        <defs>
                <circle id="rim" cx="0" cy="0" r="7"/>
                <circle id="rim2" cx="0" cy="0" r="3.5"/>
                <g id="zoomPlus">
                        <use xlink:href="#rim" fill="#404040">
                                <set attributeName="fill" to="#808080" begin="zoomplus.mouseover" end="zoomplus.mouseout"/>
                        </use>
                        <path d="M-4,0h8M0,-4v8" fill="none" stroke="white" stroke-width="1.5" pointer-events="none"/>
                </g>
                <g id="zoomMin">
                        <use xlink:href="#rim" fill="#404040">
                                <set attributeName="fill" to="#808080" begin="zoomminus.mouseover" end="zoomminus.mouseout"/>
                        </use>
                        <path d="M-4,0h8" fill="none" stroke="white" stroke-width="1.5" pointer-events="none"/>
                </g>
                <g id="dirArrow">
                        <path fill="none" stroke="white" stroke-width="1.5" d="M0,-3.0v7 M-2.5,-0.5L0,-3.0L2.5,-0.5"/>
                </g>
               <g id="resetDef">
                       <use xlink:href="#rim2" fill="#404040">
                               <set attributeName="fill" to="#808080" begin="reset.mouseover" end="reset.mouseout"/>
                       </use>
               </g>
        </defs>

<script type="text/javascript">
var viewWidth = 1221;
var viewHeight = 235;
var sectionId = 'dynsection-70';
</script>
<script xlink:href="../../svgpan.js"/>
<svg id="graph" class="graph">
<g id="viewport">
<title>TMC2208Stepper::multistep_filt</title>
<polygon fill="white" stroke="none" points="-4,4 -4,-231.47 1217,-231.47 1217,4 -4,4"/>
<!-- Node1 -->
<g id="node1" class="node"><title>Node1</title>
<g id="a_node1"><a xlink:title=" ">
<polygon fill="#bfbfbf" stroke="black" points="0,-81.9696 0,-100.97 152,-100.97 152,-81.9696 0,-81.9696"/>
<text text-anchor="middle" x="76" y="-88.9696" font-family="Helvetica,sans-Serif" font-size="10.00">TMC2208Stepper::multistep_filt</text>
</a>
</g>
</g>
<!-- Node2 -->
<g id="node2" class="node"><title>Node2</title>
<g id="a_node2"><a xlink:href="../../d6/d7e/class_t_m_c2208_stepper.html#ac7e75314309e988c55e28da4798fa637" target="_top" xlink:title=" ">
<polygon fill="white" stroke="black" points="188,-81.9696 188,-100.97 340,-100.97 340,-81.9696 188,-81.9696"/>
<text text-anchor="middle" x="264" y="-88.9696" font-family="Helvetica,sans-Serif" font-size="10.00">TMC2208Stepper::multistep_filt</text>
</a>
</g>
</g>
<!-- Node1&#45;&gt;Node2 -->
<g id="edge1" class="edge"><title>Node1&#45;&gt;Node2</title>
<path fill="none" stroke="midnightblue" d="M152.117,-91.4696C160.596,-91.4696 169.281,-91.4696 177.875,-91.4696"/>
<polygon fill="midnightblue" stroke="midnightblue" points="177.905,-94.9697 187.905,-91.4696 177.905,-87.9697 177.905,-94.9697"/>
</g>
<!-- Node3 -->
<g id="node3" class="node"><title>Node3</title>
<g id="a_node3"><a xlink:href="../../d6/d7e/class_t_m_c2208_stepper.html#a549db4f962d4ae698dda33ef9a708e33" target="_top" xlink:title=" ">
<polygon fill="white" stroke="black" points="376,-81.9696 376,-100.97 508,-100.97 508,-81.9696 376,-81.9696"/>
<text text-anchor="middle" x="442" y="-88.9696" font-family="Helvetica,sans-Serif" font-size="10.00">TMC2208Stepper::GCONF</text>
</a>
</g>
</g>
<!-- Node2&#45;&gt;Node3 -->
<g id="edge2" class="edge"><title>Node2&#45;&gt;Node3</title>
<path fill="none" stroke="midnightblue" d="M340.15,-91.4696C348.586,-91.4696 357.183,-91.4696 365.621,-91.4696"/>
<polygon fill="midnightblue" stroke="midnightblue" points="365.815,-94.9697 375.815,-91.4696 365.815,-87.9697 365.815,-94.9697"/>
</g>
<!-- Node4 -->
<g id="node4" class="node"><title>Node4</title>
<g id="a_node4"><a xlink:href="../../d6/d7e/class_t_m_c2208_stepper.html#a2fae2050849c3ab7968012def8ea1cc5" target="_top" xlink:title=" ">
<polygon fill="white" stroke="black" points="544,-81.9696 544,-100.97 660,-100.97 660,-81.9696 544,-81.9696"/>
<text text-anchor="middle" x="602" y="-88.9696" font-family="Helvetica,sans-Serif" font-size="10.00">TMC2208Stepper::read</text>
</a>
</g>
</g>
<!-- Node3&#45;&gt;Node4 -->
<g id="edge3" class="edge"><title>Node3&#45;&gt;Node4</title>
<path fill="none" stroke="midnightblue" d="M508.177,-91.4696C516.517,-91.4696 525.069,-91.4696 533.445,-91.4696"/>
<polygon fill="midnightblue" stroke="midnightblue" points="533.55,-94.9697 543.55,-91.4696 533.55,-87.9697 533.55,-94.9697"/>
</g>
<!-- Node5 -->
<g id="node5" class="node"><title>Node5</title>
<g id="a_node5"><a xlink:href="../../d6/d7e/class_t_m_c2208_stepper.html#a321ad81155b7a20c0858920d32d0b074" target="_top" xlink:title=" ">
<polygon fill="white" stroke="black" points="705,-157.97 705,-176.97 871,-176.97 871,-157.97 705,-157.97"/>
<text text-anchor="middle" x="788" y="-164.97" font-family="Helvetica,sans-Serif" font-size="10.00">TMC2208Stepper::_sendDatagram</text>
</a>
</g>
</g>
<!-- Node4&#45;&gt;Node5 -->
<g id="edge4" class="edge"><title>Node4&#45;&gt;Node5</title>
<path fill="none" stroke="midnightblue" d="M615.494,-101.088C632.681,-113.843 665.022,-136.174 696,-148.47 702.6,-151.089 709.62,-153.37 716.72,-155.35"/>
<polygon fill="midnightblue" stroke="midnightblue" points="715.861,-158.743 726.42,-157.869 717.62,-151.968 715.861,-158.743"/>
</g>
<!-- Node11 -->
<g id="node11" class="node"><title>Node11</title>
<g id="a_node11"><a xlink:href="../../d6/d7e/class_t_m_c2208_stepper.html#a409c19fa6b052a370a317d061bf9af4e" target="_top" xlink:title=" ">
<polygon fill="white" stroke="black" points="720,-119.97 720,-138.97 856,-138.97 856,-119.97 720,-119.97"/>
<text text-anchor="middle" x="788" y="-126.97" font-family="Helvetica,sans-Serif" font-size="10.00">TMC2208Stepper::calcCRC</text>
</a>
</g>
</g>
<!-- Node4&#45;&gt;Node11 -->
<g id="edge11" class="edge"><title>Node4&#45;&gt;Node11</title>
<path fill="none" stroke="midnightblue" d="M649.431,-101.059C674.149,-106.163 704.739,-112.481 730.792,-117.861"/>
<polygon fill="midnightblue" stroke="midnightblue" points="730.402,-121.355 740.903,-119.95 731.817,-114.499 730.402,-121.355"/>
</g>
<!-- Node12 -->
<g id="node12" class="node"><title>Node12</title>
<g id="a_node12"><a xlink:href="../../d6/d7e/class_t_m_c2208_stepper.html#a673ade174158b47e3b345b1d7b3c473d" target="_top" xlink:title=" ">
<polygon fill="white" stroke="black" points="696,-81.9696 696,-100.97 880,-100.97 880,-81.9696 696,-81.9696"/>
<text text-anchor="middle" x="788" y="-88.9696" font-family="Helvetica,sans-Serif" font-size="10.00">TMC2208Stepper::postCommunication</text>
</a>
</g>
</g>
<!-- Node4&#45;&gt;Node12 -->
<g id="edge12" class="edge"><title>Node4&#45;&gt;Node12</title>
<path fill="none" stroke="midnightblue" d="M660.21,-91.4696C668.323,-91.4696 676.86,-91.4696 685.51,-91.4696"/>
<polygon fill="midnightblue" stroke="midnightblue" points="685.697,-94.9697 695.697,-91.4696 685.697,-87.9697 685.697,-94.9697"/>
</g>
<!-- Node13 -->
<g id="node13" class="node"><title>Node13</title>
<g id="a_node13"><a xlink:href="../../d6/d7e/class_t_m_c2208_stepper.html#a0ba01db6c4c01da7cb0ace8a524ab1da" target="_top" xlink:title=" ">
<polygon fill="white" stroke="black" points="698.5,-43.9696 698.5,-62.9696 877.5,-62.9696 877.5,-43.9696 698.5,-43.9696"/>
<text text-anchor="middle" x="788" y="-50.9696" font-family="Helvetica,sans-Serif" font-size="10.00">TMC2208Stepper::preCommunication</text>
</a>
</g>
</g>
<!-- Node4&#45;&gt;Node13 -->
<g id="edge13" class="edge"><title>Node4&#45;&gt;Node13</title>
<path fill="none" stroke="midnightblue" d="M649.431,-81.8806C674.149,-76.7758 704.739,-70.4583 730.792,-65.0778"/>
<polygon fill="midnightblue" stroke="midnightblue" points="731.817,-68.44 740.903,-62.9897 730.402,-61.5846 731.817,-68.44"/>
</g>
<!-- Node6 -->
<g id="node6" class="node"><title>Node6</title>
<g id="a_node6"><a xlink:href="../../d6/d7e/class_t_m_c2208_stepper.html#a7a670b15f45466f8d167a9b80fbf384f" target="_top" xlink:title=" ">
<polygon fill="white" stroke="black" points="921.5,-207.97 921.5,-226.97 1055.5,-226.97 1055.5,-207.97 921.5,-207.97"/>
<text text-anchor="middle" x="988.5" y="-214.97" font-family="Helvetica,sans-Serif" font-size="10.00">TMC2208Stepper::available</text>
</a>
</g>
</g>
<!-- Node5&#45;&gt;Node6 -->
<g id="edge5" class="edge"><title>Node5&#45;&gt;Node6</title>
<path fill="none" stroke="midnightblue" d="M826.804,-176.992C858.849,-185.064 904.983,-196.684 939.607,-205.406"/>
<polygon fill="midnightblue" stroke="midnightblue" points="938.948,-208.849 949.5,-207.898 940.657,-202.061 938.948,-208.849"/>
</g>
<!-- Node7 -->
<g id="node7" class="node"><title>Node7</title>
<g id="a_node7"><a xlink:href="../../d6/d7e/class_t_m_c2208_stepper.html#a4ec5d2b2f5a31259c7aba1f3208d63b8" target="_top" xlink:title=" ">
<polygon fill="white" stroke="black" points="930.5,-169.97 930.5,-188.97 1046.5,-188.97 1046.5,-169.97 930.5,-169.97"/>
<text text-anchor="middle" x="988.5" y="-176.97" font-family="Helvetica,sans-Serif" font-size="10.00">TMC2208Stepper::ms2</text>
</a>
</g>
</g>
<!-- Node5&#45;&gt;Node7 -->
<g id="edge6" class="edge"><title>Node5&#45;&gt;Node7</title>
<path fill="none" stroke="midnightblue" d="M871.17,-172.437C887.532,-173.426 904.531,-174.454 920.318,-175.408"/>
<polygon fill="midnightblue" stroke="midnightblue" points="920.305,-178.914 930.498,-176.024 920.727,-171.927 920.305,-178.914"/>
</g>
<!-- Node9 -->
<g id="node9" class="node"><title>Node9</title>
<g id="a_node9"><a xlink:href="../../d6/d7e/class_t_m_c2208_stepper.html#a129ceb04c3ea18e2c4ec1a59a51ece85" target="_top" xlink:title=" ">
<polygon fill="white" stroke="black" points="916,-131.97 916,-150.97 1061,-150.97 1061,-131.97 916,-131.97"/>
<text text-anchor="middle" x="988.5" y="-138.97" font-family="Helvetica,sans-Serif" font-size="10.00">TMC2208Stepper::serial_read</text>
</a>
</g>
</g>
<!-- Node5&#45;&gt;Node9 -->
<g id="edge9" class="edge"><title>Node5&#45;&gt;Node9</title>
<path fill="none" stroke="midnightblue" d="M861.787,-157.936C876.081,-156.064 891.166,-154.088 905.731,-152.18"/>
<polygon fill="midnightblue" stroke="midnightblue" points="906.256,-155.641 915.716,-150.872 905.346,-148.7 906.256,-155.641"/>
</g>
<!-- Node10 -->
<g id="node10" class="node"><title>Node10</title>
<g id="a_node10"><a xlink:href="../../d6/d7e/class_t_m_c2208_stepper.html#aa7f2c1a3a1cda9a328c186c6d7cbfe41" target="_top" xlink:title=" ">
<polygon fill="white" stroke="black" points="928,-82.4696 928,-112.47 1049,-112.47 1049,-82.4696 928,-82.4696"/>
<text text-anchor="start" x="936" y="-100.47" font-family="Helvetica,sans-Serif" font-size="10.00">TMC2208Stepper::serial</text>
<text text-anchor="middle" x="988.5" y="-89.4696" font-family="Helvetica,sans-Serif" font-size="10.00">_write</text>
</a>
</g>
</g>
<!-- Node5&#45;&gt;Node10 -->
<g id="edge10" class="edge"><title>Node5&#45;&gt;Node10</title>
<path fill="none" stroke="midnightblue" d="M852.251,-157.863C861.759,-155.397 871.289,-152.315 880,-148.47 898.056,-140.5 898.502,-131.6 916,-122.47 920.044,-120.36 924.305,-118.362 928.65,-116.486"/>
<polygon fill="midnightblue" stroke="midnightblue" points="930.304,-119.591 938.243,-112.575 927.662,-113.109 930.304,-119.591"/>
</g>
<!-- Node8 -->
<g id="node8" class="node"><title>Node8</title>
<g id="a_node8"><a xlink:href="../../d6/d7e/class_t_m_c2208_stepper.html#a5441dd87d0bcea4ffc309cb012166a57" target="_top" xlink:title=" ">
<polygon fill="white" stroke="black" points="1097,-87.9696 1097,-106.97 1213,-106.97 1213,-87.9696 1097,-87.9696"/>
<text text-anchor="middle" x="1155" y="-94.9696" font-family="Helvetica,sans-Serif" font-size="10.00">TMC2208Stepper::IOIN</text>
</a>
</g>
</g>
<!-- Node7&#45;&gt;Node8 -->
<g id="edge7" class="edge"><title>Node7&#45;&gt;Node8</title>
<path fill="none" stroke="midnightblue" d="M1034.55,-169.968C1043.51,-167.396 1052.7,-164.251 1061,-160.47 1088.45,-147.961 1116.68,-127.566 1134.73,-113.383"/>
<polygon fill="midnightblue" stroke="midnightblue" points="1137.11,-115.965 1142.72,-106.982 1132.73,-110.501 1137.11,-115.965"/>
</g>
<!-- Node8&#45;&gt;Node4 -->
<g id="edge8" class="edge"><title>Node8&#45;&gt;Node4</title>
<path fill="none" stroke="midnightblue" d="M1144.21,-87.8203C1128.34,-72.9361 1095.3,-44.9951 1061,-34.4696 905.914,13.1145 852.13,9.56986 696,-34.4696 667.807,-42.4221 639.729,-61.5756 621.921,-75.4902"/>
<polygon fill="midnightblue" stroke="midnightblue" points="619.643,-72.8308 614.049,-81.8281 624.033,-78.2834 619.643,-72.8308"/>
</g>
<!-- Node14 -->
<g id="node14" class="node"><title>Node14</title>
<g id="a_node14"><a xlink:href="../../d9/d98/class_s_switch.html#a6ff09d0850d551571dc333fb74ff8628" target="_top" xlink:title=" ">
<polygon fill="white" stroke="black" points="947,-43.9696 947,-62.9696 1030,-62.9696 1030,-43.9696 947,-43.9696"/>
<text text-anchor="middle" x="988.5" y="-50.9696" font-family="Helvetica,sans-Serif" font-size="10.00">SSwitch::active</text>
</a>
</g>
</g>
<!-- Node13&#45;&gt;Node14 -->
<g id="edge14" class="edge"><title>Node13&#45;&gt;Node14</title>
<path fill="none" stroke="midnightblue" d="M877.51,-53.4696C897.828,-53.4696 918.753,-53.4696 936.826,-53.4696"/>
<polygon fill="midnightblue" stroke="midnightblue" points="936.83,-56.9697 946.83,-53.4696 936.83,-49.9697 936.83,-56.9697"/>
</g>
</g>
</svg>
        <g id="navigator" transform="translate(0 0)" fill="#404254">
                <rect fill="#f2f5e9" fill-opacity="0.5" stroke="#606060" stroke-width=".5" x="0" y="0" width="60" height="60"/>
                <use id="zoomplus" xlink:href="#zoomPlus" x="17" y="9" onmousedown="handleZoom(evt,'in')"/>
                <use id="zoomminus" xlink:href="#zoomMin" x="42" y="9" onmousedown="handleZoom(evt,'out')"/>
                <use id="reset" xlink:href="#resetDef" x="30" y="36" onmousedown="handleReset()"/>
                <g id="arrowUp" xlink:href="#dirArrow" transform="translate(30 24)" onmousedown="handlePan(0,-1)">
                  <use xlink:href="#rim" fill="#404040">
                        <set attributeName="fill" to="#808080" begin="arrowUp.mouseover" end="arrowUp.mouseout"/>
                  </use>
                  <path fill="none" stroke="white" stroke-width="1.5" d="M0,-3.0v7 M-2.5,-0.5L0,-3.0L2.5,-0.5"/>
                </g>
                <g id="arrowRight" xlink:href="#dirArrow" transform="rotate(90) translate(36 -43)" onmousedown="handlePan(1,0)">
                  <use xlink:href="#rim" fill="#404040">
                        <set attributeName="fill" to="#808080" begin="arrowRight.mouseover" end="arrowRight.mouseout"/>
                  </use>
                  <path fill="none" stroke="white" stroke-width="1.5" d="M0,-3.0v7 M-2.5,-0.5L0,-3.0L2.5,-0.5"/>
                </g>
                <g id="arrowDown" xlink:href="#dirArrow" transform="rotate(180) translate(-30 -48)" onmousedown="handlePan(0,1)">
                  <use xlink:href="#rim" fill="#404040">
                        <set attributeName="fill" to="#808080" begin="arrowDown.mouseover" end="arrowDown.mouseout"/>
                  </use>
                  <path fill="none" stroke="white" stroke-width="1.5" d="M0,-3.0v7 M-2.5,-0.5L0,-3.0L2.5,-0.5"/>
                </g>
                <g id="arrowLeft" xlink:href="#dirArrow" transform="rotate(270) translate(-36 17)" onmousedown="handlePan(-1,0)">
                  <use xlink:href="#rim" fill="#404040">
                        <set attributeName="fill" to="#808080" begin="arrowLeft.mouseover" end="arrowLeft.mouseout"/>
                  </use>
                  <path fill="none" stroke="white" stroke-width="1.5" d="M0,-3.0v7 M-2.5,-0.5L0,-3.0L2.5,-0.5"/>
                </g>
        </g>
        <svg viewBox="0 0 15 15" width="100%" height="30px" preserveAspectRatio="xMaxYMin meet">
         <g id="arrow_out" transform="scale(0.3 0.3)">
          <a xlink:href="class_t_m_c2208_stepper_af937d7dd6f0cd461a20f3dff5ac20e57_cgraph_org.svg" target="_base">
           <rect id="button" ry="5" rx="5" y="6" x="6" height="38" width="38"
                fill="#f2f5e9" fill-opacity="0.5" stroke="#606060" stroke-width="1.0"/>
           <path id="arrow"
             d="M 11.500037,31.436501 C 11.940474,20.09759 22.043105,11.32322 32.158766,21.979434 L 37.068811,17.246167 C 37.068811,17.246167 37.088388,32 37.088388,32 L 22.160133,31.978069 C 22.160133,31.978069 26.997745,27.140456 26.997745,27.140456 C 18.528582,18.264221 13.291696,25.230495 11.500037,31.436501 z"
             style="fill:#404040;"/>
          </a>
         </g>
        </svg>
</svg>
