<?xml version="1.0" encoding="UTF-8" standalone="no"?>
<!DOCTYPE svg PUBLIC "-//W3C//DTD SVG 1.1//EN"
 "http://www.w3.org/Graphics/SVG/1.1/DTD/svg11.dtd">
<!-- Generated by graphviz version 2.38.0 (20140413.2041)
 -->
<!-- Title: TMC2208Stepper::IOIN Pages: 1 -->
<svg width="677pt" height="201pt"
 viewBox="0.00 0.00 677.00 201.00" xmlns="http://www.w3.org/2000/svg" xmlns:xlink="http://www.w3.org/1999/xlink">
<g id="graph0" class="graph" transform="scale(1 1) rotate(0) translate(4 197)">
<title>TMC2208Stepper::IOIN</title>
<polygon fill="white" stroke="none" points="-4,4 -4,-197 673,-197 673,4 -4,4"/>
<!-- Node1 -->
<g id="node1" class="node"><title>Node1</title>
<g id="a_node1"><a xlink:title=" ">
<polygon fill="#bfbfbf" stroke="black" points="0,-19.5 0,-38.5 116,-38.5 116,-19.5 0,-19.5"/>
<text text-anchor="middle" x="58" y="-26.5" font-family="Helvetica,sans-Serif" font-size="10.00">TMC2208Stepper::IOIN</text>
</a>
</g>
</g>
<!-- Node2 -->
<g id="node2" class="node"><title>Node2</title>
<g id="a_node2"><a xlink:href="../../d6/d7e/class_t_m_c2208_stepper.html#a2fae2050849c3ab7968012def8ea1cc5" target="_top" xlink:title=" ">
<polygon fill="white" stroke="black" points="152,-57.5 152,-76.5 268,-76.5 268,-57.5 152,-57.5"/>
<text text-anchor="middle" x="210" y="-64.5" font-family="Helvetica,sans-Serif" font-size="10.00">TMC2208Stepper::read</text>
</a>
</g>
</g>
<!-- Node1&#45;&gt;Node2 -->
<g id="edge1" class="edge"><title>Node1&#45;&gt;Node2</title>
<path fill="none" stroke="midnightblue" d="M96.8513,-38.589C116.467,-43.5583 140.619,-49.6767 161.479,-54.9613"/>
<polygon fill="midnightblue" stroke="midnightblue" points="160.868,-58.4169 171.421,-57.4799 162.587,-51.6313 160.868,-58.4169"/>
</g>
<!-- Node3 -->
<g id="node3" class="node"><title>Node3</title>
<g id="a_node3"><a xlink:href="../../d6/d7e/class_t_m_c2208_stepper.html#a321ad81155b7a20c0858920d32d0b074" target="_top" xlink:title=" ">
<polygon fill="white" stroke="black" points="313,-95.5 313,-114.5 479,-114.5 479,-95.5 313,-95.5"/>
<text text-anchor="middle" x="396" y="-102.5" font-family="Helvetica,sans-Serif" font-size="10.00">TMC2208Stepper::_sendDatagram</text>
</a>
</g>
</g>
<!-- Node2&#45;&gt;Node3 -->
<g id="edge2" class="edge"><title>Node2&#45;&gt;Node3</title>
<path fill="none" stroke="midnightblue" d="M257.431,-76.589C282.149,-81.6939 312.739,-88.0113 338.792,-93.3918"/>
<polygon fill="midnightblue" stroke="midnightblue" points="338.402,-96.885 348.903,-95.4799 339.817,-90.0297 338.402,-96.885"/>
</g>
<!-- Node8 -->
<g id="node8" class="node"><title>Node8</title>
<g id="a_node8"><a xlink:href="../../d6/d7e/class_t_m_c2208_stepper.html#a409c19fa6b052a370a317d061bf9af4e" target="_top" xlink:title=" ">
<polygon fill="white" stroke="black" points="328,-57.5 328,-76.5 464,-76.5 464,-57.5 328,-57.5"/>
<text text-anchor="middle" x="396" y="-64.5" font-family="Helvetica,sans-Serif" font-size="10.00">TMC2208Stepper::calcCRC</text>
</a>
</g>
</g>
<!-- Node2&#45;&gt;Node8 -->
<g id="edge8" class="edge"><title>Node2&#45;&gt;Node8</title>
<path fill="none" stroke="midnightblue" d="M268.21,-67C283.848,-67 301.059,-67 317.621,-67"/>
<polygon fill="midnightblue" stroke="midnightblue" points="317.829,-70.5001 327.829,-67 317.829,-63.5001 317.829,-70.5001"/>
</g>
<!-- Node9 -->
<g id="node9" class="node"><title>Node9</title>
<g id="a_node9"><a xlink:href="../../d6/d7e/class_t_m_c2208_stepper.html#a673ade174158b47e3b345b1d7b3c473d" target="_top" xlink:title=" ">
<polygon fill="white" stroke="black" points="304,-19.5 304,-38.5 488,-38.5 488,-19.5 304,-19.5"/>
<text text-anchor="middle" x="396" y="-26.5" font-family="Helvetica,sans-Serif" font-size="10.00">TMC2208Stepper::postCommunication</text>
</a>
</g>
</g>
<!-- Node2&#45;&gt;Node9 -->
<g id="edge9" class="edge"><title>Node2&#45;&gt;Node9</title>
<path fill="none" stroke="midnightblue" d="M257.431,-57.411C282.149,-52.3061 312.739,-45.9887 338.792,-40.6082"/>
<polygon fill="midnightblue" stroke="midnightblue" points="339.817,-43.9703 348.903,-38.5201 338.402,-37.115 339.817,-43.9703"/>
</g>
<!-- Node10 -->
<g id="node10" class="node"><title>Node10</title>
<g id="a_node10"><a xlink:href="../../d6/d7e/class_t_m_c2208_stepper.html#a0ba01db6c4c01da7cb0ace8a524ab1da" target="_top" xlink:title=" ">
<polygon fill="white" stroke="black" points="306.5,-139.5 306.5,-158.5 485.5,-158.5 485.5,-139.5 306.5,-139.5"/>
<text text-anchor="middle" x="396" y="-146.5" font-family="Helvetica,sans-Serif" font-size="10.00">TMC2208Stepper::preCommunication</text>
</a>
</g>
</g>
<!-- Node2&#45;&gt;Node10 -->
<g id="edge10" class="edge"><title>Node2&#45;&gt;Node10</title>
<path fill="none" stroke="midnightblue" d="M223.907,-76.5501C241.299,-89.0241 273.593,-110.821 304,-124 315.625,-129.038 328.529,-133.314 340.88,-136.828"/>
<polygon fill="midnightblue" stroke="midnightblue" points="340.064,-140.233 350.632,-139.483 341.903,-133.479 340.064,-140.233"/>
</g>
<!-- Node4 -->
<g id="node4" class="node"><title>Node4</title>
<g id="a_node4"><a xlink:href="../../d6/d7e/class_t_m_c2208_stepper.html#a7a670b15f45466f8d167a9b80fbf384f" target="_top" xlink:title=" ">
<polygon fill="white" stroke="black" points="529.5,-85.5 529.5,-104.5 663.5,-104.5 663.5,-85.5 529.5,-85.5"/>
<text text-anchor="middle" x="596.5" y="-92.5" font-family="Helvetica,sans-Serif" font-size="10.00">TMC2208Stepper::available</text>
</a>
</g>
</g>
<!-- Node3&#45;&gt;Node4 -->
<g id="edge3" class="edge"><title>Node3&#45;&gt;Node4</title>
<path fill="none" stroke="midnightblue" d="M479.17,-100.86C492.383,-100.195 506.013,-99.5082 519.084,-98.8497"/>
<polygon fill="midnightblue" stroke="midnightblue" points="519.616,-102.327 529.428,-98.3286 519.264,-95.3362 519.616,-102.327"/>
</g>
<!-- Node5 -->
<g id="node5" class="node"><title>Node5</title>
<g id="a_node5"><a xlink:href="../../d6/d7e/class_t_m_c2208_stepper.html#a4ec5d2b2f5a31259c7aba1f3208d63b8" target="_top" xlink:title=" ">
<polygon fill="white" stroke="black" points="538.5,-0.5 538.5,-19.5 654.5,-19.5 654.5,-0.5 538.5,-0.5"/>
<text text-anchor="middle" x="596.5" y="-7.5" font-family="Helvetica,sans-Serif" font-size="10.00">TMC2208Stepper::ms2</text>
</a>
</g>
</g>
<!-- Node3&#45;&gt;Node5 -->
<g id="edge4" class="edge"><title>Node3&#45;&gt;Node5</title>
<path fill="none" stroke="midnightblue" d="M468.064,-95.4993C475.087,-93.0129 481.872,-89.8981 488,-86 510.5,-71.687 502.776,-54.1441 524,-38 531.875,-32.01 541.193,-27.1398 550.457,-23.2435"/>
<polygon fill="midnightblue" stroke="midnightblue" points="551.97,-26.4104 560.027,-19.5296 549.438,-19.8845 551.97,-26.4104"/>
</g>
<!-- Node6 -->
<g id="node6" class="node"><title>Node6</title>
<g id="a_node6"><a xlink:href="../../d6/d7e/class_t_m_c2208_stepper.html#a129ceb04c3ea18e2c4ec1a59a51ece85" target="_top" xlink:title=" ">
<polygon fill="white" stroke="black" points="524,-47.5 524,-66.5 669,-66.5 669,-47.5 524,-47.5"/>
<text text-anchor="middle" x="596.5" y="-54.5" font-family="Helvetica,sans-Serif" font-size="10.00">TMC2208Stepper::serial_read</text>
</a>
</g>
</g>
<!-- Node3&#45;&gt;Node6 -->
<g id="edge6" class="edge"><title>Node3&#45;&gt;Node6</title>
<path fill="none" stroke="midnightblue" d="M445.775,-95.4266C459.476,-92.5721 474.356,-89.3157 488,-86 504.136,-82.0787 507.975,-80.3547 524,-76 532.196,-73.7728 540.928,-71.4285 549.373,-69.1762"/>
<polygon fill="midnightblue" stroke="midnightblue" points="550.341,-72.5405 559.105,-66.587 548.541,-65.7758 550.341,-72.5405"/>
</g>
<!-- Node7 -->
<g id="node7" class="node"><title>Node7</title>
<g id="a_node7"><a xlink:href="../../d6/d7e/class_t_m_c2208_stepper.html#aa7f2c1a3a1cda9a328c186c6d7cbfe41" target="_top" xlink:title=" ">
<polygon fill="white" stroke="black" points="536,-124 536,-154 657,-154 657,-124 536,-124"/>
<text text-anchor="start" x="544" y="-142" font-family="Helvetica,sans-Serif" font-size="10.00">TMC2208Stepper::serial</text>
<text text-anchor="middle" x="596.5" y="-131" font-family="Helvetica,sans-Serif" font-size="10.00">_write</text>
</a>
</g>
</g>
<!-- Node3&#45;&gt;Node7 -->
<g id="edge7" class="edge"><title>Node3&#45;&gt;Node7</title>
<path fill="none" stroke="midnightblue" d="M452.557,-114.516C475.238,-118.401 501.722,-122.937 525.688,-127.042"/>
<polygon fill="midnightblue" stroke="midnightblue" points="525.339,-130.533 535.787,-128.772 526.521,-123.634 525.339,-130.533"/>
</g>
<!-- Node5&#45;&gt;Node1 -->
<g id="edge5" class="edge"><title>Node5&#45;&gt;Node1</title>
<path fill="none" stroke="midnightblue" d="M538.227,-8.69287C479.429,-7.65791 385.291,-6.85263 304,-10 243.903,-12.3268 175.699,-17.8526 126.541,-22.3486"/>
<polygon fill="midnightblue" stroke="midnightblue" points="125.985,-18.8849 116.35,-23.2908 126.63,-25.8552 125.985,-18.8849"/>
</g>
<!-- Node11 -->
<g id="node11" class="node"><title>Node11</title>
<g id="a_node11"><a xlink:href="../../d9/d98/class_s_switch.html#a6ff09d0850d551571dc333fb74ff8628" target="_top" xlink:title=" ">
<polygon fill="white" stroke="black" points="555,-173.5 555,-192.5 638,-192.5 638,-173.5 555,-173.5"/>
<text text-anchor="middle" x="596.5" y="-180.5" font-family="Helvetica,sans-Serif" font-size="10.00">SSwitch::active</text>
</a>
</g>
</g>
<!-- Node10&#45;&gt;Node11 -->
<g id="edge11" class="edge"><title>Node10&#45;&gt;Node11</title>
<path fill="none" stroke="midnightblue" d="M452.557,-158.516C481.466,-163.468 516.552,-169.478 544.729,-174.304"/>
<polygon fill="midnightblue" stroke="midnightblue" points="544.326,-177.786 554.773,-176.024 545.508,-170.886 544.326,-177.786"/>
</g>
</g>
</svg>
