<?xml version="1.0" encoding="UTF-8" standalone="no"?>
<!DOCTYPE svg PUBLIC "-//W3C//DTD SVG 1.1//EN"
 "http://www.w3.org/Graphics/SVG/1.1/DTD/svg11.dtd">
<!-- Generated by graphviz version 2.38.0 (20140413.2041)
 -->
<!-- Title: TMC2208Stepper::PWM_AUTO Pages: 1 -->
<svg width="867pt" height="235pt"
 viewBox="0.00 0.00 867.00 235.47" xmlns="http://www.w3.org/2000/svg" xmlns:xlink="http://www.w3.org/1999/xlink">
<g id="graph0" class="graph" transform="scale(1 1) rotate(0) translate(4 231.47)">
<title>TMC2208Stepper::PWM_AUTO</title>
<polygon fill="white" stroke="none" points="-4,4 -4,-231.47 863,-231.47 863,4 -4,4"/>
<!-- Node1 -->
<g id="node1" class="node"><title>Node1</title>
<g id="a_node1"><a xlink:title=" ">
<polygon fill="#bfbfbf" stroke="black" points="0,-81.9696 0,-100.97 154,-100.97 154,-81.9696 0,-81.9696"/>
<text text-anchor="middle" x="77" y="-88.9696" font-family="Helvetica,sans-Serif" font-size="10.00">TMC2208Stepper::PWM_AUTO</text>
</a>
</g>
</g>
<!-- Node2 -->
<g id="node2" class="node"><title>Node2</title>
<g id="a_node2"><a xlink:href="../../d6/d7e/class_t_m_c2208_stepper.html#a2fae2050849c3ab7968012def8ea1cc5" target="_top" xlink:title=" ">
<polygon fill="white" stroke="black" points="190,-81.9696 190,-100.97 306,-100.97 306,-81.9696 190,-81.9696"/>
<text text-anchor="middle" x="248" y="-88.9696" font-family="Helvetica,sans-Serif" font-size="10.00">TMC2208Stepper::read</text>
</a>
</g>
</g>
<!-- Node1&#45;&gt;Node2 -->
<g id="edge1" class="edge"><title>Node1&#45;&gt;Node2</title>
<path fill="none" stroke="midnightblue" d="M154.095,-91.4696C162.629,-91.4696 171.277,-91.4696 179.689,-91.4696"/>
<polygon fill="midnightblue" stroke="midnightblue" points="179.807,-94.9697 189.807,-91.4696 179.807,-87.9697 179.807,-94.9697"/>
</g>
<!-- Node3 -->
<g id="node3" class="node"><title>Node3</title>
<g id="a_node3"><a xlink:href="../../d6/d7e/class_t_m_c2208_stepper.html#a321ad81155b7a20c0858920d32d0b074" target="_top" xlink:title=" ">
<polygon fill="white" stroke="black" points="351,-157.97 351,-176.97 517,-176.97 517,-157.97 351,-157.97"/>
<text text-anchor="middle" x="434" y="-164.97" font-family="Helvetica,sans-Serif" font-size="10.00">TMC2208Stepper::_sendDatagram</text>
</a>
</g>
</g>
<!-- Node2&#45;&gt;Node3 -->
<g id="edge2" class="edge"><title>Node2&#45;&gt;Node3</title>
<path fill="none" stroke="midnightblue" d="M261.494,-101.088C278.681,-113.843 311.022,-136.174 342,-148.47 348.6,-151.089 355.62,-153.37 362.72,-155.35"/>
<polygon fill="midnightblue" stroke="midnightblue" points="361.861,-158.743 372.42,-157.869 363.62,-151.968 361.861,-158.743"/>
</g>
<!-- Node9 -->
<g id="node9" class="node"><title>Node9</title>
<g id="a_node9"><a xlink:href="../../d6/d7e/class_t_m_c2208_stepper.html#a409c19fa6b052a370a317d061bf9af4e" target="_top" xlink:title=" ">
<polygon fill="white" stroke="black" points="366,-119.97 366,-138.97 502,-138.97 502,-119.97 366,-119.97"/>
<text text-anchor="middle" x="434" y="-126.97" font-family="Helvetica,sans-Serif" font-size="10.00">TMC2208Stepper::calcCRC</text>
</a>
</g>
</g>
<!-- Node2&#45;&gt;Node9 -->
<g id="edge9" class="edge"><title>Node2&#45;&gt;Node9</title>
<path fill="none" stroke="midnightblue" d="M295.431,-101.059C320.149,-106.163 350.739,-112.481 376.792,-117.861"/>
<polygon fill="midnightblue" stroke="midnightblue" points="376.402,-121.355 386.903,-119.95 377.817,-114.499 376.402,-121.355"/>
</g>
<!-- Node10 -->
<g id="node10" class="node"><title>Node10</title>
<g id="a_node10"><a xlink:href="../../d6/d7e/class_t_m_c2208_stepper.html#a673ade174158b47e3b345b1d7b3c473d" target="_top" xlink:title=" ">
<polygon fill="white" stroke="black" points="342,-81.9696 342,-100.97 526,-100.97 526,-81.9696 342,-81.9696"/>
<text text-anchor="middle" x="434" y="-88.9696" font-family="Helvetica,sans-Serif" font-size="10.00">TMC2208Stepper::postCommunication</text>
</a>
</g>
</g>
<!-- Node2&#45;&gt;Node10 -->
<g id="edge10" class="edge"><title>Node2&#45;&gt;Node10</title>
<path fill="none" stroke="midnightblue" d="M306.21,-91.4696C314.323,-91.4696 322.86,-91.4696 331.51,-91.4696"/>
<polygon fill="midnightblue" stroke="midnightblue" points="331.697,-94.9697 341.697,-91.4696 331.697,-87.9697 331.697,-94.9697"/>
</g>
<!-- Node11 -->
<g id="node11" class="node"><title>Node11</title>
<g id="a_node11"><a xlink:href="../../d6/d7e/class_t_m_c2208_stepper.html#a0ba01db6c4c01da7cb0ace8a524ab1da" target="_top" xlink:title=" ">
<polygon fill="white" stroke="black" points="344.5,-43.9696 344.5,-62.9696 523.5,-62.9696 523.5,-43.9696 344.5,-43.9696"/>
<text text-anchor="middle" x="434" y="-50.9696" font-family="Helvetica,sans-Serif" font-size="10.00">TMC2208Stepper::preCommunication</text>
</a>
</g>
</g>
<!-- Node2&#45;&gt;Node11 -->
<g id="edge11" class="edge"><title>Node2&#45;&gt;Node11</title>
<path fill="none" stroke="midnightblue" d="M295.431,-81.8806C320.149,-76.7758 350.739,-70.4583 376.792,-65.0778"/>
<polygon fill="midnightblue" stroke="midnightblue" points="377.817,-68.44 386.903,-62.9897 376.402,-61.5846 377.817,-68.44"/>
</g>
<!-- Node4 -->
<g id="node4" class="node"><title>Node4</title>
<g id="a_node4"><a xlink:href="../../d6/d7e/class_t_m_c2208_stepper.html#a7a670b15f45466f8d167a9b80fbf384f" target="_top" xlink:title=" ">
<polygon fill="white" stroke="black" points="567.5,-207.97 567.5,-226.97 701.5,-226.97 701.5,-207.97 567.5,-207.97"/>
<text text-anchor="middle" x="634.5" y="-214.97" font-family="Helvetica,sans-Serif" font-size="10.00">TMC2208Stepper::available</text>
</a>
</g>
</g>
<!-- Node3&#45;&gt;Node4 -->
<g id="edge3" class="edge"><title>Node3&#45;&gt;Node4</title>
<path fill="none" stroke="midnightblue" d="M472.804,-176.992C504.849,-185.064 550.983,-196.684 585.607,-205.406"/>
<polygon fill="midnightblue" stroke="midnightblue" points="584.948,-208.849 595.5,-207.898 586.657,-202.061 584.948,-208.849"/>
</g>
<!-- Node5 -->
<g id="node5" class="node"><title>Node5</title>
<g id="a_node5"><a xlink:href="../../d6/d7e/class_t_m_c2208_stepper.html#a4ec5d2b2f5a31259c7aba1f3208d63b8" target="_top" xlink:title=" ">
<polygon fill="white" stroke="black" points="576.5,-169.97 576.5,-188.97 692.5,-188.97 692.5,-169.97 576.5,-169.97"/>
<text text-anchor="middle" x="634.5" y="-176.97" font-family="Helvetica,sans-Serif" font-size="10.00">TMC2208Stepper::ms2</text>
</a>
</g>
</g>
<!-- Node3&#45;&gt;Node5 -->
<g id="edge4" class="edge"><title>Node3&#45;&gt;Node5</title>
<path fill="none" stroke="midnightblue" d="M517.17,-172.437C533.532,-173.426 550.531,-174.454 566.318,-175.408"/>
<polygon fill="midnightblue" stroke="midnightblue" points="566.305,-178.914 576.498,-176.024 566.727,-171.927 566.305,-178.914"/>
</g>
<!-- Node7 -->
<g id="node7" class="node"><title>Node7</title>
<g id="a_node7"><a xlink:href="../../d6/d7e/class_t_m_c2208_stepper.html#a129ceb04c3ea18e2c4ec1a59a51ece85" target="_top" xlink:title=" ">
<polygon fill="white" stroke="black" points="562,-131.97 562,-150.97 707,-150.97 707,-131.97 562,-131.97"/>
<text text-anchor="middle" x="634.5" y="-138.97" font-family="Helvetica,sans-Serif" font-size="10.00">TMC2208Stepper::serial_read</text>
</a>
</g>
</g>
<!-- Node3&#45;&gt;Node7 -->
<g id="edge7" class="edge"><title>Node3&#45;&gt;Node7</title>
<path fill="none" stroke="midnightblue" d="M507.787,-157.936C522.081,-156.064 537.166,-154.088 551.731,-152.18"/>
<polygon fill="midnightblue" stroke="midnightblue" points="552.256,-155.641 561.716,-150.872 551.346,-148.7 552.256,-155.641"/>
</g>
<!-- Node8 -->
<g id="node8" class="node"><title>Node8</title>
<g id="a_node8"><a xlink:href="../../d6/d7e/class_t_m_c2208_stepper.html#aa7f2c1a3a1cda9a328c186c6d7cbfe41" target="_top" xlink:title=" ">
<polygon fill="white" stroke="black" points="574,-82.4696 574,-112.47 695,-112.47 695,-82.4696 574,-82.4696"/>
<text text-anchor="start" x="582" y="-100.47" font-family="Helvetica,sans-Serif" font-size="10.00">TMC2208Stepper::serial</text>
<text text-anchor="middle" x="634.5" y="-89.4696" font-family="Helvetica,sans-Serif" font-size="10.00">_write</text>
</a>
</g>
</g>
<!-- Node3&#45;&gt;Node8 -->
<g id="edge8" class="edge"><title>Node3&#45;&gt;Node8</title>
<path fill="none" stroke="midnightblue" d="M498.251,-157.863C507.759,-155.397 517.289,-152.315 526,-148.47 544.056,-140.5 544.502,-131.6 562,-122.47 566.044,-120.36 570.305,-118.362 574.65,-116.486"/>
<polygon fill="midnightblue" stroke="midnightblue" points="576.304,-119.591 584.243,-112.575 573.662,-113.109 576.304,-119.591"/>
</g>
<!-- Node6 -->
<g id="node6" class="node"><title>Node6</title>
<g id="a_node6"><a xlink:href="../../d6/d7e/class_t_m_c2208_stepper.html#a5441dd87d0bcea4ffc309cb012166a57" target="_top" xlink:title=" ">
<polygon fill="white" stroke="black" points="743,-87.9696 743,-106.97 859,-106.97 859,-87.9696 743,-87.9696"/>
<text text-anchor="middle" x="801" y="-94.9696" font-family="Helvetica,sans-Serif" font-size="10.00">TMC2208Stepper::IOIN</text>
</a>
</g>
</g>
<!-- Node5&#45;&gt;Node6 -->
<g id="edge5" class="edge"><title>Node5&#45;&gt;Node6</title>
<path fill="none" stroke="midnightblue" d="M680.551,-169.968C689.507,-167.396 698.702,-164.251 707,-160.47 734.451,-147.961 762.683,-127.566 780.73,-113.383"/>
<polygon fill="midnightblue" stroke="midnightblue" points="783.106,-115.965 788.723,-106.982 778.73,-110.501 783.106,-115.965"/>
</g>
<!-- Node6&#45;&gt;Node2 -->
<g id="edge6" class="edge"><title>Node6&#45;&gt;Node2</title>
<path fill="none" stroke="midnightblue" d="M790.209,-87.8203C774.34,-72.9361 741.305,-44.9951 707,-34.4696 551.914,13.1145 498.13,9.56986 342,-34.4696 313.807,-42.4221 285.729,-61.5756 267.921,-75.4902"/>
<polygon fill="midnightblue" stroke="midnightblue" points="265.643,-72.8308 260.049,-81.8281 270.033,-78.2834 265.643,-72.8308"/>
</g>
<!-- Node12 -->
<g id="node12" class="node"><title>Node12</title>
<g id="a_node12"><a xlink:href="../../d9/d98/class_s_switch.html#a6ff09d0850d551571dc333fb74ff8628" target="_top" xlink:title=" ">
<polygon fill="white" stroke="black" points="593,-43.9696 593,-62.9696 676,-62.9696 676,-43.9696 593,-43.9696"/>
<text text-anchor="middle" x="634.5" y="-50.9696" font-family="Helvetica,sans-Serif" font-size="10.00">SSwitch::active</text>
</a>
</g>
</g>
<!-- Node11&#45;&gt;Node12 -->
<g id="edge12" class="edge"><title>Node11&#45;&gt;Node12</title>
<path fill="none" stroke="midnightblue" d="M523.51,-53.4696C543.828,-53.4696 564.753,-53.4696 582.826,-53.4696"/>
<polygon fill="midnightblue" stroke="midnightblue" points="582.83,-56.9697 592.83,-53.4696 582.83,-49.9697 582.83,-56.9697"/>
</g>
</g>
</svg>
