<?xml version="1.0" encoding="UTF-8" standalone="no"?>
<!DOCTYPE svg PUBLIC "-//W3C//DTD SVG 1.1//EN"
 "http://www.w3.org/Graphics/SVG/1.1/DTD/svg11.dtd">
<!-- Generated by graphviz version 2.38.0 (20140413.2041)
 -->
<!-- Title: TMC2208Stepper::index_step Pages: 1 -->
<svg width="1026pt" height="235pt"
 viewBox="0.00 0.00 1026.00 235.47" xmlns="http://www.w3.org/2000/svg" xmlns:xlink="http://www.w3.org/1999/xlink">
<g id="graph0" class="graph" transform="scale(1 1) rotate(0) translate(4 231.47)">
<title>TMC2208Stepper::index_step</title>
<polygon fill="white" stroke="none" points="-4,4 -4,-231.47 1022,-231.47 1022,4 -4,4"/>
<!-- Node1 -->
<g id="node1" class="node"><title>Node1</title>
<g id="a_node1"><a xlink:title=" ">
<polygon fill="#bfbfbf" stroke="black" points="0,-81.9696 0,-100.97 145,-100.97 145,-81.9696 0,-81.9696"/>
<text text-anchor="middle" x="72.5" y="-88.9696" font-family="Helvetica,sans-Serif" font-size="10.00">TMC2208Stepper::index_step</text>
</a>
</g>
</g>
<!-- Node2 -->
<g id="node2" class="node"><title>Node2</title>
<g id="a_node2"><a xlink:href="../../d6/d7e/class_t_m_c2208_stepper.html#a549db4f962d4ae698dda33ef9a708e33" target="_top" xlink:title=" ">
<polygon fill="white" stroke="black" points="181,-81.9696 181,-100.97 313,-100.97 313,-81.9696 181,-81.9696"/>
<text text-anchor="middle" x="247" y="-88.9696" font-family="Helvetica,sans-Serif" font-size="10.00">TMC2208Stepper::GCONF</text>
</a>
</g>
</g>
<!-- Node1&#45;&gt;Node2 -->
<g id="edge1" class="edge"><title>Node1&#45;&gt;Node2</title>
<path fill="none" stroke="midnightblue" d="M145.157,-91.4696C153.58,-91.4696 162.195,-91.4696 170.667,-91.4696"/>
<polygon fill="midnightblue" stroke="midnightblue" points="170.908,-94.9697 180.908,-91.4696 170.908,-87.9697 170.908,-94.9697"/>
</g>
<!-- Node3 -->
<g id="node3" class="node"><title>Node3</title>
<g id="a_node3"><a xlink:href="../../d6/d7e/class_t_m_c2208_stepper.html#a2fae2050849c3ab7968012def8ea1cc5" target="_top" xlink:title=" ">
<polygon fill="white" stroke="black" points="349,-81.9696 349,-100.97 465,-100.97 465,-81.9696 349,-81.9696"/>
<text text-anchor="middle" x="407" y="-88.9696" font-family="Helvetica,sans-Serif" font-size="10.00">TMC2208Stepper::read</text>
</a>
</g>
</g>
<!-- Node2&#45;&gt;Node3 -->
<g id="edge2" class="edge"><title>Node2&#45;&gt;Node3</title>
<path fill="none" stroke="midnightblue" d="M313.177,-91.4696C321.517,-91.4696 330.069,-91.4696 338.445,-91.4696"/>
<polygon fill="midnightblue" stroke="midnightblue" points="338.55,-94.9697 348.55,-91.4696 338.55,-87.9697 338.55,-94.9697"/>
</g>
<!-- Node4 -->
<g id="node4" class="node"><title>Node4</title>
<g id="a_node4"><a xlink:href="../../d6/d7e/class_t_m_c2208_stepper.html#a321ad81155b7a20c0858920d32d0b074" target="_top" xlink:title=" ">
<polygon fill="white" stroke="black" points="510,-157.97 510,-176.97 676,-176.97 676,-157.97 510,-157.97"/>
<text text-anchor="middle" x="593" y="-164.97" font-family="Helvetica,sans-Serif" font-size="10.00">TMC2208Stepper::_sendDatagram</text>
</a>
</g>
</g>
<!-- Node3&#45;&gt;Node4 -->
<g id="edge3" class="edge"><title>Node3&#45;&gt;Node4</title>
<path fill="none" stroke="midnightblue" d="M420.494,-101.088C437.681,-113.843 470.022,-136.174 501,-148.47 507.6,-151.089 514.62,-153.37 521.72,-155.35"/>
<polygon fill="midnightblue" stroke="midnightblue" points="520.861,-158.743 531.42,-157.869 522.62,-151.968 520.861,-158.743"/>
</g>
<!-- Node10 -->
<g id="node10" class="node"><title>Node10</title>
<g id="a_node10"><a xlink:href="../../d6/d7e/class_t_m_c2208_stepper.html#a409c19fa6b052a370a317d061bf9af4e" target="_top" xlink:title=" ">
<polygon fill="white" stroke="black" points="525,-119.97 525,-138.97 661,-138.97 661,-119.97 525,-119.97"/>
<text text-anchor="middle" x="593" y="-126.97" font-family="Helvetica,sans-Serif" font-size="10.00">TMC2208Stepper::calcCRC</text>
</a>
</g>
</g>
<!-- Node3&#45;&gt;Node10 -->
<g id="edge10" class="edge"><title>Node3&#45;&gt;Node10</title>
<path fill="none" stroke="midnightblue" d="M454.431,-101.059C479.149,-106.163 509.739,-112.481 535.792,-117.861"/>
<polygon fill="midnightblue" stroke="midnightblue" points="535.402,-121.355 545.903,-119.95 536.817,-114.499 535.402,-121.355"/>
</g>
<!-- Node11 -->
<g id="node11" class="node"><title>Node11</title>
<g id="a_node11"><a xlink:href="../../d6/d7e/class_t_m_c2208_stepper.html#a673ade174158b47e3b345b1d7b3c473d" target="_top" xlink:title=" ">
<polygon fill="white" stroke="black" points="501,-81.9696 501,-100.97 685,-100.97 685,-81.9696 501,-81.9696"/>
<text text-anchor="middle" x="593" y="-88.9696" font-family="Helvetica,sans-Serif" font-size="10.00">TMC2208Stepper::postCommunication</text>
</a>
</g>
</g>
<!-- Node3&#45;&gt;Node11 -->
<g id="edge11" class="edge"><title>Node3&#45;&gt;Node11</title>
<path fill="none" stroke="midnightblue" d="M465.21,-91.4696C473.323,-91.4696 481.86,-91.4696 490.51,-91.4696"/>
<polygon fill="midnightblue" stroke="midnightblue" points="490.697,-94.9697 500.697,-91.4696 490.697,-87.9697 490.697,-94.9697"/>
</g>
<!-- Node12 -->
<g id="node12" class="node"><title>Node12</title>
<g id="a_node12"><a xlink:href="../../d6/d7e/class_t_m_c2208_stepper.html#a0ba01db6c4c01da7cb0ace8a524ab1da" target="_top" xlink:title=" ">
<polygon fill="white" stroke="black" points="503.5,-43.9696 503.5,-62.9696 682.5,-62.9696 682.5,-43.9696 503.5,-43.9696"/>
<text text-anchor="middle" x="593" y="-50.9696" font-family="Helvetica,sans-Serif" font-size="10.00">TMC2208Stepper::preCommunication</text>
</a>
</g>
</g>
<!-- Node3&#45;&gt;Node12 -->
<g id="edge12" class="edge"><title>Node3&#45;&gt;Node12</title>
<path fill="none" stroke="midnightblue" d="M454.431,-81.8806C479.149,-76.7758 509.739,-70.4583 535.792,-65.0778"/>
<polygon fill="midnightblue" stroke="midnightblue" points="536.817,-68.44 545.903,-62.9897 535.402,-61.5846 536.817,-68.44"/>
</g>
<!-- Node5 -->
<g id="node5" class="node"><title>Node5</title>
<g id="a_node5"><a xlink:href="../../d6/d7e/class_t_m_c2208_stepper.html#a7a670b15f45466f8d167a9b80fbf384f" target="_top" xlink:title=" ">
<polygon fill="white" stroke="black" points="726.5,-207.97 726.5,-226.97 860.5,-226.97 860.5,-207.97 726.5,-207.97"/>
<text text-anchor="middle" x="793.5" y="-214.97" font-family="Helvetica,sans-Serif" font-size="10.00">TMC2208Stepper::available</text>
</a>
</g>
</g>
<!-- Node4&#45;&gt;Node5 -->
<g id="edge4" class="edge"><title>Node4&#45;&gt;Node5</title>
<path fill="none" stroke="midnightblue" d="M631.804,-176.992C663.849,-185.064 709.983,-196.684 744.607,-205.406"/>
<polygon fill="midnightblue" stroke="midnightblue" points="743.948,-208.849 754.5,-207.898 745.657,-202.061 743.948,-208.849"/>
</g>
<!-- Node6 -->
<g id="node6" class="node"><title>Node6</title>
<g id="a_node6"><a xlink:href="../../d6/d7e/class_t_m_c2208_stepper.html#a4ec5d2b2f5a31259c7aba1f3208d63b8" target="_top" xlink:title=" ">
<polygon fill="white" stroke="black" points="735.5,-169.97 735.5,-188.97 851.5,-188.97 851.5,-169.97 735.5,-169.97"/>
<text text-anchor="middle" x="793.5" y="-176.97" font-family="Helvetica,sans-Serif" font-size="10.00">TMC2208Stepper::ms2</text>
</a>
</g>
</g>
<!-- Node4&#45;&gt;Node6 -->
<g id="edge5" class="edge"><title>Node4&#45;&gt;Node6</title>
<path fill="none" stroke="midnightblue" d="M676.17,-172.437C692.532,-173.426 709.531,-174.454 725.318,-175.408"/>
<polygon fill="midnightblue" stroke="midnightblue" points="725.305,-178.914 735.498,-176.024 725.727,-171.927 725.305,-178.914"/>
</g>
<!-- Node8 -->
<g id="node8" class="node"><title>Node8</title>
<g id="a_node8"><a xlink:href="../../d6/d7e/class_t_m_c2208_stepper.html#a129ceb04c3ea18e2c4ec1a59a51ece85" target="_top" xlink:title=" ">
<polygon fill="white" stroke="black" points="721,-131.97 721,-150.97 866,-150.97 866,-131.97 721,-131.97"/>
<text text-anchor="middle" x="793.5" y="-138.97" font-family="Helvetica,sans-Serif" font-size="10.00">TMC2208Stepper::serial_read</text>
</a>
</g>
</g>
<!-- Node4&#45;&gt;Node8 -->
<g id="edge8" class="edge"><title>Node4&#45;&gt;Node8</title>
<path fill="none" stroke="midnightblue" d="M666.787,-157.936C681.081,-156.064 696.166,-154.088 710.731,-152.18"/>
<polygon fill="midnightblue" stroke="midnightblue" points="711.256,-155.641 720.716,-150.872 710.346,-148.7 711.256,-155.641"/>
</g>
<!-- Node9 -->
<g id="node9" class="node"><title>Node9</title>
<g id="a_node9"><a xlink:href="../../d6/d7e/class_t_m_c2208_stepper.html#aa7f2c1a3a1cda9a328c186c6d7cbfe41" target="_top" xlink:title=" ">
<polygon fill="white" stroke="black" points="733,-82.4696 733,-112.47 854,-112.47 854,-82.4696 733,-82.4696"/>
<text text-anchor="start" x="741" y="-100.47" font-family="Helvetica,sans-Serif" font-size="10.00">TMC2208Stepper::serial</text>
<text text-anchor="middle" x="793.5" y="-89.4696" font-family="Helvetica,sans-Serif" font-size="10.00">_write</text>
</a>
</g>
</g>
<!-- Node4&#45;&gt;Node9 -->
<g id="edge9" class="edge"><title>Node4&#45;&gt;Node9</title>
<path fill="none" stroke="midnightblue" d="M657.251,-157.863C666.759,-155.397 676.289,-152.315 685,-148.47 703.056,-140.5 703.502,-131.6 721,-122.47 725.044,-120.36 729.305,-118.362 733.65,-116.486"/>
<polygon fill="midnightblue" stroke="midnightblue" points="735.304,-119.591 743.243,-112.575 732.662,-113.109 735.304,-119.591"/>
</g>
<!-- Node7 -->
<g id="node7" class="node"><title>Node7</title>
<g id="a_node7"><a xlink:href="../../d6/d7e/class_t_m_c2208_stepper.html#a5441dd87d0bcea4ffc309cb012166a57" target="_top" xlink:title=" ">
<polygon fill="white" stroke="black" points="902,-87.9696 902,-106.97 1018,-106.97 1018,-87.9696 902,-87.9696"/>
<text text-anchor="middle" x="960" y="-94.9696" font-family="Helvetica,sans-Serif" font-size="10.00">TMC2208Stepper::IOIN</text>
</a>
</g>
</g>
<!-- Node6&#45;&gt;Node7 -->
<g id="edge6" class="edge"><title>Node6&#45;&gt;Node7</title>
<path fill="none" stroke="midnightblue" d="M839.551,-169.968C848.507,-167.396 857.702,-164.251 866,-160.47 893.451,-147.961 921.683,-127.566 939.73,-113.383"/>
<polygon fill="midnightblue" stroke="midnightblue" points="942.106,-115.965 947.723,-106.982 937.73,-110.501 942.106,-115.965"/>
</g>
<!-- Node7&#45;&gt;Node3 -->
<g id="edge7" class="edge"><title>Node7&#45;&gt;Node3</title>
<path fill="none" stroke="midnightblue" d="M949.209,-87.8203C933.34,-72.9361 900.305,-44.9951 866,-34.4696 710.914,13.1145 657.13,9.56986 501,-34.4696 472.807,-42.4221 444.729,-61.5756 426.921,-75.4902"/>
<polygon fill="midnightblue" stroke="midnightblue" points="424.643,-72.8308 419.049,-81.8281 429.033,-78.2834 424.643,-72.8308"/>
</g>
<!-- Node13 -->
<g id="node13" class="node"><title>Node13</title>
<g id="a_node13"><a xlink:href="../../d9/d98/class_s_switch.html#a6ff09d0850d551571dc333fb74ff8628" target="_top" xlink:title=" ">
<polygon fill="white" stroke="black" points="752,-43.9696 752,-62.9696 835,-62.9696 835,-43.9696 752,-43.9696"/>
<text text-anchor="middle" x="793.5" y="-50.9696" font-family="Helvetica,sans-Serif" font-size="10.00">SSwitch::active</text>
</a>
</g>
</g>
<!-- Node12&#45;&gt;Node13 -->
<g id="edge13" class="edge"><title>Node12&#45;&gt;Node13</title>
<path fill="none" stroke="midnightblue" d="M682.51,-53.4696C702.828,-53.4696 723.753,-53.4696 741.826,-53.4696"/>
<polygon fill="midnightblue" stroke="midnightblue" points="741.83,-56.9697 751.83,-53.4696 741.83,-49.9697 741.83,-56.9697"/>
</g>
</g>
</svg>
