<?xml version="1.0" encoding="UTF-8" standalone="no"?>
<!DOCTYPE svg PUBLIC "-//W3C//DTD SVG 1.1//EN"
 "http://www.w3.org/Graphics/SVG/1.1/DTD/svg11.dtd">
<!-- Generated by graphviz version 2.38.0 (20140413.2041)
 -->
<!-- Title: TMC2208Stepper::IFCNT Pages: 1 -->
<svg width="838pt" height="235pt"
 viewBox="0.00 0.00 838.00 235.47" xmlns="http://www.w3.org/2000/svg" xmlns:xlink="http://www.w3.org/1999/xlink">
<g id="graph0" class="graph" transform="scale(1 1) rotate(0) translate(4 231.47)">
<title>TMC2208Stepper::IFCNT</title>
<polygon fill="white" stroke="none" points="-4,4 -4,-231.47 834,-231.47 834,4 -4,4"/>
<!-- Node1 -->
<g id="node1" class="node"><title>Node1</title>
<g id="a_node1"><a xlink:title=" ">
<polygon fill="#bfbfbf" stroke="black" points="0,-81.9696 0,-100.97 125,-100.97 125,-81.9696 0,-81.9696"/>
<text text-anchor="middle" x="62.5" y="-88.9696" font-family="Helvetica,sans-Serif" font-size="10.00">TMC2208Stepper::IFCNT</text>
</a>
</g>
</g>
<!-- Node2 -->
<g id="node2" class="node"><title>Node2</title>
<g id="a_node2"><a xlink:href="../../d6/d7e/class_t_m_c2208_stepper.html#a2fae2050849c3ab7968012def8ea1cc5" target="_top" xlink:title=" ">
<polygon fill="white" stroke="black" points="161,-81.9696 161,-100.97 277,-100.97 277,-81.9696 161,-81.9696"/>
<text text-anchor="middle" x="219" y="-88.9696" font-family="Helvetica,sans-Serif" font-size="10.00">TMC2208Stepper::read</text>
</a>
</g>
</g>
<!-- Node1&#45;&gt;Node2 -->
<g id="edge1" class="edge"><title>Node1&#45;&gt;Node2</title>
<path fill="none" stroke="midnightblue" d="M125.006,-91.4696C133.382,-91.4696 142.015,-91.4696 150.49,-91.4696"/>
<polygon fill="midnightblue" stroke="midnightblue" points="150.72,-94.9697 160.72,-91.4696 150.72,-87.9697 150.72,-94.9697"/>
</g>
<!-- Node3 -->
<g id="node3" class="node"><title>Node3</title>
<g id="a_node3"><a xlink:href="../../d6/d7e/class_t_m_c2208_stepper.html#a321ad81155b7a20c0858920d32d0b074" target="_top" xlink:title=" ">
<polygon fill="white" stroke="black" points="322,-157.97 322,-176.97 488,-176.97 488,-157.97 322,-157.97"/>
<text text-anchor="middle" x="405" y="-164.97" font-family="Helvetica,sans-Serif" font-size="10.00">TMC2208Stepper::_sendDatagram</text>
</a>
</g>
</g>
<!-- Node2&#45;&gt;Node3 -->
<g id="edge2" class="edge"><title>Node2&#45;&gt;Node3</title>
<path fill="none" stroke="midnightblue" d="M232.494,-101.088C249.681,-113.843 282.022,-136.174 313,-148.47 319.6,-151.089 326.62,-153.37 333.72,-155.35"/>
<polygon fill="midnightblue" stroke="midnightblue" points="332.861,-158.743 343.42,-157.869 334.62,-151.968 332.861,-158.743"/>
</g>
<!-- Node9 -->
<g id="node9" class="node"><title>Node9</title>
<g id="a_node9"><a xlink:href="../../d6/d7e/class_t_m_c2208_stepper.html#a409c19fa6b052a370a317d061bf9af4e" target="_top" xlink:title=" ">
<polygon fill="white" stroke="black" points="337,-119.97 337,-138.97 473,-138.97 473,-119.97 337,-119.97"/>
<text text-anchor="middle" x="405" y="-126.97" font-family="Helvetica,sans-Serif" font-size="10.00">TMC2208Stepper::calcCRC</text>
</a>
</g>
</g>
<!-- Node2&#45;&gt;Node9 -->
<g id="edge9" class="edge"><title>Node2&#45;&gt;Node9</title>
<path fill="none" stroke="midnightblue" d="M266.431,-101.059C291.149,-106.163 321.739,-112.481 347.792,-117.861"/>
<polygon fill="midnightblue" stroke="midnightblue" points="347.402,-121.355 357.903,-119.95 348.817,-114.499 347.402,-121.355"/>
</g>
<!-- Node10 -->
<g id="node10" class="node"><title>Node10</title>
<g id="a_node10"><a xlink:href="../../d6/d7e/class_t_m_c2208_stepper.html#a673ade174158b47e3b345b1d7b3c473d" target="_top" xlink:title=" ">
<polygon fill="white" stroke="black" points="313,-81.9696 313,-100.97 497,-100.97 497,-81.9696 313,-81.9696"/>
<text text-anchor="middle" x="405" y="-88.9696" font-family="Helvetica,sans-Serif" font-size="10.00">TMC2208Stepper::postCommunication</text>
</a>
</g>
</g>
<!-- Node2&#45;&gt;Node10 -->
<g id="edge10" class="edge"><title>Node2&#45;&gt;Node10</title>
<path fill="none" stroke="midnightblue" d="M277.21,-91.4696C285.323,-91.4696 293.86,-91.4696 302.51,-91.4696"/>
<polygon fill="midnightblue" stroke="midnightblue" points="302.697,-94.9697 312.697,-91.4696 302.697,-87.9697 302.697,-94.9697"/>
</g>
<!-- Node11 -->
<g id="node11" class="node"><title>Node11</title>
<g id="a_node11"><a xlink:href="../../d6/d7e/class_t_m_c2208_stepper.html#a0ba01db6c4c01da7cb0ace8a524ab1da" target="_top" xlink:title=" ">
<polygon fill="white" stroke="black" points="315.5,-43.9696 315.5,-62.9696 494.5,-62.9696 494.5,-43.9696 315.5,-43.9696"/>
<text text-anchor="middle" x="405" y="-50.9696" font-family="Helvetica,sans-Serif" font-size="10.00">TMC2208Stepper::preCommunication</text>
</a>
</g>
</g>
<!-- Node2&#45;&gt;Node11 -->
<g id="edge11" class="edge"><title>Node2&#45;&gt;Node11</title>
<path fill="none" stroke="midnightblue" d="M266.431,-81.8806C291.149,-76.7758 321.739,-70.4583 347.792,-65.0778"/>
<polygon fill="midnightblue" stroke="midnightblue" points="348.817,-68.44 357.903,-62.9897 347.402,-61.5846 348.817,-68.44"/>
</g>
<!-- Node4 -->
<g id="node4" class="node"><title>Node4</title>
<g id="a_node4"><a xlink:href="../../d6/d7e/class_t_m_c2208_stepper.html#a7a670b15f45466f8d167a9b80fbf384f" target="_top" xlink:title=" ">
<polygon fill="white" stroke="black" points="538.5,-207.97 538.5,-226.97 672.5,-226.97 672.5,-207.97 538.5,-207.97"/>
<text text-anchor="middle" x="605.5" y="-214.97" font-family="Helvetica,sans-Serif" font-size="10.00">TMC2208Stepper::available</text>
</a>
</g>
</g>
<!-- Node3&#45;&gt;Node4 -->
<g id="edge3" class="edge"><title>Node3&#45;&gt;Node4</title>
<path fill="none" stroke="midnightblue" d="M443.804,-176.992C475.849,-185.064 521.983,-196.684 556.607,-205.406"/>
<polygon fill="midnightblue" stroke="midnightblue" points="555.948,-208.849 566.5,-207.898 557.657,-202.061 555.948,-208.849"/>
</g>
<!-- Node5 -->
<g id="node5" class="node"><title>Node5</title>
<g id="a_node5"><a xlink:href="../../d6/d7e/class_t_m_c2208_stepper.html#a4ec5d2b2f5a31259c7aba1f3208d63b8" target="_top" xlink:title=" ">
<polygon fill="white" stroke="black" points="547.5,-169.97 547.5,-188.97 663.5,-188.97 663.5,-169.97 547.5,-169.97"/>
<text text-anchor="middle" x="605.5" y="-176.97" font-family="Helvetica,sans-Serif" font-size="10.00">TMC2208Stepper::ms2</text>
</a>
</g>
</g>
<!-- Node3&#45;&gt;Node5 -->
<g id="edge4" class="edge"><title>Node3&#45;&gt;Node5</title>
<path fill="none" stroke="midnightblue" d="M488.17,-172.437C504.532,-173.426 521.531,-174.454 537.318,-175.408"/>
<polygon fill="midnightblue" stroke="midnightblue" points="537.305,-178.914 547.498,-176.024 537.727,-171.927 537.305,-178.914"/>
</g>
<!-- Node7 -->
<g id="node7" class="node"><title>Node7</title>
<g id="a_node7"><a xlink:href="../../d6/d7e/class_t_m_c2208_stepper.html#a129ceb04c3ea18e2c4ec1a59a51ece85" target="_top" xlink:title=" ">
<polygon fill="white" stroke="black" points="533,-131.97 533,-150.97 678,-150.97 678,-131.97 533,-131.97"/>
<text text-anchor="middle" x="605.5" y="-138.97" font-family="Helvetica,sans-Serif" font-size="10.00">TMC2208Stepper::serial_read</text>
</a>
</g>
</g>
<!-- Node3&#45;&gt;Node7 -->
<g id="edge7" class="edge"><title>Node3&#45;&gt;Node7</title>
<path fill="none" stroke="midnightblue" d="M478.787,-157.936C493.081,-156.064 508.166,-154.088 522.731,-152.18"/>
<polygon fill="midnightblue" stroke="midnightblue" points="523.256,-155.641 532.716,-150.872 522.346,-148.7 523.256,-155.641"/>
</g>
<!-- Node8 -->
<g id="node8" class="node"><title>Node8</title>
<g id="a_node8"><a xlink:href="../../d6/d7e/class_t_m_c2208_stepper.html#aa7f2c1a3a1cda9a328c186c6d7cbfe41" target="_top" xlink:title=" ">
<polygon fill="white" stroke="black" points="545,-82.4696 545,-112.47 666,-112.47 666,-82.4696 545,-82.4696"/>
<text text-anchor="start" x="553" y="-100.47" font-family="Helvetica,sans-Serif" font-size="10.00">TMC2208Stepper::serial</text>
<text text-anchor="middle" x="605.5" y="-89.4696" font-family="Helvetica,sans-Serif" font-size="10.00">_write</text>
</a>
</g>
</g>
<!-- Node3&#45;&gt;Node8 -->
<g id="edge8" class="edge"><title>Node3&#45;&gt;Node8</title>
<path fill="none" stroke="midnightblue" d="M469.251,-157.863C478.759,-155.397 488.289,-152.315 497,-148.47 515.056,-140.5 515.502,-131.6 533,-122.47 537.044,-120.36 541.305,-118.362 545.65,-116.486"/>
<polygon fill="midnightblue" stroke="midnightblue" points="547.304,-119.591 555.243,-112.575 544.662,-113.109 547.304,-119.591"/>
</g>
<!-- Node6 -->
<g id="node6" class="node"><title>Node6</title>
<g id="a_node6"><a xlink:href="../../d6/d7e/class_t_m_c2208_stepper.html#a5441dd87d0bcea4ffc309cb012166a57" target="_top" xlink:title=" ">
<polygon fill="white" stroke="black" points="714,-87.9696 714,-106.97 830,-106.97 830,-87.9696 714,-87.9696"/>
<text text-anchor="middle" x="772" y="-94.9696" font-family="Helvetica,sans-Serif" font-size="10.00">TMC2208Stepper::IOIN</text>
</a>
</g>
</g>
<!-- Node5&#45;&gt;Node6 -->
<g id="edge5" class="edge"><title>Node5&#45;&gt;Node6</title>
<path fill="none" stroke="midnightblue" d="M651.551,-169.968C660.507,-167.396 669.702,-164.251 678,-160.47 705.451,-147.961 733.683,-127.566 751.73,-113.383"/>
<polygon fill="midnightblue" stroke="midnightblue" points="754.106,-115.965 759.723,-106.982 749.73,-110.501 754.106,-115.965"/>
</g>
<!-- Node6&#45;&gt;Node2 -->
<g id="edge6" class="edge"><title>Node6&#45;&gt;Node2</title>
<path fill="none" stroke="midnightblue" d="M761.209,-87.8203C745.34,-72.9361 712.305,-44.9951 678,-34.4696 522.914,13.1145 469.13,9.56986 313,-34.4696 284.807,-42.4221 256.729,-61.5756 238.921,-75.4902"/>
<polygon fill="midnightblue" stroke="midnightblue" points="236.643,-72.8308 231.049,-81.8281 241.033,-78.2834 236.643,-72.8308"/>
</g>
<!-- Node12 -->
<g id="node12" class="node"><title>Node12</title>
<g id="a_node12"><a xlink:href="../../d9/d98/class_s_switch.html#a6ff09d0850d551571dc333fb74ff8628" target="_top" xlink:title=" ">
<polygon fill="white" stroke="black" points="564,-43.9696 564,-62.9696 647,-62.9696 647,-43.9696 564,-43.9696"/>
<text text-anchor="middle" x="605.5" y="-50.9696" font-family="Helvetica,sans-Serif" font-size="10.00">SSwitch::active</text>
</a>
</g>
</g>
<!-- Node11&#45;&gt;Node12 -->
<g id="edge12" class="edge"><title>Node11&#45;&gt;Node12</title>
<path fill="none" stroke="midnightblue" d="M494.51,-53.4696C514.828,-53.4696 535.753,-53.4696 553.826,-53.4696"/>
<polygon fill="midnightblue" stroke="midnightblue" points="553.83,-56.9697 563.83,-53.4696 553.83,-49.9697 553.83,-56.9697"/>
</g>
</g>
</svg>
