<?xml version="1.0" encoding="UTF-8" standalone="no"?>
<!DOCTYPE svg PUBLIC "-//W3C//DTD SVG 1.1//EN"
 "http://www.w3.org/Graphics/SVG/1.1/DTD/svg11.dtd">
<!-- Generated by graphviz version 2.38.0 (20140413.2041)
 -->
<!-- Title: TMC2208Stepper::toff Pages: 1 -->
<svg width="1157pt" height="235pt"
 viewBox="0.00 0.00 1157.00 235.47" xmlns="http://www.w3.org/2000/svg" xmlns:xlink="http://www.w3.org/1999/xlink">
<g id="graph0" class="graph" transform="scale(1 1) rotate(0) translate(4 231.47)">
<title>TMC2208Stepper::toff</title>
<polygon fill="white" stroke="none" points="-4,4 -4,-231.47 1153,-231.47 1153,4 -4,4"/>
<!-- Node1 -->
<g id="node1" class="node"><title>Node1</title>
<g id="a_node1"><a xlink:title=" ">
<polygon fill="#bfbfbf" stroke="black" points="0,-81.9696 0,-100.97 110,-100.97 110,-81.9696 0,-81.9696"/>
<text text-anchor="middle" x="55" y="-88.9696" font-family="Helvetica,sans-Serif" font-size="10.00">TMC2208Stepper::toff</text>
</a>
</g>
</g>
<!-- Node2 -->
<g id="node2" class="node"><title>Node2</title>
<g id="a_node2"><a xlink:href="../../d6/d7e/class_t_m_c2208_stepper.html#aad3790e8c9040b5b4770ee65ed06b1ed" target="_top" xlink:title=" ">
<polygon fill="white" stroke="black" points="146,-81.9696 146,-100.97 256,-100.97 256,-81.9696 146,-81.9696"/>
<text text-anchor="middle" x="201" y="-88.9696" font-family="Helvetica,sans-Serif" font-size="10.00">TMC2208Stepper::toff</text>
</a>
</g>
</g>
<!-- Node1&#45;&gt;Node2 -->
<g id="edge1" class="edge"><title>Node1&#45;&gt;Node2</title>
<path fill="none" stroke="midnightblue" d="M110.03,-91.4696C118.314,-91.4696 126.936,-91.4696 135.42,-91.4696"/>
<polygon fill="midnightblue" stroke="midnightblue" points="135.667,-94.9697 145.667,-91.4696 135.667,-87.9697 135.667,-94.9697"/>
</g>
<!-- Node3 -->
<g id="node3" class="node"><title>Node3</title>
<g id="a_node3"><a xlink:href="../../d6/d7e/class_t_m_c2208_stepper.html#aa11281f54c293f3ff2539b1a583682a9" target="_top" xlink:title=" ">
<polygon fill="white" stroke="black" points="292,-81.9696 292,-100.97 444,-100.97 444,-81.9696 292,-81.9696"/>
<text text-anchor="middle" x="368" y="-88.9696" font-family="Helvetica,sans-Serif" font-size="10.00">TMC2208Stepper::CHOPCONF</text>
</a>
</g>
</g>
<!-- Node2&#45;&gt;Node3 -->
<g id="edge2" class="edge"><title>Node2&#45;&gt;Node3</title>
<path fill="none" stroke="midnightblue" d="M256.027,-91.4696C264.269,-91.4696 272.942,-91.4696 281.658,-91.4696"/>
<polygon fill="midnightblue" stroke="midnightblue" points="281.886,-94.9697 291.886,-91.4696 281.886,-87.9697 281.886,-94.9697"/>
</g>
<!-- Node4 -->
<g id="node4" class="node"><title>Node4</title>
<g id="a_node4"><a xlink:href="../../d6/d7e/class_t_m_c2208_stepper.html#a2fae2050849c3ab7968012def8ea1cc5" target="_top" xlink:title=" ">
<polygon fill="white" stroke="black" points="480,-81.9696 480,-100.97 596,-100.97 596,-81.9696 480,-81.9696"/>
<text text-anchor="middle" x="538" y="-88.9696" font-family="Helvetica,sans-Serif" font-size="10.00">TMC2208Stepper::read</text>
</a>
</g>
</g>
<!-- Node3&#45;&gt;Node4 -->
<g id="edge3" class="edge"><title>Node3&#45;&gt;Node4</title>
<path fill="none" stroke="midnightblue" d="M444.155,-91.4696C452.664,-91.4696 461.296,-91.4696 469.696,-91.4696"/>
<polygon fill="midnightblue" stroke="midnightblue" points="469.802,-94.9697 479.802,-91.4696 469.802,-87.9697 469.802,-94.9697"/>
</g>
<!-- Node5 -->
<g id="node5" class="node"><title>Node5</title>
<g id="a_node5"><a xlink:href="../../d6/d7e/class_t_m_c2208_stepper.html#a321ad81155b7a20c0858920d32d0b074" target="_top" xlink:title=" ">
<polygon fill="white" stroke="black" points="641,-157.97 641,-176.97 807,-176.97 807,-157.97 641,-157.97"/>
<text text-anchor="middle" x="724" y="-164.97" font-family="Helvetica,sans-Serif" font-size="10.00">TMC2208Stepper::_sendDatagram</text>
</a>
</g>
</g>
<!-- Node4&#45;&gt;Node5 -->
<g id="edge4" class="edge"><title>Node4&#45;&gt;Node5</title>
<path fill="none" stroke="midnightblue" d="M551.494,-101.088C568.681,-113.843 601.022,-136.174 632,-148.47 638.6,-151.089 645.62,-153.37 652.72,-155.35"/>
<polygon fill="midnightblue" stroke="midnightblue" points="651.861,-158.743 662.42,-157.869 653.62,-151.968 651.861,-158.743"/>
</g>
<!-- Node11 -->
<g id="node11" class="node"><title>Node11</title>
<g id="a_node11"><a xlink:href="../../d6/d7e/class_t_m_c2208_stepper.html#a409c19fa6b052a370a317d061bf9af4e" target="_top" xlink:title=" ">
<polygon fill="white" stroke="black" points="656,-119.97 656,-138.97 792,-138.97 792,-119.97 656,-119.97"/>
<text text-anchor="middle" x="724" y="-126.97" font-family="Helvetica,sans-Serif" font-size="10.00">TMC2208Stepper::calcCRC</text>
</a>
</g>
</g>
<!-- Node4&#45;&gt;Node11 -->
<g id="edge11" class="edge"><title>Node4&#45;&gt;Node11</title>
<path fill="none" stroke="midnightblue" d="M585.431,-101.059C610.149,-106.163 640.739,-112.481 666.792,-117.861"/>
<polygon fill="midnightblue" stroke="midnightblue" points="666.402,-121.355 676.903,-119.95 667.817,-114.499 666.402,-121.355"/>
</g>
<!-- Node12 -->
<g id="node12" class="node"><title>Node12</title>
<g id="a_node12"><a xlink:href="../../d6/d7e/class_t_m_c2208_stepper.html#a673ade174158b47e3b345b1d7b3c473d" target="_top" xlink:title=" ">
<polygon fill="white" stroke="black" points="632,-81.9696 632,-100.97 816,-100.97 816,-81.9696 632,-81.9696"/>
<text text-anchor="middle" x="724" y="-88.9696" font-family="Helvetica,sans-Serif" font-size="10.00">TMC2208Stepper::postCommunication</text>
</a>
</g>
</g>
<!-- Node4&#45;&gt;Node12 -->
<g id="edge12" class="edge"><title>Node4&#45;&gt;Node12</title>
<path fill="none" stroke="midnightblue" d="M596.21,-91.4696C604.323,-91.4696 612.86,-91.4696 621.51,-91.4696"/>
<polygon fill="midnightblue" stroke="midnightblue" points="621.697,-94.9697 631.697,-91.4696 621.697,-87.9697 621.697,-94.9697"/>
</g>
<!-- Node13 -->
<g id="node13" class="node"><title>Node13</title>
<g id="a_node13"><a xlink:href="../../d6/d7e/class_t_m_c2208_stepper.html#a0ba01db6c4c01da7cb0ace8a524ab1da" target="_top" xlink:title=" ">
<polygon fill="white" stroke="black" points="634.5,-43.9696 634.5,-62.9696 813.5,-62.9696 813.5,-43.9696 634.5,-43.9696"/>
<text text-anchor="middle" x="724" y="-50.9696" font-family="Helvetica,sans-Serif" font-size="10.00">TMC2208Stepper::preCommunication</text>
</a>
</g>
</g>
<!-- Node4&#45;&gt;Node13 -->
<g id="edge13" class="edge"><title>Node4&#45;&gt;Node13</title>
<path fill="none" stroke="midnightblue" d="M585.431,-81.8806C610.149,-76.7758 640.739,-70.4583 666.792,-65.0778"/>
<polygon fill="midnightblue" stroke="midnightblue" points="667.817,-68.44 676.903,-62.9897 666.402,-61.5846 667.817,-68.44"/>
</g>
<!-- Node6 -->
<g id="node6" class="node"><title>Node6</title>
<g id="a_node6"><a xlink:href="../../d6/d7e/class_t_m_c2208_stepper.html#a7a670b15f45466f8d167a9b80fbf384f" target="_top" xlink:title=" ">
<polygon fill="white" stroke="black" points="857.5,-207.97 857.5,-226.97 991.5,-226.97 991.5,-207.97 857.5,-207.97"/>
<text text-anchor="middle" x="924.5" y="-214.97" font-family="Helvetica,sans-Serif" font-size="10.00">TMC2208Stepper::available</text>
</a>
</g>
</g>
<!-- Node5&#45;&gt;Node6 -->
<g id="edge5" class="edge"><title>Node5&#45;&gt;Node6</title>
<path fill="none" stroke="midnightblue" d="M762.804,-176.992C794.849,-185.064 840.983,-196.684 875.607,-205.406"/>
<polygon fill="midnightblue" stroke="midnightblue" points="874.948,-208.849 885.5,-207.898 876.657,-202.061 874.948,-208.849"/>
</g>
<!-- Node7 -->
<g id="node7" class="node"><title>Node7</title>
<g id="a_node7"><a xlink:href="../../d6/d7e/class_t_m_c2208_stepper.html#a4ec5d2b2f5a31259c7aba1f3208d63b8" target="_top" xlink:title=" ">
<polygon fill="white" stroke="black" points="866.5,-169.97 866.5,-188.97 982.5,-188.97 982.5,-169.97 866.5,-169.97"/>
<text text-anchor="middle" x="924.5" y="-176.97" font-family="Helvetica,sans-Serif" font-size="10.00">TMC2208Stepper::ms2</text>
</a>
</g>
</g>
<!-- Node5&#45;&gt;Node7 -->
<g id="edge6" class="edge"><title>Node5&#45;&gt;Node7</title>
<path fill="none" stroke="midnightblue" d="M807.17,-172.437C823.532,-173.426 840.531,-174.454 856.318,-175.408"/>
<polygon fill="midnightblue" stroke="midnightblue" points="856.305,-178.914 866.498,-176.024 856.727,-171.927 856.305,-178.914"/>
</g>
<!-- Node9 -->
<g id="node9" class="node"><title>Node9</title>
<g id="a_node9"><a xlink:href="../../d6/d7e/class_t_m_c2208_stepper.html#a129ceb04c3ea18e2c4ec1a59a51ece85" target="_top" xlink:title=" ">
<polygon fill="white" stroke="black" points="852,-131.97 852,-150.97 997,-150.97 997,-131.97 852,-131.97"/>
<text text-anchor="middle" x="924.5" y="-138.97" font-family="Helvetica,sans-Serif" font-size="10.00">TMC2208Stepper::serial_read</text>
</a>
</g>
</g>
<!-- Node5&#45;&gt;Node9 -->
<g id="edge9" class="edge"><title>Node5&#45;&gt;Node9</title>
<path fill="none" stroke="midnightblue" d="M797.787,-157.936C812.081,-156.064 827.166,-154.088 841.731,-152.18"/>
<polygon fill="midnightblue" stroke="midnightblue" points="842.256,-155.641 851.716,-150.872 841.346,-148.7 842.256,-155.641"/>
</g>
<!-- Node10 -->
<g id="node10" class="node"><title>Node10</title>
<g id="a_node10"><a xlink:href="../../d6/d7e/class_t_m_c2208_stepper.html#aa7f2c1a3a1cda9a328c186c6d7cbfe41" target="_top" xlink:title=" ">
<polygon fill="white" stroke="black" points="864,-82.4696 864,-112.47 985,-112.47 985,-82.4696 864,-82.4696"/>
<text text-anchor="start" x="872" y="-100.47" font-family="Helvetica,sans-Serif" font-size="10.00">TMC2208Stepper::serial</text>
<text text-anchor="middle" x="924.5" y="-89.4696" font-family="Helvetica,sans-Serif" font-size="10.00">_write</text>
</a>
</g>
</g>
<!-- Node5&#45;&gt;Node10 -->
<g id="edge10" class="edge"><title>Node5&#45;&gt;Node10</title>
<path fill="none" stroke="midnightblue" d="M788.251,-157.863C797.759,-155.397 807.289,-152.315 816,-148.47 834.056,-140.5 834.502,-131.6 852,-122.47 856.044,-120.36 860.305,-118.362 864.65,-116.486"/>
<polygon fill="midnightblue" stroke="midnightblue" points="866.304,-119.591 874.243,-112.575 863.662,-113.109 866.304,-119.591"/>
</g>
<!-- Node8 -->
<g id="node8" class="node"><title>Node8</title>
<g id="a_node8"><a xlink:href="../../d6/d7e/class_t_m_c2208_stepper.html#a5441dd87d0bcea4ffc309cb012166a57" target="_top" xlink:title=" ">
<polygon fill="white" stroke="black" points="1033,-87.9696 1033,-106.97 1149,-106.97 1149,-87.9696 1033,-87.9696"/>
<text text-anchor="middle" x="1091" y="-94.9696" font-family="Helvetica,sans-Serif" font-size="10.00">TMC2208Stepper::IOIN</text>
</a>
</g>
</g>
<!-- Node7&#45;&gt;Node8 -->
<g id="edge7" class="edge"><title>Node7&#45;&gt;Node8</title>
<path fill="none" stroke="midnightblue" d="M970.551,-169.968C979.507,-167.396 988.702,-164.251 997,-160.47 1024.45,-147.961 1052.68,-127.566 1070.73,-113.383"/>
<polygon fill="midnightblue" stroke="midnightblue" points="1073.11,-115.965 1078.72,-106.982 1068.73,-110.501 1073.11,-115.965"/>
</g>
<!-- Node8&#45;&gt;Node4 -->
<g id="edge8" class="edge"><title>Node8&#45;&gt;Node4</title>
<path fill="none" stroke="midnightblue" d="M1080.21,-87.8203C1064.34,-72.9361 1031.3,-44.9951 997,-34.4696 841.914,13.1145 788.13,9.56986 632,-34.4696 603.807,-42.4221 575.729,-61.5756 557.921,-75.4902"/>
<polygon fill="midnightblue" stroke="midnightblue" points="555.643,-72.8308 550.049,-81.8281 560.033,-78.2834 555.643,-72.8308"/>
</g>
<!-- Node14 -->
<g id="node14" class="node"><title>Node14</title>
<g id="a_node14"><a xlink:href="../../d9/d98/class_s_switch.html#a6ff09d0850d551571dc333fb74ff8628" target="_top" xlink:title=" ">
<polygon fill="white" stroke="black" points="883,-43.9696 883,-62.9696 966,-62.9696 966,-43.9696 883,-43.9696"/>
<text text-anchor="middle" x="924.5" y="-50.9696" font-family="Helvetica,sans-Serif" font-size="10.00">SSwitch::active</text>
</a>
</g>
</g>
<!-- Node13&#45;&gt;Node14 -->
<g id="edge14" class="edge"><title>Node13&#45;&gt;Node14</title>
<path fill="none" stroke="midnightblue" d="M813.51,-53.4696C833.828,-53.4696 854.753,-53.4696 872.826,-53.4696"/>
<polygon fill="midnightblue" stroke="midnightblue" points="872.83,-56.9697 882.83,-53.4696 872.83,-49.9697 872.83,-56.9697"/>
</g>
</g>
</svg>
