<?xml version="1.0" encoding="UTF-8" standalone="no"?>
<!DOCTYPE svg PUBLIC "-//W3C//DTD SVG 1.1//EN"
 "http://www.w3.org/Graphics/SVG/1.1/DTD/svg11.dtd">
<!-- Generated by graphviz version 2.38.0 (20140413.2041)
 -->
<!-- Title: TMC2208Stepper::mstep_reg_select Pages: 1 -->
<svg width="1006pt" height="235pt"
 viewBox="0.00 0.00 1006.00 235.47" xmlns="http://www.w3.org/2000/svg" xmlns:xlink="http://www.w3.org/1999/xlink">
<g id="graph0" class="graph" transform="scale(1 1) rotate(0) translate(4 231.47)">
<title>TMC2208Stepper::mstep_reg_select</title>
<polygon fill="white" stroke="none" points="-4,4 -4,-231.47 1002,-231.47 1002,4 -4,4"/>
<!-- Node1 -->
<g id="node1" class="node"><title>Node1</title>
<g id="a_node1"><a xlink:title=" ">
<polygon fill="#bfbfbf" stroke="black" points="0,-76.4696 0,-106.47 125,-106.47 125,-76.4696 0,-76.4696"/>
<text text-anchor="start" x="8" y="-94.4696" font-family="Helvetica,sans-Serif" font-size="10.00">TMC2208Stepper::mstep</text>
<text text-anchor="middle" x="62.5" y="-83.4696" font-family="Helvetica,sans-Serif" font-size="10.00">_reg_select</text>
</a>
</g>
</g>
<!-- Node2 -->
<g id="node2" class="node"><title>Node2</title>
<g id="a_node2"><a xlink:href="../../d6/d7e/class_t_m_c2208_stepper.html#a549db4f962d4ae698dda33ef9a708e33" target="_top" xlink:title=" ">
<polygon fill="white" stroke="black" points="161,-81.9696 161,-100.97 293,-100.97 293,-81.9696 161,-81.9696"/>
<text text-anchor="middle" x="227" y="-88.9696" font-family="Helvetica,sans-Serif" font-size="10.00">TMC2208Stepper::GCONF</text>
</a>
</g>
</g>
<!-- Node1&#45;&gt;Node2 -->
<g id="edge1" class="edge"><title>Node1&#45;&gt;Node2</title>
<path fill="none" stroke="midnightblue" d="M125.398,-91.4696C133.624,-91.4696 142.13,-91.4696 150.553,-91.4696"/>
<polygon fill="midnightblue" stroke="midnightblue" points="150.762,-94.9697 160.762,-91.4696 150.762,-87.9697 150.762,-94.9697"/>
</g>
<!-- Node3 -->
<g id="node3" class="node"><title>Node3</title>
<g id="a_node3"><a xlink:href="../../d6/d7e/class_t_m_c2208_stepper.html#a2fae2050849c3ab7968012def8ea1cc5" target="_top" xlink:title=" ">
<polygon fill="white" stroke="black" points="329,-81.9696 329,-100.97 445,-100.97 445,-81.9696 329,-81.9696"/>
<text text-anchor="middle" x="387" y="-88.9696" font-family="Helvetica,sans-Serif" font-size="10.00">TMC2208Stepper::read</text>
</a>
</g>
</g>
<!-- Node2&#45;&gt;Node3 -->
<g id="edge2" class="edge"><title>Node2&#45;&gt;Node3</title>
<path fill="none" stroke="midnightblue" d="M293.177,-91.4696C301.517,-91.4696 310.069,-91.4696 318.445,-91.4696"/>
<polygon fill="midnightblue" stroke="midnightblue" points="318.55,-94.9697 328.55,-91.4696 318.55,-87.9697 318.55,-94.9697"/>
</g>
<!-- Node4 -->
<g id="node4" class="node"><title>Node4</title>
<g id="a_node4"><a xlink:href="../../d6/d7e/class_t_m_c2208_stepper.html#a321ad81155b7a20c0858920d32d0b074" target="_top" xlink:title=" ">
<polygon fill="white" stroke="black" points="490,-157.97 490,-176.97 656,-176.97 656,-157.97 490,-157.97"/>
<text text-anchor="middle" x="573" y="-164.97" font-family="Helvetica,sans-Serif" font-size="10.00">TMC2208Stepper::_sendDatagram</text>
</a>
</g>
</g>
<!-- Node3&#45;&gt;Node4 -->
<g id="edge3" class="edge"><title>Node3&#45;&gt;Node4</title>
<path fill="none" stroke="midnightblue" d="M400.494,-101.088C417.681,-113.843 450.022,-136.174 481,-148.47 487.6,-151.089 494.62,-153.37 501.72,-155.35"/>
<polygon fill="midnightblue" stroke="midnightblue" points="500.861,-158.743 511.42,-157.869 502.62,-151.968 500.861,-158.743"/>
</g>
<!-- Node10 -->
<g id="node10" class="node"><title>Node10</title>
<g id="a_node10"><a xlink:href="../../d6/d7e/class_t_m_c2208_stepper.html#a409c19fa6b052a370a317d061bf9af4e" target="_top" xlink:title=" ">
<polygon fill="white" stroke="black" points="505,-119.97 505,-138.97 641,-138.97 641,-119.97 505,-119.97"/>
<text text-anchor="middle" x="573" y="-126.97" font-family="Helvetica,sans-Serif" font-size="10.00">TMC2208Stepper::calcCRC</text>
</a>
</g>
</g>
<!-- Node3&#45;&gt;Node10 -->
<g id="edge10" class="edge"><title>Node3&#45;&gt;Node10</title>
<path fill="none" stroke="midnightblue" d="M434.431,-101.059C459.149,-106.163 489.739,-112.481 515.792,-117.861"/>
<polygon fill="midnightblue" stroke="midnightblue" points="515.402,-121.355 525.903,-119.95 516.817,-114.499 515.402,-121.355"/>
</g>
<!-- Node11 -->
<g id="node11" class="node"><title>Node11</title>
<g id="a_node11"><a xlink:href="../../d6/d7e/class_t_m_c2208_stepper.html#a673ade174158b47e3b345b1d7b3c473d" target="_top" xlink:title=" ">
<polygon fill="white" stroke="black" points="481,-81.9696 481,-100.97 665,-100.97 665,-81.9696 481,-81.9696"/>
<text text-anchor="middle" x="573" y="-88.9696" font-family="Helvetica,sans-Serif" font-size="10.00">TMC2208Stepper::postCommunication</text>
</a>
</g>
</g>
<!-- Node3&#45;&gt;Node11 -->
<g id="edge11" class="edge"><title>Node3&#45;&gt;Node11</title>
<path fill="none" stroke="midnightblue" d="M445.21,-91.4696C453.323,-91.4696 461.86,-91.4696 470.51,-91.4696"/>
<polygon fill="midnightblue" stroke="midnightblue" points="470.697,-94.9697 480.697,-91.4696 470.697,-87.9697 470.697,-94.9697"/>
</g>
<!-- Node12 -->
<g id="node12" class="node"><title>Node12</title>
<g id="a_node12"><a xlink:href="../../d6/d7e/class_t_m_c2208_stepper.html#a0ba01db6c4c01da7cb0ace8a524ab1da" target="_top" xlink:title=" ">
<polygon fill="white" stroke="black" points="483.5,-43.9696 483.5,-62.9696 662.5,-62.9696 662.5,-43.9696 483.5,-43.9696"/>
<text text-anchor="middle" x="573" y="-50.9696" font-family="Helvetica,sans-Serif" font-size="10.00">TMC2208Stepper::preCommunication</text>
</a>
</g>
</g>
<!-- Node3&#45;&gt;Node12 -->
<g id="edge12" class="edge"><title>Node3&#45;&gt;Node12</title>
<path fill="none" stroke="midnightblue" d="M434.431,-81.8806C459.149,-76.7758 489.739,-70.4583 515.792,-65.0778"/>
<polygon fill="midnightblue" stroke="midnightblue" points="516.817,-68.44 525.903,-62.9897 515.402,-61.5846 516.817,-68.44"/>
</g>
<!-- Node5 -->
<g id="node5" class="node"><title>Node5</title>
<g id="a_node5"><a xlink:href="../../d6/d7e/class_t_m_c2208_stepper.html#a7a670b15f45466f8d167a9b80fbf384f" target="_top" xlink:title=" ">
<polygon fill="white" stroke="black" points="706.5,-207.97 706.5,-226.97 840.5,-226.97 840.5,-207.97 706.5,-207.97"/>
<text text-anchor="middle" x="773.5" y="-214.97" font-family="Helvetica,sans-Serif" font-size="10.00">TMC2208Stepper::available</text>
</a>
</g>
</g>
<!-- Node4&#45;&gt;Node5 -->
<g id="edge4" class="edge"><title>Node4&#45;&gt;Node5</title>
<path fill="none" stroke="midnightblue" d="M611.804,-176.992C643.849,-185.064 689.983,-196.684 724.607,-205.406"/>
<polygon fill="midnightblue" stroke="midnightblue" points="723.948,-208.849 734.5,-207.898 725.657,-202.061 723.948,-208.849"/>
</g>
<!-- Node6 -->
<g id="node6" class="node"><title>Node6</title>
<g id="a_node6"><a xlink:href="../../d6/d7e/class_t_m_c2208_stepper.html#a4ec5d2b2f5a31259c7aba1f3208d63b8" target="_top" xlink:title=" ">
<polygon fill="white" stroke="black" points="715.5,-169.97 715.5,-188.97 831.5,-188.97 831.5,-169.97 715.5,-169.97"/>
<text text-anchor="middle" x="773.5" y="-176.97" font-family="Helvetica,sans-Serif" font-size="10.00">TMC2208Stepper::ms2</text>
</a>
</g>
</g>
<!-- Node4&#45;&gt;Node6 -->
<g id="edge5" class="edge"><title>Node4&#45;&gt;Node6</title>
<path fill="none" stroke="midnightblue" d="M656.17,-172.437C672.532,-173.426 689.531,-174.454 705.318,-175.408"/>
<polygon fill="midnightblue" stroke="midnightblue" points="705.305,-178.914 715.498,-176.024 705.727,-171.927 705.305,-178.914"/>
</g>
<!-- Node8 -->
<g id="node8" class="node"><title>Node8</title>
<g id="a_node8"><a xlink:href="../../d6/d7e/class_t_m_c2208_stepper.html#a129ceb04c3ea18e2c4ec1a59a51ece85" target="_top" xlink:title=" ">
<polygon fill="white" stroke="black" points="701,-131.97 701,-150.97 846,-150.97 846,-131.97 701,-131.97"/>
<text text-anchor="middle" x="773.5" y="-138.97" font-family="Helvetica,sans-Serif" font-size="10.00">TMC2208Stepper::serial_read</text>
</a>
</g>
</g>
<!-- Node4&#45;&gt;Node8 -->
<g id="edge8" class="edge"><title>Node4&#45;&gt;Node8</title>
<path fill="none" stroke="midnightblue" d="M646.787,-157.936C661.081,-156.064 676.166,-154.088 690.731,-152.18"/>
<polygon fill="midnightblue" stroke="midnightblue" points="691.256,-155.641 700.716,-150.872 690.346,-148.7 691.256,-155.641"/>
</g>
<!-- Node9 -->
<g id="node9" class="node"><title>Node9</title>
<g id="a_node9"><a xlink:href="../../d6/d7e/class_t_m_c2208_stepper.html#aa7f2c1a3a1cda9a328c186c6d7cbfe41" target="_top" xlink:title=" ">
<polygon fill="white" stroke="black" points="713,-82.4696 713,-112.47 834,-112.47 834,-82.4696 713,-82.4696"/>
<text text-anchor="start" x="721" y="-100.47" font-family="Helvetica,sans-Serif" font-size="10.00">TMC2208Stepper::serial</text>
<text text-anchor="middle" x="773.5" y="-89.4696" font-family="Helvetica,sans-Serif" font-size="10.00">_write</text>
</a>
</g>
</g>
<!-- Node4&#45;&gt;Node9 -->
<g id="edge9" class="edge"><title>Node4&#45;&gt;Node9</title>
<path fill="none" stroke="midnightblue" d="M637.251,-157.863C646.759,-155.397 656.289,-152.315 665,-148.47 683.056,-140.5 683.502,-131.6 701,-122.47 705.044,-120.36 709.305,-118.362 713.65,-116.486"/>
<polygon fill="midnightblue" stroke="midnightblue" points="715.304,-119.591 723.243,-112.575 712.662,-113.109 715.304,-119.591"/>
</g>
<!-- Node7 -->
<g id="node7" class="node"><title>Node7</title>
<g id="a_node7"><a xlink:href="../../d6/d7e/class_t_m_c2208_stepper.html#a5441dd87d0bcea4ffc309cb012166a57" target="_top" xlink:title=" ">
<polygon fill="white" stroke="black" points="882,-87.9696 882,-106.97 998,-106.97 998,-87.9696 882,-87.9696"/>
<text text-anchor="middle" x="940" y="-94.9696" font-family="Helvetica,sans-Serif" font-size="10.00">TMC2208Stepper::IOIN</text>
</a>
</g>
</g>
<!-- Node6&#45;&gt;Node7 -->
<g id="edge6" class="edge"><title>Node6&#45;&gt;Node7</title>
<path fill="none" stroke="midnightblue" d="M819.551,-169.968C828.507,-167.396 837.702,-164.251 846,-160.47 873.451,-147.961 901.683,-127.566 919.73,-113.383"/>
<polygon fill="midnightblue" stroke="midnightblue" points="922.106,-115.965 927.723,-106.982 917.73,-110.501 922.106,-115.965"/>
</g>
<!-- Node7&#45;&gt;Node3 -->
<g id="edge7" class="edge"><title>Node7&#45;&gt;Node3</title>
<path fill="none" stroke="midnightblue" d="M929.209,-87.8203C913.34,-72.9361 880.305,-44.9951 846,-34.4696 690.914,13.1145 637.13,9.56986 481,-34.4696 452.807,-42.4221 424.729,-61.5756 406.921,-75.4902"/>
<polygon fill="midnightblue" stroke="midnightblue" points="404.643,-72.8308 399.049,-81.8281 409.033,-78.2834 404.643,-72.8308"/>
</g>
<!-- Node13 -->
<g id="node13" class="node"><title>Node13</title>
<g id="a_node13"><a xlink:href="../../d9/d98/class_s_switch.html#a6ff09d0850d551571dc333fb74ff8628" target="_top" xlink:title=" ">
<polygon fill="white" stroke="black" points="732,-43.9696 732,-62.9696 815,-62.9696 815,-43.9696 732,-43.9696"/>
<text text-anchor="middle" x="773.5" y="-50.9696" font-family="Helvetica,sans-Serif" font-size="10.00">SSwitch::active</text>
</a>
</g>
</g>
<!-- Node12&#45;&gt;Node13 -->
<g id="edge13" class="edge"><title>Node12&#45;&gt;Node13</title>
<path fill="none" stroke="midnightblue" d="M662.51,-53.4696C682.828,-53.4696 703.753,-53.4696 721.826,-53.4696"/>
<polygon fill="midnightblue" stroke="midnightblue" points="721.83,-56.9697 731.83,-53.4696 721.83,-49.9697 721.83,-56.9697"/>
</g>
</g>
</svg>
