<?xml version="1.0" encoding="UTF-8" standalone="no"?>
<!DOCTYPE svg PUBLIC "-//W3C//DTD SVG 1.1//EN"
 "http://www.w3.org/Graphics/SVG/1.1/DTD/svg11.dtd">
<!-- Generated by graphviz version 2.38.0 (20140413.2041)
 -->
<!-- Title: TMC2208Stepper::hstrt Pages: 1 -->
<svg width="1171pt" height="235pt"
 viewBox="0.00 0.00 1171.00 235.47" xmlns="http://www.w3.org/2000/svg" xmlns:xlink="http://www.w3.org/1999/xlink">
<g id="graph0" class="graph" transform="scale(1 1) rotate(0) translate(4 231.47)">
<title>TMC2208Stepper::hstrt</title>
<polygon fill="white" stroke="none" points="-4,4 -4,-231.47 1167,-231.47 1167,4 -4,4"/>
<!-- Node1 -->
<g id="node1" class="node"><title>Node1</title>
<g id="a_node1"><a xlink:title=" ">
<polygon fill="#bfbfbf" stroke="black" points="0,-81.9696 0,-100.97 117,-100.97 117,-81.9696 0,-81.9696"/>
<text text-anchor="middle" x="58.5" y="-88.9696" font-family="Helvetica,sans-Serif" font-size="10.00">TMC2208Stepper::hstrt</text>
</a>
</g>
</g>
<!-- Node2 -->
<g id="node2" class="node"><title>Node2</title>
<g id="a_node2"><a xlink:href="../../d6/d7e/class_t_m_c2208_stepper.html#ae86e87a3b5882ac40c6f21348c6793ed" target="_top" xlink:title=" ">
<polygon fill="white" stroke="black" points="153,-81.9696 153,-100.97 270,-100.97 270,-81.9696 153,-81.9696"/>
<text text-anchor="middle" x="211.5" y="-88.9696" font-family="Helvetica,sans-Serif" font-size="10.00">TMC2208Stepper::hstrt</text>
</a>
</g>
</g>
<!-- Node1&#45;&gt;Node2 -->
<g id="edge1" class="edge"><title>Node1&#45;&gt;Node2</title>
<path fill="none" stroke="midnightblue" d="M117.017,-91.4696C125.464,-91.4696 134.229,-91.4696 142.856,-91.4696"/>
<polygon fill="midnightblue" stroke="midnightblue" points="142.893,-94.9697 152.893,-91.4696 142.892,-87.9697 142.893,-94.9697"/>
</g>
<!-- Node3 -->
<g id="node3" class="node"><title>Node3</title>
<g id="a_node3"><a xlink:href="../../d6/d7e/class_t_m_c2208_stepper.html#aa11281f54c293f3ff2539b1a583682a9" target="_top" xlink:title=" ">
<polygon fill="white" stroke="black" points="306,-81.9696 306,-100.97 458,-100.97 458,-81.9696 306,-81.9696"/>
<text text-anchor="middle" x="382" y="-88.9696" font-family="Helvetica,sans-Serif" font-size="10.00">TMC2208Stepper::CHOPCONF</text>
</a>
</g>
</g>
<!-- Node2&#45;&gt;Node3 -->
<g id="edge2" class="edge"><title>Node2&#45;&gt;Node3</title>
<path fill="none" stroke="midnightblue" d="M270.017,-91.4696C278.308,-91.4696 286.985,-91.4696 295.677,-91.4696"/>
<polygon fill="midnightblue" stroke="midnightblue" points="295.866,-94.9697 305.866,-91.4696 295.866,-87.9697 295.866,-94.9697"/>
</g>
<!-- Node4 -->
<g id="node4" class="node"><title>Node4</title>
<g id="a_node4"><a xlink:href="../../d6/d7e/class_t_m_c2208_stepper.html#a2fae2050849c3ab7968012def8ea1cc5" target="_top" xlink:title=" ">
<polygon fill="white" stroke="black" points="494,-81.9696 494,-100.97 610,-100.97 610,-81.9696 494,-81.9696"/>
<text text-anchor="middle" x="552" y="-88.9696" font-family="Helvetica,sans-Serif" font-size="10.00">TMC2208Stepper::read</text>
</a>
</g>
</g>
<!-- Node3&#45;&gt;Node4 -->
<g id="edge3" class="edge"><title>Node3&#45;&gt;Node4</title>
<path fill="none" stroke="midnightblue" d="M458.155,-91.4696C466.664,-91.4696 475.296,-91.4696 483.696,-91.4696"/>
<polygon fill="midnightblue" stroke="midnightblue" points="483.802,-94.9697 493.802,-91.4696 483.802,-87.9697 483.802,-94.9697"/>
</g>
<!-- Node5 -->
<g id="node5" class="node"><title>Node5</title>
<g id="a_node5"><a xlink:href="../../d6/d7e/class_t_m_c2208_stepper.html#a321ad81155b7a20c0858920d32d0b074" target="_top" xlink:title=" ">
<polygon fill="white" stroke="black" points="655,-157.97 655,-176.97 821,-176.97 821,-157.97 655,-157.97"/>
<text text-anchor="middle" x="738" y="-164.97" font-family="Helvetica,sans-Serif" font-size="10.00">TMC2208Stepper::_sendDatagram</text>
</a>
</g>
</g>
<!-- Node4&#45;&gt;Node5 -->
<g id="edge4" class="edge"><title>Node4&#45;&gt;Node5</title>
<path fill="none" stroke="midnightblue" d="M565.494,-101.088C582.681,-113.843 615.022,-136.174 646,-148.47 652.6,-151.089 659.62,-153.37 666.72,-155.35"/>
<polygon fill="midnightblue" stroke="midnightblue" points="665.861,-158.743 676.42,-157.869 667.62,-151.968 665.861,-158.743"/>
</g>
<!-- Node11 -->
<g id="node11" class="node"><title>Node11</title>
<g id="a_node11"><a xlink:href="../../d6/d7e/class_t_m_c2208_stepper.html#a409c19fa6b052a370a317d061bf9af4e" target="_top" xlink:title=" ">
<polygon fill="white" stroke="black" points="670,-119.97 670,-138.97 806,-138.97 806,-119.97 670,-119.97"/>
<text text-anchor="middle" x="738" y="-126.97" font-family="Helvetica,sans-Serif" font-size="10.00">TMC2208Stepper::calcCRC</text>
</a>
</g>
</g>
<!-- Node4&#45;&gt;Node11 -->
<g id="edge11" class="edge"><title>Node4&#45;&gt;Node11</title>
<path fill="none" stroke="midnightblue" d="M599.431,-101.059C624.149,-106.163 654.739,-112.481 680.792,-117.861"/>
<polygon fill="midnightblue" stroke="midnightblue" points="680.402,-121.355 690.903,-119.95 681.817,-114.499 680.402,-121.355"/>
</g>
<!-- Node12 -->
<g id="node12" class="node"><title>Node12</title>
<g id="a_node12"><a xlink:href="../../d6/d7e/class_t_m_c2208_stepper.html#a673ade174158b47e3b345b1d7b3c473d" target="_top" xlink:title=" ">
<polygon fill="white" stroke="black" points="646,-81.9696 646,-100.97 830,-100.97 830,-81.9696 646,-81.9696"/>
<text text-anchor="middle" x="738" y="-88.9696" font-family="Helvetica,sans-Serif" font-size="10.00">TMC2208Stepper::postCommunication</text>
</a>
</g>
</g>
<!-- Node4&#45;&gt;Node12 -->
<g id="edge12" class="edge"><title>Node4&#45;&gt;Node12</title>
<path fill="none" stroke="midnightblue" d="M610.21,-91.4696C618.323,-91.4696 626.86,-91.4696 635.51,-91.4696"/>
<polygon fill="midnightblue" stroke="midnightblue" points="635.697,-94.9697 645.697,-91.4696 635.697,-87.9697 635.697,-94.9697"/>
</g>
<!-- Node13 -->
<g id="node13" class="node"><title>Node13</title>
<g id="a_node13"><a xlink:href="../../d6/d7e/class_t_m_c2208_stepper.html#a0ba01db6c4c01da7cb0ace8a524ab1da" target="_top" xlink:title=" ">
<polygon fill="white" stroke="black" points="648.5,-43.9696 648.5,-62.9696 827.5,-62.9696 827.5,-43.9696 648.5,-43.9696"/>
<text text-anchor="middle" x="738" y="-50.9696" font-family="Helvetica,sans-Serif" font-size="10.00">TMC2208Stepper::preCommunication</text>
</a>
</g>
</g>
<!-- Node4&#45;&gt;Node13 -->
<g id="edge13" class="edge"><title>Node4&#45;&gt;Node13</title>
<path fill="none" stroke="midnightblue" d="M599.431,-81.8806C624.149,-76.7758 654.739,-70.4583 680.792,-65.0778"/>
<polygon fill="midnightblue" stroke="midnightblue" points="681.817,-68.44 690.903,-62.9897 680.402,-61.5846 681.817,-68.44"/>
</g>
<!-- Node6 -->
<g id="node6" class="node"><title>Node6</title>
<g id="a_node6"><a xlink:href="../../d6/d7e/class_t_m_c2208_stepper.html#a7a670b15f45466f8d167a9b80fbf384f" target="_top" xlink:title=" ">
<polygon fill="white" stroke="black" points="871.5,-207.97 871.5,-226.97 1005.5,-226.97 1005.5,-207.97 871.5,-207.97"/>
<text text-anchor="middle" x="938.5" y="-214.97" font-family="Helvetica,sans-Serif" font-size="10.00">TMC2208Stepper::available</text>
</a>
</g>
</g>
<!-- Node5&#45;&gt;Node6 -->
<g id="edge5" class="edge"><title>Node5&#45;&gt;Node6</title>
<path fill="none" stroke="midnightblue" d="M776.804,-176.992C808.849,-185.064 854.983,-196.684 889.607,-205.406"/>
<polygon fill="midnightblue" stroke="midnightblue" points="888.948,-208.849 899.5,-207.898 890.657,-202.061 888.948,-208.849"/>
</g>
<!-- Node7 -->
<g id="node7" class="node"><title>Node7</title>
<g id="a_node7"><a xlink:href="../../d6/d7e/class_t_m_c2208_stepper.html#a4ec5d2b2f5a31259c7aba1f3208d63b8" target="_top" xlink:title=" ">
<polygon fill="white" stroke="black" points="880.5,-169.97 880.5,-188.97 996.5,-188.97 996.5,-169.97 880.5,-169.97"/>
<text text-anchor="middle" x="938.5" y="-176.97" font-family="Helvetica,sans-Serif" font-size="10.00">TMC2208Stepper::ms2</text>
</a>
</g>
</g>
<!-- Node5&#45;&gt;Node7 -->
<g id="edge6" class="edge"><title>Node5&#45;&gt;Node7</title>
<path fill="none" stroke="midnightblue" d="M821.17,-172.437C837.532,-173.426 854.531,-174.454 870.318,-175.408"/>
<polygon fill="midnightblue" stroke="midnightblue" points="870.305,-178.914 880.498,-176.024 870.727,-171.927 870.305,-178.914"/>
</g>
<!-- Node9 -->
<g id="node9" class="node"><title>Node9</title>
<g id="a_node9"><a xlink:href="../../d6/d7e/class_t_m_c2208_stepper.html#a129ceb04c3ea18e2c4ec1a59a51ece85" target="_top" xlink:title=" ">
<polygon fill="white" stroke="black" points="866,-131.97 866,-150.97 1011,-150.97 1011,-131.97 866,-131.97"/>
<text text-anchor="middle" x="938.5" y="-138.97" font-family="Helvetica,sans-Serif" font-size="10.00">TMC2208Stepper::serial_read</text>
</a>
</g>
</g>
<!-- Node5&#45;&gt;Node9 -->
<g id="edge9" class="edge"><title>Node5&#45;&gt;Node9</title>
<path fill="none" stroke="midnightblue" d="M811.787,-157.936C826.081,-156.064 841.166,-154.088 855.731,-152.18"/>
<polygon fill="midnightblue" stroke="midnightblue" points="856.256,-155.641 865.716,-150.872 855.346,-148.7 856.256,-155.641"/>
</g>
<!-- Node10 -->
<g id="node10" class="node"><title>Node10</title>
<g id="a_node10"><a xlink:href="../../d6/d7e/class_t_m_c2208_stepper.html#aa7f2c1a3a1cda9a328c186c6d7cbfe41" target="_top" xlink:title=" ">
<polygon fill="white" stroke="black" points="878,-82.4696 878,-112.47 999,-112.47 999,-82.4696 878,-82.4696"/>
<text text-anchor="start" x="886" y="-100.47" font-family="Helvetica,sans-Serif" font-size="10.00">TMC2208Stepper::serial</text>
<text text-anchor="middle" x="938.5" y="-89.4696" font-family="Helvetica,sans-Serif" font-size="10.00">_write</text>
</a>
</g>
</g>
<!-- Node5&#45;&gt;Node10 -->
<g id="edge10" class="edge"><title>Node5&#45;&gt;Node10</title>
<path fill="none" stroke="midnightblue" d="M802.251,-157.863C811.759,-155.397 821.289,-152.315 830,-148.47 848.056,-140.5 848.502,-131.6 866,-122.47 870.044,-120.36 874.305,-118.362 878.65,-116.486"/>
<polygon fill="midnightblue" stroke="midnightblue" points="880.304,-119.591 888.243,-112.575 877.662,-113.109 880.304,-119.591"/>
</g>
<!-- Node8 -->
<g id="node8" class="node"><title>Node8</title>
<g id="a_node8"><a xlink:href="../../d6/d7e/class_t_m_c2208_stepper.html#a5441dd87d0bcea4ffc309cb012166a57" target="_top" xlink:title=" ">
<polygon fill="white" stroke="black" points="1047,-87.9696 1047,-106.97 1163,-106.97 1163,-87.9696 1047,-87.9696"/>
<text text-anchor="middle" x="1105" y="-94.9696" font-family="Helvetica,sans-Serif" font-size="10.00">TMC2208Stepper::IOIN</text>
</a>
</g>
</g>
<!-- Node7&#45;&gt;Node8 -->
<g id="edge7" class="edge"><title>Node7&#45;&gt;Node8</title>
<path fill="none" stroke="midnightblue" d="M984.551,-169.968C993.507,-167.396 1002.7,-164.251 1011,-160.47 1038.45,-147.961 1066.68,-127.566 1084.73,-113.383"/>
<polygon fill="midnightblue" stroke="midnightblue" points="1087.11,-115.965 1092.72,-106.982 1082.73,-110.501 1087.11,-115.965"/>
</g>
<!-- Node8&#45;&gt;Node4 -->
<g id="edge8" class="edge"><title>Node8&#45;&gt;Node4</title>
<path fill="none" stroke="midnightblue" d="M1094.21,-87.8203C1078.34,-72.9361 1045.3,-44.9951 1011,-34.4696 855.914,13.1145 802.13,9.56986 646,-34.4696 617.807,-42.4221 589.729,-61.5756 571.921,-75.4902"/>
<polygon fill="midnightblue" stroke="midnightblue" points="569.643,-72.8308 564.049,-81.8281 574.033,-78.2834 569.643,-72.8308"/>
</g>
<!-- Node14 -->
<g id="node14" class="node"><title>Node14</title>
<g id="a_node14"><a xlink:href="../../d9/d98/class_s_switch.html#a6ff09d0850d551571dc333fb74ff8628" target="_top" xlink:title=" ">
<polygon fill="white" stroke="black" points="897,-43.9696 897,-62.9696 980,-62.9696 980,-43.9696 897,-43.9696"/>
<text text-anchor="middle" x="938.5" y="-50.9696" font-family="Helvetica,sans-Serif" font-size="10.00">SSwitch::active</text>
</a>
</g>
</g>
<!-- Node13&#45;&gt;Node14 -->
<g id="edge14" class="edge"><title>Node13&#45;&gt;Node14</title>
<path fill="none" stroke="midnightblue" d="M827.51,-53.4696C847.828,-53.4696 868.753,-53.4696 886.826,-53.4696"/>
<polygon fill="midnightblue" stroke="midnightblue" points="886.83,-56.9697 896.83,-53.4696 886.83,-49.9697 886.83,-56.9697"/>
</g>
</g>
</svg>
