<?xml version="1.0" encoding="UTF-8" standalone="no"?>
<!DOCTYPE svg PUBLIC "-//W3C//DTD SVG 1.1//EN"
 "http://www.w3.org/Graphics/SVG/1.1/DTD/svg11.dtd">
<!-- Generated by graphviz version 2.38.0 (20140413.2041)
 -->
<!-- Title: TMC2208Stepper::version Pages: 1 -->
<svg width="841pt" height="201pt"
 viewBox="0.00 0.00 841.00 201.00" xmlns="http://www.w3.org/2000/svg" xmlns:xlink="http://www.w3.org/1999/xlink">
<g id="graph0" class="graph" transform="scale(1 1) rotate(0) translate(4 197)">
<title>TMC2208Stepper::version</title>
<polygon fill="white" stroke="none" points="-4,4 -4,-197 837,-197 837,4 -4,4"/>
<!-- Node1 -->
<g id="node1" class="node"><title>Node1</title>
<g id="a_node1"><a xlink:title=" ">
<polygon fill="#bfbfbf" stroke="black" points="0,-19.5 0,-38.5 128,-38.5 128,-19.5 0,-19.5"/>
<text text-anchor="middle" x="64" y="-26.5" font-family="Helvetica,sans-Serif" font-size="10.00">TMC2208Stepper::version</text>
</a>
</g>
</g>
<!-- Node2 -->
<g id="node2" class="node"><title>Node2</title>
<g id="a_node2"><a xlink:href="../../d6/d7e/class_t_m_c2208_stepper.html#a5441dd87d0bcea4ffc309cb012166a57" target="_top" xlink:title=" ">
<polygon fill="white" stroke="black" points="164,-19.5 164,-38.5 280,-38.5 280,-19.5 164,-19.5"/>
<text text-anchor="middle" x="222" y="-26.5" font-family="Helvetica,sans-Serif" font-size="10.00">TMC2208Stepper::IOIN</text>
</a>
</g>
</g>
<!-- Node1&#45;&gt;Node2 -->
<g id="edge1" class="edge"><title>Node1&#45;&gt;Node2</title>
<path fill="none" stroke="midnightblue" d="M128.002,-29C136.418,-29 145.077,-29 153.565,-29"/>
<polygon fill="midnightblue" stroke="midnightblue" points="153.808,-32.5001 163.808,-29 153.808,-25.5001 153.808,-32.5001"/>
</g>
<!-- Node3 -->
<g id="node3" class="node"><title>Node3</title>
<g id="a_node3"><a xlink:href="../../d6/d7e/class_t_m_c2208_stepper.html#a2fae2050849c3ab7968012def8ea1cc5" target="_top" xlink:title=" ">
<polygon fill="white" stroke="black" points="316,-57.5 316,-76.5 432,-76.5 432,-57.5 316,-57.5"/>
<text text-anchor="middle" x="374" y="-64.5" font-family="Helvetica,sans-Serif" font-size="10.00">TMC2208Stepper::read</text>
</a>
</g>
</g>
<!-- Node2&#45;&gt;Node3 -->
<g id="edge2" class="edge"><title>Node2&#45;&gt;Node3</title>
<path fill="none" stroke="midnightblue" d="M260.851,-38.589C280.467,-43.5583 304.619,-49.6767 325.479,-54.9613"/>
<polygon fill="midnightblue" stroke="midnightblue" points="324.868,-58.4169 335.421,-57.4799 326.587,-51.6313 324.868,-58.4169"/>
</g>
<!-- Node4 -->
<g id="node4" class="node"><title>Node4</title>
<g id="a_node4"><a xlink:href="../../d6/d7e/class_t_m_c2208_stepper.html#a321ad81155b7a20c0858920d32d0b074" target="_top" xlink:title=" ">
<polygon fill="white" stroke="black" points="477,-95.5 477,-114.5 643,-114.5 643,-95.5 477,-95.5"/>
<text text-anchor="middle" x="560" y="-102.5" font-family="Helvetica,sans-Serif" font-size="10.00">TMC2208Stepper::_sendDatagram</text>
</a>
</g>
</g>
<!-- Node3&#45;&gt;Node4 -->
<g id="edge3" class="edge"><title>Node3&#45;&gt;Node4</title>
<path fill="none" stroke="midnightblue" d="M421.431,-76.589C446.149,-81.6939 476.739,-88.0113 502.792,-93.3918"/>
<polygon fill="midnightblue" stroke="midnightblue" points="502.402,-96.885 512.903,-95.4799 503.817,-90.0297 502.402,-96.885"/>
</g>
<!-- Node9 -->
<g id="node9" class="node"><title>Node9</title>
<g id="a_node9"><a xlink:href="../../d6/d7e/class_t_m_c2208_stepper.html#a409c19fa6b052a370a317d061bf9af4e" target="_top" xlink:title=" ">
<polygon fill="white" stroke="black" points="492,-57.5 492,-76.5 628,-76.5 628,-57.5 492,-57.5"/>
<text text-anchor="middle" x="560" y="-64.5" font-family="Helvetica,sans-Serif" font-size="10.00">TMC2208Stepper::calcCRC</text>
</a>
</g>
</g>
<!-- Node3&#45;&gt;Node9 -->
<g id="edge9" class="edge"><title>Node3&#45;&gt;Node9</title>
<path fill="none" stroke="midnightblue" d="M432.21,-67C447.848,-67 465.059,-67 481.621,-67"/>
<polygon fill="midnightblue" stroke="midnightblue" points="481.829,-70.5001 491.829,-67 481.829,-63.5001 481.829,-70.5001"/>
</g>
<!-- Node10 -->
<g id="node10" class="node"><title>Node10</title>
<g id="a_node10"><a xlink:href="../../d6/d7e/class_t_m_c2208_stepper.html#a673ade174158b47e3b345b1d7b3c473d" target="_top" xlink:title=" ">
<polygon fill="white" stroke="black" points="468,-19.5 468,-38.5 652,-38.5 652,-19.5 468,-19.5"/>
<text text-anchor="middle" x="560" y="-26.5" font-family="Helvetica,sans-Serif" font-size="10.00">TMC2208Stepper::postCommunication</text>
</a>
</g>
</g>
<!-- Node3&#45;&gt;Node10 -->
<g id="edge10" class="edge"><title>Node3&#45;&gt;Node10</title>
<path fill="none" stroke="midnightblue" d="M421.431,-57.411C446.149,-52.3061 476.739,-45.9887 502.792,-40.6082"/>
<polygon fill="midnightblue" stroke="midnightblue" points="503.817,-43.9703 512.903,-38.5201 502.402,-37.115 503.817,-43.9703"/>
</g>
<!-- Node11 -->
<g id="node11" class="node"><title>Node11</title>
<g id="a_node11"><a xlink:href="../../d6/d7e/class_t_m_c2208_stepper.html#a0ba01db6c4c01da7cb0ace8a524ab1da" target="_top" xlink:title=" ">
<polygon fill="white" stroke="black" points="470.5,-139.5 470.5,-158.5 649.5,-158.5 649.5,-139.5 470.5,-139.5"/>
<text text-anchor="middle" x="560" y="-146.5" font-family="Helvetica,sans-Serif" font-size="10.00">TMC2208Stepper::preCommunication</text>
</a>
</g>
</g>
<!-- Node3&#45;&gt;Node11 -->
<g id="edge11" class="edge"><title>Node3&#45;&gt;Node11</title>
<path fill="none" stroke="midnightblue" d="M387.907,-76.5501C405.299,-89.0241 437.593,-110.821 468,-124 479.625,-129.038 492.529,-133.314 504.88,-136.828"/>
<polygon fill="midnightblue" stroke="midnightblue" points="504.064,-140.233 514.632,-139.483 505.903,-133.479 504.064,-140.233"/>
</g>
<!-- Node5 -->
<g id="node5" class="node"><title>Node5</title>
<g id="a_node5"><a xlink:href="../../d6/d7e/class_t_m_c2208_stepper.html#a7a670b15f45466f8d167a9b80fbf384f" target="_top" xlink:title=" ">
<polygon fill="white" stroke="black" points="693.5,-85.5 693.5,-104.5 827.5,-104.5 827.5,-85.5 693.5,-85.5"/>
<text text-anchor="middle" x="760.5" y="-92.5" font-family="Helvetica,sans-Serif" font-size="10.00">TMC2208Stepper::available</text>
</a>
</g>
</g>
<!-- Node4&#45;&gt;Node5 -->
<g id="edge4" class="edge"><title>Node4&#45;&gt;Node5</title>
<path fill="none" stroke="midnightblue" d="M643.17,-100.86C656.383,-100.195 670.013,-99.5082 683.084,-98.8497"/>
<polygon fill="midnightblue" stroke="midnightblue" points="683.616,-102.327 693.428,-98.3286 683.264,-95.3362 683.616,-102.327"/>
</g>
<!-- Node6 -->
<g id="node6" class="node"><title>Node6</title>
<g id="a_node6"><a xlink:href="../../d6/d7e/class_t_m_c2208_stepper.html#a4ec5d2b2f5a31259c7aba1f3208d63b8" target="_top" xlink:title=" ">
<polygon fill="white" stroke="black" points="702.5,-0.5 702.5,-19.5 818.5,-19.5 818.5,-0.5 702.5,-0.5"/>
<text text-anchor="middle" x="760.5" y="-7.5" font-family="Helvetica,sans-Serif" font-size="10.00">TMC2208Stepper::ms2</text>
</a>
</g>
</g>
<!-- Node4&#45;&gt;Node6 -->
<g id="edge5" class="edge"><title>Node4&#45;&gt;Node6</title>
<path fill="none" stroke="midnightblue" d="M632.064,-95.4993C639.087,-93.0129 645.872,-89.8981 652,-86 674.5,-71.687 666.776,-54.1441 688,-38 695.875,-32.01 705.193,-27.1398 714.457,-23.2435"/>
<polygon fill="midnightblue" stroke="midnightblue" points="715.97,-26.4104 724.027,-19.5296 713.438,-19.8845 715.97,-26.4104"/>
</g>
<!-- Node7 -->
<g id="node7" class="node"><title>Node7</title>
<g id="a_node7"><a xlink:href="../../d6/d7e/class_t_m_c2208_stepper.html#a129ceb04c3ea18e2c4ec1a59a51ece85" target="_top" xlink:title=" ">
<polygon fill="white" stroke="black" points="688,-47.5 688,-66.5 833,-66.5 833,-47.5 688,-47.5"/>
<text text-anchor="middle" x="760.5" y="-54.5" font-family="Helvetica,sans-Serif" font-size="10.00">TMC2208Stepper::serial_read</text>
</a>
</g>
</g>
<!-- Node4&#45;&gt;Node7 -->
<g id="edge7" class="edge"><title>Node4&#45;&gt;Node7</title>
<path fill="none" stroke="midnightblue" d="M609.775,-95.4266C623.476,-92.5721 638.356,-89.3157 652,-86 668.136,-82.0787 671.975,-80.3547 688,-76 696.196,-73.7728 704.928,-71.4285 713.373,-69.1762"/>
<polygon fill="midnightblue" stroke="midnightblue" points="714.341,-72.5405 723.105,-66.587 712.541,-65.7758 714.341,-72.5405"/>
</g>
<!-- Node8 -->
<g id="node8" class="node"><title>Node8</title>
<g id="a_node8"><a xlink:href="../../d6/d7e/class_t_m_c2208_stepper.html#aa7f2c1a3a1cda9a328c186c6d7cbfe41" target="_top" xlink:title=" ">
<polygon fill="white" stroke="black" points="700,-124 700,-154 821,-154 821,-124 700,-124"/>
<text text-anchor="start" x="708" y="-142" font-family="Helvetica,sans-Serif" font-size="10.00">TMC2208Stepper::serial</text>
<text text-anchor="middle" x="760.5" y="-131" font-family="Helvetica,sans-Serif" font-size="10.00">_write</text>
</a>
</g>
</g>
<!-- Node4&#45;&gt;Node8 -->
<g id="edge8" class="edge"><title>Node4&#45;&gt;Node8</title>
<path fill="none" stroke="midnightblue" d="M616.557,-114.516C639.238,-118.401 665.722,-122.937 689.688,-127.042"/>
<polygon fill="midnightblue" stroke="midnightblue" points="689.339,-130.533 699.787,-128.772 690.521,-123.634 689.339,-130.533"/>
</g>
<!-- Node6&#45;&gt;Node2 -->
<g id="edge6" class="edge"><title>Node6&#45;&gt;Node2</title>
<path fill="none" stroke="midnightblue" d="M702.227,-8.69287C643.429,-7.65791 549.291,-6.85263 468,-10 407.903,-12.3268 339.699,-17.8526 290.541,-22.3486"/>
<polygon fill="midnightblue" stroke="midnightblue" points="289.985,-18.8849 280.35,-23.2908 290.63,-25.8552 289.985,-18.8849"/>
</g>
<!-- Node12 -->
<g id="node12" class="node"><title>Node12</title>
<g id="a_node12"><a xlink:href="../../d9/d98/class_s_switch.html#a6ff09d0850d551571dc333fb74ff8628" target="_top" xlink:title=" ">
<polygon fill="white" stroke="black" points="719,-173.5 719,-192.5 802,-192.5 802,-173.5 719,-173.5"/>
<text text-anchor="middle" x="760.5" y="-180.5" font-family="Helvetica,sans-Serif" font-size="10.00">SSwitch::active</text>
</a>
</g>
</g>
<!-- Node11&#45;&gt;Node12 -->
<g id="edge12" class="edge"><title>Node11&#45;&gt;Node12</title>
<path fill="none" stroke="midnightblue" d="M616.557,-158.516C645.466,-163.468 680.552,-169.478 708.729,-174.304"/>
<polygon fill="midnightblue" stroke="midnightblue" points="708.326,-177.786 718.773,-176.024 709.508,-170.886 708.326,-177.786"/>
</g>
</g>
</svg>
