<?xml version="1.0" encoding="UTF-8" standalone="no"?>
<!DOCTYPE svg PUBLIC "-//W3C//DTD SVG 1.1//EN"
 "http://www.w3.org/Graphics/SVG/1.1/DTD/svg11.dtd">
<!-- Generated by graphviz version 2.38.0 (20140413.2041)
 -->
<!-- Title: TMC2208Stepper::pwm_lim Pages: 1 -->
<svg width="1034pt" height="235pt"
 viewBox="0.00 0.00 1034.00 235.47" xmlns="http://www.w3.org/2000/svg" xmlns:xlink="http://www.w3.org/1999/xlink">
<g id="graph0" class="graph" transform="scale(1 1) rotate(0) translate(4 231.47)">
<title>TMC2208Stepper::pwm_lim</title>
<polygon fill="white" stroke="none" points="-4,4 -4,-231.47 1030,-231.47 1030,4 -4,4"/>
<!-- Node1 -->
<g id="node1" class="node"><title>Node1</title>
<g id="a_node1"><a xlink:title=" ">
<polygon fill="#bfbfbf" stroke="black" points="0,-81.9696 0,-100.97 136,-100.97 136,-81.9696 0,-81.9696"/>
<text text-anchor="middle" x="68" y="-88.9696" font-family="Helvetica,sans-Serif" font-size="10.00">TMC2208Stepper::pwm_lim</text>
</a>
</g>
</g>
<!-- Node2 -->
<g id="node2" class="node"><title>Node2</title>
<g id="a_node2"><a xlink:href="../../d6/d7e/class_t_m_c2208_stepper.html#a7c2e849de2f2933ba9bf8ede8dc53f53" target="_top" xlink:title=" ">
<polygon fill="white" stroke="black" points="172,-81.9696 172,-100.97 321,-100.97 321,-81.9696 172,-81.9696"/>
<text text-anchor="middle" x="246.5" y="-88.9696" font-family="Helvetica,sans-Serif" font-size="10.00">TMC2208Stepper::PWMCONF</text>
</a>
</g>
</g>
<!-- Node1&#45;&gt;Node2 -->
<g id="edge1" class="edge"><title>Node1&#45;&gt;Node2</title>
<path fill="none" stroke="midnightblue" d="M136.231,-91.4696C144.633,-91.4696 153.305,-91.4696 161.918,-91.4696"/>
<polygon fill="midnightblue" stroke="midnightblue" points="161.982,-94.9697 171.982,-91.4696 161.982,-87.9697 161.982,-94.9697"/>
</g>
<!-- Node3 -->
<g id="node3" class="node"><title>Node3</title>
<g id="a_node3"><a xlink:href="../../d6/d7e/class_t_m_c2208_stepper.html#a2fae2050849c3ab7968012def8ea1cc5" target="_top" xlink:title=" ">
<polygon fill="white" stroke="black" points="357,-81.9696 357,-100.97 473,-100.97 473,-81.9696 357,-81.9696"/>
<text text-anchor="middle" x="415" y="-88.9696" font-family="Helvetica,sans-Serif" font-size="10.00">TMC2208Stepper::read</text>
</a>
</g>
</g>
<!-- Node2&#45;&gt;Node3 -->
<g id="edge2" class="edge"><title>Node2&#45;&gt;Node3</title>
<path fill="none" stroke="midnightblue" d="M321.014,-91.4696C329.561,-91.4696 338.246,-91.4696 346.704,-91.4696"/>
<polygon fill="midnightblue" stroke="midnightblue" points="346.882,-94.9697 356.882,-91.4696 346.882,-87.9697 346.882,-94.9697"/>
</g>
<!-- Node4 -->
<g id="node4" class="node"><title>Node4</title>
<g id="a_node4"><a xlink:href="../../d6/d7e/class_t_m_c2208_stepper.html#a321ad81155b7a20c0858920d32d0b074" target="_top" xlink:title=" ">
<polygon fill="white" stroke="black" points="518,-157.97 518,-176.97 684,-176.97 684,-157.97 518,-157.97"/>
<text text-anchor="middle" x="601" y="-164.97" font-family="Helvetica,sans-Serif" font-size="10.00">TMC2208Stepper::_sendDatagram</text>
</a>
</g>
</g>
<!-- Node3&#45;&gt;Node4 -->
<g id="edge3" class="edge"><title>Node3&#45;&gt;Node4</title>
<path fill="none" stroke="midnightblue" d="M428.494,-101.088C445.681,-113.843 478.022,-136.174 509,-148.47 515.6,-151.089 522.62,-153.37 529.72,-155.35"/>
<polygon fill="midnightblue" stroke="midnightblue" points="528.861,-158.743 539.42,-157.869 530.62,-151.968 528.861,-158.743"/>
</g>
<!-- Node10 -->
<g id="node10" class="node"><title>Node10</title>
<g id="a_node10"><a xlink:href="../../d6/d7e/class_t_m_c2208_stepper.html#a409c19fa6b052a370a317d061bf9af4e" target="_top" xlink:title=" ">
<polygon fill="white" stroke="black" points="533,-119.97 533,-138.97 669,-138.97 669,-119.97 533,-119.97"/>
<text text-anchor="middle" x="601" y="-126.97" font-family="Helvetica,sans-Serif" font-size="10.00">TMC2208Stepper::calcCRC</text>
</a>
</g>
</g>
<!-- Node3&#45;&gt;Node10 -->
<g id="edge10" class="edge"><title>Node3&#45;&gt;Node10</title>
<path fill="none" stroke="midnightblue" d="M462.431,-101.059C487.149,-106.163 517.739,-112.481 543.792,-117.861"/>
<polygon fill="midnightblue" stroke="midnightblue" points="543.402,-121.355 553.903,-119.95 544.817,-114.499 543.402,-121.355"/>
</g>
<!-- Node11 -->
<g id="node11" class="node"><title>Node11</title>
<g id="a_node11"><a xlink:href="../../d6/d7e/class_t_m_c2208_stepper.html#a673ade174158b47e3b345b1d7b3c473d" target="_top" xlink:title=" ">
<polygon fill="white" stroke="black" points="509,-81.9696 509,-100.97 693,-100.97 693,-81.9696 509,-81.9696"/>
<text text-anchor="middle" x="601" y="-88.9696" font-family="Helvetica,sans-Serif" font-size="10.00">TMC2208Stepper::postCommunication</text>
</a>
</g>
</g>
<!-- Node3&#45;&gt;Node11 -->
<g id="edge11" class="edge"><title>Node3&#45;&gt;Node11</title>
<path fill="none" stroke="midnightblue" d="M473.21,-91.4696C481.323,-91.4696 489.86,-91.4696 498.51,-91.4696"/>
<polygon fill="midnightblue" stroke="midnightblue" points="498.697,-94.9697 508.697,-91.4696 498.697,-87.9697 498.697,-94.9697"/>
</g>
<!-- Node12 -->
<g id="node12" class="node"><title>Node12</title>
<g id="a_node12"><a xlink:href="../../d6/d7e/class_t_m_c2208_stepper.html#a0ba01db6c4c01da7cb0ace8a524ab1da" target="_top" xlink:title=" ">
<polygon fill="white" stroke="black" points="511.5,-43.9696 511.5,-62.9696 690.5,-62.9696 690.5,-43.9696 511.5,-43.9696"/>
<text text-anchor="middle" x="601" y="-50.9696" font-family="Helvetica,sans-Serif" font-size="10.00">TMC2208Stepper::preCommunication</text>
</a>
</g>
</g>
<!-- Node3&#45;&gt;Node12 -->
<g id="edge12" class="edge"><title>Node3&#45;&gt;Node12</title>
<path fill="none" stroke="midnightblue" d="M462.431,-81.8806C487.149,-76.7758 517.739,-70.4583 543.792,-65.0778"/>
<polygon fill="midnightblue" stroke="midnightblue" points="544.817,-68.44 553.903,-62.9897 543.402,-61.5846 544.817,-68.44"/>
</g>
<!-- Node5 -->
<g id="node5" class="node"><title>Node5</title>
<g id="a_node5"><a xlink:href="../../d6/d7e/class_t_m_c2208_stepper.html#a7a670b15f45466f8d167a9b80fbf384f" target="_top" xlink:title=" ">
<polygon fill="white" stroke="black" points="734.5,-207.97 734.5,-226.97 868.5,-226.97 868.5,-207.97 734.5,-207.97"/>
<text text-anchor="middle" x="801.5" y="-214.97" font-family="Helvetica,sans-Serif" font-size="10.00">TMC2208Stepper::available</text>
</a>
</g>
</g>
<!-- Node4&#45;&gt;Node5 -->
<g id="edge4" class="edge"><title>Node4&#45;&gt;Node5</title>
<path fill="none" stroke="midnightblue" d="M639.804,-176.992C671.849,-185.064 717.983,-196.684 752.607,-205.406"/>
<polygon fill="midnightblue" stroke="midnightblue" points="751.948,-208.849 762.5,-207.898 753.657,-202.061 751.948,-208.849"/>
</g>
<!-- Node6 -->
<g id="node6" class="node"><title>Node6</title>
<g id="a_node6"><a xlink:href="../../d6/d7e/class_t_m_c2208_stepper.html#a4ec5d2b2f5a31259c7aba1f3208d63b8" target="_top" xlink:title=" ">
<polygon fill="white" stroke="black" points="743.5,-169.97 743.5,-188.97 859.5,-188.97 859.5,-169.97 743.5,-169.97"/>
<text text-anchor="middle" x="801.5" y="-176.97" font-family="Helvetica,sans-Serif" font-size="10.00">TMC2208Stepper::ms2</text>
</a>
</g>
</g>
<!-- Node4&#45;&gt;Node6 -->
<g id="edge5" class="edge"><title>Node4&#45;&gt;Node6</title>
<path fill="none" stroke="midnightblue" d="M684.17,-172.437C700.532,-173.426 717.531,-174.454 733.318,-175.408"/>
<polygon fill="midnightblue" stroke="midnightblue" points="733.305,-178.914 743.498,-176.024 733.727,-171.927 733.305,-178.914"/>
</g>
<!-- Node8 -->
<g id="node8" class="node"><title>Node8</title>
<g id="a_node8"><a xlink:href="../../d6/d7e/class_t_m_c2208_stepper.html#a129ceb04c3ea18e2c4ec1a59a51ece85" target="_top" xlink:title=" ">
<polygon fill="white" stroke="black" points="729,-131.97 729,-150.97 874,-150.97 874,-131.97 729,-131.97"/>
<text text-anchor="middle" x="801.5" y="-138.97" font-family="Helvetica,sans-Serif" font-size="10.00">TMC2208Stepper::serial_read</text>
</a>
</g>
</g>
<!-- Node4&#45;&gt;Node8 -->
<g id="edge8" class="edge"><title>Node4&#45;&gt;Node8</title>
<path fill="none" stroke="midnightblue" d="M674.787,-157.936C689.081,-156.064 704.166,-154.088 718.731,-152.18"/>
<polygon fill="midnightblue" stroke="midnightblue" points="719.256,-155.641 728.716,-150.872 718.346,-148.7 719.256,-155.641"/>
</g>
<!-- Node9 -->
<g id="node9" class="node"><title>Node9</title>
<g id="a_node9"><a xlink:href="../../d6/d7e/class_t_m_c2208_stepper.html#aa7f2c1a3a1cda9a328c186c6d7cbfe41" target="_top" xlink:title=" ">
<polygon fill="white" stroke="black" points="741,-82.4696 741,-112.47 862,-112.47 862,-82.4696 741,-82.4696"/>
<text text-anchor="start" x="749" y="-100.47" font-family="Helvetica,sans-Serif" font-size="10.00">TMC2208Stepper::serial</text>
<text text-anchor="middle" x="801.5" y="-89.4696" font-family="Helvetica,sans-Serif" font-size="10.00">_write</text>
</a>
</g>
</g>
<!-- Node4&#45;&gt;Node9 -->
<g id="edge9" class="edge"><title>Node4&#45;&gt;Node9</title>
<path fill="none" stroke="midnightblue" d="M665.251,-157.863C674.759,-155.397 684.289,-152.315 693,-148.47 711.056,-140.5 711.502,-131.6 729,-122.47 733.044,-120.36 737.305,-118.362 741.65,-116.486"/>
<polygon fill="midnightblue" stroke="midnightblue" points="743.304,-119.591 751.243,-112.575 740.662,-113.109 743.304,-119.591"/>
</g>
<!-- Node7 -->
<g id="node7" class="node"><title>Node7</title>
<g id="a_node7"><a xlink:href="../../d6/d7e/class_t_m_c2208_stepper.html#a5441dd87d0bcea4ffc309cb012166a57" target="_top" xlink:title=" ">
<polygon fill="white" stroke="black" points="910,-87.9696 910,-106.97 1026,-106.97 1026,-87.9696 910,-87.9696"/>
<text text-anchor="middle" x="968" y="-94.9696" font-family="Helvetica,sans-Serif" font-size="10.00">TMC2208Stepper::IOIN</text>
</a>
</g>
</g>
<!-- Node6&#45;&gt;Node7 -->
<g id="edge6" class="edge"><title>Node6&#45;&gt;Node7</title>
<path fill="none" stroke="midnightblue" d="M847.551,-169.968C856.507,-167.396 865.702,-164.251 874,-160.47 901.451,-147.961 929.683,-127.566 947.73,-113.383"/>
<polygon fill="midnightblue" stroke="midnightblue" points="950.106,-115.965 955.723,-106.982 945.73,-110.501 950.106,-115.965"/>
</g>
<!-- Node7&#45;&gt;Node3 -->
<g id="edge7" class="edge"><title>Node7&#45;&gt;Node3</title>
<path fill="none" stroke="midnightblue" d="M957.209,-87.8203C941.34,-72.9361 908.305,-44.9951 874,-34.4696 718.914,13.1145 665.13,9.56986 509,-34.4696 480.807,-42.4221 452.729,-61.5756 434.921,-75.4902"/>
<polygon fill="midnightblue" stroke="midnightblue" points="432.643,-72.8308 427.049,-81.8281 437.033,-78.2834 432.643,-72.8308"/>
</g>
<!-- Node13 -->
<g id="node13" class="node"><title>Node13</title>
<g id="a_node13"><a xlink:href="../../d9/d98/class_s_switch.html#a6ff09d0850d551571dc333fb74ff8628" target="_top" xlink:title=" ">
<polygon fill="white" stroke="black" points="760,-43.9696 760,-62.9696 843,-62.9696 843,-43.9696 760,-43.9696"/>
<text text-anchor="middle" x="801.5" y="-50.9696" font-family="Helvetica,sans-Serif" font-size="10.00">SSwitch::active</text>
</a>
</g>
</g>
<!-- Node12&#45;&gt;Node13 -->
<g id="edge13" class="edge"><title>Node12&#45;&gt;Node13</title>
<path fill="none" stroke="midnightblue" d="M690.51,-53.4696C710.828,-53.4696 731.753,-53.4696 749.826,-53.4696"/>
<polygon fill="midnightblue" stroke="midnightblue" points="749.83,-56.9697 759.83,-53.4696 749.83,-49.9697 749.83,-56.9697"/>
</g>
</g>
</svg>
