<?xml version="1.0" encoding="UTF-8" standalone="no"?>
<!DOCTYPE svg PUBLIC "-//W3C//DTD SVG 1.1//EN"
 "http://www.w3.org/Graphics/SVG/1.1/DTD/svg11.dtd">
<!-- Generated by graphviz version 2.38.0 (20140413.2041)
 -->
<!-- Title: TMC2208Stepper::enn Pages: 1 -->
<svg width="826pt" height="201pt"
 viewBox="0.00 0.00 826.00 201.00" xmlns="http://www.w3.org/2000/svg" xmlns:xlink="http://www.w3.org/1999/xlink">
<g id="graph0" class="graph" transform="scale(1 1) rotate(0) translate(4 197)">
<title>TMC2208Stepper::enn</title>
<polygon fill="white" stroke="none" points="-4,4 -4,-197 822,-197 822,4 -4,4"/>
<!-- Node1 -->
<g id="node1" class="node"><title>Node1</title>
<g id="a_node1"><a xlink:title=" ">
<polygon fill="#bfbfbf" stroke="black" points="0,-19.5 0,-38.5 113,-38.5 113,-19.5 0,-19.5"/>
<text text-anchor="middle" x="56.5" y="-26.5" font-family="Helvetica,sans-Serif" font-size="10.00">TMC2208Stepper::enn</text>
</a>
</g>
</g>
<!-- Node2 -->
<g id="node2" class="node"><title>Node2</title>
<g id="a_node2"><a xlink:href="../../d6/d7e/class_t_m_c2208_stepper.html#a5441dd87d0bcea4ffc309cb012166a57" target="_top" xlink:title=" ">
<polygon fill="white" stroke="black" points="149,-19.5 149,-38.5 265,-38.5 265,-19.5 149,-19.5"/>
<text text-anchor="middle" x="207" y="-26.5" font-family="Helvetica,sans-Serif" font-size="10.00">TMC2208Stepper::IOIN</text>
</a>
</g>
</g>
<!-- Node1&#45;&gt;Node2 -->
<g id="edge1" class="edge"><title>Node1&#45;&gt;Node2</title>
<path fill="none" stroke="midnightblue" d="M113.218,-29C121.618,-29 130.356,-29 138.963,-29"/>
<polygon fill="midnightblue" stroke="midnightblue" points="138.979,-32.5001 148.979,-29 138.979,-25.5001 138.979,-32.5001"/>
</g>
<!-- Node3 -->
<g id="node3" class="node"><title>Node3</title>
<g id="a_node3"><a xlink:href="../../d6/d7e/class_t_m_c2208_stepper.html#a2fae2050849c3ab7968012def8ea1cc5" target="_top" xlink:title=" ">
<polygon fill="white" stroke="black" points="301,-57.5 301,-76.5 417,-76.5 417,-57.5 301,-57.5"/>
<text text-anchor="middle" x="359" y="-64.5" font-family="Helvetica,sans-Serif" font-size="10.00">TMC2208Stepper::read</text>
</a>
</g>
</g>
<!-- Node2&#45;&gt;Node3 -->
<g id="edge2" class="edge"><title>Node2&#45;&gt;Node3</title>
<path fill="none" stroke="midnightblue" d="M245.851,-38.589C265.467,-43.5583 289.619,-49.6767 310.479,-54.9613"/>
<polygon fill="midnightblue" stroke="midnightblue" points="309.868,-58.4169 320.421,-57.4799 311.587,-51.6313 309.868,-58.4169"/>
</g>
<!-- Node4 -->
<g id="node4" class="node"><title>Node4</title>
<g id="a_node4"><a xlink:href="../../d6/d7e/class_t_m_c2208_stepper.html#a321ad81155b7a20c0858920d32d0b074" target="_top" xlink:title=" ">
<polygon fill="white" stroke="black" points="462,-95.5 462,-114.5 628,-114.5 628,-95.5 462,-95.5"/>
<text text-anchor="middle" x="545" y="-102.5" font-family="Helvetica,sans-Serif" font-size="10.00">TMC2208Stepper::_sendDatagram</text>
</a>
</g>
</g>
<!-- Node3&#45;&gt;Node4 -->
<g id="edge3" class="edge"><title>Node3&#45;&gt;Node4</title>
<path fill="none" stroke="midnightblue" d="M406.431,-76.589C431.149,-81.6939 461.739,-88.0113 487.792,-93.3918"/>
<polygon fill="midnightblue" stroke="midnightblue" points="487.402,-96.885 497.903,-95.4799 488.817,-90.0297 487.402,-96.885"/>
</g>
<!-- Node9 -->
<g id="node9" class="node"><title>Node9</title>
<g id="a_node9"><a xlink:href="../../d6/d7e/class_t_m_c2208_stepper.html#a409c19fa6b052a370a317d061bf9af4e" target="_top" xlink:title=" ">
<polygon fill="white" stroke="black" points="477,-57.5 477,-76.5 613,-76.5 613,-57.5 477,-57.5"/>
<text text-anchor="middle" x="545" y="-64.5" font-family="Helvetica,sans-Serif" font-size="10.00">TMC2208Stepper::calcCRC</text>
</a>
</g>
</g>
<!-- Node3&#45;&gt;Node9 -->
<g id="edge9" class="edge"><title>Node3&#45;&gt;Node9</title>
<path fill="none" stroke="midnightblue" d="M417.21,-67C432.848,-67 450.059,-67 466.621,-67"/>
<polygon fill="midnightblue" stroke="midnightblue" points="466.829,-70.5001 476.829,-67 466.829,-63.5001 466.829,-70.5001"/>
</g>
<!-- Node10 -->
<g id="node10" class="node"><title>Node10</title>
<g id="a_node10"><a xlink:href="../../d6/d7e/class_t_m_c2208_stepper.html#a673ade174158b47e3b345b1d7b3c473d" target="_top" xlink:title=" ">
<polygon fill="white" stroke="black" points="453,-19.5 453,-38.5 637,-38.5 637,-19.5 453,-19.5"/>
<text text-anchor="middle" x="545" y="-26.5" font-family="Helvetica,sans-Serif" font-size="10.00">TMC2208Stepper::postCommunication</text>
</a>
</g>
</g>
<!-- Node3&#45;&gt;Node10 -->
<g id="edge10" class="edge"><title>Node3&#45;&gt;Node10</title>
<path fill="none" stroke="midnightblue" d="M406.431,-57.411C431.149,-52.3061 461.739,-45.9887 487.792,-40.6082"/>
<polygon fill="midnightblue" stroke="midnightblue" points="488.817,-43.9703 497.903,-38.5201 487.402,-37.115 488.817,-43.9703"/>
</g>
<!-- Node11 -->
<g id="node11" class="node"><title>Node11</title>
<g id="a_node11"><a xlink:href="../../d6/d7e/class_t_m_c2208_stepper.html#a0ba01db6c4c01da7cb0ace8a524ab1da" target="_top" xlink:title=" ">
<polygon fill="white" stroke="black" points="455.5,-139.5 455.5,-158.5 634.5,-158.5 634.5,-139.5 455.5,-139.5"/>
<text text-anchor="middle" x="545" y="-146.5" font-family="Helvetica,sans-Serif" font-size="10.00">TMC2208Stepper::preCommunication</text>
</a>
</g>
</g>
<!-- Node3&#45;&gt;Node11 -->
<g id="edge11" class="edge"><title>Node3&#45;&gt;Node11</title>
<path fill="none" stroke="midnightblue" d="M372.907,-76.5501C390.299,-89.0241 422.593,-110.821 453,-124 464.625,-129.038 477.529,-133.314 489.88,-136.828"/>
<polygon fill="midnightblue" stroke="midnightblue" points="489.064,-140.233 499.632,-139.483 490.903,-133.479 489.064,-140.233"/>
</g>
<!-- Node5 -->
<g id="node5" class="node"><title>Node5</title>
<g id="a_node5"><a xlink:href="../../d6/d7e/class_t_m_c2208_stepper.html#a7a670b15f45466f8d167a9b80fbf384f" target="_top" xlink:title=" ">
<polygon fill="white" stroke="black" points="678.5,-85.5 678.5,-104.5 812.5,-104.5 812.5,-85.5 678.5,-85.5"/>
<text text-anchor="middle" x="745.5" y="-92.5" font-family="Helvetica,sans-Serif" font-size="10.00">TMC2208Stepper::available</text>
</a>
</g>
</g>
<!-- Node4&#45;&gt;Node5 -->
<g id="edge4" class="edge"><title>Node4&#45;&gt;Node5</title>
<path fill="none" stroke="midnightblue" d="M628.17,-100.86C641.383,-100.195 655.013,-99.5082 668.084,-98.8497"/>
<polygon fill="midnightblue" stroke="midnightblue" points="668.616,-102.327 678.428,-98.3286 668.264,-95.3362 668.616,-102.327"/>
</g>
<!-- Node6 -->
<g id="node6" class="node"><title>Node6</title>
<g id="a_node6"><a xlink:href="../../d6/d7e/class_t_m_c2208_stepper.html#a4ec5d2b2f5a31259c7aba1f3208d63b8" target="_top" xlink:title=" ">
<polygon fill="white" stroke="black" points="687.5,-0.5 687.5,-19.5 803.5,-19.5 803.5,-0.5 687.5,-0.5"/>
<text text-anchor="middle" x="745.5" y="-7.5" font-family="Helvetica,sans-Serif" font-size="10.00">TMC2208Stepper::ms2</text>
</a>
</g>
</g>
<!-- Node4&#45;&gt;Node6 -->
<g id="edge5" class="edge"><title>Node4&#45;&gt;Node6</title>
<path fill="none" stroke="midnightblue" d="M617.064,-95.4993C624.087,-93.0129 630.872,-89.8981 637,-86 659.5,-71.687 651.776,-54.1441 673,-38 680.875,-32.01 690.193,-27.1398 699.457,-23.2435"/>
<polygon fill="midnightblue" stroke="midnightblue" points="700.97,-26.4104 709.027,-19.5296 698.438,-19.8845 700.97,-26.4104"/>
</g>
<!-- Node7 -->
<g id="node7" class="node"><title>Node7</title>
<g id="a_node7"><a xlink:href="../../d6/d7e/class_t_m_c2208_stepper.html#a129ceb04c3ea18e2c4ec1a59a51ece85" target="_top" xlink:title=" ">
<polygon fill="white" stroke="black" points="673,-47.5 673,-66.5 818,-66.5 818,-47.5 673,-47.5"/>
<text text-anchor="middle" x="745.5" y="-54.5" font-family="Helvetica,sans-Serif" font-size="10.00">TMC2208Stepper::serial_read</text>
</a>
</g>
</g>
<!-- Node4&#45;&gt;Node7 -->
<g id="edge7" class="edge"><title>Node4&#45;&gt;Node7</title>
<path fill="none" stroke="midnightblue" d="M594.775,-95.4266C608.476,-92.5721 623.356,-89.3157 637,-86 653.136,-82.0787 656.975,-80.3547 673,-76 681.196,-73.7728 689.928,-71.4285 698.373,-69.1762"/>
<polygon fill="midnightblue" stroke="midnightblue" points="699.341,-72.5405 708.105,-66.587 697.541,-65.7758 699.341,-72.5405"/>
</g>
<!-- Node8 -->
<g id="node8" class="node"><title>Node8</title>
<g id="a_node8"><a xlink:href="../../d6/d7e/class_t_m_c2208_stepper.html#aa7f2c1a3a1cda9a328c186c6d7cbfe41" target="_top" xlink:title=" ">
<polygon fill="white" stroke="black" points="685,-124 685,-154 806,-154 806,-124 685,-124"/>
<text text-anchor="start" x="693" y="-142" font-family="Helvetica,sans-Serif" font-size="10.00">TMC2208Stepper::serial</text>
<text text-anchor="middle" x="745.5" y="-131" font-family="Helvetica,sans-Serif" font-size="10.00">_write</text>
</a>
</g>
</g>
<!-- Node4&#45;&gt;Node8 -->
<g id="edge8" class="edge"><title>Node4&#45;&gt;Node8</title>
<path fill="none" stroke="midnightblue" d="M601.557,-114.516C624.238,-118.401 650.722,-122.937 674.688,-127.042"/>
<polygon fill="midnightblue" stroke="midnightblue" points="674.339,-130.533 684.787,-128.772 675.521,-123.634 674.339,-130.533"/>
</g>
<!-- Node6&#45;&gt;Node2 -->
<g id="edge6" class="edge"><title>Node6&#45;&gt;Node2</title>
<path fill="none" stroke="midnightblue" d="M687.227,-8.69287C628.429,-7.65791 534.291,-6.85263 453,-10 392.903,-12.3268 324.699,-17.8526 275.541,-22.3486"/>
<polygon fill="midnightblue" stroke="midnightblue" points="274.985,-18.8849 265.35,-23.2908 275.63,-25.8552 274.985,-18.8849"/>
</g>
<!-- Node12 -->
<g id="node12" class="node"><title>Node12</title>
<g id="a_node12"><a xlink:href="../../d9/d98/class_s_switch.html#a6ff09d0850d551571dc333fb74ff8628" target="_top" xlink:title=" ">
<polygon fill="white" stroke="black" points="704,-173.5 704,-192.5 787,-192.5 787,-173.5 704,-173.5"/>
<text text-anchor="middle" x="745.5" y="-180.5" font-family="Helvetica,sans-Serif" font-size="10.00">SSwitch::active</text>
</a>
</g>
</g>
<!-- Node11&#45;&gt;Node12 -->
<g id="edge12" class="edge"><title>Node11&#45;&gt;Node12</title>
<path fill="none" stroke="midnightblue" d="M601.557,-158.516C630.466,-163.468 665.552,-169.478 693.729,-174.304"/>
<polygon fill="midnightblue" stroke="midnightblue" points="693.326,-177.786 703.773,-176.024 694.508,-170.886 693.326,-177.786"/>
</g>
</g>
</svg>
