<?xml version="1.0" encoding="UTF-8" standalone="no"?>
<!DOCTYPE svg PUBLIC "-//W3C//DTD SVG 1.1//EN"
 "http://www.w3.org/Graphics/SVG/1.1/DTD/svg11.dtd">
<!-- Generated by graphviz version 2.38.0 (20140413.2041)
 -->
<!-- Title: TMC2208Stepper::pwm_ofs Pages: 1 -->
<svg width="637pt" height="154pt"
 viewBox="0.00 0.00 637.00 153.50" xmlns="http://www.w3.org/2000/svg" xmlns:xlink="http://www.w3.org/1999/xlink">
<g id="graph0" class="graph" transform="scale(1 1) rotate(0) translate(4 149.5)">
<title>TMC2208Stepper::pwm_ofs</title>
<polygon fill="white" stroke="none" points="-4,4 -4,-149.5 633,-149.5 633,4 -4,4"/>
<!-- Node1 -->
<g id="node1" class="node"><title>Node1</title>
<g id="a_node1"><a xlink:title=" ">
<polygon fill="#bfbfbf" stroke="black" points="0,-69 0,-88 136,-88 136,-69 0,-69"/>
<text text-anchor="middle" x="68" y="-76" font-family="Helvetica,sans-Serif" font-size="10.00">TMC2208Stepper::pwm_ofs</text>
</a>
</g>
</g>
<!-- Node2 -->
<g id="node2" class="node"><title>Node2</title>
<g id="a_node2"><a xlink:href="../../d6/d7e/class_t_m_c2208_stepper.html#a142b14de8a4dcc6cf76b4a6ede9e1cea" target="_top" xlink:title=" ">
<polygon fill="white" stroke="black" points="172,-69 172,-88 290,-88 290,-69 172,-69"/>
<text text-anchor="middle" x="231" y="-76" font-family="Helvetica,sans-Serif" font-size="10.00">TMC2208Stepper::write</text>
</a>
</g>
</g>
<!-- Node1&#45;&gt;Node2 -->
<g id="edge1" class="edge"><title>Node1&#45;&gt;Node2</title>
<path fill="none" stroke="midnightblue" d="M136.346,-78.5C144.738,-78.5 153.327,-78.5 161.734,-78.5"/>
<polygon fill="midnightblue" stroke="midnightblue" points="161.872,-82.0001 171.872,-78.5 161.872,-75.0001 161.872,-82.0001"/>
</g>
<!-- Node3 -->
<g id="node3" class="node"><title>Node3</title>
<g id="a_node3"><a xlink:href="../../d6/d7e/class_t_m_c2208_stepper.html#a409c19fa6b052a370a317d061bf9af4e" target="_top" xlink:title=" ">
<polygon fill="white" stroke="black" points="350,-126 350,-145 486,-145 486,-126 350,-126"/>
<text text-anchor="middle" x="418" y="-133" font-family="Helvetica,sans-Serif" font-size="10.00">TMC2208Stepper::calcCRC</text>
</a>
</g>
</g>
<!-- Node2&#45;&gt;Node3 -->
<g id="edge2" class="edge"><title>Node2&#45;&gt;Node3</title>
<path fill="none" stroke="midnightblue" d="M252.524,-88.037C271.315,-96.4682 300.063,-108.619 326,-116.5 334.732,-119.153 344.046,-121.562 353.26,-123.703"/>
<polygon fill="midnightblue" stroke="midnightblue" points="352.663,-127.156 363.186,-125.922 354.19,-120.325 352.663,-127.156"/>
</g>
<!-- Node4 -->
<g id="node4" class="node"><title>Node4</title>
<g id="a_node4"><a xlink:href="../../d6/d7e/class_t_m_c2208_stepper.html#a673ade174158b47e3b345b1d7b3c473d" target="_top" xlink:title=" ">
<polygon fill="white" stroke="black" points="326,-88 326,-107 510,-107 510,-88 326,-88"/>
<text text-anchor="middle" x="418" y="-95" font-family="Helvetica,sans-Serif" font-size="10.00">TMC2208Stepper::postCommunication</text>
</a>
</g>
</g>
<!-- Node2&#45;&gt;Node4 -->
<g id="edge3" class="edge"><title>Node2&#45;&gt;Node4</title>
<path fill="none" stroke="midnightblue" d="M290.028,-84.4596C298.343,-85.3136 307.091,-86.2121 315.945,-87.1214"/>
<polygon fill="midnightblue" stroke="midnightblue" points="315.664,-90.6108 325.969,-88.1509 316.379,-83.6475 315.664,-90.6108"/>
</g>
<!-- Node5 -->
<g id="node5" class="node"><title>Node5</title>
<g id="a_node5"><a xlink:href="../../d6/d7e/class_t_m_c2208_stepper.html#a0ba01db6c4c01da7cb0ace8a524ab1da" target="_top" xlink:title=" ">
<polygon fill="white" stroke="black" points="328.5,-50 328.5,-69 507.5,-69 507.5,-50 328.5,-50"/>
<text text-anchor="middle" x="418" y="-57" font-family="Helvetica,sans-Serif" font-size="10.00">TMC2208Stepper::preCommunication</text>
</a>
</g>
</g>
<!-- Node2&#45;&gt;Node5 -->
<g id="edge4" class="edge"><title>Node2&#45;&gt;Node5</title>
<path fill="none" stroke="midnightblue" d="M290.028,-72.5404C299.072,-71.6115 308.629,-70.63 318.277,-69.6391"/>
<polygon fill="midnightblue" stroke="midnightblue" points="318.757,-73.1083 328.347,-68.6049 318.042,-66.145 318.757,-73.1083"/>
</g>
<!-- Node7 -->
<g id="node7" class="node"><title>Node7</title>
<g id="a_node7"><a xlink:href="../../d6/d7e/class_t_m_c2208_stepper.html#aa7f2c1a3a1cda9a328c186c6d7cbfe41" target="_top" xlink:title=" ">
<polygon fill="white" stroke="black" points="357.5,-0.5 357.5,-30.5 478.5,-30.5 478.5,-0.5 357.5,-0.5"/>
<text text-anchor="start" x="365.5" y="-18.5" font-family="Helvetica,sans-Serif" font-size="10.00">TMC2208Stepper::serial</text>
<text text-anchor="middle" x="418" y="-7.5" font-family="Helvetica,sans-Serif" font-size="10.00">_write</text>
</a>
</g>
</g>
<!-- Node2&#45;&gt;Node7 -->
<g id="edge6" class="edge"><title>Node2&#45;&gt;Node7</title>
<path fill="none" stroke="midnightblue" d="M253.761,-68.8638C272.642,-60.7065 300.821,-49.0159 326,-40.5 333.312,-38.0271 341.014,-35.6178 348.715,-33.3323"/>
<polygon fill="midnightblue" stroke="midnightblue" points="349.813,-36.6581 358.44,-30.5082 347.861,-29.9358 349.813,-36.6581"/>
</g>
<!-- Node6 -->
<g id="node6" class="node"><title>Node6</title>
<g id="a_node6"><a xlink:href="../../d9/d98/class_s_switch.html#a6ff09d0850d551571dc333fb74ff8628" target="_top" xlink:title=" ">
<polygon fill="white" stroke="black" points="546,-50 546,-69 629,-69 629,-50 546,-50"/>
<text text-anchor="middle" x="587.5" y="-57" font-family="Helvetica,sans-Serif" font-size="10.00">SSwitch::active</text>
</a>
</g>
</g>
<!-- Node5&#45;&gt;Node6 -->
<g id="edge5" class="edge"><title>Node5&#45;&gt;Node6</title>
<path fill="none" stroke="midnightblue" d="M507.655,-59.5C517.243,-59.5 526.745,-59.5 535.657,-59.5"/>
<polygon fill="midnightblue" stroke="midnightblue" points="535.816,-63.0001 545.816,-59.5 535.816,-56.0001 535.816,-63.0001"/>
</g>
</g>
</svg>
