<?xml version="1.0" encoding="UTF-8" standalone="no"?>
<!DOCTYPE svg PUBLIC "-//W3C//DTD SVG 1.1//EN"
 "http://www.w3.org/Graphics/SVG/1.1/DTD/svg11.dtd">
<!-- Generated by graphviz version 2.38.0 (20140413.2041)
 -->
<!-- Title: TMC2208Stepper::read Pages: 1 -->
<svg width="677pt" height="235pt"
 viewBox="0.00 0.00 677.00 235.47" xmlns="http://www.w3.org/2000/svg" xmlns:xlink="http://www.w3.org/1999/xlink">
<g id="graph0" class="graph" transform="scale(1 1) rotate(0) translate(4 231.47)">
<title>TMC2208Stepper::read</title>
<polygon fill="white" stroke="none" points="-4,4 -4,-231.47 673,-231.47 673,4 -4,4"/>
<!-- Node1 -->
<g id="node1" class="node"><title>Node1</title>
<g id="a_node1"><a xlink:title=" ">
<polygon fill="#bfbfbf" stroke="black" points="0,-81.9696 0,-100.97 116,-100.97 116,-81.9696 0,-81.9696"/>
<text text-anchor="middle" x="58" y="-88.9696" font-family="Helvetica,sans-Serif" font-size="10.00">TMC2208Stepper::read</text>
</a>
</g>
</g>
<!-- Node2 -->
<g id="node2" class="node"><title>Node2</title>
<g id="a_node2"><a xlink:href="../../d6/d7e/class_t_m_c2208_stepper.html#a321ad81155b7a20c0858920d32d0b074" target="_top" xlink:title=" ">
<polygon fill="white" stroke="black" points="161,-157.97 161,-176.97 327,-176.97 327,-157.97 161,-157.97"/>
<text text-anchor="middle" x="244" y="-164.97" font-family="Helvetica,sans-Serif" font-size="10.00">TMC2208Stepper::_sendDatagram</text>
</a>
</g>
</g>
<!-- Node1&#45;&gt;Node2 -->
<g id="edge1" class="edge"><title>Node1&#45;&gt;Node2</title>
<path fill="none" stroke="midnightblue" d="M71.4941,-101.088C88.6815,-113.843 121.022,-136.174 152,-148.47 158.6,-151.089 165.62,-153.37 172.72,-155.35"/>
<polygon fill="midnightblue" stroke="midnightblue" points="171.861,-158.743 182.42,-157.869 173.62,-151.968 171.861,-158.743"/>
</g>
<!-- Node8 -->
<g id="node8" class="node"><title>Node8</title>
<g id="a_node8"><a xlink:href="../../d6/d7e/class_t_m_c2208_stepper.html#a409c19fa6b052a370a317d061bf9af4e" target="_top" xlink:title=" ">
<polygon fill="white" stroke="black" points="176,-119.97 176,-138.97 312,-138.97 312,-119.97 176,-119.97"/>
<text text-anchor="middle" x="244" y="-126.97" font-family="Helvetica,sans-Serif" font-size="10.00">TMC2208Stepper::calcCRC</text>
</a>
</g>
</g>
<!-- Node1&#45;&gt;Node8 -->
<g id="edge8" class="edge"><title>Node1&#45;&gt;Node8</title>
<path fill="none" stroke="midnightblue" d="M105.431,-101.059C130.149,-106.163 160.739,-112.481 186.792,-117.861"/>
<polygon fill="midnightblue" stroke="midnightblue" points="186.402,-121.355 196.903,-119.95 187.817,-114.499 186.402,-121.355"/>
</g>
<!-- Node9 -->
<g id="node9" class="node"><title>Node9</title>
<g id="a_node9"><a xlink:href="../../d6/d7e/class_t_m_c2208_stepper.html#a673ade174158b47e3b345b1d7b3c473d" target="_top" xlink:title=" ">
<polygon fill="white" stroke="black" points="152,-81.9696 152,-100.97 336,-100.97 336,-81.9696 152,-81.9696"/>
<text text-anchor="middle" x="244" y="-88.9696" font-family="Helvetica,sans-Serif" font-size="10.00">TMC2208Stepper::postCommunication</text>
</a>
</g>
</g>
<!-- Node1&#45;&gt;Node9 -->
<g id="edge9" class="edge"><title>Node1&#45;&gt;Node9</title>
<path fill="none" stroke="midnightblue" d="M116.21,-91.4696C124.323,-91.4696 132.86,-91.4696 141.51,-91.4696"/>
<polygon fill="midnightblue" stroke="midnightblue" points="141.697,-94.9697 151.697,-91.4696 141.697,-87.9697 141.697,-94.9697"/>
</g>
<!-- Node10 -->
<g id="node10" class="node"><title>Node10</title>
<g id="a_node10"><a xlink:href="../../d6/d7e/class_t_m_c2208_stepper.html#a0ba01db6c4c01da7cb0ace8a524ab1da" target="_top" xlink:title=" ">
<polygon fill="white" stroke="black" points="154.5,-43.9696 154.5,-62.9696 333.5,-62.9696 333.5,-43.9696 154.5,-43.9696"/>
<text text-anchor="middle" x="244" y="-50.9696" font-family="Helvetica,sans-Serif" font-size="10.00">TMC2208Stepper::preCommunication</text>
</a>
</g>
</g>
<!-- Node1&#45;&gt;Node10 -->
<g id="edge10" class="edge"><title>Node1&#45;&gt;Node10</title>
<path fill="none" stroke="midnightblue" d="M105.431,-81.8806C130.149,-76.7758 160.739,-70.4583 186.792,-65.0778"/>
<polygon fill="midnightblue" stroke="midnightblue" points="187.817,-68.44 196.903,-62.9897 186.402,-61.5846 187.817,-68.44"/>
</g>
<!-- Node3 -->
<g id="node3" class="node"><title>Node3</title>
<g id="a_node3"><a xlink:href="../../d6/d7e/class_t_m_c2208_stepper.html#a7a670b15f45466f8d167a9b80fbf384f" target="_top" xlink:title=" ">
<polygon fill="white" stroke="black" points="377.5,-207.97 377.5,-226.97 511.5,-226.97 511.5,-207.97 377.5,-207.97"/>
<text text-anchor="middle" x="444.5" y="-214.97" font-family="Helvetica,sans-Serif" font-size="10.00">TMC2208Stepper::available</text>
</a>
</g>
</g>
<!-- Node2&#45;&gt;Node3 -->
<g id="edge2" class="edge"><title>Node2&#45;&gt;Node3</title>
<path fill="none" stroke="midnightblue" d="M282.804,-176.992C314.849,-185.064 360.983,-196.684 395.607,-205.406"/>
<polygon fill="midnightblue" stroke="midnightblue" points="394.948,-208.849 405.5,-207.898 396.657,-202.061 394.948,-208.849"/>
</g>
<!-- Node4 -->
<g id="node4" class="node"><title>Node4</title>
<g id="a_node4"><a xlink:href="../../d6/d7e/class_t_m_c2208_stepper.html#a4ec5d2b2f5a31259c7aba1f3208d63b8" target="_top" xlink:title=" ">
<polygon fill="white" stroke="black" points="386.5,-169.97 386.5,-188.97 502.5,-188.97 502.5,-169.97 386.5,-169.97"/>
<text text-anchor="middle" x="444.5" y="-176.97" font-family="Helvetica,sans-Serif" font-size="10.00">TMC2208Stepper::ms2</text>
</a>
</g>
</g>
<!-- Node2&#45;&gt;Node4 -->
<g id="edge3" class="edge"><title>Node2&#45;&gt;Node4</title>
<path fill="none" stroke="midnightblue" d="M327.17,-172.437C343.532,-173.426 360.531,-174.454 376.318,-175.408"/>
<polygon fill="midnightblue" stroke="midnightblue" points="376.305,-178.914 386.498,-176.024 376.727,-171.927 376.305,-178.914"/>
</g>
<!-- Node6 -->
<g id="node6" class="node"><title>Node6</title>
<g id="a_node6"><a xlink:href="../../d6/d7e/class_t_m_c2208_stepper.html#a129ceb04c3ea18e2c4ec1a59a51ece85" target="_top" xlink:title=" ">
<polygon fill="white" stroke="black" points="372,-131.97 372,-150.97 517,-150.97 517,-131.97 372,-131.97"/>
<text text-anchor="middle" x="444.5" y="-138.97" font-family="Helvetica,sans-Serif" font-size="10.00">TMC2208Stepper::serial_read</text>
</a>
</g>
</g>
<!-- Node2&#45;&gt;Node6 -->
<g id="edge6" class="edge"><title>Node2&#45;&gt;Node6</title>
<path fill="none" stroke="midnightblue" d="M317.787,-157.936C332.081,-156.064 347.166,-154.088 361.731,-152.18"/>
<polygon fill="midnightblue" stroke="midnightblue" points="362.256,-155.641 371.716,-150.872 361.346,-148.7 362.256,-155.641"/>
</g>
<!-- Node7 -->
<g id="node7" class="node"><title>Node7</title>
<g id="a_node7"><a xlink:href="../../d6/d7e/class_t_m_c2208_stepper.html#aa7f2c1a3a1cda9a328c186c6d7cbfe41" target="_top" xlink:title=" ">
<polygon fill="white" stroke="black" points="384,-82.4696 384,-112.47 505,-112.47 505,-82.4696 384,-82.4696"/>
<text text-anchor="start" x="392" y="-100.47" font-family="Helvetica,sans-Serif" font-size="10.00">TMC2208Stepper::serial</text>
<text text-anchor="middle" x="444.5" y="-89.4696" font-family="Helvetica,sans-Serif" font-size="10.00">_write</text>
</a>
</g>
</g>
<!-- Node2&#45;&gt;Node7 -->
<g id="edge7" class="edge"><title>Node2&#45;&gt;Node7</title>
<path fill="none" stroke="midnightblue" d="M308.251,-157.863C317.759,-155.397 327.289,-152.315 336,-148.47 354.056,-140.5 354.502,-131.6 372,-122.47 376.044,-120.36 380.305,-118.362 384.65,-116.486"/>
<polygon fill="midnightblue" stroke="midnightblue" points="386.304,-119.591 394.243,-112.575 383.662,-113.109 386.304,-119.591"/>
</g>
<!-- Node5 -->
<g id="node5" class="node"><title>Node5</title>
<g id="a_node5"><a xlink:href="../../d6/d7e/class_t_m_c2208_stepper.html#a5441dd87d0bcea4ffc309cb012166a57" target="_top" xlink:title=" ">
<polygon fill="white" stroke="black" points="553,-87.9696 553,-106.97 669,-106.97 669,-87.9696 553,-87.9696"/>
<text text-anchor="middle" x="611" y="-94.9696" font-family="Helvetica,sans-Serif" font-size="10.00">TMC2208Stepper::IOIN</text>
</a>
</g>
</g>
<!-- Node4&#45;&gt;Node5 -->
<g id="edge4" class="edge"><title>Node4&#45;&gt;Node5</title>
<path fill="none" stroke="midnightblue" d="M490.551,-169.968C499.507,-167.396 508.702,-164.251 517,-160.47 544.451,-147.961 572.683,-127.566 590.73,-113.383"/>
<polygon fill="midnightblue" stroke="midnightblue" points="593.106,-115.965 598.723,-106.982 588.73,-110.501 593.106,-115.965"/>
</g>
<!-- Node5&#45;&gt;Node1 -->
<g id="edge5" class="edge"><title>Node5&#45;&gt;Node1</title>
<path fill="none" stroke="midnightblue" d="M600.209,-87.8203C584.34,-72.9361 551.305,-44.9951 517,-34.4696 361.914,13.1145 308.13,9.56986 152,-34.4696 123.807,-42.4221 95.7291,-61.5756 77.9213,-75.4902"/>
<polygon fill="midnightblue" stroke="midnightblue" points="75.6433,-72.8308 70.0487,-81.8281 80.033,-78.2834 75.6433,-72.8308"/>
</g>
<!-- Node11 -->
<g id="node11" class="node"><title>Node11</title>
<g id="a_node11"><a xlink:href="../../d9/d98/class_s_switch.html#a6ff09d0850d551571dc333fb74ff8628" target="_top" xlink:title=" ">
<polygon fill="white" stroke="black" points="403,-43.9696 403,-62.9696 486,-62.9696 486,-43.9696 403,-43.9696"/>
<text text-anchor="middle" x="444.5" y="-50.9696" font-family="Helvetica,sans-Serif" font-size="10.00">SSwitch::active</text>
</a>
</g>
</g>
<!-- Node10&#45;&gt;Node11 -->
<g id="edge11" class="edge"><title>Node10&#45;&gt;Node11</title>
<path fill="none" stroke="midnightblue" d="M333.51,-53.4696C353.828,-53.4696 374.753,-53.4696 392.826,-53.4696"/>
<polygon fill="midnightblue" stroke="midnightblue" points="392.83,-56.9697 402.83,-53.4696 392.83,-49.9697 392.83,-56.9697"/>
</g>
</g>
</svg>
