<?xml version="1.0" encoding="UTF-8" standalone="no"?>
<!DOCTYPE svg PUBLIC "-//W3C//DTD SVG 1.1//EN"
 "http://www.w3.org/Graphics/SVG/1.1/DTD/svg11.dtd">
<!-- Generated by graphviz version 2.38.0 (20140413.2041)
 -->
<!-- Title: TMC2208Stepper::intpol Pages: 1 -->
<svg width="1179pt" height="235pt"
 viewBox="0.00 0.00 1179.00 235.47" xmlns="http://www.w3.org/2000/svg" xmlns:xlink="http://www.w3.org/1999/xlink">
<g id="graph0" class="graph" transform="scale(1 1) rotate(0) translate(4 231.47)">
<title>TMC2208Stepper::intpol</title>
<polygon fill="white" stroke="none" points="-4,4 -4,-231.47 1175,-231.47 1175,4 -4,4"/>
<!-- Node1 -->
<g id="node1" class="node"><title>Node1</title>
<g id="a_node1"><a xlink:title=" ">
<polygon fill="#bfbfbf" stroke="black" points="0,-81.9696 0,-100.97 121,-100.97 121,-81.9696 0,-81.9696"/>
<text text-anchor="middle" x="60.5" y="-88.9696" font-family="Helvetica,sans-Serif" font-size="10.00">TMC2208Stepper::intpol</text>
</a>
</g>
</g>
<!-- Node2 -->
<g id="node2" class="node"><title>Node2</title>
<g id="a_node2"><a xlink:href="../../d6/d7e/class_t_m_c2208_stepper.html#a787cbae9adfab6f79a873310c472e7cd" target="_top" xlink:title=" ">
<polygon fill="white" stroke="black" points="157,-81.9696 157,-100.97 278,-100.97 278,-81.9696 157,-81.9696"/>
<text text-anchor="middle" x="217.5" y="-88.9696" font-family="Helvetica,sans-Serif" font-size="10.00">TMC2208Stepper::intpol</text>
</a>
</g>
</g>
<!-- Node1&#45;&gt;Node2 -->
<g id="edge1" class="edge"><title>Node1&#45;&gt;Node2</title>
<path fill="none" stroke="midnightblue" d="M121.427,-91.4696C129.724,-91.4696 138.305,-91.4696 146.762,-91.4696"/>
<polygon fill="midnightblue" stroke="midnightblue" points="146.988,-94.9697 156.988,-91.4696 146.988,-87.9697 146.988,-94.9697"/>
</g>
<!-- Node3 -->
<g id="node3" class="node"><title>Node3</title>
<g id="a_node3"><a xlink:href="../../d6/d7e/class_t_m_c2208_stepper.html#aa11281f54c293f3ff2539b1a583682a9" target="_top" xlink:title=" ">
<polygon fill="white" stroke="black" points="314,-81.9696 314,-100.97 466,-100.97 466,-81.9696 314,-81.9696"/>
<text text-anchor="middle" x="390" y="-88.9696" font-family="Helvetica,sans-Serif" font-size="10.00">TMC2208Stepper::CHOPCONF</text>
</a>
</g>
</g>
<!-- Node2&#45;&gt;Node3 -->
<g id="edge2" class="edge"><title>Node2&#45;&gt;Node3</title>
<path fill="none" stroke="midnightblue" d="M278.133,-91.4696C286.415,-91.4696 295.053,-91.4696 303.692,-91.4696"/>
<polygon fill="midnightblue" stroke="midnightblue" points="303.813,-94.9697 313.813,-91.4696 303.813,-87.9697 303.813,-94.9697"/>
</g>
<!-- Node4 -->
<g id="node4" class="node"><title>Node4</title>
<g id="a_node4"><a xlink:href="../../d6/d7e/class_t_m_c2208_stepper.html#a2fae2050849c3ab7968012def8ea1cc5" target="_top" xlink:title=" ">
<polygon fill="white" stroke="black" points="502,-81.9696 502,-100.97 618,-100.97 618,-81.9696 502,-81.9696"/>
<text text-anchor="middle" x="560" y="-88.9696" font-family="Helvetica,sans-Serif" font-size="10.00">TMC2208Stepper::read</text>
</a>
</g>
</g>
<!-- Node3&#45;&gt;Node4 -->
<g id="edge3" class="edge"><title>Node3&#45;&gt;Node4</title>
<path fill="none" stroke="midnightblue" d="M466.155,-91.4696C474.664,-91.4696 483.296,-91.4696 491.696,-91.4696"/>
<polygon fill="midnightblue" stroke="midnightblue" points="491.802,-94.9697 501.802,-91.4696 491.802,-87.9697 491.802,-94.9697"/>
</g>
<!-- Node5 -->
<g id="node5" class="node"><title>Node5</title>
<g id="a_node5"><a xlink:href="../../d6/d7e/class_t_m_c2208_stepper.html#a321ad81155b7a20c0858920d32d0b074" target="_top" xlink:title=" ">
<polygon fill="white" stroke="black" points="663,-157.97 663,-176.97 829,-176.97 829,-157.97 663,-157.97"/>
<text text-anchor="middle" x="746" y="-164.97" font-family="Helvetica,sans-Serif" font-size="10.00">TMC2208Stepper::_sendDatagram</text>
</a>
</g>
</g>
<!-- Node4&#45;&gt;Node5 -->
<g id="edge4" class="edge"><title>Node4&#45;&gt;Node5</title>
<path fill="none" stroke="midnightblue" d="M573.494,-101.088C590.681,-113.843 623.022,-136.174 654,-148.47 660.6,-151.089 667.62,-153.37 674.72,-155.35"/>
<polygon fill="midnightblue" stroke="midnightblue" points="673.861,-158.743 684.42,-157.869 675.62,-151.968 673.861,-158.743"/>
</g>
<!-- Node11 -->
<g id="node11" class="node"><title>Node11</title>
<g id="a_node11"><a xlink:href="../../d6/d7e/class_t_m_c2208_stepper.html#a409c19fa6b052a370a317d061bf9af4e" target="_top" xlink:title=" ">
<polygon fill="white" stroke="black" points="678,-119.97 678,-138.97 814,-138.97 814,-119.97 678,-119.97"/>
<text text-anchor="middle" x="746" y="-126.97" font-family="Helvetica,sans-Serif" font-size="10.00">TMC2208Stepper::calcCRC</text>
</a>
</g>
</g>
<!-- Node4&#45;&gt;Node11 -->
<g id="edge11" class="edge"><title>Node4&#45;&gt;Node11</title>
<path fill="none" stroke="midnightblue" d="M607.431,-101.059C632.149,-106.163 662.739,-112.481 688.792,-117.861"/>
<polygon fill="midnightblue" stroke="midnightblue" points="688.402,-121.355 698.903,-119.95 689.817,-114.499 688.402,-121.355"/>
</g>
<!-- Node12 -->
<g id="node12" class="node"><title>Node12</title>
<g id="a_node12"><a xlink:href="../../d6/d7e/class_t_m_c2208_stepper.html#a673ade174158b47e3b345b1d7b3c473d" target="_top" xlink:title=" ">
<polygon fill="white" stroke="black" points="654,-81.9696 654,-100.97 838,-100.97 838,-81.9696 654,-81.9696"/>
<text text-anchor="middle" x="746" y="-88.9696" font-family="Helvetica,sans-Serif" font-size="10.00">TMC2208Stepper::postCommunication</text>
</a>
</g>
</g>
<!-- Node4&#45;&gt;Node12 -->
<g id="edge12" class="edge"><title>Node4&#45;&gt;Node12</title>
<path fill="none" stroke="midnightblue" d="M618.21,-91.4696C626.323,-91.4696 634.86,-91.4696 643.51,-91.4696"/>
<polygon fill="midnightblue" stroke="midnightblue" points="643.697,-94.9697 653.697,-91.4696 643.697,-87.9697 643.697,-94.9697"/>
</g>
<!-- Node13 -->
<g id="node13" class="node"><title>Node13</title>
<g id="a_node13"><a xlink:href="../../d6/d7e/class_t_m_c2208_stepper.html#a0ba01db6c4c01da7cb0ace8a524ab1da" target="_top" xlink:title=" ">
<polygon fill="white" stroke="black" points="656.5,-43.9696 656.5,-62.9696 835.5,-62.9696 835.5,-43.9696 656.5,-43.9696"/>
<text text-anchor="middle" x="746" y="-50.9696" font-family="Helvetica,sans-Serif" font-size="10.00">TMC2208Stepper::preCommunication</text>
</a>
</g>
</g>
<!-- Node4&#45;&gt;Node13 -->
<g id="edge13" class="edge"><title>Node4&#45;&gt;Node13</title>
<path fill="none" stroke="midnightblue" d="M607.431,-81.8806C632.149,-76.7758 662.739,-70.4583 688.792,-65.0778"/>
<polygon fill="midnightblue" stroke="midnightblue" points="689.817,-68.44 698.903,-62.9897 688.402,-61.5846 689.817,-68.44"/>
</g>
<!-- Node6 -->
<g id="node6" class="node"><title>Node6</title>
<g id="a_node6"><a xlink:href="../../d6/d7e/class_t_m_c2208_stepper.html#a7a670b15f45466f8d167a9b80fbf384f" target="_top" xlink:title=" ">
<polygon fill="white" stroke="black" points="879.5,-207.97 879.5,-226.97 1013.5,-226.97 1013.5,-207.97 879.5,-207.97"/>
<text text-anchor="middle" x="946.5" y="-214.97" font-family="Helvetica,sans-Serif" font-size="10.00">TMC2208Stepper::available</text>
</a>
</g>
</g>
<!-- Node5&#45;&gt;Node6 -->
<g id="edge5" class="edge"><title>Node5&#45;&gt;Node6</title>
<path fill="none" stroke="midnightblue" d="M784.804,-176.992C816.849,-185.064 862.983,-196.684 897.607,-205.406"/>
<polygon fill="midnightblue" stroke="midnightblue" points="896.948,-208.849 907.5,-207.898 898.657,-202.061 896.948,-208.849"/>
</g>
<!-- Node7 -->
<g id="node7" class="node"><title>Node7</title>
<g id="a_node7"><a xlink:href="../../d6/d7e/class_t_m_c2208_stepper.html#a4ec5d2b2f5a31259c7aba1f3208d63b8" target="_top" xlink:title=" ">
<polygon fill="white" stroke="black" points="888.5,-169.97 888.5,-188.97 1004.5,-188.97 1004.5,-169.97 888.5,-169.97"/>
<text text-anchor="middle" x="946.5" y="-176.97" font-family="Helvetica,sans-Serif" font-size="10.00">TMC2208Stepper::ms2</text>
</a>
</g>
</g>
<!-- Node5&#45;&gt;Node7 -->
<g id="edge6" class="edge"><title>Node5&#45;&gt;Node7</title>
<path fill="none" stroke="midnightblue" d="M829.17,-172.437C845.532,-173.426 862.531,-174.454 878.318,-175.408"/>
<polygon fill="midnightblue" stroke="midnightblue" points="878.305,-178.914 888.498,-176.024 878.727,-171.927 878.305,-178.914"/>
</g>
<!-- Node9 -->
<g id="node9" class="node"><title>Node9</title>
<g id="a_node9"><a xlink:href="../../d6/d7e/class_t_m_c2208_stepper.html#a129ceb04c3ea18e2c4ec1a59a51ece85" target="_top" xlink:title=" ">
<polygon fill="white" stroke="black" points="874,-131.97 874,-150.97 1019,-150.97 1019,-131.97 874,-131.97"/>
<text text-anchor="middle" x="946.5" y="-138.97" font-family="Helvetica,sans-Serif" font-size="10.00">TMC2208Stepper::serial_read</text>
</a>
</g>
</g>
<!-- Node5&#45;&gt;Node9 -->
<g id="edge9" class="edge"><title>Node5&#45;&gt;Node9</title>
<path fill="none" stroke="midnightblue" d="M819.787,-157.936C834.081,-156.064 849.166,-154.088 863.731,-152.18"/>
<polygon fill="midnightblue" stroke="midnightblue" points="864.256,-155.641 873.716,-150.872 863.346,-148.7 864.256,-155.641"/>
</g>
<!-- Node10 -->
<g id="node10" class="node"><title>Node10</title>
<g id="a_node10"><a xlink:href="../../d6/d7e/class_t_m_c2208_stepper.html#aa7f2c1a3a1cda9a328c186c6d7cbfe41" target="_top" xlink:title=" ">
<polygon fill="white" stroke="black" points="886,-82.4696 886,-112.47 1007,-112.47 1007,-82.4696 886,-82.4696"/>
<text text-anchor="start" x="894" y="-100.47" font-family="Helvetica,sans-Serif" font-size="10.00">TMC2208Stepper::serial</text>
<text text-anchor="middle" x="946.5" y="-89.4696" font-family="Helvetica,sans-Serif" font-size="10.00">_write</text>
</a>
</g>
</g>
<!-- Node5&#45;&gt;Node10 -->
<g id="edge10" class="edge"><title>Node5&#45;&gt;Node10</title>
<path fill="none" stroke="midnightblue" d="M810.251,-157.863C819.759,-155.397 829.289,-152.315 838,-148.47 856.056,-140.5 856.502,-131.6 874,-122.47 878.044,-120.36 882.305,-118.362 886.65,-116.486"/>
<polygon fill="midnightblue" stroke="midnightblue" points="888.304,-119.591 896.243,-112.575 885.662,-113.109 888.304,-119.591"/>
</g>
<!-- Node8 -->
<g id="node8" class="node"><title>Node8</title>
<g id="a_node8"><a xlink:href="../../d6/d7e/class_t_m_c2208_stepper.html#a5441dd87d0bcea4ffc309cb012166a57" target="_top" xlink:title=" ">
<polygon fill="white" stroke="black" points="1055,-87.9696 1055,-106.97 1171,-106.97 1171,-87.9696 1055,-87.9696"/>
<text text-anchor="middle" x="1113" y="-94.9696" font-family="Helvetica,sans-Serif" font-size="10.00">TMC2208Stepper::IOIN</text>
</a>
</g>
</g>
<!-- Node7&#45;&gt;Node8 -->
<g id="edge7" class="edge"><title>Node7&#45;&gt;Node8</title>
<path fill="none" stroke="midnightblue" d="M992.551,-169.968C1001.51,-167.396 1010.7,-164.251 1019,-160.47 1046.45,-147.961 1074.68,-127.566 1092.73,-113.383"/>
<polygon fill="midnightblue" stroke="midnightblue" points="1095.11,-115.965 1100.72,-106.982 1090.73,-110.501 1095.11,-115.965"/>
</g>
<!-- Node8&#45;&gt;Node4 -->
<g id="edge8" class="edge"><title>Node8&#45;&gt;Node4</title>
<path fill="none" stroke="midnightblue" d="M1102.21,-87.8203C1086.34,-72.9361 1053.3,-44.9951 1019,-34.4696 863.914,13.1145 810.13,9.56986 654,-34.4696 625.807,-42.4221 597.729,-61.5756 579.921,-75.4902"/>
<polygon fill="midnightblue" stroke="midnightblue" points="577.643,-72.8308 572.049,-81.8281 582.033,-78.2834 577.643,-72.8308"/>
</g>
<!-- Node14 -->
<g id="node14" class="node"><title>Node14</title>
<g id="a_node14"><a xlink:href="../../d9/d98/class_s_switch.html#a6ff09d0850d551571dc333fb74ff8628" target="_top" xlink:title=" ">
<polygon fill="white" stroke="black" points="905,-43.9696 905,-62.9696 988,-62.9696 988,-43.9696 905,-43.9696"/>
<text text-anchor="middle" x="946.5" y="-50.9696" font-family="Helvetica,sans-Serif" font-size="10.00">SSwitch::active</text>
</a>
</g>
</g>
<!-- Node13&#45;&gt;Node14 -->
<g id="edge14" class="edge"><title>Node13&#45;&gt;Node14</title>
<path fill="none" stroke="midnightblue" d="M835.51,-53.4696C855.828,-53.4696 876.753,-53.4696 894.826,-53.4696"/>
<polygon fill="midnightblue" stroke="midnightblue" points="894.83,-56.9697 904.83,-53.4696 894.83,-49.9697 894.83,-56.9697"/>
</g>
</g>
</svg>
