<?xml version="1.0" encoding="UTF-8" standalone="no"?>
<!DOCTYPE svg PUBLIC "-//W3C//DTD SVG 1.1//EN"
 "http://www.w3.org/Graphics/SVG/1.1/DTD/svg11.dtd">
<!-- Generated by graphviz version 2.38.0 (20140413.2041)
 -->
<!-- Title: TMC2208Stepper::isEnabled Pages: 1 -->
<svg width="1038pt" height="192pt"
 viewBox="0.00 0.00 1038.00 192.00" xmlns="http://www.w3.org/2000/svg" xmlns:xlink="http://www.w3.org/1999/xlink">
<g id="graph0" class="graph" transform="scale(1 1) rotate(0) translate(4 188)">
<title>TMC2208Stepper::isEnabled</title>
<polygon fill="white" stroke="none" points="-4,4 -4,-188 1034,-188 1034,4 -4,4"/>
<!-- Node1 -->
<g id="node1" class="node"><title>Node1</title>
<g id="a_node1"><a xlink:title=" ">
<polygon fill="#bfbfbf" stroke="black" points="0,-99.5 0,-118.5 140,-118.5 140,-99.5 0,-99.5"/>
<text text-anchor="middle" x="70" y="-106.5" font-family="Helvetica,sans-Serif" font-size="10.00">TMC2208Stepper::isEnabled</text>
</a>
</g>
</g>
<!-- Node2 -->
<g id="node2" class="node"><title>Node2</title>
<g id="a_node2"><a xlink:href="../../d6/d7e/class_t_m_c2208_stepper.html#acc1f92ce007231215fc4266fb4b99a62" target="_top" xlink:title=" ">
<polygon fill="white" stroke="black" points="176,-118.5 176,-137.5 289,-137.5 289,-118.5 176,-118.5"/>
<text text-anchor="middle" x="232.5" y="-125.5" font-family="Helvetica,sans-Serif" font-size="10.00">TMC2208Stepper::enn</text>
</a>
</g>
</g>
<!-- Node1&#45;&gt;Node2 -->
<g id="edge1" class="edge"><title>Node1&#45;&gt;Node2</title>
<path fill="none" stroke="midnightblue" d="M140.464,-117.223C148.897,-118.221 157.491,-119.239 165.865,-120.23"/>
<polygon fill="midnightblue" stroke="midnightblue" points="165.603,-123.723 175.945,-121.423 166.426,-116.772 165.603,-123.723"/>
</g>
<!-- Node14 -->
<g id="node14" class="node"><title>Node14</title>
<g id="a_node14"><a xlink:href="../../d6/d7e/class_t_m_c2208_stepper.html#aad3790e8c9040b5b4770ee65ed06b1ed" target="_top" xlink:title=" ">
<polygon fill="white" stroke="black" points="177.5,-80.5 177.5,-99.5 287.5,-99.5 287.5,-80.5 177.5,-80.5"/>
<text text-anchor="middle" x="232.5" y="-87.5" font-family="Helvetica,sans-Serif" font-size="10.00">TMC2208Stepper::toff</text>
</a>
</g>
</g>
<!-- Node1&#45;&gt;Node14 -->
<g id="edge14" class="edge"><title>Node1&#45;&gt;Node14</title>
<path fill="none" stroke="midnightblue" d="M140.464,-100.777C149.355,-99.7244 158.425,-98.6506 167.228,-97.6086"/>
<polygon fill="midnightblue" stroke="midnightblue" points="167.893,-101.054 177.412,-96.4029 167.07,-94.1029 167.893,-101.054"/>
</g>
<!-- Node3 -->
<g id="node3" class="node"><title>Node3</title>
<g id="a_node3"><a xlink:href="../../d6/d7e/class_t_m_c2208_stepper.html#a5441dd87d0bcea4ffc309cb012166a57" target="_top" xlink:title=" ">
<polygon fill="white" stroke="black" points="343,-118.5 343,-137.5 459,-137.5 459,-118.5 343,-118.5"/>
<text text-anchor="middle" x="401" y="-125.5" font-family="Helvetica,sans-Serif" font-size="10.00">TMC2208Stepper::IOIN</text>
</a>
</g>
</g>
<!-- Node2&#45;&gt;Node3 -->
<g id="edge2" class="edge"><title>Node2&#45;&gt;Node3</title>
<path fill="none" stroke="midnightblue" d="M289.405,-128C303.241,-128 318.21,-128 332.533,-128"/>
<polygon fill="midnightblue" stroke="midnightblue" points="332.822,-131.5 342.822,-128 332.822,-124.5 332.822,-131.5"/>
</g>
<!-- Node4 -->
<g id="node4" class="node"><title>Node4</title>
<g id="a_node4"><a xlink:href="../../d6/d7e/class_t_m_c2208_stepper.html#a2fae2050849c3ab7968012def8ea1cc5" target="_top" xlink:title=" ">
<polygon fill="white" stroke="black" points="513,-80.5 513,-99.5 629,-99.5 629,-80.5 513,-80.5"/>
<text text-anchor="middle" x="571" y="-87.5" font-family="Helvetica,sans-Serif" font-size="10.00">TMC2208Stepper::read</text>
</a>
</g>
</g>
<!-- Node3&#45;&gt;Node4 -->
<g id="edge3" class="edge"><title>Node3&#45;&gt;Node4</title>
<path fill="none" stroke="midnightblue" d="M444.393,-118.411C466.763,-113.351 494.398,-107.1 518.047,-101.751"/>
<polygon fill="midnightblue" stroke="midnightblue" points="518.93,-105.14 527.911,-99.5201 517.386,-98.3125 518.93,-105.14"/>
</g>
<!-- Node5 -->
<g id="node5" class="node"><title>Node5</title>
<g id="a_node5"><a xlink:href="../../d6/d7e/class_t_m_c2208_stepper.html#a321ad81155b7a20c0858920d32d0b074" target="_top" xlink:title=" ">
<polygon fill="white" stroke="black" points="674,-118.5 674,-137.5 840,-137.5 840,-118.5 674,-118.5"/>
<text text-anchor="middle" x="757" y="-125.5" font-family="Helvetica,sans-Serif" font-size="10.00">TMC2208Stepper::_sendDatagram</text>
</a>
</g>
</g>
<!-- Node4&#45;&gt;Node5 -->
<g id="edge4" class="edge"><title>Node4&#45;&gt;Node5</title>
<path fill="none" stroke="midnightblue" d="M618.431,-99.589C643.149,-104.694 673.739,-111.011 699.792,-116.392"/>
<polygon fill="midnightblue" stroke="midnightblue" points="699.402,-119.885 709.903,-118.48 700.817,-113.03 699.402,-119.885"/>
</g>
<!-- Node10 -->
<g id="node10" class="node"><title>Node10</title>
<g id="a_node10"><a xlink:href="../../d6/d7e/class_t_m_c2208_stepper.html#a409c19fa6b052a370a317d061bf9af4e" target="_top" xlink:title=" ">
<polygon fill="white" stroke="black" points="689,-80.5 689,-99.5 825,-99.5 825,-80.5 689,-80.5"/>
<text text-anchor="middle" x="757" y="-87.5" font-family="Helvetica,sans-Serif" font-size="10.00">TMC2208Stepper::calcCRC</text>
</a>
</g>
</g>
<!-- Node4&#45;&gt;Node10 -->
<g id="edge10" class="edge"><title>Node4&#45;&gt;Node10</title>
<path fill="none" stroke="midnightblue" d="M629.21,-90C644.848,-90 662.059,-90 678.621,-90"/>
<polygon fill="midnightblue" stroke="midnightblue" points="678.829,-93.5001 688.829,-90 678.829,-86.5001 678.829,-93.5001"/>
</g>
<!-- Node11 -->
<g id="node11" class="node"><title>Node11</title>
<g id="a_node11"><a xlink:href="../../d6/d7e/class_t_m_c2208_stepper.html#a673ade174158b47e3b345b1d7b3c473d" target="_top" xlink:title=" ">
<polygon fill="white" stroke="black" points="665,-42.5 665,-61.5 849,-61.5 849,-42.5 665,-42.5"/>
<text text-anchor="middle" x="757" y="-49.5" font-family="Helvetica,sans-Serif" font-size="10.00">TMC2208Stepper::postCommunication</text>
</a>
</g>
</g>
<!-- Node4&#45;&gt;Node11 -->
<g id="edge11" class="edge"><title>Node4&#45;&gt;Node11</title>
<path fill="none" stroke="midnightblue" d="M618.431,-80.411C643.149,-75.3061 673.739,-68.9887 699.792,-63.6082"/>
<polygon fill="midnightblue" stroke="midnightblue" points="700.817,-66.9703 709.903,-61.5201 699.402,-60.115 700.817,-66.9703"/>
</g>
<!-- Node12 -->
<g id="node12" class="node"><title>Node12</title>
<g id="a_node12"><a xlink:href="../../d6/d7e/class_t_m_c2208_stepper.html#a0ba01db6c4c01da7cb0ace8a524ab1da" target="_top" xlink:title=" ">
<polygon fill="white" stroke="black" points="667.5,-1.5 667.5,-20.5 846.5,-20.5 846.5,-1.5 667.5,-1.5"/>
<text text-anchor="middle" x="757" y="-8.5" font-family="Helvetica,sans-Serif" font-size="10.00">TMC2208Stepper::preCommunication</text>
</a>
</g>
</g>
<!-- Node4&#45;&gt;Node12 -->
<g id="edge12" class="edge"><title>Node4&#45;&gt;Node12</title>
<path fill="none" stroke="midnightblue" d="M584.847,-80.3084C602.173,-67.6776 634.393,-45.7076 665,-33 674.232,-29.167 684.28,-25.906 694.219,-23.1633"/>
<polygon fill="midnightblue" stroke="midnightblue" points="695.294,-26.5002 704.088,-20.5914 693.529,-19.7264 695.294,-26.5002"/>
</g>
<!-- Node6 -->
<g id="node6" class="node"><title>Node6</title>
<g id="a_node6"><a xlink:href="../../d6/d7e/class_t_m_c2208_stepper.html#a7a670b15f45466f8d167a9b80fbf384f" target="_top" xlink:title=" ">
<polygon fill="white" stroke="black" points="890.5,-76.5 890.5,-95.5 1024.5,-95.5 1024.5,-76.5 890.5,-76.5"/>
<text text-anchor="middle" x="957.5" y="-83.5" font-family="Helvetica,sans-Serif" font-size="10.00">TMC2208Stepper::available</text>
</a>
</g>
</g>
<!-- Node5&#45;&gt;Node6 -->
<g id="edge5" class="edge"><title>Node5&#45;&gt;Node6</title>
<path fill="none" stroke="midnightblue" d="M803.837,-118.476C818.29,-115.46 834.315,-112.104 849,-109 866.405,-105.321 885.386,-101.272 902.488,-97.6105"/>
<polygon fill="midnightblue" stroke="midnightblue" points="903.27,-101.022 912.315,-95.5049 901.804,-94.1778 903.27,-101.022"/>
</g>
<!-- Node7 -->
<g id="node7" class="node"><title>Node7</title>
<g id="a_node7"><a xlink:href="../../d6/d7e/class_t_m_c2208_stepper.html#a4ec5d2b2f5a31259c7aba1f3208d63b8" target="_top" xlink:title=" ">
<polygon fill="white" stroke="black" points="899.5,-164.5 899.5,-183.5 1015.5,-183.5 1015.5,-164.5 899.5,-164.5"/>
<text text-anchor="middle" x="957.5" y="-171.5" font-family="Helvetica,sans-Serif" font-size="10.00">TMC2208Stepper::ms2</text>
</a>
</g>
</g>
<!-- Node5&#45;&gt;Node7 -->
<g id="edge6" class="edge"><title>Node5&#45;&gt;Node7</title>
<path fill="none" stroke="midnightblue" d="M799.129,-137.531C830.003,-144.686 872.462,-154.525 905.497,-162.181"/>
<polygon fill="midnightblue" stroke="midnightblue" points="904.891,-165.633 915.423,-164.481 906.472,-158.814 904.891,-165.633"/>
</g>
<!-- Node8 -->
<g id="node8" class="node"><title>Node8</title>
<g id="a_node8"><a xlink:href="../../d6/d7e/class_t_m_c2208_stepper.html#a129ceb04c3ea18e2c4ec1a59a51ece85" target="_top" xlink:title=" ">
<polygon fill="white" stroke="black" points="885,-38.5 885,-57.5 1030,-57.5 1030,-38.5 885,-38.5"/>
<text text-anchor="middle" x="957.5" y="-45.5" font-family="Helvetica,sans-Serif" font-size="10.00">TMC2208Stepper::serial_read</text>
</a>
</g>
</g>
<!-- Node5&#45;&gt;Node8 -->
<g id="edge8" class="edge"><title>Node5&#45;&gt;Node8</title>
<path fill="none" stroke="midnightblue" d="M827.868,-118.406C835.271,-115.945 842.471,-112.861 849,-109 870.163,-96.4864 864.182,-80.0793 885,-67 888.39,-64.8701 892.015,-62.9771 895.767,-61.295"/>
<polygon fill="midnightblue" stroke="midnightblue" points="897.278,-64.4614 905.293,-57.5333 894.707,-57.9506 897.278,-64.4614"/>
</g>
<!-- Node9 -->
<g id="node9" class="node"><title>Node9</title>
<g id="a_node9"><a xlink:href="../../d6/d7e/class_t_m_c2208_stepper.html#aa7f2c1a3a1cda9a328c186c6d7cbfe41" target="_top" xlink:title=" ">
<polygon fill="white" stroke="black" points="897,-115 897,-145 1018,-145 1018,-115 897,-115"/>
<text text-anchor="start" x="905" y="-133" font-family="Helvetica,sans-Serif" font-size="10.00">TMC2208Stepper::serial</text>
<text text-anchor="middle" x="957.5" y="-122" font-family="Helvetica,sans-Serif" font-size="10.00">_write</text>
</a>
</g>
</g>
<!-- Node5&#45;&gt;Node9 -->
<g id="edge9" class="edge"><title>Node5&#45;&gt;Node9</title>
<path fill="none" stroke="midnightblue" d="M840.17,-128.828C855.596,-128.983 871.589,-129.144 886.598,-129.296"/>
<polygon fill="midnightblue" stroke="midnightblue" points="886.777,-132.798 896.812,-129.399 886.848,-125.798 886.777,-132.798"/>
</g>
<!-- Node7&#45;&gt;Node3 -->
<g id="edge7" class="edge"><title>Node7&#45;&gt;Node3</title>
<path fill="none" stroke="midnightblue" d="M899.144,-169.242C795.896,-160.677 579.282,-142.707 469.24,-133.578"/>
<polygon fill="midnightblue" stroke="midnightblue" points="469.508,-130.088 459.253,-132.75 468.929,-137.064 469.508,-130.088"/>
</g>
<!-- Node13 -->
<g id="node13" class="node"><title>Node13</title>
<g id="a_node13"><a xlink:href="../../d9/d98/class_s_switch.html#a6ff09d0850d551571dc333fb74ff8628" target="_top" xlink:title=" ">
<polygon fill="white" stroke="black" points="916,-0.5 916,-19.5 999,-19.5 999,-0.5 916,-0.5"/>
<text text-anchor="middle" x="957.5" y="-7.5" font-family="Helvetica,sans-Serif" font-size="10.00">SSwitch::active</text>
</a>
</g>
</g>
<!-- Node12&#45;&gt;Node13 -->
<g id="edge13" class="edge"><title>Node12&#45;&gt;Node13</title>
<path fill="none" stroke="midnightblue" d="M846.51,-10.5541C866.828,-10.4517 887.753,-10.3463 905.826,-10.2553"/>
<polygon fill="midnightblue" stroke="midnightblue" points="905.848,-13.7553 915.83,-10.2049 905.812,-6.75541 905.848,-13.7553"/>
</g>
<!-- Node15 -->
<g id="node15" class="node"><title>Node15</title>
<g id="a_node15"><a xlink:href="../../d6/d7e/class_t_m_c2208_stepper.html#aa11281f54c293f3ff2539b1a583682a9" target="_top" xlink:title=" ">
<polygon fill="white" stroke="black" points="325,-80.5 325,-99.5 477,-99.5 477,-80.5 325,-80.5"/>
<text text-anchor="middle" x="401" y="-87.5" font-family="Helvetica,sans-Serif" font-size="10.00">TMC2208Stepper::CHOPCONF</text>
</a>
</g>
</g>
<!-- Node14&#45;&gt;Node15 -->
<g id="edge15" class="edge"><title>Node14&#45;&gt;Node15</title>
<path fill="none" stroke="midnightblue" d="M287.558,-90C296.274,-90 305.48,-90 314.719,-90"/>
<polygon fill="midnightblue" stroke="midnightblue" points="314.735,-93.5001 324.735,-90 314.735,-86.5001 314.735,-93.5001"/>
</g>
<!-- Node15&#45;&gt;Node4 -->
<g id="edge16" class="edge"><title>Node15&#45;&gt;Node4</title>
<path fill="none" stroke="midnightblue" d="M477.155,-90C485.664,-90 494.296,-90 502.696,-90"/>
<polygon fill="midnightblue" stroke="midnightblue" points="502.802,-93.5001 512.802,-90 502.802,-86.5001 502.802,-93.5001"/>
</g>
</g>
</svg>
