<?xml version="1.0" encoding="UTF-8" standalone="no"?>
<!DOCTYPE svg PUBLIC "-//W3C//DTD SVG 1.1//EN"
 "http://www.w3.org/Graphics/SVG/1.1/DTD/svg11.dtd">
<!-- Generated by graphviz version 2.38.0 (20140413.2041)
 -->
<!-- Title: TMC2208Stepper::pwm_grad_auto Pages: 1 -->
<svg width="1021pt" height="235pt"
 viewBox="0.00 0.00 1021.00 235.47" xmlns="http://www.w3.org/2000/svg" xmlns:xlink="http://www.w3.org/1999/xlink">
<g id="graph0" class="graph" transform="scale(1 1) rotate(0) translate(4 231.47)">
<title>TMC2208Stepper::pwm_grad_auto</title>
<polygon fill="white" stroke="none" points="-4,4 -4,-231.47 1017,-231.47 1017,4 -4,4"/>
<!-- Node1 -->
<g id="node1" class="node"><title>Node1</title>
<g id="a_node1"><a xlink:title=" ">
<polygon fill="#bfbfbf" stroke="black" points="0,-76.4696 0,-106.47 118,-106.47 118,-76.4696 0,-76.4696"/>
<text text-anchor="start" x="8" y="-94.4696" font-family="Helvetica,sans-Serif" font-size="10.00">TMC2208Stepper::pwm</text>
<text text-anchor="middle" x="59" y="-83.4696" font-family="Helvetica,sans-Serif" font-size="10.00">_grad_auto</text>
</a>
</g>
</g>
<!-- Node2 -->
<g id="node2" class="node"><title>Node2</title>
<g id="a_node2"><a xlink:href="../../d6/d7e/class_t_m_c2208_stepper.html#a3cad83843fc7cc00cbbff7d620690501" target="_top" xlink:title=" ">
<polygon fill="white" stroke="black" points="154,-81.9696 154,-100.97 308,-100.97 308,-81.9696 154,-81.9696"/>
<text text-anchor="middle" x="231" y="-88.9696" font-family="Helvetica,sans-Serif" font-size="10.00">TMC2208Stepper::PWM_AUTO</text>
</a>
</g>
</g>
<!-- Node1&#45;&gt;Node2 -->
<g id="edge1" class="edge"><title>Node1&#45;&gt;Node2</title>
<path fill="none" stroke="midnightblue" d="M118.029,-91.4696C126.325,-91.4696 135.004,-91.4696 143.7,-91.4696"/>
<polygon fill="midnightblue" stroke="midnightblue" points="143.896,-94.9697 153.896,-91.4696 143.896,-87.9697 143.896,-94.9697"/>
</g>
<!-- Node3 -->
<g id="node3" class="node"><title>Node3</title>
<g id="a_node3"><a xlink:href="../../d6/d7e/class_t_m_c2208_stepper.html#a2fae2050849c3ab7968012def8ea1cc5" target="_top" xlink:title=" ">
<polygon fill="white" stroke="black" points="344,-81.9696 344,-100.97 460,-100.97 460,-81.9696 344,-81.9696"/>
<text text-anchor="middle" x="402" y="-88.9696" font-family="Helvetica,sans-Serif" font-size="10.00">TMC2208Stepper::read</text>
</a>
</g>
</g>
<!-- Node2&#45;&gt;Node3 -->
<g id="edge2" class="edge"><title>Node2&#45;&gt;Node3</title>
<path fill="none" stroke="midnightblue" d="M308.095,-91.4696C316.629,-91.4696 325.277,-91.4696 333.689,-91.4696"/>
<polygon fill="midnightblue" stroke="midnightblue" points="333.807,-94.9697 343.807,-91.4696 333.807,-87.9697 333.807,-94.9697"/>
</g>
<!-- Node4 -->
<g id="node4" class="node"><title>Node4</title>
<g id="a_node4"><a xlink:href="../../d6/d7e/class_t_m_c2208_stepper.html#a321ad81155b7a20c0858920d32d0b074" target="_top" xlink:title=" ">
<polygon fill="white" stroke="black" points="505,-157.97 505,-176.97 671,-176.97 671,-157.97 505,-157.97"/>
<text text-anchor="middle" x="588" y="-164.97" font-family="Helvetica,sans-Serif" font-size="10.00">TMC2208Stepper::_sendDatagram</text>
</a>
</g>
</g>
<!-- Node3&#45;&gt;Node4 -->
<g id="edge3" class="edge"><title>Node3&#45;&gt;Node4</title>
<path fill="none" stroke="midnightblue" d="M415.494,-101.088C432.681,-113.843 465.022,-136.174 496,-148.47 502.6,-151.089 509.62,-153.37 516.72,-155.35"/>
<polygon fill="midnightblue" stroke="midnightblue" points="515.861,-158.743 526.42,-157.869 517.62,-151.968 515.861,-158.743"/>
</g>
<!-- Node10 -->
<g id="node10" class="node"><title>Node10</title>
<g id="a_node10"><a xlink:href="../../d6/d7e/class_t_m_c2208_stepper.html#a409c19fa6b052a370a317d061bf9af4e" target="_top" xlink:title=" ">
<polygon fill="white" stroke="black" points="520,-119.97 520,-138.97 656,-138.97 656,-119.97 520,-119.97"/>
<text text-anchor="middle" x="588" y="-126.97" font-family="Helvetica,sans-Serif" font-size="10.00">TMC2208Stepper::calcCRC</text>
</a>
</g>
</g>
<!-- Node3&#45;&gt;Node10 -->
<g id="edge10" class="edge"><title>Node3&#45;&gt;Node10</title>
<path fill="none" stroke="midnightblue" d="M449.431,-101.059C474.149,-106.163 504.739,-112.481 530.792,-117.861"/>
<polygon fill="midnightblue" stroke="midnightblue" points="530.402,-121.355 540.903,-119.95 531.817,-114.499 530.402,-121.355"/>
</g>
<!-- Node11 -->
<g id="node11" class="node"><title>Node11</title>
<g id="a_node11"><a xlink:href="../../d6/d7e/class_t_m_c2208_stepper.html#a673ade174158b47e3b345b1d7b3c473d" target="_top" xlink:title=" ">
<polygon fill="white" stroke="black" points="496,-81.9696 496,-100.97 680,-100.97 680,-81.9696 496,-81.9696"/>
<text text-anchor="middle" x="588" y="-88.9696" font-family="Helvetica,sans-Serif" font-size="10.00">TMC2208Stepper::postCommunication</text>
</a>
</g>
</g>
<!-- Node3&#45;&gt;Node11 -->
<g id="edge11" class="edge"><title>Node3&#45;&gt;Node11</title>
<path fill="none" stroke="midnightblue" d="M460.21,-91.4696C468.323,-91.4696 476.86,-91.4696 485.51,-91.4696"/>
<polygon fill="midnightblue" stroke="midnightblue" points="485.697,-94.9697 495.697,-91.4696 485.697,-87.9697 485.697,-94.9697"/>
</g>
<!-- Node12 -->
<g id="node12" class="node"><title>Node12</title>
<g id="a_node12"><a xlink:href="../../d6/d7e/class_t_m_c2208_stepper.html#a0ba01db6c4c01da7cb0ace8a524ab1da" target="_top" xlink:title=" ">
<polygon fill="white" stroke="black" points="498.5,-43.9696 498.5,-62.9696 677.5,-62.9696 677.5,-43.9696 498.5,-43.9696"/>
<text text-anchor="middle" x="588" y="-50.9696" font-family="Helvetica,sans-Serif" font-size="10.00">TMC2208Stepper::preCommunication</text>
</a>
</g>
</g>
<!-- Node3&#45;&gt;Node12 -->
<g id="edge12" class="edge"><title>Node3&#45;&gt;Node12</title>
<path fill="none" stroke="midnightblue" d="M449.431,-81.8806C474.149,-76.7758 504.739,-70.4583 530.792,-65.0778"/>
<polygon fill="midnightblue" stroke="midnightblue" points="531.817,-68.44 540.903,-62.9897 530.402,-61.5846 531.817,-68.44"/>
</g>
<!-- Node5 -->
<g id="node5" class="node"><title>Node5</title>
<g id="a_node5"><a xlink:href="../../d6/d7e/class_t_m_c2208_stepper.html#a7a670b15f45466f8d167a9b80fbf384f" target="_top" xlink:title=" ">
<polygon fill="white" stroke="black" points="721.5,-207.97 721.5,-226.97 855.5,-226.97 855.5,-207.97 721.5,-207.97"/>
<text text-anchor="middle" x="788.5" y="-214.97" font-family="Helvetica,sans-Serif" font-size="10.00">TMC2208Stepper::available</text>
</a>
</g>
</g>
<!-- Node4&#45;&gt;Node5 -->
<g id="edge4" class="edge"><title>Node4&#45;&gt;Node5</title>
<path fill="none" stroke="midnightblue" d="M626.804,-176.992C658.849,-185.064 704.983,-196.684 739.607,-205.406"/>
<polygon fill="midnightblue" stroke="midnightblue" points="738.948,-208.849 749.5,-207.898 740.657,-202.061 738.948,-208.849"/>
</g>
<!-- Node6 -->
<g id="node6" class="node"><title>Node6</title>
<g id="a_node6"><a xlink:href="../../d6/d7e/class_t_m_c2208_stepper.html#a4ec5d2b2f5a31259c7aba1f3208d63b8" target="_top" xlink:title=" ">
<polygon fill="white" stroke="black" points="730.5,-169.97 730.5,-188.97 846.5,-188.97 846.5,-169.97 730.5,-169.97"/>
<text text-anchor="middle" x="788.5" y="-176.97" font-family="Helvetica,sans-Serif" font-size="10.00">TMC2208Stepper::ms2</text>
</a>
</g>
</g>
<!-- Node4&#45;&gt;Node6 -->
<g id="edge5" class="edge"><title>Node4&#45;&gt;Node6</title>
<path fill="none" stroke="midnightblue" d="M671.17,-172.437C687.532,-173.426 704.531,-174.454 720.318,-175.408"/>
<polygon fill="midnightblue" stroke="midnightblue" points="720.305,-178.914 730.498,-176.024 720.727,-171.927 720.305,-178.914"/>
</g>
<!-- Node8 -->
<g id="node8" class="node"><title>Node8</title>
<g id="a_node8"><a xlink:href="../../d6/d7e/class_t_m_c2208_stepper.html#a129ceb04c3ea18e2c4ec1a59a51ece85" target="_top" xlink:title=" ">
<polygon fill="white" stroke="black" points="716,-131.97 716,-150.97 861,-150.97 861,-131.97 716,-131.97"/>
<text text-anchor="middle" x="788.5" y="-138.97" font-family="Helvetica,sans-Serif" font-size="10.00">TMC2208Stepper::serial_read</text>
</a>
</g>
</g>
<!-- Node4&#45;&gt;Node8 -->
<g id="edge8" class="edge"><title>Node4&#45;&gt;Node8</title>
<path fill="none" stroke="midnightblue" d="M661.787,-157.936C676.081,-156.064 691.166,-154.088 705.731,-152.18"/>
<polygon fill="midnightblue" stroke="midnightblue" points="706.256,-155.641 715.716,-150.872 705.346,-148.7 706.256,-155.641"/>
</g>
<!-- Node9 -->
<g id="node9" class="node"><title>Node9</title>
<g id="a_node9"><a xlink:href="../../d6/d7e/class_t_m_c2208_stepper.html#aa7f2c1a3a1cda9a328c186c6d7cbfe41" target="_top" xlink:title=" ">
<polygon fill="white" stroke="black" points="728,-82.4696 728,-112.47 849,-112.47 849,-82.4696 728,-82.4696"/>
<text text-anchor="start" x="736" y="-100.47" font-family="Helvetica,sans-Serif" font-size="10.00">TMC2208Stepper::serial</text>
<text text-anchor="middle" x="788.5" y="-89.4696" font-family="Helvetica,sans-Serif" font-size="10.00">_write</text>
</a>
</g>
</g>
<!-- Node4&#45;&gt;Node9 -->
<g id="edge9" class="edge"><title>Node4&#45;&gt;Node9</title>
<path fill="none" stroke="midnightblue" d="M652.251,-157.863C661.759,-155.397 671.289,-152.315 680,-148.47 698.056,-140.5 698.502,-131.6 716,-122.47 720.044,-120.36 724.305,-118.362 728.65,-116.486"/>
<polygon fill="midnightblue" stroke="midnightblue" points="730.304,-119.591 738.243,-112.575 727.662,-113.109 730.304,-119.591"/>
</g>
<!-- Node7 -->
<g id="node7" class="node"><title>Node7</title>
<g id="a_node7"><a xlink:href="../../d6/d7e/class_t_m_c2208_stepper.html#a5441dd87d0bcea4ffc309cb012166a57" target="_top" xlink:title=" ">
<polygon fill="white" stroke="black" points="897,-87.9696 897,-106.97 1013,-106.97 1013,-87.9696 897,-87.9696"/>
<text text-anchor="middle" x="955" y="-94.9696" font-family="Helvetica,sans-Serif" font-size="10.00">TMC2208Stepper::IOIN</text>
</a>
</g>
</g>
<!-- Node6&#45;&gt;Node7 -->
<g id="edge6" class="edge"><title>Node6&#45;&gt;Node7</title>
<path fill="none" stroke="midnightblue" d="M834.551,-169.968C843.507,-167.396 852.702,-164.251 861,-160.47 888.451,-147.961 916.683,-127.566 934.73,-113.383"/>
<polygon fill="midnightblue" stroke="midnightblue" points="937.106,-115.965 942.723,-106.982 932.73,-110.501 937.106,-115.965"/>
</g>
<!-- Node7&#45;&gt;Node3 -->
<g id="edge7" class="edge"><title>Node7&#45;&gt;Node3</title>
<path fill="none" stroke="midnightblue" d="M944.209,-87.8203C928.34,-72.9361 895.305,-44.9951 861,-34.4696 705.914,13.1145 652.13,9.56986 496,-34.4696 467.807,-42.4221 439.729,-61.5756 421.921,-75.4902"/>
<polygon fill="midnightblue" stroke="midnightblue" points="419.643,-72.8308 414.049,-81.8281 424.033,-78.2834 419.643,-72.8308"/>
</g>
<!-- Node13 -->
<g id="node13" class="node"><title>Node13</title>
<g id="a_node13"><a xlink:href="../../d9/d98/class_s_switch.html#a6ff09d0850d551571dc333fb74ff8628" target="_top" xlink:title=" ">
<polygon fill="white" stroke="black" points="747,-43.9696 747,-62.9696 830,-62.9696 830,-43.9696 747,-43.9696"/>
<text text-anchor="middle" x="788.5" y="-50.9696" font-family="Helvetica,sans-Serif" font-size="10.00">SSwitch::active</text>
</a>
</g>
</g>
<!-- Node12&#45;&gt;Node13 -->
<g id="edge13" class="edge"><title>Node12&#45;&gt;Node13</title>
<path fill="none" stroke="midnightblue" d="M677.51,-53.4696C697.828,-53.4696 718.753,-53.4696 736.826,-53.4696"/>
<polygon fill="midnightblue" stroke="midnightblue" points="736.83,-56.9697 746.83,-53.4696 736.83,-49.9697 736.83,-56.9697"/>
</g>
</g>
</svg>
