<?xml version="1.0" encoding="UTF-8" standalone="no"?>
<!DOCTYPE svg PUBLIC "-//W3C//DTD SVG 1.1//EN"
 "http://www.w3.org/Graphics/SVG/1.1/DTD/svg11.dtd">
<!-- Generated by graphviz version 2.38.0 (20140413.2041)
 -->
<!-- Title: TMC2208Stepper::CHOPCONF Pages: 1 -->
<svg width="653pt" height="154pt"
 viewBox="0.00 0.00 653.00 153.50" xmlns="http://www.w3.org/2000/svg" xmlns:xlink="http://www.w3.org/1999/xlink">
<g id="graph0" class="graph" transform="scale(1 1) rotate(0) translate(4 149.5)">
<title>TMC2208Stepper::CHOPCONF</title>
<polygon fill="white" stroke="none" points="-4,4 -4,-149.5 649,-149.5 649,4 -4,4"/>
<!-- Node1 -->
<g id="node1" class="node"><title>Node1</title>
<g id="a_node1"><a xlink:title=" ">
<polygon fill="#bfbfbf" stroke="black" points="0,-69 0,-88 152,-88 152,-69 0,-69"/>
<text text-anchor="middle" x="76" y="-76" font-family="Helvetica,sans-Serif" font-size="10.00">TMC2208Stepper::CHOPCONF</text>
</a>
</g>
</g>
<!-- Node2 -->
<g id="node2" class="node"><title>Node2</title>
<g id="a_node2"><a xlink:href="../../d6/d7e/class_t_m_c2208_stepper.html#a142b14de8a4dcc6cf76b4a6ede9e1cea" target="_top" xlink:title=" ">
<polygon fill="white" stroke="black" points="188,-69 188,-88 306,-88 306,-69 188,-69"/>
<text text-anchor="middle" x="247" y="-76" font-family="Helvetica,sans-Serif" font-size="10.00">TMC2208Stepper::write</text>
</a>
</g>
</g>
<!-- Node1&#45;&gt;Node2 -->
<g id="edge1" class="edge"><title>Node1&#45;&gt;Node2</title>
<path fill="none" stroke="midnightblue" d="M152.11,-78.5C160.634,-78.5 169.286,-78.5 177.715,-78.5"/>
<polygon fill="midnightblue" stroke="midnightblue" points="177.862,-82.0001 187.862,-78.5 177.862,-75.0001 177.862,-82.0001"/>
</g>
<!-- Node3 -->
<g id="node3" class="node"><title>Node3</title>
<g id="a_node3"><a xlink:href="../../d6/d7e/class_t_m_c2208_stepper.html#a409c19fa6b052a370a317d061bf9af4e" target="_top" xlink:title=" ">
<polygon fill="white" stroke="black" points="366,-126 366,-145 502,-145 502,-126 366,-126"/>
<text text-anchor="middle" x="434" y="-133" font-family="Helvetica,sans-Serif" font-size="10.00">TMC2208Stepper::calcCRC</text>
</a>
</g>
</g>
<!-- Node2&#45;&gt;Node3 -->
<g id="edge2" class="edge"><title>Node2&#45;&gt;Node3</title>
<path fill="none" stroke="midnightblue" d="M268.524,-88.037C287.315,-96.4682 316.063,-108.619 342,-116.5 350.732,-119.153 360.046,-121.562 369.26,-123.703"/>
<polygon fill="midnightblue" stroke="midnightblue" points="368.663,-127.156 379.186,-125.922 370.19,-120.325 368.663,-127.156"/>
</g>
<!-- Node4 -->
<g id="node4" class="node"><title>Node4</title>
<g id="a_node4"><a xlink:href="../../d6/d7e/class_t_m_c2208_stepper.html#a673ade174158b47e3b345b1d7b3c473d" target="_top" xlink:title=" ">
<polygon fill="white" stroke="black" points="342,-88 342,-107 526,-107 526,-88 342,-88"/>
<text text-anchor="middle" x="434" y="-95" font-family="Helvetica,sans-Serif" font-size="10.00">TMC2208Stepper::postCommunication</text>
</a>
</g>
</g>
<!-- Node2&#45;&gt;Node4 -->
<g id="edge3" class="edge"><title>Node2&#45;&gt;Node4</title>
<path fill="none" stroke="midnightblue" d="M306.028,-84.4596C314.343,-85.3136 323.091,-86.2121 331.945,-87.1214"/>
<polygon fill="midnightblue" stroke="midnightblue" points="331.664,-90.6108 341.969,-88.1509 332.379,-83.6475 331.664,-90.6108"/>
</g>
<!-- Node5 -->
<g id="node5" class="node"><title>Node5</title>
<g id="a_node5"><a xlink:href="../../d6/d7e/class_t_m_c2208_stepper.html#a0ba01db6c4c01da7cb0ace8a524ab1da" target="_top" xlink:title=" ">
<polygon fill="white" stroke="black" points="344.5,-50 344.5,-69 523.5,-69 523.5,-50 344.5,-50"/>
<text text-anchor="middle" x="434" y="-57" font-family="Helvetica,sans-Serif" font-size="10.00">TMC2208Stepper::preCommunication</text>
</a>
</g>
</g>
<!-- Node2&#45;&gt;Node5 -->
<g id="edge4" class="edge"><title>Node2&#45;&gt;Node5</title>
<path fill="none" stroke="midnightblue" d="M306.028,-72.5404C315.072,-71.6115 324.629,-70.63 334.277,-69.6391"/>
<polygon fill="midnightblue" stroke="midnightblue" points="334.757,-73.1083 344.347,-68.6049 334.042,-66.145 334.757,-73.1083"/>
</g>
<!-- Node7 -->
<g id="node7" class="node"><title>Node7</title>
<g id="a_node7"><a xlink:href="../../d6/d7e/class_t_m_c2208_stepper.html#aa7f2c1a3a1cda9a328c186c6d7cbfe41" target="_top" xlink:title=" ">
<polygon fill="white" stroke="black" points="373.5,-0.5 373.5,-30.5 494.5,-30.5 494.5,-0.5 373.5,-0.5"/>
<text text-anchor="start" x="381.5" y="-18.5" font-family="Helvetica,sans-Serif" font-size="10.00">TMC2208Stepper::serial</text>
<text text-anchor="middle" x="434" y="-7.5" font-family="Helvetica,sans-Serif" font-size="10.00">_write</text>
</a>
</g>
</g>
<!-- Node2&#45;&gt;Node7 -->
<g id="edge6" class="edge"><title>Node2&#45;&gt;Node7</title>
<path fill="none" stroke="midnightblue" d="M269.761,-68.8638C288.642,-60.7065 316.821,-49.0159 342,-40.5 349.312,-38.0271 357.014,-35.6178 364.715,-33.3323"/>
<polygon fill="midnightblue" stroke="midnightblue" points="365.813,-36.6581 374.44,-30.5082 363.861,-29.9358 365.813,-36.6581"/>
</g>
<!-- Node6 -->
<g id="node6" class="node"><title>Node6</title>
<g id="a_node6"><a xlink:href="../../d9/d98/class_s_switch.html#a6ff09d0850d551571dc333fb74ff8628" target="_top" xlink:title=" ">
<polygon fill="white" stroke="black" points="562,-50 562,-69 645,-69 645,-50 562,-50"/>
<text text-anchor="middle" x="603.5" y="-57" font-family="Helvetica,sans-Serif" font-size="10.00">SSwitch::active</text>
</a>
</g>
</g>
<!-- Node5&#45;&gt;Node6 -->
<g id="edge5" class="edge"><title>Node5&#45;&gt;Node6</title>
<path fill="none" stroke="midnightblue" d="M523.655,-59.5C533.243,-59.5 542.745,-59.5 551.657,-59.5"/>
<polygon fill="midnightblue" stroke="midnightblue" points="551.816,-63.0001 561.816,-59.5 551.816,-56.0001 551.816,-63.0001"/>
</g>
</g>
</svg>
