<?xml version="1.0" encoding="UTF-8" standalone="no"?>
<!DOCTYPE svg PUBLIC "-//W3C//DTD SVG 1.1//EN"
 "http://www.w3.org/Graphics/SVG/1.1/DTD/svg11.dtd">
<!-- Generated by graphviz version 2.38.0 (20140413.2041)
 -->
<!-- Title: TMC2208Stepper::sel_a Pages: 1 -->
<svg width="834pt" height="201pt"
 viewBox="0.00 0.00 834.00 201.00" xmlns="http://www.w3.org/2000/svg" xmlns:xlink="http://www.w3.org/1999/xlink">
<g id="graph0" class="graph" transform="scale(1 1) rotate(0) translate(4 197)">
<title>TMC2208Stepper::sel_a</title>
<polygon fill="white" stroke="none" points="-4,4 -4,-197 830,-197 830,4 -4,4"/>
<!-- Node1 -->
<g id="node1" class="node"><title>Node1</title>
<g id="a_node1"><a xlink:title=" ">
<polygon fill="#bfbfbf" stroke="black" points="0,-19.5 0,-38.5 121,-38.5 121,-19.5 0,-19.5"/>
<text text-anchor="middle" x="60.5" y="-26.5" font-family="Helvetica,sans-Serif" font-size="10.00">TMC2208Stepper::sel_a</text>
</a>
</g>
</g>
<!-- Node2 -->
<g id="node2" class="node"><title>Node2</title>
<g id="a_node2"><a xlink:href="../../d6/d7e/class_t_m_c2208_stepper.html#a5441dd87d0bcea4ffc309cb012166a57" target="_top" xlink:title=" ">
<polygon fill="white" stroke="black" points="157,-19.5 157,-38.5 273,-38.5 273,-19.5 157,-19.5"/>
<text text-anchor="middle" x="215" y="-26.5" font-family="Helvetica,sans-Serif" font-size="10.00">TMC2208Stepper::IOIN</text>
</a>
</g>
</g>
<!-- Node1&#45;&gt;Node2 -->
<g id="edge1" class="edge"><title>Node1&#45;&gt;Node2</title>
<path fill="none" stroke="midnightblue" d="M121.334,-29C129.64,-29 138.218,-29 146.649,-29"/>
<polygon fill="midnightblue" stroke="midnightblue" points="146.832,-32.5001 156.832,-29 146.832,-25.5001 146.832,-32.5001"/>
</g>
<!-- Node3 -->
<g id="node3" class="node"><title>Node3</title>
<g id="a_node3"><a xlink:href="../../d6/d7e/class_t_m_c2208_stepper.html#a2fae2050849c3ab7968012def8ea1cc5" target="_top" xlink:title=" ">
<polygon fill="white" stroke="black" points="309,-57.5 309,-76.5 425,-76.5 425,-57.5 309,-57.5"/>
<text text-anchor="middle" x="367" y="-64.5" font-family="Helvetica,sans-Serif" font-size="10.00">TMC2208Stepper::read</text>
</a>
</g>
</g>
<!-- Node2&#45;&gt;Node3 -->
<g id="edge2" class="edge"><title>Node2&#45;&gt;Node3</title>
<path fill="none" stroke="midnightblue" d="M253.851,-38.589C273.467,-43.5583 297.619,-49.6767 318.479,-54.9613"/>
<polygon fill="midnightblue" stroke="midnightblue" points="317.868,-58.4169 328.421,-57.4799 319.587,-51.6313 317.868,-58.4169"/>
</g>
<!-- Node4 -->
<g id="node4" class="node"><title>Node4</title>
<g id="a_node4"><a xlink:href="../../d6/d7e/class_t_m_c2208_stepper.html#a321ad81155b7a20c0858920d32d0b074" target="_top" xlink:title=" ">
<polygon fill="white" stroke="black" points="470,-95.5 470,-114.5 636,-114.5 636,-95.5 470,-95.5"/>
<text text-anchor="middle" x="553" y="-102.5" font-family="Helvetica,sans-Serif" font-size="10.00">TMC2208Stepper::_sendDatagram</text>
</a>
</g>
</g>
<!-- Node3&#45;&gt;Node4 -->
<g id="edge3" class="edge"><title>Node3&#45;&gt;Node4</title>
<path fill="none" stroke="midnightblue" d="M414.431,-76.589C439.149,-81.6939 469.739,-88.0113 495.792,-93.3918"/>
<polygon fill="midnightblue" stroke="midnightblue" points="495.402,-96.885 505.903,-95.4799 496.817,-90.0297 495.402,-96.885"/>
</g>
<!-- Node9 -->
<g id="node9" class="node"><title>Node9</title>
<g id="a_node9"><a xlink:href="../../d6/d7e/class_t_m_c2208_stepper.html#a409c19fa6b052a370a317d061bf9af4e" target="_top" xlink:title=" ">
<polygon fill="white" stroke="black" points="485,-57.5 485,-76.5 621,-76.5 621,-57.5 485,-57.5"/>
<text text-anchor="middle" x="553" y="-64.5" font-family="Helvetica,sans-Serif" font-size="10.00">TMC2208Stepper::calcCRC</text>
</a>
</g>
</g>
<!-- Node3&#45;&gt;Node9 -->
<g id="edge9" class="edge"><title>Node3&#45;&gt;Node9</title>
<path fill="none" stroke="midnightblue" d="M425.21,-67C440.848,-67 458.059,-67 474.621,-67"/>
<polygon fill="midnightblue" stroke="midnightblue" points="474.829,-70.5001 484.829,-67 474.829,-63.5001 474.829,-70.5001"/>
</g>
<!-- Node10 -->
<g id="node10" class="node"><title>Node10</title>
<g id="a_node10"><a xlink:href="../../d6/d7e/class_t_m_c2208_stepper.html#a673ade174158b47e3b345b1d7b3c473d" target="_top" xlink:title=" ">
<polygon fill="white" stroke="black" points="461,-19.5 461,-38.5 645,-38.5 645,-19.5 461,-19.5"/>
<text text-anchor="middle" x="553" y="-26.5" font-family="Helvetica,sans-Serif" font-size="10.00">TMC2208Stepper::postCommunication</text>
</a>
</g>
</g>
<!-- Node3&#45;&gt;Node10 -->
<g id="edge10" class="edge"><title>Node3&#45;&gt;Node10</title>
<path fill="none" stroke="midnightblue" d="M414.431,-57.411C439.149,-52.3061 469.739,-45.9887 495.792,-40.6082"/>
<polygon fill="midnightblue" stroke="midnightblue" points="496.817,-43.9703 505.903,-38.5201 495.402,-37.115 496.817,-43.9703"/>
</g>
<!-- Node11 -->
<g id="node11" class="node"><title>Node11</title>
<g id="a_node11"><a xlink:href="../../d6/d7e/class_t_m_c2208_stepper.html#a0ba01db6c4c01da7cb0ace8a524ab1da" target="_top" xlink:title=" ">
<polygon fill="white" stroke="black" points="463.5,-139.5 463.5,-158.5 642.5,-158.5 642.5,-139.5 463.5,-139.5"/>
<text text-anchor="middle" x="553" y="-146.5" font-family="Helvetica,sans-Serif" font-size="10.00">TMC2208Stepper::preCommunication</text>
</a>
</g>
</g>
<!-- Node3&#45;&gt;Node11 -->
<g id="edge11" class="edge"><title>Node3&#45;&gt;Node11</title>
<path fill="none" stroke="midnightblue" d="M380.907,-76.5501C398.299,-89.0241 430.593,-110.821 461,-124 472.625,-129.038 485.529,-133.314 497.88,-136.828"/>
<polygon fill="midnightblue" stroke="midnightblue" points="497.064,-140.233 507.632,-139.483 498.903,-133.479 497.064,-140.233"/>
</g>
<!-- Node5 -->
<g id="node5" class="node"><title>Node5</title>
<g id="a_node5"><a xlink:href="../../d6/d7e/class_t_m_c2208_stepper.html#a7a670b15f45466f8d167a9b80fbf384f" target="_top" xlink:title=" ">
<polygon fill="white" stroke="black" points="686.5,-85.5 686.5,-104.5 820.5,-104.5 820.5,-85.5 686.5,-85.5"/>
<text text-anchor="middle" x="753.5" y="-92.5" font-family="Helvetica,sans-Serif" font-size="10.00">TMC2208Stepper::available</text>
</a>
</g>
</g>
<!-- Node4&#45;&gt;Node5 -->
<g id="edge4" class="edge"><title>Node4&#45;&gt;Node5</title>
<path fill="none" stroke="midnightblue" d="M636.17,-100.86C649.383,-100.195 663.013,-99.5082 676.084,-98.8497"/>
<polygon fill="midnightblue" stroke="midnightblue" points="676.616,-102.327 686.428,-98.3286 676.264,-95.3362 676.616,-102.327"/>
</g>
<!-- Node6 -->
<g id="node6" class="node"><title>Node6</title>
<g id="a_node6"><a xlink:href="../../d6/d7e/class_t_m_c2208_stepper.html#a4ec5d2b2f5a31259c7aba1f3208d63b8" target="_top" xlink:title=" ">
<polygon fill="white" stroke="black" points="695.5,-0.5 695.5,-19.5 811.5,-19.5 811.5,-0.5 695.5,-0.5"/>
<text text-anchor="middle" x="753.5" y="-7.5" font-family="Helvetica,sans-Serif" font-size="10.00">TMC2208Stepper::ms2</text>
</a>
</g>
</g>
<!-- Node4&#45;&gt;Node6 -->
<g id="edge5" class="edge"><title>Node4&#45;&gt;Node6</title>
<path fill="none" stroke="midnightblue" d="M625.064,-95.4993C632.087,-93.0129 638.872,-89.8981 645,-86 667.5,-71.687 659.776,-54.1441 681,-38 688.875,-32.01 698.193,-27.1398 707.457,-23.2435"/>
<polygon fill="midnightblue" stroke="midnightblue" points="708.97,-26.4104 717.027,-19.5296 706.438,-19.8845 708.97,-26.4104"/>
</g>
<!-- Node7 -->
<g id="node7" class="node"><title>Node7</title>
<g id="a_node7"><a xlink:href="../../d6/d7e/class_t_m_c2208_stepper.html#a129ceb04c3ea18e2c4ec1a59a51ece85" target="_top" xlink:title=" ">
<polygon fill="white" stroke="black" points="681,-47.5 681,-66.5 826,-66.5 826,-47.5 681,-47.5"/>
<text text-anchor="middle" x="753.5" y="-54.5" font-family="Helvetica,sans-Serif" font-size="10.00">TMC2208Stepper::serial_read</text>
</a>
</g>
</g>
<!-- Node4&#45;&gt;Node7 -->
<g id="edge7" class="edge"><title>Node4&#45;&gt;Node7</title>
<path fill="none" stroke="midnightblue" d="M602.775,-95.4266C616.476,-92.5721 631.356,-89.3157 645,-86 661.136,-82.0787 664.975,-80.3547 681,-76 689.196,-73.7728 697.928,-71.4285 706.373,-69.1762"/>
<polygon fill="midnightblue" stroke="midnightblue" points="707.341,-72.5405 716.105,-66.587 705.541,-65.7758 707.341,-72.5405"/>
</g>
<!-- Node8 -->
<g id="node8" class="node"><title>Node8</title>
<g id="a_node8"><a xlink:href="../../d6/d7e/class_t_m_c2208_stepper.html#aa7f2c1a3a1cda9a328c186c6d7cbfe41" target="_top" xlink:title=" ">
<polygon fill="white" stroke="black" points="693,-124 693,-154 814,-154 814,-124 693,-124"/>
<text text-anchor="start" x="701" y="-142" font-family="Helvetica,sans-Serif" font-size="10.00">TMC2208Stepper::serial</text>
<text text-anchor="middle" x="753.5" y="-131" font-family="Helvetica,sans-Serif" font-size="10.00">_write</text>
</a>
</g>
</g>
<!-- Node4&#45;&gt;Node8 -->
<g id="edge8" class="edge"><title>Node4&#45;&gt;Node8</title>
<path fill="none" stroke="midnightblue" d="M609.557,-114.516C632.238,-118.401 658.722,-122.937 682.688,-127.042"/>
<polygon fill="midnightblue" stroke="midnightblue" points="682.339,-130.533 692.787,-128.772 683.521,-123.634 682.339,-130.533"/>
</g>
<!-- Node6&#45;&gt;Node2 -->
<g id="edge6" class="edge"><title>Node6&#45;&gt;Node2</title>
<path fill="none" stroke="midnightblue" d="M695.227,-8.69287C636.429,-7.65791 542.291,-6.85263 461,-10 400.903,-12.3268 332.699,-17.8526 283.541,-22.3486"/>
<polygon fill="midnightblue" stroke="midnightblue" points="282.985,-18.8849 273.35,-23.2908 283.63,-25.8552 282.985,-18.8849"/>
</g>
<!-- Node12 -->
<g id="node12" class="node"><title>Node12</title>
<g id="a_node12"><a xlink:href="../../d9/d98/class_s_switch.html#a6ff09d0850d551571dc333fb74ff8628" target="_top" xlink:title=" ">
<polygon fill="white" stroke="black" points="712,-173.5 712,-192.5 795,-192.5 795,-173.5 712,-173.5"/>
<text text-anchor="middle" x="753.5" y="-180.5" font-family="Helvetica,sans-Serif" font-size="10.00">SSwitch::active</text>
</a>
</g>
</g>
<!-- Node11&#45;&gt;Node12 -->
<g id="edge12" class="edge"><title>Node11&#45;&gt;Node12</title>
<path fill="none" stroke="midnightblue" d="M609.557,-158.516C638.466,-163.468 673.552,-169.478 701.729,-174.304"/>
<polygon fill="midnightblue" stroke="midnightblue" points="701.326,-177.786 711.773,-176.024 702.508,-170.886 701.326,-177.786"/>
</g>
</g>
</svg>
