<?xml version="1.0" encoding="UTF-8" standalone="no"?>
<!DOCTYPE svg PUBLIC "-//W3C//DTD SVG 1.1//EN"
 "http://www.w3.org/Graphics/SVG/1.1/DTD/svg11.dtd">
<!-- Generated by graphviz version 2.38.0 (20140413.2041)
 -->
<!-- Title: TMC2208Stepper::OTP_READ Pages: 1 -->
<svg width="862pt" height="235pt"
 viewBox="0.00 0.00 862.00 235.47" xmlns="http://www.w3.org/2000/svg" xmlns:xlink="http://www.w3.org/1999/xlink">
<g id="graph0" class="graph" transform="scale(1 1) rotate(0) translate(4 231.47)">
<title>TMC2208Stepper::OTP_READ</title>
<polygon fill="white" stroke="none" points="-4,4 -4,-231.47 858,-231.47 858,4 -4,4"/>
<!-- Node1 -->
<g id="node1" class="node"><title>Node1</title>
<g id="a_node1"><a xlink:title=" ">
<polygon fill="#bfbfbf" stroke="black" points="0,-81.9696 0,-100.97 149,-100.97 149,-81.9696 0,-81.9696"/>
<text text-anchor="middle" x="74.5" y="-88.9696" font-family="Helvetica,sans-Serif" font-size="10.00">TMC2208Stepper::OTP_READ</text>
</a>
</g>
</g>
<!-- Node2 -->
<g id="node2" class="node"><title>Node2</title>
<g id="a_node2"><a xlink:href="../../d6/d7e/class_t_m_c2208_stepper.html#a2fae2050849c3ab7968012def8ea1cc5" target="_top" xlink:title=" ">
<polygon fill="white" stroke="black" points="185,-81.9696 185,-100.97 301,-100.97 301,-81.9696 185,-81.9696"/>
<text text-anchor="middle" x="243" y="-88.9696" font-family="Helvetica,sans-Serif" font-size="10.00">TMC2208Stepper::read</text>
</a>
</g>
</g>
<!-- Node1&#45;&gt;Node2 -->
<g id="edge1" class="edge"><title>Node1&#45;&gt;Node2</title>
<path fill="none" stroke="midnightblue" d="M149.014,-91.4696C157.561,-91.4696 166.246,-91.4696 174.704,-91.4696"/>
<polygon fill="midnightblue" stroke="midnightblue" points="174.882,-94.9697 184.882,-91.4696 174.882,-87.9697 174.882,-94.9697"/>
</g>
<!-- Node3 -->
<g id="node3" class="node"><title>Node3</title>
<g id="a_node3"><a xlink:href="../../d6/d7e/class_t_m_c2208_stepper.html#a321ad81155b7a20c0858920d32d0b074" target="_top" xlink:title=" ">
<polygon fill="white" stroke="black" points="346,-157.97 346,-176.97 512,-176.97 512,-157.97 346,-157.97"/>
<text text-anchor="middle" x="429" y="-164.97" font-family="Helvetica,sans-Serif" font-size="10.00">TMC2208Stepper::_sendDatagram</text>
</a>
</g>
</g>
<!-- Node2&#45;&gt;Node3 -->
<g id="edge2" class="edge"><title>Node2&#45;&gt;Node3</title>
<path fill="none" stroke="midnightblue" d="M256.494,-101.088C273.681,-113.843 306.022,-136.174 337,-148.47 343.6,-151.089 350.62,-153.37 357.72,-155.35"/>
<polygon fill="midnightblue" stroke="midnightblue" points="356.861,-158.743 367.42,-157.869 358.62,-151.968 356.861,-158.743"/>
</g>
<!-- Node9 -->
<g id="node9" class="node"><title>Node9</title>
<g id="a_node9"><a xlink:href="../../d6/d7e/class_t_m_c2208_stepper.html#a409c19fa6b052a370a317d061bf9af4e" target="_top" xlink:title=" ">
<polygon fill="white" stroke="black" points="361,-119.97 361,-138.97 497,-138.97 497,-119.97 361,-119.97"/>
<text text-anchor="middle" x="429" y="-126.97" font-family="Helvetica,sans-Serif" font-size="10.00">TMC2208Stepper::calcCRC</text>
</a>
</g>
</g>
<!-- Node2&#45;&gt;Node9 -->
<g id="edge9" class="edge"><title>Node2&#45;&gt;Node9</title>
<path fill="none" stroke="midnightblue" d="M290.431,-101.059C315.149,-106.163 345.739,-112.481 371.792,-117.861"/>
<polygon fill="midnightblue" stroke="midnightblue" points="371.402,-121.355 381.903,-119.95 372.817,-114.499 371.402,-121.355"/>
</g>
<!-- Node10 -->
<g id="node10" class="node"><title>Node10</title>
<g id="a_node10"><a xlink:href="../../d6/d7e/class_t_m_c2208_stepper.html#a673ade174158b47e3b345b1d7b3c473d" target="_top" xlink:title=" ">
<polygon fill="white" stroke="black" points="337,-81.9696 337,-100.97 521,-100.97 521,-81.9696 337,-81.9696"/>
<text text-anchor="middle" x="429" y="-88.9696" font-family="Helvetica,sans-Serif" font-size="10.00">TMC2208Stepper::postCommunication</text>
</a>
</g>
</g>
<!-- Node2&#45;&gt;Node10 -->
<g id="edge10" class="edge"><title>Node2&#45;&gt;Node10</title>
<path fill="none" stroke="midnightblue" d="M301.21,-91.4696C309.323,-91.4696 317.86,-91.4696 326.51,-91.4696"/>
<polygon fill="midnightblue" stroke="midnightblue" points="326.697,-94.9697 336.697,-91.4696 326.697,-87.9697 326.697,-94.9697"/>
</g>
<!-- Node11 -->
<g id="node11" class="node"><title>Node11</title>
<g id="a_node11"><a xlink:href="../../d6/d7e/class_t_m_c2208_stepper.html#a0ba01db6c4c01da7cb0ace8a524ab1da" target="_top" xlink:title=" ">
<polygon fill="white" stroke="black" points="339.5,-43.9696 339.5,-62.9696 518.5,-62.9696 518.5,-43.9696 339.5,-43.9696"/>
<text text-anchor="middle" x="429" y="-50.9696" font-family="Helvetica,sans-Serif" font-size="10.00">TMC2208Stepper::preCommunication</text>
</a>
</g>
</g>
<!-- Node2&#45;&gt;Node11 -->
<g id="edge11" class="edge"><title>Node2&#45;&gt;Node11</title>
<path fill="none" stroke="midnightblue" d="M290.431,-81.8806C315.149,-76.7758 345.739,-70.4583 371.792,-65.0778"/>
<polygon fill="midnightblue" stroke="midnightblue" points="372.817,-68.44 381.903,-62.9897 371.402,-61.5846 372.817,-68.44"/>
</g>
<!-- Node4 -->
<g id="node4" class="node"><title>Node4</title>
<g id="a_node4"><a xlink:href="../../d6/d7e/class_t_m_c2208_stepper.html#a7a670b15f45466f8d167a9b80fbf384f" target="_top" xlink:title=" ">
<polygon fill="white" stroke="black" points="562.5,-207.97 562.5,-226.97 696.5,-226.97 696.5,-207.97 562.5,-207.97"/>
<text text-anchor="middle" x="629.5" y="-214.97" font-family="Helvetica,sans-Serif" font-size="10.00">TMC2208Stepper::available</text>
</a>
</g>
</g>
<!-- Node3&#45;&gt;Node4 -->
<g id="edge3" class="edge"><title>Node3&#45;&gt;Node4</title>
<path fill="none" stroke="midnightblue" d="M467.804,-176.992C499.849,-185.064 545.983,-196.684 580.607,-205.406"/>
<polygon fill="midnightblue" stroke="midnightblue" points="579.948,-208.849 590.5,-207.898 581.657,-202.061 579.948,-208.849"/>
</g>
<!-- Node5 -->
<g id="node5" class="node"><title>Node5</title>
<g id="a_node5"><a xlink:href="../../d6/d7e/class_t_m_c2208_stepper.html#a4ec5d2b2f5a31259c7aba1f3208d63b8" target="_top" xlink:title=" ">
<polygon fill="white" stroke="black" points="571.5,-169.97 571.5,-188.97 687.5,-188.97 687.5,-169.97 571.5,-169.97"/>
<text text-anchor="middle" x="629.5" y="-176.97" font-family="Helvetica,sans-Serif" font-size="10.00">TMC2208Stepper::ms2</text>
</a>
</g>
</g>
<!-- Node3&#45;&gt;Node5 -->
<g id="edge4" class="edge"><title>Node3&#45;&gt;Node5</title>
<path fill="none" stroke="midnightblue" d="M512.17,-172.437C528.532,-173.426 545.531,-174.454 561.318,-175.408"/>
<polygon fill="midnightblue" stroke="midnightblue" points="561.305,-178.914 571.498,-176.024 561.727,-171.927 561.305,-178.914"/>
</g>
<!-- Node7 -->
<g id="node7" class="node"><title>Node7</title>
<g id="a_node7"><a xlink:href="../../d6/d7e/class_t_m_c2208_stepper.html#a129ceb04c3ea18e2c4ec1a59a51ece85" target="_top" xlink:title=" ">
<polygon fill="white" stroke="black" points="557,-131.97 557,-150.97 702,-150.97 702,-131.97 557,-131.97"/>
<text text-anchor="middle" x="629.5" y="-138.97" font-family="Helvetica,sans-Serif" font-size="10.00">TMC2208Stepper::serial_read</text>
</a>
</g>
</g>
<!-- Node3&#45;&gt;Node7 -->
<g id="edge7" class="edge"><title>Node3&#45;&gt;Node7</title>
<path fill="none" stroke="midnightblue" d="M502.787,-157.936C517.081,-156.064 532.166,-154.088 546.731,-152.18"/>
<polygon fill="midnightblue" stroke="midnightblue" points="547.256,-155.641 556.716,-150.872 546.346,-148.7 547.256,-155.641"/>
</g>
<!-- Node8 -->
<g id="node8" class="node"><title>Node8</title>
<g id="a_node8"><a xlink:href="../../d6/d7e/class_t_m_c2208_stepper.html#aa7f2c1a3a1cda9a328c186c6d7cbfe41" target="_top" xlink:title=" ">
<polygon fill="white" stroke="black" points="569,-82.4696 569,-112.47 690,-112.47 690,-82.4696 569,-82.4696"/>
<text text-anchor="start" x="577" y="-100.47" font-family="Helvetica,sans-Serif" font-size="10.00">TMC2208Stepper::serial</text>
<text text-anchor="middle" x="629.5" y="-89.4696" font-family="Helvetica,sans-Serif" font-size="10.00">_write</text>
</a>
</g>
</g>
<!-- Node3&#45;&gt;Node8 -->
<g id="edge8" class="edge"><title>Node3&#45;&gt;Node8</title>
<path fill="none" stroke="midnightblue" d="M493.251,-157.863C502.759,-155.397 512.289,-152.315 521,-148.47 539.056,-140.5 539.502,-131.6 557,-122.47 561.044,-120.36 565.305,-118.362 569.65,-116.486"/>
<polygon fill="midnightblue" stroke="midnightblue" points="571.304,-119.591 579.243,-112.575 568.662,-113.109 571.304,-119.591"/>
</g>
<!-- Node6 -->
<g id="node6" class="node"><title>Node6</title>
<g id="a_node6"><a xlink:href="../../d6/d7e/class_t_m_c2208_stepper.html#a5441dd87d0bcea4ffc309cb012166a57" target="_top" xlink:title=" ">
<polygon fill="white" stroke="black" points="738,-87.9696 738,-106.97 854,-106.97 854,-87.9696 738,-87.9696"/>
<text text-anchor="middle" x="796" y="-94.9696" font-family="Helvetica,sans-Serif" font-size="10.00">TMC2208Stepper::IOIN</text>
</a>
</g>
</g>
<!-- Node5&#45;&gt;Node6 -->
<g id="edge5" class="edge"><title>Node5&#45;&gt;Node6</title>
<path fill="none" stroke="midnightblue" d="M675.551,-169.968C684.507,-167.396 693.702,-164.251 702,-160.47 729.451,-147.961 757.683,-127.566 775.73,-113.383"/>
<polygon fill="midnightblue" stroke="midnightblue" points="778.106,-115.965 783.723,-106.982 773.73,-110.501 778.106,-115.965"/>
</g>
<!-- Node6&#45;&gt;Node2 -->
<g id="edge6" class="edge"><title>Node6&#45;&gt;Node2</title>
<path fill="none" stroke="midnightblue" d="M785.209,-87.8203C769.34,-72.9361 736.305,-44.9951 702,-34.4696 546.914,13.1145 493.13,9.56986 337,-34.4696 308.807,-42.4221 280.729,-61.5756 262.921,-75.4902"/>
<polygon fill="midnightblue" stroke="midnightblue" points="260.643,-72.8308 255.049,-81.8281 265.033,-78.2834 260.643,-72.8308"/>
</g>
<!-- Node12 -->
<g id="node12" class="node"><title>Node12</title>
<g id="a_node12"><a xlink:href="../../d9/d98/class_s_switch.html#a6ff09d0850d551571dc333fb74ff8628" target="_top" xlink:title=" ">
<polygon fill="white" stroke="black" points="588,-43.9696 588,-62.9696 671,-62.9696 671,-43.9696 588,-43.9696"/>
<text text-anchor="middle" x="629.5" y="-50.9696" font-family="Helvetica,sans-Serif" font-size="10.00">SSwitch::active</text>
</a>
</g>
</g>
<!-- Node11&#45;&gt;Node12 -->
<g id="edge12" class="edge"><title>Node11&#45;&gt;Node12</title>
<path fill="none" stroke="midnightblue" d="M518.51,-53.4696C538.828,-53.4696 559.753,-53.4696 577.826,-53.4696"/>
<polygon fill="midnightblue" stroke="midnightblue" points="577.83,-56.9697 587.83,-53.4696 577.83,-49.9697 577.83,-56.9697"/>
</g>
</g>
</svg>
