<?xml version="1.0" encoding="UTF-8" standalone="no"?>
<!DOCTYPE svg PUBLIC "-//W3C//DTD SVG 1.1//EN"
 "http://www.w3.org/Graphics/SVG/1.1/DTD/svg11.dtd">
<!-- Generated by graphviz version 2.38.0 (20140413.2041)
 -->
<!-- Title: TMC2208Stepper::tbl Pages: 1 -->
<svg width="1153pt" height="235pt"
 viewBox="0.00 0.00 1153.00 235.47" xmlns="http://www.w3.org/2000/svg" xmlns:xlink="http://www.w3.org/1999/xlink">
<g id="graph0" class="graph" transform="scale(1 1) rotate(0) translate(4 231.47)">
<title>TMC2208Stepper::tbl</title>
<polygon fill="white" stroke="none" points="-4,4 -4,-231.47 1149,-231.47 1149,4 -4,4"/>
<!-- Node1 -->
<g id="node1" class="node"><title>Node1</title>
<g id="a_node1"><a xlink:title=" ">
<polygon fill="#bfbfbf" stroke="black" points="0,-81.9696 0,-100.97 108,-100.97 108,-81.9696 0,-81.9696"/>
<text text-anchor="middle" x="54" y="-88.9696" font-family="Helvetica,sans-Serif" font-size="10.00">TMC2208Stepper::tbl</text>
</a>
</g>
</g>
<!-- Node2 -->
<g id="node2" class="node"><title>Node2</title>
<g id="a_node2"><a xlink:href="../../d6/d7e/class_t_m_c2208_stepper.html#a84a5b9684c546c5f4549f375048512be" target="_top" xlink:title=" ">
<polygon fill="white" stroke="black" points="144,-81.9696 144,-100.97 252,-100.97 252,-81.9696 144,-81.9696"/>
<text text-anchor="middle" x="198" y="-88.9696" font-family="Helvetica,sans-Serif" font-size="10.00">TMC2208Stepper::tbl</text>
</a>
</g>
</g>
<!-- Node1&#45;&gt;Node2 -->
<g id="edge1" class="edge"><title>Node1&#45;&gt;Node2</title>
<path fill="none" stroke="midnightblue" d="M108.28,-91.4696C116.56,-91.4696 125.184,-91.4696 133.661,-91.4696"/>
<polygon fill="midnightblue" stroke="midnightblue" points="133.894,-94.9697 143.894,-91.4696 133.894,-87.9697 133.894,-94.9697"/>
</g>
<!-- Node3 -->
<g id="node3" class="node"><title>Node3</title>
<g id="a_node3"><a xlink:href="../../d6/d7e/class_t_m_c2208_stepper.html#aa11281f54c293f3ff2539b1a583682a9" target="_top" xlink:title=" ">
<polygon fill="white" stroke="black" points="288,-81.9696 288,-100.97 440,-100.97 440,-81.9696 288,-81.9696"/>
<text text-anchor="middle" x="364" y="-88.9696" font-family="Helvetica,sans-Serif" font-size="10.00">TMC2208Stepper::CHOPCONF</text>
</a>
</g>
</g>
<!-- Node2&#45;&gt;Node3 -->
<g id="edge2" class="edge"><title>Node2&#45;&gt;Node3</title>
<path fill="none" stroke="midnightblue" d="M252.246,-91.4696C260.447,-91.4696 269.088,-91.4696 277.777,-91.4696"/>
<polygon fill="midnightblue" stroke="midnightblue" points="277.976,-94.9697 287.976,-91.4696 277.976,-87.9697 277.976,-94.9697"/>
</g>
<!-- Node4 -->
<g id="node4" class="node"><title>Node4</title>
<g id="a_node4"><a xlink:href="../../d6/d7e/class_t_m_c2208_stepper.html#a2fae2050849c3ab7968012def8ea1cc5" target="_top" xlink:title=" ">
<polygon fill="white" stroke="black" points="476,-81.9696 476,-100.97 592,-100.97 592,-81.9696 476,-81.9696"/>
<text text-anchor="middle" x="534" y="-88.9696" font-family="Helvetica,sans-Serif" font-size="10.00">TMC2208Stepper::read</text>
</a>
</g>
</g>
<!-- Node3&#45;&gt;Node4 -->
<g id="edge3" class="edge"><title>Node3&#45;&gt;Node4</title>
<path fill="none" stroke="midnightblue" d="M440.155,-91.4696C448.664,-91.4696 457.296,-91.4696 465.696,-91.4696"/>
<polygon fill="midnightblue" stroke="midnightblue" points="465.802,-94.9697 475.802,-91.4696 465.802,-87.9697 465.802,-94.9697"/>
</g>
<!-- Node5 -->
<g id="node5" class="node"><title>Node5</title>
<g id="a_node5"><a xlink:href="../../d6/d7e/class_t_m_c2208_stepper.html#a321ad81155b7a20c0858920d32d0b074" target="_top" xlink:title=" ">
<polygon fill="white" stroke="black" points="637,-157.97 637,-176.97 803,-176.97 803,-157.97 637,-157.97"/>
<text text-anchor="middle" x="720" y="-164.97" font-family="Helvetica,sans-Serif" font-size="10.00">TMC2208Stepper::_sendDatagram</text>
</a>
</g>
</g>
<!-- Node4&#45;&gt;Node5 -->
<g id="edge4" class="edge"><title>Node4&#45;&gt;Node5</title>
<path fill="none" stroke="midnightblue" d="M547.494,-101.088C564.681,-113.843 597.022,-136.174 628,-148.47 634.6,-151.089 641.62,-153.37 648.72,-155.35"/>
<polygon fill="midnightblue" stroke="midnightblue" points="647.861,-158.743 658.42,-157.869 649.62,-151.968 647.861,-158.743"/>
</g>
<!-- Node11 -->
<g id="node11" class="node"><title>Node11</title>
<g id="a_node11"><a xlink:href="../../d6/d7e/class_t_m_c2208_stepper.html#a409c19fa6b052a370a317d061bf9af4e" target="_top" xlink:title=" ">
<polygon fill="white" stroke="black" points="652,-119.97 652,-138.97 788,-138.97 788,-119.97 652,-119.97"/>
<text text-anchor="middle" x="720" y="-126.97" font-family="Helvetica,sans-Serif" font-size="10.00">TMC2208Stepper::calcCRC</text>
</a>
</g>
</g>
<!-- Node4&#45;&gt;Node11 -->
<g id="edge11" class="edge"><title>Node4&#45;&gt;Node11</title>
<path fill="none" stroke="midnightblue" d="M581.431,-101.059C606.149,-106.163 636.739,-112.481 662.792,-117.861"/>
<polygon fill="midnightblue" stroke="midnightblue" points="662.402,-121.355 672.903,-119.95 663.817,-114.499 662.402,-121.355"/>
</g>
<!-- Node12 -->
<g id="node12" class="node"><title>Node12</title>
<g id="a_node12"><a xlink:href="../../d6/d7e/class_t_m_c2208_stepper.html#a673ade174158b47e3b345b1d7b3c473d" target="_top" xlink:title=" ">
<polygon fill="white" stroke="black" points="628,-81.9696 628,-100.97 812,-100.97 812,-81.9696 628,-81.9696"/>
<text text-anchor="middle" x="720" y="-88.9696" font-family="Helvetica,sans-Serif" font-size="10.00">TMC2208Stepper::postCommunication</text>
</a>
</g>
</g>
<!-- Node4&#45;&gt;Node12 -->
<g id="edge12" class="edge"><title>Node4&#45;&gt;Node12</title>
<path fill="none" stroke="midnightblue" d="M592.21,-91.4696C600.323,-91.4696 608.86,-91.4696 617.51,-91.4696"/>
<polygon fill="midnightblue" stroke="midnightblue" points="617.697,-94.9697 627.697,-91.4696 617.697,-87.9697 617.697,-94.9697"/>
</g>
<!-- Node13 -->
<g id="node13" class="node"><title>Node13</title>
<g id="a_node13"><a xlink:href="../../d6/d7e/class_t_m_c2208_stepper.html#a0ba01db6c4c01da7cb0ace8a524ab1da" target="_top" xlink:title=" ">
<polygon fill="white" stroke="black" points="630.5,-43.9696 630.5,-62.9696 809.5,-62.9696 809.5,-43.9696 630.5,-43.9696"/>
<text text-anchor="middle" x="720" y="-50.9696" font-family="Helvetica,sans-Serif" font-size="10.00">TMC2208Stepper::preCommunication</text>
</a>
</g>
</g>
<!-- Node4&#45;&gt;Node13 -->
<g id="edge13" class="edge"><title>Node4&#45;&gt;Node13</title>
<path fill="none" stroke="midnightblue" d="M581.431,-81.8806C606.149,-76.7758 636.739,-70.4583 662.792,-65.0778"/>
<polygon fill="midnightblue" stroke="midnightblue" points="663.817,-68.44 672.903,-62.9897 662.402,-61.5846 663.817,-68.44"/>
</g>
<!-- Node6 -->
<g id="node6" class="node"><title>Node6</title>
<g id="a_node6"><a xlink:href="../../d6/d7e/class_t_m_c2208_stepper.html#a7a670b15f45466f8d167a9b80fbf384f" target="_top" xlink:title=" ">
<polygon fill="white" stroke="black" points="853.5,-207.97 853.5,-226.97 987.5,-226.97 987.5,-207.97 853.5,-207.97"/>
<text text-anchor="middle" x="920.5" y="-214.97" font-family="Helvetica,sans-Serif" font-size="10.00">TMC2208Stepper::available</text>
</a>
</g>
</g>
<!-- Node5&#45;&gt;Node6 -->
<g id="edge5" class="edge"><title>Node5&#45;&gt;Node6</title>
<path fill="none" stroke="midnightblue" d="M758.804,-176.992C790.849,-185.064 836.983,-196.684 871.607,-205.406"/>
<polygon fill="midnightblue" stroke="midnightblue" points="870.948,-208.849 881.5,-207.898 872.657,-202.061 870.948,-208.849"/>
</g>
<!-- Node7 -->
<g id="node7" class="node"><title>Node7</title>
<g id="a_node7"><a xlink:href="../../d6/d7e/class_t_m_c2208_stepper.html#a4ec5d2b2f5a31259c7aba1f3208d63b8" target="_top" xlink:title=" ">
<polygon fill="white" stroke="black" points="862.5,-169.97 862.5,-188.97 978.5,-188.97 978.5,-169.97 862.5,-169.97"/>
<text text-anchor="middle" x="920.5" y="-176.97" font-family="Helvetica,sans-Serif" font-size="10.00">TMC2208Stepper::ms2</text>
</a>
</g>
</g>
<!-- Node5&#45;&gt;Node7 -->
<g id="edge6" class="edge"><title>Node5&#45;&gt;Node7</title>
<path fill="none" stroke="midnightblue" d="M803.17,-172.437C819.532,-173.426 836.531,-174.454 852.318,-175.408"/>
<polygon fill="midnightblue" stroke="midnightblue" points="852.305,-178.914 862.498,-176.024 852.727,-171.927 852.305,-178.914"/>
</g>
<!-- Node9 -->
<g id="node9" class="node"><title>Node9</title>
<g id="a_node9"><a xlink:href="../../d6/d7e/class_t_m_c2208_stepper.html#a129ceb04c3ea18e2c4ec1a59a51ece85" target="_top" xlink:title=" ">
<polygon fill="white" stroke="black" points="848,-131.97 848,-150.97 993,-150.97 993,-131.97 848,-131.97"/>
<text text-anchor="middle" x="920.5" y="-138.97" font-family="Helvetica,sans-Serif" font-size="10.00">TMC2208Stepper::serial_read</text>
</a>
</g>
</g>
<!-- Node5&#45;&gt;Node9 -->
<g id="edge9" class="edge"><title>Node5&#45;&gt;Node9</title>
<path fill="none" stroke="midnightblue" d="M793.787,-157.936C808.081,-156.064 823.166,-154.088 837.731,-152.18"/>
<polygon fill="midnightblue" stroke="midnightblue" points="838.256,-155.641 847.716,-150.872 837.346,-148.7 838.256,-155.641"/>
</g>
<!-- Node10 -->
<g id="node10" class="node"><title>Node10</title>
<g id="a_node10"><a xlink:href="../../d6/d7e/class_t_m_c2208_stepper.html#aa7f2c1a3a1cda9a328c186c6d7cbfe41" target="_top" xlink:title=" ">
<polygon fill="white" stroke="black" points="860,-82.4696 860,-112.47 981,-112.47 981,-82.4696 860,-82.4696"/>
<text text-anchor="start" x="868" y="-100.47" font-family="Helvetica,sans-Serif" font-size="10.00">TMC2208Stepper::serial</text>
<text text-anchor="middle" x="920.5" y="-89.4696" font-family="Helvetica,sans-Serif" font-size="10.00">_write</text>
</a>
</g>
</g>
<!-- Node5&#45;&gt;Node10 -->
<g id="edge10" class="edge"><title>Node5&#45;&gt;Node10</title>
<path fill="none" stroke="midnightblue" d="M784.251,-157.863C793.759,-155.397 803.289,-152.315 812,-148.47 830.056,-140.5 830.502,-131.6 848,-122.47 852.044,-120.36 856.305,-118.362 860.65,-116.486"/>
<polygon fill="midnightblue" stroke="midnightblue" points="862.304,-119.591 870.243,-112.575 859.662,-113.109 862.304,-119.591"/>
</g>
<!-- Node8 -->
<g id="node8" class="node"><title>Node8</title>
<g id="a_node8"><a xlink:href="../../d6/d7e/class_t_m_c2208_stepper.html#a5441dd87d0bcea4ffc309cb012166a57" target="_top" xlink:title=" ">
<polygon fill="white" stroke="black" points="1029,-87.9696 1029,-106.97 1145,-106.97 1145,-87.9696 1029,-87.9696"/>
<text text-anchor="middle" x="1087" y="-94.9696" font-family="Helvetica,sans-Serif" font-size="10.00">TMC2208Stepper::IOIN</text>
</a>
</g>
</g>
<!-- Node7&#45;&gt;Node8 -->
<g id="edge7" class="edge"><title>Node7&#45;&gt;Node8</title>
<path fill="none" stroke="midnightblue" d="M966.551,-169.968C975.507,-167.396 984.702,-164.251 993,-160.47 1020.45,-147.961 1048.68,-127.566 1066.73,-113.383"/>
<polygon fill="midnightblue" stroke="midnightblue" points="1069.11,-115.965 1074.72,-106.982 1064.73,-110.501 1069.11,-115.965"/>
</g>
<!-- Node8&#45;&gt;Node4 -->
<g id="edge8" class="edge"><title>Node8&#45;&gt;Node4</title>
<path fill="none" stroke="midnightblue" d="M1076.21,-87.8203C1060.34,-72.9361 1027.3,-44.9951 993,-34.4696 837.914,13.1145 784.13,9.56986 628,-34.4696 599.807,-42.4221 571.729,-61.5756 553.921,-75.4902"/>
<polygon fill="midnightblue" stroke="midnightblue" points="551.643,-72.8308 546.049,-81.8281 556.033,-78.2834 551.643,-72.8308"/>
</g>
<!-- Node14 -->
<g id="node14" class="node"><title>Node14</title>
<g id="a_node14"><a xlink:href="../../d9/d98/class_s_switch.html#a6ff09d0850d551571dc333fb74ff8628" target="_top" xlink:title=" ">
<polygon fill="white" stroke="black" points="879,-43.9696 879,-62.9696 962,-62.9696 962,-43.9696 879,-43.9696"/>
<text text-anchor="middle" x="920.5" y="-50.9696" font-family="Helvetica,sans-Serif" font-size="10.00">SSwitch::active</text>
</a>
</g>
</g>
<!-- Node13&#45;&gt;Node14 -->
<g id="edge14" class="edge"><title>Node13&#45;&gt;Node14</title>
<path fill="none" stroke="midnightblue" d="M809.51,-53.4696C829.828,-53.4696 850.753,-53.4696 868.826,-53.4696"/>
<polygon fill="midnightblue" stroke="midnightblue" points="868.83,-56.9697 878.83,-53.4696 868.83,-49.9697 868.83,-56.9697"/>
</g>
</g>
</svg>
