<?xml version="1.0" encoding="UTF-8" standalone="no"?>
<!DOCTYPE svg PUBLIC "-//W3C//DTD SVG 1.1//EN"
 "http://www.w3.org/Graphics/SVG/1.1/DTD/svg11.dtd">
<!-- Generated by graphviz version 2.38.0 (20140413.2041)
 -->
<!-- Title: TMC2208Stepper::FACTORY_CONF Pages: 1 -->
<svg width="677pt" height="154pt"
 viewBox="0.00 0.00 677.00 153.50" xmlns="http://www.w3.org/2000/svg" xmlns:xlink="http://www.w3.org/1999/xlink">
<g id="graph0" class="graph" transform="scale(1 1) rotate(0) translate(4 149.5)">
<title>TMC2208Stepper::FACTORY_CONF</title>
<polygon fill="white" stroke="none" points="-4,4 -4,-149.5 673,-149.5 673,4 -4,4"/>
<!-- Node1 -->
<g id="node1" class="node"><title>Node1</title>
<g id="a_node1"><a xlink:title=" ">
<polygon fill="#bfbfbf" stroke="black" points="0,-69 0,-88 176,-88 176,-69 0,-69"/>
<text text-anchor="middle" x="88" y="-76" font-family="Helvetica,sans-Serif" font-size="10.00">TMC2208Stepper::FACTORY_CONF</text>
</a>
</g>
</g>
<!-- Node2 -->
<g id="node2" class="node"><title>Node2</title>
<g id="a_node2"><a xlink:href="../../d6/d7e/class_t_m_c2208_stepper.html#a142b14de8a4dcc6cf76b4a6ede9e1cea" target="_top" xlink:title=" ">
<polygon fill="white" stroke="black" points="212,-69 212,-88 330,-88 330,-69 212,-69"/>
<text text-anchor="middle" x="271" y="-76" font-family="Helvetica,sans-Serif" font-size="10.00">TMC2208Stepper::write</text>
</a>
</g>
</g>
<!-- Node1&#45;&gt;Node2 -->
<g id="edge1" class="edge"><title>Node1&#45;&gt;Node2</title>
<path fill="none" stroke="midnightblue" d="M176.054,-78.5C184.682,-78.5 193.351,-78.5 201.748,-78.5"/>
<polygon fill="midnightblue" stroke="midnightblue" points="201.835,-82.0001 211.835,-78.5 201.835,-75.0001 201.835,-82.0001"/>
</g>
<!-- Node3 -->
<g id="node3" class="node"><title>Node3</title>
<g id="a_node3"><a xlink:href="../../d6/d7e/class_t_m_c2208_stepper.html#a409c19fa6b052a370a317d061bf9af4e" target="_top" xlink:title=" ">
<polygon fill="white" stroke="black" points="390,-126 390,-145 526,-145 526,-126 390,-126"/>
<text text-anchor="middle" x="458" y="-133" font-family="Helvetica,sans-Serif" font-size="10.00">TMC2208Stepper::calcCRC</text>
</a>
</g>
</g>
<!-- Node2&#45;&gt;Node3 -->
<g id="edge2" class="edge"><title>Node2&#45;&gt;Node3</title>
<path fill="none" stroke="midnightblue" d="M292.524,-88.037C311.315,-96.4682 340.063,-108.619 366,-116.5 374.732,-119.153 384.046,-121.562 393.26,-123.703"/>
<polygon fill="midnightblue" stroke="midnightblue" points="392.663,-127.156 403.186,-125.922 394.19,-120.325 392.663,-127.156"/>
</g>
<!-- Node4 -->
<g id="node4" class="node"><title>Node4</title>
<g id="a_node4"><a xlink:href="../../d6/d7e/class_t_m_c2208_stepper.html#a673ade174158b47e3b345b1d7b3c473d" target="_top" xlink:title=" ">
<polygon fill="white" stroke="black" points="366,-88 366,-107 550,-107 550,-88 366,-88"/>
<text text-anchor="middle" x="458" y="-95" font-family="Helvetica,sans-Serif" font-size="10.00">TMC2208Stepper::postCommunication</text>
</a>
</g>
</g>
<!-- Node2&#45;&gt;Node4 -->
<g id="edge3" class="edge"><title>Node2&#45;&gt;Node4</title>
<path fill="none" stroke="midnightblue" d="M330.028,-84.4596C338.343,-85.3136 347.091,-86.2121 355.945,-87.1214"/>
<polygon fill="midnightblue" stroke="midnightblue" points="355.664,-90.6108 365.969,-88.1509 356.379,-83.6475 355.664,-90.6108"/>
</g>
<!-- Node5 -->
<g id="node5" class="node"><title>Node5</title>
<g id="a_node5"><a xlink:href="../../d6/d7e/class_t_m_c2208_stepper.html#a0ba01db6c4c01da7cb0ace8a524ab1da" target="_top" xlink:title=" ">
<polygon fill="white" stroke="black" points="368.5,-50 368.5,-69 547.5,-69 547.5,-50 368.5,-50"/>
<text text-anchor="middle" x="458" y="-57" font-family="Helvetica,sans-Serif" font-size="10.00">TMC2208Stepper::preCommunication</text>
</a>
</g>
</g>
<!-- Node2&#45;&gt;Node5 -->
<g id="edge4" class="edge"><title>Node2&#45;&gt;Node5</title>
<path fill="none" stroke="midnightblue" d="M330.028,-72.5404C339.072,-71.6115 348.629,-70.63 358.277,-69.6391"/>
<polygon fill="midnightblue" stroke="midnightblue" points="358.757,-73.1083 368.347,-68.6049 358.042,-66.145 358.757,-73.1083"/>
</g>
<!-- Node7 -->
<g id="node7" class="node"><title>Node7</title>
<g id="a_node7"><a xlink:href="../../d6/d7e/class_t_m_c2208_stepper.html#aa7f2c1a3a1cda9a328c186c6d7cbfe41" target="_top" xlink:title=" ">
<polygon fill="white" stroke="black" points="397.5,-0.5 397.5,-30.5 518.5,-30.5 518.5,-0.5 397.5,-0.5"/>
<text text-anchor="start" x="405.5" y="-18.5" font-family="Helvetica,sans-Serif" font-size="10.00">TMC2208Stepper::serial</text>
<text text-anchor="middle" x="458" y="-7.5" font-family="Helvetica,sans-Serif" font-size="10.00">_write</text>
</a>
</g>
</g>
<!-- Node2&#45;&gt;Node7 -->
<g id="edge6" class="edge"><title>Node2&#45;&gt;Node7</title>
<path fill="none" stroke="midnightblue" d="M293.761,-68.8638C312.642,-60.7065 340.821,-49.0159 366,-40.5 373.312,-38.0271 381.014,-35.6178 388.715,-33.3323"/>
<polygon fill="midnightblue" stroke="midnightblue" points="389.813,-36.6581 398.44,-30.5082 387.861,-29.9358 389.813,-36.6581"/>
</g>
<!-- Node6 -->
<g id="node6" class="node"><title>Node6</title>
<g id="a_node6"><a xlink:href="../../d9/d98/class_s_switch.html#a6ff09d0850d551571dc333fb74ff8628" target="_top" xlink:title=" ">
<polygon fill="white" stroke="black" points="586,-50 586,-69 669,-69 669,-50 586,-50"/>
<text text-anchor="middle" x="627.5" y="-57" font-family="Helvetica,sans-Serif" font-size="10.00">SSwitch::active</text>
</a>
</g>
</g>
<!-- Node5&#45;&gt;Node6 -->
<g id="edge5" class="edge"><title>Node5&#45;&gt;Node6</title>
<path fill="none" stroke="midnightblue" d="M547.655,-59.5C557.243,-59.5 566.745,-59.5 575.657,-59.5"/>
<polygon fill="midnightblue" stroke="midnightblue" points="575.816,-63.0001 585.816,-59.5 575.816,-56.0001 575.816,-63.0001"/>
</g>
</g>
</svg>
