<?xml version="1.0" encoding="UTF-8" standalone="no"?>
<!DOCTYPE svg PUBLIC "-//W3C//DTD SVG 1.1//EN"
 "http://www.w3.org/Graphics/SVG/1.1/DTD/svg11.dtd">
<!-- Generated by graphviz version 2.38.0 (20140413.2041)
 -->
<!-- Title: TMC2208Stepper::toff Pages: 1 -->
<svg width="1011pt" height="235pt"
 viewBox="0.00 0.00 1011.00 235.47" xmlns="http://www.w3.org/2000/svg" xmlns:xlink="http://www.w3.org/1999/xlink">
<g id="graph0" class="graph" transform="scale(1 1) rotate(0) translate(4 231.47)">
<title>TMC2208Stepper::toff</title>
<polygon fill="white" stroke="none" points="-4,4 -4,-231.47 1007,-231.47 1007,4 -4,4"/>
<!-- Node1 -->
<g id="node1" class="node"><title>Node1</title>
<g id="a_node1"><a xlink:title=" ">
<polygon fill="#bfbfbf" stroke="black" points="0,-81.9696 0,-100.97 110,-100.97 110,-81.9696 0,-81.9696"/>
<text text-anchor="middle" x="55" y="-88.9696" font-family="Helvetica,sans-Serif" font-size="10.00">TMC2208Stepper::toff</text>
</a>
</g>
</g>
<!-- Node2 -->
<g id="node2" class="node"><title>Node2</title>
<g id="a_node2"><a xlink:href="../../d6/d7e/class_t_m_c2208_stepper.html#aa11281f54c293f3ff2539b1a583682a9" target="_top" xlink:title=" ">
<polygon fill="white" stroke="black" points="146,-81.9696 146,-100.97 298,-100.97 298,-81.9696 146,-81.9696"/>
<text text-anchor="middle" x="222" y="-88.9696" font-family="Helvetica,sans-Serif" font-size="10.00">TMC2208Stepper::CHOPCONF</text>
</a>
</g>
</g>
<!-- Node1&#45;&gt;Node2 -->
<g id="edge1" class="edge"><title>Node1&#45;&gt;Node2</title>
<path fill="none" stroke="midnightblue" d="M110.027,-91.4696C118.269,-91.4696 126.942,-91.4696 135.658,-91.4696"/>
<polygon fill="midnightblue" stroke="midnightblue" points="135.886,-94.9697 145.886,-91.4696 135.886,-87.9697 135.886,-94.9697"/>
</g>
<!-- Node3 -->
<g id="node3" class="node"><title>Node3</title>
<g id="a_node3"><a xlink:href="../../d6/d7e/class_t_m_c2208_stepper.html#a2fae2050849c3ab7968012def8ea1cc5" target="_top" xlink:title=" ">
<polygon fill="white" stroke="black" points="334,-81.9696 334,-100.97 450,-100.97 450,-81.9696 334,-81.9696"/>
<text text-anchor="middle" x="392" y="-88.9696" font-family="Helvetica,sans-Serif" font-size="10.00">TMC2208Stepper::read</text>
</a>
</g>
</g>
<!-- Node2&#45;&gt;Node3 -->
<g id="edge2" class="edge"><title>Node2&#45;&gt;Node3</title>
<path fill="none" stroke="midnightblue" d="M298.155,-91.4696C306.664,-91.4696 315.296,-91.4696 323.696,-91.4696"/>
<polygon fill="midnightblue" stroke="midnightblue" points="323.802,-94.9697 333.802,-91.4696 323.802,-87.9697 323.802,-94.9697"/>
</g>
<!-- Node4 -->
<g id="node4" class="node"><title>Node4</title>
<g id="a_node4"><a xlink:href="../../d6/d7e/class_t_m_c2208_stepper.html#a321ad81155b7a20c0858920d32d0b074" target="_top" xlink:title=" ">
<polygon fill="white" stroke="black" points="495,-157.97 495,-176.97 661,-176.97 661,-157.97 495,-157.97"/>
<text text-anchor="middle" x="578" y="-164.97" font-family="Helvetica,sans-Serif" font-size="10.00">TMC2208Stepper::_sendDatagram</text>
</a>
</g>
</g>
<!-- Node3&#45;&gt;Node4 -->
<g id="edge3" class="edge"><title>Node3&#45;&gt;Node4</title>
<path fill="none" stroke="midnightblue" d="M405.494,-101.088C422.681,-113.843 455.022,-136.174 486,-148.47 492.6,-151.089 499.62,-153.37 506.72,-155.35"/>
<polygon fill="midnightblue" stroke="midnightblue" points="505.861,-158.743 516.42,-157.869 507.62,-151.968 505.861,-158.743"/>
</g>
<!-- Node10 -->
<g id="node10" class="node"><title>Node10</title>
<g id="a_node10"><a xlink:href="../../d6/d7e/class_t_m_c2208_stepper.html#a409c19fa6b052a370a317d061bf9af4e" target="_top" xlink:title=" ">
<polygon fill="white" stroke="black" points="510,-119.97 510,-138.97 646,-138.97 646,-119.97 510,-119.97"/>
<text text-anchor="middle" x="578" y="-126.97" font-family="Helvetica,sans-Serif" font-size="10.00">TMC2208Stepper::calcCRC</text>
</a>
</g>
</g>
<!-- Node3&#45;&gt;Node10 -->
<g id="edge10" class="edge"><title>Node3&#45;&gt;Node10</title>
<path fill="none" stroke="midnightblue" d="M439.431,-101.059C464.149,-106.163 494.739,-112.481 520.792,-117.861"/>
<polygon fill="midnightblue" stroke="midnightblue" points="520.402,-121.355 530.903,-119.95 521.817,-114.499 520.402,-121.355"/>
</g>
<!-- Node11 -->
<g id="node11" class="node"><title>Node11</title>
<g id="a_node11"><a xlink:href="../../d6/d7e/class_t_m_c2208_stepper.html#a673ade174158b47e3b345b1d7b3c473d" target="_top" xlink:title=" ">
<polygon fill="white" stroke="black" points="486,-81.9696 486,-100.97 670,-100.97 670,-81.9696 486,-81.9696"/>
<text text-anchor="middle" x="578" y="-88.9696" font-family="Helvetica,sans-Serif" font-size="10.00">TMC2208Stepper::postCommunication</text>
</a>
</g>
</g>
<!-- Node3&#45;&gt;Node11 -->
<g id="edge11" class="edge"><title>Node3&#45;&gt;Node11</title>
<path fill="none" stroke="midnightblue" d="M450.21,-91.4696C458.323,-91.4696 466.86,-91.4696 475.51,-91.4696"/>
<polygon fill="midnightblue" stroke="midnightblue" points="475.697,-94.9697 485.697,-91.4696 475.697,-87.9697 475.697,-94.9697"/>
</g>
<!-- Node12 -->
<g id="node12" class="node"><title>Node12</title>
<g id="a_node12"><a xlink:href="../../d6/d7e/class_t_m_c2208_stepper.html#a0ba01db6c4c01da7cb0ace8a524ab1da" target="_top" xlink:title=" ">
<polygon fill="white" stroke="black" points="488.5,-43.9696 488.5,-62.9696 667.5,-62.9696 667.5,-43.9696 488.5,-43.9696"/>
<text text-anchor="middle" x="578" y="-50.9696" font-family="Helvetica,sans-Serif" font-size="10.00">TMC2208Stepper::preCommunication</text>
</a>
</g>
</g>
<!-- Node3&#45;&gt;Node12 -->
<g id="edge12" class="edge"><title>Node3&#45;&gt;Node12</title>
<path fill="none" stroke="midnightblue" d="M439.431,-81.8806C464.149,-76.7758 494.739,-70.4583 520.792,-65.0778"/>
<polygon fill="midnightblue" stroke="midnightblue" points="521.817,-68.44 530.903,-62.9897 520.402,-61.5846 521.817,-68.44"/>
</g>
<!-- Node5 -->
<g id="node5" class="node"><title>Node5</title>
<g id="a_node5"><a xlink:href="../../d6/d7e/class_t_m_c2208_stepper.html#a7a670b15f45466f8d167a9b80fbf384f" target="_top" xlink:title=" ">
<polygon fill="white" stroke="black" points="711.5,-207.97 711.5,-226.97 845.5,-226.97 845.5,-207.97 711.5,-207.97"/>
<text text-anchor="middle" x="778.5" y="-214.97" font-family="Helvetica,sans-Serif" font-size="10.00">TMC2208Stepper::available</text>
</a>
</g>
</g>
<!-- Node4&#45;&gt;Node5 -->
<g id="edge4" class="edge"><title>Node4&#45;&gt;Node5</title>
<path fill="none" stroke="midnightblue" d="M616.804,-176.992C648.849,-185.064 694.983,-196.684 729.607,-205.406"/>
<polygon fill="midnightblue" stroke="midnightblue" points="728.948,-208.849 739.5,-207.898 730.657,-202.061 728.948,-208.849"/>
</g>
<!-- Node6 -->
<g id="node6" class="node"><title>Node6</title>
<g id="a_node6"><a xlink:href="../../d6/d7e/class_t_m_c2208_stepper.html#a4ec5d2b2f5a31259c7aba1f3208d63b8" target="_top" xlink:title=" ">
<polygon fill="white" stroke="black" points="720.5,-169.97 720.5,-188.97 836.5,-188.97 836.5,-169.97 720.5,-169.97"/>
<text text-anchor="middle" x="778.5" y="-176.97" font-family="Helvetica,sans-Serif" font-size="10.00">TMC2208Stepper::ms2</text>
</a>
</g>
</g>
<!-- Node4&#45;&gt;Node6 -->
<g id="edge5" class="edge"><title>Node4&#45;&gt;Node6</title>
<path fill="none" stroke="midnightblue" d="M661.17,-172.437C677.532,-173.426 694.531,-174.454 710.318,-175.408"/>
<polygon fill="midnightblue" stroke="midnightblue" points="710.305,-178.914 720.498,-176.024 710.727,-171.927 710.305,-178.914"/>
</g>
<!-- Node8 -->
<g id="node8" class="node"><title>Node8</title>
<g id="a_node8"><a xlink:href="../../d6/d7e/class_t_m_c2208_stepper.html#a129ceb04c3ea18e2c4ec1a59a51ece85" target="_top" xlink:title=" ">
<polygon fill="white" stroke="black" points="706,-131.97 706,-150.97 851,-150.97 851,-131.97 706,-131.97"/>
<text text-anchor="middle" x="778.5" y="-138.97" font-family="Helvetica,sans-Serif" font-size="10.00">TMC2208Stepper::serial_read</text>
</a>
</g>
</g>
<!-- Node4&#45;&gt;Node8 -->
<g id="edge8" class="edge"><title>Node4&#45;&gt;Node8</title>
<path fill="none" stroke="midnightblue" d="M651.787,-157.936C666.081,-156.064 681.166,-154.088 695.731,-152.18"/>
<polygon fill="midnightblue" stroke="midnightblue" points="696.256,-155.641 705.716,-150.872 695.346,-148.7 696.256,-155.641"/>
</g>
<!-- Node9 -->
<g id="node9" class="node"><title>Node9</title>
<g id="a_node9"><a xlink:href="../../d6/d7e/class_t_m_c2208_stepper.html#aa7f2c1a3a1cda9a328c186c6d7cbfe41" target="_top" xlink:title=" ">
<polygon fill="white" stroke="black" points="718,-82.4696 718,-112.47 839,-112.47 839,-82.4696 718,-82.4696"/>
<text text-anchor="start" x="726" y="-100.47" font-family="Helvetica,sans-Serif" font-size="10.00">TMC2208Stepper::serial</text>
<text text-anchor="middle" x="778.5" y="-89.4696" font-family="Helvetica,sans-Serif" font-size="10.00">_write</text>
</a>
</g>
</g>
<!-- Node4&#45;&gt;Node9 -->
<g id="edge9" class="edge"><title>Node4&#45;&gt;Node9</title>
<path fill="none" stroke="midnightblue" d="M642.251,-157.863C651.759,-155.397 661.289,-152.315 670,-148.47 688.056,-140.5 688.502,-131.6 706,-122.47 710.044,-120.36 714.305,-118.362 718.65,-116.486"/>
<polygon fill="midnightblue" stroke="midnightblue" points="720.304,-119.591 728.243,-112.575 717.662,-113.109 720.304,-119.591"/>
</g>
<!-- Node7 -->
<g id="node7" class="node"><title>Node7</title>
<g id="a_node7"><a xlink:href="../../d6/d7e/class_t_m_c2208_stepper.html#a5441dd87d0bcea4ffc309cb012166a57" target="_top" xlink:title=" ">
<polygon fill="white" stroke="black" points="887,-87.9696 887,-106.97 1003,-106.97 1003,-87.9696 887,-87.9696"/>
<text text-anchor="middle" x="945" y="-94.9696" font-family="Helvetica,sans-Serif" font-size="10.00">TMC2208Stepper::IOIN</text>
</a>
</g>
</g>
<!-- Node6&#45;&gt;Node7 -->
<g id="edge6" class="edge"><title>Node6&#45;&gt;Node7</title>
<path fill="none" stroke="midnightblue" d="M824.551,-169.968C833.507,-167.396 842.702,-164.251 851,-160.47 878.451,-147.961 906.683,-127.566 924.73,-113.383"/>
<polygon fill="midnightblue" stroke="midnightblue" points="927.106,-115.965 932.723,-106.982 922.73,-110.501 927.106,-115.965"/>
</g>
<!-- Node7&#45;&gt;Node3 -->
<g id="edge7" class="edge"><title>Node7&#45;&gt;Node3</title>
<path fill="none" stroke="midnightblue" d="M934.209,-87.8203C918.34,-72.9361 885.305,-44.9951 851,-34.4696 695.914,13.1145 642.13,9.56986 486,-34.4696 457.807,-42.4221 429.729,-61.5756 411.921,-75.4902"/>
<polygon fill="midnightblue" stroke="midnightblue" points="409.643,-72.8308 404.049,-81.8281 414.033,-78.2834 409.643,-72.8308"/>
</g>
<!-- Node13 -->
<g id="node13" class="node"><title>Node13</title>
<g id="a_node13"><a xlink:href="../../d9/d98/class_s_switch.html#a6ff09d0850d551571dc333fb74ff8628" target="_top" xlink:title=" ">
<polygon fill="white" stroke="black" points="737,-43.9696 737,-62.9696 820,-62.9696 820,-43.9696 737,-43.9696"/>
<text text-anchor="middle" x="778.5" y="-50.9696" font-family="Helvetica,sans-Serif" font-size="10.00">SSwitch::active</text>
</a>
</g>
</g>
<!-- Node12&#45;&gt;Node13 -->
<g id="edge13" class="edge"><title>Node12&#45;&gt;Node13</title>
<path fill="none" stroke="midnightblue" d="M667.51,-53.4696C687.828,-53.4696 708.753,-53.4696 726.826,-53.4696"/>
<polygon fill="midnightblue" stroke="midnightblue" points="726.83,-56.9697 736.83,-53.4696 726.83,-49.9697 726.83,-56.9697"/>
</g>
</g>
</svg>
