<?xml version="1.0" encoding="UTF-8" standalone="no"?>
<!DOCTYPE svg PUBLIC "-//W3C//DTD SVG 1.1//EN"
 "http://www.w3.org/Graphics/SVG/1.1/DTD/svg11.dtd">
<!-- Generated by graphviz version 2.38.0 (20140413.2041)
 -->
<!-- Title: TMC2208Stepper::_sendDatagram Pages: 1 -->
<svg width="998pt" height="189pt"
 viewBox="0.00 0.00 998.00 189.00" xmlns="http://www.w3.org/2000/svg" xmlns:xlink="http://www.w3.org/1999/xlink">
<g id="graph0" class="graph" transform="scale(1 1) rotate(0) translate(4 185)">
<title>TMC2208Stepper::_sendDatagram</title>
<polygon fill="white" stroke="none" points="-4,4 -4,-185 994,-185 994,4 -4,4"/>
<!-- Node1 -->
<g id="node1" class="node"><title>Node1</title>
<g id="a_node1"><a xlink:title=" ">
<polygon fill="#bfbfbf" stroke="black" points="0,-85.5 0,-104.5 166,-104.5 166,-85.5 0,-85.5"/>
<text text-anchor="middle" x="83" y="-92.5" font-family="Helvetica,sans-Serif" font-size="10.00">TMC2208Stepper::_sendDatagram</text>
</a>
</g>
</g>
<!-- Node2 -->
<g id="node2" class="node"><title>Node2</title>
<g id="a_node2"><a xlink:href="../../d6/d7e/class_t_m_c2208_stepper.html#a7a670b15f45466f8d167a9b80fbf384f" target="_top" xlink:title=" ">
<polygon fill="white" stroke="black" points="207.5,-161.5 207.5,-180.5 341.5,-180.5 341.5,-161.5 207.5,-161.5"/>
<text text-anchor="middle" x="274.5" y="-168.5" font-family="Helvetica,sans-Serif" font-size="10.00">TMC2208Stepper::available</text>
</a>
</g>
</g>
<!-- Node1&#45;&gt;Node2 -->
<g id="edge1" class="edge"><title>Node1&#45;&gt;Node2</title>
<path fill="none" stroke="midnightblue" d="M101.139,-104.564C123.707,-116.856 164.88,-138.245 202,-152 208.474,-154.399 215.381,-156.628 222.254,-158.653"/>
<polygon fill="midnightblue" stroke="midnightblue" points="221.671,-162.125 232.245,-161.469 223.57,-155.387 221.671,-162.125"/>
</g>
<!-- Node3 -->
<g id="node3" class="node"><title>Node3</title>
<g id="a_node3"><a xlink:href="../../d6/d7e/class_t_m_c2208_stepper.html#a4ec5d2b2f5a31259c7aba1f3208d63b8" target="_top" xlink:title=" ">
<polygon fill="white" stroke="black" points="216.5,-123.5 216.5,-142.5 332.5,-142.5 332.5,-123.5 216.5,-123.5"/>
<text text-anchor="middle" x="274.5" y="-130.5" font-family="Helvetica,sans-Serif" font-size="10.00">TMC2208Stepper::ms2</text>
</a>
</g>
</g>
<!-- Node1&#45;&gt;Node3 -->
<g id="edge2" class="edge"><title>Node1&#45;&gt;Node3</title>
<path fill="none" stroke="midnightblue" d="M131.819,-104.589C157.389,-109.716 189.059,-116.067 215.968,-121.463"/>
<polygon fill="midnightblue" stroke="midnightblue" points="215.532,-124.945 226.025,-123.48 216.908,-118.082 215.532,-124.945"/>
</g>
<!-- Node10 -->
<g id="node10" class="node"><title>Node10</title>
<g id="a_node10"><a xlink:href="../../d6/d7e/class_t_m_c2208_stepper.html#a129ceb04c3ea18e2c4ec1a59a51ece85" target="_top" xlink:title=" ">
<polygon fill="white" stroke="black" points="202,-85.5 202,-104.5 347,-104.5 347,-85.5 202,-85.5"/>
<text text-anchor="middle" x="274.5" y="-92.5" font-family="Helvetica,sans-Serif" font-size="10.00">TMC2208Stepper::serial_read</text>
</a>
</g>
</g>
<!-- Node1&#45;&gt;Node10 -->
<g id="edge10" class="edge"><title>Node1&#45;&gt;Node10</title>
<path fill="none" stroke="midnightblue" d="M166.015,-95C174.478,-95 183.078,-95 191.54,-95"/>
<polygon fill="midnightblue" stroke="midnightblue" points="191.775,-98.5001 201.775,-95 191.775,-91.5001 191.775,-98.5001"/>
</g>
<!-- Node11 -->
<g id="node11" class="node"><title>Node11</title>
<g id="a_node11"><a xlink:href="../../d6/d7e/class_t_m_c2208_stepper.html#aa7f2c1a3a1cda9a328c186c6d7cbfe41" target="_top" xlink:title=" ">
<polygon fill="white" stroke="black" points="214,-36 214,-66 335,-66 335,-36 214,-36"/>
<text text-anchor="start" x="222" y="-54" font-family="Helvetica,sans-Serif" font-size="10.00">TMC2208Stepper::serial</text>
<text text-anchor="middle" x="274.5" y="-43" font-family="Helvetica,sans-Serif" font-size="10.00">_write</text>
</a>
</g>
</g>
<!-- Node1&#45;&gt;Node11 -->
<g id="edge11" class="edge"><title>Node1&#45;&gt;Node11</title>
<path fill="none" stroke="midnightblue" d="M125.119,-85.4527C148.091,-80.1187 177.335,-73.3285 203.778,-67.1887"/>
<polygon fill="midnightblue" stroke="midnightblue" points="204.807,-70.543 213.756,-64.8719 203.224,-63.7244 204.807,-70.543"/>
</g>
<!-- Node4 -->
<g id="node4" class="node"><title>Node4</title>
<g id="a_node4"><a xlink:href="../../d6/d7e/class_t_m_c2208_stepper.html#a5441dd87d0bcea4ffc309cb012166a57" target="_top" xlink:title=" ">
<polygon fill="white" stroke="black" points="383,-79.5 383,-98.5 499,-98.5 499,-79.5 383,-79.5"/>
<text text-anchor="middle" x="441" y="-86.5" font-family="Helvetica,sans-Serif" font-size="10.00">TMC2208Stepper::IOIN</text>
</a>
</g>
</g>
<!-- Node3&#45;&gt;Node4 -->
<g id="edge3" class="edge"><title>Node3&#45;&gt;Node4</title>
<path fill="none" stroke="midnightblue" d="M311.513,-123.452C322.869,-120.435 335.46,-117.084 347,-114 362.635,-109.821 379.742,-105.228 394.973,-101.132"/>
<polygon fill="midnightblue" stroke="midnightblue" points="395.93,-104.499 404.677,-98.521 394.111,-97.7395 395.93,-104.499"/>
</g>
<!-- Node5 -->
<g id="node5" class="node"><title>Node5</title>
<g id="a_node5"><a xlink:href="../../d6/d7e/class_t_m_c2208_stepper.html#a2fae2050849c3ab7968012def8ea1cc5" target="_top" xlink:title=" ">
<polygon fill="white" stroke="black" points="535,-38.5 535,-57.5 651,-57.5 651,-38.5 535,-38.5"/>
<text text-anchor="middle" x="593" y="-45.5" font-family="Helvetica,sans-Serif" font-size="10.00">TMC2208Stepper::read</text>
</a>
</g>
</g>
<!-- Node4&#45;&gt;Node5 -->
<g id="edge4" class="edge"><title>Node4&#45;&gt;Node5</title>
<path fill="none" stroke="midnightblue" d="M476.79,-79.4907C497.824,-73.7415 524.848,-66.3549 547.436,-60.1807"/>
<polygon fill="midnightblue" stroke="midnightblue" points="548.416,-63.5415 557.139,-57.5286 546.57,-56.7892 548.416,-63.5415"/>
</g>
<!-- Node5&#45;&gt;Node1 -->
<g id="edge5" class="edge"><title>Node5&#45;&gt;Node1</title>
<path fill="none" stroke="midnightblue" d="M555.72,-38.4405C485.845,-21.6592 328.331,8.22485 202,-26 163.984,-36.2992 125.664,-62.2457 103.412,-79.2219"/>
<polygon fill="midnightblue" stroke="midnightblue" points="101.165,-76.5362 95.4389,-85.4505 105.474,-82.0526 101.165,-76.5362"/>
</g>
<!-- Node6 -->
<g id="node6" class="node"><title>Node6</title>
<g id="a_node6"><a xlink:href="../../d6/d7e/class_t_m_c2208_stepper.html#a409c19fa6b052a370a317d061bf9af4e" target="_top" xlink:title=" ">
<polygon fill="white" stroke="black" points="711,-76.5 711,-95.5 847,-95.5 847,-76.5 711,-76.5"/>
<text text-anchor="middle" x="779" y="-83.5" font-family="Helvetica,sans-Serif" font-size="10.00">TMC2208Stepper::calcCRC</text>
</a>
</g>
</g>
<!-- Node5&#45;&gt;Node6 -->
<g id="edge6" class="edge"><title>Node5&#45;&gt;Node6</title>
<path fill="none" stroke="midnightblue" d="M640.431,-57.589C665.149,-62.6939 695.739,-69.0113 721.792,-74.3918"/>
<polygon fill="midnightblue" stroke="midnightblue" points="721.402,-77.885 731.903,-76.4799 722.817,-71.0297 721.402,-77.885"/>
</g>
<!-- Node7 -->
<g id="node7" class="node"><title>Node7</title>
<g id="a_node7"><a xlink:href="../../d6/d7e/class_t_m_c2208_stepper.html#a673ade174158b47e3b345b1d7b3c473d" target="_top" xlink:title=" ">
<polygon fill="white" stroke="black" points="687,-38.5 687,-57.5 871,-57.5 871,-38.5 687,-38.5"/>
<text text-anchor="middle" x="779" y="-45.5" font-family="Helvetica,sans-Serif" font-size="10.00">TMC2208Stepper::postCommunication</text>
</a>
</g>
</g>
<!-- Node5&#45;&gt;Node7 -->
<g id="edge7" class="edge"><title>Node5&#45;&gt;Node7</title>
<path fill="none" stroke="midnightblue" d="M651.21,-48C659.323,-48 667.86,-48 676.51,-48"/>
<polygon fill="midnightblue" stroke="midnightblue" points="676.697,-51.5001 686.697,-48 676.697,-44.5001 676.697,-51.5001"/>
</g>
<!-- Node8 -->
<g id="node8" class="node"><title>Node8</title>
<g id="a_node8"><a xlink:href="../../d6/d7e/class_t_m_c2208_stepper.html#a0ba01db6c4c01da7cb0ace8a524ab1da" target="_top" xlink:title=" ">
<polygon fill="white" stroke="black" points="689.5,-0.5 689.5,-19.5 868.5,-19.5 868.5,-0.5 689.5,-0.5"/>
<text text-anchor="middle" x="779" y="-7.5" font-family="Helvetica,sans-Serif" font-size="10.00">TMC2208Stepper::preCommunication</text>
</a>
</g>
</g>
<!-- Node5&#45;&gt;Node8 -->
<g id="edge8" class="edge"><title>Node5&#45;&gt;Node8</title>
<path fill="none" stroke="midnightblue" d="M640.431,-38.411C665.149,-33.3061 695.739,-26.9887 721.792,-21.6082"/>
<polygon fill="midnightblue" stroke="midnightblue" points="722.817,-24.9703 731.903,-19.5201 721.402,-18.115 722.817,-24.9703"/>
</g>
<!-- Node9 -->
<g id="node9" class="node"><title>Node9</title>
<g id="a_node9"><a xlink:href="../../d9/d98/class_s_switch.html#a6ff09d0850d551571dc333fb74ff8628" target="_top" xlink:title=" ">
<polygon fill="white" stroke="black" points="907,-0.5 907,-19.5 990,-19.5 990,-0.5 907,-0.5"/>
<text text-anchor="middle" x="948.5" y="-7.5" font-family="Helvetica,sans-Serif" font-size="10.00">SSwitch::active</text>
</a>
</g>
</g>
<!-- Node8&#45;&gt;Node9 -->
<g id="edge9" class="edge"><title>Node8&#45;&gt;Node9</title>
<path fill="none" stroke="midnightblue" d="M868.655,-10C878.243,-10 887.745,-10 896.657,-10"/>
<polygon fill="midnightblue" stroke="midnightblue" points="896.816,-13.5001 906.816,-10 896.816,-6.5001 896.816,-13.5001"/>
</g>
</g>
</svg>
