<?xml version="1.0" encoding="UTF-8" standalone="no"?>
<!DOCTYPE svg PUBLIC "-//W3C//DTD SVG 1.1//EN"
 "http://www.w3.org/Graphics/SVG/1.1/DTD/svg11.dtd">
<!-- Generated by graphviz version 2.38.0 (20140413.2041)
 -->
<!-- Title: TMC2208Stepper::PWM_SCALE Pages: 1 -->
<svg width="835pt" height="235pt"
 viewBox="0.00 0.00 835.00 235.47" xmlns="http://www.w3.org/2000/svg" xmlns:xlink="http://www.w3.org/1999/xlink">
<g id="graph0" class="graph" transform="scale(1 1) rotate(0) translate(4 231.47)">
<title>TMC2208Stepper::PWM_SCALE</title>
<polygon fill="white" stroke="none" points="-4,4 -4,-231.47 831,-231.47 831,4 -4,4"/>
<!-- Node1 -->
<g id="node1" class="node"><title>Node1</title>
<g id="a_node1"><a xlink:title=" ">
<polygon fill="#bfbfbf" stroke="black" points="0,-76.4696 0,-106.47 122,-106.47 122,-76.4696 0,-76.4696"/>
<text text-anchor="start" x="8" y="-94.4696" font-family="Helvetica,sans-Serif" font-size="10.00">TMC2208Stepper::PWM</text>
<text text-anchor="middle" x="61" y="-83.4696" font-family="Helvetica,sans-Serif" font-size="10.00">_SCALE</text>
</a>
</g>
</g>
<!-- Node2 -->
<g id="node2" class="node"><title>Node2</title>
<g id="a_node2"><a xlink:href="../../d6/d7e/class_t_m_c2208_stepper.html#a2fae2050849c3ab7968012def8ea1cc5" target="_top" xlink:title=" ">
<polygon fill="white" stroke="black" points="158,-81.9696 158,-100.97 274,-100.97 274,-81.9696 158,-81.9696"/>
<text text-anchor="middle" x="216" y="-88.9696" font-family="Helvetica,sans-Serif" font-size="10.00">TMC2208Stepper::read</text>
</a>
</g>
</g>
<!-- Node1&#45;&gt;Node2 -->
<g id="edge1" class="edge"><title>Node1&#45;&gt;Node2</title>
<path fill="none" stroke="midnightblue" d="M122.031,-91.4696C130.363,-91.4696 138.969,-91.4696 147.428,-91.4696"/>
<polygon fill="midnightblue" stroke="midnightblue" points="147.644,-94.9697 157.644,-91.4696 147.644,-87.9697 147.644,-94.9697"/>
</g>
<!-- Node3 -->
<g id="node3" class="node"><title>Node3</title>
<g id="a_node3"><a xlink:href="../../d6/d7e/class_t_m_c2208_stepper.html#a321ad81155b7a20c0858920d32d0b074" target="_top" xlink:title=" ">
<polygon fill="white" stroke="black" points="319,-157.97 319,-176.97 485,-176.97 485,-157.97 319,-157.97"/>
<text text-anchor="middle" x="402" y="-164.97" font-family="Helvetica,sans-Serif" font-size="10.00">TMC2208Stepper::_sendDatagram</text>
</a>
</g>
</g>
<!-- Node2&#45;&gt;Node3 -->
<g id="edge2" class="edge"><title>Node2&#45;&gt;Node3</title>
<path fill="none" stroke="midnightblue" d="M229.494,-101.088C246.681,-113.843 279.022,-136.174 310,-148.47 316.6,-151.089 323.62,-153.37 330.72,-155.35"/>
<polygon fill="midnightblue" stroke="midnightblue" points="329.861,-158.743 340.42,-157.869 331.62,-151.968 329.861,-158.743"/>
</g>
<!-- Node9 -->
<g id="node9" class="node"><title>Node9</title>
<g id="a_node9"><a xlink:href="../../d6/d7e/class_t_m_c2208_stepper.html#a409c19fa6b052a370a317d061bf9af4e" target="_top" xlink:title=" ">
<polygon fill="white" stroke="black" points="334,-119.97 334,-138.97 470,-138.97 470,-119.97 334,-119.97"/>
<text text-anchor="middle" x="402" y="-126.97" font-family="Helvetica,sans-Serif" font-size="10.00">TMC2208Stepper::calcCRC</text>
</a>
</g>
</g>
<!-- Node2&#45;&gt;Node9 -->
<g id="edge9" class="edge"><title>Node2&#45;&gt;Node9</title>
<path fill="none" stroke="midnightblue" d="M263.431,-101.059C288.149,-106.163 318.739,-112.481 344.792,-117.861"/>
<polygon fill="midnightblue" stroke="midnightblue" points="344.402,-121.355 354.903,-119.95 345.817,-114.499 344.402,-121.355"/>
</g>
<!-- Node10 -->
<g id="node10" class="node"><title>Node10</title>
<g id="a_node10"><a xlink:href="../../d6/d7e/class_t_m_c2208_stepper.html#a673ade174158b47e3b345b1d7b3c473d" target="_top" xlink:title=" ">
<polygon fill="white" stroke="black" points="310,-81.9696 310,-100.97 494,-100.97 494,-81.9696 310,-81.9696"/>
<text text-anchor="middle" x="402" y="-88.9696" font-family="Helvetica,sans-Serif" font-size="10.00">TMC2208Stepper::postCommunication</text>
</a>
</g>
</g>
<!-- Node2&#45;&gt;Node10 -->
<g id="edge10" class="edge"><title>Node2&#45;&gt;Node10</title>
<path fill="none" stroke="midnightblue" d="M274.21,-91.4696C282.323,-91.4696 290.86,-91.4696 299.51,-91.4696"/>
<polygon fill="midnightblue" stroke="midnightblue" points="299.697,-94.9697 309.697,-91.4696 299.697,-87.9697 299.697,-94.9697"/>
</g>
<!-- Node11 -->
<g id="node11" class="node"><title>Node11</title>
<g id="a_node11"><a xlink:href="../../d6/d7e/class_t_m_c2208_stepper.html#a0ba01db6c4c01da7cb0ace8a524ab1da" target="_top" xlink:title=" ">
<polygon fill="white" stroke="black" points="312.5,-43.9696 312.5,-62.9696 491.5,-62.9696 491.5,-43.9696 312.5,-43.9696"/>
<text text-anchor="middle" x="402" y="-50.9696" font-family="Helvetica,sans-Serif" font-size="10.00">TMC2208Stepper::preCommunication</text>
</a>
</g>
</g>
<!-- Node2&#45;&gt;Node11 -->
<g id="edge11" class="edge"><title>Node2&#45;&gt;Node11</title>
<path fill="none" stroke="midnightblue" d="M263.431,-81.8806C288.149,-76.7758 318.739,-70.4583 344.792,-65.0778"/>
<polygon fill="midnightblue" stroke="midnightblue" points="345.817,-68.44 354.903,-62.9897 344.402,-61.5846 345.817,-68.44"/>
</g>
<!-- Node4 -->
<g id="node4" class="node"><title>Node4</title>
<g id="a_node4"><a xlink:href="../../d6/d7e/class_t_m_c2208_stepper.html#a7a670b15f45466f8d167a9b80fbf384f" target="_top" xlink:title=" ">
<polygon fill="white" stroke="black" points="535.5,-207.97 535.5,-226.97 669.5,-226.97 669.5,-207.97 535.5,-207.97"/>
<text text-anchor="middle" x="602.5" y="-214.97" font-family="Helvetica,sans-Serif" font-size="10.00">TMC2208Stepper::available</text>
</a>
</g>
</g>
<!-- Node3&#45;&gt;Node4 -->
<g id="edge3" class="edge"><title>Node3&#45;&gt;Node4</title>
<path fill="none" stroke="midnightblue" d="M440.804,-176.992C472.849,-185.064 518.983,-196.684 553.607,-205.406"/>
<polygon fill="midnightblue" stroke="midnightblue" points="552.948,-208.849 563.5,-207.898 554.657,-202.061 552.948,-208.849"/>
</g>
<!-- Node5 -->
<g id="node5" class="node"><title>Node5</title>
<g id="a_node5"><a xlink:href="../../d6/d7e/class_t_m_c2208_stepper.html#a4ec5d2b2f5a31259c7aba1f3208d63b8" target="_top" xlink:title=" ">
<polygon fill="white" stroke="black" points="544.5,-169.97 544.5,-188.97 660.5,-188.97 660.5,-169.97 544.5,-169.97"/>
<text text-anchor="middle" x="602.5" y="-176.97" font-family="Helvetica,sans-Serif" font-size="10.00">TMC2208Stepper::ms2</text>
</a>
</g>
</g>
<!-- Node3&#45;&gt;Node5 -->
<g id="edge4" class="edge"><title>Node3&#45;&gt;Node5</title>
<path fill="none" stroke="midnightblue" d="M485.17,-172.437C501.532,-173.426 518.531,-174.454 534.318,-175.408"/>
<polygon fill="midnightblue" stroke="midnightblue" points="534.305,-178.914 544.498,-176.024 534.727,-171.927 534.305,-178.914"/>
</g>
<!-- Node7 -->
<g id="node7" class="node"><title>Node7</title>
<g id="a_node7"><a xlink:href="../../d6/d7e/class_t_m_c2208_stepper.html#a129ceb04c3ea18e2c4ec1a59a51ece85" target="_top" xlink:title=" ">
<polygon fill="white" stroke="black" points="530,-131.97 530,-150.97 675,-150.97 675,-131.97 530,-131.97"/>
<text text-anchor="middle" x="602.5" y="-138.97" font-family="Helvetica,sans-Serif" font-size="10.00">TMC2208Stepper::serial_read</text>
</a>
</g>
</g>
<!-- Node3&#45;&gt;Node7 -->
<g id="edge7" class="edge"><title>Node3&#45;&gt;Node7</title>
<path fill="none" stroke="midnightblue" d="M475.787,-157.936C490.081,-156.064 505.166,-154.088 519.731,-152.18"/>
<polygon fill="midnightblue" stroke="midnightblue" points="520.256,-155.641 529.716,-150.872 519.346,-148.7 520.256,-155.641"/>
</g>
<!-- Node8 -->
<g id="node8" class="node"><title>Node8</title>
<g id="a_node8"><a xlink:href="../../d6/d7e/class_t_m_c2208_stepper.html#aa7f2c1a3a1cda9a328c186c6d7cbfe41" target="_top" xlink:title=" ">
<polygon fill="white" stroke="black" points="542,-82.4696 542,-112.47 663,-112.47 663,-82.4696 542,-82.4696"/>
<text text-anchor="start" x="550" y="-100.47" font-family="Helvetica,sans-Serif" font-size="10.00">TMC2208Stepper::serial</text>
<text text-anchor="middle" x="602.5" y="-89.4696" font-family="Helvetica,sans-Serif" font-size="10.00">_write</text>
</a>
</g>
</g>
<!-- Node3&#45;&gt;Node8 -->
<g id="edge8" class="edge"><title>Node3&#45;&gt;Node8</title>
<path fill="none" stroke="midnightblue" d="M466.251,-157.863C475.759,-155.397 485.289,-152.315 494,-148.47 512.056,-140.5 512.502,-131.6 530,-122.47 534.044,-120.36 538.305,-118.362 542.65,-116.486"/>
<polygon fill="midnightblue" stroke="midnightblue" points="544.304,-119.591 552.243,-112.575 541.662,-113.109 544.304,-119.591"/>
</g>
<!-- Node6 -->
<g id="node6" class="node"><title>Node6</title>
<g id="a_node6"><a xlink:href="../../d6/d7e/class_t_m_c2208_stepper.html#a5441dd87d0bcea4ffc309cb012166a57" target="_top" xlink:title=" ">
<polygon fill="white" stroke="black" points="711,-87.9696 711,-106.97 827,-106.97 827,-87.9696 711,-87.9696"/>
<text text-anchor="middle" x="769" y="-94.9696" font-family="Helvetica,sans-Serif" font-size="10.00">TMC2208Stepper::IOIN</text>
</a>
</g>
</g>
<!-- Node5&#45;&gt;Node6 -->
<g id="edge5" class="edge"><title>Node5&#45;&gt;Node6</title>
<path fill="none" stroke="midnightblue" d="M648.551,-169.968C657.507,-167.396 666.702,-164.251 675,-160.47 702.451,-147.961 730.683,-127.566 748.73,-113.383"/>
<polygon fill="midnightblue" stroke="midnightblue" points="751.106,-115.965 756.723,-106.982 746.73,-110.501 751.106,-115.965"/>
</g>
<!-- Node6&#45;&gt;Node2 -->
<g id="edge6" class="edge"><title>Node6&#45;&gt;Node2</title>
<path fill="none" stroke="midnightblue" d="M758.209,-87.8203C742.34,-72.9361 709.305,-44.9951 675,-34.4696 519.914,13.1145 466.13,9.56986 310,-34.4696 281.807,-42.4221 253.729,-61.5756 235.921,-75.4902"/>
<polygon fill="midnightblue" stroke="midnightblue" points="233.643,-72.8308 228.049,-81.8281 238.033,-78.2834 233.643,-72.8308"/>
</g>
<!-- Node12 -->
<g id="node12" class="node"><title>Node12</title>
<g id="a_node12"><a xlink:href="../../d9/d98/class_s_switch.html#a6ff09d0850d551571dc333fb74ff8628" target="_top" xlink:title=" ">
<polygon fill="white" stroke="black" points="561,-43.9696 561,-62.9696 644,-62.9696 644,-43.9696 561,-43.9696"/>
<text text-anchor="middle" x="602.5" y="-50.9696" font-family="Helvetica,sans-Serif" font-size="10.00">SSwitch::active</text>
</a>
</g>
</g>
<!-- Node11&#45;&gt;Node12 -->
<g id="edge12" class="edge"><title>Node11&#45;&gt;Node12</title>
<path fill="none" stroke="midnightblue" d="M491.51,-53.4696C511.828,-53.4696 532.753,-53.4696 550.826,-53.4696"/>
<polygon fill="midnightblue" stroke="midnightblue" points="550.83,-56.9697 560.83,-53.4696 550.83,-49.9697 550.83,-56.9697"/>
</g>
</g>
</svg>
