<?xml version="1.0" encoding="UTF-8" standalone="no"?>
<!DOCTYPE svg PUBLIC "-//W3C//DTD SVG 1.1//EN"
 "http://www.w3.org/Graphics/SVG/1.1/DTD/svg11.dtd">
<!-- Generated by graphviz version 2.38.0 (20140413.2041)
 -->
<!-- Title: TMC2208Stepper::I_scale_analog Pages: 1 -->
<!--zoomable 235 -->
<svg id="main" version="1.1" xmlns="http://www.w3.org/2000/svg" xmlns:xlink="http://www.w3.org/1999/xlink" xml:space="preserve" onload="init(evt)">
<style type="text/css"><![CDATA[
.edge:hover path { stroke: red; }
.edge:hover polygon { stroke: red; fill: red; }
]]></style>
<script type="text/javascript"><![CDATA[
var edges = document.getElementsByTagName('g');
if (edges && edges.length) {
  for (var i=0;i<edges.length;i++) {
    if (edges[i].id.substr(0,4)=='edge') {
      edges[i].setAttribute('class','edge');
    }
  }
}
]]></script>
        <defs>
                <circle id="rim" cx="0" cy="0" r="7"/>
                <circle id="rim2" cx="0" cy="0" r="3.5"/>
                <g id="zoomPlus">
                        <use xlink:href="#rim" fill="#404040">
                                <set attributeName="fill" to="#808080" begin="zoomplus.mouseover" end="zoomplus.mouseout"/>
                        </use>
                        <path d="M-4,0h8M0,-4v8" fill="none" stroke="white" stroke-width="1.5" pointer-events="none"/>
                </g>
                <g id="zoomMin">
                        <use xlink:href="#rim" fill="#404040">
                                <set attributeName="fill" to="#808080" begin="zoomminus.mouseover" end="zoomminus.mouseout"/>
                        </use>
                        <path d="M-4,0h8" fill="none" stroke="white" stroke-width="1.5" pointer-events="none"/>
                </g>
                <g id="dirArrow">
                        <path fill="none" stroke="white" stroke-width="1.5" d="M0,-3.0v7 M-2.5,-0.5L0,-3.0L2.5,-0.5"/>
                </g>
               <g id="resetDef">
                       <use xlink:href="#rim2" fill="#404040">
                               <set attributeName="fill" to="#808080" begin="reset.mouseover" end="reset.mouseout"/>
                       </use>
               </g>
        </defs>

<script type="text/javascript">
var viewWidth = 1009;
var viewHeight = 235;
var sectionId = 'dynsection-44';
</script>
<script xlink:href="../../svgpan.js"/>
<svg id="graph" class="graph">
<g id="viewport">
<title>TMC2208Stepper::I_scale_analog</title>
<polygon fill="white" stroke="none" points="-4,4 -4,-231.47 1005,-231.47 1005,4 -4,4"/>
<!-- Node1 -->
<g id="node1" class="node"><title>Node1</title>
<g id="a_node1"><a xlink:title=" ">
<polygon fill="#bfbfbf" stroke="black" points="0,-76.4696 0,-106.47 128,-106.47 128,-76.4696 0,-76.4696"/>
<text text-anchor="start" x="8" y="-94.4696" font-family="Helvetica,sans-Serif" font-size="10.00">TMC2208Stepper::I_scale</text>
<text text-anchor="middle" x="64" y="-83.4696" font-family="Helvetica,sans-Serif" font-size="10.00">_analog</text>
</a>
</g>
</g>
<!-- Node2 -->
<g id="node2" class="node"><title>Node2</title>
<g id="a_node2"><a xlink:href="../../d6/d7e/class_t_m_c2208_stepper.html#a549db4f962d4ae698dda33ef9a708e33" target="_top" xlink:title=" ">
<polygon fill="white" stroke="black" points="164,-81.9696 164,-100.97 296,-100.97 296,-81.9696 164,-81.9696"/>
<text text-anchor="middle" x="230" y="-88.9696" font-family="Helvetica,sans-Serif" font-size="10.00">TMC2208Stepper::GCONF</text>
</a>
</g>
</g>
<!-- Node1&#45;&gt;Node2 -->
<g id="edge1" class="edge"><title>Node1&#45;&gt;Node2</title>
<path fill="none" stroke="midnightblue" d="M128.407,-91.4696C136.673,-91.4696 145.206,-91.4696 153.644,-91.4696"/>
<polygon fill="midnightblue" stroke="midnightblue" points="153.865,-94.9697 163.865,-91.4696 153.865,-87.9697 153.865,-94.9697"/>
</g>
<!-- Node3 -->
<g id="node3" class="node"><title>Node3</title>
<g id="a_node3"><a xlink:href="../../d6/d7e/class_t_m_c2208_stepper.html#a2fae2050849c3ab7968012def8ea1cc5" target="_top" xlink:title=" ">
<polygon fill="white" stroke="black" points="332,-81.9696 332,-100.97 448,-100.97 448,-81.9696 332,-81.9696"/>
<text text-anchor="middle" x="390" y="-88.9696" font-family="Helvetica,sans-Serif" font-size="10.00">TMC2208Stepper::read</text>
</a>
</g>
</g>
<!-- Node2&#45;&gt;Node3 -->
<g id="edge2" class="edge"><title>Node2&#45;&gt;Node3</title>
<path fill="none" stroke="midnightblue" d="M296.177,-91.4696C304.517,-91.4696 313.069,-91.4696 321.445,-91.4696"/>
<polygon fill="midnightblue" stroke="midnightblue" points="321.55,-94.9697 331.55,-91.4696 321.55,-87.9697 321.55,-94.9697"/>
</g>
<!-- Node4 -->
<g id="node4" class="node"><title>Node4</title>
<g id="a_node4"><a xlink:href="../../d6/d7e/class_t_m_c2208_stepper.html#a321ad81155b7a20c0858920d32d0b074" target="_top" xlink:title=" ">
<polygon fill="white" stroke="black" points="493,-157.97 493,-176.97 659,-176.97 659,-157.97 493,-157.97"/>
<text text-anchor="middle" x="576" y="-164.97" font-family="Helvetica,sans-Serif" font-size="10.00">TMC2208Stepper::_sendDatagram</text>
</a>
</g>
</g>
<!-- Node3&#45;&gt;Node4 -->
<g id="edge3" class="edge"><title>Node3&#45;&gt;Node4</title>
<path fill="none" stroke="midnightblue" d="M403.494,-101.088C420.681,-113.843 453.022,-136.174 484,-148.47 490.6,-151.089 497.62,-153.37 504.72,-155.35"/>
<polygon fill="midnightblue" stroke="midnightblue" points="503.861,-158.743 514.42,-157.869 505.62,-151.968 503.861,-158.743"/>
</g>
<!-- Node10 -->
<g id="node10" class="node"><title>Node10</title>
<g id="a_node10"><a xlink:href="../../d6/d7e/class_t_m_c2208_stepper.html#a409c19fa6b052a370a317d061bf9af4e" target="_top" xlink:title=" ">
<polygon fill="white" stroke="black" points="508,-119.97 508,-138.97 644,-138.97 644,-119.97 508,-119.97"/>
<text text-anchor="middle" x="576" y="-126.97" font-family="Helvetica,sans-Serif" font-size="10.00">TMC2208Stepper::calcCRC</text>
</a>
</g>
</g>
<!-- Node3&#45;&gt;Node10 -->
<g id="edge10" class="edge"><title>Node3&#45;&gt;Node10</title>
<path fill="none" stroke="midnightblue" d="M437.431,-101.059C462.149,-106.163 492.739,-112.481 518.792,-117.861"/>
<polygon fill="midnightblue" stroke="midnightblue" points="518.402,-121.355 528.903,-119.95 519.817,-114.499 518.402,-121.355"/>
</g>
<!-- Node11 -->
<g id="node11" class="node"><title>Node11</title>
<g id="a_node11"><a xlink:href="../../d6/d7e/class_t_m_c2208_stepper.html#a673ade174158b47e3b345b1d7b3c473d" target="_top" xlink:title=" ">
<polygon fill="white" stroke="black" points="484,-81.9696 484,-100.97 668,-100.97 668,-81.9696 484,-81.9696"/>
<text text-anchor="middle" x="576" y="-88.9696" font-family="Helvetica,sans-Serif" font-size="10.00">TMC2208Stepper::postCommunication</text>
</a>
</g>
</g>
<!-- Node3&#45;&gt;Node11 -->
<g id="edge11" class="edge"><title>Node3&#45;&gt;Node11</title>
<path fill="none" stroke="midnightblue" d="M448.21,-91.4696C456.323,-91.4696 464.86,-91.4696 473.51,-91.4696"/>
<polygon fill="midnightblue" stroke="midnightblue" points="473.697,-94.9697 483.697,-91.4696 473.697,-87.9697 473.697,-94.9697"/>
</g>
<!-- Node12 -->
<g id="node12" class="node"><title>Node12</title>
<g id="a_node12"><a xlink:href="../../d6/d7e/class_t_m_c2208_stepper.html#a0ba01db6c4c01da7cb0ace8a524ab1da" target="_top" xlink:title=" ">
<polygon fill="white" stroke="black" points="486.5,-43.9696 486.5,-62.9696 665.5,-62.9696 665.5,-43.9696 486.5,-43.9696"/>
<text text-anchor="middle" x="576" y="-50.9696" font-family="Helvetica,sans-Serif" font-size="10.00">TMC2208Stepper::preCommunication</text>
</a>
</g>
</g>
<!-- Node3&#45;&gt;Node12 -->
<g id="edge12" class="edge"><title>Node3&#45;&gt;Node12</title>
<path fill="none" stroke="midnightblue" d="M437.431,-81.8806C462.149,-76.7758 492.739,-70.4583 518.792,-65.0778"/>
<polygon fill="midnightblue" stroke="midnightblue" points="519.817,-68.44 528.903,-62.9897 518.402,-61.5846 519.817,-68.44"/>
</g>
<!-- Node5 -->
<g id="node5" class="node"><title>Node5</title>
<g id="a_node5"><a xlink:href="../../d6/d7e/class_t_m_c2208_stepper.html#a7a670b15f45466f8d167a9b80fbf384f" target="_top" xlink:title=" ">
<polygon fill="white" stroke="black" points="709.5,-207.97 709.5,-226.97 843.5,-226.97 843.5,-207.97 709.5,-207.97"/>
<text text-anchor="middle" x="776.5" y="-214.97" font-family="Helvetica,sans-Serif" font-size="10.00">TMC2208Stepper::available</text>
</a>
</g>
</g>
<!-- Node4&#45;&gt;Node5 -->
<g id="edge4" class="edge"><title>Node4&#45;&gt;Node5</title>
<path fill="none" stroke="midnightblue" d="M614.804,-176.992C646.849,-185.064 692.983,-196.684 727.607,-205.406"/>
<polygon fill="midnightblue" stroke="midnightblue" points="726.948,-208.849 737.5,-207.898 728.657,-202.061 726.948,-208.849"/>
</g>
<!-- Node6 -->
<g id="node6" class="node"><title>Node6</title>
<g id="a_node6"><a xlink:href="../../d6/d7e/class_t_m_c2208_stepper.html#a4ec5d2b2f5a31259c7aba1f3208d63b8" target="_top" xlink:title=" ">
<polygon fill="white" stroke="black" points="718.5,-169.97 718.5,-188.97 834.5,-188.97 834.5,-169.97 718.5,-169.97"/>
<text text-anchor="middle" x="776.5" y="-176.97" font-family="Helvetica,sans-Serif" font-size="10.00">TMC2208Stepper::ms2</text>
</a>
</g>
</g>
<!-- Node4&#45;&gt;Node6 -->
<g id="edge5" class="edge"><title>Node4&#45;&gt;Node6</title>
<path fill="none" stroke="midnightblue" d="M659.17,-172.437C675.532,-173.426 692.531,-174.454 708.318,-175.408"/>
<polygon fill="midnightblue" stroke="midnightblue" points="708.305,-178.914 718.498,-176.024 708.727,-171.927 708.305,-178.914"/>
</g>
<!-- Node8 -->
<g id="node8" class="node"><title>Node8</title>
<g id="a_node8"><a xlink:href="../../d6/d7e/class_t_m_c2208_stepper.html#a129ceb04c3ea18e2c4ec1a59a51ece85" target="_top" xlink:title=" ">
<polygon fill="white" stroke="black" points="704,-131.97 704,-150.97 849,-150.97 849,-131.97 704,-131.97"/>
<text text-anchor="middle" x="776.5" y="-138.97" font-family="Helvetica,sans-Serif" font-size="10.00">TMC2208Stepper::serial_read</text>
</a>
</g>
</g>
<!-- Node4&#45;&gt;Node8 -->
<g id="edge8" class="edge"><title>Node4&#45;&gt;Node8</title>
<path fill="none" stroke="midnightblue" d="M649.787,-157.936C664.081,-156.064 679.166,-154.088 693.731,-152.18"/>
<polygon fill="midnightblue" stroke="midnightblue" points="694.256,-155.641 703.716,-150.872 693.346,-148.7 694.256,-155.641"/>
</g>
<!-- Node9 -->
<g id="node9" class="node"><title>Node9</title>
<g id="a_node9"><a xlink:href="../../d6/d7e/class_t_m_c2208_stepper.html#aa7f2c1a3a1cda9a328c186c6d7cbfe41" target="_top" xlink:title=" ">
<polygon fill="white" stroke="black" points="716,-82.4696 716,-112.47 837,-112.47 837,-82.4696 716,-82.4696"/>
<text text-anchor="start" x="724" y="-100.47" font-family="Helvetica,sans-Serif" font-size="10.00">TMC2208Stepper::serial</text>
<text text-anchor="middle" x="776.5" y="-89.4696" font-family="Helvetica,sans-Serif" font-size="10.00">_write</text>
</a>
</g>
</g>
<!-- Node4&#45;&gt;Node9 -->
<g id="edge9" class="edge"><title>Node4&#45;&gt;Node9</title>
<path fill="none" stroke="midnightblue" d="M640.251,-157.863C649.759,-155.397 659.289,-152.315 668,-148.47 686.056,-140.5 686.502,-131.6 704,-122.47 708.044,-120.36 712.305,-118.362 716.65,-116.486"/>
<polygon fill="midnightblue" stroke="midnightblue" points="718.304,-119.591 726.243,-112.575 715.662,-113.109 718.304,-119.591"/>
</g>
<!-- Node7 -->
<g id="node7" class="node"><title>Node7</title>
<g id="a_node7"><a xlink:href="../../d6/d7e/class_t_m_c2208_stepper.html#a5441dd87d0bcea4ffc309cb012166a57" target="_top" xlink:title=" ">
<polygon fill="white" stroke="black" points="885,-87.9696 885,-106.97 1001,-106.97 1001,-87.9696 885,-87.9696"/>
<text text-anchor="middle" x="943" y="-94.9696" font-family="Helvetica,sans-Serif" font-size="10.00">TMC2208Stepper::IOIN</text>
</a>
</g>
</g>
<!-- Node6&#45;&gt;Node7 -->
<g id="edge6" class="edge"><title>Node6&#45;&gt;Node7</title>
<path fill="none" stroke="midnightblue" d="M822.551,-169.968C831.507,-167.396 840.702,-164.251 849,-160.47 876.451,-147.961 904.683,-127.566 922.73,-113.383"/>
<polygon fill="midnightblue" stroke="midnightblue" points="925.106,-115.965 930.723,-106.982 920.73,-110.501 925.106,-115.965"/>
</g>
<!-- Node7&#45;&gt;Node3 -->
<g id="edge7" class="edge"><title>Node7&#45;&gt;Node3</title>
<path fill="none" stroke="midnightblue" d="M932.209,-87.8203C916.34,-72.9361 883.305,-44.9951 849,-34.4696 693.914,13.1145 640.13,9.56986 484,-34.4696 455.807,-42.4221 427.729,-61.5756 409.921,-75.4902"/>
<polygon fill="midnightblue" stroke="midnightblue" points="407.643,-72.8308 402.049,-81.8281 412.033,-78.2834 407.643,-72.8308"/>
</g>
<!-- Node13 -->
<g id="node13" class="node"><title>Node13</title>
<g id="a_node13"><a xlink:href="../../d9/d98/class_s_switch.html#a6ff09d0850d551571dc333fb74ff8628" target="_top" xlink:title=" ">
<polygon fill="white" stroke="black" points="735,-43.9696 735,-62.9696 818,-62.9696 818,-43.9696 735,-43.9696"/>
<text text-anchor="middle" x="776.5" y="-50.9696" font-family="Helvetica,sans-Serif" font-size="10.00">SSwitch::active</text>
</a>
</g>
</g>
<!-- Node12&#45;&gt;Node13 -->
<g id="edge13" class="edge"><title>Node12&#45;&gt;Node13</title>
<path fill="none" stroke="midnightblue" d="M665.51,-53.4696C685.828,-53.4696 706.753,-53.4696 724.826,-53.4696"/>
<polygon fill="midnightblue" stroke="midnightblue" points="724.83,-56.9697 734.83,-53.4696 724.83,-49.9697 724.83,-56.9697"/>
</g>
</g>
</svg>
        <g id="navigator" transform="translate(0 0)" fill="#404254">
                <rect fill="#f2f5e9" fill-opacity="0.5" stroke="#606060" stroke-width=".5" x="0" y="0" width="60" height="60"/>
                <use id="zoomplus" xlink:href="#zoomPlus" x="17" y="9" onmousedown="handleZoom(evt,'in')"/>
                <use id="zoomminus" xlink:href="#zoomMin" x="42" y="9" onmousedown="handleZoom(evt,'out')"/>
                <use id="reset" xlink:href="#resetDef" x="30" y="36" onmousedown="handleReset()"/>
                <g id="arrowUp" xlink:href="#dirArrow" transform="translate(30 24)" onmousedown="handlePan(0,-1)">
                  <use xlink:href="#rim" fill="#404040">
                        <set attributeName="fill" to="#808080" begin="arrowUp.mouseover" end="arrowUp.mouseout"/>
                  </use>
                  <path fill="none" stroke="white" stroke-width="1.5" d="M0,-3.0v7 M-2.5,-0.5L0,-3.0L2.5,-0.5"/>
                </g>
                <g id="arrowRight" xlink:href="#dirArrow" transform="rotate(90) translate(36 -43)" onmousedown="handlePan(1,0)">
                  <use xlink:href="#rim" fill="#404040">
                        <set attributeName="fill" to="#808080" begin="arrowRight.mouseover" end="arrowRight.mouseout"/>
                  </use>
                  <path fill="none" stroke="white" stroke-width="1.5" d="M0,-3.0v7 M-2.5,-0.5L0,-3.0L2.5,-0.5"/>
                </g>
                <g id="arrowDown" xlink:href="#dirArrow" transform="rotate(180) translate(-30 -48)" onmousedown="handlePan(0,1)">
                  <use xlink:href="#rim" fill="#404040">
                        <set attributeName="fill" to="#808080" begin="arrowDown.mouseover" end="arrowDown.mouseout"/>
                  </use>
                  <path fill="none" stroke="white" stroke-width="1.5" d="M0,-3.0v7 M-2.5,-0.5L0,-3.0L2.5,-0.5"/>
                </g>
                <g id="arrowLeft" xlink:href="#dirArrow" transform="rotate(270) translate(-36 17)" onmousedown="handlePan(-1,0)">
                  <use xlink:href="#rim" fill="#404040">
                        <set attributeName="fill" to="#808080" begin="arrowLeft.mouseover" end="arrowLeft.mouseout"/>
                  </use>
                  <path fill="none" stroke="white" stroke-width="1.5" d="M0,-3.0v7 M-2.5,-0.5L0,-3.0L2.5,-0.5"/>
                </g>
        </g>
        <svg viewBox="0 0 15 15" width="100%" height="30px" preserveAspectRatio="xMaxYMin meet">
         <g id="arrow_out" transform="scale(0.3 0.3)">
          <a xlink:href="class_t_m_c2208_stepper_a3b1c4e92ce6d46b6073974d8758275ff_cgraph_org.svg" target="_base">
           <rect id="button" ry="5" rx="5" y="6" x="6" height="38" width="38"
                fill="#f2f5e9" fill-opacity="0.5" stroke="#606060" stroke-width="1.0"/>
           <path id="arrow"
             d="M 11.500037,31.436501 C 11.940474,20.09759 22.043105,11.32322 32.158766,21.979434 L 37.068811,17.246167 C 37.068811,17.246167 37.088388,32 37.088388,32 L 22.160133,31.978069 C 22.160133,31.978069 26.997745,27.140456 26.997745,27.140456 C 18.528582,18.264221 13.291696,25.230495 11.500037,31.436501 z"
             style="fill:#404040;"/>
          </a>
         </g>
        </svg>
</svg>
