<?xml version="1.0" encoding="UTF-8" standalone="no"?>
<!DOCTYPE svg PUBLIC "-//W3C//DTD SVG 1.1//EN"
 "http://www.w3.org/Graphics/SVG/1.1/DTD/svg11.dtd">
<!-- Generated by graphviz version 2.38.0 (20140413.2041)
 -->
<!-- Title: TMC2208Stepper::dedge Pages: 1 -->
<svg width="1025pt" height="235pt"
 viewBox="0.00 0.00 1025.00 235.47" xmlns="http://www.w3.org/2000/svg" xmlns:xlink="http://www.w3.org/1999/xlink">
<g id="graph0" class="graph" transform="scale(1 1) rotate(0) translate(4 231.47)">
<title>TMC2208Stepper::dedge</title>
<polygon fill="white" stroke="none" points="-4,4 -4,-231.47 1021,-231.47 1021,4 -4,4"/>
<!-- Node1 -->
<g id="node1" class="node"><title>Node1</title>
<g id="a_node1"><a xlink:title=" ">
<polygon fill="#bfbfbf" stroke="black" points="0,-81.9696 0,-100.97 124,-100.97 124,-81.9696 0,-81.9696"/>
<text text-anchor="middle" x="62" y="-88.9696" font-family="Helvetica,sans-Serif" font-size="10.00">TMC2208Stepper::dedge</text>
</a>
</g>
</g>
<!-- Node2 -->
<g id="node2" class="node"><title>Node2</title>
<g id="a_node2"><a xlink:href="../../d6/d7e/class_t_m_c2208_stepper.html#aa11281f54c293f3ff2539b1a583682a9" target="_top" xlink:title=" ">
<polygon fill="white" stroke="black" points="160,-81.9696 160,-100.97 312,-100.97 312,-81.9696 160,-81.9696"/>
<text text-anchor="middle" x="236" y="-88.9696" font-family="Helvetica,sans-Serif" font-size="10.00">TMC2208Stepper::CHOPCONF</text>
</a>
</g>
</g>
<!-- Node1&#45;&gt;Node2 -->
<g id="edge1" class="edge"><title>Node1&#45;&gt;Node2</title>
<path fill="none" stroke="midnightblue" d="M124.125,-91.4696C132.453,-91.4696 141.122,-91.4696 149.78,-91.4696"/>
<polygon fill="midnightblue" stroke="midnightblue" points="149.918,-94.9697 159.918,-91.4696 149.918,-87.9697 149.918,-94.9697"/>
</g>
<!-- Node3 -->
<g id="node3" class="node"><title>Node3</title>
<g id="a_node3"><a xlink:href="../../d6/d7e/class_t_m_c2208_stepper.html#a2fae2050849c3ab7968012def8ea1cc5" target="_top" xlink:title=" ">
<polygon fill="white" stroke="black" points="348,-81.9696 348,-100.97 464,-100.97 464,-81.9696 348,-81.9696"/>
<text text-anchor="middle" x="406" y="-88.9696" font-family="Helvetica,sans-Serif" font-size="10.00">TMC2208Stepper::read</text>
</a>
</g>
</g>
<!-- Node2&#45;&gt;Node3 -->
<g id="edge2" class="edge"><title>Node2&#45;&gt;Node3</title>
<path fill="none" stroke="midnightblue" d="M312.155,-91.4696C320.664,-91.4696 329.296,-91.4696 337.696,-91.4696"/>
<polygon fill="midnightblue" stroke="midnightblue" points="337.802,-94.9697 347.802,-91.4696 337.802,-87.9697 337.802,-94.9697"/>
</g>
<!-- Node4 -->
<g id="node4" class="node"><title>Node4</title>
<g id="a_node4"><a xlink:href="../../d6/d7e/class_t_m_c2208_stepper.html#a321ad81155b7a20c0858920d32d0b074" target="_top" xlink:title=" ">
<polygon fill="white" stroke="black" points="509,-157.97 509,-176.97 675,-176.97 675,-157.97 509,-157.97"/>
<text text-anchor="middle" x="592" y="-164.97" font-family="Helvetica,sans-Serif" font-size="10.00">TMC2208Stepper::_sendDatagram</text>
</a>
</g>
</g>
<!-- Node3&#45;&gt;Node4 -->
<g id="edge3" class="edge"><title>Node3&#45;&gt;Node4</title>
<path fill="none" stroke="midnightblue" d="M419.494,-101.088C436.681,-113.843 469.022,-136.174 500,-148.47 506.6,-151.089 513.62,-153.37 520.72,-155.35"/>
<polygon fill="midnightblue" stroke="midnightblue" points="519.861,-158.743 530.42,-157.869 521.62,-151.968 519.861,-158.743"/>
</g>
<!-- Node10 -->
<g id="node10" class="node"><title>Node10</title>
<g id="a_node10"><a xlink:href="../../d6/d7e/class_t_m_c2208_stepper.html#a409c19fa6b052a370a317d061bf9af4e" target="_top" xlink:title=" ">
<polygon fill="white" stroke="black" points="524,-119.97 524,-138.97 660,-138.97 660,-119.97 524,-119.97"/>
<text text-anchor="middle" x="592" y="-126.97" font-family="Helvetica,sans-Serif" font-size="10.00">TMC2208Stepper::calcCRC</text>
</a>
</g>
</g>
<!-- Node3&#45;&gt;Node10 -->
<g id="edge10" class="edge"><title>Node3&#45;&gt;Node10</title>
<path fill="none" stroke="midnightblue" d="M453.431,-101.059C478.149,-106.163 508.739,-112.481 534.792,-117.861"/>
<polygon fill="midnightblue" stroke="midnightblue" points="534.402,-121.355 544.903,-119.95 535.817,-114.499 534.402,-121.355"/>
</g>
<!-- Node11 -->
<g id="node11" class="node"><title>Node11</title>
<g id="a_node11"><a xlink:href="../../d6/d7e/class_t_m_c2208_stepper.html#a673ade174158b47e3b345b1d7b3c473d" target="_top" xlink:title=" ">
<polygon fill="white" stroke="black" points="500,-81.9696 500,-100.97 684,-100.97 684,-81.9696 500,-81.9696"/>
<text text-anchor="middle" x="592" y="-88.9696" font-family="Helvetica,sans-Serif" font-size="10.00">TMC2208Stepper::postCommunication</text>
</a>
</g>
</g>
<!-- Node3&#45;&gt;Node11 -->
<g id="edge11" class="edge"><title>Node3&#45;&gt;Node11</title>
<path fill="none" stroke="midnightblue" d="M464.21,-91.4696C472.323,-91.4696 480.86,-91.4696 489.51,-91.4696"/>
<polygon fill="midnightblue" stroke="midnightblue" points="489.697,-94.9697 499.697,-91.4696 489.697,-87.9697 489.697,-94.9697"/>
</g>
<!-- Node12 -->
<g id="node12" class="node"><title>Node12</title>
<g id="a_node12"><a xlink:href="../../d6/d7e/class_t_m_c2208_stepper.html#a0ba01db6c4c01da7cb0ace8a524ab1da" target="_top" xlink:title=" ">
<polygon fill="white" stroke="black" points="502.5,-43.9696 502.5,-62.9696 681.5,-62.9696 681.5,-43.9696 502.5,-43.9696"/>
<text text-anchor="middle" x="592" y="-50.9696" font-family="Helvetica,sans-Serif" font-size="10.00">TMC2208Stepper::preCommunication</text>
</a>
</g>
</g>
<!-- Node3&#45;&gt;Node12 -->
<g id="edge12" class="edge"><title>Node3&#45;&gt;Node12</title>
<path fill="none" stroke="midnightblue" d="M453.431,-81.8806C478.149,-76.7758 508.739,-70.4583 534.792,-65.0778"/>
<polygon fill="midnightblue" stroke="midnightblue" points="535.817,-68.44 544.903,-62.9897 534.402,-61.5846 535.817,-68.44"/>
</g>
<!-- Node5 -->
<g id="node5" class="node"><title>Node5</title>
<g id="a_node5"><a xlink:href="../../d6/d7e/class_t_m_c2208_stepper.html#a7a670b15f45466f8d167a9b80fbf384f" target="_top" xlink:title=" ">
<polygon fill="white" stroke="black" points="725.5,-207.97 725.5,-226.97 859.5,-226.97 859.5,-207.97 725.5,-207.97"/>
<text text-anchor="middle" x="792.5" y="-214.97" font-family="Helvetica,sans-Serif" font-size="10.00">TMC2208Stepper::available</text>
</a>
</g>
</g>
<!-- Node4&#45;&gt;Node5 -->
<g id="edge4" class="edge"><title>Node4&#45;&gt;Node5</title>
<path fill="none" stroke="midnightblue" d="M630.804,-176.992C662.849,-185.064 708.983,-196.684 743.607,-205.406"/>
<polygon fill="midnightblue" stroke="midnightblue" points="742.948,-208.849 753.5,-207.898 744.657,-202.061 742.948,-208.849"/>
</g>
<!-- Node6 -->
<g id="node6" class="node"><title>Node6</title>
<g id="a_node6"><a xlink:href="../../d6/d7e/class_t_m_c2208_stepper.html#a4ec5d2b2f5a31259c7aba1f3208d63b8" target="_top" xlink:title=" ">
<polygon fill="white" stroke="black" points="734.5,-169.97 734.5,-188.97 850.5,-188.97 850.5,-169.97 734.5,-169.97"/>
<text text-anchor="middle" x="792.5" y="-176.97" font-family="Helvetica,sans-Serif" font-size="10.00">TMC2208Stepper::ms2</text>
</a>
</g>
</g>
<!-- Node4&#45;&gt;Node6 -->
<g id="edge5" class="edge"><title>Node4&#45;&gt;Node6</title>
<path fill="none" stroke="midnightblue" d="M675.17,-172.437C691.532,-173.426 708.531,-174.454 724.318,-175.408"/>
<polygon fill="midnightblue" stroke="midnightblue" points="724.305,-178.914 734.498,-176.024 724.727,-171.927 724.305,-178.914"/>
</g>
<!-- Node8 -->
<g id="node8" class="node"><title>Node8</title>
<g id="a_node8"><a xlink:href="../../d6/d7e/class_t_m_c2208_stepper.html#a129ceb04c3ea18e2c4ec1a59a51ece85" target="_top" xlink:title=" ">
<polygon fill="white" stroke="black" points="720,-131.97 720,-150.97 865,-150.97 865,-131.97 720,-131.97"/>
<text text-anchor="middle" x="792.5" y="-138.97" font-family="Helvetica,sans-Serif" font-size="10.00">TMC2208Stepper::serial_read</text>
</a>
</g>
</g>
<!-- Node4&#45;&gt;Node8 -->
<g id="edge8" class="edge"><title>Node4&#45;&gt;Node8</title>
<path fill="none" stroke="midnightblue" d="M665.787,-157.936C680.081,-156.064 695.166,-154.088 709.731,-152.18"/>
<polygon fill="midnightblue" stroke="midnightblue" points="710.256,-155.641 719.716,-150.872 709.346,-148.7 710.256,-155.641"/>
</g>
<!-- Node9 -->
<g id="node9" class="node"><title>Node9</title>
<g id="a_node9"><a xlink:href="../../d6/d7e/class_t_m_c2208_stepper.html#aa7f2c1a3a1cda9a328c186c6d7cbfe41" target="_top" xlink:title=" ">
<polygon fill="white" stroke="black" points="732,-82.4696 732,-112.47 853,-112.47 853,-82.4696 732,-82.4696"/>
<text text-anchor="start" x="740" y="-100.47" font-family="Helvetica,sans-Serif" font-size="10.00">TMC2208Stepper::serial</text>
<text text-anchor="middle" x="792.5" y="-89.4696" font-family="Helvetica,sans-Serif" font-size="10.00">_write</text>
</a>
</g>
</g>
<!-- Node4&#45;&gt;Node9 -->
<g id="edge9" class="edge"><title>Node4&#45;&gt;Node9</title>
<path fill="none" stroke="midnightblue" d="M656.251,-157.863C665.759,-155.397 675.289,-152.315 684,-148.47 702.056,-140.5 702.502,-131.6 720,-122.47 724.044,-120.36 728.305,-118.362 732.65,-116.486"/>
<polygon fill="midnightblue" stroke="midnightblue" points="734.304,-119.591 742.243,-112.575 731.662,-113.109 734.304,-119.591"/>
</g>
<!-- Node7 -->
<g id="node7" class="node"><title>Node7</title>
<g id="a_node7"><a xlink:href="../../d6/d7e/class_t_m_c2208_stepper.html#a5441dd87d0bcea4ffc309cb012166a57" target="_top" xlink:title=" ">
<polygon fill="white" stroke="black" points="901,-87.9696 901,-106.97 1017,-106.97 1017,-87.9696 901,-87.9696"/>
<text text-anchor="middle" x="959" y="-94.9696" font-family="Helvetica,sans-Serif" font-size="10.00">TMC2208Stepper::IOIN</text>
</a>
</g>
</g>
<!-- Node6&#45;&gt;Node7 -->
<g id="edge6" class="edge"><title>Node6&#45;&gt;Node7</title>
<path fill="none" stroke="midnightblue" d="M838.551,-169.968C847.507,-167.396 856.702,-164.251 865,-160.47 892.451,-147.961 920.683,-127.566 938.73,-113.383"/>
<polygon fill="midnightblue" stroke="midnightblue" points="941.106,-115.965 946.723,-106.982 936.73,-110.501 941.106,-115.965"/>
</g>
<!-- Node7&#45;&gt;Node3 -->
<g id="edge7" class="edge"><title>Node7&#45;&gt;Node3</title>
<path fill="none" stroke="midnightblue" d="M948.209,-87.8203C932.34,-72.9361 899.305,-44.9951 865,-34.4696 709.914,13.1145 656.13,9.56986 500,-34.4696 471.807,-42.4221 443.729,-61.5756 425.921,-75.4902"/>
<polygon fill="midnightblue" stroke="midnightblue" points="423.643,-72.8308 418.049,-81.8281 428.033,-78.2834 423.643,-72.8308"/>
</g>
<!-- Node13 -->
<g id="node13" class="node"><title>Node13</title>
<g id="a_node13"><a xlink:href="../../d9/d98/class_s_switch.html#a6ff09d0850d551571dc333fb74ff8628" target="_top" xlink:title=" ">
<polygon fill="white" stroke="black" points="751,-43.9696 751,-62.9696 834,-62.9696 834,-43.9696 751,-43.9696"/>
<text text-anchor="middle" x="792.5" y="-50.9696" font-family="Helvetica,sans-Serif" font-size="10.00">SSwitch::active</text>
</a>
</g>
</g>
<!-- Node12&#45;&gt;Node13 -->
<g id="edge13" class="edge"><title>Node12&#45;&gt;Node13</title>
<path fill="none" stroke="midnightblue" d="M681.51,-53.4696C701.828,-53.4696 722.753,-53.4696 740.826,-53.4696"/>
<polygon fill="midnightblue" stroke="midnightblue" points="740.83,-56.9697 750.83,-53.4696 740.83,-49.9697 740.83,-56.9697"/>
</g>
</g>
</svg>
