<?xml version="1.0" encoding="UTF-8" standalone="no"?>
<!DOCTYPE svg PUBLIC "-//W3C//DTD SVG 1.1//EN"
 "http://www.w3.org/Graphics/SVG/1.1/DTD/svg11.dtd">
<!-- Generated by graphviz version 2.38.0 (20140413.2041)
 -->
<!-- Title: TMC2208Stepper::DRV_STATUS Pages: 1 -->
<svg width="831pt" height="235pt"
 viewBox="0.00 0.00 831.00 235.47" xmlns="http://www.w3.org/2000/svg" xmlns:xlink="http://www.w3.org/1999/xlink">
<g id="graph0" class="graph" transform="scale(1 1) rotate(0) translate(4 231.47)">
<title>TMC2208Stepper::DRV_STATUS</title>
<polygon fill="white" stroke="none" points="-4,4 -4,-231.47 827,-231.47 827,4 -4,4"/>
<!-- Node1 -->
<g id="node1" class="node"><title>Node1</title>
<g id="a_node1"><a xlink:title=" ">
<polygon fill="#bfbfbf" stroke="black" points="0,-76.4696 0,-106.47 118,-106.47 118,-76.4696 0,-76.4696"/>
<text text-anchor="start" x="8" y="-94.4696" font-family="Helvetica,sans-Serif" font-size="10.00">TMC2208Stepper::DRV</text>
<text text-anchor="middle" x="59" y="-83.4696" font-family="Helvetica,sans-Serif" font-size="10.00">_STATUS</text>
</a>
</g>
</g>
<!-- Node2 -->
<g id="node2" class="node"><title>Node2</title>
<g id="a_node2"><a xlink:href="../../d6/d7e/class_t_m_c2208_stepper.html#a2fae2050849c3ab7968012def8ea1cc5" target="_top" xlink:title=" ">
<polygon fill="white" stroke="black" points="154,-81.9696 154,-100.97 270,-100.97 270,-81.9696 154,-81.9696"/>
<text text-anchor="middle" x="212" y="-88.9696" font-family="Helvetica,sans-Serif" font-size="10.00">TMC2208Stepper::read</text>
</a>
</g>
</g>
<!-- Node1&#45;&gt;Node2 -->
<g id="edge1" class="edge"><title>Node1&#45;&gt;Node2</title>
<path fill="none" stroke="midnightblue" d="M118.381,-91.4696C126.641,-91.4696 135.19,-91.4696 143.603,-91.4696"/>
<polygon fill="midnightblue" stroke="midnightblue" points="143.769,-94.9697 153.769,-91.4696 143.769,-87.9697 143.769,-94.9697"/>
</g>
<!-- Node3 -->
<g id="node3" class="node"><title>Node3</title>
<g id="a_node3"><a xlink:href="../../d6/d7e/class_t_m_c2208_stepper.html#a321ad81155b7a20c0858920d32d0b074" target="_top" xlink:title=" ">
<polygon fill="white" stroke="black" points="315,-157.97 315,-176.97 481,-176.97 481,-157.97 315,-157.97"/>
<text text-anchor="middle" x="398" y="-164.97" font-family="Helvetica,sans-Serif" font-size="10.00">TMC2208Stepper::_sendDatagram</text>
</a>
</g>
</g>
<!-- Node2&#45;&gt;Node3 -->
<g id="edge2" class="edge"><title>Node2&#45;&gt;Node3</title>
<path fill="none" stroke="midnightblue" d="M225.494,-101.088C242.681,-113.843 275.022,-136.174 306,-148.47 312.6,-151.089 319.62,-153.37 326.72,-155.35"/>
<polygon fill="midnightblue" stroke="midnightblue" points="325.861,-158.743 336.42,-157.869 327.62,-151.968 325.861,-158.743"/>
</g>
<!-- Node9 -->
<g id="node9" class="node"><title>Node9</title>
<g id="a_node9"><a xlink:href="../../d6/d7e/class_t_m_c2208_stepper.html#a409c19fa6b052a370a317d061bf9af4e" target="_top" xlink:title=" ">
<polygon fill="white" stroke="black" points="330,-119.97 330,-138.97 466,-138.97 466,-119.97 330,-119.97"/>
<text text-anchor="middle" x="398" y="-126.97" font-family="Helvetica,sans-Serif" font-size="10.00">TMC2208Stepper::calcCRC</text>
</a>
</g>
</g>
<!-- Node2&#45;&gt;Node9 -->
<g id="edge9" class="edge"><title>Node2&#45;&gt;Node9</title>
<path fill="none" stroke="midnightblue" d="M259.431,-101.059C284.149,-106.163 314.739,-112.481 340.792,-117.861"/>
<polygon fill="midnightblue" stroke="midnightblue" points="340.402,-121.355 350.903,-119.95 341.817,-114.499 340.402,-121.355"/>
</g>
<!-- Node10 -->
<g id="node10" class="node"><title>Node10</title>
<g id="a_node10"><a xlink:href="../../d6/d7e/class_t_m_c2208_stepper.html#a673ade174158b47e3b345b1d7b3c473d" target="_top" xlink:title=" ">
<polygon fill="white" stroke="black" points="306,-81.9696 306,-100.97 490,-100.97 490,-81.9696 306,-81.9696"/>
<text text-anchor="middle" x="398" y="-88.9696" font-family="Helvetica,sans-Serif" font-size="10.00">TMC2208Stepper::postCommunication</text>
</a>
</g>
</g>
<!-- Node2&#45;&gt;Node10 -->
<g id="edge10" class="edge"><title>Node2&#45;&gt;Node10</title>
<path fill="none" stroke="midnightblue" d="M270.21,-91.4696C278.323,-91.4696 286.86,-91.4696 295.51,-91.4696"/>
<polygon fill="midnightblue" stroke="midnightblue" points="295.697,-94.9697 305.697,-91.4696 295.697,-87.9697 295.697,-94.9697"/>
</g>
<!-- Node11 -->
<g id="node11" class="node"><title>Node11</title>
<g id="a_node11"><a xlink:href="../../d6/d7e/class_t_m_c2208_stepper.html#a0ba01db6c4c01da7cb0ace8a524ab1da" target="_top" xlink:title=" ">
<polygon fill="white" stroke="black" points="308.5,-43.9696 308.5,-62.9696 487.5,-62.9696 487.5,-43.9696 308.5,-43.9696"/>
<text text-anchor="middle" x="398" y="-50.9696" font-family="Helvetica,sans-Serif" font-size="10.00">TMC2208Stepper::preCommunication</text>
</a>
</g>
</g>
<!-- Node2&#45;&gt;Node11 -->
<g id="edge11" class="edge"><title>Node2&#45;&gt;Node11</title>
<path fill="none" stroke="midnightblue" d="M259.431,-81.8806C284.149,-76.7758 314.739,-70.4583 340.792,-65.0778"/>
<polygon fill="midnightblue" stroke="midnightblue" points="341.817,-68.44 350.903,-62.9897 340.402,-61.5846 341.817,-68.44"/>
</g>
<!-- Node4 -->
<g id="node4" class="node"><title>Node4</title>
<g id="a_node4"><a xlink:href="../../d6/d7e/class_t_m_c2208_stepper.html#a7a670b15f45466f8d167a9b80fbf384f" target="_top" xlink:title=" ">
<polygon fill="white" stroke="black" points="531.5,-207.97 531.5,-226.97 665.5,-226.97 665.5,-207.97 531.5,-207.97"/>
<text text-anchor="middle" x="598.5" y="-214.97" font-family="Helvetica,sans-Serif" font-size="10.00">TMC2208Stepper::available</text>
</a>
</g>
</g>
<!-- Node3&#45;&gt;Node4 -->
<g id="edge3" class="edge"><title>Node3&#45;&gt;Node4</title>
<path fill="none" stroke="midnightblue" d="M436.804,-176.992C468.849,-185.064 514.983,-196.684 549.607,-205.406"/>
<polygon fill="midnightblue" stroke="midnightblue" points="548.948,-208.849 559.5,-207.898 550.657,-202.061 548.948,-208.849"/>
</g>
<!-- Node5 -->
<g id="node5" class="node"><title>Node5</title>
<g id="a_node5"><a xlink:href="../../d6/d7e/class_t_m_c2208_stepper.html#a4ec5d2b2f5a31259c7aba1f3208d63b8" target="_top" xlink:title=" ">
<polygon fill="white" stroke="black" points="540.5,-169.97 540.5,-188.97 656.5,-188.97 656.5,-169.97 540.5,-169.97"/>
<text text-anchor="middle" x="598.5" y="-176.97" font-family="Helvetica,sans-Serif" font-size="10.00">TMC2208Stepper::ms2</text>
</a>
</g>
</g>
<!-- Node3&#45;&gt;Node5 -->
<g id="edge4" class="edge"><title>Node3&#45;&gt;Node5</title>
<path fill="none" stroke="midnightblue" d="M481.17,-172.437C497.532,-173.426 514.531,-174.454 530.318,-175.408"/>
<polygon fill="midnightblue" stroke="midnightblue" points="530.305,-178.914 540.498,-176.024 530.727,-171.927 530.305,-178.914"/>
</g>
<!-- Node7 -->
<g id="node7" class="node"><title>Node7</title>
<g id="a_node7"><a xlink:href="../../d6/d7e/class_t_m_c2208_stepper.html#a129ceb04c3ea18e2c4ec1a59a51ece85" target="_top" xlink:title=" ">
<polygon fill="white" stroke="black" points="526,-131.97 526,-150.97 671,-150.97 671,-131.97 526,-131.97"/>
<text text-anchor="middle" x="598.5" y="-138.97" font-family="Helvetica,sans-Serif" font-size="10.00">TMC2208Stepper::serial_read</text>
</a>
</g>
</g>
<!-- Node3&#45;&gt;Node7 -->
<g id="edge7" class="edge"><title>Node3&#45;&gt;Node7</title>
<path fill="none" stroke="midnightblue" d="M471.787,-157.936C486.081,-156.064 501.166,-154.088 515.731,-152.18"/>
<polygon fill="midnightblue" stroke="midnightblue" points="516.256,-155.641 525.716,-150.872 515.346,-148.7 516.256,-155.641"/>
</g>
<!-- Node8 -->
<g id="node8" class="node"><title>Node8</title>
<g id="a_node8"><a xlink:href="../../d6/d7e/class_t_m_c2208_stepper.html#aa7f2c1a3a1cda9a328c186c6d7cbfe41" target="_top" xlink:title=" ">
<polygon fill="white" stroke="black" points="538,-82.4696 538,-112.47 659,-112.47 659,-82.4696 538,-82.4696"/>
<text text-anchor="start" x="546" y="-100.47" font-family="Helvetica,sans-Serif" font-size="10.00">TMC2208Stepper::serial</text>
<text text-anchor="middle" x="598.5" y="-89.4696" font-family="Helvetica,sans-Serif" font-size="10.00">_write</text>
</a>
</g>
</g>
<!-- Node3&#45;&gt;Node8 -->
<g id="edge8" class="edge"><title>Node3&#45;&gt;Node8</title>
<path fill="none" stroke="midnightblue" d="M462.251,-157.863C471.759,-155.397 481.289,-152.315 490,-148.47 508.056,-140.5 508.502,-131.6 526,-122.47 530.044,-120.36 534.305,-118.362 538.65,-116.486"/>
<polygon fill="midnightblue" stroke="midnightblue" points="540.304,-119.591 548.243,-112.575 537.662,-113.109 540.304,-119.591"/>
</g>
<!-- Node6 -->
<g id="node6" class="node"><title>Node6</title>
<g id="a_node6"><a xlink:href="../../d6/d7e/class_t_m_c2208_stepper.html#a5441dd87d0bcea4ffc309cb012166a57" target="_top" xlink:title=" ">
<polygon fill="white" stroke="black" points="707,-87.9696 707,-106.97 823,-106.97 823,-87.9696 707,-87.9696"/>
<text text-anchor="middle" x="765" y="-94.9696" font-family="Helvetica,sans-Serif" font-size="10.00">TMC2208Stepper::IOIN</text>
</a>
</g>
</g>
<!-- Node5&#45;&gt;Node6 -->
<g id="edge5" class="edge"><title>Node5&#45;&gt;Node6</title>
<path fill="none" stroke="midnightblue" d="M644.551,-169.968C653.507,-167.396 662.702,-164.251 671,-160.47 698.451,-147.961 726.683,-127.566 744.73,-113.383"/>
<polygon fill="midnightblue" stroke="midnightblue" points="747.106,-115.965 752.723,-106.982 742.73,-110.501 747.106,-115.965"/>
</g>
<!-- Node6&#45;&gt;Node2 -->
<g id="edge6" class="edge"><title>Node6&#45;&gt;Node2</title>
<path fill="none" stroke="midnightblue" d="M754.209,-87.8203C738.34,-72.9361 705.305,-44.9951 671,-34.4696 515.914,13.1145 462.13,9.56986 306,-34.4696 277.807,-42.4221 249.729,-61.5756 231.921,-75.4902"/>
<polygon fill="midnightblue" stroke="midnightblue" points="229.643,-72.8308 224.049,-81.8281 234.033,-78.2834 229.643,-72.8308"/>
</g>
<!-- Node12 -->
<g id="node12" class="node"><title>Node12</title>
<g id="a_node12"><a xlink:href="../../d9/d98/class_s_switch.html#a6ff09d0850d551571dc333fb74ff8628" target="_top" xlink:title=" ">
<polygon fill="white" stroke="black" points="557,-43.9696 557,-62.9696 640,-62.9696 640,-43.9696 557,-43.9696"/>
<text text-anchor="middle" x="598.5" y="-50.9696" font-family="Helvetica,sans-Serif" font-size="10.00">SSwitch::active</text>
</a>
</g>
</g>
<!-- Node11&#45;&gt;Node12 -->
<g id="edge12" class="edge"><title>Node11&#45;&gt;Node12</title>
<path fill="none" stroke="midnightblue" d="M487.51,-53.4696C507.828,-53.4696 528.753,-53.4696 546.826,-53.4696"/>
<polygon fill="midnightblue" stroke="midnightblue" points="546.83,-56.9697 556.83,-53.4696 546.83,-49.9697 546.83,-56.9697"/>
</g>
</g>
</svg>
