<?xml version="1.0" encoding="UTF-8" standalone="no"?>
<!DOCTYPE svg PUBLIC "-//W3C//DTD SVG 1.1//EN"
 "http://www.w3.org/Graphics/SVG/1.1/DTD/svg11.dtd">
<!-- Generated by graphviz version 2.38.0 (20140413.2041)
 -->
<!-- Title: TMC2208Stepper::fclktrim Pages: 1 -->
<svg width="1054pt" height="235pt"
 viewBox="0.00 0.00 1054.00 235.47" xmlns="http://www.w3.org/2000/svg" xmlns:xlink="http://www.w3.org/1999/xlink">
<g id="graph0" class="graph" transform="scale(1 1) rotate(0) translate(4 231.47)">
<title>TMC2208Stepper::fclktrim</title>
<polygon fill="white" stroke="none" points="-4,4 -4,-231.47 1050,-231.47 1050,4 -4,4"/>
<!-- Node1 -->
<g id="node1" class="node"><title>Node1</title>
<g id="a_node1"><a xlink:title=" ">
<polygon fill="#bfbfbf" stroke="black" points="0,-81.9696 0,-100.97 129,-100.97 129,-81.9696 0,-81.9696"/>
<text text-anchor="middle" x="64.5" y="-88.9696" font-family="Helvetica,sans-Serif" font-size="10.00">TMC2208Stepper::fclktrim</text>
</a>
</g>
</g>
<!-- Node2 -->
<g id="node2" class="node"><title>Node2</title>
<g id="a_node2"><a xlink:href="../../d6/d7e/class_t_m_c2208_stepper.html#a64c51922eb2029e4bbcd4f8a51b6a6ae" target="_top" xlink:title=" ">
<polygon fill="white" stroke="black" points="165,-81.9696 165,-100.97 341,-100.97 341,-81.9696 165,-81.9696"/>
<text text-anchor="middle" x="253" y="-88.9696" font-family="Helvetica,sans-Serif" font-size="10.00">TMC2208Stepper::FACTORY_CONF</text>
</a>
</g>
</g>
<!-- Node1&#45;&gt;Node2 -->
<g id="edge1" class="edge"><title>Node1&#45;&gt;Node2</title>
<path fill="none" stroke="midnightblue" d="M129.161,-91.4696C137.428,-91.4696 146.041,-91.4696 154.701,-91.4696"/>
<polygon fill="midnightblue" stroke="midnightblue" points="154.871,-94.9697 164.871,-91.4696 154.87,-87.9697 154.871,-94.9697"/>
</g>
<!-- Node3 -->
<g id="node3" class="node"><title>Node3</title>
<g id="a_node3"><a xlink:href="../../d6/d7e/class_t_m_c2208_stepper.html#a2fae2050849c3ab7968012def8ea1cc5" target="_top" xlink:title=" ">
<polygon fill="white" stroke="black" points="377,-81.9696 377,-100.97 493,-100.97 493,-81.9696 377,-81.9696"/>
<text text-anchor="middle" x="435" y="-88.9696" font-family="Helvetica,sans-Serif" font-size="10.00">TMC2208Stepper::read</text>
</a>
</g>
</g>
<!-- Node2&#45;&gt;Node3 -->
<g id="edge2" class="edge"><title>Node2&#45;&gt;Node3</title>
<path fill="none" stroke="midnightblue" d="M341.1,-91.4696C349.713,-91.4696 358.361,-91.4696 366.729,-91.4696"/>
<polygon fill="midnightblue" stroke="midnightblue" points="366.775,-94.9697 376.775,-91.4696 366.775,-87.9697 366.775,-94.9697"/>
</g>
<!-- Node4 -->
<g id="node4" class="node"><title>Node4</title>
<g id="a_node4"><a xlink:href="../../d6/d7e/class_t_m_c2208_stepper.html#a321ad81155b7a20c0858920d32d0b074" target="_top" xlink:title=" ">
<polygon fill="white" stroke="black" points="538,-157.97 538,-176.97 704,-176.97 704,-157.97 538,-157.97"/>
<text text-anchor="middle" x="621" y="-164.97" font-family="Helvetica,sans-Serif" font-size="10.00">TMC2208Stepper::_sendDatagram</text>
</a>
</g>
</g>
<!-- Node3&#45;&gt;Node4 -->
<g id="edge3" class="edge"><title>Node3&#45;&gt;Node4</title>
<path fill="none" stroke="midnightblue" d="M448.494,-101.088C465.681,-113.843 498.022,-136.174 529,-148.47 535.6,-151.089 542.62,-153.37 549.72,-155.35"/>
<polygon fill="midnightblue" stroke="midnightblue" points="548.861,-158.743 559.42,-157.869 550.62,-151.968 548.861,-158.743"/>
</g>
<!-- Node10 -->
<g id="node10" class="node"><title>Node10</title>
<g id="a_node10"><a xlink:href="../../d6/d7e/class_t_m_c2208_stepper.html#a409c19fa6b052a370a317d061bf9af4e" target="_top" xlink:title=" ">
<polygon fill="white" stroke="black" points="553,-119.97 553,-138.97 689,-138.97 689,-119.97 553,-119.97"/>
<text text-anchor="middle" x="621" y="-126.97" font-family="Helvetica,sans-Serif" font-size="10.00">TMC2208Stepper::calcCRC</text>
</a>
</g>
</g>
<!-- Node3&#45;&gt;Node10 -->
<g id="edge10" class="edge"><title>Node3&#45;&gt;Node10</title>
<path fill="none" stroke="midnightblue" d="M482.431,-101.059C507.149,-106.163 537.739,-112.481 563.792,-117.861"/>
<polygon fill="midnightblue" stroke="midnightblue" points="563.402,-121.355 573.903,-119.95 564.817,-114.499 563.402,-121.355"/>
</g>
<!-- Node11 -->
<g id="node11" class="node"><title>Node11</title>
<g id="a_node11"><a xlink:href="../../d6/d7e/class_t_m_c2208_stepper.html#a673ade174158b47e3b345b1d7b3c473d" target="_top" xlink:title=" ">
<polygon fill="white" stroke="black" points="529,-81.9696 529,-100.97 713,-100.97 713,-81.9696 529,-81.9696"/>
<text text-anchor="middle" x="621" y="-88.9696" font-family="Helvetica,sans-Serif" font-size="10.00">TMC2208Stepper::postCommunication</text>
</a>
</g>
</g>
<!-- Node3&#45;&gt;Node11 -->
<g id="edge11" class="edge"><title>Node3&#45;&gt;Node11</title>
<path fill="none" stroke="midnightblue" d="M493.21,-91.4696C501.323,-91.4696 509.86,-91.4696 518.51,-91.4696"/>
<polygon fill="midnightblue" stroke="midnightblue" points="518.697,-94.9697 528.697,-91.4696 518.697,-87.9697 518.697,-94.9697"/>
</g>
<!-- Node12 -->
<g id="node12" class="node"><title>Node12</title>
<g id="a_node12"><a xlink:href="../../d6/d7e/class_t_m_c2208_stepper.html#a0ba01db6c4c01da7cb0ace8a524ab1da" target="_top" xlink:title=" ">
<polygon fill="white" stroke="black" points="531.5,-43.9696 531.5,-62.9696 710.5,-62.9696 710.5,-43.9696 531.5,-43.9696"/>
<text text-anchor="middle" x="621" y="-50.9696" font-family="Helvetica,sans-Serif" font-size="10.00">TMC2208Stepper::preCommunication</text>
</a>
</g>
</g>
<!-- Node3&#45;&gt;Node12 -->
<g id="edge12" class="edge"><title>Node3&#45;&gt;Node12</title>
<path fill="none" stroke="midnightblue" d="M482.431,-81.8806C507.149,-76.7758 537.739,-70.4583 563.792,-65.0778"/>
<polygon fill="midnightblue" stroke="midnightblue" points="564.817,-68.44 573.903,-62.9897 563.402,-61.5846 564.817,-68.44"/>
</g>
<!-- Node5 -->
<g id="node5" class="node"><title>Node5</title>
<g id="a_node5"><a xlink:href="../../d6/d7e/class_t_m_c2208_stepper.html#a7a670b15f45466f8d167a9b80fbf384f" target="_top" xlink:title=" ">
<polygon fill="white" stroke="black" points="754.5,-207.97 754.5,-226.97 888.5,-226.97 888.5,-207.97 754.5,-207.97"/>
<text text-anchor="middle" x="821.5" y="-214.97" font-family="Helvetica,sans-Serif" font-size="10.00">TMC2208Stepper::available</text>
</a>
</g>
</g>
<!-- Node4&#45;&gt;Node5 -->
<g id="edge4" class="edge"><title>Node4&#45;&gt;Node5</title>
<path fill="none" stroke="midnightblue" d="M659.804,-176.992C691.849,-185.064 737.983,-196.684 772.607,-205.406"/>
<polygon fill="midnightblue" stroke="midnightblue" points="771.948,-208.849 782.5,-207.898 773.657,-202.061 771.948,-208.849"/>
</g>
<!-- Node6 -->
<g id="node6" class="node"><title>Node6</title>
<g id="a_node6"><a xlink:href="../../d6/d7e/class_t_m_c2208_stepper.html#a4ec5d2b2f5a31259c7aba1f3208d63b8" target="_top" xlink:title=" ">
<polygon fill="white" stroke="black" points="763.5,-169.97 763.5,-188.97 879.5,-188.97 879.5,-169.97 763.5,-169.97"/>
<text text-anchor="middle" x="821.5" y="-176.97" font-family="Helvetica,sans-Serif" font-size="10.00">TMC2208Stepper::ms2</text>
</a>
</g>
</g>
<!-- Node4&#45;&gt;Node6 -->
<g id="edge5" class="edge"><title>Node4&#45;&gt;Node6</title>
<path fill="none" stroke="midnightblue" d="M704.17,-172.437C720.532,-173.426 737.531,-174.454 753.318,-175.408"/>
<polygon fill="midnightblue" stroke="midnightblue" points="753.305,-178.914 763.498,-176.024 753.727,-171.927 753.305,-178.914"/>
</g>
<!-- Node8 -->
<g id="node8" class="node"><title>Node8</title>
<g id="a_node8"><a xlink:href="../../d6/d7e/class_t_m_c2208_stepper.html#a129ceb04c3ea18e2c4ec1a59a51ece85" target="_top" xlink:title=" ">
<polygon fill="white" stroke="black" points="749,-131.97 749,-150.97 894,-150.97 894,-131.97 749,-131.97"/>
<text text-anchor="middle" x="821.5" y="-138.97" font-family="Helvetica,sans-Serif" font-size="10.00">TMC2208Stepper::serial_read</text>
</a>
</g>
</g>
<!-- Node4&#45;&gt;Node8 -->
<g id="edge8" class="edge"><title>Node4&#45;&gt;Node8</title>
<path fill="none" stroke="midnightblue" d="M694.787,-157.936C709.081,-156.064 724.166,-154.088 738.731,-152.18"/>
<polygon fill="midnightblue" stroke="midnightblue" points="739.256,-155.641 748.716,-150.872 738.346,-148.7 739.256,-155.641"/>
</g>
<!-- Node9 -->
<g id="node9" class="node"><title>Node9</title>
<g id="a_node9"><a xlink:href="../../d6/d7e/class_t_m_c2208_stepper.html#aa7f2c1a3a1cda9a328c186c6d7cbfe41" target="_top" xlink:title=" ">
<polygon fill="white" stroke="black" points="761,-82.4696 761,-112.47 882,-112.47 882,-82.4696 761,-82.4696"/>
<text text-anchor="start" x="769" y="-100.47" font-family="Helvetica,sans-Serif" font-size="10.00">TMC2208Stepper::serial</text>
<text text-anchor="middle" x="821.5" y="-89.4696" font-family="Helvetica,sans-Serif" font-size="10.00">_write</text>
</a>
</g>
</g>
<!-- Node4&#45;&gt;Node9 -->
<g id="edge9" class="edge"><title>Node4&#45;&gt;Node9</title>
<path fill="none" stroke="midnightblue" d="M685.251,-157.863C694.759,-155.397 704.289,-152.315 713,-148.47 731.056,-140.5 731.502,-131.6 749,-122.47 753.044,-120.36 757.305,-118.362 761.65,-116.486"/>
<polygon fill="midnightblue" stroke="midnightblue" points="763.304,-119.591 771.243,-112.575 760.662,-113.109 763.304,-119.591"/>
</g>
<!-- Node7 -->
<g id="node7" class="node"><title>Node7</title>
<g id="a_node7"><a xlink:href="../../d6/d7e/class_t_m_c2208_stepper.html#a5441dd87d0bcea4ffc309cb012166a57" target="_top" xlink:title=" ">
<polygon fill="white" stroke="black" points="930,-87.9696 930,-106.97 1046,-106.97 1046,-87.9696 930,-87.9696"/>
<text text-anchor="middle" x="988" y="-94.9696" font-family="Helvetica,sans-Serif" font-size="10.00">TMC2208Stepper::IOIN</text>
</a>
</g>
</g>
<!-- Node6&#45;&gt;Node7 -->
<g id="edge6" class="edge"><title>Node6&#45;&gt;Node7</title>
<path fill="none" stroke="midnightblue" d="M867.551,-169.968C876.507,-167.396 885.702,-164.251 894,-160.47 921.451,-147.961 949.683,-127.566 967.73,-113.383"/>
<polygon fill="midnightblue" stroke="midnightblue" points="970.106,-115.965 975.723,-106.982 965.73,-110.501 970.106,-115.965"/>
</g>
<!-- Node7&#45;&gt;Node3 -->
<g id="edge7" class="edge"><title>Node7&#45;&gt;Node3</title>
<path fill="none" stroke="midnightblue" d="M977.209,-87.8203C961.34,-72.9361 928.305,-44.9951 894,-34.4696 738.914,13.1145 685.13,9.56986 529,-34.4696 500.807,-42.4221 472.729,-61.5756 454.921,-75.4902"/>
<polygon fill="midnightblue" stroke="midnightblue" points="452.643,-72.8308 447.049,-81.8281 457.033,-78.2834 452.643,-72.8308"/>
</g>
<!-- Node13 -->
<g id="node13" class="node"><title>Node13</title>
<g id="a_node13"><a xlink:href="../../d9/d98/class_s_switch.html#a6ff09d0850d551571dc333fb74ff8628" target="_top" xlink:title=" ">
<polygon fill="white" stroke="black" points="780,-43.9696 780,-62.9696 863,-62.9696 863,-43.9696 780,-43.9696"/>
<text text-anchor="middle" x="821.5" y="-50.9696" font-family="Helvetica,sans-Serif" font-size="10.00">SSwitch::active</text>
</a>
</g>
</g>
<!-- Node12&#45;&gt;Node13 -->
<g id="edge13" class="edge"><title>Node12&#45;&gt;Node13</title>
<path fill="none" stroke="midnightblue" d="M710.51,-53.4696C730.828,-53.4696 751.753,-53.4696 769.826,-53.4696"/>
<polygon fill="midnightblue" stroke="midnightblue" points="769.83,-56.9697 779.83,-53.4696 769.83,-49.9697 769.83,-56.9697"/>
</g>
</g>
</svg>
