<?xml version="1.0" encoding="UTF-8" standalone="no"?>
<!DOCTYPE svg PUBLIC "-//W3C//DTD SVG 1.1//EN"
 "http://www.w3.org/Graphics/SVG/1.1/DTD/svg11.dtd">
<!-- Generated by graphviz version 2.38.0 (20140413.2041)
 -->
<!-- Title: TMC2208Stepper::freewheel Pages: 1 -->
<svg width="1036pt" height="235pt"
 viewBox="0.00 0.00 1036.00 235.47" xmlns="http://www.w3.org/2000/svg" xmlns:xlink="http://www.w3.org/1999/xlink">
<g id="graph0" class="graph" transform="scale(1 1) rotate(0) translate(4 231.47)">
<title>TMC2208Stepper::freewheel</title>
<polygon fill="white" stroke="none" points="-4,4 -4,-231.47 1032,-231.47 1032,4 -4,4"/>
<!-- Node1 -->
<g id="node1" class="node"><title>Node1</title>
<g id="a_node1"><a xlink:title=" ">
<polygon fill="#bfbfbf" stroke="black" points="0,-81.9696 0,-100.97 138,-100.97 138,-81.9696 0,-81.9696"/>
<text text-anchor="middle" x="69" y="-88.9696" font-family="Helvetica,sans-Serif" font-size="10.00">TMC2208Stepper::freewheel</text>
</a>
</g>
</g>
<!-- Node2 -->
<g id="node2" class="node"><title>Node2</title>
<g id="a_node2"><a xlink:href="../../d6/d7e/class_t_m_c2208_stepper.html#a7c2e849de2f2933ba9bf8ede8dc53f53" target="_top" xlink:title=" ">
<polygon fill="white" stroke="black" points="174,-81.9696 174,-100.97 323,-100.97 323,-81.9696 174,-81.9696"/>
<text text-anchor="middle" x="248.5" y="-88.9696" font-family="Helvetica,sans-Serif" font-size="10.00">TMC2208Stepper::PWMCONF</text>
</a>
</g>
</g>
<!-- Node1&#45;&gt;Node2 -->
<g id="edge1" class="edge"><title>Node1&#45;&gt;Node2</title>
<path fill="none" stroke="midnightblue" d="M138.118,-91.4696C146.551,-91.4696 155.246,-91.4696 163.877,-91.4696"/>
<polygon fill="midnightblue" stroke="midnightblue" points="163.959,-94.9697 173.959,-91.4696 163.958,-87.9697 163.959,-94.9697"/>
</g>
<!-- Node3 -->
<g id="node3" class="node"><title>Node3</title>
<g id="a_node3"><a xlink:href="../../d6/d7e/class_t_m_c2208_stepper.html#a2fae2050849c3ab7968012def8ea1cc5" target="_top" xlink:title=" ">
<polygon fill="white" stroke="black" points="359,-81.9696 359,-100.97 475,-100.97 475,-81.9696 359,-81.9696"/>
<text text-anchor="middle" x="417" y="-88.9696" font-family="Helvetica,sans-Serif" font-size="10.00">TMC2208Stepper::read</text>
</a>
</g>
</g>
<!-- Node2&#45;&gt;Node3 -->
<g id="edge2" class="edge"><title>Node2&#45;&gt;Node3</title>
<path fill="none" stroke="midnightblue" d="M323.014,-91.4696C331.561,-91.4696 340.246,-91.4696 348.704,-91.4696"/>
<polygon fill="midnightblue" stroke="midnightblue" points="348.882,-94.9697 358.882,-91.4696 348.882,-87.9697 348.882,-94.9697"/>
</g>
<!-- Node4 -->
<g id="node4" class="node"><title>Node4</title>
<g id="a_node4"><a xlink:href="../../d6/d7e/class_t_m_c2208_stepper.html#a321ad81155b7a20c0858920d32d0b074" target="_top" xlink:title=" ">
<polygon fill="white" stroke="black" points="520,-157.97 520,-176.97 686,-176.97 686,-157.97 520,-157.97"/>
<text text-anchor="middle" x="603" y="-164.97" font-family="Helvetica,sans-Serif" font-size="10.00">TMC2208Stepper::_sendDatagram</text>
</a>
</g>
</g>
<!-- Node3&#45;&gt;Node4 -->
<g id="edge3" class="edge"><title>Node3&#45;&gt;Node4</title>
<path fill="none" stroke="midnightblue" d="M430.494,-101.088C447.681,-113.843 480.022,-136.174 511,-148.47 517.6,-151.089 524.62,-153.37 531.72,-155.35"/>
<polygon fill="midnightblue" stroke="midnightblue" points="530.861,-158.743 541.42,-157.869 532.62,-151.968 530.861,-158.743"/>
</g>
<!-- Node10 -->
<g id="node10" class="node"><title>Node10</title>
<g id="a_node10"><a xlink:href="../../d6/d7e/class_t_m_c2208_stepper.html#a409c19fa6b052a370a317d061bf9af4e" target="_top" xlink:title=" ">
<polygon fill="white" stroke="black" points="535,-119.97 535,-138.97 671,-138.97 671,-119.97 535,-119.97"/>
<text text-anchor="middle" x="603" y="-126.97" font-family="Helvetica,sans-Serif" font-size="10.00">TMC2208Stepper::calcCRC</text>
</a>
</g>
</g>
<!-- Node3&#45;&gt;Node10 -->
<g id="edge10" class="edge"><title>Node3&#45;&gt;Node10</title>
<path fill="none" stroke="midnightblue" d="M464.431,-101.059C489.149,-106.163 519.739,-112.481 545.792,-117.861"/>
<polygon fill="midnightblue" stroke="midnightblue" points="545.402,-121.355 555.903,-119.95 546.817,-114.499 545.402,-121.355"/>
</g>
<!-- Node11 -->
<g id="node11" class="node"><title>Node11</title>
<g id="a_node11"><a xlink:href="../../d6/d7e/class_t_m_c2208_stepper.html#a673ade174158b47e3b345b1d7b3c473d" target="_top" xlink:title=" ">
<polygon fill="white" stroke="black" points="511,-81.9696 511,-100.97 695,-100.97 695,-81.9696 511,-81.9696"/>
<text text-anchor="middle" x="603" y="-88.9696" font-family="Helvetica,sans-Serif" font-size="10.00">TMC2208Stepper::postCommunication</text>
</a>
</g>
</g>
<!-- Node3&#45;&gt;Node11 -->
<g id="edge11" class="edge"><title>Node3&#45;&gt;Node11</title>
<path fill="none" stroke="midnightblue" d="M475.21,-91.4696C483.323,-91.4696 491.86,-91.4696 500.51,-91.4696"/>
<polygon fill="midnightblue" stroke="midnightblue" points="500.697,-94.9697 510.697,-91.4696 500.697,-87.9697 500.697,-94.9697"/>
</g>
<!-- Node12 -->
<g id="node12" class="node"><title>Node12</title>
<g id="a_node12"><a xlink:href="../../d6/d7e/class_t_m_c2208_stepper.html#a0ba01db6c4c01da7cb0ace8a524ab1da" target="_top" xlink:title=" ">
<polygon fill="white" stroke="black" points="513.5,-43.9696 513.5,-62.9696 692.5,-62.9696 692.5,-43.9696 513.5,-43.9696"/>
<text text-anchor="middle" x="603" y="-50.9696" font-family="Helvetica,sans-Serif" font-size="10.00">TMC2208Stepper::preCommunication</text>
</a>
</g>
</g>
<!-- Node3&#45;&gt;Node12 -->
<g id="edge12" class="edge"><title>Node3&#45;&gt;Node12</title>
<path fill="none" stroke="midnightblue" d="M464.431,-81.8806C489.149,-76.7758 519.739,-70.4583 545.792,-65.0778"/>
<polygon fill="midnightblue" stroke="midnightblue" points="546.817,-68.44 555.903,-62.9897 545.402,-61.5846 546.817,-68.44"/>
</g>
<!-- Node5 -->
<g id="node5" class="node"><title>Node5</title>
<g id="a_node5"><a xlink:href="../../d6/d7e/class_t_m_c2208_stepper.html#a7a670b15f45466f8d167a9b80fbf384f" target="_top" xlink:title=" ">
<polygon fill="white" stroke="black" points="736.5,-207.97 736.5,-226.97 870.5,-226.97 870.5,-207.97 736.5,-207.97"/>
<text text-anchor="middle" x="803.5" y="-214.97" font-family="Helvetica,sans-Serif" font-size="10.00">TMC2208Stepper::available</text>
</a>
</g>
</g>
<!-- Node4&#45;&gt;Node5 -->
<g id="edge4" class="edge"><title>Node4&#45;&gt;Node5</title>
<path fill="none" stroke="midnightblue" d="M641.804,-176.992C673.849,-185.064 719.983,-196.684 754.607,-205.406"/>
<polygon fill="midnightblue" stroke="midnightblue" points="753.948,-208.849 764.5,-207.898 755.657,-202.061 753.948,-208.849"/>
</g>
<!-- Node6 -->
<g id="node6" class="node"><title>Node6</title>
<g id="a_node6"><a xlink:href="../../d6/d7e/class_t_m_c2208_stepper.html#a4ec5d2b2f5a31259c7aba1f3208d63b8" target="_top" xlink:title=" ">
<polygon fill="white" stroke="black" points="745.5,-169.97 745.5,-188.97 861.5,-188.97 861.5,-169.97 745.5,-169.97"/>
<text text-anchor="middle" x="803.5" y="-176.97" font-family="Helvetica,sans-Serif" font-size="10.00">TMC2208Stepper::ms2</text>
</a>
</g>
</g>
<!-- Node4&#45;&gt;Node6 -->
<g id="edge5" class="edge"><title>Node4&#45;&gt;Node6</title>
<path fill="none" stroke="midnightblue" d="M686.17,-172.437C702.532,-173.426 719.531,-174.454 735.318,-175.408"/>
<polygon fill="midnightblue" stroke="midnightblue" points="735.305,-178.914 745.498,-176.024 735.727,-171.927 735.305,-178.914"/>
</g>
<!-- Node8 -->
<g id="node8" class="node"><title>Node8</title>
<g id="a_node8"><a xlink:href="../../d6/d7e/class_t_m_c2208_stepper.html#a129ceb04c3ea18e2c4ec1a59a51ece85" target="_top" xlink:title=" ">
<polygon fill="white" stroke="black" points="731,-131.97 731,-150.97 876,-150.97 876,-131.97 731,-131.97"/>
<text text-anchor="middle" x="803.5" y="-138.97" font-family="Helvetica,sans-Serif" font-size="10.00">TMC2208Stepper::serial_read</text>
</a>
</g>
</g>
<!-- Node4&#45;&gt;Node8 -->
<g id="edge8" class="edge"><title>Node4&#45;&gt;Node8</title>
<path fill="none" stroke="midnightblue" d="M676.787,-157.936C691.081,-156.064 706.166,-154.088 720.731,-152.18"/>
<polygon fill="midnightblue" stroke="midnightblue" points="721.256,-155.641 730.716,-150.872 720.346,-148.7 721.256,-155.641"/>
</g>
<!-- Node9 -->
<g id="node9" class="node"><title>Node9</title>
<g id="a_node9"><a xlink:href="../../d6/d7e/class_t_m_c2208_stepper.html#aa7f2c1a3a1cda9a328c186c6d7cbfe41" target="_top" xlink:title=" ">
<polygon fill="white" stroke="black" points="743,-82.4696 743,-112.47 864,-112.47 864,-82.4696 743,-82.4696"/>
<text text-anchor="start" x="751" y="-100.47" font-family="Helvetica,sans-Serif" font-size="10.00">TMC2208Stepper::serial</text>
<text text-anchor="middle" x="803.5" y="-89.4696" font-family="Helvetica,sans-Serif" font-size="10.00">_write</text>
</a>
</g>
</g>
<!-- Node4&#45;&gt;Node9 -->
<g id="edge9" class="edge"><title>Node4&#45;&gt;Node9</title>
<path fill="none" stroke="midnightblue" d="M667.251,-157.863C676.759,-155.397 686.289,-152.315 695,-148.47 713.056,-140.5 713.502,-131.6 731,-122.47 735.044,-120.36 739.305,-118.362 743.65,-116.486"/>
<polygon fill="midnightblue" stroke="midnightblue" points="745.304,-119.591 753.243,-112.575 742.662,-113.109 745.304,-119.591"/>
</g>
<!-- Node7 -->
<g id="node7" class="node"><title>Node7</title>
<g id="a_node7"><a xlink:href="../../d6/d7e/class_t_m_c2208_stepper.html#a5441dd87d0bcea4ffc309cb012166a57" target="_top" xlink:title=" ">
<polygon fill="white" stroke="black" points="912,-87.9696 912,-106.97 1028,-106.97 1028,-87.9696 912,-87.9696"/>
<text text-anchor="middle" x="970" y="-94.9696" font-family="Helvetica,sans-Serif" font-size="10.00">TMC2208Stepper::IOIN</text>
</a>
</g>
</g>
<!-- Node6&#45;&gt;Node7 -->
<g id="edge6" class="edge"><title>Node6&#45;&gt;Node7</title>
<path fill="none" stroke="midnightblue" d="M849.551,-169.968C858.507,-167.396 867.702,-164.251 876,-160.47 903.451,-147.961 931.683,-127.566 949.73,-113.383"/>
<polygon fill="midnightblue" stroke="midnightblue" points="952.106,-115.965 957.723,-106.982 947.73,-110.501 952.106,-115.965"/>
</g>
<!-- Node7&#45;&gt;Node3 -->
<g id="edge7" class="edge"><title>Node7&#45;&gt;Node3</title>
<path fill="none" stroke="midnightblue" d="M959.209,-87.8203C943.34,-72.9361 910.305,-44.9951 876,-34.4696 720.914,13.1145 667.13,9.56986 511,-34.4696 482.807,-42.4221 454.729,-61.5756 436.921,-75.4902"/>
<polygon fill="midnightblue" stroke="midnightblue" points="434.643,-72.8308 429.049,-81.8281 439.033,-78.2834 434.643,-72.8308"/>
</g>
<!-- Node13 -->
<g id="node13" class="node"><title>Node13</title>
<g id="a_node13"><a xlink:href="../../d9/d98/class_s_switch.html#a6ff09d0850d551571dc333fb74ff8628" target="_top" xlink:title=" ">
<polygon fill="white" stroke="black" points="762,-43.9696 762,-62.9696 845,-62.9696 845,-43.9696 762,-43.9696"/>
<text text-anchor="middle" x="803.5" y="-50.9696" font-family="Helvetica,sans-Serif" font-size="10.00">SSwitch::active</text>
</a>
</g>
</g>
<!-- Node12&#45;&gt;Node13 -->
<g id="edge13" class="edge"><title>Node12&#45;&gt;Node13</title>
<path fill="none" stroke="midnightblue" d="M692.51,-53.4696C712.828,-53.4696 733.753,-53.4696 751.826,-53.4696"/>
<polygon fill="midnightblue" stroke="midnightblue" points="751.83,-56.9697 761.83,-53.4696 751.83,-49.9697 751.83,-56.9697"/>
</g>
</g>
</svg>
