<?xml version="1.0" encoding="UTF-8" standalone="no"?>
<!DOCTYPE svg PUBLIC "-//W3C//DTD SVG 1.1//EN"
 "http://www.w3.org/Graphics/SVG/1.1/DTD/svg11.dtd">
<!-- Generated by graphviz version 2.38.0 (20140413.2041)
 -->
<!-- Title: TMC2208Stepper::internal_Rsense Pages: 1 -->
<svg width="1010pt" height="235pt"
 viewBox="0.00 0.00 1010.00 235.47" xmlns="http://www.w3.org/2000/svg" xmlns:xlink="http://www.w3.org/1999/xlink">
<g id="graph0" class="graph" transform="scale(1 1) rotate(0) translate(4 231.47)">
<title>TMC2208Stepper::internal_Rsense</title>
<polygon fill="white" stroke="none" points="-4,4 -4,-231.47 1006,-231.47 1006,4 -4,4"/>
<!-- Node1 -->
<g id="node1" class="node"><title>Node1</title>
<g id="a_node1"><a xlink:title=" ">
<polygon fill="#bfbfbf" stroke="black" points="0,-76.4696 0,-106.47 129,-106.47 129,-76.4696 0,-76.4696"/>
<text text-anchor="start" x="8" y="-94.4696" font-family="Helvetica,sans-Serif" font-size="10.00">TMC2208Stepper::internal</text>
<text text-anchor="middle" x="64.5" y="-83.4696" font-family="Helvetica,sans-Serif" font-size="10.00">_Rsense</text>
</a>
</g>
</g>
<!-- Node2 -->
<g id="node2" class="node"><title>Node2</title>
<g id="a_node2"><a xlink:href="../../d6/d7e/class_t_m_c2208_stepper.html#a549db4f962d4ae698dda33ef9a708e33" target="_top" xlink:title=" ">
<polygon fill="white" stroke="black" points="165,-81.9696 165,-100.97 297,-100.97 297,-81.9696 165,-81.9696"/>
<text text-anchor="middle" x="231" y="-88.9696" font-family="Helvetica,sans-Serif" font-size="10.00">TMC2208Stepper::GCONF</text>
</a>
</g>
</g>
<!-- Node1&#45;&gt;Node2 -->
<g id="edge1" class="edge"><title>Node1&#45;&gt;Node2</title>
<path fill="none" stroke="midnightblue" d="M129.1,-91.4696C137.548,-91.4696 146.273,-91.4696 154.892,-91.4696"/>
<polygon fill="midnightblue" stroke="midnightblue" points="154.939,-94.9697 164.939,-91.4696 154.939,-87.9697 154.939,-94.9697"/>
</g>
<!-- Node3 -->
<g id="node3" class="node"><title>Node3</title>
<g id="a_node3"><a xlink:href="../../d6/d7e/class_t_m_c2208_stepper.html#a2fae2050849c3ab7968012def8ea1cc5" target="_top" xlink:title=" ">
<polygon fill="white" stroke="black" points="333,-81.9696 333,-100.97 449,-100.97 449,-81.9696 333,-81.9696"/>
<text text-anchor="middle" x="391" y="-88.9696" font-family="Helvetica,sans-Serif" font-size="10.00">TMC2208Stepper::read</text>
</a>
</g>
</g>
<!-- Node2&#45;&gt;Node3 -->
<g id="edge2" class="edge"><title>Node2&#45;&gt;Node3</title>
<path fill="none" stroke="midnightblue" d="M297.177,-91.4696C305.517,-91.4696 314.069,-91.4696 322.445,-91.4696"/>
<polygon fill="midnightblue" stroke="midnightblue" points="322.55,-94.9697 332.55,-91.4696 322.55,-87.9697 322.55,-94.9697"/>
</g>
<!-- Node4 -->
<g id="node4" class="node"><title>Node4</title>
<g id="a_node4"><a xlink:href="../../d6/d7e/class_t_m_c2208_stepper.html#a321ad81155b7a20c0858920d32d0b074" target="_top" xlink:title=" ">
<polygon fill="white" stroke="black" points="494,-157.97 494,-176.97 660,-176.97 660,-157.97 494,-157.97"/>
<text text-anchor="middle" x="577" y="-164.97" font-family="Helvetica,sans-Serif" font-size="10.00">TMC2208Stepper::_sendDatagram</text>
</a>
</g>
</g>
<!-- Node3&#45;&gt;Node4 -->
<g id="edge3" class="edge"><title>Node3&#45;&gt;Node4</title>
<path fill="none" stroke="midnightblue" d="M404.494,-101.088C421.681,-113.843 454.022,-136.174 485,-148.47 491.6,-151.089 498.62,-153.37 505.72,-155.35"/>
<polygon fill="midnightblue" stroke="midnightblue" points="504.861,-158.743 515.42,-157.869 506.62,-151.968 504.861,-158.743"/>
</g>
<!-- Node10 -->
<g id="node10" class="node"><title>Node10</title>
<g id="a_node10"><a xlink:href="../../d6/d7e/class_t_m_c2208_stepper.html#a409c19fa6b052a370a317d061bf9af4e" target="_top" xlink:title=" ">
<polygon fill="white" stroke="black" points="509,-119.97 509,-138.97 645,-138.97 645,-119.97 509,-119.97"/>
<text text-anchor="middle" x="577" y="-126.97" font-family="Helvetica,sans-Serif" font-size="10.00">TMC2208Stepper::calcCRC</text>
</a>
</g>
</g>
<!-- Node3&#45;&gt;Node10 -->
<g id="edge10" class="edge"><title>Node3&#45;&gt;Node10</title>
<path fill="none" stroke="midnightblue" d="M438.431,-101.059C463.149,-106.163 493.739,-112.481 519.792,-117.861"/>
<polygon fill="midnightblue" stroke="midnightblue" points="519.402,-121.355 529.903,-119.95 520.817,-114.499 519.402,-121.355"/>
</g>
<!-- Node11 -->
<g id="node11" class="node"><title>Node11</title>
<g id="a_node11"><a xlink:href="../../d6/d7e/class_t_m_c2208_stepper.html#a673ade174158b47e3b345b1d7b3c473d" target="_top" xlink:title=" ">
<polygon fill="white" stroke="black" points="485,-81.9696 485,-100.97 669,-100.97 669,-81.9696 485,-81.9696"/>
<text text-anchor="middle" x="577" y="-88.9696" font-family="Helvetica,sans-Serif" font-size="10.00">TMC2208Stepper::postCommunication</text>
</a>
</g>
</g>
<!-- Node3&#45;&gt;Node11 -->
<g id="edge11" class="edge"><title>Node3&#45;&gt;Node11</title>
<path fill="none" stroke="midnightblue" d="M449.21,-91.4696C457.323,-91.4696 465.86,-91.4696 474.51,-91.4696"/>
<polygon fill="midnightblue" stroke="midnightblue" points="474.697,-94.9697 484.697,-91.4696 474.697,-87.9697 474.697,-94.9697"/>
</g>
<!-- Node12 -->
<g id="node12" class="node"><title>Node12</title>
<g id="a_node12"><a xlink:href="../../d6/d7e/class_t_m_c2208_stepper.html#a0ba01db6c4c01da7cb0ace8a524ab1da" target="_top" xlink:title=" ">
<polygon fill="white" stroke="black" points="487.5,-43.9696 487.5,-62.9696 666.5,-62.9696 666.5,-43.9696 487.5,-43.9696"/>
<text text-anchor="middle" x="577" y="-50.9696" font-family="Helvetica,sans-Serif" font-size="10.00">TMC2208Stepper::preCommunication</text>
</a>
</g>
</g>
<!-- Node3&#45;&gt;Node12 -->
<g id="edge12" class="edge"><title>Node3&#45;&gt;Node12</title>
<path fill="none" stroke="midnightblue" d="M438.431,-81.8806C463.149,-76.7758 493.739,-70.4583 519.792,-65.0778"/>
<polygon fill="midnightblue" stroke="midnightblue" points="520.817,-68.44 529.903,-62.9897 519.402,-61.5846 520.817,-68.44"/>
</g>
<!-- Node5 -->
<g id="node5" class="node"><title>Node5</title>
<g id="a_node5"><a xlink:href="../../d6/d7e/class_t_m_c2208_stepper.html#a7a670b15f45466f8d167a9b80fbf384f" target="_top" xlink:title=" ">
<polygon fill="white" stroke="black" points="710.5,-207.97 710.5,-226.97 844.5,-226.97 844.5,-207.97 710.5,-207.97"/>
<text text-anchor="middle" x="777.5" y="-214.97" font-family="Helvetica,sans-Serif" font-size="10.00">TMC2208Stepper::available</text>
</a>
</g>
</g>
<!-- Node4&#45;&gt;Node5 -->
<g id="edge4" class="edge"><title>Node4&#45;&gt;Node5</title>
<path fill="none" stroke="midnightblue" d="M615.804,-176.992C647.849,-185.064 693.983,-196.684 728.607,-205.406"/>
<polygon fill="midnightblue" stroke="midnightblue" points="727.948,-208.849 738.5,-207.898 729.657,-202.061 727.948,-208.849"/>
</g>
<!-- Node6 -->
<g id="node6" class="node"><title>Node6</title>
<g id="a_node6"><a xlink:href="../../d6/d7e/class_t_m_c2208_stepper.html#a4ec5d2b2f5a31259c7aba1f3208d63b8" target="_top" xlink:title=" ">
<polygon fill="white" stroke="black" points="719.5,-169.97 719.5,-188.97 835.5,-188.97 835.5,-169.97 719.5,-169.97"/>
<text text-anchor="middle" x="777.5" y="-176.97" font-family="Helvetica,sans-Serif" font-size="10.00">TMC2208Stepper::ms2</text>
</a>
</g>
</g>
<!-- Node4&#45;&gt;Node6 -->
<g id="edge5" class="edge"><title>Node4&#45;&gt;Node6</title>
<path fill="none" stroke="midnightblue" d="M660.17,-172.437C676.532,-173.426 693.531,-174.454 709.318,-175.408"/>
<polygon fill="midnightblue" stroke="midnightblue" points="709.305,-178.914 719.498,-176.024 709.727,-171.927 709.305,-178.914"/>
</g>
<!-- Node8 -->
<g id="node8" class="node"><title>Node8</title>
<g id="a_node8"><a xlink:href="../../d6/d7e/class_t_m_c2208_stepper.html#a129ceb04c3ea18e2c4ec1a59a51ece85" target="_top" xlink:title=" ">
<polygon fill="white" stroke="black" points="705,-131.97 705,-150.97 850,-150.97 850,-131.97 705,-131.97"/>
<text text-anchor="middle" x="777.5" y="-138.97" font-family="Helvetica,sans-Serif" font-size="10.00">TMC2208Stepper::serial_read</text>
</a>
</g>
</g>
<!-- Node4&#45;&gt;Node8 -->
<g id="edge8" class="edge"><title>Node4&#45;&gt;Node8</title>
<path fill="none" stroke="midnightblue" d="M650.787,-157.936C665.081,-156.064 680.166,-154.088 694.731,-152.18"/>
<polygon fill="midnightblue" stroke="midnightblue" points="695.256,-155.641 704.716,-150.872 694.346,-148.7 695.256,-155.641"/>
</g>
<!-- Node9 -->
<g id="node9" class="node"><title>Node9</title>
<g id="a_node9"><a xlink:href="../../d6/d7e/class_t_m_c2208_stepper.html#aa7f2c1a3a1cda9a328c186c6d7cbfe41" target="_top" xlink:title=" ">
<polygon fill="white" stroke="black" points="717,-82.4696 717,-112.47 838,-112.47 838,-82.4696 717,-82.4696"/>
<text text-anchor="start" x="725" y="-100.47" font-family="Helvetica,sans-Serif" font-size="10.00">TMC2208Stepper::serial</text>
<text text-anchor="middle" x="777.5" y="-89.4696" font-family="Helvetica,sans-Serif" font-size="10.00">_write</text>
</a>
</g>
</g>
<!-- Node4&#45;&gt;Node9 -->
<g id="edge9" class="edge"><title>Node4&#45;&gt;Node9</title>
<path fill="none" stroke="midnightblue" d="M641.251,-157.863C650.759,-155.397 660.289,-152.315 669,-148.47 687.056,-140.5 687.502,-131.6 705,-122.47 709.044,-120.36 713.305,-118.362 717.65,-116.486"/>
<polygon fill="midnightblue" stroke="midnightblue" points="719.304,-119.591 727.243,-112.575 716.662,-113.109 719.304,-119.591"/>
</g>
<!-- Node7 -->
<g id="node7" class="node"><title>Node7</title>
<g id="a_node7"><a xlink:href="../../d6/d7e/class_t_m_c2208_stepper.html#a5441dd87d0bcea4ffc309cb012166a57" target="_top" xlink:title=" ">
<polygon fill="white" stroke="black" points="886,-87.9696 886,-106.97 1002,-106.97 1002,-87.9696 886,-87.9696"/>
<text text-anchor="middle" x="944" y="-94.9696" font-family="Helvetica,sans-Serif" font-size="10.00">TMC2208Stepper::IOIN</text>
</a>
</g>
</g>
<!-- Node6&#45;&gt;Node7 -->
<g id="edge6" class="edge"><title>Node6&#45;&gt;Node7</title>
<path fill="none" stroke="midnightblue" d="M823.551,-169.968C832.507,-167.396 841.702,-164.251 850,-160.47 877.451,-147.961 905.683,-127.566 923.73,-113.383"/>
<polygon fill="midnightblue" stroke="midnightblue" points="926.106,-115.965 931.723,-106.982 921.73,-110.501 926.106,-115.965"/>
</g>
<!-- Node7&#45;&gt;Node3 -->
<g id="edge7" class="edge"><title>Node7&#45;&gt;Node3</title>
<path fill="none" stroke="midnightblue" d="M933.209,-87.8203C917.34,-72.9361 884.305,-44.9951 850,-34.4696 694.914,13.1145 641.13,9.56986 485,-34.4696 456.807,-42.4221 428.729,-61.5756 410.921,-75.4902"/>
<polygon fill="midnightblue" stroke="midnightblue" points="408.643,-72.8308 403.049,-81.8281 413.033,-78.2834 408.643,-72.8308"/>
</g>
<!-- Node13 -->
<g id="node13" class="node"><title>Node13</title>
<g id="a_node13"><a xlink:href="../../d9/d98/class_s_switch.html#a6ff09d0850d551571dc333fb74ff8628" target="_top" xlink:title=" ">
<polygon fill="white" stroke="black" points="736,-43.9696 736,-62.9696 819,-62.9696 819,-43.9696 736,-43.9696"/>
<text text-anchor="middle" x="777.5" y="-50.9696" font-family="Helvetica,sans-Serif" font-size="10.00">SSwitch::active</text>
</a>
</g>
</g>
<!-- Node12&#45;&gt;Node13 -->
<g id="edge13" class="edge"><title>Node12&#45;&gt;Node13</title>
<path fill="none" stroke="midnightblue" d="M666.51,-53.4696C686.828,-53.4696 707.753,-53.4696 725.826,-53.4696"/>
<polygon fill="midnightblue" stroke="midnightblue" points="725.83,-56.9697 735.83,-53.4696 725.83,-49.9697 725.83,-56.9697"/>
</g>
</g>
</svg>
