<?xml version="1.0" encoding="UTF-8" standalone="no"?>
<!DOCTYPE svg PUBLIC "-//W3C//DTD SVG 1.1//EN"
 "http://www.w3.org/Graphics/SVG/1.1/DTD/svg11.dtd">
<!-- Generated by graphviz version 2.38.0 (20140413.2041)
 -->
<!-- Title: TMC2208Stepper::pdn_disable Pages: 1 -->
<svg width="1143pt" height="235pt"
 viewBox="0.00 0.00 1143.00 235.47" xmlns="http://www.w3.org/2000/svg" xmlns:xlink="http://www.w3.org/1999/xlink">
<g id="graph0" class="graph" transform="scale(1 1) rotate(0) translate(4 231.47)">
<title>TMC2208Stepper::pdn_disable</title>
<polygon fill="white" stroke="none" points="-4,4 -4,-231.47 1139,-231.47 1139,4 -4,4"/>
<!-- Node1 -->
<g id="node1" class="node"><title>Node1</title>
<g id="a_node1"><a xlink:title=" ">
<polygon fill="#bfbfbf" stroke="black" points="0,-76.4696 0,-106.47 113,-106.47 113,-76.4696 0,-76.4696"/>
<text text-anchor="start" x="8" y="-94.4696" font-family="Helvetica,sans-Serif" font-size="10.00">TMC2208Stepper::pdn</text>
<text text-anchor="middle" x="56.5" y="-83.4696" font-family="Helvetica,sans-Serif" font-size="10.00">_disable</text>
</a>
</g>
</g>
<!-- Node2 -->
<g id="node2" class="node"><title>Node2</title>
<g id="a_node2"><a xlink:href="../../d6/d7e/class_t_m_c2208_stepper.html#a9de4a150926f2875903be27063f00973" target="_top" xlink:title=" ">
<polygon fill="white" stroke="black" points="149,-76.4696 149,-106.47 262,-106.47 262,-76.4696 149,-76.4696"/>
<text text-anchor="start" x="157" y="-94.4696" font-family="Helvetica,sans-Serif" font-size="10.00">TMC2208Stepper::pdn</text>
<text text-anchor="middle" x="205.5" y="-83.4696" font-family="Helvetica,sans-Serif" font-size="10.00">_disable</text>
</a>
</g>
</g>
<!-- Node1&#45;&gt;Node2 -->
<g id="edge1" class="edge"><title>Node1&#45;&gt;Node2</title>
<path fill="none" stroke="midnightblue" d="M113.074,-91.4696C121.489,-91.4696 130.238,-91.4696 138.842,-91.4696"/>
<polygon fill="midnightblue" stroke="midnightblue" points="138.847,-94.9697 148.847,-91.4696 138.847,-87.9697 138.847,-94.9697"/>
</g>
<!-- Node3 -->
<g id="node3" class="node"><title>Node3</title>
<g id="a_node3"><a xlink:href="../../d6/d7e/class_t_m_c2208_stepper.html#a549db4f962d4ae698dda33ef9a708e33" target="_top" xlink:title=" ">
<polygon fill="white" stroke="black" points="298,-81.9696 298,-100.97 430,-100.97 430,-81.9696 298,-81.9696"/>
<text text-anchor="middle" x="364" y="-88.9696" font-family="Helvetica,sans-Serif" font-size="10.00">TMC2208Stepper::GCONF</text>
</a>
</g>
</g>
<!-- Node2&#45;&gt;Node3 -->
<g id="edge2" class="edge"><title>Node2&#45;&gt;Node3</title>
<path fill="none" stroke="midnightblue" d="M262.117,-91.4696C270.452,-91.4696 279.162,-91.4696 287.822,-91.4696"/>
<polygon fill="midnightblue" stroke="midnightblue" points="287.94,-94.9697 297.94,-91.4696 287.94,-87.9697 287.94,-94.9697"/>
</g>
<!-- Node4 -->
<g id="node4" class="node"><title>Node4</title>
<g id="a_node4"><a xlink:href="../../d6/d7e/class_t_m_c2208_stepper.html#a2fae2050849c3ab7968012def8ea1cc5" target="_top" xlink:title=" ">
<polygon fill="white" stroke="black" points="466,-81.9696 466,-100.97 582,-100.97 582,-81.9696 466,-81.9696"/>
<text text-anchor="middle" x="524" y="-88.9696" font-family="Helvetica,sans-Serif" font-size="10.00">TMC2208Stepper::read</text>
</a>
</g>
</g>
<!-- Node3&#45;&gt;Node4 -->
<g id="edge3" class="edge"><title>Node3&#45;&gt;Node4</title>
<path fill="none" stroke="midnightblue" d="M430.177,-91.4696C438.517,-91.4696 447.069,-91.4696 455.445,-91.4696"/>
<polygon fill="midnightblue" stroke="midnightblue" points="455.55,-94.9697 465.55,-91.4696 455.55,-87.9697 455.55,-94.9697"/>
</g>
<!-- Node5 -->
<g id="node5" class="node"><title>Node5</title>
<g id="a_node5"><a xlink:href="../../d6/d7e/class_t_m_c2208_stepper.html#a321ad81155b7a20c0858920d32d0b074" target="_top" xlink:title=" ">
<polygon fill="white" stroke="black" points="627,-157.97 627,-176.97 793,-176.97 793,-157.97 627,-157.97"/>
<text text-anchor="middle" x="710" y="-164.97" font-family="Helvetica,sans-Serif" font-size="10.00">TMC2208Stepper::_sendDatagram</text>
</a>
</g>
</g>
<!-- Node4&#45;&gt;Node5 -->
<g id="edge4" class="edge"><title>Node4&#45;&gt;Node5</title>
<path fill="none" stroke="midnightblue" d="M537.494,-101.088C554.681,-113.843 587.022,-136.174 618,-148.47 624.6,-151.089 631.62,-153.37 638.72,-155.35"/>
<polygon fill="midnightblue" stroke="midnightblue" points="637.861,-158.743 648.42,-157.869 639.62,-151.968 637.861,-158.743"/>
</g>
<!-- Node11 -->
<g id="node11" class="node"><title>Node11</title>
<g id="a_node11"><a xlink:href="../../d6/d7e/class_t_m_c2208_stepper.html#a409c19fa6b052a370a317d061bf9af4e" target="_top" xlink:title=" ">
<polygon fill="white" stroke="black" points="642,-119.97 642,-138.97 778,-138.97 778,-119.97 642,-119.97"/>
<text text-anchor="middle" x="710" y="-126.97" font-family="Helvetica,sans-Serif" font-size="10.00">TMC2208Stepper::calcCRC</text>
</a>
</g>
</g>
<!-- Node4&#45;&gt;Node11 -->
<g id="edge11" class="edge"><title>Node4&#45;&gt;Node11</title>
<path fill="none" stroke="midnightblue" d="M571.431,-101.059C596.149,-106.163 626.739,-112.481 652.792,-117.861"/>
<polygon fill="midnightblue" stroke="midnightblue" points="652.402,-121.355 662.903,-119.95 653.817,-114.499 652.402,-121.355"/>
</g>
<!-- Node12 -->
<g id="node12" class="node"><title>Node12</title>
<g id="a_node12"><a xlink:href="../../d6/d7e/class_t_m_c2208_stepper.html#a673ade174158b47e3b345b1d7b3c473d" target="_top" xlink:title=" ">
<polygon fill="white" stroke="black" points="618,-81.9696 618,-100.97 802,-100.97 802,-81.9696 618,-81.9696"/>
<text text-anchor="middle" x="710" y="-88.9696" font-family="Helvetica,sans-Serif" font-size="10.00">TMC2208Stepper::postCommunication</text>
</a>
</g>
</g>
<!-- Node4&#45;&gt;Node12 -->
<g id="edge12" class="edge"><title>Node4&#45;&gt;Node12</title>
<path fill="none" stroke="midnightblue" d="M582.21,-91.4696C590.323,-91.4696 598.86,-91.4696 607.51,-91.4696"/>
<polygon fill="midnightblue" stroke="midnightblue" points="607.697,-94.9697 617.697,-91.4696 607.697,-87.9697 607.697,-94.9697"/>
</g>
<!-- Node13 -->
<g id="node13" class="node"><title>Node13</title>
<g id="a_node13"><a xlink:href="../../d6/d7e/class_t_m_c2208_stepper.html#a0ba01db6c4c01da7cb0ace8a524ab1da" target="_top" xlink:title=" ">
<polygon fill="white" stroke="black" points="620.5,-43.9696 620.5,-62.9696 799.5,-62.9696 799.5,-43.9696 620.5,-43.9696"/>
<text text-anchor="middle" x="710" y="-50.9696" font-family="Helvetica,sans-Serif" font-size="10.00">TMC2208Stepper::preCommunication</text>
</a>
</g>
</g>
<!-- Node4&#45;&gt;Node13 -->
<g id="edge13" class="edge"><title>Node4&#45;&gt;Node13</title>
<path fill="none" stroke="midnightblue" d="M571.431,-81.8806C596.149,-76.7758 626.739,-70.4583 652.792,-65.0778"/>
<polygon fill="midnightblue" stroke="midnightblue" points="653.817,-68.44 662.903,-62.9897 652.402,-61.5846 653.817,-68.44"/>
</g>
<!-- Node6 -->
<g id="node6" class="node"><title>Node6</title>
<g id="a_node6"><a xlink:href="../../d6/d7e/class_t_m_c2208_stepper.html#a7a670b15f45466f8d167a9b80fbf384f" target="_top" xlink:title=" ">
<polygon fill="white" stroke="black" points="843.5,-207.97 843.5,-226.97 977.5,-226.97 977.5,-207.97 843.5,-207.97"/>
<text text-anchor="middle" x="910.5" y="-214.97" font-family="Helvetica,sans-Serif" font-size="10.00">TMC2208Stepper::available</text>
</a>
</g>
</g>
<!-- Node5&#45;&gt;Node6 -->
<g id="edge5" class="edge"><title>Node5&#45;&gt;Node6</title>
<path fill="none" stroke="midnightblue" d="M748.804,-176.992C780.849,-185.064 826.983,-196.684 861.607,-205.406"/>
<polygon fill="midnightblue" stroke="midnightblue" points="860.948,-208.849 871.5,-207.898 862.657,-202.061 860.948,-208.849"/>
</g>
<!-- Node7 -->
<g id="node7" class="node"><title>Node7</title>
<g id="a_node7"><a xlink:href="../../d6/d7e/class_t_m_c2208_stepper.html#a4ec5d2b2f5a31259c7aba1f3208d63b8" target="_top" xlink:title=" ">
<polygon fill="white" stroke="black" points="852.5,-169.97 852.5,-188.97 968.5,-188.97 968.5,-169.97 852.5,-169.97"/>
<text text-anchor="middle" x="910.5" y="-176.97" font-family="Helvetica,sans-Serif" font-size="10.00">TMC2208Stepper::ms2</text>
</a>
</g>
</g>
<!-- Node5&#45;&gt;Node7 -->
<g id="edge6" class="edge"><title>Node5&#45;&gt;Node7</title>
<path fill="none" stroke="midnightblue" d="M793.17,-172.437C809.532,-173.426 826.531,-174.454 842.318,-175.408"/>
<polygon fill="midnightblue" stroke="midnightblue" points="842.305,-178.914 852.498,-176.024 842.727,-171.927 842.305,-178.914"/>
</g>
<!-- Node9 -->
<g id="node9" class="node"><title>Node9</title>
<g id="a_node9"><a xlink:href="../../d6/d7e/class_t_m_c2208_stepper.html#a129ceb04c3ea18e2c4ec1a59a51ece85" target="_top" xlink:title=" ">
<polygon fill="white" stroke="black" points="838,-131.97 838,-150.97 983,-150.97 983,-131.97 838,-131.97"/>
<text text-anchor="middle" x="910.5" y="-138.97" font-family="Helvetica,sans-Serif" font-size="10.00">TMC2208Stepper::serial_read</text>
</a>
</g>
</g>
<!-- Node5&#45;&gt;Node9 -->
<g id="edge9" class="edge"><title>Node5&#45;&gt;Node9</title>
<path fill="none" stroke="midnightblue" d="M783.787,-157.936C798.081,-156.064 813.166,-154.088 827.731,-152.18"/>
<polygon fill="midnightblue" stroke="midnightblue" points="828.256,-155.641 837.716,-150.872 827.346,-148.7 828.256,-155.641"/>
</g>
<!-- Node10 -->
<g id="node10" class="node"><title>Node10</title>
<g id="a_node10"><a xlink:href="../../d6/d7e/class_t_m_c2208_stepper.html#aa7f2c1a3a1cda9a328c186c6d7cbfe41" target="_top" xlink:title=" ">
<polygon fill="white" stroke="black" points="850,-82.4696 850,-112.47 971,-112.47 971,-82.4696 850,-82.4696"/>
<text text-anchor="start" x="858" y="-100.47" font-family="Helvetica,sans-Serif" font-size="10.00">TMC2208Stepper::serial</text>
<text text-anchor="middle" x="910.5" y="-89.4696" font-family="Helvetica,sans-Serif" font-size="10.00">_write</text>
</a>
</g>
</g>
<!-- Node5&#45;&gt;Node10 -->
<g id="edge10" class="edge"><title>Node5&#45;&gt;Node10</title>
<path fill="none" stroke="midnightblue" d="M774.251,-157.863C783.759,-155.397 793.289,-152.315 802,-148.47 820.056,-140.5 820.502,-131.6 838,-122.47 842.044,-120.36 846.305,-118.362 850.65,-116.486"/>
<polygon fill="midnightblue" stroke="midnightblue" points="852.304,-119.591 860.243,-112.575 849.662,-113.109 852.304,-119.591"/>
</g>
<!-- Node8 -->
<g id="node8" class="node"><title>Node8</title>
<g id="a_node8"><a xlink:href="../../d6/d7e/class_t_m_c2208_stepper.html#a5441dd87d0bcea4ffc309cb012166a57" target="_top" xlink:title=" ">
<polygon fill="white" stroke="black" points="1019,-87.9696 1019,-106.97 1135,-106.97 1135,-87.9696 1019,-87.9696"/>
<text text-anchor="middle" x="1077" y="-94.9696" font-family="Helvetica,sans-Serif" font-size="10.00">TMC2208Stepper::IOIN</text>
</a>
</g>
</g>
<!-- Node7&#45;&gt;Node8 -->
<g id="edge7" class="edge"><title>Node7&#45;&gt;Node8</title>
<path fill="none" stroke="midnightblue" d="M956.551,-169.968C965.507,-167.396 974.702,-164.251 983,-160.47 1010.45,-147.961 1038.68,-127.566 1056.73,-113.383"/>
<polygon fill="midnightblue" stroke="midnightblue" points="1059.11,-115.965 1064.72,-106.982 1054.73,-110.501 1059.11,-115.965"/>
</g>
<!-- Node8&#45;&gt;Node4 -->
<g id="edge8" class="edge"><title>Node8&#45;&gt;Node4</title>
<path fill="none" stroke="midnightblue" d="M1066.21,-87.8203C1050.34,-72.9361 1017.3,-44.9951 983,-34.4696 827.914,13.1145 774.13,9.56986 618,-34.4696 589.807,-42.4221 561.729,-61.5756 543.921,-75.4902"/>
<polygon fill="midnightblue" stroke="midnightblue" points="541.643,-72.8308 536.049,-81.8281 546.033,-78.2834 541.643,-72.8308"/>
</g>
<!-- Node14 -->
<g id="node14" class="node"><title>Node14</title>
<g id="a_node14"><a xlink:href="../../d9/d98/class_s_switch.html#a6ff09d0850d551571dc333fb74ff8628" target="_top" xlink:title=" ">
<polygon fill="white" stroke="black" points="869,-43.9696 869,-62.9696 952,-62.9696 952,-43.9696 869,-43.9696"/>
<text text-anchor="middle" x="910.5" y="-50.9696" font-family="Helvetica,sans-Serif" font-size="10.00">SSwitch::active</text>
</a>
</g>
</g>
<!-- Node13&#45;&gt;Node14 -->
<g id="edge14" class="edge"><title>Node13&#45;&gt;Node14</title>
<path fill="none" stroke="midnightblue" d="M799.51,-53.4696C819.828,-53.4696 840.753,-53.4696 858.826,-53.4696"/>
<polygon fill="midnightblue" stroke="midnightblue" points="858.83,-56.9697 868.83,-53.4696 858.83,-49.9697 858.83,-56.9697"/>
</g>
</g>
</svg>
