<?xml version="1.0" encoding="UTF-8" standalone="no"?>
<!DOCTYPE svg PUBLIC "-//W3C//DTD SVG 1.1//EN"
 "http://www.w3.org/Graphics/SVG/1.1/DTD/svg11.dtd">
<!-- Generated by graphviz version 2.38.0 (20140413.2041)
 -->
<!-- Title: TMC2208Stepper::write Pages: 1 -->
<svg width="465pt" height="154pt"
 viewBox="0.00 0.00 465.00 153.50" xmlns="http://www.w3.org/2000/svg" xmlns:xlink="http://www.w3.org/1999/xlink">
<g id="graph0" class="graph" transform="scale(1 1) rotate(0) translate(4 149.5)">
<title>TMC2208Stepper::write</title>
<polygon fill="white" stroke="none" points="-4,4 -4,-149.5 461,-149.5 461,4 -4,4"/>
<!-- Node1 -->
<g id="node1" class="node"><title>Node1</title>
<g id="a_node1"><a xlink:title=" ">
<polygon fill="#bfbfbf" stroke="black" points="0,-69 0,-88 118,-88 118,-69 0,-69"/>
<text text-anchor="middle" x="59" y="-76" font-family="Helvetica,sans-Serif" font-size="10.00">TMC2208Stepper::write</text>
</a>
</g>
</g>
<!-- Node2 -->
<g id="node2" class="node"><title>Node2</title>
<g id="a_node2"><a xlink:href="../../d6/d7e/class_t_m_c2208_stepper.html#a409c19fa6b052a370a317d061bf9af4e" target="_top" xlink:title=" ">
<polygon fill="white" stroke="black" points="178,-126 178,-145 314,-145 314,-126 178,-126"/>
<text text-anchor="middle" x="246" y="-133" font-family="Helvetica,sans-Serif" font-size="10.00">TMC2208Stepper::calcCRC</text>
</a>
</g>
</g>
<!-- Node1&#45;&gt;Node2 -->
<g id="edge1" class="edge"><title>Node1&#45;&gt;Node2</title>
<path fill="none" stroke="midnightblue" d="M80.524,-88.037C99.3151,-96.4682 128.063,-108.619 154,-116.5 162.732,-119.153 172.046,-121.562 181.26,-123.703"/>
<polygon fill="midnightblue" stroke="midnightblue" points="180.663,-127.156 191.186,-125.922 182.19,-120.325 180.663,-127.156"/>
</g>
<!-- Node3 -->
<g id="node3" class="node"><title>Node3</title>
<g id="a_node3"><a xlink:href="../../d6/d7e/class_t_m_c2208_stepper.html#a673ade174158b47e3b345b1d7b3c473d" target="_top" xlink:title=" ">
<polygon fill="white" stroke="black" points="154,-88 154,-107 338,-107 338,-88 154,-88"/>
<text text-anchor="middle" x="246" y="-95" font-family="Helvetica,sans-Serif" font-size="10.00">TMC2208Stepper::postCommunication</text>
</a>
</g>
</g>
<!-- Node1&#45;&gt;Node3 -->
<g id="edge2" class="edge"><title>Node1&#45;&gt;Node3</title>
<path fill="none" stroke="midnightblue" d="M118.028,-84.4596C126.343,-85.3136 135.091,-86.2121 143.945,-87.1214"/>
<polygon fill="midnightblue" stroke="midnightblue" points="143.664,-90.6108 153.969,-88.1509 144.379,-83.6475 143.664,-90.6108"/>
</g>
<!-- Node4 -->
<g id="node4" class="node"><title>Node4</title>
<g id="a_node4"><a xlink:href="../../d6/d7e/class_t_m_c2208_stepper.html#a0ba01db6c4c01da7cb0ace8a524ab1da" target="_top" xlink:title=" ">
<polygon fill="white" stroke="black" points="156.5,-50 156.5,-69 335.5,-69 335.5,-50 156.5,-50"/>
<text text-anchor="middle" x="246" y="-57" font-family="Helvetica,sans-Serif" font-size="10.00">TMC2208Stepper::preCommunication</text>
</a>
</g>
</g>
<!-- Node1&#45;&gt;Node4 -->
<g id="edge3" class="edge"><title>Node1&#45;&gt;Node4</title>
<path fill="none" stroke="midnightblue" d="M118.028,-72.5404C127.072,-71.6115 136.629,-70.63 146.277,-69.6391"/>
<polygon fill="midnightblue" stroke="midnightblue" points="146.757,-73.1083 156.347,-68.6049 146.042,-66.145 146.757,-73.1083"/>
</g>
<!-- Node6 -->
<g id="node6" class="node"><title>Node6</title>
<g id="a_node6"><a xlink:href="../../d6/d7e/class_t_m_c2208_stepper.html#aa7f2c1a3a1cda9a328c186c6d7cbfe41" target="_top" xlink:title=" ">
<polygon fill="white" stroke="black" points="185.5,-0.5 185.5,-30.5 306.5,-30.5 306.5,-0.5 185.5,-0.5"/>
<text text-anchor="start" x="193.5" y="-18.5" font-family="Helvetica,sans-Serif" font-size="10.00">TMC2208Stepper::serial</text>
<text text-anchor="middle" x="246" y="-7.5" font-family="Helvetica,sans-Serif" font-size="10.00">_write</text>
</a>
</g>
</g>
<!-- Node1&#45;&gt;Node6 -->
<g id="edge5" class="edge"><title>Node1&#45;&gt;Node6</title>
<path fill="none" stroke="midnightblue" d="M81.7611,-68.8638C100.642,-60.7065 128.821,-49.0159 154,-40.5 161.312,-38.0271 169.014,-35.6178 176.715,-33.3323"/>
<polygon fill="midnightblue" stroke="midnightblue" points="177.813,-36.6581 186.44,-30.5082 175.861,-29.9358 177.813,-36.6581"/>
</g>
<!-- Node5 -->
<g id="node5" class="node"><title>Node5</title>
<g id="a_node5"><a xlink:href="../../d9/d98/class_s_switch.html#a6ff09d0850d551571dc333fb74ff8628" target="_top" xlink:title=" ">
<polygon fill="white" stroke="black" points="374,-50 374,-69 457,-69 457,-50 374,-50"/>
<text text-anchor="middle" x="415.5" y="-57" font-family="Helvetica,sans-Serif" font-size="10.00">SSwitch::active</text>
</a>
</g>
</g>
<!-- Node4&#45;&gt;Node5 -->
<g id="edge4" class="edge"><title>Node4&#45;&gt;Node5</title>
<path fill="none" stroke="midnightblue" d="M335.655,-59.5C345.243,-59.5 354.745,-59.5 363.657,-59.5"/>
<polygon fill="midnightblue" stroke="midnightblue" points="363.816,-63.0001 373.816,-59.5 363.816,-56.0001 363.816,-63.0001"/>
</g>
</g>
</svg>
