<?xml version="1.0" encoding="UTF-8" standalone="no"?>
<!DOCTYPE svg PUBLIC "-//W3C//DTD SVG 1.1//EN"
 "http://www.w3.org/Graphics/SVG/1.1/DTD/svg11.dtd">
<!-- Generated by graphviz version 2.38.0 (20140413.2041)
 -->
<!-- Title: TMC2208Stepper::hend Pages: 1 -->
<svg width="1020pt" height="235pt"
 viewBox="0.00 0.00 1020.00 235.47" xmlns="http://www.w3.org/2000/svg" xmlns:xlink="http://www.w3.org/1999/xlink">
<g id="graph0" class="graph" transform="scale(1 1) rotate(0) translate(4 231.47)">
<title>TMC2208Stepper::hend</title>
<polygon fill="white" stroke="none" points="-4,4 -4,-231.47 1016,-231.47 1016,4 -4,4"/>
<!-- Node1 -->
<g id="node1" class="node"><title>Node1</title>
<g id="a_node1"><a xlink:title=" ">
<polygon fill="#bfbfbf" stroke="black" points="0,-81.9696 0,-100.97 119,-100.97 119,-81.9696 0,-81.9696"/>
<text text-anchor="middle" x="59.5" y="-88.9696" font-family="Helvetica,sans-Serif" font-size="10.00">TMC2208Stepper::hend</text>
</a>
</g>
</g>
<!-- Node2 -->
<g id="node2" class="node"><title>Node2</title>
<g id="a_node2"><a xlink:href="../../d6/d7e/class_t_m_c2208_stepper.html#aa11281f54c293f3ff2539b1a583682a9" target="_top" xlink:title=" ">
<polygon fill="white" stroke="black" points="155,-81.9696 155,-100.97 307,-100.97 307,-81.9696 155,-81.9696"/>
<text text-anchor="middle" x="231" y="-88.9696" font-family="Helvetica,sans-Serif" font-size="10.00">TMC2208Stepper::CHOPCONF</text>
</a>
</g>
</g>
<!-- Node1&#45;&gt;Node2 -->
<g id="edge1" class="edge"><title>Node1&#45;&gt;Node2</title>
<path fill="none" stroke="midnightblue" d="M119.307,-91.4696C127.554,-91.4696 136.164,-91.4696 144.78,-91.4696"/>
<polygon fill="midnightblue" stroke="midnightblue" points="144.876,-94.9697 154.876,-91.4696 144.876,-87.9697 144.876,-94.9697"/>
</g>
<!-- Node3 -->
<g id="node3" class="node"><title>Node3</title>
<g id="a_node3"><a xlink:href="../../d6/d7e/class_t_m_c2208_stepper.html#a2fae2050849c3ab7968012def8ea1cc5" target="_top" xlink:title=" ">
<polygon fill="white" stroke="black" points="343,-81.9696 343,-100.97 459,-100.97 459,-81.9696 343,-81.9696"/>
<text text-anchor="middle" x="401" y="-88.9696" font-family="Helvetica,sans-Serif" font-size="10.00">TMC2208Stepper::read</text>
</a>
</g>
</g>
<!-- Node2&#45;&gt;Node3 -->
<g id="edge2" class="edge"><title>Node2&#45;&gt;Node3</title>
<path fill="none" stroke="midnightblue" d="M307.155,-91.4696C315.664,-91.4696 324.296,-91.4696 332.696,-91.4696"/>
<polygon fill="midnightblue" stroke="midnightblue" points="332.802,-94.9697 342.802,-91.4696 332.802,-87.9697 332.802,-94.9697"/>
</g>
<!-- Node4 -->
<g id="node4" class="node"><title>Node4</title>
<g id="a_node4"><a xlink:href="../../d6/d7e/class_t_m_c2208_stepper.html#a321ad81155b7a20c0858920d32d0b074" target="_top" xlink:title=" ">
<polygon fill="white" stroke="black" points="504,-157.97 504,-176.97 670,-176.97 670,-157.97 504,-157.97"/>
<text text-anchor="middle" x="587" y="-164.97" font-family="Helvetica,sans-Serif" font-size="10.00">TMC2208Stepper::_sendDatagram</text>
</a>
</g>
</g>
<!-- Node3&#45;&gt;Node4 -->
<g id="edge3" class="edge"><title>Node3&#45;&gt;Node4</title>
<path fill="none" stroke="midnightblue" d="M414.494,-101.088C431.681,-113.843 464.022,-136.174 495,-148.47 501.6,-151.089 508.62,-153.37 515.72,-155.35"/>
<polygon fill="midnightblue" stroke="midnightblue" points="514.861,-158.743 525.42,-157.869 516.62,-151.968 514.861,-158.743"/>
</g>
<!-- Node10 -->
<g id="node10" class="node"><title>Node10</title>
<g id="a_node10"><a xlink:href="../../d6/d7e/class_t_m_c2208_stepper.html#a409c19fa6b052a370a317d061bf9af4e" target="_top" xlink:title=" ">
<polygon fill="white" stroke="black" points="519,-119.97 519,-138.97 655,-138.97 655,-119.97 519,-119.97"/>
<text text-anchor="middle" x="587" y="-126.97" font-family="Helvetica,sans-Serif" font-size="10.00">TMC2208Stepper::calcCRC</text>
</a>
</g>
</g>
<!-- Node3&#45;&gt;Node10 -->
<g id="edge10" class="edge"><title>Node3&#45;&gt;Node10</title>
<path fill="none" stroke="midnightblue" d="M448.431,-101.059C473.149,-106.163 503.739,-112.481 529.792,-117.861"/>
<polygon fill="midnightblue" stroke="midnightblue" points="529.402,-121.355 539.903,-119.95 530.817,-114.499 529.402,-121.355"/>
</g>
<!-- Node11 -->
<g id="node11" class="node"><title>Node11</title>
<g id="a_node11"><a xlink:href="../../d6/d7e/class_t_m_c2208_stepper.html#a673ade174158b47e3b345b1d7b3c473d" target="_top" xlink:title=" ">
<polygon fill="white" stroke="black" points="495,-81.9696 495,-100.97 679,-100.97 679,-81.9696 495,-81.9696"/>
<text text-anchor="middle" x="587" y="-88.9696" font-family="Helvetica,sans-Serif" font-size="10.00">TMC2208Stepper::postCommunication</text>
</a>
</g>
</g>
<!-- Node3&#45;&gt;Node11 -->
<g id="edge11" class="edge"><title>Node3&#45;&gt;Node11</title>
<path fill="none" stroke="midnightblue" d="M459.21,-91.4696C467.323,-91.4696 475.86,-91.4696 484.51,-91.4696"/>
<polygon fill="midnightblue" stroke="midnightblue" points="484.697,-94.9697 494.697,-91.4696 484.697,-87.9697 484.697,-94.9697"/>
</g>
<!-- Node12 -->
<g id="node12" class="node"><title>Node12</title>
<g id="a_node12"><a xlink:href="../../d6/d7e/class_t_m_c2208_stepper.html#a0ba01db6c4c01da7cb0ace8a524ab1da" target="_top" xlink:title=" ">
<polygon fill="white" stroke="black" points="497.5,-43.9696 497.5,-62.9696 676.5,-62.9696 676.5,-43.9696 497.5,-43.9696"/>
<text text-anchor="middle" x="587" y="-50.9696" font-family="Helvetica,sans-Serif" font-size="10.00">TMC2208Stepper::preCommunication</text>
</a>
</g>
</g>
<!-- Node3&#45;&gt;Node12 -->
<g id="edge12" class="edge"><title>Node3&#45;&gt;Node12</title>
<path fill="none" stroke="midnightblue" d="M448.431,-81.8806C473.149,-76.7758 503.739,-70.4583 529.792,-65.0778"/>
<polygon fill="midnightblue" stroke="midnightblue" points="530.817,-68.44 539.903,-62.9897 529.402,-61.5846 530.817,-68.44"/>
</g>
<!-- Node5 -->
<g id="node5" class="node"><title>Node5</title>
<g id="a_node5"><a xlink:href="../../d6/d7e/class_t_m_c2208_stepper.html#a7a670b15f45466f8d167a9b80fbf384f" target="_top" xlink:title=" ">
<polygon fill="white" stroke="black" points="720.5,-207.97 720.5,-226.97 854.5,-226.97 854.5,-207.97 720.5,-207.97"/>
<text text-anchor="middle" x="787.5" y="-214.97" font-family="Helvetica,sans-Serif" font-size="10.00">TMC2208Stepper::available</text>
</a>
</g>
</g>
<!-- Node4&#45;&gt;Node5 -->
<g id="edge4" class="edge"><title>Node4&#45;&gt;Node5</title>
<path fill="none" stroke="midnightblue" d="M625.804,-176.992C657.849,-185.064 703.983,-196.684 738.607,-205.406"/>
<polygon fill="midnightblue" stroke="midnightblue" points="737.948,-208.849 748.5,-207.898 739.657,-202.061 737.948,-208.849"/>
</g>
<!-- Node6 -->
<g id="node6" class="node"><title>Node6</title>
<g id="a_node6"><a xlink:href="../../d6/d7e/class_t_m_c2208_stepper.html#a4ec5d2b2f5a31259c7aba1f3208d63b8" target="_top" xlink:title=" ">
<polygon fill="white" stroke="black" points="729.5,-169.97 729.5,-188.97 845.5,-188.97 845.5,-169.97 729.5,-169.97"/>
<text text-anchor="middle" x="787.5" y="-176.97" font-family="Helvetica,sans-Serif" font-size="10.00">TMC2208Stepper::ms2</text>
</a>
</g>
</g>
<!-- Node4&#45;&gt;Node6 -->
<g id="edge5" class="edge"><title>Node4&#45;&gt;Node6</title>
<path fill="none" stroke="midnightblue" d="M670.17,-172.437C686.532,-173.426 703.531,-174.454 719.318,-175.408"/>
<polygon fill="midnightblue" stroke="midnightblue" points="719.305,-178.914 729.498,-176.024 719.727,-171.927 719.305,-178.914"/>
</g>
<!-- Node8 -->
<g id="node8" class="node"><title>Node8</title>
<g id="a_node8"><a xlink:href="../../d6/d7e/class_t_m_c2208_stepper.html#a129ceb04c3ea18e2c4ec1a59a51ece85" target="_top" xlink:title=" ">
<polygon fill="white" stroke="black" points="715,-131.97 715,-150.97 860,-150.97 860,-131.97 715,-131.97"/>
<text text-anchor="middle" x="787.5" y="-138.97" font-family="Helvetica,sans-Serif" font-size="10.00">TMC2208Stepper::serial_read</text>
</a>
</g>
</g>
<!-- Node4&#45;&gt;Node8 -->
<g id="edge8" class="edge"><title>Node4&#45;&gt;Node8</title>
<path fill="none" stroke="midnightblue" d="M660.787,-157.936C675.081,-156.064 690.166,-154.088 704.731,-152.18"/>
<polygon fill="midnightblue" stroke="midnightblue" points="705.256,-155.641 714.716,-150.872 704.346,-148.7 705.256,-155.641"/>
</g>
<!-- Node9 -->
<g id="node9" class="node"><title>Node9</title>
<g id="a_node9"><a xlink:href="../../d6/d7e/class_t_m_c2208_stepper.html#aa7f2c1a3a1cda9a328c186c6d7cbfe41" target="_top" xlink:title=" ">
<polygon fill="white" stroke="black" points="727,-82.4696 727,-112.47 848,-112.47 848,-82.4696 727,-82.4696"/>
<text text-anchor="start" x="735" y="-100.47" font-family="Helvetica,sans-Serif" font-size="10.00">TMC2208Stepper::serial</text>
<text text-anchor="middle" x="787.5" y="-89.4696" font-family="Helvetica,sans-Serif" font-size="10.00">_write</text>
</a>
</g>
</g>
<!-- Node4&#45;&gt;Node9 -->
<g id="edge9" class="edge"><title>Node4&#45;&gt;Node9</title>
<path fill="none" stroke="midnightblue" d="M651.251,-157.863C660.759,-155.397 670.289,-152.315 679,-148.47 697.056,-140.5 697.502,-131.6 715,-122.47 719.044,-120.36 723.305,-118.362 727.65,-116.486"/>
<polygon fill="midnightblue" stroke="midnightblue" points="729.304,-119.591 737.243,-112.575 726.662,-113.109 729.304,-119.591"/>
</g>
<!-- Node7 -->
<g id="node7" class="node"><title>Node7</title>
<g id="a_node7"><a xlink:href="../../d6/d7e/class_t_m_c2208_stepper.html#a5441dd87d0bcea4ffc309cb012166a57" target="_top" xlink:title=" ">
<polygon fill="white" stroke="black" points="896,-87.9696 896,-106.97 1012,-106.97 1012,-87.9696 896,-87.9696"/>
<text text-anchor="middle" x="954" y="-94.9696" font-family="Helvetica,sans-Serif" font-size="10.00">TMC2208Stepper::IOIN</text>
</a>
</g>
</g>
<!-- Node6&#45;&gt;Node7 -->
<g id="edge6" class="edge"><title>Node6&#45;&gt;Node7</title>
<path fill="none" stroke="midnightblue" d="M833.551,-169.968C842.507,-167.396 851.702,-164.251 860,-160.47 887.451,-147.961 915.683,-127.566 933.73,-113.383"/>
<polygon fill="midnightblue" stroke="midnightblue" points="936.106,-115.965 941.723,-106.982 931.73,-110.501 936.106,-115.965"/>
</g>
<!-- Node7&#45;&gt;Node3 -->
<g id="edge7" class="edge"><title>Node7&#45;&gt;Node3</title>
<path fill="none" stroke="midnightblue" d="M943.209,-87.8203C927.34,-72.9361 894.305,-44.9951 860,-34.4696 704.914,13.1145 651.13,9.56986 495,-34.4696 466.807,-42.4221 438.729,-61.5756 420.921,-75.4902"/>
<polygon fill="midnightblue" stroke="midnightblue" points="418.643,-72.8308 413.049,-81.8281 423.033,-78.2834 418.643,-72.8308"/>
</g>
<!-- Node13 -->
<g id="node13" class="node"><title>Node13</title>
<g id="a_node13"><a xlink:href="../../d9/d98/class_s_switch.html#a6ff09d0850d551571dc333fb74ff8628" target="_top" xlink:title=" ">
<polygon fill="white" stroke="black" points="746,-43.9696 746,-62.9696 829,-62.9696 829,-43.9696 746,-43.9696"/>
<text text-anchor="middle" x="787.5" y="-50.9696" font-family="Helvetica,sans-Serif" font-size="10.00">SSwitch::active</text>
</a>
</g>
</g>
<!-- Node12&#45;&gt;Node13 -->
<g id="edge13" class="edge"><title>Node12&#45;&gt;Node13</title>
<path fill="none" stroke="midnightblue" d="M676.51,-53.4696C696.828,-53.4696 717.753,-53.4696 735.826,-53.4696"/>
<polygon fill="midnightblue" stroke="midnightblue" points="735.83,-56.9697 745.83,-53.4696 735.83,-49.9697 735.83,-56.9697"/>
</g>
</g>
</svg>
