<?xml version="1.0" encoding="UTF-8" standalone="no"?>
<!DOCTYPE svg PUBLIC "-//W3C//DTD SVG 1.1//EN"
 "http://www.w3.org/Graphics/SVG/1.1/DTD/svg11.dtd">
<!-- Generated by graphviz version 2.38.0 (20140413.2041)
 -->
<!-- Title: TMC2208Stepper::CHOPCONF Pages: 1 -->
<svg width="865pt" height="235pt"
 viewBox="0.00 0.00 865.00 235.47" xmlns="http://www.w3.org/2000/svg" xmlns:xlink="http://www.w3.org/1999/xlink">
<g id="graph0" class="graph" transform="scale(1 1) rotate(0) translate(4 231.47)">
<title>TMC2208Stepper::CHOPCONF</title>
<polygon fill="white" stroke="none" points="-4,4 -4,-231.47 861,-231.47 861,4 -4,4"/>
<!-- Node1 -->
<g id="node1" class="node"><title>Node1</title>
<g id="a_node1"><a xlink:title=" ">
<polygon fill="#bfbfbf" stroke="black" points="0,-81.9696 0,-100.97 152,-100.97 152,-81.9696 0,-81.9696"/>
<text text-anchor="middle" x="76" y="-88.9696" font-family="Helvetica,sans-Serif" font-size="10.00">TMC2208Stepper::CHOPCONF</text>
</a>
</g>
</g>
<!-- Node2 -->
<g id="node2" class="node"><title>Node2</title>
<g id="a_node2"><a xlink:href="../../d6/d7e/class_t_m_c2208_stepper.html#a2fae2050849c3ab7968012def8ea1cc5" target="_top" xlink:title=" ">
<polygon fill="white" stroke="black" points="188,-81.9696 188,-100.97 304,-100.97 304,-81.9696 188,-81.9696"/>
<text text-anchor="middle" x="246" y="-88.9696" font-family="Helvetica,sans-Serif" font-size="10.00">TMC2208Stepper::read</text>
</a>
</g>
</g>
<!-- Node1&#45;&gt;Node2 -->
<g id="edge1" class="edge"><title>Node1&#45;&gt;Node2</title>
<path fill="none" stroke="midnightblue" d="M152.155,-91.4696C160.664,-91.4696 169.296,-91.4696 177.696,-91.4696"/>
<polygon fill="midnightblue" stroke="midnightblue" points="177.802,-94.9697 187.802,-91.4696 177.802,-87.9697 177.802,-94.9697"/>
</g>
<!-- Node3 -->
<g id="node3" class="node"><title>Node3</title>
<g id="a_node3"><a xlink:href="../../d6/d7e/class_t_m_c2208_stepper.html#a321ad81155b7a20c0858920d32d0b074" target="_top" xlink:title=" ">
<polygon fill="white" stroke="black" points="349,-157.97 349,-176.97 515,-176.97 515,-157.97 349,-157.97"/>
<text text-anchor="middle" x="432" y="-164.97" font-family="Helvetica,sans-Serif" font-size="10.00">TMC2208Stepper::_sendDatagram</text>
</a>
</g>
</g>
<!-- Node2&#45;&gt;Node3 -->
<g id="edge2" class="edge"><title>Node2&#45;&gt;Node3</title>
<path fill="none" stroke="midnightblue" d="M259.494,-101.088C276.681,-113.843 309.022,-136.174 340,-148.47 346.6,-151.089 353.62,-153.37 360.72,-155.35"/>
<polygon fill="midnightblue" stroke="midnightblue" points="359.861,-158.743 370.42,-157.869 361.62,-151.968 359.861,-158.743"/>
</g>
<!-- Node9 -->
<g id="node9" class="node"><title>Node9</title>
<g id="a_node9"><a xlink:href="../../d6/d7e/class_t_m_c2208_stepper.html#a409c19fa6b052a370a317d061bf9af4e" target="_top" xlink:title=" ">
<polygon fill="white" stroke="black" points="364,-119.97 364,-138.97 500,-138.97 500,-119.97 364,-119.97"/>
<text text-anchor="middle" x="432" y="-126.97" font-family="Helvetica,sans-Serif" font-size="10.00">TMC2208Stepper::calcCRC</text>
</a>
</g>
</g>
<!-- Node2&#45;&gt;Node9 -->
<g id="edge9" class="edge"><title>Node2&#45;&gt;Node9</title>
<path fill="none" stroke="midnightblue" d="M293.431,-101.059C318.149,-106.163 348.739,-112.481 374.792,-117.861"/>
<polygon fill="midnightblue" stroke="midnightblue" points="374.402,-121.355 384.903,-119.95 375.817,-114.499 374.402,-121.355"/>
</g>
<!-- Node10 -->
<g id="node10" class="node"><title>Node10</title>
<g id="a_node10"><a xlink:href="../../d6/d7e/class_t_m_c2208_stepper.html#a673ade174158b47e3b345b1d7b3c473d" target="_top" xlink:title=" ">
<polygon fill="white" stroke="black" points="340,-81.9696 340,-100.97 524,-100.97 524,-81.9696 340,-81.9696"/>
<text text-anchor="middle" x="432" y="-88.9696" font-family="Helvetica,sans-Serif" font-size="10.00">TMC2208Stepper::postCommunication</text>
</a>
</g>
</g>
<!-- Node2&#45;&gt;Node10 -->
<g id="edge10" class="edge"><title>Node2&#45;&gt;Node10</title>
<path fill="none" stroke="midnightblue" d="M304.21,-91.4696C312.323,-91.4696 320.86,-91.4696 329.51,-91.4696"/>
<polygon fill="midnightblue" stroke="midnightblue" points="329.697,-94.9697 339.697,-91.4696 329.697,-87.9697 329.697,-94.9697"/>
</g>
<!-- Node11 -->
<g id="node11" class="node"><title>Node11</title>
<g id="a_node11"><a xlink:href="../../d6/d7e/class_t_m_c2208_stepper.html#a0ba01db6c4c01da7cb0ace8a524ab1da" target="_top" xlink:title=" ">
<polygon fill="white" stroke="black" points="342.5,-43.9696 342.5,-62.9696 521.5,-62.9696 521.5,-43.9696 342.5,-43.9696"/>
<text text-anchor="middle" x="432" y="-50.9696" font-family="Helvetica,sans-Serif" font-size="10.00">TMC2208Stepper::preCommunication</text>
</a>
</g>
</g>
<!-- Node2&#45;&gt;Node11 -->
<g id="edge11" class="edge"><title>Node2&#45;&gt;Node11</title>
<path fill="none" stroke="midnightblue" d="M293.431,-81.8806C318.149,-76.7758 348.739,-70.4583 374.792,-65.0778"/>
<polygon fill="midnightblue" stroke="midnightblue" points="375.817,-68.44 384.903,-62.9897 374.402,-61.5846 375.817,-68.44"/>
</g>
<!-- Node4 -->
<g id="node4" class="node"><title>Node4</title>
<g id="a_node4"><a xlink:href="../../d6/d7e/class_t_m_c2208_stepper.html#a7a670b15f45466f8d167a9b80fbf384f" target="_top" xlink:title=" ">
<polygon fill="white" stroke="black" points="565.5,-207.97 565.5,-226.97 699.5,-226.97 699.5,-207.97 565.5,-207.97"/>
<text text-anchor="middle" x="632.5" y="-214.97" font-family="Helvetica,sans-Serif" font-size="10.00">TMC2208Stepper::available</text>
</a>
</g>
</g>
<!-- Node3&#45;&gt;Node4 -->
<g id="edge3" class="edge"><title>Node3&#45;&gt;Node4</title>
<path fill="none" stroke="midnightblue" d="M470.804,-176.992C502.849,-185.064 548.983,-196.684 583.607,-205.406"/>
<polygon fill="midnightblue" stroke="midnightblue" points="582.948,-208.849 593.5,-207.898 584.657,-202.061 582.948,-208.849"/>
</g>
<!-- Node5 -->
<g id="node5" class="node"><title>Node5</title>
<g id="a_node5"><a xlink:href="../../d6/d7e/class_t_m_c2208_stepper.html#a4ec5d2b2f5a31259c7aba1f3208d63b8" target="_top" xlink:title=" ">
<polygon fill="white" stroke="black" points="574.5,-169.97 574.5,-188.97 690.5,-188.97 690.5,-169.97 574.5,-169.97"/>
<text text-anchor="middle" x="632.5" y="-176.97" font-family="Helvetica,sans-Serif" font-size="10.00">TMC2208Stepper::ms2</text>
</a>
</g>
</g>
<!-- Node3&#45;&gt;Node5 -->
<g id="edge4" class="edge"><title>Node3&#45;&gt;Node5</title>
<path fill="none" stroke="midnightblue" d="M515.17,-172.437C531.532,-173.426 548.531,-174.454 564.318,-175.408"/>
<polygon fill="midnightblue" stroke="midnightblue" points="564.305,-178.914 574.498,-176.024 564.727,-171.927 564.305,-178.914"/>
</g>
<!-- Node7 -->
<g id="node7" class="node"><title>Node7</title>
<g id="a_node7"><a xlink:href="../../d6/d7e/class_t_m_c2208_stepper.html#a129ceb04c3ea18e2c4ec1a59a51ece85" target="_top" xlink:title=" ">
<polygon fill="white" stroke="black" points="560,-131.97 560,-150.97 705,-150.97 705,-131.97 560,-131.97"/>
<text text-anchor="middle" x="632.5" y="-138.97" font-family="Helvetica,sans-Serif" font-size="10.00">TMC2208Stepper::serial_read</text>
</a>
</g>
</g>
<!-- Node3&#45;&gt;Node7 -->
<g id="edge7" class="edge"><title>Node3&#45;&gt;Node7</title>
<path fill="none" stroke="midnightblue" d="M505.787,-157.936C520.081,-156.064 535.166,-154.088 549.731,-152.18"/>
<polygon fill="midnightblue" stroke="midnightblue" points="550.256,-155.641 559.716,-150.872 549.346,-148.7 550.256,-155.641"/>
</g>
<!-- Node8 -->
<g id="node8" class="node"><title>Node8</title>
<g id="a_node8"><a xlink:href="../../d6/d7e/class_t_m_c2208_stepper.html#aa7f2c1a3a1cda9a328c186c6d7cbfe41" target="_top" xlink:title=" ">
<polygon fill="white" stroke="black" points="572,-82.4696 572,-112.47 693,-112.47 693,-82.4696 572,-82.4696"/>
<text text-anchor="start" x="580" y="-100.47" font-family="Helvetica,sans-Serif" font-size="10.00">TMC2208Stepper::serial</text>
<text text-anchor="middle" x="632.5" y="-89.4696" font-family="Helvetica,sans-Serif" font-size="10.00">_write</text>
</a>
</g>
</g>
<!-- Node3&#45;&gt;Node8 -->
<g id="edge8" class="edge"><title>Node3&#45;&gt;Node8</title>
<path fill="none" stroke="midnightblue" d="M496.251,-157.863C505.759,-155.397 515.289,-152.315 524,-148.47 542.056,-140.5 542.502,-131.6 560,-122.47 564.044,-120.36 568.305,-118.362 572.65,-116.486"/>
<polygon fill="midnightblue" stroke="midnightblue" points="574.304,-119.591 582.243,-112.575 571.662,-113.109 574.304,-119.591"/>
</g>
<!-- Node6 -->
<g id="node6" class="node"><title>Node6</title>
<g id="a_node6"><a xlink:href="../../d6/d7e/class_t_m_c2208_stepper.html#a5441dd87d0bcea4ffc309cb012166a57" target="_top" xlink:title=" ">
<polygon fill="white" stroke="black" points="741,-87.9696 741,-106.97 857,-106.97 857,-87.9696 741,-87.9696"/>
<text text-anchor="middle" x="799" y="-94.9696" font-family="Helvetica,sans-Serif" font-size="10.00">TMC2208Stepper::IOIN</text>
</a>
</g>
</g>
<!-- Node5&#45;&gt;Node6 -->
<g id="edge5" class="edge"><title>Node5&#45;&gt;Node6</title>
<path fill="none" stroke="midnightblue" d="M678.551,-169.968C687.507,-167.396 696.702,-164.251 705,-160.47 732.451,-147.961 760.683,-127.566 778.73,-113.383"/>
<polygon fill="midnightblue" stroke="midnightblue" points="781.106,-115.965 786.723,-106.982 776.73,-110.501 781.106,-115.965"/>
</g>
<!-- Node6&#45;&gt;Node2 -->
<g id="edge6" class="edge"><title>Node6&#45;&gt;Node2</title>
<path fill="none" stroke="midnightblue" d="M788.209,-87.8203C772.34,-72.9361 739.305,-44.9951 705,-34.4696 549.914,13.1145 496.13,9.56986 340,-34.4696 311.807,-42.4221 283.729,-61.5756 265.921,-75.4902"/>
<polygon fill="midnightblue" stroke="midnightblue" points="263.643,-72.8308 258.049,-81.8281 268.033,-78.2834 263.643,-72.8308"/>
</g>
<!-- Node12 -->
<g id="node12" class="node"><title>Node12</title>
<g id="a_node12"><a xlink:href="../../d9/d98/class_s_switch.html#a6ff09d0850d551571dc333fb74ff8628" target="_top" xlink:title=" ">
<polygon fill="white" stroke="black" points="591,-43.9696 591,-62.9696 674,-62.9696 674,-43.9696 591,-43.9696"/>
<text text-anchor="middle" x="632.5" y="-50.9696" font-family="Helvetica,sans-Serif" font-size="10.00">SSwitch::active</text>
</a>
</g>
</g>
<!-- Node11&#45;&gt;Node12 -->
<g id="edge12" class="edge"><title>Node11&#45;&gt;Node12</title>
<path fill="none" stroke="midnightblue" d="M521.51,-53.4696C541.828,-53.4696 562.753,-53.4696 580.826,-53.4696"/>
<polygon fill="midnightblue" stroke="midnightblue" points="580.83,-56.9697 590.83,-53.4696 580.83,-49.9697 580.83,-56.9697"/>
</g>
</g>
</svg>
