<?xml version="1.0" encoding="UTF-8" standalone="no"?>
<!DOCTYPE svg PUBLIC "-//W3C//DTD SVG 1.1//EN"
 "http://www.w3.org/Graphics/SVG/1.1/DTD/svg11.dtd">
<!-- Generated by graphviz version 2.38.0 (20140413.2041)
 -->
<!-- Title: TMC2208Stepper::index_otpw Pages: 1 -->
<svg width="1027pt" height="235pt"
 viewBox="0.00 0.00 1027.00 235.47" xmlns="http://www.w3.org/2000/svg" xmlns:xlink="http://www.w3.org/1999/xlink">
<g id="graph0" class="graph" transform="scale(1 1) rotate(0) translate(4 231.47)">
<title>TMC2208Stepper::index_otpw</title>
<polygon fill="white" stroke="none" points="-4,4 -4,-231.47 1023,-231.47 1023,4 -4,4"/>
<!-- Node1 -->
<g id="node1" class="node"><title>Node1</title>
<g id="a_node1"><a xlink:title=" ">
<polygon fill="#bfbfbf" stroke="black" points="0,-81.9696 0,-100.97 146,-100.97 146,-81.9696 0,-81.9696"/>
<text text-anchor="middle" x="73" y="-88.9696" font-family="Helvetica,sans-Serif" font-size="10.00">TMC2208Stepper::index_otpw</text>
</a>
</g>
</g>
<!-- Node2 -->
<g id="node2" class="node"><title>Node2</title>
<g id="a_node2"><a xlink:href="../../d6/d7e/class_t_m_c2208_stepper.html#a549db4f962d4ae698dda33ef9a708e33" target="_top" xlink:title=" ">
<polygon fill="white" stroke="black" points="182,-81.9696 182,-100.97 314,-100.97 314,-81.9696 182,-81.9696"/>
<text text-anchor="middle" x="248" y="-88.9696" font-family="Helvetica,sans-Serif" font-size="10.00">TMC2208Stepper::GCONF</text>
</a>
</g>
</g>
<!-- Node1&#45;&gt;Node2 -->
<g id="edge1" class="edge"><title>Node1&#45;&gt;Node2</title>
<path fill="none" stroke="midnightblue" d="M146.115,-91.4696C154.552,-91.4696 163.177,-91.4696 171.656,-91.4696"/>
<polygon fill="midnightblue" stroke="midnightblue" points="171.904,-94.9697 181.904,-91.4696 171.904,-87.9697 171.904,-94.9697"/>
</g>
<!-- Node3 -->
<g id="node3" class="node"><title>Node3</title>
<g id="a_node3"><a xlink:href="../../d6/d7e/class_t_m_c2208_stepper.html#a2fae2050849c3ab7968012def8ea1cc5" target="_top" xlink:title=" ">
<polygon fill="white" stroke="black" points="350,-81.9696 350,-100.97 466,-100.97 466,-81.9696 350,-81.9696"/>
<text text-anchor="middle" x="408" y="-88.9696" font-family="Helvetica,sans-Serif" font-size="10.00">TMC2208Stepper::read</text>
</a>
</g>
</g>
<!-- Node2&#45;&gt;Node3 -->
<g id="edge2" class="edge"><title>Node2&#45;&gt;Node3</title>
<path fill="none" stroke="midnightblue" d="M314.177,-91.4696C322.517,-91.4696 331.069,-91.4696 339.445,-91.4696"/>
<polygon fill="midnightblue" stroke="midnightblue" points="339.55,-94.9697 349.55,-91.4696 339.55,-87.9697 339.55,-94.9697"/>
</g>
<!-- Node4 -->
<g id="node4" class="node"><title>Node4</title>
<g id="a_node4"><a xlink:href="../../d6/d7e/class_t_m_c2208_stepper.html#a321ad81155b7a20c0858920d32d0b074" target="_top" xlink:title=" ">
<polygon fill="white" stroke="black" points="511,-157.97 511,-176.97 677,-176.97 677,-157.97 511,-157.97"/>
<text text-anchor="middle" x="594" y="-164.97" font-family="Helvetica,sans-Serif" font-size="10.00">TMC2208Stepper::_sendDatagram</text>
</a>
</g>
</g>
<!-- Node3&#45;&gt;Node4 -->
<g id="edge3" class="edge"><title>Node3&#45;&gt;Node4</title>
<path fill="none" stroke="midnightblue" d="M421.494,-101.088C438.681,-113.843 471.022,-136.174 502,-148.47 508.6,-151.089 515.62,-153.37 522.72,-155.35"/>
<polygon fill="midnightblue" stroke="midnightblue" points="521.861,-158.743 532.42,-157.869 523.62,-151.968 521.861,-158.743"/>
</g>
<!-- Node10 -->
<g id="node10" class="node"><title>Node10</title>
<g id="a_node10"><a xlink:href="../../d6/d7e/class_t_m_c2208_stepper.html#a409c19fa6b052a370a317d061bf9af4e" target="_top" xlink:title=" ">
<polygon fill="white" stroke="black" points="526,-119.97 526,-138.97 662,-138.97 662,-119.97 526,-119.97"/>
<text text-anchor="middle" x="594" y="-126.97" font-family="Helvetica,sans-Serif" font-size="10.00">TMC2208Stepper::calcCRC</text>
</a>
</g>
</g>
<!-- Node3&#45;&gt;Node10 -->
<g id="edge10" class="edge"><title>Node3&#45;&gt;Node10</title>
<path fill="none" stroke="midnightblue" d="M455.431,-101.059C480.149,-106.163 510.739,-112.481 536.792,-117.861"/>
<polygon fill="midnightblue" stroke="midnightblue" points="536.402,-121.355 546.903,-119.95 537.817,-114.499 536.402,-121.355"/>
</g>
<!-- Node11 -->
<g id="node11" class="node"><title>Node11</title>
<g id="a_node11"><a xlink:href="../../d6/d7e/class_t_m_c2208_stepper.html#a673ade174158b47e3b345b1d7b3c473d" target="_top" xlink:title=" ">
<polygon fill="white" stroke="black" points="502,-81.9696 502,-100.97 686,-100.97 686,-81.9696 502,-81.9696"/>
<text text-anchor="middle" x="594" y="-88.9696" font-family="Helvetica,sans-Serif" font-size="10.00">TMC2208Stepper::postCommunication</text>
</a>
</g>
</g>
<!-- Node3&#45;&gt;Node11 -->
<g id="edge11" class="edge"><title>Node3&#45;&gt;Node11</title>
<path fill="none" stroke="midnightblue" d="M466.21,-91.4696C474.323,-91.4696 482.86,-91.4696 491.51,-91.4696"/>
<polygon fill="midnightblue" stroke="midnightblue" points="491.697,-94.9697 501.697,-91.4696 491.697,-87.9697 491.697,-94.9697"/>
</g>
<!-- Node12 -->
<g id="node12" class="node"><title>Node12</title>
<g id="a_node12"><a xlink:href="../../d6/d7e/class_t_m_c2208_stepper.html#a0ba01db6c4c01da7cb0ace8a524ab1da" target="_top" xlink:title=" ">
<polygon fill="white" stroke="black" points="504.5,-43.9696 504.5,-62.9696 683.5,-62.9696 683.5,-43.9696 504.5,-43.9696"/>
<text text-anchor="middle" x="594" y="-50.9696" font-family="Helvetica,sans-Serif" font-size="10.00">TMC2208Stepper::preCommunication</text>
</a>
</g>
</g>
<!-- Node3&#45;&gt;Node12 -->
<g id="edge12" class="edge"><title>Node3&#45;&gt;Node12</title>
<path fill="none" stroke="midnightblue" d="M455.431,-81.8806C480.149,-76.7758 510.739,-70.4583 536.792,-65.0778"/>
<polygon fill="midnightblue" stroke="midnightblue" points="537.817,-68.44 546.903,-62.9897 536.402,-61.5846 537.817,-68.44"/>
</g>
<!-- Node5 -->
<g id="node5" class="node"><title>Node5</title>
<g id="a_node5"><a xlink:href="../../d6/d7e/class_t_m_c2208_stepper.html#a7a670b15f45466f8d167a9b80fbf384f" target="_top" xlink:title=" ">
<polygon fill="white" stroke="black" points="727.5,-207.97 727.5,-226.97 861.5,-226.97 861.5,-207.97 727.5,-207.97"/>
<text text-anchor="middle" x="794.5" y="-214.97" font-family="Helvetica,sans-Serif" font-size="10.00">TMC2208Stepper::available</text>
</a>
</g>
</g>
<!-- Node4&#45;&gt;Node5 -->
<g id="edge4" class="edge"><title>Node4&#45;&gt;Node5</title>
<path fill="none" stroke="midnightblue" d="M632.804,-176.992C664.849,-185.064 710.983,-196.684 745.607,-205.406"/>
<polygon fill="midnightblue" stroke="midnightblue" points="744.948,-208.849 755.5,-207.898 746.657,-202.061 744.948,-208.849"/>
</g>
<!-- Node6 -->
<g id="node6" class="node"><title>Node6</title>
<g id="a_node6"><a xlink:href="../../d6/d7e/class_t_m_c2208_stepper.html#a4ec5d2b2f5a31259c7aba1f3208d63b8" target="_top" xlink:title=" ">
<polygon fill="white" stroke="black" points="736.5,-169.97 736.5,-188.97 852.5,-188.97 852.5,-169.97 736.5,-169.97"/>
<text text-anchor="middle" x="794.5" y="-176.97" font-family="Helvetica,sans-Serif" font-size="10.00">TMC2208Stepper::ms2</text>
</a>
</g>
</g>
<!-- Node4&#45;&gt;Node6 -->
<g id="edge5" class="edge"><title>Node4&#45;&gt;Node6</title>
<path fill="none" stroke="midnightblue" d="M677.17,-172.437C693.532,-173.426 710.531,-174.454 726.318,-175.408"/>
<polygon fill="midnightblue" stroke="midnightblue" points="726.305,-178.914 736.498,-176.024 726.727,-171.927 726.305,-178.914"/>
</g>
<!-- Node8 -->
<g id="node8" class="node"><title>Node8</title>
<g id="a_node8"><a xlink:href="../../d6/d7e/class_t_m_c2208_stepper.html#a129ceb04c3ea18e2c4ec1a59a51ece85" target="_top" xlink:title=" ">
<polygon fill="white" stroke="black" points="722,-131.97 722,-150.97 867,-150.97 867,-131.97 722,-131.97"/>
<text text-anchor="middle" x="794.5" y="-138.97" font-family="Helvetica,sans-Serif" font-size="10.00">TMC2208Stepper::serial_read</text>
</a>
</g>
</g>
<!-- Node4&#45;&gt;Node8 -->
<g id="edge8" class="edge"><title>Node4&#45;&gt;Node8</title>
<path fill="none" stroke="midnightblue" d="M667.787,-157.936C682.081,-156.064 697.166,-154.088 711.731,-152.18"/>
<polygon fill="midnightblue" stroke="midnightblue" points="712.256,-155.641 721.716,-150.872 711.346,-148.7 712.256,-155.641"/>
</g>
<!-- Node9 -->
<g id="node9" class="node"><title>Node9</title>
<g id="a_node9"><a xlink:href="../../d6/d7e/class_t_m_c2208_stepper.html#aa7f2c1a3a1cda9a328c186c6d7cbfe41" target="_top" xlink:title=" ">
<polygon fill="white" stroke="black" points="734,-82.4696 734,-112.47 855,-112.47 855,-82.4696 734,-82.4696"/>
<text text-anchor="start" x="742" y="-100.47" font-family="Helvetica,sans-Serif" font-size="10.00">TMC2208Stepper::serial</text>
<text text-anchor="middle" x="794.5" y="-89.4696" font-family="Helvetica,sans-Serif" font-size="10.00">_write</text>
</a>
</g>
</g>
<!-- Node4&#45;&gt;Node9 -->
<g id="edge9" class="edge"><title>Node4&#45;&gt;Node9</title>
<path fill="none" stroke="midnightblue" d="M658.251,-157.863C667.759,-155.397 677.289,-152.315 686,-148.47 704.056,-140.5 704.502,-131.6 722,-122.47 726.044,-120.36 730.305,-118.362 734.65,-116.486"/>
<polygon fill="midnightblue" stroke="midnightblue" points="736.304,-119.591 744.243,-112.575 733.662,-113.109 736.304,-119.591"/>
</g>
<!-- Node7 -->
<g id="node7" class="node"><title>Node7</title>
<g id="a_node7"><a xlink:href="../../d6/d7e/class_t_m_c2208_stepper.html#a5441dd87d0bcea4ffc309cb012166a57" target="_top" xlink:title=" ">
<polygon fill="white" stroke="black" points="903,-87.9696 903,-106.97 1019,-106.97 1019,-87.9696 903,-87.9696"/>
<text text-anchor="middle" x="961" y="-94.9696" font-family="Helvetica,sans-Serif" font-size="10.00">TMC2208Stepper::IOIN</text>
</a>
</g>
</g>
<!-- Node6&#45;&gt;Node7 -->
<g id="edge6" class="edge"><title>Node6&#45;&gt;Node7</title>
<path fill="none" stroke="midnightblue" d="M840.551,-169.968C849.507,-167.396 858.702,-164.251 867,-160.47 894.451,-147.961 922.683,-127.566 940.73,-113.383"/>
<polygon fill="midnightblue" stroke="midnightblue" points="943.106,-115.965 948.723,-106.982 938.73,-110.501 943.106,-115.965"/>
</g>
<!-- Node7&#45;&gt;Node3 -->
<g id="edge7" class="edge"><title>Node7&#45;&gt;Node3</title>
<path fill="none" stroke="midnightblue" d="M950.209,-87.8203C934.34,-72.9361 901.305,-44.9951 867,-34.4696 711.914,13.1145 658.13,9.56986 502,-34.4696 473.807,-42.4221 445.729,-61.5756 427.921,-75.4902"/>
<polygon fill="midnightblue" stroke="midnightblue" points="425.643,-72.8308 420.049,-81.8281 430.033,-78.2834 425.643,-72.8308"/>
</g>
<!-- Node13 -->
<g id="node13" class="node"><title>Node13</title>
<g id="a_node13"><a xlink:href="../../d9/d98/class_s_switch.html#a6ff09d0850d551571dc333fb74ff8628" target="_top" xlink:title=" ">
<polygon fill="white" stroke="black" points="753,-43.9696 753,-62.9696 836,-62.9696 836,-43.9696 753,-43.9696"/>
<text text-anchor="middle" x="794.5" y="-50.9696" font-family="Helvetica,sans-Serif" font-size="10.00">SSwitch::active</text>
</a>
</g>
</g>
<!-- Node12&#45;&gt;Node13 -->
<g id="edge13" class="edge"><title>Node12&#45;&gt;Node13</title>
<path fill="none" stroke="midnightblue" d="M683.51,-53.4696C703.828,-53.4696 724.753,-53.4696 742.826,-53.4696"/>
<polygon fill="midnightblue" stroke="midnightblue" points="742.83,-56.9697 752.83,-53.4696 742.83,-49.9697 742.83,-56.9697"/>
</g>
</g>
</svg>
