<?xml version="1.0" encoding="UTF-8" standalone="no"?>
<!DOCTYPE svg PUBLIC "-//W3C//DTD SVG 1.1//EN"
 "http://www.w3.org/Graphics/SVG/1.1/DTD/svg11.dtd">
<!-- Generated by graphviz version 2.38.0 (20140413.2041)
 -->
<!-- Title: TMC2208Stepper::ms2 Pages: 1 -->
<svg width="829pt" height="180pt"
 viewBox="0.00 0.00 829.00 180.00" xmlns="http://www.w3.org/2000/svg" xmlns:xlink="http://www.w3.org/1999/xlink">
<g id="graph0" class="graph" transform="scale(1 1) rotate(0) translate(4 176)">
<title>TMC2208Stepper::ms2</title>
<polygon fill="white" stroke="none" points="-4,4 -4,-176 825,-176 825,4 -4,4"/>
<!-- Node1 -->
<g id="node1" class="node"><title>Node1</title>
<g id="a_node1"><a xlink:title=" ">
<polygon fill="#bfbfbf" stroke="black" points="0,-95.5 0,-114.5 116,-114.5 116,-95.5 0,-95.5"/>
<text text-anchor="middle" x="58" y="-102.5" font-family="Helvetica,sans-Serif" font-size="10.00">TMC2208Stepper::ms2</text>
</a>
</g>
</g>
<!-- Node2 -->
<g id="node2" class="node"><title>Node2</title>
<g id="a_node2"><a xlink:href="../../d6/d7e/class_t_m_c2208_stepper.html#a5441dd87d0bcea4ffc309cb012166a57" target="_top" xlink:title=" ">
<polygon fill="white" stroke="black" points="152,-76.5 152,-95.5 268,-95.5 268,-76.5 152,-76.5"/>
<text text-anchor="middle" x="210" y="-83.5" font-family="Helvetica,sans-Serif" font-size="10.00">TMC2208Stepper::IOIN</text>
</a>
</g>
</g>
<!-- Node1&#45;&gt;Node2 -->
<g id="edge1" class="edge"><title>Node1&#45;&gt;Node2</title>
<path fill="none" stroke="midnightblue" d="M116.136,-97.7627C124.377,-96.7189 132.923,-95.6364 141.344,-94.5697"/>
<polygon fill="midnightblue" stroke="midnightblue" points="142.045,-98.0091 151.525,-93.2801 141.165,-91.0646 142.045,-98.0091"/>
</g>
<!-- Node3 -->
<g id="node3" class="node"><title>Node3</title>
<g id="a_node3"><a xlink:href="../../d6/d7e/class_t_m_c2208_stepper.html#a2fae2050849c3ab7968012def8ea1cc5" target="_top" xlink:title=" ">
<polygon fill="white" stroke="black" points="304,-76.5 304,-95.5 420,-95.5 420,-76.5 304,-76.5"/>
<text text-anchor="middle" x="362" y="-83.5" font-family="Helvetica,sans-Serif" font-size="10.00">TMC2208Stepper::read</text>
</a>
</g>
</g>
<!-- Node2&#45;&gt;Node3 -->
<g id="edge2" class="edge"><title>Node2&#45;&gt;Node3</title>
<path fill="none" stroke="midnightblue" d="M268.136,-86C276.377,-86 284.923,-86 293.344,-86"/>
<polygon fill="midnightblue" stroke="midnightblue" points="293.526,-89.5001 303.525,-86 293.525,-82.5001 293.526,-89.5001"/>
</g>
<!-- Node4 -->
<g id="node4" class="node"><title>Node4</title>
<g id="a_node4"><a xlink:href="../../d6/d7e/class_t_m_c2208_stepper.html#a321ad81155b7a20c0858920d32d0b074" target="_top" xlink:title=" ">
<polygon fill="white" stroke="black" points="465,-114.5 465,-133.5 631,-133.5 631,-114.5 465,-114.5"/>
<text text-anchor="middle" x="548" y="-121.5" font-family="Helvetica,sans-Serif" font-size="10.00">TMC2208Stepper::_sendDatagram</text>
</a>
</g>
</g>
<!-- Node3&#45;&gt;Node4 -->
<g id="edge3" class="edge"><title>Node3&#45;&gt;Node4</title>
<path fill="none" stroke="midnightblue" d="M409.431,-95.589C434.149,-100.694 464.739,-107.011 490.792,-112.392"/>
<polygon fill="midnightblue" stroke="midnightblue" points="490.402,-115.885 500.903,-114.48 491.817,-109.03 490.402,-115.885"/>
</g>
<!-- Node8 -->
<g id="node8" class="node"><title>Node8</title>
<g id="a_node8"><a xlink:href="../../d6/d7e/class_t_m_c2208_stepper.html#a409c19fa6b052a370a317d061bf9af4e" target="_top" xlink:title=" ">
<polygon fill="white" stroke="black" points="480,-76.5 480,-95.5 616,-95.5 616,-76.5 480,-76.5"/>
<text text-anchor="middle" x="548" y="-83.5" font-family="Helvetica,sans-Serif" font-size="10.00">TMC2208Stepper::calcCRC</text>
</a>
</g>
</g>
<!-- Node3&#45;&gt;Node8 -->
<g id="edge8" class="edge"><title>Node3&#45;&gt;Node8</title>
<path fill="none" stroke="midnightblue" d="M420.21,-86C435.848,-86 453.059,-86 469.621,-86"/>
<polygon fill="midnightblue" stroke="midnightblue" points="469.829,-89.5001 479.829,-86 469.829,-82.5001 469.829,-89.5001"/>
</g>
<!-- Node9 -->
<g id="node9" class="node"><title>Node9</title>
<g id="a_node9"><a xlink:href="../../d6/d7e/class_t_m_c2208_stepper.html#a673ade174158b47e3b345b1d7b3c473d" target="_top" xlink:title=" ">
<polygon fill="white" stroke="black" points="456,-38.5 456,-57.5 640,-57.5 640,-38.5 456,-38.5"/>
<text text-anchor="middle" x="548" y="-45.5" font-family="Helvetica,sans-Serif" font-size="10.00">TMC2208Stepper::postCommunication</text>
</a>
</g>
</g>
<!-- Node3&#45;&gt;Node9 -->
<g id="edge9" class="edge"><title>Node3&#45;&gt;Node9</title>
<path fill="none" stroke="midnightblue" d="M409.431,-76.411C434.149,-71.3061 464.739,-64.9887 490.792,-59.6082"/>
<polygon fill="midnightblue" stroke="midnightblue" points="491.817,-62.9703 500.903,-57.5201 490.402,-56.115 491.817,-62.9703"/>
</g>
<!-- Node10 -->
<g id="node10" class="node"><title>Node10</title>
<g id="a_node10"><a xlink:href="../../d6/d7e/class_t_m_c2208_stepper.html#a0ba01db6c4c01da7cb0ace8a524ab1da" target="_top" xlink:title=" ">
<polygon fill="white" stroke="black" points="458.5,-0.5 458.5,-19.5 637.5,-19.5 637.5,-0.5 458.5,-0.5"/>
<text text-anchor="middle" x="548" y="-7.5" font-family="Helvetica,sans-Serif" font-size="10.00">TMC2208Stepper::preCommunication</text>
</a>
</g>
</g>
<!-- Node3&#45;&gt;Node10 -->
<g id="edge10" class="edge"><title>Node3&#45;&gt;Node10</title>
<path fill="none" stroke="midnightblue" d="M375.494,-76.3821C392.681,-63.6263 425.022,-41.2958 456,-29 462.6,-26.3802 469.62,-24.0997 476.72,-22.1192"/>
<polygon fill="midnightblue" stroke="midnightblue" points="477.62,-25.5016 486.42,-19.6009 475.861,-18.7263 477.62,-25.5016"/>
</g>
<!-- Node4&#45;&gt;Node1 -->
<g id="edge5" class="edge"><title>Node4&#45;&gt;Node1</title>
<path fill="none" stroke="midnightblue" d="M464.612,-120.792C369.52,-117.09 214.918,-111.071 126.587,-107.631"/>
<polygon fill="midnightblue" stroke="midnightblue" points="126.543,-104.127 116.415,-107.235 126.271,-111.122 126.543,-104.127"/>
</g>
<!-- Node5 -->
<g id="node5" class="node"><title>Node5</title>
<g id="a_node5"><a xlink:href="../../d6/d7e/class_t_m_c2208_stepper.html#a7a670b15f45466f8d167a9b80fbf384f" target="_top" xlink:title=" ">
<polygon fill="white" stroke="black" points="681.5,-152.5 681.5,-171.5 815.5,-171.5 815.5,-152.5 681.5,-152.5"/>
<text text-anchor="middle" x="748.5" y="-159.5" font-family="Helvetica,sans-Serif" font-size="10.00">TMC2208Stepper::available</text>
</a>
</g>
</g>
<!-- Node4&#45;&gt;Node5 -->
<g id="edge4" class="edge"><title>Node4&#45;&gt;Node5</title>
<path fill="none" stroke="midnightblue" d="M598.834,-133.54C625.734,-138.69 659.136,-145.084 687.461,-150.506"/>
<polygon fill="midnightblue" stroke="midnightblue" points="687.166,-154.013 697.646,-152.456 688.482,-147.138 687.166,-154.013"/>
</g>
<!-- Node6 -->
<g id="node6" class="node"><title>Node6</title>
<g id="a_node6"><a xlink:href="../../d6/d7e/class_t_m_c2208_stepper.html#a129ceb04c3ea18e2c4ec1a59a51ece85" target="_top" xlink:title=" ">
<polygon fill="white" stroke="black" points="676,-114.5 676,-133.5 821,-133.5 821,-114.5 676,-114.5"/>
<text text-anchor="middle" x="748.5" y="-121.5" font-family="Helvetica,sans-Serif" font-size="10.00">TMC2208Stepper::serial_read</text>
</a>
</g>
</g>
<!-- Node4&#45;&gt;Node6 -->
<g id="edge6" class="edge"><title>Node4&#45;&gt;Node6</title>
<path fill="none" stroke="midnightblue" d="M631.17,-124C642.521,-124 654.179,-124 665.526,-124"/>
<polygon fill="midnightblue" stroke="midnightblue" points="665.842,-127.5 675.842,-124 665.842,-120.5 665.842,-127.5"/>
</g>
<!-- Node7 -->
<g id="node7" class="node"><title>Node7</title>
<g id="a_node7"><a xlink:href="../../d6/d7e/class_t_m_c2208_stepper.html#aa7f2c1a3a1cda9a328c186c6d7cbfe41" target="_top" xlink:title=" ">
<polygon fill="white" stroke="black" points="688,-65 688,-95 809,-95 809,-65 688,-65"/>
<text text-anchor="start" x="696" y="-83" font-family="Helvetica,sans-Serif" font-size="10.00">TMC2208Stepper::serial</text>
<text text-anchor="middle" x="748.5" y="-72" font-family="Helvetica,sans-Serif" font-size="10.00">_write</text>
</a>
</g>
</g>
<!-- Node4&#45;&gt;Node7 -->
<g id="edge7" class="edge"><title>Node4&#45;&gt;Node7</title>
<path fill="none" stroke="midnightblue" d="M595.805,-114.439C610.014,-111.48 625.658,-108.164 640,-105 652.254,-102.296 665.274,-99.3395 677.866,-96.4364"/>
<polygon fill="midnightblue" stroke="midnightblue" points="678.897,-99.7905 687.85,-94.1255 677.318,-92.9708 678.897,-99.7905"/>
</g>
<!-- Node11 -->
<g id="node11" class="node"><title>Node11</title>
<g id="a_node11"><a xlink:href="../../d9/d98/class_s_switch.html#a6ff09d0850d551571dc333fb74ff8628" target="_top" xlink:title=" ">
<polygon fill="white" stroke="black" points="707,-0.5 707,-19.5 790,-19.5 790,-0.5 707,-0.5"/>
<text text-anchor="middle" x="748.5" y="-7.5" font-family="Helvetica,sans-Serif" font-size="10.00">SSwitch::active</text>
</a>
</g>
</g>
<!-- Node10&#45;&gt;Node11 -->
<g id="edge11" class="edge"><title>Node10&#45;&gt;Node11</title>
<path fill="none" stroke="midnightblue" d="M637.51,-10C657.828,-10 678.753,-10 696.826,-10"/>
<polygon fill="midnightblue" stroke="midnightblue" points="696.83,-13.5001 706.83,-10 696.83,-6.5001 696.83,-13.5001"/>
</g>
</g>
</svg>
