<?xml version="1.0" encoding="UTF-8" standalone="no"?>
<!DOCTYPE svg PUBLIC "-//W3C//DTD SVG 1.1//EN"
 "http://www.w3.org/Graphics/SVG/1.1/DTD/svg11.dtd">
<!-- Generated by graphviz version 2.38.0 (20140413.2041)
 -->
<!-- Title: TMC2208Stepper::OTP_PROG Pages: 1 -->
<svg width="652pt" height="154pt"
 viewBox="0.00 0.00 652.00 153.50" xmlns="http://www.w3.org/2000/svg" xmlns:xlink="http://www.w3.org/1999/xlink">
<g id="graph0" class="graph" transform="scale(1 1) rotate(0) translate(4 149.5)">
<title>TMC2208Stepper::OTP_PROG</title>
<polygon fill="white" stroke="none" points="-4,4 -4,-149.5 648,-149.5 648,4 -4,4"/>
<!-- Node1 -->
<g id="node1" class="node"><title>Node1</title>
<g id="a_node1"><a xlink:title=" ">
<polygon fill="#bfbfbf" stroke="black" points="0,-69 0,-88 151,-88 151,-69 0,-69"/>
<text text-anchor="middle" x="75.5" y="-76" font-family="Helvetica,sans-Serif" font-size="10.00">TMC2208Stepper::OTP_PROG</text>
</a>
</g>
</g>
<!-- Node2 -->
<g id="node2" class="node"><title>Node2</title>
<g id="a_node2"><a xlink:href="../../d6/d7e/class_t_m_c2208_stepper.html#a142b14de8a4dcc6cf76b4a6ede9e1cea" target="_top" xlink:title=" ">
<polygon fill="white" stroke="black" points="187,-69 187,-88 305,-88 305,-69 187,-69"/>
<text text-anchor="middle" x="246" y="-76" font-family="Helvetica,sans-Serif" font-size="10.00">TMC2208Stepper::write</text>
</a>
</g>
</g>
<!-- Node1&#45;&gt;Node2 -->
<g id="edge1" class="edge"><title>Node1&#45;&gt;Node2</title>
<path fill="none" stroke="midnightblue" d="M151.388,-78.5C159.824,-78.5 168.386,-78.5 176.732,-78.5"/>
<polygon fill="midnightblue" stroke="midnightblue" points="176.781,-82.0001 186.781,-78.5 176.78,-75.0001 176.781,-82.0001"/>
</g>
<!-- Node3 -->
<g id="node3" class="node"><title>Node3</title>
<g id="a_node3"><a xlink:href="../../d6/d7e/class_t_m_c2208_stepper.html#a409c19fa6b052a370a317d061bf9af4e" target="_top" xlink:title=" ">
<polygon fill="white" stroke="black" points="365,-126 365,-145 501,-145 501,-126 365,-126"/>
<text text-anchor="middle" x="433" y="-133" font-family="Helvetica,sans-Serif" font-size="10.00">TMC2208Stepper::calcCRC</text>
</a>
</g>
</g>
<!-- Node2&#45;&gt;Node3 -->
<g id="edge2" class="edge"><title>Node2&#45;&gt;Node3</title>
<path fill="none" stroke="midnightblue" d="M267.524,-88.037C286.315,-96.4682 315.063,-108.619 341,-116.5 349.732,-119.153 359.046,-121.562 368.26,-123.703"/>
<polygon fill="midnightblue" stroke="midnightblue" points="367.663,-127.156 378.186,-125.922 369.19,-120.325 367.663,-127.156"/>
</g>
<!-- Node4 -->
<g id="node4" class="node"><title>Node4</title>
<g id="a_node4"><a xlink:href="../../d6/d7e/class_t_m_c2208_stepper.html#a673ade174158b47e3b345b1d7b3c473d" target="_top" xlink:title=" ">
<polygon fill="white" stroke="black" points="341,-88 341,-107 525,-107 525,-88 341,-88"/>
<text text-anchor="middle" x="433" y="-95" font-family="Helvetica,sans-Serif" font-size="10.00">TMC2208Stepper::postCommunication</text>
</a>
</g>
</g>
<!-- Node2&#45;&gt;Node4 -->
<g id="edge3" class="edge"><title>Node2&#45;&gt;Node4</title>
<path fill="none" stroke="midnightblue" d="M305.028,-84.4596C313.343,-85.3136 322.091,-86.2121 330.945,-87.1214"/>
<polygon fill="midnightblue" stroke="midnightblue" points="330.664,-90.6108 340.969,-88.1509 331.379,-83.6475 330.664,-90.6108"/>
</g>
<!-- Node5 -->
<g id="node5" class="node"><title>Node5</title>
<g id="a_node5"><a xlink:href="../../d6/d7e/class_t_m_c2208_stepper.html#a0ba01db6c4c01da7cb0ace8a524ab1da" target="_top" xlink:title=" ">
<polygon fill="white" stroke="black" points="343.5,-50 343.5,-69 522.5,-69 522.5,-50 343.5,-50"/>
<text text-anchor="middle" x="433" y="-57" font-family="Helvetica,sans-Serif" font-size="10.00">TMC2208Stepper::preCommunication</text>
</a>
</g>
</g>
<!-- Node2&#45;&gt;Node5 -->
<g id="edge4" class="edge"><title>Node2&#45;&gt;Node5</title>
<path fill="none" stroke="midnightblue" d="M305.028,-72.5404C314.072,-71.6115 323.629,-70.63 333.277,-69.6391"/>
<polygon fill="midnightblue" stroke="midnightblue" points="333.757,-73.1083 343.347,-68.6049 333.042,-66.145 333.757,-73.1083"/>
</g>
<!-- Node7 -->
<g id="node7" class="node"><title>Node7</title>
<g id="a_node7"><a xlink:href="../../d6/d7e/class_t_m_c2208_stepper.html#aa7f2c1a3a1cda9a328c186c6d7cbfe41" target="_top" xlink:title=" ">
<polygon fill="white" stroke="black" points="372.5,-0.5 372.5,-30.5 493.5,-30.5 493.5,-0.5 372.5,-0.5"/>
<text text-anchor="start" x="380.5" y="-18.5" font-family="Helvetica,sans-Serif" font-size="10.00">TMC2208Stepper::serial</text>
<text text-anchor="middle" x="433" y="-7.5" font-family="Helvetica,sans-Serif" font-size="10.00">_write</text>
</a>
</g>
</g>
<!-- Node2&#45;&gt;Node7 -->
<g id="edge6" class="edge"><title>Node2&#45;&gt;Node7</title>
<path fill="none" stroke="midnightblue" d="M268.761,-68.8638C287.642,-60.7065 315.821,-49.0159 341,-40.5 348.312,-38.0271 356.014,-35.6178 363.715,-33.3323"/>
<polygon fill="midnightblue" stroke="midnightblue" points="364.813,-36.6581 373.44,-30.5082 362.861,-29.9358 364.813,-36.6581"/>
</g>
<!-- Node6 -->
<g id="node6" class="node"><title>Node6</title>
<g id="a_node6"><a xlink:href="../../d9/d98/class_s_switch.html#a6ff09d0850d551571dc333fb74ff8628" target="_top" xlink:title=" ">
<polygon fill="white" stroke="black" points="561,-50 561,-69 644,-69 644,-50 561,-50"/>
<text text-anchor="middle" x="602.5" y="-57" font-family="Helvetica,sans-Serif" font-size="10.00">SSwitch::active</text>
</a>
</g>
</g>
<!-- Node5&#45;&gt;Node6 -->
<g id="edge5" class="edge"><title>Node5&#45;&gt;Node6</title>
<path fill="none" stroke="midnightblue" d="M522.655,-59.5C532.243,-59.5 541.745,-59.5 550.657,-59.5"/>
<polygon fill="midnightblue" stroke="midnightblue" points="550.816,-63.0001 560.816,-59.5 550.816,-56.0001 550.816,-63.0001"/>
</g>
</g>
</svg>
