<?xml version="1.0" encoding="UTF-8" standalone="no"?>
<!DOCTYPE svg PUBLIC "-//W3C//DTD SVG 1.1//EN"
 "http://www.w3.org/Graphics/SVG/1.1/DTD/svg11.dtd">
<!-- Generated by graphviz version 2.38.0 (20140413.2041)
 -->
<!-- Title: TMC2208Stepper::dir Pages: 1 -->
<svg width="821pt" height="201pt"
 viewBox="0.00 0.00 821.00 201.00" xmlns="http://www.w3.org/2000/svg" xmlns:xlink="http://www.w3.org/1999/xlink">
<g id="graph0" class="graph" transform="scale(1 1) rotate(0) translate(4 197)">
<title>TMC2208Stepper::dir</title>
<polygon fill="white" stroke="none" points="-4,4 -4,-197 817,-197 817,4 -4,4"/>
<!-- Node1 -->
<g id="node1" class="node"><title>Node1</title>
<g id="a_node1"><a xlink:title=" ">
<polygon fill="#bfbfbf" stroke="black" points="0,-19.5 0,-38.5 108,-38.5 108,-19.5 0,-19.5"/>
<text text-anchor="middle" x="54" y="-26.5" font-family="Helvetica,sans-Serif" font-size="10.00">TMC2208Stepper::dir</text>
</a>
</g>
</g>
<!-- Node2 -->
<g id="node2" class="node"><title>Node2</title>
<g id="a_node2"><a xlink:href="../../d6/d7e/class_t_m_c2208_stepper.html#a5441dd87d0bcea4ffc309cb012166a57" target="_top" xlink:title=" ">
<polygon fill="white" stroke="black" points="144,-19.5 144,-38.5 260,-38.5 260,-19.5 144,-19.5"/>
<text text-anchor="middle" x="202" y="-26.5" font-family="Helvetica,sans-Serif" font-size="10.00">TMC2208Stepper::IOIN</text>
</a>
</g>
</g>
<!-- Node1&#45;&gt;Node2 -->
<g id="edge1" class="edge"><title>Node1&#45;&gt;Node2</title>
<path fill="none" stroke="midnightblue" d="M108.122,-29C116.444,-29 125.138,-29 133.727,-29"/>
<polygon fill="midnightblue" stroke="midnightblue" points="133.731,-32.5001 143.731,-29 133.731,-25.5001 133.731,-32.5001"/>
</g>
<!-- Node3 -->
<g id="node3" class="node"><title>Node3</title>
<g id="a_node3"><a xlink:href="../../d6/d7e/class_t_m_c2208_stepper.html#a2fae2050849c3ab7968012def8ea1cc5" target="_top" xlink:title=" ">
<polygon fill="white" stroke="black" points="296,-57.5 296,-76.5 412,-76.5 412,-57.5 296,-57.5"/>
<text text-anchor="middle" x="354" y="-64.5" font-family="Helvetica,sans-Serif" font-size="10.00">TMC2208Stepper::read</text>
</a>
</g>
</g>
<!-- Node2&#45;&gt;Node3 -->
<g id="edge2" class="edge"><title>Node2&#45;&gt;Node3</title>
<path fill="none" stroke="midnightblue" d="M240.851,-38.589C260.467,-43.5583 284.619,-49.6767 305.479,-54.9613"/>
<polygon fill="midnightblue" stroke="midnightblue" points="304.868,-58.4169 315.421,-57.4799 306.587,-51.6313 304.868,-58.4169"/>
</g>
<!-- Node4 -->
<g id="node4" class="node"><title>Node4</title>
<g id="a_node4"><a xlink:href="../../d6/d7e/class_t_m_c2208_stepper.html#a321ad81155b7a20c0858920d32d0b074" target="_top" xlink:title=" ">
<polygon fill="white" stroke="black" points="457,-95.5 457,-114.5 623,-114.5 623,-95.5 457,-95.5"/>
<text text-anchor="middle" x="540" y="-102.5" font-family="Helvetica,sans-Serif" font-size="10.00">TMC2208Stepper::_sendDatagram</text>
</a>
</g>
</g>
<!-- Node3&#45;&gt;Node4 -->
<g id="edge3" class="edge"><title>Node3&#45;&gt;Node4</title>
<path fill="none" stroke="midnightblue" d="M401.431,-76.589C426.149,-81.6939 456.739,-88.0113 482.792,-93.3918"/>
<polygon fill="midnightblue" stroke="midnightblue" points="482.402,-96.885 492.903,-95.4799 483.817,-90.0297 482.402,-96.885"/>
</g>
<!-- Node9 -->
<g id="node9" class="node"><title>Node9</title>
<g id="a_node9"><a xlink:href="../../d6/d7e/class_t_m_c2208_stepper.html#a409c19fa6b052a370a317d061bf9af4e" target="_top" xlink:title=" ">
<polygon fill="white" stroke="black" points="472,-57.5 472,-76.5 608,-76.5 608,-57.5 472,-57.5"/>
<text text-anchor="middle" x="540" y="-64.5" font-family="Helvetica,sans-Serif" font-size="10.00">TMC2208Stepper::calcCRC</text>
</a>
</g>
</g>
<!-- Node3&#45;&gt;Node9 -->
<g id="edge9" class="edge"><title>Node3&#45;&gt;Node9</title>
<path fill="none" stroke="midnightblue" d="M412.21,-67C427.848,-67 445.059,-67 461.621,-67"/>
<polygon fill="midnightblue" stroke="midnightblue" points="461.829,-70.5001 471.829,-67 461.829,-63.5001 461.829,-70.5001"/>
</g>
<!-- Node10 -->
<g id="node10" class="node"><title>Node10</title>
<g id="a_node10"><a xlink:href="../../d6/d7e/class_t_m_c2208_stepper.html#a673ade174158b47e3b345b1d7b3c473d" target="_top" xlink:title=" ">
<polygon fill="white" stroke="black" points="448,-19.5 448,-38.5 632,-38.5 632,-19.5 448,-19.5"/>
<text text-anchor="middle" x="540" y="-26.5" font-family="Helvetica,sans-Serif" font-size="10.00">TMC2208Stepper::postCommunication</text>
</a>
</g>
</g>
<!-- Node3&#45;&gt;Node10 -->
<g id="edge10" class="edge"><title>Node3&#45;&gt;Node10</title>
<path fill="none" stroke="midnightblue" d="M401.431,-57.411C426.149,-52.3061 456.739,-45.9887 482.792,-40.6082"/>
<polygon fill="midnightblue" stroke="midnightblue" points="483.817,-43.9703 492.903,-38.5201 482.402,-37.115 483.817,-43.9703"/>
</g>
<!-- Node11 -->
<g id="node11" class="node"><title>Node11</title>
<g id="a_node11"><a xlink:href="../../d6/d7e/class_t_m_c2208_stepper.html#a0ba01db6c4c01da7cb0ace8a524ab1da" target="_top" xlink:title=" ">
<polygon fill="white" stroke="black" points="450.5,-139.5 450.5,-158.5 629.5,-158.5 629.5,-139.5 450.5,-139.5"/>
<text text-anchor="middle" x="540" y="-146.5" font-family="Helvetica,sans-Serif" font-size="10.00">TMC2208Stepper::preCommunication</text>
</a>
</g>
</g>
<!-- Node3&#45;&gt;Node11 -->
<g id="edge11" class="edge"><title>Node3&#45;&gt;Node11</title>
<path fill="none" stroke="midnightblue" d="M367.907,-76.5501C385.299,-89.0241 417.593,-110.821 448,-124 459.625,-129.038 472.529,-133.314 484.88,-136.828"/>
<polygon fill="midnightblue" stroke="midnightblue" points="484.064,-140.233 494.632,-139.483 485.903,-133.479 484.064,-140.233"/>
</g>
<!-- Node5 -->
<g id="node5" class="node"><title>Node5</title>
<g id="a_node5"><a xlink:href="../../d6/d7e/class_t_m_c2208_stepper.html#a7a670b15f45466f8d167a9b80fbf384f" target="_top" xlink:title=" ">
<polygon fill="white" stroke="black" points="673.5,-85.5 673.5,-104.5 807.5,-104.5 807.5,-85.5 673.5,-85.5"/>
<text text-anchor="middle" x="740.5" y="-92.5" font-family="Helvetica,sans-Serif" font-size="10.00">TMC2208Stepper::available</text>
</a>
</g>
</g>
<!-- Node4&#45;&gt;Node5 -->
<g id="edge4" class="edge"><title>Node4&#45;&gt;Node5</title>
<path fill="none" stroke="midnightblue" d="M623.17,-100.86C636.383,-100.195 650.013,-99.5082 663.084,-98.8497"/>
<polygon fill="midnightblue" stroke="midnightblue" points="663.616,-102.327 673.428,-98.3286 663.264,-95.3362 663.616,-102.327"/>
</g>
<!-- Node6 -->
<g id="node6" class="node"><title>Node6</title>
<g id="a_node6"><a xlink:href="../../d6/d7e/class_t_m_c2208_stepper.html#a4ec5d2b2f5a31259c7aba1f3208d63b8" target="_top" xlink:title=" ">
<polygon fill="white" stroke="black" points="682.5,-0.5 682.5,-19.5 798.5,-19.5 798.5,-0.5 682.5,-0.5"/>
<text text-anchor="middle" x="740.5" y="-7.5" font-family="Helvetica,sans-Serif" font-size="10.00">TMC2208Stepper::ms2</text>
</a>
</g>
</g>
<!-- Node4&#45;&gt;Node6 -->
<g id="edge5" class="edge"><title>Node4&#45;&gt;Node6</title>
<path fill="none" stroke="midnightblue" d="M612.064,-95.4993C619.087,-93.0129 625.872,-89.8981 632,-86 654.5,-71.687 646.776,-54.1441 668,-38 675.875,-32.01 685.193,-27.1398 694.457,-23.2435"/>
<polygon fill="midnightblue" stroke="midnightblue" points="695.97,-26.4104 704.027,-19.5296 693.438,-19.8845 695.97,-26.4104"/>
</g>
<!-- Node7 -->
<g id="node7" class="node"><title>Node7</title>
<g id="a_node7"><a xlink:href="../../d6/d7e/class_t_m_c2208_stepper.html#a129ceb04c3ea18e2c4ec1a59a51ece85" target="_top" xlink:title=" ">
<polygon fill="white" stroke="black" points="668,-47.5 668,-66.5 813,-66.5 813,-47.5 668,-47.5"/>
<text text-anchor="middle" x="740.5" y="-54.5" font-family="Helvetica,sans-Serif" font-size="10.00">TMC2208Stepper::serial_read</text>
</a>
</g>
</g>
<!-- Node4&#45;&gt;Node7 -->
<g id="edge7" class="edge"><title>Node4&#45;&gt;Node7</title>
<path fill="none" stroke="midnightblue" d="M589.775,-95.4266C603.476,-92.5721 618.356,-89.3157 632,-86 648.136,-82.0787 651.975,-80.3547 668,-76 676.196,-73.7728 684.928,-71.4285 693.373,-69.1762"/>
<polygon fill="midnightblue" stroke="midnightblue" points="694.341,-72.5405 703.105,-66.587 692.541,-65.7758 694.341,-72.5405"/>
</g>
<!-- Node8 -->
<g id="node8" class="node"><title>Node8</title>
<g id="a_node8"><a xlink:href="../../d6/d7e/class_t_m_c2208_stepper.html#aa7f2c1a3a1cda9a328c186c6d7cbfe41" target="_top" xlink:title=" ">
<polygon fill="white" stroke="black" points="680,-124 680,-154 801,-154 801,-124 680,-124"/>
<text text-anchor="start" x="688" y="-142" font-family="Helvetica,sans-Serif" font-size="10.00">TMC2208Stepper::serial</text>
<text text-anchor="middle" x="740.5" y="-131" font-family="Helvetica,sans-Serif" font-size="10.00">_write</text>
</a>
</g>
</g>
<!-- Node4&#45;&gt;Node8 -->
<g id="edge8" class="edge"><title>Node4&#45;&gt;Node8</title>
<path fill="none" stroke="midnightblue" d="M596.557,-114.516C619.238,-118.401 645.722,-122.937 669.688,-127.042"/>
<polygon fill="midnightblue" stroke="midnightblue" points="669.339,-130.533 679.787,-128.772 670.521,-123.634 669.339,-130.533"/>
</g>
<!-- Node6&#45;&gt;Node2 -->
<g id="edge6" class="edge"><title>Node6&#45;&gt;Node2</title>
<path fill="none" stroke="midnightblue" d="M682.227,-8.69287C623.429,-7.65791 529.291,-6.85263 448,-10 387.903,-12.3268 319.699,-17.8526 270.541,-22.3486"/>
<polygon fill="midnightblue" stroke="midnightblue" points="269.985,-18.8849 260.35,-23.2908 270.63,-25.8552 269.985,-18.8849"/>
</g>
<!-- Node12 -->
<g id="node12" class="node"><title>Node12</title>
<g id="a_node12"><a xlink:href="../../d9/d98/class_s_switch.html#a6ff09d0850d551571dc333fb74ff8628" target="_top" xlink:title=" ">
<polygon fill="white" stroke="black" points="699,-173.5 699,-192.5 782,-192.5 782,-173.5 699,-173.5"/>
<text text-anchor="middle" x="740.5" y="-180.5" font-family="Helvetica,sans-Serif" font-size="10.00">SSwitch::active</text>
</a>
</g>
</g>
<!-- Node11&#45;&gt;Node12 -->
<g id="edge12" class="edge"><title>Node11&#45;&gt;Node12</title>
<path fill="none" stroke="midnightblue" d="M596.557,-158.516C625.466,-163.468 660.552,-169.478 688.729,-174.304"/>
<polygon fill="midnightblue" stroke="midnightblue" points="688.326,-177.786 698.773,-176.024 689.508,-170.886 688.326,-177.786"/>
</g>
</g>
</svg>
