<?xml version="1.0" encoding="UTF-8" standalone="no"?>
<!DOCTYPE svg PUBLIC "-//W3C//DTD SVG 1.1//EN"
 "http://www.w3.org/Graphics/SVG/1.1/DTD/svg11.dtd">
<!-- Generated by graphviz version 2.38.0 (20140413.2041)
 -->
<!-- Title: TMC2208Stepper::vsense Pages: 1 -->
<svg width="1029pt" height="235pt"
 viewBox="0.00 0.00 1029.00 235.47" xmlns="http://www.w3.org/2000/svg" xmlns:xlink="http://www.w3.org/1999/xlink">
<g id="graph0" class="graph" transform="scale(1 1) rotate(0) translate(4 231.47)">
<title>TMC2208Stepper::vsense</title>
<polygon fill="white" stroke="none" points="-4,4 -4,-231.47 1025,-231.47 1025,4 -4,4"/>
<!-- Node1 -->
<g id="node1" class="node"><title>Node1</title>
<g id="a_node1"><a xlink:title=" ">
<polygon fill="#bfbfbf" stroke="black" points="0,-81.9696 0,-100.97 128,-100.97 128,-81.9696 0,-81.9696"/>
<text text-anchor="middle" x="64" y="-88.9696" font-family="Helvetica,sans-Serif" font-size="10.00">TMC2208Stepper::vsense</text>
</a>
</g>
</g>
<!-- Node2 -->
<g id="node2" class="node"><title>Node2</title>
<g id="a_node2"><a xlink:href="../../d6/d7e/class_t_m_c2208_stepper.html#aa11281f54c293f3ff2539b1a583682a9" target="_top" xlink:title=" ">
<polygon fill="white" stroke="black" points="164,-81.9696 164,-100.97 316,-100.97 316,-81.9696 164,-81.9696"/>
<text text-anchor="middle" x="240" y="-88.9696" font-family="Helvetica,sans-Serif" font-size="10.00">TMC2208Stepper::CHOPCONF</text>
</a>
</g>
</g>
<!-- Node1&#45;&gt;Node2 -->
<g id="edge1" class="edge"><title>Node1&#45;&gt;Node2</title>
<path fill="none" stroke="midnightblue" d="M128.31,-91.4696C136.621,-91.4696 145.245,-91.4696 153.844,-91.4696"/>
<polygon fill="midnightblue" stroke="midnightblue" points="153.907,-94.9697 163.907,-91.4696 153.907,-87.9697 153.907,-94.9697"/>
</g>
<!-- Node3 -->
<g id="node3" class="node"><title>Node3</title>
<g id="a_node3"><a xlink:href="../../d6/d7e/class_t_m_c2208_stepper.html#a2fae2050849c3ab7968012def8ea1cc5" target="_top" xlink:title=" ">
<polygon fill="white" stroke="black" points="352,-81.9696 352,-100.97 468,-100.97 468,-81.9696 352,-81.9696"/>
<text text-anchor="middle" x="410" y="-88.9696" font-family="Helvetica,sans-Serif" font-size="10.00">TMC2208Stepper::read</text>
</a>
</g>
</g>
<!-- Node2&#45;&gt;Node3 -->
<g id="edge2" class="edge"><title>Node2&#45;&gt;Node3</title>
<path fill="none" stroke="midnightblue" d="M316.155,-91.4696C324.664,-91.4696 333.296,-91.4696 341.696,-91.4696"/>
<polygon fill="midnightblue" stroke="midnightblue" points="341.802,-94.9697 351.802,-91.4696 341.802,-87.9697 341.802,-94.9697"/>
</g>
<!-- Node4 -->
<g id="node4" class="node"><title>Node4</title>
<g id="a_node4"><a xlink:href="../../d6/d7e/class_t_m_c2208_stepper.html#a321ad81155b7a20c0858920d32d0b074" target="_top" xlink:title=" ">
<polygon fill="white" stroke="black" points="513,-157.97 513,-176.97 679,-176.97 679,-157.97 513,-157.97"/>
<text text-anchor="middle" x="596" y="-164.97" font-family="Helvetica,sans-Serif" font-size="10.00">TMC2208Stepper::_sendDatagram</text>
</a>
</g>
</g>
<!-- Node3&#45;&gt;Node4 -->
<g id="edge3" class="edge"><title>Node3&#45;&gt;Node4</title>
<path fill="none" stroke="midnightblue" d="M423.494,-101.088C440.681,-113.843 473.022,-136.174 504,-148.47 510.6,-151.089 517.62,-153.37 524.72,-155.35"/>
<polygon fill="midnightblue" stroke="midnightblue" points="523.861,-158.743 534.42,-157.869 525.62,-151.968 523.861,-158.743"/>
</g>
<!-- Node10 -->
<g id="node10" class="node"><title>Node10</title>
<g id="a_node10"><a xlink:href="../../d6/d7e/class_t_m_c2208_stepper.html#a409c19fa6b052a370a317d061bf9af4e" target="_top" xlink:title=" ">
<polygon fill="white" stroke="black" points="528,-119.97 528,-138.97 664,-138.97 664,-119.97 528,-119.97"/>
<text text-anchor="middle" x="596" y="-126.97" font-family="Helvetica,sans-Serif" font-size="10.00">TMC2208Stepper::calcCRC</text>
</a>
</g>
</g>
<!-- Node3&#45;&gt;Node10 -->
<g id="edge10" class="edge"><title>Node3&#45;&gt;Node10</title>
<path fill="none" stroke="midnightblue" d="M457.431,-101.059C482.149,-106.163 512.739,-112.481 538.792,-117.861"/>
<polygon fill="midnightblue" stroke="midnightblue" points="538.402,-121.355 548.903,-119.95 539.817,-114.499 538.402,-121.355"/>
</g>
<!-- Node11 -->
<g id="node11" class="node"><title>Node11</title>
<g id="a_node11"><a xlink:href="../../d6/d7e/class_t_m_c2208_stepper.html#a673ade174158b47e3b345b1d7b3c473d" target="_top" xlink:title=" ">
<polygon fill="white" stroke="black" points="504,-81.9696 504,-100.97 688,-100.97 688,-81.9696 504,-81.9696"/>
<text text-anchor="middle" x="596" y="-88.9696" font-family="Helvetica,sans-Serif" font-size="10.00">TMC2208Stepper::postCommunication</text>
</a>
</g>
</g>
<!-- Node3&#45;&gt;Node11 -->
<g id="edge11" class="edge"><title>Node3&#45;&gt;Node11</title>
<path fill="none" stroke="midnightblue" d="M468.21,-91.4696C476.323,-91.4696 484.86,-91.4696 493.51,-91.4696"/>
<polygon fill="midnightblue" stroke="midnightblue" points="493.697,-94.9697 503.697,-91.4696 493.697,-87.9697 493.697,-94.9697"/>
</g>
<!-- Node12 -->
<g id="node12" class="node"><title>Node12</title>
<g id="a_node12"><a xlink:href="../../d6/d7e/class_t_m_c2208_stepper.html#a0ba01db6c4c01da7cb0ace8a524ab1da" target="_top" xlink:title=" ">
<polygon fill="white" stroke="black" points="506.5,-43.9696 506.5,-62.9696 685.5,-62.9696 685.5,-43.9696 506.5,-43.9696"/>
<text text-anchor="middle" x="596" y="-50.9696" font-family="Helvetica,sans-Serif" font-size="10.00">TMC2208Stepper::preCommunication</text>
</a>
</g>
</g>
<!-- Node3&#45;&gt;Node12 -->
<g id="edge12" class="edge"><title>Node3&#45;&gt;Node12</title>
<path fill="none" stroke="midnightblue" d="M457.431,-81.8806C482.149,-76.7758 512.739,-70.4583 538.792,-65.0778"/>
<polygon fill="midnightblue" stroke="midnightblue" points="539.817,-68.44 548.903,-62.9897 538.402,-61.5846 539.817,-68.44"/>
</g>
<!-- Node5 -->
<g id="node5" class="node"><title>Node5</title>
<g id="a_node5"><a xlink:href="../../d6/d7e/class_t_m_c2208_stepper.html#a7a670b15f45466f8d167a9b80fbf384f" target="_top" xlink:title=" ">
<polygon fill="white" stroke="black" points="729.5,-207.97 729.5,-226.97 863.5,-226.97 863.5,-207.97 729.5,-207.97"/>
<text text-anchor="middle" x="796.5" y="-214.97" font-family="Helvetica,sans-Serif" font-size="10.00">TMC2208Stepper::available</text>
</a>
</g>
</g>
<!-- Node4&#45;&gt;Node5 -->
<g id="edge4" class="edge"><title>Node4&#45;&gt;Node5</title>
<path fill="none" stroke="midnightblue" d="M634.804,-176.992C666.849,-185.064 712.983,-196.684 747.607,-205.406"/>
<polygon fill="midnightblue" stroke="midnightblue" points="746.948,-208.849 757.5,-207.898 748.657,-202.061 746.948,-208.849"/>
</g>
<!-- Node6 -->
<g id="node6" class="node"><title>Node6</title>
<g id="a_node6"><a xlink:href="../../d6/d7e/class_t_m_c2208_stepper.html#a4ec5d2b2f5a31259c7aba1f3208d63b8" target="_top" xlink:title=" ">
<polygon fill="white" stroke="black" points="738.5,-169.97 738.5,-188.97 854.5,-188.97 854.5,-169.97 738.5,-169.97"/>
<text text-anchor="middle" x="796.5" y="-176.97" font-family="Helvetica,sans-Serif" font-size="10.00">TMC2208Stepper::ms2</text>
</a>
</g>
</g>
<!-- Node4&#45;&gt;Node6 -->
<g id="edge5" class="edge"><title>Node4&#45;&gt;Node6</title>
<path fill="none" stroke="midnightblue" d="M679.17,-172.437C695.532,-173.426 712.531,-174.454 728.318,-175.408"/>
<polygon fill="midnightblue" stroke="midnightblue" points="728.305,-178.914 738.498,-176.024 728.727,-171.927 728.305,-178.914"/>
</g>
<!-- Node8 -->
<g id="node8" class="node"><title>Node8</title>
<g id="a_node8"><a xlink:href="../../d6/d7e/class_t_m_c2208_stepper.html#a129ceb04c3ea18e2c4ec1a59a51ece85" target="_top" xlink:title=" ">
<polygon fill="white" stroke="black" points="724,-131.97 724,-150.97 869,-150.97 869,-131.97 724,-131.97"/>
<text text-anchor="middle" x="796.5" y="-138.97" font-family="Helvetica,sans-Serif" font-size="10.00">TMC2208Stepper::serial_read</text>
</a>
</g>
</g>
<!-- Node4&#45;&gt;Node8 -->
<g id="edge8" class="edge"><title>Node4&#45;&gt;Node8</title>
<path fill="none" stroke="midnightblue" d="M669.787,-157.936C684.081,-156.064 699.166,-154.088 713.731,-152.18"/>
<polygon fill="midnightblue" stroke="midnightblue" points="714.256,-155.641 723.716,-150.872 713.346,-148.7 714.256,-155.641"/>
</g>
<!-- Node9 -->
<g id="node9" class="node"><title>Node9</title>
<g id="a_node9"><a xlink:href="../../d6/d7e/class_t_m_c2208_stepper.html#aa7f2c1a3a1cda9a328c186c6d7cbfe41" target="_top" xlink:title=" ">
<polygon fill="white" stroke="black" points="736,-82.4696 736,-112.47 857,-112.47 857,-82.4696 736,-82.4696"/>
<text text-anchor="start" x="744" y="-100.47" font-family="Helvetica,sans-Serif" font-size="10.00">TMC2208Stepper::serial</text>
<text text-anchor="middle" x="796.5" y="-89.4696" font-family="Helvetica,sans-Serif" font-size="10.00">_write</text>
</a>
</g>
</g>
<!-- Node4&#45;&gt;Node9 -->
<g id="edge9" class="edge"><title>Node4&#45;&gt;Node9</title>
<path fill="none" stroke="midnightblue" d="M660.251,-157.863C669.759,-155.397 679.289,-152.315 688,-148.47 706.056,-140.5 706.502,-131.6 724,-122.47 728.044,-120.36 732.305,-118.362 736.65,-116.486"/>
<polygon fill="midnightblue" stroke="midnightblue" points="738.304,-119.591 746.243,-112.575 735.662,-113.109 738.304,-119.591"/>
</g>
<!-- Node7 -->
<g id="node7" class="node"><title>Node7</title>
<g id="a_node7"><a xlink:href="../../d6/d7e/class_t_m_c2208_stepper.html#a5441dd87d0bcea4ffc309cb012166a57" target="_top" xlink:title=" ">
<polygon fill="white" stroke="black" points="905,-87.9696 905,-106.97 1021,-106.97 1021,-87.9696 905,-87.9696"/>
<text text-anchor="middle" x="963" y="-94.9696" font-family="Helvetica,sans-Serif" font-size="10.00">TMC2208Stepper::IOIN</text>
</a>
</g>
</g>
<!-- Node6&#45;&gt;Node7 -->
<g id="edge6" class="edge"><title>Node6&#45;&gt;Node7</title>
<path fill="none" stroke="midnightblue" d="M842.551,-169.968C851.507,-167.396 860.702,-164.251 869,-160.47 896.451,-147.961 924.683,-127.566 942.73,-113.383"/>
<polygon fill="midnightblue" stroke="midnightblue" points="945.106,-115.965 950.723,-106.982 940.73,-110.501 945.106,-115.965"/>
</g>
<!-- Node7&#45;&gt;Node3 -->
<g id="edge7" class="edge"><title>Node7&#45;&gt;Node3</title>
<path fill="none" stroke="midnightblue" d="M952.209,-87.8203C936.34,-72.9361 903.305,-44.9951 869,-34.4696 713.914,13.1145 660.13,9.56986 504,-34.4696 475.807,-42.4221 447.729,-61.5756 429.921,-75.4902"/>
<polygon fill="midnightblue" stroke="midnightblue" points="427.643,-72.8308 422.049,-81.8281 432.033,-78.2834 427.643,-72.8308"/>
</g>
<!-- Node13 -->
<g id="node13" class="node"><title>Node13</title>
<g id="a_node13"><a xlink:href="../../d9/d98/class_s_switch.html#a6ff09d0850d551571dc333fb74ff8628" target="_top" xlink:title=" ">
<polygon fill="white" stroke="black" points="755,-43.9696 755,-62.9696 838,-62.9696 838,-43.9696 755,-43.9696"/>
<text text-anchor="middle" x="796.5" y="-50.9696" font-family="Helvetica,sans-Serif" font-size="10.00">SSwitch::active</text>
</a>
</g>
</g>
<!-- Node12&#45;&gt;Node13 -->
<g id="edge13" class="edge"><title>Node12&#45;&gt;Node13</title>
<path fill="none" stroke="midnightblue" d="M685.51,-53.4696C705.828,-53.4696 726.753,-53.4696 744.826,-53.4696"/>
<polygon fill="midnightblue" stroke="midnightblue" points="744.83,-56.9697 754.83,-53.4696 744.83,-49.9697 744.83,-56.9697"/>
</g>
</g>
</svg>
