<?xml version="1.0" encoding="UTF-8" standalone="no"?>
<!DOCTYPE svg PUBLIC "-//W3C//DTD SVG 1.1//EN"
 "http://www.w3.org/Graphics/SVG/1.1/DTD/svg11.dtd">
<!-- Generated by graphviz version 2.38.0 (20140413.2041)
 -->
<!-- Title: TMC2208Stepper::dedge Pages: 1 -->
<svg width="1185pt" height="235pt"
 viewBox="0.00 0.00 1185.00 235.47" xmlns="http://www.w3.org/2000/svg" xmlns:xlink="http://www.w3.org/1999/xlink">
<g id="graph0" class="graph" transform="scale(1 1) rotate(0) translate(4 231.47)">
<title>TMC2208Stepper::dedge</title>
<polygon fill="white" stroke="none" points="-4,4 -4,-231.47 1181,-231.47 1181,4 -4,4"/>
<!-- Node1 -->
<g id="node1" class="node"><title>Node1</title>
<g id="a_node1"><a xlink:title=" ">
<polygon fill="#bfbfbf" stroke="black" points="0,-81.9696 0,-100.97 124,-100.97 124,-81.9696 0,-81.9696"/>
<text text-anchor="middle" x="62" y="-88.9696" font-family="Helvetica,sans-Serif" font-size="10.00">TMC2208Stepper::dedge</text>
</a>
</g>
</g>
<!-- Node2 -->
<g id="node2" class="node"><title>Node2</title>
<g id="a_node2"><a xlink:href="../../d6/d7e/class_t_m_c2208_stepper.html#a5b614f72c27fa1b7ff1c08fe07b17582" target="_top" xlink:title=" ">
<polygon fill="white" stroke="black" points="160,-81.9696 160,-100.97 284,-100.97 284,-81.9696 160,-81.9696"/>
<text text-anchor="middle" x="222" y="-88.9696" font-family="Helvetica,sans-Serif" font-size="10.00">TMC2208Stepper::dedge</text>
</a>
</g>
</g>
<!-- Node1&#45;&gt;Node2 -->
<g id="edge1" class="edge"><title>Node1&#45;&gt;Node2</title>
<path fill="none" stroke="midnightblue" d="M124.087,-91.4696C132.513,-91.4696 141.226,-91.4696 149.815,-91.4696"/>
<polygon fill="midnightblue" stroke="midnightblue" points="149.815,-94.9697 159.815,-91.4696 149.815,-87.9697 149.815,-94.9697"/>
</g>
<!-- Node3 -->
<g id="node3" class="node"><title>Node3</title>
<g id="a_node3"><a xlink:href="../../d6/d7e/class_t_m_c2208_stepper.html#aa11281f54c293f3ff2539b1a583682a9" target="_top" xlink:title=" ">
<polygon fill="white" stroke="black" points="320,-81.9696 320,-100.97 472,-100.97 472,-81.9696 320,-81.9696"/>
<text text-anchor="middle" x="396" y="-88.9696" font-family="Helvetica,sans-Serif" font-size="10.00">TMC2208Stepper::CHOPCONF</text>
</a>
</g>
</g>
<!-- Node2&#45;&gt;Node3 -->
<g id="edge2" class="edge"><title>Node2&#45;&gt;Node3</title>
<path fill="none" stroke="midnightblue" d="M284.125,-91.4696C292.453,-91.4696 301.122,-91.4696 309.78,-91.4696"/>
<polygon fill="midnightblue" stroke="midnightblue" points="309.918,-94.9697 319.918,-91.4696 309.918,-87.9697 309.918,-94.9697"/>
</g>
<!-- Node4 -->
<g id="node4" class="node"><title>Node4</title>
<g id="a_node4"><a xlink:href="../../d6/d7e/class_t_m_c2208_stepper.html#a2fae2050849c3ab7968012def8ea1cc5" target="_top" xlink:title=" ">
<polygon fill="white" stroke="black" points="508,-81.9696 508,-100.97 624,-100.97 624,-81.9696 508,-81.9696"/>
<text text-anchor="middle" x="566" y="-88.9696" font-family="Helvetica,sans-Serif" font-size="10.00">TMC2208Stepper::read</text>
</a>
</g>
</g>
<!-- Node3&#45;&gt;Node4 -->
<g id="edge3" class="edge"><title>Node3&#45;&gt;Node4</title>
<path fill="none" stroke="midnightblue" d="M472.155,-91.4696C480.664,-91.4696 489.296,-91.4696 497.696,-91.4696"/>
<polygon fill="midnightblue" stroke="midnightblue" points="497.802,-94.9697 507.802,-91.4696 497.802,-87.9697 497.802,-94.9697"/>
</g>
<!-- Node5 -->
<g id="node5" class="node"><title>Node5</title>
<g id="a_node5"><a xlink:href="../../d6/d7e/class_t_m_c2208_stepper.html#a321ad81155b7a20c0858920d32d0b074" target="_top" xlink:title=" ">
<polygon fill="white" stroke="black" points="669,-157.97 669,-176.97 835,-176.97 835,-157.97 669,-157.97"/>
<text text-anchor="middle" x="752" y="-164.97" font-family="Helvetica,sans-Serif" font-size="10.00">TMC2208Stepper::_sendDatagram</text>
</a>
</g>
</g>
<!-- Node4&#45;&gt;Node5 -->
<g id="edge4" class="edge"><title>Node4&#45;&gt;Node5</title>
<path fill="none" stroke="midnightblue" d="M579.494,-101.088C596.681,-113.843 629.022,-136.174 660,-148.47 666.6,-151.089 673.62,-153.37 680.72,-155.35"/>
<polygon fill="midnightblue" stroke="midnightblue" points="679.861,-158.743 690.42,-157.869 681.62,-151.968 679.861,-158.743"/>
</g>
<!-- Node11 -->
<g id="node11" class="node"><title>Node11</title>
<g id="a_node11"><a xlink:href="../../d6/d7e/class_t_m_c2208_stepper.html#a409c19fa6b052a370a317d061bf9af4e" target="_top" xlink:title=" ">
<polygon fill="white" stroke="black" points="684,-119.97 684,-138.97 820,-138.97 820,-119.97 684,-119.97"/>
<text text-anchor="middle" x="752" y="-126.97" font-family="Helvetica,sans-Serif" font-size="10.00">TMC2208Stepper::calcCRC</text>
</a>
</g>
</g>
<!-- Node4&#45;&gt;Node11 -->
<g id="edge11" class="edge"><title>Node4&#45;&gt;Node11</title>
<path fill="none" stroke="midnightblue" d="M613.431,-101.059C638.149,-106.163 668.739,-112.481 694.792,-117.861"/>
<polygon fill="midnightblue" stroke="midnightblue" points="694.402,-121.355 704.903,-119.95 695.817,-114.499 694.402,-121.355"/>
</g>
<!-- Node12 -->
<g id="node12" class="node"><title>Node12</title>
<g id="a_node12"><a xlink:href="../../d6/d7e/class_t_m_c2208_stepper.html#a673ade174158b47e3b345b1d7b3c473d" target="_top" xlink:title=" ">
<polygon fill="white" stroke="black" points="660,-81.9696 660,-100.97 844,-100.97 844,-81.9696 660,-81.9696"/>
<text text-anchor="middle" x="752" y="-88.9696" font-family="Helvetica,sans-Serif" font-size="10.00">TMC2208Stepper::postCommunication</text>
</a>
</g>
</g>
<!-- Node4&#45;&gt;Node12 -->
<g id="edge12" class="edge"><title>Node4&#45;&gt;Node12</title>
<path fill="none" stroke="midnightblue" d="M624.21,-91.4696C632.323,-91.4696 640.86,-91.4696 649.51,-91.4696"/>
<polygon fill="midnightblue" stroke="midnightblue" points="649.697,-94.9697 659.697,-91.4696 649.697,-87.9697 649.697,-94.9697"/>
</g>
<!-- Node13 -->
<g id="node13" class="node"><title>Node13</title>
<g id="a_node13"><a xlink:href="../../d6/d7e/class_t_m_c2208_stepper.html#a0ba01db6c4c01da7cb0ace8a524ab1da" target="_top" xlink:title=" ">
<polygon fill="white" stroke="black" points="662.5,-43.9696 662.5,-62.9696 841.5,-62.9696 841.5,-43.9696 662.5,-43.9696"/>
<text text-anchor="middle" x="752" y="-50.9696" font-family="Helvetica,sans-Serif" font-size="10.00">TMC2208Stepper::preCommunication</text>
</a>
</g>
</g>
<!-- Node4&#45;&gt;Node13 -->
<g id="edge13" class="edge"><title>Node4&#45;&gt;Node13</title>
<path fill="none" stroke="midnightblue" d="M613.431,-81.8806C638.149,-76.7758 668.739,-70.4583 694.792,-65.0778"/>
<polygon fill="midnightblue" stroke="midnightblue" points="695.817,-68.44 704.903,-62.9897 694.402,-61.5846 695.817,-68.44"/>
</g>
<!-- Node6 -->
<g id="node6" class="node"><title>Node6</title>
<g id="a_node6"><a xlink:href="../../d6/d7e/class_t_m_c2208_stepper.html#a7a670b15f45466f8d167a9b80fbf384f" target="_top" xlink:title=" ">
<polygon fill="white" stroke="black" points="885.5,-207.97 885.5,-226.97 1019.5,-226.97 1019.5,-207.97 885.5,-207.97"/>
<text text-anchor="middle" x="952.5" y="-214.97" font-family="Helvetica,sans-Serif" font-size="10.00">TMC2208Stepper::available</text>
</a>
</g>
</g>
<!-- Node5&#45;&gt;Node6 -->
<g id="edge5" class="edge"><title>Node5&#45;&gt;Node6</title>
<path fill="none" stroke="midnightblue" d="M790.804,-176.992C822.849,-185.064 868.983,-196.684 903.607,-205.406"/>
<polygon fill="midnightblue" stroke="midnightblue" points="902.948,-208.849 913.5,-207.898 904.657,-202.061 902.948,-208.849"/>
</g>
<!-- Node7 -->
<g id="node7" class="node"><title>Node7</title>
<g id="a_node7"><a xlink:href="../../d6/d7e/class_t_m_c2208_stepper.html#a4ec5d2b2f5a31259c7aba1f3208d63b8" target="_top" xlink:title=" ">
<polygon fill="white" stroke="black" points="894.5,-169.97 894.5,-188.97 1010.5,-188.97 1010.5,-169.97 894.5,-169.97"/>
<text text-anchor="middle" x="952.5" y="-176.97" font-family="Helvetica,sans-Serif" font-size="10.00">TMC2208Stepper::ms2</text>
</a>
</g>
</g>
<!-- Node5&#45;&gt;Node7 -->
<g id="edge6" class="edge"><title>Node5&#45;&gt;Node7</title>
<path fill="none" stroke="midnightblue" d="M835.17,-172.437C851.532,-173.426 868.531,-174.454 884.318,-175.408"/>
<polygon fill="midnightblue" stroke="midnightblue" points="884.305,-178.914 894.498,-176.024 884.727,-171.927 884.305,-178.914"/>
</g>
<!-- Node9 -->
<g id="node9" class="node"><title>Node9</title>
<g id="a_node9"><a xlink:href="../../d6/d7e/class_t_m_c2208_stepper.html#a129ceb04c3ea18e2c4ec1a59a51ece85" target="_top" xlink:title=" ">
<polygon fill="white" stroke="black" points="880,-131.97 880,-150.97 1025,-150.97 1025,-131.97 880,-131.97"/>
<text text-anchor="middle" x="952.5" y="-138.97" font-family="Helvetica,sans-Serif" font-size="10.00">TMC2208Stepper::serial_read</text>
</a>
</g>
</g>
<!-- Node5&#45;&gt;Node9 -->
<g id="edge9" class="edge"><title>Node5&#45;&gt;Node9</title>
<path fill="none" stroke="midnightblue" d="M825.787,-157.936C840.081,-156.064 855.166,-154.088 869.731,-152.18"/>
<polygon fill="midnightblue" stroke="midnightblue" points="870.256,-155.641 879.716,-150.872 869.346,-148.7 870.256,-155.641"/>
</g>
<!-- Node10 -->
<g id="node10" class="node"><title>Node10</title>
<g id="a_node10"><a xlink:href="../../d6/d7e/class_t_m_c2208_stepper.html#aa7f2c1a3a1cda9a328c186c6d7cbfe41" target="_top" xlink:title=" ">
<polygon fill="white" stroke="black" points="892,-82.4696 892,-112.47 1013,-112.47 1013,-82.4696 892,-82.4696"/>
<text text-anchor="start" x="900" y="-100.47" font-family="Helvetica,sans-Serif" font-size="10.00">TMC2208Stepper::serial</text>
<text text-anchor="middle" x="952.5" y="-89.4696" font-family="Helvetica,sans-Serif" font-size="10.00">_write</text>
</a>
</g>
</g>
<!-- Node5&#45;&gt;Node10 -->
<g id="edge10" class="edge"><title>Node5&#45;&gt;Node10</title>
<path fill="none" stroke="midnightblue" d="M816.251,-157.863C825.759,-155.397 835.289,-152.315 844,-148.47 862.056,-140.5 862.502,-131.6 880,-122.47 884.044,-120.36 888.305,-118.362 892.65,-116.486"/>
<polygon fill="midnightblue" stroke="midnightblue" points="894.304,-119.591 902.243,-112.575 891.662,-113.109 894.304,-119.591"/>
</g>
<!-- Node8 -->
<g id="node8" class="node"><title>Node8</title>
<g id="a_node8"><a xlink:href="../../d6/d7e/class_t_m_c2208_stepper.html#a5441dd87d0bcea4ffc309cb012166a57" target="_top" xlink:title=" ">
<polygon fill="white" stroke="black" points="1061,-87.9696 1061,-106.97 1177,-106.97 1177,-87.9696 1061,-87.9696"/>
<text text-anchor="middle" x="1119" y="-94.9696" font-family="Helvetica,sans-Serif" font-size="10.00">TMC2208Stepper::IOIN</text>
</a>
</g>
</g>
<!-- Node7&#45;&gt;Node8 -->
<g id="edge7" class="edge"><title>Node7&#45;&gt;Node8</title>
<path fill="none" stroke="midnightblue" d="M998.551,-169.968C1007.51,-167.396 1016.7,-164.251 1025,-160.47 1052.45,-147.961 1080.68,-127.566 1098.73,-113.383"/>
<polygon fill="midnightblue" stroke="midnightblue" points="1101.11,-115.965 1106.72,-106.982 1096.73,-110.501 1101.11,-115.965"/>
</g>
<!-- Node8&#45;&gt;Node4 -->
<g id="edge8" class="edge"><title>Node8&#45;&gt;Node4</title>
<path fill="none" stroke="midnightblue" d="M1108.21,-87.8203C1092.34,-72.9361 1059.3,-44.9951 1025,-34.4696 869.914,13.1145 816.13,9.56986 660,-34.4696 631.807,-42.4221 603.729,-61.5756 585.921,-75.4902"/>
<polygon fill="midnightblue" stroke="midnightblue" points="583.643,-72.8308 578.049,-81.8281 588.033,-78.2834 583.643,-72.8308"/>
</g>
<!-- Node14 -->
<g id="node14" class="node"><title>Node14</title>
<g id="a_node14"><a xlink:href="../../d9/d98/class_s_switch.html#a6ff09d0850d551571dc333fb74ff8628" target="_top" xlink:title=" ">
<polygon fill="white" stroke="black" points="911,-43.9696 911,-62.9696 994,-62.9696 994,-43.9696 911,-43.9696"/>
<text text-anchor="middle" x="952.5" y="-50.9696" font-family="Helvetica,sans-Serif" font-size="10.00">SSwitch::active</text>
</a>
</g>
</g>
<!-- Node13&#45;&gt;Node14 -->
<g id="edge14" class="edge"><title>Node13&#45;&gt;Node14</title>
<path fill="none" stroke="midnightblue" d="M841.51,-53.4696C861.828,-53.4696 882.753,-53.4696 900.826,-53.4696"/>
<polygon fill="midnightblue" stroke="midnightblue" points="900.83,-56.9697 910.83,-53.4696 900.83,-49.9697 900.83,-56.9697"/>
</g>
</g>
</svg>
