<?xml version="1.0" encoding="UTF-8" standalone="no"?>
<!DOCTYPE svg PUBLIC "-//W3C//DTD SVG 1.1//EN"
 "http://www.w3.org/Graphics/SVG/1.1/DTD/svg11.dtd">
<!-- Generated by graphviz version 2.38.0 (20140413.2041)
 -->
<!-- Title: TMC2208Stepper::intpol Pages: 1 -->
<svg width="1022pt" height="235pt"
 viewBox="0.00 0.00 1022.00 235.47" xmlns="http://www.w3.org/2000/svg" xmlns:xlink="http://www.w3.org/1999/xlink">
<g id="graph0" class="graph" transform="scale(1 1) rotate(0) translate(4 231.47)">
<title>TMC2208Stepper::intpol</title>
<polygon fill="white" stroke="none" points="-4,4 -4,-231.47 1018,-231.47 1018,4 -4,4"/>
<!-- Node1 -->
<g id="node1" class="node"><title>Node1</title>
<g id="a_node1"><a xlink:title=" ">
<polygon fill="#bfbfbf" stroke="black" points="0,-81.9696 0,-100.97 121,-100.97 121,-81.9696 0,-81.9696"/>
<text text-anchor="middle" x="60.5" y="-88.9696" font-family="Helvetica,sans-Serif" font-size="10.00">TMC2208Stepper::intpol</text>
</a>
</g>
</g>
<!-- Node2 -->
<g id="node2" class="node"><title>Node2</title>
<g id="a_node2"><a xlink:href="../../d6/d7e/class_t_m_c2208_stepper.html#aa11281f54c293f3ff2539b1a583682a9" target="_top" xlink:title=" ">
<polygon fill="white" stroke="black" points="157,-81.9696 157,-100.97 309,-100.97 309,-81.9696 157,-81.9696"/>
<text text-anchor="middle" x="233" y="-88.9696" font-family="Helvetica,sans-Serif" font-size="10.00">TMC2208Stepper::CHOPCONF</text>
</a>
</g>
</g>
<!-- Node1&#45;&gt;Node2 -->
<g id="edge1" class="edge"><title>Node1&#45;&gt;Node2</title>
<path fill="none" stroke="midnightblue" d="M121.133,-91.4696C129.415,-91.4696 138.053,-91.4696 146.692,-91.4696"/>
<polygon fill="midnightblue" stroke="midnightblue" points="146.813,-94.9697 156.813,-91.4696 146.813,-87.9697 146.813,-94.9697"/>
</g>
<!-- Node3 -->
<g id="node3" class="node"><title>Node3</title>
<g id="a_node3"><a xlink:href="../../d6/d7e/class_t_m_c2208_stepper.html#a2fae2050849c3ab7968012def8ea1cc5" target="_top" xlink:title=" ">
<polygon fill="white" stroke="black" points="345,-81.9696 345,-100.97 461,-100.97 461,-81.9696 345,-81.9696"/>
<text text-anchor="middle" x="403" y="-88.9696" font-family="Helvetica,sans-Serif" font-size="10.00">TMC2208Stepper::read</text>
</a>
</g>
</g>
<!-- Node2&#45;&gt;Node3 -->
<g id="edge2" class="edge"><title>Node2&#45;&gt;Node3</title>
<path fill="none" stroke="midnightblue" d="M309.155,-91.4696C317.664,-91.4696 326.296,-91.4696 334.696,-91.4696"/>
<polygon fill="midnightblue" stroke="midnightblue" points="334.802,-94.9697 344.802,-91.4696 334.802,-87.9697 334.802,-94.9697"/>
</g>
<!-- Node4 -->
<g id="node4" class="node"><title>Node4</title>
<g id="a_node4"><a xlink:href="../../d6/d7e/class_t_m_c2208_stepper.html#a321ad81155b7a20c0858920d32d0b074" target="_top" xlink:title=" ">
<polygon fill="white" stroke="black" points="506,-157.97 506,-176.97 672,-176.97 672,-157.97 506,-157.97"/>
<text text-anchor="middle" x="589" y="-164.97" font-family="Helvetica,sans-Serif" font-size="10.00">TMC2208Stepper::_sendDatagram</text>
</a>
</g>
</g>
<!-- Node3&#45;&gt;Node4 -->
<g id="edge3" class="edge"><title>Node3&#45;&gt;Node4</title>
<path fill="none" stroke="midnightblue" d="M416.494,-101.088C433.681,-113.843 466.022,-136.174 497,-148.47 503.6,-151.089 510.62,-153.37 517.72,-155.35"/>
<polygon fill="midnightblue" stroke="midnightblue" points="516.861,-158.743 527.42,-157.869 518.62,-151.968 516.861,-158.743"/>
</g>
<!-- Node10 -->
<g id="node10" class="node"><title>Node10</title>
<g id="a_node10"><a xlink:href="../../d6/d7e/class_t_m_c2208_stepper.html#a409c19fa6b052a370a317d061bf9af4e" target="_top" xlink:title=" ">
<polygon fill="white" stroke="black" points="521,-119.97 521,-138.97 657,-138.97 657,-119.97 521,-119.97"/>
<text text-anchor="middle" x="589" y="-126.97" font-family="Helvetica,sans-Serif" font-size="10.00">TMC2208Stepper::calcCRC</text>
</a>
</g>
</g>
<!-- Node3&#45;&gt;Node10 -->
<g id="edge10" class="edge"><title>Node3&#45;&gt;Node10</title>
<path fill="none" stroke="midnightblue" d="M450.431,-101.059C475.149,-106.163 505.739,-112.481 531.792,-117.861"/>
<polygon fill="midnightblue" stroke="midnightblue" points="531.402,-121.355 541.903,-119.95 532.817,-114.499 531.402,-121.355"/>
</g>
<!-- Node11 -->
<g id="node11" class="node"><title>Node11</title>
<g id="a_node11"><a xlink:href="../../d6/d7e/class_t_m_c2208_stepper.html#a673ade174158b47e3b345b1d7b3c473d" target="_top" xlink:title=" ">
<polygon fill="white" stroke="black" points="497,-81.9696 497,-100.97 681,-100.97 681,-81.9696 497,-81.9696"/>
<text text-anchor="middle" x="589" y="-88.9696" font-family="Helvetica,sans-Serif" font-size="10.00">TMC2208Stepper::postCommunication</text>
</a>
</g>
</g>
<!-- Node3&#45;&gt;Node11 -->
<g id="edge11" class="edge"><title>Node3&#45;&gt;Node11</title>
<path fill="none" stroke="midnightblue" d="M461.21,-91.4696C469.323,-91.4696 477.86,-91.4696 486.51,-91.4696"/>
<polygon fill="midnightblue" stroke="midnightblue" points="486.697,-94.9697 496.697,-91.4696 486.697,-87.9697 486.697,-94.9697"/>
</g>
<!-- Node12 -->
<g id="node12" class="node"><title>Node12</title>
<g id="a_node12"><a xlink:href="../../d6/d7e/class_t_m_c2208_stepper.html#a0ba01db6c4c01da7cb0ace8a524ab1da" target="_top" xlink:title=" ">
<polygon fill="white" stroke="black" points="499.5,-43.9696 499.5,-62.9696 678.5,-62.9696 678.5,-43.9696 499.5,-43.9696"/>
<text text-anchor="middle" x="589" y="-50.9696" font-family="Helvetica,sans-Serif" font-size="10.00">TMC2208Stepper::preCommunication</text>
</a>
</g>
</g>
<!-- Node3&#45;&gt;Node12 -->
<g id="edge12" class="edge"><title>Node3&#45;&gt;Node12</title>
<path fill="none" stroke="midnightblue" d="M450.431,-81.8806C475.149,-76.7758 505.739,-70.4583 531.792,-65.0778"/>
<polygon fill="midnightblue" stroke="midnightblue" points="532.817,-68.44 541.903,-62.9897 531.402,-61.5846 532.817,-68.44"/>
</g>
<!-- Node5 -->
<g id="node5" class="node"><title>Node5</title>
<g id="a_node5"><a xlink:href="../../d6/d7e/class_t_m_c2208_stepper.html#a7a670b15f45466f8d167a9b80fbf384f" target="_top" xlink:title=" ">
<polygon fill="white" stroke="black" points="722.5,-207.97 722.5,-226.97 856.5,-226.97 856.5,-207.97 722.5,-207.97"/>
<text text-anchor="middle" x="789.5" y="-214.97" font-family="Helvetica,sans-Serif" font-size="10.00">TMC2208Stepper::available</text>
</a>
</g>
</g>
<!-- Node4&#45;&gt;Node5 -->
<g id="edge4" class="edge"><title>Node4&#45;&gt;Node5</title>
<path fill="none" stroke="midnightblue" d="M627.804,-176.992C659.849,-185.064 705.983,-196.684 740.607,-205.406"/>
<polygon fill="midnightblue" stroke="midnightblue" points="739.948,-208.849 750.5,-207.898 741.657,-202.061 739.948,-208.849"/>
</g>
<!-- Node6 -->
<g id="node6" class="node"><title>Node6</title>
<g id="a_node6"><a xlink:href="../../d6/d7e/class_t_m_c2208_stepper.html#a4ec5d2b2f5a31259c7aba1f3208d63b8" target="_top" xlink:title=" ">
<polygon fill="white" stroke="black" points="731.5,-169.97 731.5,-188.97 847.5,-188.97 847.5,-169.97 731.5,-169.97"/>
<text text-anchor="middle" x="789.5" y="-176.97" font-family="Helvetica,sans-Serif" font-size="10.00">TMC2208Stepper::ms2</text>
</a>
</g>
</g>
<!-- Node4&#45;&gt;Node6 -->
<g id="edge5" class="edge"><title>Node4&#45;&gt;Node6</title>
<path fill="none" stroke="midnightblue" d="M672.17,-172.437C688.532,-173.426 705.531,-174.454 721.318,-175.408"/>
<polygon fill="midnightblue" stroke="midnightblue" points="721.305,-178.914 731.498,-176.024 721.727,-171.927 721.305,-178.914"/>
</g>
<!-- Node8 -->
<g id="node8" class="node"><title>Node8</title>
<g id="a_node8"><a xlink:href="../../d6/d7e/class_t_m_c2208_stepper.html#a129ceb04c3ea18e2c4ec1a59a51ece85" target="_top" xlink:title=" ">
<polygon fill="white" stroke="black" points="717,-131.97 717,-150.97 862,-150.97 862,-131.97 717,-131.97"/>
<text text-anchor="middle" x="789.5" y="-138.97" font-family="Helvetica,sans-Serif" font-size="10.00">TMC2208Stepper::serial_read</text>
</a>
</g>
</g>
<!-- Node4&#45;&gt;Node8 -->
<g id="edge8" class="edge"><title>Node4&#45;&gt;Node8</title>
<path fill="none" stroke="midnightblue" d="M662.787,-157.936C677.081,-156.064 692.166,-154.088 706.731,-152.18"/>
<polygon fill="midnightblue" stroke="midnightblue" points="707.256,-155.641 716.716,-150.872 706.346,-148.7 707.256,-155.641"/>
</g>
<!-- Node9 -->
<g id="node9" class="node"><title>Node9</title>
<g id="a_node9"><a xlink:href="../../d6/d7e/class_t_m_c2208_stepper.html#aa7f2c1a3a1cda9a328c186c6d7cbfe41" target="_top" xlink:title=" ">
<polygon fill="white" stroke="black" points="729,-82.4696 729,-112.47 850,-112.47 850,-82.4696 729,-82.4696"/>
<text text-anchor="start" x="737" y="-100.47" font-family="Helvetica,sans-Serif" font-size="10.00">TMC2208Stepper::serial</text>
<text text-anchor="middle" x="789.5" y="-89.4696" font-family="Helvetica,sans-Serif" font-size="10.00">_write</text>
</a>
</g>
</g>
<!-- Node4&#45;&gt;Node9 -->
<g id="edge9" class="edge"><title>Node4&#45;&gt;Node9</title>
<path fill="none" stroke="midnightblue" d="M653.251,-157.863C662.759,-155.397 672.289,-152.315 681,-148.47 699.056,-140.5 699.502,-131.6 717,-122.47 721.044,-120.36 725.305,-118.362 729.65,-116.486"/>
<polygon fill="midnightblue" stroke="midnightblue" points="731.304,-119.591 739.243,-112.575 728.662,-113.109 731.304,-119.591"/>
</g>
<!-- Node7 -->
<g id="node7" class="node"><title>Node7</title>
<g id="a_node7"><a xlink:href="../../d6/d7e/class_t_m_c2208_stepper.html#a5441dd87d0bcea4ffc309cb012166a57" target="_top" xlink:title=" ">
<polygon fill="white" stroke="black" points="898,-87.9696 898,-106.97 1014,-106.97 1014,-87.9696 898,-87.9696"/>
<text text-anchor="middle" x="956" y="-94.9696" font-family="Helvetica,sans-Serif" font-size="10.00">TMC2208Stepper::IOIN</text>
</a>
</g>
</g>
<!-- Node6&#45;&gt;Node7 -->
<g id="edge6" class="edge"><title>Node6&#45;&gt;Node7</title>
<path fill="none" stroke="midnightblue" d="M835.551,-169.968C844.507,-167.396 853.702,-164.251 862,-160.47 889.451,-147.961 917.683,-127.566 935.73,-113.383"/>
<polygon fill="midnightblue" stroke="midnightblue" points="938.106,-115.965 943.723,-106.982 933.73,-110.501 938.106,-115.965"/>
</g>
<!-- Node7&#45;&gt;Node3 -->
<g id="edge7" class="edge"><title>Node7&#45;&gt;Node3</title>
<path fill="none" stroke="midnightblue" d="M945.209,-87.8203C929.34,-72.9361 896.305,-44.9951 862,-34.4696 706.914,13.1145 653.13,9.56986 497,-34.4696 468.807,-42.4221 440.729,-61.5756 422.921,-75.4902"/>
<polygon fill="midnightblue" stroke="midnightblue" points="420.643,-72.8308 415.049,-81.8281 425.033,-78.2834 420.643,-72.8308"/>
</g>
<!-- Node13 -->
<g id="node13" class="node"><title>Node13</title>
<g id="a_node13"><a xlink:href="../../d9/d98/class_s_switch.html#a6ff09d0850d551571dc333fb74ff8628" target="_top" xlink:title=" ">
<polygon fill="white" stroke="black" points="748,-43.9696 748,-62.9696 831,-62.9696 831,-43.9696 748,-43.9696"/>
<text text-anchor="middle" x="789.5" y="-50.9696" font-family="Helvetica,sans-Serif" font-size="10.00">SSwitch::active</text>
</a>
</g>
</g>
<!-- Node12&#45;&gt;Node13 -->
<g id="edge13" class="edge"><title>Node12&#45;&gt;Node13</title>
<path fill="none" stroke="midnightblue" d="M678.51,-53.4696C698.828,-53.4696 719.753,-53.4696 737.826,-53.4696"/>
<polygon fill="midnightblue" stroke="midnightblue" points="737.83,-56.9697 747.83,-53.4696 737.83,-49.9697 737.83,-56.9697"/>
</g>
</g>
</svg>
