<?xml version="1.0" encoding="UTF-8" standalone="no"?>
<!DOCTYPE svg PUBLIC "-//W3C//DTD SVG 1.1//EN"
 "http://www.w3.org/Graphics/SVG/1.1/DTD/svg11.dtd">
<!-- Generated by graphviz version 2.38.0 (20140413.2041)
 -->
<!-- Title: TMC5160Stepper::drv_enn Pages: 1 -->
<svg width="1115pt" height="192pt"
 viewBox="0.00 0.00 1115.00 191.50" xmlns="http://www.w3.org/2000/svg" xmlns:xlink="http://www.w3.org/1999/xlink">
<g id="graph0" class="graph" transform="scale(1 1) rotate(0) translate(4 187.5)">
<title>TMC5160Stepper::drv_enn</title>
<polygon fill="white" stroke="none" points="-4,4 -4,-187.5 1111,-187.5 1111,4 -4,4"/>
<!-- Node1 -->
<g id="node1" class="node"><title>Node1</title>
<g id="a_node1"><a xlink:title=" ">
<polygon fill="#bfbfbf" stroke="black" points="0,-88 0,-107 131,-107 131,-88 0,-88"/>
<text text-anchor="middle" x="65.5" y="-95" font-family="Helvetica,sans-Serif" font-size="10.00">TMC5160Stepper::drv_enn</text>
</a>
</g>
</g>
<!-- Node2 -->
<g id="node2" class="node"><title>Node2</title>
<g id="a_node2"><a xlink:href="../../d9/df8/class_t_m_c5130_stepper.html#a95c4932eec04832c7543b7908555b126" target="_top" xlink:title=" ">
<polygon fill="white" stroke="black" points="167,-82.5 167,-112.5 277,-112.5 277,-82.5 167,-82.5"/>
<text text-anchor="start" x="175" y="-100.5" font-family="Helvetica,sans-Serif" font-size="10.00">TMC5130Stepper::drv</text>
<text text-anchor="middle" x="222" y="-89.5" font-family="Helvetica,sans-Serif" font-size="10.00">_enn_cfg6</text>
</a>
</g>
</g>
<!-- Node1&#45;&gt;Node2 -->
<g id="edge1" class="edge"><title>Node1&#45;&gt;Node2</title>
<path fill="none" stroke="midnightblue" d="M131.127,-97.5C139.592,-97.5 148.265,-97.5 156.725,-97.5"/>
<polygon fill="midnightblue" stroke="midnightblue" points="156.909,-101 166.909,-97.5 156.909,-94.0001 156.909,-101"/>
</g>
<!-- Node3 -->
<g id="node3" class="node"><title>Node3</title>
<g id="a_node3"><a xlink:href="../../d9/df8/class_t_m_c5130_stepper.html#a74e9e262a8da77925d246916b431161d" target="_top" xlink:title=" ">
<polygon fill="white" stroke="black" points="313,-88 313,-107 429,-107 429,-88 313,-88"/>
<text text-anchor="middle" x="371" y="-95" font-family="Helvetica,sans-Serif" font-size="10.00">TMC5130Stepper::IOIN</text>
</a>
</g>
</g>
<!-- Node2&#45;&gt;Node3 -->
<g id="edge2" class="edge"><title>Node2&#45;&gt;Node3</title>
<path fill="none" stroke="midnightblue" d="M277.32,-97.5C285.576,-97.5 294.18,-97.5 302.673,-97.5"/>
<polygon fill="midnightblue" stroke="midnightblue" points="302.947,-101 312.947,-97.5 302.947,-94.0001 302.947,-101"/>
</g>
<!-- Node4 -->
<g id="node4" class="node"><title>Node4</title>
<g id="a_node4"><a xlink:href="../../dd/deb/class_t_m_c2130_stepper.html#a161ca6ebe3736454e17e9236572a6001" target="_top" xlink:title=" ">
<polygon fill="white" stroke="black" points="465,-88 465,-107 581,-107 581,-88 465,-88"/>
<text text-anchor="middle" x="523" y="-95" font-family="Helvetica,sans-Serif" font-size="10.00">TMC2130Stepper::read</text>
</a>
</g>
</g>
<!-- Node3&#45;&gt;Node4 -->
<g id="edge3" class="edge"><title>Node3&#45;&gt;Node4</title>
<path fill="none" stroke="midnightblue" d="M429.136,-97.5C437.377,-97.5 445.923,-97.5 454.344,-97.5"/>
<polygon fill="midnightblue" stroke="midnightblue" points="454.526,-101 464.525,-97.5 454.525,-94.0001 454.526,-101"/>
</g>
<!-- Node5 -->
<g id="node5" class="node"><title>Node5</title>
<g id="a_node5"><a xlink:href="../../dd/deb/class_t_m_c2130_stepper.html#a1fc868601a32fb0cd8fc536dafa8ecea" target="_top" xlink:title=" ">
<polygon fill="white" stroke="black" points="617,-164 617,-183 788,-183 788,-164 617,-164"/>
<text text-anchor="middle" x="702.5" y="-171" font-family="Helvetica,sans-Serif" font-size="10.00">TMC2130Stepper::beginTransaction</text>
</a>
</g>
</g>
<!-- Node4&#45;&gt;Node5 -->
<g id="edge4" class="edge"><title>Node4&#45;&gt;Node5</title>
<path fill="none" stroke="midnightblue" d="M536.522,-107.048C553.741,-119.725 586.117,-141.967 617,-154.5 623.272,-157.045 629.951,-159.283 636.7,-161.242"/>
<polygon fill="midnightblue" stroke="midnightblue" points="636.032,-164.687 646.599,-163.918 637.858,-157.93 636.032,-164.687"/>
</g>
<!-- Node6 -->
<g id="node6" class="node"><title>Node6</title>
<g id="a_node6"><a xlink:href="../../dd/deb/class_t_m_c2130_stepper.html#aeace18dcee808585dd4449e783811600" target="_top" xlink:title=" ">
<polygon fill="white" stroke="black" points="620.5,-126 620.5,-145 784.5,-145 784.5,-126 620.5,-126"/>
<text text-anchor="middle" x="702.5" y="-133" font-family="Helvetica,sans-Serif" font-size="10.00">TMC2130Stepper::endTransaction</text>
</a>
</g>
</g>
<!-- Node4&#45;&gt;Node6 -->
<g id="edge5" class="edge"><title>Node4&#45;&gt;Node6</title>
<path fill="none" stroke="midnightblue" d="M568.791,-107.089C592.53,-112.171 621.884,-118.455 646.944,-123.82"/>
<polygon fill="midnightblue" stroke="midnightblue" points="646.52,-127.309 657.031,-125.98 647.986,-120.464 646.52,-127.309"/>
</g>
<!-- Node7 -->
<g id="node7" class="node"><title>Node7</title>
<g id="a_node7"><a xlink:href="../../dd/deb/class_t_m_c2130_stepper.html#a4a8f3b6ac100045ed5f84fe4d18d9d5a" target="_top" xlink:title=" ">
<polygon fill="white" stroke="black" points="626.5,-88 626.5,-107 778.5,-107 778.5,-88 626.5,-88"/>
<text text-anchor="middle" x="702.5" y="-95" font-family="Helvetica,sans-Serif" font-size="10.00">TMC2130Stepper::switchCSpin</text>
</a>
</g>
</g>
<!-- Node4&#45;&gt;Node7 -->
<g id="edge6" class="edge"><title>Node4&#45;&gt;Node7</title>
<path fill="none" stroke="midnightblue" d="M581.139,-97.5C592.27,-97.5 604.163,-97.5 615.981,-97.5"/>
<polygon fill="midnightblue" stroke="midnightblue" points="616.325,-101 626.325,-97.5 616.324,-94.0001 616.325,-101"/>
</g>
<!-- Node8 -->
<g id="node8" class="node"><title>Node8</title>
<g id="a_node8"><a xlink:href="../../dd/deb/class_t_m_c2130_stepper.html#a0673af4887ec52b23aa658aa290f6623" target="_top" xlink:title=" ">
<polygon fill="white" stroke="black" points="824,-28 824,-47 954,-47 954,-28 824,-28"/>
<text text-anchor="middle" x="889" y="-35" font-family="Helvetica,sans-Serif" font-size="10.00">TMC2130Stepper::transfer</text>
</a>
</g>
</g>
<!-- Node4&#45;&gt;Node8 -->
<g id="edge7" class="edge"><title>Node4&#45;&gt;Node8</title>
<path fill="none" stroke="midnightblue" d="M568.378,-87.9498C583.744,-84.7717 601.099,-81.3252 617,-78.5 683.378,-66.7062 759.291,-55.4085 813.852,-47.6702"/>
<polygon fill="midnightblue" stroke="midnightblue" points="814.372,-51.1316 823.784,-46.2674 813.393,-44.2004 814.372,-51.1316"/>
</g>
<!-- Node10 -->
<g id="node10" class="node"><title>Node10</title>
<g id="a_node10"><a xlink:href="../../dd/deb/class_t_m_c2130_stepper.html#aba94fc7bb8e2c8c12191f44561f19d95" target="_top" xlink:title=" ">
<polygon fill="white" stroke="black" points="637.5,-0.5 637.5,-30.5 767.5,-30.5 767.5,-0.5 637.5,-0.5"/>
<text text-anchor="start" x="645.5" y="-18.5" font-family="Helvetica,sans-Serif" font-size="10.00">TMC2130Stepper::transfer</text>
<text text-anchor="middle" x="702.5" y="-7.5" font-family="Helvetica,sans-Serif" font-size="10.00">EmptyBytes</text>
</a>
</g>
</g>
<!-- Node4&#45;&gt;Node10 -->
<g id="edge9" class="edge"><title>Node4&#45;&gt;Node10</title>
<path fill="none" stroke="midnightblue" d="M539.378,-87.8381C557.488,-76.7136 588.694,-58.3277 617,-45.5 625.84,-41.494 635.386,-37.66 644.769,-34.1517"/>
<polygon fill="midnightblue" stroke="midnightblue" points="646.257,-37.3346 654.453,-30.6201 643.859,-30.7583 646.257,-37.3346"/>
</g>
<!-- Node9 -->
<g id="node9" class="node"><title>Node9</title>
<g id="a_node9"><a xlink:href="../../df/d8b/class_s_w___s_p_i_class.html#af260fdc0af3f1312b106483161e559c3" target="_top" xlink:title=" ">
<polygon fill="white" stroke="black" points="990,-28 990,-47 1107,-47 1107,-28 990,-28"/>
<text text-anchor="middle" x="1048.5" y="-35" font-family="Helvetica,sans-Serif" font-size="10.00">SW_SPIClass::transfer</text>
</a>
</g>
</g>
<!-- Node8&#45;&gt;Node9 -->
<g id="edge8" class="edge"><title>Node8&#45;&gt;Node9</title>
<path fill="none" stroke="midnightblue" d="M954.061,-37.5C962.477,-37.5 971.125,-37.5 979.603,-37.5"/>
<polygon fill="midnightblue" stroke="midnightblue" points="979.831,-41.0001 989.831,-37.5 979.831,-34.0001 979.831,-41.0001"/>
</g>
<!-- Node10&#45;&gt;Node8 -->
<g id="edge10" class="edge"><title>Node10&#45;&gt;Node8</title>
<path fill="none" stroke="midnightblue" d="M767.511,-23.1328C782.452,-24.9144 798.487,-26.8263 813.827,-28.6556"/>
<polygon fill="midnightblue" stroke="midnightblue" points="813.445,-32.1347 823.79,-29.8435 814.274,-25.184 813.445,-32.1347"/>
</g>
</g>
</svg>
