<?xml version="1.0" encoding="UTF-8" standalone="no"?>
<!DOCTYPE svg PUBLIC "-//W3C//DTD SVG 1.1//EN"
 "http://www.w3.org/Graphics/SVG/1.1/DTD/svg11.dtd">
<!-- Generated by graphviz version 2.38.0 (20140413.2041)
 -->
<!-- Title: TMC5160Stepper::ENC_STATUS Pages: 1 -->
<svg width="804pt" height="192pt"
 viewBox="0.00 0.00 804.00 191.50" xmlns="http://www.w3.org/2000/svg" xmlns:xlink="http://www.w3.org/1999/xlink">
<g id="graph0" class="graph" transform="scale(1 1) rotate(0) translate(4 187.5)">
<title>TMC5160Stepper::ENC_STATUS</title>
<polygon fill="white" stroke="none" points="-4,4 -4,-187.5 800,-187.5 800,4 -4,4"/>
<!-- Node1 -->
<g id="node1" class="node"><title>Node1</title>
<g id="a_node1"><a xlink:title=" ">
<polygon fill="#bfbfbf" stroke="black" points="0,-82.5 0,-112.5 118,-112.5 118,-82.5 0,-82.5"/>
<text text-anchor="start" x="8" y="-100.5" font-family="Helvetica,sans-Serif" font-size="10.00">TMC5160Stepper::ENC</text>
<text text-anchor="middle" x="59" y="-89.5" font-family="Helvetica,sans-Serif" font-size="10.00">_STATUS</text>
</a>
</g>
</g>
<!-- Node2 -->
<g id="node2" class="node"><title>Node2</title>
<g id="a_node2"><a xlink:href="../../dd/deb/class_t_m_c2130_stepper.html#a161ca6ebe3736454e17e9236572a6001" target="_top" xlink:title=" ">
<polygon fill="white" stroke="black" points="154,-88 154,-107 270,-107 270,-88 154,-88"/>
<text text-anchor="middle" x="212" y="-95" font-family="Helvetica,sans-Serif" font-size="10.00">TMC2130Stepper::read</text>
</a>
</g>
</g>
<!-- Node1&#45;&gt;Node2 -->
<g id="edge1" class="edge"><title>Node1&#45;&gt;Node2</title>
<path fill="none" stroke="midnightblue" d="M118.381,-97.5C126.641,-97.5 135.19,-97.5 143.603,-97.5"/>
<polygon fill="midnightblue" stroke="midnightblue" points="143.769,-101 153.769,-97.5 143.769,-94.0001 143.769,-101"/>
</g>
<!-- Node3 -->
<g id="node3" class="node"><title>Node3</title>
<g id="a_node3"><a xlink:href="../../dd/deb/class_t_m_c2130_stepper.html#a1fc868601a32fb0cd8fc536dafa8ecea" target="_top" xlink:title=" ">
<polygon fill="white" stroke="black" points="306,-164 306,-183 477,-183 477,-164 306,-164"/>
<text text-anchor="middle" x="391.5" y="-171" font-family="Helvetica,sans-Serif" font-size="10.00">TMC2130Stepper::beginTransaction</text>
</a>
</g>
</g>
<!-- Node2&#45;&gt;Node3 -->
<g id="edge2" class="edge"><title>Node2&#45;&gt;Node3</title>
<path fill="none" stroke="midnightblue" d="M225.522,-107.048C242.741,-119.725 275.117,-141.967 306,-154.5 312.272,-157.045 318.951,-159.283 325.7,-161.242"/>
<polygon fill="midnightblue" stroke="midnightblue" points="325.032,-164.687 335.599,-163.918 326.858,-157.93 325.032,-164.687"/>
</g>
<!-- Node4 -->
<g id="node4" class="node"><title>Node4</title>
<g id="a_node4"><a xlink:href="../../dd/deb/class_t_m_c2130_stepper.html#aeace18dcee808585dd4449e783811600" target="_top" xlink:title=" ">
<polygon fill="white" stroke="black" points="309.5,-126 309.5,-145 473.5,-145 473.5,-126 309.5,-126"/>
<text text-anchor="middle" x="391.5" y="-133" font-family="Helvetica,sans-Serif" font-size="10.00">TMC2130Stepper::endTransaction</text>
</a>
</g>
</g>
<!-- Node2&#45;&gt;Node4 -->
<g id="edge3" class="edge"><title>Node2&#45;&gt;Node4</title>
<path fill="none" stroke="midnightblue" d="M257.791,-107.089C281.53,-112.171 310.884,-118.455 335.944,-123.82"/>
<polygon fill="midnightblue" stroke="midnightblue" points="335.52,-127.309 346.031,-125.98 336.986,-120.464 335.52,-127.309"/>
</g>
<!-- Node5 -->
<g id="node5" class="node"><title>Node5</title>
<g id="a_node5"><a xlink:href="../../dd/deb/class_t_m_c2130_stepper.html#a4a8f3b6ac100045ed5f84fe4d18d9d5a" target="_top" xlink:title=" ">
<polygon fill="white" stroke="black" points="315.5,-88 315.5,-107 467.5,-107 467.5,-88 315.5,-88"/>
<text text-anchor="middle" x="391.5" y="-95" font-family="Helvetica,sans-Serif" font-size="10.00">TMC2130Stepper::switchCSpin</text>
</a>
</g>
</g>
<!-- Node2&#45;&gt;Node5 -->
<g id="edge4" class="edge"><title>Node2&#45;&gt;Node5</title>
<path fill="none" stroke="midnightblue" d="M270.139,-97.5C281.27,-97.5 293.163,-97.5 304.981,-97.5"/>
<polygon fill="midnightblue" stroke="midnightblue" points="305.325,-101 315.325,-97.5 305.324,-94.0001 305.325,-101"/>
</g>
<!-- Node6 -->
<g id="node6" class="node"><title>Node6</title>
<g id="a_node6"><a xlink:href="../../dd/deb/class_t_m_c2130_stepper.html#a0673af4887ec52b23aa658aa290f6623" target="_top" xlink:title=" ">
<polygon fill="white" stroke="black" points="513,-28 513,-47 643,-47 643,-28 513,-28"/>
<text text-anchor="middle" x="578" y="-35" font-family="Helvetica,sans-Serif" font-size="10.00">TMC2130Stepper::transfer</text>
</a>
</g>
</g>
<!-- Node2&#45;&gt;Node6 -->
<g id="edge5" class="edge"><title>Node2&#45;&gt;Node6</title>
<path fill="none" stroke="midnightblue" d="M257.378,-87.9498C272.744,-84.7717 290.099,-81.3252 306,-78.5 372.378,-66.7062 448.291,-55.4085 502.852,-47.6702"/>
<polygon fill="midnightblue" stroke="midnightblue" points="503.372,-51.1316 512.784,-46.2674 502.393,-44.2004 503.372,-51.1316"/>
</g>
<!-- Node8 -->
<g id="node8" class="node"><title>Node8</title>
<g id="a_node8"><a xlink:href="../../dd/deb/class_t_m_c2130_stepper.html#aba94fc7bb8e2c8c12191f44561f19d95" target="_top" xlink:title=" ">
<polygon fill="white" stroke="black" points="326.5,-0.5 326.5,-30.5 456.5,-30.5 456.5,-0.5 326.5,-0.5"/>
<text text-anchor="start" x="334.5" y="-18.5" font-family="Helvetica,sans-Serif" font-size="10.00">TMC2130Stepper::transfer</text>
<text text-anchor="middle" x="391.5" y="-7.5" font-family="Helvetica,sans-Serif" font-size="10.00">EmptyBytes</text>
</a>
</g>
</g>
<!-- Node2&#45;&gt;Node8 -->
<g id="edge7" class="edge"><title>Node2&#45;&gt;Node8</title>
<path fill="none" stroke="midnightblue" d="M228.378,-87.8381C246.488,-76.7136 277.694,-58.3277 306,-45.5 314.84,-41.494 324.386,-37.66 333.769,-34.1517"/>
<polygon fill="midnightblue" stroke="midnightblue" points="335.257,-37.3346 343.453,-30.6201 332.859,-30.7583 335.257,-37.3346"/>
</g>
<!-- Node7 -->
<g id="node7" class="node"><title>Node7</title>
<g id="a_node7"><a xlink:href="../../df/d8b/class_s_w___s_p_i_class.html#af260fdc0af3f1312b106483161e559c3" target="_top" xlink:title=" ">
<polygon fill="white" stroke="black" points="679,-28 679,-47 796,-47 796,-28 679,-28"/>
<text text-anchor="middle" x="737.5" y="-35" font-family="Helvetica,sans-Serif" font-size="10.00">SW_SPIClass::transfer</text>
</a>
</g>
</g>
<!-- Node6&#45;&gt;Node7 -->
<g id="edge6" class="edge"><title>Node6&#45;&gt;Node7</title>
<path fill="none" stroke="midnightblue" d="M643.061,-37.5C651.477,-37.5 660.125,-37.5 668.603,-37.5"/>
<polygon fill="midnightblue" stroke="midnightblue" points="668.831,-41.0001 678.831,-37.5 668.831,-34.0001 668.831,-41.0001"/>
</g>
<!-- Node8&#45;&gt;Node6 -->
<g id="edge8" class="edge"><title>Node8&#45;&gt;Node6</title>
<path fill="none" stroke="midnightblue" d="M456.511,-23.1328C471.452,-24.9144 487.487,-26.8263 502.827,-28.6556"/>
<polygon fill="midnightblue" stroke="midnightblue" points="502.445,-32.1347 512.79,-29.8435 503.274,-25.184 502.445,-32.1347"/>
</g>
</g>
</svg>
