<?xml version="1.0" encoding="UTF-8" standalone="no"?>
<!DOCTYPE svg PUBLIC "-//W3C//DTD SVG 1.1//EN"
 "http://www.w3.org/Graphics/SVG/1.1/DTD/svg11.dtd">
<!-- Generated by graphviz version 2.38.0 (20140413.2041)
 -->
<!-- Title: TMC5160Stepper::faststandstill Pages: 1 -->
<svg width="1194pt" height="192pt"
 viewBox="0.00 0.00 1194.00 191.50" xmlns="http://www.w3.org/2000/svg" xmlns:xlink="http://www.w3.org/1999/xlink">
<g id="graph0" class="graph" transform="scale(1 1) rotate(0) translate(4 187.5)">
<title>TMC5160Stepper::faststandstill</title>
<polygon fill="white" stroke="none" points="-4,4 -4,-187.5 1190,-187.5 1190,4 -4,4"/>
<!-- Node1 -->
<g id="node1" class="node"><title>Node1</title>
<g id="a_node1"><a xlink:title=" ">
<polygon fill="#bfbfbf" stroke="black" points="0,-88 0,-107 152,-107 152,-88 0,-88"/>
<text text-anchor="middle" x="76" y="-95" font-family="Helvetica,sans-Serif" font-size="10.00">TMC5160Stepper::faststandstill</text>
</a>
</g>
</g>
<!-- Node2 -->
<g id="node2" class="node"><title>Node2</title>
<g id="a_node2"><a xlink:href="../../d2/d6e/class_t_m_c5160_stepper.html#a6ec8fb09e247dab3a40e0d11699cafa4" target="_top" xlink:title=" ">
<polygon fill="white" stroke="black" points="188,-88 188,-107 340,-107 340,-88 188,-88"/>
<text text-anchor="middle" x="264" y="-95" font-family="Helvetica,sans-Serif" font-size="10.00">TMC5160Stepper::faststandstill</text>
</a>
</g>
</g>
<!-- Node1&#45;&gt;Node2 -->
<g id="edge1" class="edge"><title>Node1&#45;&gt;Node2</title>
<path fill="none" stroke="midnightblue" d="M152.117,-97.5C160.596,-97.5 169.281,-97.5 177.875,-97.5"/>
<polygon fill="midnightblue" stroke="midnightblue" points="177.905,-101 187.905,-97.5 177.905,-94.0001 177.905,-101"/>
</g>
<!-- Node3 -->
<g id="node3" class="node"><title>Node3</title>
<g id="a_node3"><a xlink:href="../../dd/deb/class_t_m_c2130_stepper.html#aee84a9abfc84b387c6ae5658f90bf684" target="_top" xlink:title=" ">
<polygon fill="white" stroke="black" points="376,-88 376,-107 508,-107 508,-88 376,-88"/>
<text text-anchor="middle" x="442" y="-95" font-family="Helvetica,sans-Serif" font-size="10.00">TMC2130Stepper::GCONF</text>
</a>
</g>
</g>
<!-- Node2&#45;&gt;Node3 -->
<g id="edge2" class="edge"><title>Node2&#45;&gt;Node3</title>
<path fill="none" stroke="midnightblue" d="M340.15,-97.5C348.586,-97.5 357.183,-97.5 365.621,-97.5"/>
<polygon fill="midnightblue" stroke="midnightblue" points="365.815,-101 375.815,-97.5 365.815,-94.0001 365.815,-101"/>
</g>
<!-- Node4 -->
<g id="node4" class="node"><title>Node4</title>
<g id="a_node4"><a xlink:href="../../dd/deb/class_t_m_c2130_stepper.html#a161ca6ebe3736454e17e9236572a6001" target="_top" xlink:title=" ">
<polygon fill="white" stroke="black" points="544,-88 544,-107 660,-107 660,-88 544,-88"/>
<text text-anchor="middle" x="602" y="-95" font-family="Helvetica,sans-Serif" font-size="10.00">TMC2130Stepper::read</text>
</a>
</g>
</g>
<!-- Node3&#45;&gt;Node4 -->
<g id="edge3" class="edge"><title>Node3&#45;&gt;Node4</title>
<path fill="none" stroke="midnightblue" d="M508.177,-97.5C516.517,-97.5 525.069,-97.5 533.445,-97.5"/>
<polygon fill="midnightblue" stroke="midnightblue" points="533.55,-101 543.55,-97.5 533.55,-94.0001 533.55,-101"/>
</g>
<!-- Node5 -->
<g id="node5" class="node"><title>Node5</title>
<g id="a_node5"><a xlink:href="../../dd/deb/class_t_m_c2130_stepper.html#a1fc868601a32fb0cd8fc536dafa8ecea" target="_top" xlink:title=" ">
<polygon fill="white" stroke="black" points="696,-164 696,-183 867,-183 867,-164 696,-164"/>
<text text-anchor="middle" x="781.5" y="-171" font-family="Helvetica,sans-Serif" font-size="10.00">TMC2130Stepper::beginTransaction</text>
</a>
</g>
</g>
<!-- Node4&#45;&gt;Node5 -->
<g id="edge4" class="edge"><title>Node4&#45;&gt;Node5</title>
<path fill="none" stroke="midnightblue" d="M615.522,-107.048C632.741,-119.725 665.117,-141.967 696,-154.5 702.272,-157.045 708.951,-159.283 715.7,-161.242"/>
<polygon fill="midnightblue" stroke="midnightblue" points="715.032,-164.687 725.599,-163.918 716.858,-157.93 715.032,-164.687"/>
</g>
<!-- Node6 -->
<g id="node6" class="node"><title>Node6</title>
<g id="a_node6"><a xlink:href="../../dd/deb/class_t_m_c2130_stepper.html#aeace18dcee808585dd4449e783811600" target="_top" xlink:title=" ">
<polygon fill="white" stroke="black" points="699.5,-126 699.5,-145 863.5,-145 863.5,-126 699.5,-126"/>
<text text-anchor="middle" x="781.5" y="-133" font-family="Helvetica,sans-Serif" font-size="10.00">TMC2130Stepper::endTransaction</text>
</a>
</g>
</g>
<!-- Node4&#45;&gt;Node6 -->
<g id="edge5" class="edge"><title>Node4&#45;&gt;Node6</title>
<path fill="none" stroke="midnightblue" d="M647.791,-107.089C671.53,-112.171 700.884,-118.455 725.944,-123.82"/>
<polygon fill="midnightblue" stroke="midnightblue" points="725.52,-127.309 736.031,-125.98 726.986,-120.464 725.52,-127.309"/>
</g>
<!-- Node7 -->
<g id="node7" class="node"><title>Node7</title>
<g id="a_node7"><a xlink:href="../../dd/deb/class_t_m_c2130_stepper.html#a4a8f3b6ac100045ed5f84fe4d18d9d5a" target="_top" xlink:title=" ">
<polygon fill="white" stroke="black" points="705.5,-88 705.5,-107 857.5,-107 857.5,-88 705.5,-88"/>
<text text-anchor="middle" x="781.5" y="-95" font-family="Helvetica,sans-Serif" font-size="10.00">TMC2130Stepper::switchCSpin</text>
</a>
</g>
</g>
<!-- Node4&#45;&gt;Node7 -->
<g id="edge6" class="edge"><title>Node4&#45;&gt;Node7</title>
<path fill="none" stroke="midnightblue" d="M660.139,-97.5C671.27,-97.5 683.163,-97.5 694.981,-97.5"/>
<polygon fill="midnightblue" stroke="midnightblue" points="695.325,-101 705.325,-97.5 695.324,-94.0001 695.325,-101"/>
</g>
<!-- Node8 -->
<g id="node8" class="node"><title>Node8</title>
<g id="a_node8"><a xlink:href="../../dd/deb/class_t_m_c2130_stepper.html#a0673af4887ec52b23aa658aa290f6623" target="_top" xlink:title=" ">
<polygon fill="white" stroke="black" points="903,-28 903,-47 1033,-47 1033,-28 903,-28"/>
<text text-anchor="middle" x="968" y="-35" font-family="Helvetica,sans-Serif" font-size="10.00">TMC2130Stepper::transfer</text>
</a>
</g>
</g>
<!-- Node4&#45;&gt;Node8 -->
<g id="edge7" class="edge"><title>Node4&#45;&gt;Node8</title>
<path fill="none" stroke="midnightblue" d="M647.378,-87.9498C662.744,-84.7717 680.099,-81.3252 696,-78.5 762.378,-66.7062 838.291,-55.4085 892.852,-47.6702"/>
<polygon fill="midnightblue" stroke="midnightblue" points="893.372,-51.1316 902.784,-46.2674 892.393,-44.2004 893.372,-51.1316"/>
</g>
<!-- Node10 -->
<g id="node10" class="node"><title>Node10</title>
<g id="a_node10"><a xlink:href="../../dd/deb/class_t_m_c2130_stepper.html#aba94fc7bb8e2c8c12191f44561f19d95" target="_top" xlink:title=" ">
<polygon fill="white" stroke="black" points="716.5,-0.5 716.5,-30.5 846.5,-30.5 846.5,-0.5 716.5,-0.5"/>
<text text-anchor="start" x="724.5" y="-18.5" font-family="Helvetica,sans-Serif" font-size="10.00">TMC2130Stepper::transfer</text>
<text text-anchor="middle" x="781.5" y="-7.5" font-family="Helvetica,sans-Serif" font-size="10.00">EmptyBytes</text>
</a>
</g>
</g>
<!-- Node4&#45;&gt;Node10 -->
<g id="edge9" class="edge"><title>Node4&#45;&gt;Node10</title>
<path fill="none" stroke="midnightblue" d="M618.378,-87.8381C636.488,-76.7136 667.694,-58.3277 696,-45.5 704.84,-41.494 714.386,-37.66 723.769,-34.1517"/>
<polygon fill="midnightblue" stroke="midnightblue" points="725.257,-37.3346 733.453,-30.6201 722.859,-30.7583 725.257,-37.3346"/>
</g>
<!-- Node9 -->
<g id="node9" class="node"><title>Node9</title>
<g id="a_node9"><a xlink:href="../../df/d8b/class_s_w___s_p_i_class.html#af260fdc0af3f1312b106483161e559c3" target="_top" xlink:title=" ">
<polygon fill="white" stroke="black" points="1069,-28 1069,-47 1186,-47 1186,-28 1069,-28"/>
<text text-anchor="middle" x="1127.5" y="-35" font-family="Helvetica,sans-Serif" font-size="10.00">SW_SPIClass::transfer</text>
</a>
</g>
</g>
<!-- Node8&#45;&gt;Node9 -->
<g id="edge8" class="edge"><title>Node8&#45;&gt;Node9</title>
<path fill="none" stroke="midnightblue" d="M1033.06,-37.5C1041.48,-37.5 1050.13,-37.5 1058.6,-37.5"/>
<polygon fill="midnightblue" stroke="midnightblue" points="1058.83,-41.0001 1068.83,-37.5 1058.83,-34.0001 1058.83,-41.0001"/>
</g>
<!-- Node10&#45;&gt;Node8 -->
<g id="edge10" class="edge"><title>Node10&#45;&gt;Node8</title>
<path fill="none" stroke="midnightblue" d="M846.511,-23.1328C861.452,-24.9144 877.487,-26.8263 892.827,-28.6556"/>
<polygon fill="midnightblue" stroke="midnightblue" points="892.445,-32.1347 902.79,-29.8435 893.274,-25.184 892.445,-32.1347"/>
</g>
</g>
</svg>
