<?xml version="1.0" encoding="UTF-8" standalone="no"?>
<!DOCTYPE svg PUBLIC "-//W3C//DTD SVG 1.1//EN"
 "http://www.w3.org/Graphics/SVG/1.1/DTD/svg11.dtd">
<!-- Generated by graphviz version 2.38.0 (20140413.2041)
 -->
<!-- Title: TMC5160Stepper::pwm_grad_auto Pages: 1 -->
<svg width="994pt" height="192pt"
 viewBox="0.00 0.00 994.00 191.50" xmlns="http://www.w3.org/2000/svg" xmlns:xlink="http://www.w3.org/1999/xlink">
<g id="graph0" class="graph" transform="scale(1 1) rotate(0) translate(4 187.5)">
<title>TMC5160Stepper::pwm_grad_auto</title>
<polygon fill="white" stroke="none" points="-4,4 -4,-187.5 990,-187.5 990,4 -4,4"/>
<!-- Node1 -->
<g id="node1" class="node"><title>Node1</title>
<g id="a_node1"><a xlink:title=" ">
<polygon fill="#bfbfbf" stroke="black" points="0,-82.5 0,-112.5 118,-112.5 118,-82.5 0,-82.5"/>
<text text-anchor="start" x="8" y="-100.5" font-family="Helvetica,sans-Serif" font-size="10.00">TMC5160Stepper::pwm</text>
<text text-anchor="middle" x="59" y="-89.5" font-family="Helvetica,sans-Serif" font-size="10.00">_grad_auto</text>
</a>
</g>
</g>
<!-- Node2 -->
<g id="node2" class="node"><title>Node2</title>
<g id="a_node2"><a xlink:href="../../d2/d6e/class_t_m_c5160_stepper.html#a7e8ae217437e9ca5ab353cb7a9d30b82" target="_top" xlink:title=" ">
<polygon fill="white" stroke="black" points="154,-88 154,-107 308,-107 308,-88 154,-88"/>
<text text-anchor="middle" x="231" y="-95" font-family="Helvetica,sans-Serif" font-size="10.00">TMC5160Stepper::PWM_AUTO</text>
</a>
</g>
</g>
<!-- Node1&#45;&gt;Node2 -->
<g id="edge1" class="edge"><title>Node1&#45;&gt;Node2</title>
<path fill="none" stroke="midnightblue" d="M118.029,-97.5C126.325,-97.5 135.004,-97.5 143.7,-97.5"/>
<polygon fill="midnightblue" stroke="midnightblue" points="143.896,-101 153.896,-97.5 143.896,-94.0001 143.896,-101"/>
</g>
<!-- Node3 -->
<g id="node3" class="node"><title>Node3</title>
<g id="a_node3"><a xlink:href="../../dd/deb/class_t_m_c2130_stepper.html#a161ca6ebe3736454e17e9236572a6001" target="_top" xlink:title=" ">
<polygon fill="white" stroke="black" points="344,-88 344,-107 460,-107 460,-88 344,-88"/>
<text text-anchor="middle" x="402" y="-95" font-family="Helvetica,sans-Serif" font-size="10.00">TMC2130Stepper::read</text>
</a>
</g>
</g>
<!-- Node2&#45;&gt;Node3 -->
<g id="edge2" class="edge"><title>Node2&#45;&gt;Node3</title>
<path fill="none" stroke="midnightblue" d="M308.095,-97.5C316.629,-97.5 325.277,-97.5 333.689,-97.5"/>
<polygon fill="midnightblue" stroke="midnightblue" points="333.807,-101 343.807,-97.5 333.807,-94.0001 333.807,-101"/>
</g>
<!-- Node4 -->
<g id="node4" class="node"><title>Node4</title>
<g id="a_node4"><a xlink:href="../../dd/deb/class_t_m_c2130_stepper.html#a1fc868601a32fb0cd8fc536dafa8ecea" target="_top" xlink:title=" ">
<polygon fill="white" stroke="black" points="496,-164 496,-183 667,-183 667,-164 496,-164"/>
<text text-anchor="middle" x="581.5" y="-171" font-family="Helvetica,sans-Serif" font-size="10.00">TMC2130Stepper::beginTransaction</text>
</a>
</g>
</g>
<!-- Node3&#45;&gt;Node4 -->
<g id="edge3" class="edge"><title>Node3&#45;&gt;Node4</title>
<path fill="none" stroke="midnightblue" d="M415.522,-107.048C432.741,-119.725 465.117,-141.967 496,-154.5 502.272,-157.045 508.951,-159.283 515.7,-161.242"/>
<polygon fill="midnightblue" stroke="midnightblue" points="515.032,-164.687 525.599,-163.918 516.858,-157.93 515.032,-164.687"/>
</g>
<!-- Node5 -->
<g id="node5" class="node"><title>Node5</title>
<g id="a_node5"><a xlink:href="../../dd/deb/class_t_m_c2130_stepper.html#aeace18dcee808585dd4449e783811600" target="_top" xlink:title=" ">
<polygon fill="white" stroke="black" points="499.5,-126 499.5,-145 663.5,-145 663.5,-126 499.5,-126"/>
<text text-anchor="middle" x="581.5" y="-133" font-family="Helvetica,sans-Serif" font-size="10.00">TMC2130Stepper::endTransaction</text>
</a>
</g>
</g>
<!-- Node3&#45;&gt;Node5 -->
<g id="edge4" class="edge"><title>Node3&#45;&gt;Node5</title>
<path fill="none" stroke="midnightblue" d="M447.791,-107.089C471.53,-112.171 500.884,-118.455 525.944,-123.82"/>
<polygon fill="midnightblue" stroke="midnightblue" points="525.52,-127.309 536.031,-125.98 526.986,-120.464 525.52,-127.309"/>
</g>
<!-- Node6 -->
<g id="node6" class="node"><title>Node6</title>
<g id="a_node6"><a xlink:href="../../dd/deb/class_t_m_c2130_stepper.html#a4a8f3b6ac100045ed5f84fe4d18d9d5a" target="_top" xlink:title=" ">
<polygon fill="white" stroke="black" points="505.5,-88 505.5,-107 657.5,-107 657.5,-88 505.5,-88"/>
<text text-anchor="middle" x="581.5" y="-95" font-family="Helvetica,sans-Serif" font-size="10.00">TMC2130Stepper::switchCSpin</text>
</a>
</g>
</g>
<!-- Node3&#45;&gt;Node6 -->
<g id="edge5" class="edge"><title>Node3&#45;&gt;Node6</title>
<path fill="none" stroke="midnightblue" d="M460.139,-97.5C471.27,-97.5 483.163,-97.5 494.981,-97.5"/>
<polygon fill="midnightblue" stroke="midnightblue" points="495.325,-101 505.325,-97.5 495.324,-94.0001 495.325,-101"/>
</g>
<!-- Node7 -->
<g id="node7" class="node"><title>Node7</title>
<g id="a_node7"><a xlink:href="../../dd/deb/class_t_m_c2130_stepper.html#a0673af4887ec52b23aa658aa290f6623" target="_top" xlink:title=" ">
<polygon fill="white" stroke="black" points="703,-28 703,-47 833,-47 833,-28 703,-28"/>
<text text-anchor="middle" x="768" y="-35" font-family="Helvetica,sans-Serif" font-size="10.00">TMC2130Stepper::transfer</text>
</a>
</g>
</g>
<!-- Node3&#45;&gt;Node7 -->
<g id="edge6" class="edge"><title>Node3&#45;&gt;Node7</title>
<path fill="none" stroke="midnightblue" d="M447.378,-87.9498C462.744,-84.7717 480.099,-81.3252 496,-78.5 562.378,-66.7062 638.291,-55.4085 692.852,-47.6702"/>
<polygon fill="midnightblue" stroke="midnightblue" points="693.372,-51.1316 702.784,-46.2674 692.393,-44.2004 693.372,-51.1316"/>
</g>
<!-- Node9 -->
<g id="node9" class="node"><title>Node9</title>
<g id="a_node9"><a xlink:href="../../dd/deb/class_t_m_c2130_stepper.html#aba94fc7bb8e2c8c12191f44561f19d95" target="_top" xlink:title=" ">
<polygon fill="white" stroke="black" points="516.5,-0.5 516.5,-30.5 646.5,-30.5 646.5,-0.5 516.5,-0.5"/>
<text text-anchor="start" x="524.5" y="-18.5" font-family="Helvetica,sans-Serif" font-size="10.00">TMC2130Stepper::transfer</text>
<text text-anchor="middle" x="581.5" y="-7.5" font-family="Helvetica,sans-Serif" font-size="10.00">EmptyBytes</text>
</a>
</g>
</g>
<!-- Node3&#45;&gt;Node9 -->
<g id="edge8" class="edge"><title>Node3&#45;&gt;Node9</title>
<path fill="none" stroke="midnightblue" d="M418.378,-87.8381C436.488,-76.7136 467.694,-58.3277 496,-45.5 504.84,-41.494 514.386,-37.66 523.769,-34.1517"/>
<polygon fill="midnightblue" stroke="midnightblue" points="525.257,-37.3346 533.453,-30.6201 522.859,-30.7583 525.257,-37.3346"/>
</g>
<!-- Node8 -->
<g id="node8" class="node"><title>Node8</title>
<g id="a_node8"><a xlink:href="../../df/d8b/class_s_w___s_p_i_class.html#af260fdc0af3f1312b106483161e559c3" target="_top" xlink:title=" ">
<polygon fill="white" stroke="black" points="869,-28 869,-47 986,-47 986,-28 869,-28"/>
<text text-anchor="middle" x="927.5" y="-35" font-family="Helvetica,sans-Serif" font-size="10.00">SW_SPIClass::transfer</text>
</a>
</g>
</g>
<!-- Node7&#45;&gt;Node8 -->
<g id="edge7" class="edge"><title>Node7&#45;&gt;Node8</title>
<path fill="none" stroke="midnightblue" d="M833.061,-37.5C841.477,-37.5 850.125,-37.5 858.603,-37.5"/>
<polygon fill="midnightblue" stroke="midnightblue" points="858.831,-41.0001 868.831,-37.5 858.831,-34.0001 858.831,-41.0001"/>
</g>
<!-- Node9&#45;&gt;Node7 -->
<g id="edge9" class="edge"><title>Node9&#45;&gt;Node7</title>
<path fill="none" stroke="midnightblue" d="M646.511,-23.1328C661.452,-24.9144 677.487,-26.8263 692.827,-28.6556"/>
<polygon fill="midnightblue" stroke="midnightblue" points="692.445,-32.1347 702.79,-29.8435 693.274,-25.184 692.445,-32.1347"/>
</g>
</g>
</svg>
