<?xml version="1.0" encoding="UTF-8" standalone="no"?>
<!DOCTYPE svg PUBLIC "-//W3C//DTD SVG 1.1//EN"
 "http://www.w3.org/Graphics/SVG/1.1/DTD/svg11.dtd">
<!-- Generated by graphviz version 2.38.0 (20140413.2041)
 -->
<!-- Title: TMC5160Stepper::diss2vs Pages: 1 -->
<svg width="1170pt" height="192pt"
 viewBox="0.00 0.00 1170.00 191.50" xmlns="http://www.w3.org/2000/svg" xmlns:xlink="http://www.w3.org/1999/xlink">
<g id="graph0" class="graph" transform="scale(1 1) rotate(0) translate(4 187.5)">
<title>TMC5160Stepper::diss2vs</title>
<polygon fill="white" stroke="none" points="-4,4 -4,-187.5 1166,-187.5 1166,4 -4,4"/>
<!-- Node1 -->
<g id="node1" class="node"><title>Node1</title>
<g id="a_node1"><a xlink:title=" ">
<polygon fill="#bfbfbf" stroke="black" points="0,-88 0,-107 130,-107 130,-88 0,-88"/>
<text text-anchor="middle" x="65" y="-95" font-family="Helvetica,sans-Serif" font-size="10.00">TMC5160Stepper::diss2vs</text>
</a>
</g>
</g>
<!-- Node2 -->
<g id="node2" class="node"><title>Node2</title>
<g id="a_node2"><a xlink:href="../../d2/d6e/class_t_m_c5160_stepper.html#aa3acb02febd68ad411114089307f198c" target="_top" xlink:title=" ">
<polygon fill="white" stroke="black" points="166,-88 166,-107 296,-107 296,-88 166,-88"/>
<text text-anchor="middle" x="231" y="-95" font-family="Helvetica,sans-Serif" font-size="10.00">TMC5160Stepper::diss2vs</text>
</a>
</g>
</g>
<!-- Node1&#45;&gt;Node2 -->
<g id="edge1" class="edge"><title>Node1&#45;&gt;Node2</title>
<path fill="none" stroke="midnightblue" d="M130.346,-97.5C138.64,-97.5 147.187,-97.5 155.625,-97.5"/>
<polygon fill="midnightblue" stroke="midnightblue" points="155.839,-101 165.839,-97.5 155.839,-94.0001 155.839,-101"/>
</g>
<!-- Node3 -->
<g id="node3" class="node"><title>Node3</title>
<g id="a_node3"><a xlink:href="../../dd/deb/class_t_m_c2130_stepper.html#a67541b27d97ce45f175e9f6e4a2d0bff" target="_top" xlink:title=" ">
<polygon fill="white" stroke="black" points="332,-88 332,-107 484,-107 484,-88 332,-88"/>
<text text-anchor="middle" x="408" y="-95" font-family="Helvetica,sans-Serif" font-size="10.00">TMC2130Stepper::CHOPCONF</text>
</a>
</g>
</g>
<!-- Node2&#45;&gt;Node3 -->
<g id="edge2" class="edge"><title>Node2&#45;&gt;Node3</title>
<path fill="none" stroke="midnightblue" d="M296.17,-97.5C304.513,-97.5 313.162,-97.5 321.781,-97.5"/>
<polygon fill="midnightblue" stroke="midnightblue" points="321.866,-101 331.866,-97.5 321.866,-94.0001 321.866,-101"/>
</g>
<!-- Node4 -->
<g id="node4" class="node"><title>Node4</title>
<g id="a_node4"><a xlink:href="../../dd/deb/class_t_m_c2130_stepper.html#a161ca6ebe3736454e17e9236572a6001" target="_top" xlink:title=" ">
<polygon fill="white" stroke="black" points="520,-88 520,-107 636,-107 636,-88 520,-88"/>
<text text-anchor="middle" x="578" y="-95" font-family="Helvetica,sans-Serif" font-size="10.00">TMC2130Stepper::read</text>
</a>
</g>
</g>
<!-- Node3&#45;&gt;Node4 -->
<g id="edge3" class="edge"><title>Node3&#45;&gt;Node4</title>
<path fill="none" stroke="midnightblue" d="M484.155,-97.5C492.664,-97.5 501.296,-97.5 509.696,-97.5"/>
<polygon fill="midnightblue" stroke="midnightblue" points="509.802,-101 519.802,-97.5 509.802,-94.0001 509.802,-101"/>
</g>
<!-- Node5 -->
<g id="node5" class="node"><title>Node5</title>
<g id="a_node5"><a xlink:href="../../dd/deb/class_t_m_c2130_stepper.html#a1fc868601a32fb0cd8fc536dafa8ecea" target="_top" xlink:title=" ">
<polygon fill="white" stroke="black" points="672,-164 672,-183 843,-183 843,-164 672,-164"/>
<text text-anchor="middle" x="757.5" y="-171" font-family="Helvetica,sans-Serif" font-size="10.00">TMC2130Stepper::beginTransaction</text>
</a>
</g>
</g>
<!-- Node4&#45;&gt;Node5 -->
<g id="edge4" class="edge"><title>Node4&#45;&gt;Node5</title>
<path fill="none" stroke="midnightblue" d="M591.522,-107.048C608.741,-119.725 641.117,-141.967 672,-154.5 678.272,-157.045 684.951,-159.283 691.7,-161.242"/>
<polygon fill="midnightblue" stroke="midnightblue" points="691.032,-164.687 701.599,-163.918 692.858,-157.93 691.032,-164.687"/>
</g>
<!-- Node6 -->
<g id="node6" class="node"><title>Node6</title>
<g id="a_node6"><a xlink:href="../../dd/deb/class_t_m_c2130_stepper.html#aeace18dcee808585dd4449e783811600" target="_top" xlink:title=" ">
<polygon fill="white" stroke="black" points="675.5,-126 675.5,-145 839.5,-145 839.5,-126 675.5,-126"/>
<text text-anchor="middle" x="757.5" y="-133" font-family="Helvetica,sans-Serif" font-size="10.00">TMC2130Stepper::endTransaction</text>
</a>
</g>
</g>
<!-- Node4&#45;&gt;Node6 -->
<g id="edge5" class="edge"><title>Node4&#45;&gt;Node6</title>
<path fill="none" stroke="midnightblue" d="M623.791,-107.089C647.53,-112.171 676.884,-118.455 701.944,-123.82"/>
<polygon fill="midnightblue" stroke="midnightblue" points="701.52,-127.309 712.031,-125.98 702.986,-120.464 701.52,-127.309"/>
</g>
<!-- Node7 -->
<g id="node7" class="node"><title>Node7</title>
<g id="a_node7"><a xlink:href="../../dd/deb/class_t_m_c2130_stepper.html#a4a8f3b6ac100045ed5f84fe4d18d9d5a" target="_top" xlink:title=" ">
<polygon fill="white" stroke="black" points="681.5,-88 681.5,-107 833.5,-107 833.5,-88 681.5,-88"/>
<text text-anchor="middle" x="757.5" y="-95" font-family="Helvetica,sans-Serif" font-size="10.00">TMC2130Stepper::switchCSpin</text>
</a>
</g>
</g>
<!-- Node4&#45;&gt;Node7 -->
<g id="edge6" class="edge"><title>Node4&#45;&gt;Node7</title>
<path fill="none" stroke="midnightblue" d="M636.139,-97.5C647.27,-97.5 659.163,-97.5 670.981,-97.5"/>
<polygon fill="midnightblue" stroke="midnightblue" points="671.325,-101 681.325,-97.5 671.324,-94.0001 671.325,-101"/>
</g>
<!-- Node8 -->
<g id="node8" class="node"><title>Node8</title>
<g id="a_node8"><a xlink:href="../../dd/deb/class_t_m_c2130_stepper.html#a0673af4887ec52b23aa658aa290f6623" target="_top" xlink:title=" ">
<polygon fill="white" stroke="black" points="879,-28 879,-47 1009,-47 1009,-28 879,-28"/>
<text text-anchor="middle" x="944" y="-35" font-family="Helvetica,sans-Serif" font-size="10.00">TMC2130Stepper::transfer</text>
</a>
</g>
</g>
<!-- Node4&#45;&gt;Node8 -->
<g id="edge7" class="edge"><title>Node4&#45;&gt;Node8</title>
<path fill="none" stroke="midnightblue" d="M623.378,-87.9498C638.744,-84.7717 656.099,-81.3252 672,-78.5 738.378,-66.7062 814.291,-55.4085 868.852,-47.6702"/>
<polygon fill="midnightblue" stroke="midnightblue" points="869.372,-51.1316 878.784,-46.2674 868.393,-44.2004 869.372,-51.1316"/>
</g>
<!-- Node10 -->
<g id="node10" class="node"><title>Node10</title>
<g id="a_node10"><a xlink:href="../../dd/deb/class_t_m_c2130_stepper.html#aba94fc7bb8e2c8c12191f44561f19d95" target="_top" xlink:title=" ">
<polygon fill="white" stroke="black" points="692.5,-0.5 692.5,-30.5 822.5,-30.5 822.5,-0.5 692.5,-0.5"/>
<text text-anchor="start" x="700.5" y="-18.5" font-family="Helvetica,sans-Serif" font-size="10.00">TMC2130Stepper::transfer</text>
<text text-anchor="middle" x="757.5" y="-7.5" font-family="Helvetica,sans-Serif" font-size="10.00">EmptyBytes</text>
</a>
</g>
</g>
<!-- Node4&#45;&gt;Node10 -->
<g id="edge9" class="edge"><title>Node4&#45;&gt;Node10</title>
<path fill="none" stroke="midnightblue" d="M594.378,-87.8381C612.488,-76.7136 643.694,-58.3277 672,-45.5 680.84,-41.494 690.386,-37.66 699.769,-34.1517"/>
<polygon fill="midnightblue" stroke="midnightblue" points="701.257,-37.3346 709.453,-30.6201 698.859,-30.7583 701.257,-37.3346"/>
</g>
<!-- Node9 -->
<g id="node9" class="node"><title>Node9</title>
<g id="a_node9"><a xlink:href="../../df/d8b/class_s_w___s_p_i_class.html#af260fdc0af3f1312b106483161e559c3" target="_top" xlink:title=" ">
<polygon fill="white" stroke="black" points="1045,-28 1045,-47 1162,-47 1162,-28 1045,-28"/>
<text text-anchor="middle" x="1103.5" y="-35" font-family="Helvetica,sans-Serif" font-size="10.00">SW_SPIClass::transfer</text>
</a>
</g>
</g>
<!-- Node8&#45;&gt;Node9 -->
<g id="edge8" class="edge"><title>Node8&#45;&gt;Node9</title>
<path fill="none" stroke="midnightblue" d="M1009.06,-37.5C1017.48,-37.5 1026.13,-37.5 1034.6,-37.5"/>
<polygon fill="midnightblue" stroke="midnightblue" points="1034.83,-41.0001 1044.83,-37.5 1034.83,-34.0001 1034.83,-41.0001"/>
</g>
<!-- Node10&#45;&gt;Node8 -->
<g id="edge10" class="edge"><title>Node10&#45;&gt;Node8</title>
<path fill="none" stroke="midnightblue" d="M822.511,-23.1328C837.452,-24.9144 853.487,-26.8263 868.827,-28.6556"/>
<polygon fill="midnightblue" stroke="midnightblue" points="868.445,-32.1347 878.79,-29.8435 869.274,-25.184 868.445,-32.1347"/>
</g>
</g>
</svg>
