<?xml version="1.0" encoding="UTF-8" standalone="no"?>
<!DOCTYPE svg PUBLIC "-//W3C//DTD SVG 1.1//EN"
 "http://www.w3.org/Graphics/SVG/1.1/DTD/svg11.dtd">
<!-- Generated by graphviz version 2.38.0 (20140413.2041)
 -->
<!-- Title: TMC5160Stepper::tpfd Pages: 1 -->
<svg width="987pt" height="192pt"
 viewBox="0.00 0.00 987.00 191.50" xmlns="http://www.w3.org/2000/svg" xmlns:xlink="http://www.w3.org/1999/xlink">
<g id="graph0" class="graph" transform="scale(1 1) rotate(0) translate(4 187.5)">
<title>TMC5160Stepper::tpfd</title>
<polygon fill="white" stroke="none" points="-4,4 -4,-187.5 983,-187.5 983,4 -4,4"/>
<!-- Node1 -->
<g id="node1" class="node"><title>Node1</title>
<g id="a_node1"><a xlink:title=" ">
<polygon fill="#bfbfbf" stroke="black" points="0,-88 0,-107 113,-107 113,-88 0,-88"/>
<text text-anchor="middle" x="56.5" y="-95" font-family="Helvetica,sans-Serif" font-size="10.00">TMC5160Stepper::tpfd</text>
</a>
</g>
</g>
<!-- Node2 -->
<g id="node2" class="node"><title>Node2</title>
<g id="a_node2"><a xlink:href="../../dd/deb/class_t_m_c2130_stepper.html#a67541b27d97ce45f175e9f6e4a2d0bff" target="_top" xlink:title=" ">
<polygon fill="white" stroke="black" points="149,-88 149,-107 301,-107 301,-88 149,-88"/>
<text text-anchor="middle" x="225" y="-95" font-family="Helvetica,sans-Serif" font-size="10.00">TMC2130Stepper::CHOPCONF</text>
</a>
</g>
</g>
<!-- Node1&#45;&gt;Node2 -->
<g id="edge1" class="edge"><title>Node1&#45;&gt;Node2</title>
<path fill="none" stroke="midnightblue" d="M113.405,-97.5C121.554,-97.5 130.095,-97.5 138.666,-97.5"/>
<polygon fill="midnightblue" stroke="midnightblue" points="138.719,-101 148.719,-97.5 138.719,-94.0001 138.719,-101"/>
</g>
<!-- Node3 -->
<g id="node3" class="node"><title>Node3</title>
<g id="a_node3"><a xlink:href="../../dd/deb/class_t_m_c2130_stepper.html#a161ca6ebe3736454e17e9236572a6001" target="_top" xlink:title=" ">
<polygon fill="white" stroke="black" points="337,-88 337,-107 453,-107 453,-88 337,-88"/>
<text text-anchor="middle" x="395" y="-95" font-family="Helvetica,sans-Serif" font-size="10.00">TMC2130Stepper::read</text>
</a>
</g>
</g>
<!-- Node2&#45;&gt;Node3 -->
<g id="edge2" class="edge"><title>Node2&#45;&gt;Node3</title>
<path fill="none" stroke="midnightblue" d="M301.155,-97.5C309.664,-97.5 318.296,-97.5 326.696,-97.5"/>
<polygon fill="midnightblue" stroke="midnightblue" points="326.802,-101 336.802,-97.5 326.802,-94.0001 326.802,-101"/>
</g>
<!-- Node4 -->
<g id="node4" class="node"><title>Node4</title>
<g id="a_node4"><a xlink:href="../../dd/deb/class_t_m_c2130_stepper.html#a1fc868601a32fb0cd8fc536dafa8ecea" target="_top" xlink:title=" ">
<polygon fill="white" stroke="black" points="489,-164 489,-183 660,-183 660,-164 489,-164"/>
<text text-anchor="middle" x="574.5" y="-171" font-family="Helvetica,sans-Serif" font-size="10.00">TMC2130Stepper::beginTransaction</text>
</a>
</g>
</g>
<!-- Node3&#45;&gt;Node4 -->
<g id="edge3" class="edge"><title>Node3&#45;&gt;Node4</title>
<path fill="none" stroke="midnightblue" d="M408.522,-107.048C425.741,-119.725 458.117,-141.967 489,-154.5 495.272,-157.045 501.951,-159.283 508.7,-161.242"/>
<polygon fill="midnightblue" stroke="midnightblue" points="508.032,-164.687 518.599,-163.918 509.858,-157.93 508.032,-164.687"/>
</g>
<!-- Node5 -->
<g id="node5" class="node"><title>Node5</title>
<g id="a_node5"><a xlink:href="../../dd/deb/class_t_m_c2130_stepper.html#aeace18dcee808585dd4449e783811600" target="_top" xlink:title=" ">
<polygon fill="white" stroke="black" points="492.5,-126 492.5,-145 656.5,-145 656.5,-126 492.5,-126"/>
<text text-anchor="middle" x="574.5" y="-133" font-family="Helvetica,sans-Serif" font-size="10.00">TMC2130Stepper::endTransaction</text>
</a>
</g>
</g>
<!-- Node3&#45;&gt;Node5 -->
<g id="edge4" class="edge"><title>Node3&#45;&gt;Node5</title>
<path fill="none" stroke="midnightblue" d="M440.791,-107.089C464.53,-112.171 493.884,-118.455 518.944,-123.82"/>
<polygon fill="midnightblue" stroke="midnightblue" points="518.52,-127.309 529.031,-125.98 519.986,-120.464 518.52,-127.309"/>
</g>
<!-- Node6 -->
<g id="node6" class="node"><title>Node6</title>
<g id="a_node6"><a xlink:href="../../dd/deb/class_t_m_c2130_stepper.html#a4a8f3b6ac100045ed5f84fe4d18d9d5a" target="_top" xlink:title=" ">
<polygon fill="white" stroke="black" points="498.5,-88 498.5,-107 650.5,-107 650.5,-88 498.5,-88"/>
<text text-anchor="middle" x="574.5" y="-95" font-family="Helvetica,sans-Serif" font-size="10.00">TMC2130Stepper::switchCSpin</text>
</a>
</g>
</g>
<!-- Node3&#45;&gt;Node6 -->
<g id="edge5" class="edge"><title>Node3&#45;&gt;Node6</title>
<path fill="none" stroke="midnightblue" d="M453.139,-97.5C464.27,-97.5 476.163,-97.5 487.981,-97.5"/>
<polygon fill="midnightblue" stroke="midnightblue" points="488.325,-101 498.325,-97.5 488.324,-94.0001 488.325,-101"/>
</g>
<!-- Node7 -->
<g id="node7" class="node"><title>Node7</title>
<g id="a_node7"><a xlink:href="../../dd/deb/class_t_m_c2130_stepper.html#a0673af4887ec52b23aa658aa290f6623" target="_top" xlink:title=" ">
<polygon fill="white" stroke="black" points="696,-28 696,-47 826,-47 826,-28 696,-28"/>
<text text-anchor="middle" x="761" y="-35" font-family="Helvetica,sans-Serif" font-size="10.00">TMC2130Stepper::transfer</text>
</a>
</g>
</g>
<!-- Node3&#45;&gt;Node7 -->
<g id="edge6" class="edge"><title>Node3&#45;&gt;Node7</title>
<path fill="none" stroke="midnightblue" d="M440.378,-87.9498C455.744,-84.7717 473.099,-81.3252 489,-78.5 555.378,-66.7062 631.291,-55.4085 685.852,-47.6702"/>
<polygon fill="midnightblue" stroke="midnightblue" points="686.372,-51.1316 695.784,-46.2674 685.393,-44.2004 686.372,-51.1316"/>
</g>
<!-- Node9 -->
<g id="node9" class="node"><title>Node9</title>
<g id="a_node9"><a xlink:href="../../dd/deb/class_t_m_c2130_stepper.html#aba94fc7bb8e2c8c12191f44561f19d95" target="_top" xlink:title=" ">
<polygon fill="white" stroke="black" points="509.5,-0.5 509.5,-30.5 639.5,-30.5 639.5,-0.5 509.5,-0.5"/>
<text text-anchor="start" x="517.5" y="-18.5" font-family="Helvetica,sans-Serif" font-size="10.00">TMC2130Stepper::transfer</text>
<text text-anchor="middle" x="574.5" y="-7.5" font-family="Helvetica,sans-Serif" font-size="10.00">EmptyBytes</text>
</a>
</g>
</g>
<!-- Node3&#45;&gt;Node9 -->
<g id="edge8" class="edge"><title>Node3&#45;&gt;Node9</title>
<path fill="none" stroke="midnightblue" d="M411.378,-87.8381C429.488,-76.7136 460.694,-58.3277 489,-45.5 497.84,-41.494 507.386,-37.66 516.769,-34.1517"/>
<polygon fill="midnightblue" stroke="midnightblue" points="518.257,-37.3346 526.453,-30.6201 515.859,-30.7583 518.257,-37.3346"/>
</g>
<!-- Node8 -->
<g id="node8" class="node"><title>Node8</title>
<g id="a_node8"><a xlink:href="../../df/d8b/class_s_w___s_p_i_class.html#af260fdc0af3f1312b106483161e559c3" target="_top" xlink:title=" ">
<polygon fill="white" stroke="black" points="862,-28 862,-47 979,-47 979,-28 862,-28"/>
<text text-anchor="middle" x="920.5" y="-35" font-family="Helvetica,sans-Serif" font-size="10.00">SW_SPIClass::transfer</text>
</a>
</g>
</g>
<!-- Node7&#45;&gt;Node8 -->
<g id="edge7" class="edge"><title>Node7&#45;&gt;Node8</title>
<path fill="none" stroke="midnightblue" d="M826.061,-37.5C834.477,-37.5 843.125,-37.5 851.603,-37.5"/>
<polygon fill="midnightblue" stroke="midnightblue" points="851.831,-41.0001 861.831,-37.5 851.831,-34.0001 851.831,-41.0001"/>
</g>
<!-- Node9&#45;&gt;Node7 -->
<g id="edge9" class="edge"><title>Node9&#45;&gt;Node7</title>
<path fill="none" stroke="midnightblue" d="M639.511,-23.1328C654.452,-24.9144 670.487,-26.8263 685.827,-28.6556"/>
<polygon fill="midnightblue" stroke="midnightblue" points="685.445,-32.1347 695.79,-29.8435 686.274,-25.184 685.445,-32.1347"/>
</g>
</g>
</svg>
