<?xml version="1.0" encoding="UTF-8" standalone="no"?>
<!DOCTYPE svg PUBLIC "-//W3C//DTD SVG 1.1//EN"
 "http://www.w3.org/Graphics/SVG/1.1/DTD/svg11.dtd">
<!-- Generated by graphviz version 2.38.0 (20140413.2041)
 -->
<!-- Title: TMC5160Stepper::enc_n_dco_cfg6 Pages: 1 -->
<svg width="1100pt" height="192pt"
 viewBox="0.00 0.00 1100.00 191.50" xmlns="http://www.w3.org/2000/svg" xmlns:xlink="http://www.w3.org/1999/xlink">
<g id="graph0" class="graph" transform="scale(1 1) rotate(0) translate(4 187.5)">
<title>TMC5160Stepper::enc_n_dco_cfg6</title>
<polygon fill="white" stroke="none" points="-4,4 -4,-187.5 1096,-187.5 1096,4 -4,4"/>
<!-- Node1 -->
<g id="node1" class="node"><title>Node1</title>
<g id="a_node1"><a xlink:title=" ">
<polygon fill="#bfbfbf" stroke="black" points="0,-82.5 0,-112.5 113,-112.5 113,-82.5 0,-82.5"/>
<text text-anchor="start" x="8" y="-100.5" font-family="Helvetica,sans-Serif" font-size="10.00">TMC5160Stepper::enc</text>
<text text-anchor="middle" x="56.5" y="-89.5" font-family="Helvetica,sans-Serif" font-size="10.00">_n_dco_cfg6</text>
</a>
</g>
</g>
<!-- Node2 -->
<g id="node2" class="node"><title>Node2</title>
<g id="a_node2"><a xlink:href="../../d9/df8/class_t_m_c5130_stepper.html#adc1e0971a9d17880735d30fcb0eac342" target="_top" xlink:title=" ">
<polygon fill="white" stroke="black" points="149,-82.5 149,-112.5 262,-112.5 262,-82.5 149,-82.5"/>
<text text-anchor="start" x="157" y="-100.5" font-family="Helvetica,sans-Serif" font-size="10.00">TMC5130Stepper::enc</text>
<text text-anchor="middle" x="205.5" y="-89.5" font-family="Helvetica,sans-Serif" font-size="10.00">_n_dco</text>
</a>
</g>
</g>
<!-- Node1&#45;&gt;Node2 -->
<g id="edge1" class="edge"><title>Node1&#45;&gt;Node2</title>
<path fill="none" stroke="midnightblue" d="M113.074,-97.5C121.489,-97.5 130.238,-97.5 138.842,-97.5"/>
<polygon fill="midnightblue" stroke="midnightblue" points="138.847,-101 148.847,-97.5 138.847,-94.0001 138.847,-101"/>
</g>
<!-- Node3 -->
<g id="node3" class="node"><title>Node3</title>
<g id="a_node3"><a xlink:href="../../d9/df8/class_t_m_c5130_stepper.html#a74e9e262a8da77925d246916b431161d" target="_top" xlink:title=" ">
<polygon fill="white" stroke="black" points="298,-88 298,-107 414,-107 414,-88 298,-88"/>
<text text-anchor="middle" x="356" y="-95" font-family="Helvetica,sans-Serif" font-size="10.00">TMC5130Stepper::IOIN</text>
</a>
</g>
</g>
<!-- Node2&#45;&gt;Node3 -->
<g id="edge2" class="edge"><title>Node2&#45;&gt;Node3</title>
<path fill="none" stroke="midnightblue" d="M262.218,-97.5C270.618,-97.5 279.356,-97.5 287.963,-97.5"/>
<polygon fill="midnightblue" stroke="midnightblue" points="287.979,-101 297.979,-97.5 287.979,-94.0001 287.979,-101"/>
</g>
<!-- Node4 -->
<g id="node4" class="node"><title>Node4</title>
<g id="a_node4"><a xlink:href="../../dd/deb/class_t_m_c2130_stepper.html#a161ca6ebe3736454e17e9236572a6001" target="_top" xlink:title=" ">
<polygon fill="white" stroke="black" points="450,-88 450,-107 566,-107 566,-88 450,-88"/>
<text text-anchor="middle" x="508" y="-95" font-family="Helvetica,sans-Serif" font-size="10.00">TMC2130Stepper::read</text>
</a>
</g>
</g>
<!-- Node3&#45;&gt;Node4 -->
<g id="edge3" class="edge"><title>Node3&#45;&gt;Node4</title>
<path fill="none" stroke="midnightblue" d="M414.136,-97.5C422.377,-97.5 430.923,-97.5 439.344,-97.5"/>
<polygon fill="midnightblue" stroke="midnightblue" points="439.526,-101 449.525,-97.5 439.525,-94.0001 439.526,-101"/>
</g>
<!-- Node5 -->
<g id="node5" class="node"><title>Node5</title>
<g id="a_node5"><a xlink:href="../../dd/deb/class_t_m_c2130_stepper.html#a1fc868601a32fb0cd8fc536dafa8ecea" target="_top" xlink:title=" ">
<polygon fill="white" stroke="black" points="602,-164 602,-183 773,-183 773,-164 602,-164"/>
<text text-anchor="middle" x="687.5" y="-171" font-family="Helvetica,sans-Serif" font-size="10.00">TMC2130Stepper::beginTransaction</text>
</a>
</g>
</g>
<!-- Node4&#45;&gt;Node5 -->
<g id="edge4" class="edge"><title>Node4&#45;&gt;Node5</title>
<path fill="none" stroke="midnightblue" d="M521.522,-107.048C538.741,-119.725 571.117,-141.967 602,-154.5 608.272,-157.045 614.951,-159.283 621.7,-161.242"/>
<polygon fill="midnightblue" stroke="midnightblue" points="621.032,-164.687 631.599,-163.918 622.858,-157.93 621.032,-164.687"/>
</g>
<!-- Node6 -->
<g id="node6" class="node"><title>Node6</title>
<g id="a_node6"><a xlink:href="../../dd/deb/class_t_m_c2130_stepper.html#aeace18dcee808585dd4449e783811600" target="_top" xlink:title=" ">
<polygon fill="white" stroke="black" points="605.5,-126 605.5,-145 769.5,-145 769.5,-126 605.5,-126"/>
<text text-anchor="middle" x="687.5" y="-133" font-family="Helvetica,sans-Serif" font-size="10.00">TMC2130Stepper::endTransaction</text>
</a>
</g>
</g>
<!-- Node4&#45;&gt;Node6 -->
<g id="edge5" class="edge"><title>Node4&#45;&gt;Node6</title>
<path fill="none" stroke="midnightblue" d="M553.791,-107.089C577.53,-112.171 606.884,-118.455 631.944,-123.82"/>
<polygon fill="midnightblue" stroke="midnightblue" points="631.52,-127.309 642.031,-125.98 632.986,-120.464 631.52,-127.309"/>
</g>
<!-- Node7 -->
<g id="node7" class="node"><title>Node7</title>
<g id="a_node7"><a xlink:href="../../dd/deb/class_t_m_c2130_stepper.html#a4a8f3b6ac100045ed5f84fe4d18d9d5a" target="_top" xlink:title=" ">
<polygon fill="white" stroke="black" points="611.5,-88 611.5,-107 763.5,-107 763.5,-88 611.5,-88"/>
<text text-anchor="middle" x="687.5" y="-95" font-family="Helvetica,sans-Serif" font-size="10.00">TMC2130Stepper::switchCSpin</text>
</a>
</g>
</g>
<!-- Node4&#45;&gt;Node7 -->
<g id="edge6" class="edge"><title>Node4&#45;&gt;Node7</title>
<path fill="none" stroke="midnightblue" d="M566.139,-97.5C577.27,-97.5 589.163,-97.5 600.981,-97.5"/>
<polygon fill="midnightblue" stroke="midnightblue" points="601.325,-101 611.325,-97.5 601.324,-94.0001 601.325,-101"/>
</g>
<!-- Node8 -->
<g id="node8" class="node"><title>Node8</title>
<g id="a_node8"><a xlink:href="../../dd/deb/class_t_m_c2130_stepper.html#a0673af4887ec52b23aa658aa290f6623" target="_top" xlink:title=" ">
<polygon fill="white" stroke="black" points="809,-28 809,-47 939,-47 939,-28 809,-28"/>
<text text-anchor="middle" x="874" y="-35" font-family="Helvetica,sans-Serif" font-size="10.00">TMC2130Stepper::transfer</text>
</a>
</g>
</g>
<!-- Node4&#45;&gt;Node8 -->
<g id="edge7" class="edge"><title>Node4&#45;&gt;Node8</title>
<path fill="none" stroke="midnightblue" d="M553.378,-87.9498C568.744,-84.7717 586.099,-81.3252 602,-78.5 668.378,-66.7062 744.291,-55.4085 798.852,-47.6702"/>
<polygon fill="midnightblue" stroke="midnightblue" points="799.372,-51.1316 808.784,-46.2674 798.393,-44.2004 799.372,-51.1316"/>
</g>
<!-- Node10 -->
<g id="node10" class="node"><title>Node10</title>
<g id="a_node10"><a xlink:href="../../dd/deb/class_t_m_c2130_stepper.html#aba94fc7bb8e2c8c12191f44561f19d95" target="_top" xlink:title=" ">
<polygon fill="white" stroke="black" points="622.5,-0.5 622.5,-30.5 752.5,-30.5 752.5,-0.5 622.5,-0.5"/>
<text text-anchor="start" x="630.5" y="-18.5" font-family="Helvetica,sans-Serif" font-size="10.00">TMC2130Stepper::transfer</text>
<text text-anchor="middle" x="687.5" y="-7.5" font-family="Helvetica,sans-Serif" font-size="10.00">EmptyBytes</text>
</a>
</g>
</g>
<!-- Node4&#45;&gt;Node10 -->
<g id="edge9" class="edge"><title>Node4&#45;&gt;Node10</title>
<path fill="none" stroke="midnightblue" d="M524.378,-87.8381C542.488,-76.7136 573.694,-58.3277 602,-45.5 610.84,-41.494 620.386,-37.66 629.769,-34.1517"/>
<polygon fill="midnightblue" stroke="midnightblue" points="631.257,-37.3346 639.453,-30.6201 628.859,-30.7583 631.257,-37.3346"/>
</g>
<!-- Node9 -->
<g id="node9" class="node"><title>Node9</title>
<g id="a_node9"><a xlink:href="../../df/d8b/class_s_w___s_p_i_class.html#af260fdc0af3f1312b106483161e559c3" target="_top" xlink:title=" ">
<polygon fill="white" stroke="black" points="975,-28 975,-47 1092,-47 1092,-28 975,-28"/>
<text text-anchor="middle" x="1033.5" y="-35" font-family="Helvetica,sans-Serif" font-size="10.00">SW_SPIClass::transfer</text>
</a>
</g>
</g>
<!-- Node8&#45;&gt;Node9 -->
<g id="edge8" class="edge"><title>Node8&#45;&gt;Node9</title>
<path fill="none" stroke="midnightblue" d="M939.061,-37.5C947.477,-37.5 956.125,-37.5 964.603,-37.5"/>
<polygon fill="midnightblue" stroke="midnightblue" points="964.831,-41.0001 974.831,-37.5 964.831,-34.0001 964.831,-41.0001"/>
</g>
<!-- Node10&#45;&gt;Node8 -->
<g id="edge10" class="edge"><title>Node10&#45;&gt;Node8</title>
<path fill="none" stroke="midnightblue" d="M752.511,-23.1328C767.452,-24.9144 783.487,-26.8263 798.827,-28.6556"/>
<polygon fill="midnightblue" stroke="midnightblue" points="798.445,-32.1347 808.79,-29.8435 799.274,-25.184 798.445,-32.1347"/>
</g>
</g>
</svg>
