<?xml version="1.0" encoding="UTF-8" standalone="no"?>
<!DOCTYPE svg PUBLIC "-//W3C//DTD SVG 1.1//EN"
 "http://www.w3.org/Graphics/SVG/1.1/DTD/svg11.dtd">
<!-- Generated by graphviz version 2.38.0 (20140413.2041)
 -->
<!-- Title: TMC5160Stepper::diss2vs Pages: 1 -->
<svg width="1004pt" height="192pt"
 viewBox="0.00 0.00 1004.00 191.50" xmlns="http://www.w3.org/2000/svg" xmlns:xlink="http://www.w3.org/1999/xlink">
<g id="graph0" class="graph" transform="scale(1 1) rotate(0) translate(4 187.5)">
<title>TMC5160Stepper::diss2vs</title>
<polygon fill="white" stroke="none" points="-4,4 -4,-187.5 1000,-187.5 1000,4 -4,4"/>
<!-- Node1 -->
<g id="node1" class="node"><title>Node1</title>
<g id="a_node1"><a xlink:title=" ">
<polygon fill="#bfbfbf" stroke="black" points="0,-88 0,-107 130,-107 130,-88 0,-88"/>
<text text-anchor="middle" x="65" y="-95" font-family="Helvetica,sans-Serif" font-size="10.00">TMC5160Stepper::diss2vs</text>
</a>
</g>
</g>
<!-- Node2 -->
<g id="node2" class="node"><title>Node2</title>
<g id="a_node2"><a xlink:href="../../dd/deb/class_t_m_c2130_stepper.html#a67541b27d97ce45f175e9f6e4a2d0bff" target="_top" xlink:title=" ">
<polygon fill="white" stroke="black" points="166,-88 166,-107 318,-107 318,-88 166,-88"/>
<text text-anchor="middle" x="242" y="-95" font-family="Helvetica,sans-Serif" font-size="10.00">TMC2130Stepper::CHOPCONF</text>
</a>
</g>
</g>
<!-- Node1&#45;&gt;Node2 -->
<g id="edge1" class="edge"><title>Node1&#45;&gt;Node2</title>
<path fill="none" stroke="midnightblue" d="M130.17,-97.5C138.513,-97.5 147.162,-97.5 155.781,-97.5"/>
<polygon fill="midnightblue" stroke="midnightblue" points="155.866,-101 165.866,-97.5 155.866,-94.0001 155.866,-101"/>
</g>
<!-- Node3 -->
<g id="node3" class="node"><title>Node3</title>
<g id="a_node3"><a xlink:href="../../dd/deb/class_t_m_c2130_stepper.html#a161ca6ebe3736454e17e9236572a6001" target="_top" xlink:title=" ">
<polygon fill="white" stroke="black" points="354,-88 354,-107 470,-107 470,-88 354,-88"/>
<text text-anchor="middle" x="412" y="-95" font-family="Helvetica,sans-Serif" font-size="10.00">TMC2130Stepper::read</text>
</a>
</g>
</g>
<!-- Node2&#45;&gt;Node3 -->
<g id="edge2" class="edge"><title>Node2&#45;&gt;Node3</title>
<path fill="none" stroke="midnightblue" d="M318.155,-97.5C326.664,-97.5 335.296,-97.5 343.696,-97.5"/>
<polygon fill="midnightblue" stroke="midnightblue" points="343.802,-101 353.802,-97.5 343.802,-94.0001 343.802,-101"/>
</g>
<!-- Node4 -->
<g id="node4" class="node"><title>Node4</title>
<g id="a_node4"><a xlink:href="../../dd/deb/class_t_m_c2130_stepper.html#a1fc868601a32fb0cd8fc536dafa8ecea" target="_top" xlink:title=" ">
<polygon fill="white" stroke="black" points="506,-164 506,-183 677,-183 677,-164 506,-164"/>
<text text-anchor="middle" x="591.5" y="-171" font-family="Helvetica,sans-Serif" font-size="10.00">TMC2130Stepper::beginTransaction</text>
</a>
</g>
</g>
<!-- Node3&#45;&gt;Node4 -->
<g id="edge3" class="edge"><title>Node3&#45;&gt;Node4</title>
<path fill="none" stroke="midnightblue" d="M425.522,-107.048C442.741,-119.725 475.117,-141.967 506,-154.5 512.272,-157.045 518.951,-159.283 525.7,-161.242"/>
<polygon fill="midnightblue" stroke="midnightblue" points="525.032,-164.687 535.599,-163.918 526.858,-157.93 525.032,-164.687"/>
</g>
<!-- Node5 -->
<g id="node5" class="node"><title>Node5</title>
<g id="a_node5"><a xlink:href="../../dd/deb/class_t_m_c2130_stepper.html#aeace18dcee808585dd4449e783811600" target="_top" xlink:title=" ">
<polygon fill="white" stroke="black" points="509.5,-126 509.5,-145 673.5,-145 673.5,-126 509.5,-126"/>
<text text-anchor="middle" x="591.5" y="-133" font-family="Helvetica,sans-Serif" font-size="10.00">TMC2130Stepper::endTransaction</text>
</a>
</g>
</g>
<!-- Node3&#45;&gt;Node5 -->
<g id="edge4" class="edge"><title>Node3&#45;&gt;Node5</title>
<path fill="none" stroke="midnightblue" d="M457.791,-107.089C481.53,-112.171 510.884,-118.455 535.944,-123.82"/>
<polygon fill="midnightblue" stroke="midnightblue" points="535.52,-127.309 546.031,-125.98 536.986,-120.464 535.52,-127.309"/>
</g>
<!-- Node6 -->
<g id="node6" class="node"><title>Node6</title>
<g id="a_node6"><a xlink:href="../../dd/deb/class_t_m_c2130_stepper.html#a4a8f3b6ac100045ed5f84fe4d18d9d5a" target="_top" xlink:title=" ">
<polygon fill="white" stroke="black" points="515.5,-88 515.5,-107 667.5,-107 667.5,-88 515.5,-88"/>
<text text-anchor="middle" x="591.5" y="-95" font-family="Helvetica,sans-Serif" font-size="10.00">TMC2130Stepper::switchCSpin</text>
</a>
</g>
</g>
<!-- Node3&#45;&gt;Node6 -->
<g id="edge5" class="edge"><title>Node3&#45;&gt;Node6</title>
<path fill="none" stroke="midnightblue" d="M470.139,-97.5C481.27,-97.5 493.163,-97.5 504.981,-97.5"/>
<polygon fill="midnightblue" stroke="midnightblue" points="505.325,-101 515.325,-97.5 505.324,-94.0001 505.325,-101"/>
</g>
<!-- Node7 -->
<g id="node7" class="node"><title>Node7</title>
<g id="a_node7"><a xlink:href="../../dd/deb/class_t_m_c2130_stepper.html#a0673af4887ec52b23aa658aa290f6623" target="_top" xlink:title=" ">
<polygon fill="white" stroke="black" points="713,-28 713,-47 843,-47 843,-28 713,-28"/>
<text text-anchor="middle" x="778" y="-35" font-family="Helvetica,sans-Serif" font-size="10.00">TMC2130Stepper::transfer</text>
</a>
</g>
</g>
<!-- Node3&#45;&gt;Node7 -->
<g id="edge6" class="edge"><title>Node3&#45;&gt;Node7</title>
<path fill="none" stroke="midnightblue" d="M457.378,-87.9498C472.744,-84.7717 490.099,-81.3252 506,-78.5 572.378,-66.7062 648.291,-55.4085 702.852,-47.6702"/>
<polygon fill="midnightblue" stroke="midnightblue" points="703.372,-51.1316 712.784,-46.2674 702.393,-44.2004 703.372,-51.1316"/>
</g>
<!-- Node9 -->
<g id="node9" class="node"><title>Node9</title>
<g id="a_node9"><a xlink:href="../../dd/deb/class_t_m_c2130_stepper.html#aba94fc7bb8e2c8c12191f44561f19d95" target="_top" xlink:title=" ">
<polygon fill="white" stroke="black" points="526.5,-0.5 526.5,-30.5 656.5,-30.5 656.5,-0.5 526.5,-0.5"/>
<text text-anchor="start" x="534.5" y="-18.5" font-family="Helvetica,sans-Serif" font-size="10.00">TMC2130Stepper::transfer</text>
<text text-anchor="middle" x="591.5" y="-7.5" font-family="Helvetica,sans-Serif" font-size="10.00">EmptyBytes</text>
</a>
</g>
</g>
<!-- Node3&#45;&gt;Node9 -->
<g id="edge8" class="edge"><title>Node3&#45;&gt;Node9</title>
<path fill="none" stroke="midnightblue" d="M428.378,-87.8381C446.488,-76.7136 477.694,-58.3277 506,-45.5 514.84,-41.494 524.386,-37.66 533.769,-34.1517"/>
<polygon fill="midnightblue" stroke="midnightblue" points="535.257,-37.3346 543.453,-30.6201 532.859,-30.7583 535.257,-37.3346"/>
</g>
<!-- Node8 -->
<g id="node8" class="node"><title>Node8</title>
<g id="a_node8"><a xlink:href="../../df/d8b/class_s_w___s_p_i_class.html#af260fdc0af3f1312b106483161e559c3" target="_top" xlink:title=" ">
<polygon fill="white" stroke="black" points="879,-28 879,-47 996,-47 996,-28 879,-28"/>
<text text-anchor="middle" x="937.5" y="-35" font-family="Helvetica,sans-Serif" font-size="10.00">SW_SPIClass::transfer</text>
</a>
</g>
</g>
<!-- Node7&#45;&gt;Node8 -->
<g id="edge7" class="edge"><title>Node7&#45;&gt;Node8</title>
<path fill="none" stroke="midnightblue" d="M843.061,-37.5C851.477,-37.5 860.125,-37.5 868.603,-37.5"/>
<polygon fill="midnightblue" stroke="midnightblue" points="868.831,-41.0001 878.831,-37.5 868.831,-34.0001 868.831,-41.0001"/>
</g>
<!-- Node9&#45;&gt;Node7 -->
<g id="edge9" class="edge"><title>Node9&#45;&gt;Node7</title>
<path fill="none" stroke="midnightblue" d="M656.511,-23.1328C671.452,-24.9144 687.487,-26.8263 702.827,-28.6556"/>
<polygon fill="midnightblue" stroke="midnightblue" points="702.445,-32.1347 712.79,-29.8435 703.274,-25.184 702.445,-32.1347"/>
</g>
</g>
</svg>
