<?xml version="1.0" encoding="UTF-8" standalone="no"?>
<!DOCTYPE svg PUBLIC "-//W3C//DTD SVG 1.1//EN"
 "http://www.w3.org/Graphics/SVG/1.1/DTD/svg11.dtd">
<!-- Generated by graphviz version 2.38.0 (20140413.2041)
 -->
<!-- Title: TMC5160Stepper::recalibrate Pages: 1 -->
<svg width="1176pt" height="192pt"
 viewBox="0.00 0.00 1176.00 191.50" xmlns="http://www.w3.org/2000/svg" xmlns:xlink="http://www.w3.org/1999/xlink">
<g id="graph0" class="graph" transform="scale(1 1) rotate(0) translate(4 187.5)">
<title>TMC5160Stepper::recalibrate</title>
<polygon fill="white" stroke="none" points="-4,4 -4,-187.5 1172,-187.5 1172,4 -4,4"/>
<!-- Node1 -->
<g id="node1" class="node"><title>Node1</title>
<g id="a_node1"><a xlink:title=" ">
<polygon fill="#bfbfbf" stroke="black" points="0,-88 0,-107 143,-107 143,-88 0,-88"/>
<text text-anchor="middle" x="71.5" y="-95" font-family="Helvetica,sans-Serif" font-size="10.00">TMC5160Stepper::recalibrate</text>
</a>
</g>
</g>
<!-- Node2 -->
<g id="node2" class="node"><title>Node2</title>
<g id="a_node2"><a xlink:href="../../d2/d6e/class_t_m_c5160_stepper.html#a5433717e0c2024befd1e3e493b8ce2b7" target="_top" xlink:title=" ">
<polygon fill="white" stroke="black" points="179,-88 179,-107 322,-107 322,-88 179,-88"/>
<text text-anchor="middle" x="250.5" y="-95" font-family="Helvetica,sans-Serif" font-size="10.00">TMC5160Stepper::recalibrate</text>
</a>
</g>
</g>
<!-- Node1&#45;&gt;Node2 -->
<g id="edge1" class="edge"><title>Node1&#45;&gt;Node2</title>
<path fill="none" stroke="midnightblue" d="M143.218,-97.5C151.57,-97.5 160.142,-97.5 168.62,-97.5"/>
<polygon fill="midnightblue" stroke="midnightblue" points="168.894,-101 178.894,-97.5 168.894,-94.0001 168.894,-101"/>
</g>
<!-- Node3 -->
<g id="node3" class="node"><title>Node3</title>
<g id="a_node3"><a xlink:href="../../dd/deb/class_t_m_c2130_stepper.html#aee84a9abfc84b387c6ae5658f90bf684" target="_top" xlink:title=" ">
<polygon fill="white" stroke="black" points="358,-88 358,-107 490,-107 490,-88 358,-88"/>
<text text-anchor="middle" x="424" y="-95" font-family="Helvetica,sans-Serif" font-size="10.00">TMC2130Stepper::GCONF</text>
</a>
</g>
</g>
<!-- Node2&#45;&gt;Node3 -->
<g id="edge2" class="edge"><title>Node2&#45;&gt;Node3</title>
<path fill="none" stroke="midnightblue" d="M322.246,-97.5C330.642,-97.5 339.237,-97.5 347.694,-97.5"/>
<polygon fill="midnightblue" stroke="midnightblue" points="347.919,-101 357.919,-97.5 347.919,-94.0001 347.919,-101"/>
</g>
<!-- Node4 -->
<g id="node4" class="node"><title>Node4</title>
<g id="a_node4"><a xlink:href="../../dd/deb/class_t_m_c2130_stepper.html#a161ca6ebe3736454e17e9236572a6001" target="_top" xlink:title=" ">
<polygon fill="white" stroke="black" points="526,-88 526,-107 642,-107 642,-88 526,-88"/>
<text text-anchor="middle" x="584" y="-95" font-family="Helvetica,sans-Serif" font-size="10.00">TMC2130Stepper::read</text>
</a>
</g>
</g>
<!-- Node3&#45;&gt;Node4 -->
<g id="edge3" class="edge"><title>Node3&#45;&gt;Node4</title>
<path fill="none" stroke="midnightblue" d="M490.177,-97.5C498.517,-97.5 507.069,-97.5 515.445,-97.5"/>
<polygon fill="midnightblue" stroke="midnightblue" points="515.55,-101 525.55,-97.5 515.55,-94.0001 515.55,-101"/>
</g>
<!-- Node5 -->
<g id="node5" class="node"><title>Node5</title>
<g id="a_node5"><a xlink:href="../../dd/deb/class_t_m_c2130_stepper.html#a1fc868601a32fb0cd8fc536dafa8ecea" target="_top" xlink:title=" ">
<polygon fill="white" stroke="black" points="678,-164 678,-183 849,-183 849,-164 678,-164"/>
<text text-anchor="middle" x="763.5" y="-171" font-family="Helvetica,sans-Serif" font-size="10.00">TMC2130Stepper::beginTransaction</text>
</a>
</g>
</g>
<!-- Node4&#45;&gt;Node5 -->
<g id="edge4" class="edge"><title>Node4&#45;&gt;Node5</title>
<path fill="none" stroke="midnightblue" d="M597.522,-107.048C614.741,-119.725 647.117,-141.967 678,-154.5 684.272,-157.045 690.951,-159.283 697.7,-161.242"/>
<polygon fill="midnightblue" stroke="midnightblue" points="697.032,-164.687 707.599,-163.918 698.858,-157.93 697.032,-164.687"/>
</g>
<!-- Node6 -->
<g id="node6" class="node"><title>Node6</title>
<g id="a_node6"><a xlink:href="../../dd/deb/class_t_m_c2130_stepper.html#aeace18dcee808585dd4449e783811600" target="_top" xlink:title=" ">
<polygon fill="white" stroke="black" points="681.5,-126 681.5,-145 845.5,-145 845.5,-126 681.5,-126"/>
<text text-anchor="middle" x="763.5" y="-133" font-family="Helvetica,sans-Serif" font-size="10.00">TMC2130Stepper::endTransaction</text>
</a>
</g>
</g>
<!-- Node4&#45;&gt;Node6 -->
<g id="edge5" class="edge"><title>Node4&#45;&gt;Node6</title>
<path fill="none" stroke="midnightblue" d="M629.791,-107.089C653.53,-112.171 682.884,-118.455 707.944,-123.82"/>
<polygon fill="midnightblue" stroke="midnightblue" points="707.52,-127.309 718.031,-125.98 708.986,-120.464 707.52,-127.309"/>
</g>
<!-- Node7 -->
<g id="node7" class="node"><title>Node7</title>
<g id="a_node7"><a xlink:href="../../dd/deb/class_t_m_c2130_stepper.html#a4a8f3b6ac100045ed5f84fe4d18d9d5a" target="_top" xlink:title=" ">
<polygon fill="white" stroke="black" points="687.5,-88 687.5,-107 839.5,-107 839.5,-88 687.5,-88"/>
<text text-anchor="middle" x="763.5" y="-95" font-family="Helvetica,sans-Serif" font-size="10.00">TMC2130Stepper::switchCSpin</text>
</a>
</g>
</g>
<!-- Node4&#45;&gt;Node7 -->
<g id="edge6" class="edge"><title>Node4&#45;&gt;Node7</title>
<path fill="none" stroke="midnightblue" d="M642.139,-97.5C653.27,-97.5 665.163,-97.5 676.981,-97.5"/>
<polygon fill="midnightblue" stroke="midnightblue" points="677.325,-101 687.325,-97.5 677.324,-94.0001 677.325,-101"/>
</g>
<!-- Node8 -->
<g id="node8" class="node"><title>Node8</title>
<g id="a_node8"><a xlink:href="../../dd/deb/class_t_m_c2130_stepper.html#a0673af4887ec52b23aa658aa290f6623" target="_top" xlink:title=" ">
<polygon fill="white" stroke="black" points="885,-28 885,-47 1015,-47 1015,-28 885,-28"/>
<text text-anchor="middle" x="950" y="-35" font-family="Helvetica,sans-Serif" font-size="10.00">TMC2130Stepper::transfer</text>
</a>
</g>
</g>
<!-- Node4&#45;&gt;Node8 -->
<g id="edge7" class="edge"><title>Node4&#45;&gt;Node8</title>
<path fill="none" stroke="midnightblue" d="M629.378,-87.9498C644.744,-84.7717 662.099,-81.3252 678,-78.5 744.378,-66.7062 820.291,-55.4085 874.852,-47.6702"/>
<polygon fill="midnightblue" stroke="midnightblue" points="875.372,-51.1316 884.784,-46.2674 874.393,-44.2004 875.372,-51.1316"/>
</g>
<!-- Node10 -->
<g id="node10" class="node"><title>Node10</title>
<g id="a_node10"><a xlink:href="../../dd/deb/class_t_m_c2130_stepper.html#aba94fc7bb8e2c8c12191f44561f19d95" target="_top" xlink:title=" ">
<polygon fill="white" stroke="black" points="698.5,-0.5 698.5,-30.5 828.5,-30.5 828.5,-0.5 698.5,-0.5"/>
<text text-anchor="start" x="706.5" y="-18.5" font-family="Helvetica,sans-Serif" font-size="10.00">TMC2130Stepper::transfer</text>
<text text-anchor="middle" x="763.5" y="-7.5" font-family="Helvetica,sans-Serif" font-size="10.00">EmptyBytes</text>
</a>
</g>
</g>
<!-- Node4&#45;&gt;Node10 -->
<g id="edge9" class="edge"><title>Node4&#45;&gt;Node10</title>
<path fill="none" stroke="midnightblue" d="M600.378,-87.8381C618.488,-76.7136 649.694,-58.3277 678,-45.5 686.84,-41.494 696.386,-37.66 705.769,-34.1517"/>
<polygon fill="midnightblue" stroke="midnightblue" points="707.257,-37.3346 715.453,-30.6201 704.859,-30.7583 707.257,-37.3346"/>
</g>
<!-- Node9 -->
<g id="node9" class="node"><title>Node9</title>
<g id="a_node9"><a xlink:href="../../df/d8b/class_s_w___s_p_i_class.html#af260fdc0af3f1312b106483161e559c3" target="_top" xlink:title=" ">
<polygon fill="white" stroke="black" points="1051,-28 1051,-47 1168,-47 1168,-28 1051,-28"/>
<text text-anchor="middle" x="1109.5" y="-35" font-family="Helvetica,sans-Serif" font-size="10.00">SW_SPIClass::transfer</text>
</a>
</g>
</g>
<!-- Node8&#45;&gt;Node9 -->
<g id="edge8" class="edge"><title>Node8&#45;&gt;Node9</title>
<path fill="none" stroke="midnightblue" d="M1015.06,-37.5C1023.48,-37.5 1032.13,-37.5 1040.6,-37.5"/>
<polygon fill="midnightblue" stroke="midnightblue" points="1040.83,-41.0001 1050.83,-37.5 1040.83,-34.0001 1040.83,-41.0001"/>
</g>
<!-- Node10&#45;&gt;Node8 -->
<g id="edge10" class="edge"><title>Node10&#45;&gt;Node8</title>
<path fill="none" stroke="midnightblue" d="M828.511,-23.1328C843.452,-24.9144 859.487,-26.8263 874.827,-28.6556"/>
<polygon fill="midnightblue" stroke="midnightblue" points="874.445,-32.1347 884.79,-29.8435 875.274,-25.184 874.445,-32.1347"/>
</g>
</g>
</svg>
