<?xml version="1.0" encoding="UTF-8" standalone="no"?>
<!DOCTYPE svg PUBLIC "-//W3C//DTD SVG 1.1//EN"
 "http://www.w3.org/Graphics/SVG/1.1/DTD/svg11.dtd">
<!-- Generated by graphviz version 2.38.0 (20140413.2041)
 -->
<!-- Title: TMC5160Stepper::PWM_AUTO Pages: 1 -->
<svg width="840pt" height="192pt"
 viewBox="0.00 0.00 840.00 191.50" xmlns="http://www.w3.org/2000/svg" xmlns:xlink="http://www.w3.org/1999/xlink">
<g id="graph0" class="graph" transform="scale(1 1) rotate(0) translate(4 187.5)">
<title>TMC5160Stepper::PWM_AUTO</title>
<polygon fill="white" stroke="none" points="-4,4 -4,-187.5 836,-187.5 836,4 -4,4"/>
<!-- Node1 -->
<g id="node1" class="node"><title>Node1</title>
<g id="a_node1"><a xlink:title=" ">
<polygon fill="#bfbfbf" stroke="black" points="0,-88 0,-107 154,-107 154,-88 0,-88"/>
<text text-anchor="middle" x="77" y="-95" font-family="Helvetica,sans-Serif" font-size="10.00">TMC5160Stepper::PWM_AUTO</text>
</a>
</g>
</g>
<!-- Node2 -->
<g id="node2" class="node"><title>Node2</title>
<g id="a_node2"><a xlink:href="../../dd/deb/class_t_m_c2130_stepper.html#a161ca6ebe3736454e17e9236572a6001" target="_top" xlink:title=" ">
<polygon fill="white" stroke="black" points="190,-88 190,-107 306,-107 306,-88 190,-88"/>
<text text-anchor="middle" x="248" y="-95" font-family="Helvetica,sans-Serif" font-size="10.00">TMC2130Stepper::read</text>
</a>
</g>
</g>
<!-- Node1&#45;&gt;Node2 -->
<g id="edge1" class="edge"><title>Node1&#45;&gt;Node2</title>
<path fill="none" stroke="midnightblue" d="M154.095,-97.5C162.629,-97.5 171.277,-97.5 179.689,-97.5"/>
<polygon fill="midnightblue" stroke="midnightblue" points="179.807,-101 189.807,-97.5 179.807,-94.0001 179.807,-101"/>
</g>
<!-- Node3 -->
<g id="node3" class="node"><title>Node3</title>
<g id="a_node3"><a xlink:href="../../dd/deb/class_t_m_c2130_stepper.html#a1fc868601a32fb0cd8fc536dafa8ecea" target="_top" xlink:title=" ">
<polygon fill="white" stroke="black" points="342,-164 342,-183 513,-183 513,-164 342,-164"/>
<text text-anchor="middle" x="427.5" y="-171" font-family="Helvetica,sans-Serif" font-size="10.00">TMC2130Stepper::beginTransaction</text>
</a>
</g>
</g>
<!-- Node2&#45;&gt;Node3 -->
<g id="edge2" class="edge"><title>Node2&#45;&gt;Node3</title>
<path fill="none" stroke="midnightblue" d="M261.522,-107.048C278.741,-119.725 311.117,-141.967 342,-154.5 348.272,-157.045 354.951,-159.283 361.7,-161.242"/>
<polygon fill="midnightblue" stroke="midnightblue" points="361.032,-164.687 371.599,-163.918 362.858,-157.93 361.032,-164.687"/>
</g>
<!-- Node4 -->
<g id="node4" class="node"><title>Node4</title>
<g id="a_node4"><a xlink:href="../../dd/deb/class_t_m_c2130_stepper.html#aeace18dcee808585dd4449e783811600" target="_top" xlink:title=" ">
<polygon fill="white" stroke="black" points="345.5,-126 345.5,-145 509.5,-145 509.5,-126 345.5,-126"/>
<text text-anchor="middle" x="427.5" y="-133" font-family="Helvetica,sans-Serif" font-size="10.00">TMC2130Stepper::endTransaction</text>
</a>
</g>
</g>
<!-- Node2&#45;&gt;Node4 -->
<g id="edge3" class="edge"><title>Node2&#45;&gt;Node4</title>
<path fill="none" stroke="midnightblue" d="M293.791,-107.089C317.53,-112.171 346.884,-118.455 371.944,-123.82"/>
<polygon fill="midnightblue" stroke="midnightblue" points="371.52,-127.309 382.031,-125.98 372.986,-120.464 371.52,-127.309"/>
</g>
<!-- Node5 -->
<g id="node5" class="node"><title>Node5</title>
<g id="a_node5"><a xlink:href="../../dd/deb/class_t_m_c2130_stepper.html#a4a8f3b6ac100045ed5f84fe4d18d9d5a" target="_top" xlink:title=" ">
<polygon fill="white" stroke="black" points="351.5,-88 351.5,-107 503.5,-107 503.5,-88 351.5,-88"/>
<text text-anchor="middle" x="427.5" y="-95" font-family="Helvetica,sans-Serif" font-size="10.00">TMC2130Stepper::switchCSpin</text>
</a>
</g>
</g>
<!-- Node2&#45;&gt;Node5 -->
<g id="edge4" class="edge"><title>Node2&#45;&gt;Node5</title>
<path fill="none" stroke="midnightblue" d="M306.139,-97.5C317.27,-97.5 329.163,-97.5 340.981,-97.5"/>
<polygon fill="midnightblue" stroke="midnightblue" points="341.325,-101 351.325,-97.5 341.324,-94.0001 341.325,-101"/>
</g>
<!-- Node6 -->
<g id="node6" class="node"><title>Node6</title>
<g id="a_node6"><a xlink:href="../../dd/deb/class_t_m_c2130_stepper.html#a0673af4887ec52b23aa658aa290f6623" target="_top" xlink:title=" ">
<polygon fill="white" stroke="black" points="549,-28 549,-47 679,-47 679,-28 549,-28"/>
<text text-anchor="middle" x="614" y="-35" font-family="Helvetica,sans-Serif" font-size="10.00">TMC2130Stepper::transfer</text>
</a>
</g>
</g>
<!-- Node2&#45;&gt;Node6 -->
<g id="edge5" class="edge"><title>Node2&#45;&gt;Node6</title>
<path fill="none" stroke="midnightblue" d="M293.378,-87.9498C308.744,-84.7717 326.099,-81.3252 342,-78.5 408.378,-66.7062 484.291,-55.4085 538.852,-47.6702"/>
<polygon fill="midnightblue" stroke="midnightblue" points="539.372,-51.1316 548.784,-46.2674 538.393,-44.2004 539.372,-51.1316"/>
</g>
<!-- Node8 -->
<g id="node8" class="node"><title>Node8</title>
<g id="a_node8"><a xlink:href="../../dd/deb/class_t_m_c2130_stepper.html#aba94fc7bb8e2c8c12191f44561f19d95" target="_top" xlink:title=" ">
<polygon fill="white" stroke="black" points="362.5,-0.5 362.5,-30.5 492.5,-30.5 492.5,-0.5 362.5,-0.5"/>
<text text-anchor="start" x="370.5" y="-18.5" font-family="Helvetica,sans-Serif" font-size="10.00">TMC2130Stepper::transfer</text>
<text text-anchor="middle" x="427.5" y="-7.5" font-family="Helvetica,sans-Serif" font-size="10.00">EmptyBytes</text>
</a>
</g>
</g>
<!-- Node2&#45;&gt;Node8 -->
<g id="edge7" class="edge"><title>Node2&#45;&gt;Node8</title>
<path fill="none" stroke="midnightblue" d="M264.378,-87.8381C282.488,-76.7136 313.694,-58.3277 342,-45.5 350.84,-41.494 360.386,-37.66 369.769,-34.1517"/>
<polygon fill="midnightblue" stroke="midnightblue" points="371.257,-37.3346 379.453,-30.6201 368.859,-30.7583 371.257,-37.3346"/>
</g>
<!-- Node7 -->
<g id="node7" class="node"><title>Node7</title>
<g id="a_node7"><a xlink:href="../../df/d8b/class_s_w___s_p_i_class.html#af260fdc0af3f1312b106483161e559c3" target="_top" xlink:title=" ">
<polygon fill="white" stroke="black" points="715,-28 715,-47 832,-47 832,-28 715,-28"/>
<text text-anchor="middle" x="773.5" y="-35" font-family="Helvetica,sans-Serif" font-size="10.00">SW_SPIClass::transfer</text>
</a>
</g>
</g>
<!-- Node6&#45;&gt;Node7 -->
<g id="edge6" class="edge"><title>Node6&#45;&gt;Node7</title>
<path fill="none" stroke="midnightblue" d="M679.061,-37.5C687.477,-37.5 696.125,-37.5 704.603,-37.5"/>
<polygon fill="midnightblue" stroke="midnightblue" points="704.831,-41.0001 714.831,-37.5 704.831,-34.0001 704.831,-41.0001"/>
</g>
<!-- Node8&#45;&gt;Node6 -->
<g id="edge8" class="edge"><title>Node8&#45;&gt;Node6</title>
<path fill="none" stroke="midnightblue" d="M492.511,-23.1328C507.452,-24.9144 523.487,-26.8263 538.827,-28.6556"/>
<polygon fill="midnightblue" stroke="midnightblue" points="538.445,-32.1347 548.79,-29.8435 539.274,-25.184 538.445,-32.1347"/>
</g>
</g>
</svg>
