<?xml version="1.0" encoding="UTF-8" standalone="no"?>
<!DOCTYPE svg PUBLIC "-//W3C//DTD SVG 1.1//EN"
 "http://www.w3.org/Graphics/SVG/1.1/DTD/svg11.dtd">
<!-- Generated by graphviz version 2.38.0 (20140413.2041)
 -->
<!-- Title: TMC2160Stepper::pwm_lim Pages: 1 -->
<svg width="824pt" height="192pt"
 viewBox="0.00 0.00 824.00 191.50" xmlns="http://www.w3.org/2000/svg" xmlns:xlink="http://www.w3.org/1999/xlink">
<g id="graph0" class="graph" transform="scale(1 1) rotate(0) translate(4 187.5)">
<title>TMC2160Stepper::pwm_lim</title>
<polygon fill="white" stroke="none" points="-4,4 -4,-187.5 820,-187.5 820,4 -4,4"/>
<!-- Node1 -->
<g id="node1" class="node"><title>Node1</title>
<g id="a_node1"><a xlink:title=" ">
<polygon fill="#bfbfbf" stroke="black" points="0,-88 0,-107 136,-107 136,-88 0,-88"/>
<text text-anchor="middle" x="68" y="-95" font-family="Helvetica,sans-Serif" font-size="10.00">TMC2160Stepper::pwm_lim</text>
</a>
</g>
</g>
<!-- Node2 -->
<g id="node2" class="node"><title>Node2</title>
<g id="a_node2"><a xlink:href="../../dd/deb/class_t_m_c2130_stepper.html#a6b02e33ab452a7869426ede7ba370445" target="_top" xlink:title=" ">
<polygon fill="white" stroke="black" points="172,-88 172,-107 290,-107 290,-88 172,-88"/>
<text text-anchor="middle" x="231" y="-95" font-family="Helvetica,sans-Serif" font-size="10.00">TMC2130Stepper::write</text>
</a>
</g>
</g>
<!-- Node1&#45;&gt;Node2 -->
<g id="edge1" class="edge"><title>Node1&#45;&gt;Node2</title>
<path fill="none" stroke="midnightblue" d="M136.346,-97.5C144.738,-97.5 153.327,-97.5 161.734,-97.5"/>
<polygon fill="midnightblue" stroke="midnightblue" points="161.872,-101 171.872,-97.5 161.872,-94.0001 161.872,-101"/>
</g>
<!-- Node3 -->
<g id="node3" class="node"><title>Node3</title>
<g id="a_node3"><a xlink:href="../../dd/deb/class_t_m_c2130_stepper.html#a1fc868601a32fb0cd8fc536dafa8ecea" target="_top" xlink:title=" ">
<polygon fill="white" stroke="black" points="326,-164 326,-183 497,-183 497,-164 326,-164"/>
<text text-anchor="middle" x="411.5" y="-171" font-family="Helvetica,sans-Serif" font-size="10.00">TMC2130Stepper::beginTransaction</text>
</a>
</g>
</g>
<!-- Node2&#45;&gt;Node3 -->
<g id="edge2" class="edge"><title>Node2&#45;&gt;Node3</title>
<path fill="none" stroke="midnightblue" d="M244.674,-107.041C262.099,-119.71 294.845,-141.943 326,-154.5 332.372,-157.068 339.16,-159.325 346.015,-161.299"/>
<polygon fill="midnightblue" stroke="midnightblue" points="345.497,-164.784 356.062,-163.994 347.31,-158.023 345.497,-164.784"/>
</g>
<!-- Node4 -->
<g id="node4" class="node"><title>Node4</title>
<g id="a_node4"><a xlink:href="../../dd/deb/class_t_m_c2130_stepper.html#aeace18dcee808585dd4449e783811600" target="_top" xlink:title=" ">
<polygon fill="white" stroke="black" points="329.5,-126 329.5,-145 493.5,-145 493.5,-126 329.5,-126"/>
<text text-anchor="middle" x="411.5" y="-133" font-family="Helvetica,sans-Serif" font-size="10.00">TMC2130Stepper::endTransaction</text>
</a>
</g>
</g>
<!-- Node2&#45;&gt;Node4 -->
<g id="edge3" class="edge"><title>Node2&#45;&gt;Node4</title>
<path fill="none" stroke="midnightblue" d="M277.043,-107.089C301.023,-112.194 330.698,-118.511 355.972,-123.892"/>
<polygon fill="midnightblue" stroke="midnightblue" points="355.271,-127.321 365.781,-125.98 356.729,-120.474 355.271,-127.321"/>
</g>
<!-- Node5 -->
<g id="node5" class="node"><title>Node5</title>
<g id="a_node5"><a xlink:href="../../dd/deb/class_t_m_c2130_stepper.html#a4a8f3b6ac100045ed5f84fe4d18d9d5a" target="_top" xlink:title=" ">
<polygon fill="white" stroke="black" points="335.5,-88 335.5,-107 487.5,-107 487.5,-88 335.5,-88"/>
<text text-anchor="middle" x="411.5" y="-95" font-family="Helvetica,sans-Serif" font-size="10.00">TMC2130Stepper::switchCSpin</text>
</a>
</g>
</g>
<!-- Node2&#45;&gt;Node5 -->
<g id="edge4" class="edge"><title>Node2&#45;&gt;Node5</title>
<path fill="none" stroke="midnightblue" d="M290.448,-97.5C301.536,-97.5 313.347,-97.5 325.07,-97.5"/>
<polygon fill="midnightblue" stroke="midnightblue" points="325.329,-101 335.329,-97.5 325.329,-94.0001 325.329,-101"/>
</g>
<!-- Node6 -->
<g id="node6" class="node"><title>Node6</title>
<g id="a_node6"><a xlink:href="../../dd/deb/class_t_m_c2130_stepper.html#a0673af4887ec52b23aa658aa290f6623" target="_top" xlink:title=" ">
<polygon fill="white" stroke="black" points="533,-28 533,-47 663,-47 663,-28 533,-28"/>
<text text-anchor="middle" x="598" y="-35" font-family="Helvetica,sans-Serif" font-size="10.00">TMC2130Stepper::transfer</text>
</a>
</g>
</g>
<!-- Node2&#45;&gt;Node6 -->
<g id="edge5" class="edge"><title>Node2&#45;&gt;Node6</title>
<path fill="none" stroke="midnightblue" d="M276.859,-87.964C292.391,-84.787 309.932,-81.3376 326,-78.5 392.39,-66.7755 468.302,-55.4704 522.859,-47.7117"/>
<polygon fill="midnightblue" stroke="midnightblue" points="523.381,-51.1729 532.791,-46.3049 522.399,-44.2421 523.381,-51.1729"/>
</g>
<!-- Node8 -->
<g id="node8" class="node"><title>Node8</title>
<g id="a_node8"><a xlink:href="../../dd/deb/class_t_m_c2130_stepper.html#aba94fc7bb8e2c8c12191f44561f19d95" target="_top" xlink:title=" ">
<polygon fill="white" stroke="black" points="346.5,-0.5 346.5,-30.5 476.5,-30.5 476.5,-0.5 346.5,-0.5"/>
<text text-anchor="start" x="354.5" y="-18.5" font-family="Helvetica,sans-Serif" font-size="10.00">TMC2130Stepper::transfer</text>
<text text-anchor="middle" x="411.5" y="-7.5" font-family="Helvetica,sans-Serif" font-size="10.00">EmptyBytes</text>
</a>
</g>
</g>
<!-- Node2&#45;&gt;Node8 -->
<g id="edge7" class="edge"><title>Node2&#45;&gt;Node8</title>
<path fill="none" stroke="midnightblue" d="M247.559,-87.8524C265.877,-76.7413 297.432,-58.368 326,-45.5 335.049,-41.4242 344.831,-37.5179 354.42,-33.9495"/>
<polygon fill="midnightblue" stroke="midnightblue" points="355.707,-37.2056 363.91,-30.5 353.316,-30.6267 355.707,-37.2056"/>
</g>
<!-- Node7 -->
<g id="node7" class="node"><title>Node7</title>
<g id="a_node7"><a xlink:href="../../df/d8b/class_s_w___s_p_i_class.html#af260fdc0af3f1312b106483161e559c3" target="_top" xlink:title=" ">
<polygon fill="white" stroke="black" points="699,-28 699,-47 816,-47 816,-28 699,-28"/>
<text text-anchor="middle" x="757.5" y="-35" font-family="Helvetica,sans-Serif" font-size="10.00">SW_SPIClass::transfer</text>
</a>
</g>
</g>
<!-- Node6&#45;&gt;Node7 -->
<g id="edge6" class="edge"><title>Node6&#45;&gt;Node7</title>
<path fill="none" stroke="midnightblue" d="M663.061,-37.5C671.477,-37.5 680.125,-37.5 688.603,-37.5"/>
<polygon fill="midnightblue" stroke="midnightblue" points="688.831,-41.0001 698.831,-37.5 688.831,-34.0001 688.831,-41.0001"/>
</g>
<!-- Node8&#45;&gt;Node6 -->
<g id="edge8" class="edge"><title>Node8&#45;&gt;Node6</title>
<path fill="none" stroke="midnightblue" d="M476.511,-23.1328C491.452,-24.9144 507.487,-26.8263 522.827,-28.6556"/>
<polygon fill="midnightblue" stroke="midnightblue" points="522.445,-32.1347 532.79,-29.8435 523.274,-25.184 522.445,-32.1347"/>
</g>
</g>
</svg>
