<?xml version="1.0" encoding="UTF-8" standalone="no"?>
<!DOCTYPE svg PUBLIC "-//W3C//DTD SVG 1.1//EN"
 "http://www.w3.org/Graphics/SVG/1.1/DTD/svg11.dtd">
<!-- Generated by graphviz version 2.38.0 (20140413.2041)
 -->
<!-- Title: TMC2160Stepper::drv_enn Pages: 1 -->
<svg width="969pt" height="192pt"
 viewBox="0.00 0.00 969.00 191.50" xmlns="http://www.w3.org/2000/svg" xmlns:xlink="http://www.w3.org/1999/xlink">
<g id="graph0" class="graph" transform="scale(1 1) rotate(0) translate(4 187.5)">
<title>TMC2160Stepper::drv_enn</title>
<polygon fill="white" stroke="none" points="-4,4 -4,-187.5 965,-187.5 965,4 -4,4"/>
<!-- Node1 -->
<g id="node1" class="node"><title>Node1</title>
<g id="a_node1"><a xlink:title=" ">
<polygon fill="#bfbfbf" stroke="black" points="0,-88 0,-107 131,-107 131,-88 0,-88"/>
<text text-anchor="middle" x="65.5" y="-95" font-family="Helvetica,sans-Serif" font-size="10.00">TMC2160Stepper::drv_enn</text>
</a>
</g>
</g>
<!-- Node2 -->
<g id="node2" class="node"><title>Node2</title>
<g id="a_node2"><a xlink:href="../../db/d9d/class_t_m_c2160_stepper.html#a3d1beb78c3356e99799915df3b424e60" target="_top" xlink:title=" ">
<polygon fill="white" stroke="black" points="167,-88 167,-107 283,-107 283,-88 167,-88"/>
<text text-anchor="middle" x="225" y="-95" font-family="Helvetica,sans-Serif" font-size="10.00">TMC2160Stepper::IOIN</text>
</a>
</g>
</g>
<!-- Node1&#45;&gt;Node2 -->
<g id="edge1" class="edge"><title>Node1&#45;&gt;Node2</title>
<path fill="none" stroke="midnightblue" d="M131.016,-97.5C139.471,-97.5 148.153,-97.5 156.654,-97.5"/>
<polygon fill="midnightblue" stroke="midnightblue" points="156.906,-101 166.906,-97.5 156.906,-94.0001 156.906,-101"/>
</g>
<!-- Node3 -->
<g id="node3" class="node"><title>Node3</title>
<g id="a_node3"><a xlink:href="../../dd/deb/class_t_m_c2130_stepper.html#a161ca6ebe3736454e17e9236572a6001" target="_top" xlink:title=" ">
<polygon fill="white" stroke="black" points="319,-88 319,-107 435,-107 435,-88 319,-88"/>
<text text-anchor="middle" x="377" y="-95" font-family="Helvetica,sans-Serif" font-size="10.00">TMC2130Stepper::read</text>
</a>
</g>
</g>
<!-- Node2&#45;&gt;Node3 -->
<g id="edge2" class="edge"><title>Node2&#45;&gt;Node3</title>
<path fill="none" stroke="midnightblue" d="M283.136,-97.5C291.377,-97.5 299.923,-97.5 308.344,-97.5"/>
<polygon fill="midnightblue" stroke="midnightblue" points="308.526,-101 318.525,-97.5 308.525,-94.0001 308.526,-101"/>
</g>
<!-- Node4 -->
<g id="node4" class="node"><title>Node4</title>
<g id="a_node4"><a xlink:href="../../dd/deb/class_t_m_c2130_stepper.html#a1fc868601a32fb0cd8fc536dafa8ecea" target="_top" xlink:title=" ">
<polygon fill="white" stroke="black" points="471,-164 471,-183 642,-183 642,-164 471,-164"/>
<text text-anchor="middle" x="556.5" y="-171" font-family="Helvetica,sans-Serif" font-size="10.00">TMC2130Stepper::beginTransaction</text>
</a>
</g>
</g>
<!-- Node3&#45;&gt;Node4 -->
<g id="edge3" class="edge"><title>Node3&#45;&gt;Node4</title>
<path fill="none" stroke="midnightblue" d="M390.522,-107.048C407.741,-119.725 440.117,-141.967 471,-154.5 477.272,-157.045 483.951,-159.283 490.7,-161.242"/>
<polygon fill="midnightblue" stroke="midnightblue" points="490.032,-164.687 500.599,-163.918 491.858,-157.93 490.032,-164.687"/>
</g>
<!-- Node5 -->
<g id="node5" class="node"><title>Node5</title>
<g id="a_node5"><a xlink:href="../../dd/deb/class_t_m_c2130_stepper.html#aeace18dcee808585dd4449e783811600" target="_top" xlink:title=" ">
<polygon fill="white" stroke="black" points="474.5,-126 474.5,-145 638.5,-145 638.5,-126 474.5,-126"/>
<text text-anchor="middle" x="556.5" y="-133" font-family="Helvetica,sans-Serif" font-size="10.00">TMC2130Stepper::endTransaction</text>
</a>
</g>
</g>
<!-- Node3&#45;&gt;Node5 -->
<g id="edge4" class="edge"><title>Node3&#45;&gt;Node5</title>
<path fill="none" stroke="midnightblue" d="M422.791,-107.089C446.53,-112.171 475.884,-118.455 500.944,-123.82"/>
<polygon fill="midnightblue" stroke="midnightblue" points="500.52,-127.309 511.031,-125.98 501.986,-120.464 500.52,-127.309"/>
</g>
<!-- Node6 -->
<g id="node6" class="node"><title>Node6</title>
<g id="a_node6"><a xlink:href="../../dd/deb/class_t_m_c2130_stepper.html#a4a8f3b6ac100045ed5f84fe4d18d9d5a" target="_top" xlink:title=" ">
<polygon fill="white" stroke="black" points="480.5,-88 480.5,-107 632.5,-107 632.5,-88 480.5,-88"/>
<text text-anchor="middle" x="556.5" y="-95" font-family="Helvetica,sans-Serif" font-size="10.00">TMC2130Stepper::switchCSpin</text>
</a>
</g>
</g>
<!-- Node3&#45;&gt;Node6 -->
<g id="edge5" class="edge"><title>Node3&#45;&gt;Node6</title>
<path fill="none" stroke="midnightblue" d="M435.139,-97.5C446.27,-97.5 458.163,-97.5 469.981,-97.5"/>
<polygon fill="midnightblue" stroke="midnightblue" points="470.325,-101 480.325,-97.5 470.324,-94.0001 470.325,-101"/>
</g>
<!-- Node7 -->
<g id="node7" class="node"><title>Node7</title>
<g id="a_node7"><a xlink:href="../../dd/deb/class_t_m_c2130_stepper.html#a0673af4887ec52b23aa658aa290f6623" target="_top" xlink:title=" ">
<polygon fill="white" stroke="black" points="678,-28 678,-47 808,-47 808,-28 678,-28"/>
<text text-anchor="middle" x="743" y="-35" font-family="Helvetica,sans-Serif" font-size="10.00">TMC2130Stepper::transfer</text>
</a>
</g>
</g>
<!-- Node3&#45;&gt;Node7 -->
<g id="edge6" class="edge"><title>Node3&#45;&gt;Node7</title>
<path fill="none" stroke="midnightblue" d="M422.378,-87.9498C437.744,-84.7717 455.099,-81.3252 471,-78.5 537.378,-66.7062 613.291,-55.4085 667.852,-47.6702"/>
<polygon fill="midnightblue" stroke="midnightblue" points="668.372,-51.1316 677.784,-46.2674 667.393,-44.2004 668.372,-51.1316"/>
</g>
<!-- Node9 -->
<g id="node9" class="node"><title>Node9</title>
<g id="a_node9"><a xlink:href="../../dd/deb/class_t_m_c2130_stepper.html#aba94fc7bb8e2c8c12191f44561f19d95" target="_top" xlink:title=" ">
<polygon fill="white" stroke="black" points="491.5,-0.5 491.5,-30.5 621.5,-30.5 621.5,-0.5 491.5,-0.5"/>
<text text-anchor="start" x="499.5" y="-18.5" font-family="Helvetica,sans-Serif" font-size="10.00">TMC2130Stepper::transfer</text>
<text text-anchor="middle" x="556.5" y="-7.5" font-family="Helvetica,sans-Serif" font-size="10.00">EmptyBytes</text>
</a>
</g>
</g>
<!-- Node3&#45;&gt;Node9 -->
<g id="edge8" class="edge"><title>Node3&#45;&gt;Node9</title>
<path fill="none" stroke="midnightblue" d="M393.378,-87.8381C411.488,-76.7136 442.694,-58.3277 471,-45.5 479.84,-41.494 489.386,-37.66 498.769,-34.1517"/>
<polygon fill="midnightblue" stroke="midnightblue" points="500.257,-37.3346 508.453,-30.6201 497.859,-30.7583 500.257,-37.3346"/>
</g>
<!-- Node8 -->
<g id="node8" class="node"><title>Node8</title>
<g id="a_node8"><a xlink:href="../../df/d8b/class_s_w___s_p_i_class.html#af260fdc0af3f1312b106483161e559c3" target="_top" xlink:title=" ">
<polygon fill="white" stroke="black" points="844,-28 844,-47 961,-47 961,-28 844,-28"/>
<text text-anchor="middle" x="902.5" y="-35" font-family="Helvetica,sans-Serif" font-size="10.00">SW_SPIClass::transfer</text>
</a>
</g>
</g>
<!-- Node7&#45;&gt;Node8 -->
<g id="edge7" class="edge"><title>Node7&#45;&gt;Node8</title>
<path fill="none" stroke="midnightblue" d="M808.061,-37.5C816.477,-37.5 825.125,-37.5 833.603,-37.5"/>
<polygon fill="midnightblue" stroke="midnightblue" points="833.831,-41.0001 843.831,-37.5 833.831,-34.0001 833.831,-41.0001"/>
</g>
<!-- Node9&#45;&gt;Node7 -->
<g id="edge9" class="edge"><title>Node9&#45;&gt;Node7</title>
<path fill="none" stroke="midnightblue" d="M621.511,-23.1328C636.452,-24.9144 652.487,-26.8263 667.827,-28.6556"/>
<polygon fill="midnightblue" stroke="midnightblue" points="667.445,-32.1347 677.79,-29.8435 668.274,-25.184 667.445,-32.1347"/>
</g>
</g>
</svg>
