<?xml version="1.0" encoding="UTF-8" standalone="no"?>
<!DOCTYPE svg PUBLIC "-//W3C//DTD SVG 1.1//EN"
 "http://www.w3.org/Graphics/SVG/1.1/DTD/svg11.dtd">
<!-- Generated by graphviz version 2.38.0 (20140413.2041)
 -->
<!-- Title: TMC2160Stepper::IOIN Pages: 1 -->
<svg width="802pt" height="192pt"
 viewBox="0.00 0.00 802.00 191.50" xmlns="http://www.w3.org/2000/svg" xmlns:xlink="http://www.w3.org/1999/xlink">
<g id="graph0" class="graph" transform="scale(1 1) rotate(0) translate(4 187.5)">
<title>TMC2160Stepper::IOIN</title>
<polygon fill="white" stroke="none" points="-4,4 -4,-187.5 798,-187.5 798,4 -4,4"/>
<!-- Node1 -->
<g id="node1" class="node"><title>Node1</title>
<g id="a_node1"><a xlink:title=" ">
<polygon fill="#bfbfbf" stroke="black" points="0,-88 0,-107 116,-107 116,-88 0,-88"/>
<text text-anchor="middle" x="58" y="-95" font-family="Helvetica,sans-Serif" font-size="10.00">TMC2160Stepper::IOIN</text>
</a>
</g>
</g>
<!-- Node2 -->
<g id="node2" class="node"><title>Node2</title>
<g id="a_node2"><a xlink:href="../../dd/deb/class_t_m_c2130_stepper.html#a161ca6ebe3736454e17e9236572a6001" target="_top" xlink:title=" ">
<polygon fill="white" stroke="black" points="152,-88 152,-107 268,-107 268,-88 152,-88"/>
<text text-anchor="middle" x="210" y="-95" font-family="Helvetica,sans-Serif" font-size="10.00">TMC2130Stepper::read</text>
</a>
</g>
</g>
<!-- Node1&#45;&gt;Node2 -->
<g id="edge1" class="edge"><title>Node1&#45;&gt;Node2</title>
<path fill="none" stroke="midnightblue" d="M116.136,-97.5C124.377,-97.5 132.923,-97.5 141.344,-97.5"/>
<polygon fill="midnightblue" stroke="midnightblue" points="141.526,-101 151.525,-97.5 141.525,-94.0001 141.526,-101"/>
</g>
<!-- Node3 -->
<g id="node3" class="node"><title>Node3</title>
<g id="a_node3"><a xlink:href="../../dd/deb/class_t_m_c2130_stepper.html#a1fc868601a32fb0cd8fc536dafa8ecea" target="_top" xlink:title=" ">
<polygon fill="white" stroke="black" points="304,-164 304,-183 475,-183 475,-164 304,-164"/>
<text text-anchor="middle" x="389.5" y="-171" font-family="Helvetica,sans-Serif" font-size="10.00">TMC2130Stepper::beginTransaction</text>
</a>
</g>
</g>
<!-- Node2&#45;&gt;Node3 -->
<g id="edge2" class="edge"><title>Node2&#45;&gt;Node3</title>
<path fill="none" stroke="midnightblue" d="M223.522,-107.048C240.741,-119.725 273.117,-141.967 304,-154.5 310.272,-157.045 316.951,-159.283 323.7,-161.242"/>
<polygon fill="midnightblue" stroke="midnightblue" points="323.032,-164.687 333.599,-163.918 324.858,-157.93 323.032,-164.687"/>
</g>
<!-- Node4 -->
<g id="node4" class="node"><title>Node4</title>
<g id="a_node4"><a xlink:href="../../dd/deb/class_t_m_c2130_stepper.html#aeace18dcee808585dd4449e783811600" target="_top" xlink:title=" ">
<polygon fill="white" stroke="black" points="307.5,-126 307.5,-145 471.5,-145 471.5,-126 307.5,-126"/>
<text text-anchor="middle" x="389.5" y="-133" font-family="Helvetica,sans-Serif" font-size="10.00">TMC2130Stepper::endTransaction</text>
</a>
</g>
</g>
<!-- Node2&#45;&gt;Node4 -->
<g id="edge3" class="edge"><title>Node2&#45;&gt;Node4</title>
<path fill="none" stroke="midnightblue" d="M255.791,-107.089C279.53,-112.171 308.884,-118.455 333.944,-123.82"/>
<polygon fill="midnightblue" stroke="midnightblue" points="333.52,-127.309 344.031,-125.98 334.986,-120.464 333.52,-127.309"/>
</g>
<!-- Node5 -->
<g id="node5" class="node"><title>Node5</title>
<g id="a_node5"><a xlink:href="../../dd/deb/class_t_m_c2130_stepper.html#a4a8f3b6ac100045ed5f84fe4d18d9d5a" target="_top" xlink:title=" ">
<polygon fill="white" stroke="black" points="313.5,-88 313.5,-107 465.5,-107 465.5,-88 313.5,-88"/>
<text text-anchor="middle" x="389.5" y="-95" font-family="Helvetica,sans-Serif" font-size="10.00">TMC2130Stepper::switchCSpin</text>
</a>
</g>
</g>
<!-- Node2&#45;&gt;Node5 -->
<g id="edge4" class="edge"><title>Node2&#45;&gt;Node5</title>
<path fill="none" stroke="midnightblue" d="M268.139,-97.5C279.27,-97.5 291.163,-97.5 302.981,-97.5"/>
<polygon fill="midnightblue" stroke="midnightblue" points="303.325,-101 313.325,-97.5 303.324,-94.0001 303.325,-101"/>
</g>
<!-- Node6 -->
<g id="node6" class="node"><title>Node6</title>
<g id="a_node6"><a xlink:href="../../dd/deb/class_t_m_c2130_stepper.html#a0673af4887ec52b23aa658aa290f6623" target="_top" xlink:title=" ">
<polygon fill="white" stroke="black" points="511,-28 511,-47 641,-47 641,-28 511,-28"/>
<text text-anchor="middle" x="576" y="-35" font-family="Helvetica,sans-Serif" font-size="10.00">TMC2130Stepper::transfer</text>
</a>
</g>
</g>
<!-- Node2&#45;&gt;Node6 -->
<g id="edge5" class="edge"><title>Node2&#45;&gt;Node6</title>
<path fill="none" stroke="midnightblue" d="M255.378,-87.9498C270.744,-84.7717 288.099,-81.3252 304,-78.5 370.378,-66.7062 446.291,-55.4085 500.852,-47.6702"/>
<polygon fill="midnightblue" stroke="midnightblue" points="501.372,-51.1316 510.784,-46.2674 500.393,-44.2004 501.372,-51.1316"/>
</g>
<!-- Node8 -->
<g id="node8" class="node"><title>Node8</title>
<g id="a_node8"><a xlink:href="../../dd/deb/class_t_m_c2130_stepper.html#aba94fc7bb8e2c8c12191f44561f19d95" target="_top" xlink:title=" ">
<polygon fill="white" stroke="black" points="324.5,-0.5 324.5,-30.5 454.5,-30.5 454.5,-0.5 324.5,-0.5"/>
<text text-anchor="start" x="332.5" y="-18.5" font-family="Helvetica,sans-Serif" font-size="10.00">TMC2130Stepper::transfer</text>
<text text-anchor="middle" x="389.5" y="-7.5" font-family="Helvetica,sans-Serif" font-size="10.00">EmptyBytes</text>
</a>
</g>
</g>
<!-- Node2&#45;&gt;Node8 -->
<g id="edge7" class="edge"><title>Node2&#45;&gt;Node8</title>
<path fill="none" stroke="midnightblue" d="M226.378,-87.8381C244.488,-76.7136 275.694,-58.3277 304,-45.5 312.84,-41.494 322.386,-37.66 331.769,-34.1517"/>
<polygon fill="midnightblue" stroke="midnightblue" points="333.257,-37.3346 341.453,-30.6201 330.859,-30.7583 333.257,-37.3346"/>
</g>
<!-- Node7 -->
<g id="node7" class="node"><title>Node7</title>
<g id="a_node7"><a xlink:href="../../df/d8b/class_s_w___s_p_i_class.html#af260fdc0af3f1312b106483161e559c3" target="_top" xlink:title=" ">
<polygon fill="white" stroke="black" points="677,-28 677,-47 794,-47 794,-28 677,-28"/>
<text text-anchor="middle" x="735.5" y="-35" font-family="Helvetica,sans-Serif" font-size="10.00">SW_SPIClass::transfer</text>
</a>
</g>
</g>
<!-- Node6&#45;&gt;Node7 -->
<g id="edge6" class="edge"><title>Node6&#45;&gt;Node7</title>
<path fill="none" stroke="midnightblue" d="M641.061,-37.5C649.477,-37.5 658.125,-37.5 666.603,-37.5"/>
<polygon fill="midnightblue" stroke="midnightblue" points="666.831,-41.0001 676.831,-37.5 666.831,-34.0001 666.831,-41.0001"/>
</g>
<!-- Node8&#45;&gt;Node6 -->
<g id="edge8" class="edge"><title>Node8&#45;&gt;Node6</title>
<path fill="none" stroke="midnightblue" d="M454.511,-23.1328C469.452,-24.9144 485.487,-26.8263 500.827,-28.6556"/>
<polygon fill="midnightblue" stroke="midnightblue" points="500.445,-32.1347 510.79,-29.8435 501.274,-25.184 500.445,-32.1347"/>
</g>
</g>
</svg>
