<?xml version="1.0" encoding="UTF-8" standalone="no"?>
<!DOCTYPE svg PUBLIC "-//W3C//DTD SVG 1.1//EN"
 "http://www.w3.org/Graphics/SVG/1.1/DTD/svg11.dtd">
<!-- Generated by graphviz version 2.38.0 (20140413.2041)
 -->
<!-- Title: TMC2160Stepper::pwm_autoscale Pages: 1 -->
<svg width="806pt" height="192pt"
 viewBox="0.00 0.00 806.00 191.50" xmlns="http://www.w3.org/2000/svg" xmlns:xlink="http://www.w3.org/1999/xlink">
<g id="graph0" class="graph" transform="scale(1 1) rotate(0) translate(4 187.5)">
<title>TMC2160Stepper::pwm_autoscale</title>
<polygon fill="white" stroke="none" points="-4,4 -4,-187.5 802,-187.5 802,4 -4,4"/>
<!-- Node1 -->
<g id="node1" class="node"><title>Node1</title>
<g id="a_node1"><a xlink:title=" ">
<polygon fill="#bfbfbf" stroke="black" points="0,-82.5 0,-112.5 118,-112.5 118,-82.5 0,-82.5"/>
<text text-anchor="start" x="8" y="-100.5" font-family="Helvetica,sans-Serif" font-size="10.00">TMC2160Stepper::pwm</text>
<text text-anchor="middle" x="59" y="-89.5" font-family="Helvetica,sans-Serif" font-size="10.00">_autoscale</text>
</a>
</g>
</g>
<!-- Node2 -->
<g id="node2" class="node"><title>Node2</title>
<g id="a_node2"><a xlink:href="../../dd/deb/class_t_m_c2130_stepper.html#a6b02e33ab452a7869426ede7ba370445" target="_top" xlink:title=" ">
<polygon fill="white" stroke="black" points="154,-88 154,-107 272,-107 272,-88 154,-88"/>
<text text-anchor="middle" x="213" y="-95" font-family="Helvetica,sans-Serif" font-size="10.00">TMC2130Stepper::write</text>
</a>
</g>
</g>
<!-- Node1&#45;&gt;Node2 -->
<g id="edge1" class="edge"><title>Node1&#45;&gt;Node2</title>
<path fill="none" stroke="midnightblue" d="M118.332,-97.5C126.606,-97.5 135.175,-97.5 143.617,-97.5"/>
<polygon fill="midnightblue" stroke="midnightblue" points="143.824,-101 153.824,-97.5 143.824,-94.0001 143.824,-101"/>
</g>
<!-- Node3 -->
<g id="node3" class="node"><title>Node3</title>
<g id="a_node3"><a xlink:href="../../dd/deb/class_t_m_c2130_stepper.html#a1fc868601a32fb0cd8fc536dafa8ecea" target="_top" xlink:title=" ">
<polygon fill="white" stroke="black" points="308,-164 308,-183 479,-183 479,-164 308,-164"/>
<text text-anchor="middle" x="393.5" y="-171" font-family="Helvetica,sans-Serif" font-size="10.00">TMC2130Stepper::beginTransaction</text>
</a>
</g>
</g>
<!-- Node2&#45;&gt;Node3 -->
<g id="edge2" class="edge"><title>Node2&#45;&gt;Node3</title>
<path fill="none" stroke="midnightblue" d="M226.674,-107.041C244.099,-119.71 276.845,-141.943 308,-154.5 314.372,-157.068 321.16,-159.325 328.015,-161.299"/>
<polygon fill="midnightblue" stroke="midnightblue" points="327.497,-164.784 338.062,-163.994 329.31,-158.023 327.497,-164.784"/>
</g>
<!-- Node4 -->
<g id="node4" class="node"><title>Node4</title>
<g id="a_node4"><a xlink:href="../../dd/deb/class_t_m_c2130_stepper.html#aeace18dcee808585dd4449e783811600" target="_top" xlink:title=" ">
<polygon fill="white" stroke="black" points="311.5,-126 311.5,-145 475.5,-145 475.5,-126 311.5,-126"/>
<text text-anchor="middle" x="393.5" y="-133" font-family="Helvetica,sans-Serif" font-size="10.00">TMC2130Stepper::endTransaction</text>
</a>
</g>
</g>
<!-- Node2&#45;&gt;Node4 -->
<g id="edge3" class="edge"><title>Node2&#45;&gt;Node4</title>
<path fill="none" stroke="midnightblue" d="M259.043,-107.089C283.023,-112.194 312.698,-118.511 337.972,-123.892"/>
<polygon fill="midnightblue" stroke="midnightblue" points="337.271,-127.321 347.781,-125.98 338.729,-120.474 337.271,-127.321"/>
</g>
<!-- Node5 -->
<g id="node5" class="node"><title>Node5</title>
<g id="a_node5"><a xlink:href="../../dd/deb/class_t_m_c2130_stepper.html#a4a8f3b6ac100045ed5f84fe4d18d9d5a" target="_top" xlink:title=" ">
<polygon fill="white" stroke="black" points="317.5,-88 317.5,-107 469.5,-107 469.5,-88 317.5,-88"/>
<text text-anchor="middle" x="393.5" y="-95" font-family="Helvetica,sans-Serif" font-size="10.00">TMC2130Stepper::switchCSpin</text>
</a>
</g>
</g>
<!-- Node2&#45;&gt;Node5 -->
<g id="edge4" class="edge"><title>Node2&#45;&gt;Node5</title>
<path fill="none" stroke="midnightblue" d="M272.448,-97.5C283.536,-97.5 295.347,-97.5 307.07,-97.5"/>
<polygon fill="midnightblue" stroke="midnightblue" points="307.329,-101 317.329,-97.5 307.329,-94.0001 307.329,-101"/>
</g>
<!-- Node6 -->
<g id="node6" class="node"><title>Node6</title>
<g id="a_node6"><a xlink:href="../../dd/deb/class_t_m_c2130_stepper.html#a0673af4887ec52b23aa658aa290f6623" target="_top" xlink:title=" ">
<polygon fill="white" stroke="black" points="515,-28 515,-47 645,-47 645,-28 515,-28"/>
<text text-anchor="middle" x="580" y="-35" font-family="Helvetica,sans-Serif" font-size="10.00">TMC2130Stepper::transfer</text>
</a>
</g>
</g>
<!-- Node2&#45;&gt;Node6 -->
<g id="edge5" class="edge"><title>Node2&#45;&gt;Node6</title>
<path fill="none" stroke="midnightblue" d="M258.859,-87.964C274.391,-84.787 291.932,-81.3376 308,-78.5 374.39,-66.7755 450.302,-55.4704 504.859,-47.7117"/>
<polygon fill="midnightblue" stroke="midnightblue" points="505.381,-51.1729 514.791,-46.3049 504.399,-44.2421 505.381,-51.1729"/>
</g>
<!-- Node8 -->
<g id="node8" class="node"><title>Node8</title>
<g id="a_node8"><a xlink:href="../../dd/deb/class_t_m_c2130_stepper.html#aba94fc7bb8e2c8c12191f44561f19d95" target="_top" xlink:title=" ">
<polygon fill="white" stroke="black" points="328.5,-0.5 328.5,-30.5 458.5,-30.5 458.5,-0.5 328.5,-0.5"/>
<text text-anchor="start" x="336.5" y="-18.5" font-family="Helvetica,sans-Serif" font-size="10.00">TMC2130Stepper::transfer</text>
<text text-anchor="middle" x="393.5" y="-7.5" font-family="Helvetica,sans-Serif" font-size="10.00">EmptyBytes</text>
</a>
</g>
</g>
<!-- Node2&#45;&gt;Node8 -->
<g id="edge7" class="edge"><title>Node2&#45;&gt;Node8</title>
<path fill="none" stroke="midnightblue" d="M229.559,-87.8524C247.877,-76.7413 279.432,-58.368 308,-45.5 317.049,-41.4242 326.831,-37.5179 336.42,-33.9495"/>
<polygon fill="midnightblue" stroke="midnightblue" points="337.707,-37.2056 345.91,-30.5 335.316,-30.6267 337.707,-37.2056"/>
</g>
<!-- Node7 -->
<g id="node7" class="node"><title>Node7</title>
<g id="a_node7"><a xlink:href="../../df/d8b/class_s_w___s_p_i_class.html#af260fdc0af3f1312b106483161e559c3" target="_top" xlink:title=" ">
<polygon fill="white" stroke="black" points="681,-28 681,-47 798,-47 798,-28 681,-28"/>
<text text-anchor="middle" x="739.5" y="-35" font-family="Helvetica,sans-Serif" font-size="10.00">SW_SPIClass::transfer</text>
</a>
</g>
</g>
<!-- Node6&#45;&gt;Node7 -->
<g id="edge6" class="edge"><title>Node6&#45;&gt;Node7</title>
<path fill="none" stroke="midnightblue" d="M645.061,-37.5C653.477,-37.5 662.125,-37.5 670.603,-37.5"/>
<polygon fill="midnightblue" stroke="midnightblue" points="670.831,-41.0001 680.831,-37.5 670.831,-34.0001 670.831,-41.0001"/>
</g>
<!-- Node8&#45;&gt;Node6 -->
<g id="edge8" class="edge"><title>Node8&#45;&gt;Node6</title>
<path fill="none" stroke="midnightblue" d="M458.511,-23.1328C473.452,-24.9144 489.487,-26.8263 504.827,-28.6556"/>
<polygon fill="midnightblue" stroke="midnightblue" points="504.445,-32.1347 514.79,-29.8435 505.274,-25.184 504.445,-32.1347"/>
</g>
</g>
</svg>
