<?xml version="1.0" encoding="UTF-8" standalone="no"?>
<!DOCTYPE svg PUBLIC "-//W3C//DTD SVG 1.1//EN"
 "http://www.w3.org/Graphics/SVG/1.1/DTD/svg11.dtd">
<!-- Generated by graphviz version 2.38.0 (20140413.2041)
 -->
<!-- Title: TMC2160Stepper::OFFSET_READ Pages: 1 -->
<svg width="854pt" height="192pt"
 viewBox="0.00 0.00 854.00 191.50" xmlns="http://www.w3.org/2000/svg" xmlns:xlink="http://www.w3.org/1999/xlink">
<g id="graph0" class="graph" transform="scale(1 1) rotate(0) translate(4 187.5)">
<title>TMC2160Stepper::OFFSET_READ</title>
<polygon fill="white" stroke="none" points="-4,4 -4,-187.5 850,-187.5 850,4 -4,4"/>
<!-- Node1 -->
<g id="node1" class="node"><title>Node1</title>
<g id="a_node1"><a xlink:title=" ">
<polygon fill="#bfbfbf" stroke="black" points="0,-88 0,-107 168,-107 168,-88 0,-88"/>
<text text-anchor="middle" x="84" y="-95" font-family="Helvetica,sans-Serif" font-size="10.00">TMC2160Stepper::OFFSET_READ</text>
</a>
</g>
</g>
<!-- Node2 -->
<g id="node2" class="node"><title>Node2</title>
<g id="a_node2"><a xlink:href="../../dd/deb/class_t_m_c2130_stepper.html#a161ca6ebe3736454e17e9236572a6001" target="_top" xlink:title=" ">
<polygon fill="white" stroke="black" points="204,-88 204,-107 320,-107 320,-88 204,-88"/>
<text text-anchor="middle" x="262" y="-95" font-family="Helvetica,sans-Serif" font-size="10.00">TMC2130Stepper::read</text>
</a>
</g>
</g>
<!-- Node1&#45;&gt;Node2 -->
<g id="edge1" class="edge"><title>Node1&#45;&gt;Node2</title>
<path fill="none" stroke="midnightblue" d="M168.104,-97.5C176.709,-97.5 185.378,-97.5 193.778,-97.5"/>
<polygon fill="midnightblue" stroke="midnightblue" points="193.869,-101 203.869,-97.5 193.869,-94.0001 193.869,-101"/>
</g>
<!-- Node3 -->
<g id="node3" class="node"><title>Node3</title>
<g id="a_node3"><a xlink:href="../../dd/deb/class_t_m_c2130_stepper.html#a1fc868601a32fb0cd8fc536dafa8ecea" target="_top" xlink:title=" ">
<polygon fill="white" stroke="black" points="356,-164 356,-183 527,-183 527,-164 356,-164"/>
<text text-anchor="middle" x="441.5" y="-171" font-family="Helvetica,sans-Serif" font-size="10.00">TMC2130Stepper::beginTransaction</text>
</a>
</g>
</g>
<!-- Node2&#45;&gt;Node3 -->
<g id="edge2" class="edge"><title>Node2&#45;&gt;Node3</title>
<path fill="none" stroke="midnightblue" d="M275.522,-107.048C292.741,-119.725 325.117,-141.967 356,-154.5 362.272,-157.045 368.951,-159.283 375.7,-161.242"/>
<polygon fill="midnightblue" stroke="midnightblue" points="375.032,-164.687 385.599,-163.918 376.858,-157.93 375.032,-164.687"/>
</g>
<!-- Node4 -->
<g id="node4" class="node"><title>Node4</title>
<g id="a_node4"><a xlink:href="../../dd/deb/class_t_m_c2130_stepper.html#aeace18dcee808585dd4449e783811600" target="_top" xlink:title=" ">
<polygon fill="white" stroke="black" points="359.5,-126 359.5,-145 523.5,-145 523.5,-126 359.5,-126"/>
<text text-anchor="middle" x="441.5" y="-133" font-family="Helvetica,sans-Serif" font-size="10.00">TMC2130Stepper::endTransaction</text>
</a>
</g>
</g>
<!-- Node2&#45;&gt;Node4 -->
<g id="edge3" class="edge"><title>Node2&#45;&gt;Node4</title>
<path fill="none" stroke="midnightblue" d="M307.791,-107.089C331.53,-112.171 360.884,-118.455 385.944,-123.82"/>
<polygon fill="midnightblue" stroke="midnightblue" points="385.52,-127.309 396.031,-125.98 386.986,-120.464 385.52,-127.309"/>
</g>
<!-- Node5 -->
<g id="node5" class="node"><title>Node5</title>
<g id="a_node5"><a xlink:href="../../dd/deb/class_t_m_c2130_stepper.html#a4a8f3b6ac100045ed5f84fe4d18d9d5a" target="_top" xlink:title=" ">
<polygon fill="white" stroke="black" points="365.5,-88 365.5,-107 517.5,-107 517.5,-88 365.5,-88"/>
<text text-anchor="middle" x="441.5" y="-95" font-family="Helvetica,sans-Serif" font-size="10.00">TMC2130Stepper::switchCSpin</text>
</a>
</g>
</g>
<!-- Node2&#45;&gt;Node5 -->
<g id="edge4" class="edge"><title>Node2&#45;&gt;Node5</title>
<path fill="none" stroke="midnightblue" d="M320.139,-97.5C331.27,-97.5 343.163,-97.5 354.981,-97.5"/>
<polygon fill="midnightblue" stroke="midnightblue" points="355.325,-101 365.325,-97.5 355.324,-94.0001 355.325,-101"/>
</g>
<!-- Node6 -->
<g id="node6" class="node"><title>Node6</title>
<g id="a_node6"><a xlink:href="../../dd/deb/class_t_m_c2130_stepper.html#a0673af4887ec52b23aa658aa290f6623" target="_top" xlink:title=" ">
<polygon fill="white" stroke="black" points="563,-28 563,-47 693,-47 693,-28 563,-28"/>
<text text-anchor="middle" x="628" y="-35" font-family="Helvetica,sans-Serif" font-size="10.00">TMC2130Stepper::transfer</text>
</a>
</g>
</g>
<!-- Node2&#45;&gt;Node6 -->
<g id="edge5" class="edge"><title>Node2&#45;&gt;Node6</title>
<path fill="none" stroke="midnightblue" d="M307.378,-87.9498C322.744,-84.7717 340.099,-81.3252 356,-78.5 422.378,-66.7062 498.291,-55.4085 552.852,-47.6702"/>
<polygon fill="midnightblue" stroke="midnightblue" points="553.372,-51.1316 562.784,-46.2674 552.393,-44.2004 553.372,-51.1316"/>
</g>
<!-- Node8 -->
<g id="node8" class="node"><title>Node8</title>
<g id="a_node8"><a xlink:href="../../dd/deb/class_t_m_c2130_stepper.html#aba94fc7bb8e2c8c12191f44561f19d95" target="_top" xlink:title=" ">
<polygon fill="white" stroke="black" points="376.5,-0.5 376.5,-30.5 506.5,-30.5 506.5,-0.5 376.5,-0.5"/>
<text text-anchor="start" x="384.5" y="-18.5" font-family="Helvetica,sans-Serif" font-size="10.00">TMC2130Stepper::transfer</text>
<text text-anchor="middle" x="441.5" y="-7.5" font-family="Helvetica,sans-Serif" font-size="10.00">EmptyBytes</text>
</a>
</g>
</g>
<!-- Node2&#45;&gt;Node8 -->
<g id="edge7" class="edge"><title>Node2&#45;&gt;Node8</title>
<path fill="none" stroke="midnightblue" d="M278.378,-87.8381C296.488,-76.7136 327.694,-58.3277 356,-45.5 364.84,-41.494 374.386,-37.66 383.769,-34.1517"/>
<polygon fill="midnightblue" stroke="midnightblue" points="385.257,-37.3346 393.453,-30.6201 382.859,-30.7583 385.257,-37.3346"/>
</g>
<!-- Node7 -->
<g id="node7" class="node"><title>Node7</title>
<g id="a_node7"><a xlink:href="../../df/d8b/class_s_w___s_p_i_class.html#af260fdc0af3f1312b106483161e559c3" target="_top" xlink:title=" ">
<polygon fill="white" stroke="black" points="729,-28 729,-47 846,-47 846,-28 729,-28"/>
<text text-anchor="middle" x="787.5" y="-35" font-family="Helvetica,sans-Serif" font-size="10.00">SW_SPIClass::transfer</text>
</a>
</g>
</g>
<!-- Node6&#45;&gt;Node7 -->
<g id="edge6" class="edge"><title>Node6&#45;&gt;Node7</title>
<path fill="none" stroke="midnightblue" d="M693.061,-37.5C701.477,-37.5 710.125,-37.5 718.603,-37.5"/>
<polygon fill="midnightblue" stroke="midnightblue" points="718.831,-41.0001 728.831,-37.5 718.831,-34.0001 718.831,-41.0001"/>
</g>
<!-- Node8&#45;&gt;Node6 -->
<g id="edge8" class="edge"><title>Node8&#45;&gt;Node6</title>
<path fill="none" stroke="midnightblue" d="M506.511,-23.1328C521.452,-24.9144 537.487,-26.8263 552.827,-28.6556"/>
<polygon fill="midnightblue" stroke="midnightblue" points="552.445,-32.1347 562.79,-29.8435 553.274,-25.184 552.445,-32.1347"/>
</g>
</g>
</svg>
