<?xml version="1.0" encoding="UTF-8" standalone="no"?>
<!DOCTYPE svg PUBLIC "-//W3C//DTD SVG 1.1//EN"
 "http://www.w3.org/Graphics/SVG/1.1/DTD/svg11.dtd">
<!-- Generated by graphviz version 2.38.0 (20140413.2041)
 -->
<!-- Title: TMC2160Stepper::freewheel Pages: 1 -->
<svg width="826pt" height="192pt"
 viewBox="0.00 0.00 826.00 191.50" xmlns="http://www.w3.org/2000/svg" xmlns:xlink="http://www.w3.org/1999/xlink">
<g id="graph0" class="graph" transform="scale(1 1) rotate(0) translate(4 187.5)">
<title>TMC2160Stepper::freewheel</title>
<polygon fill="white" stroke="none" points="-4,4 -4,-187.5 822,-187.5 822,4 -4,4"/>
<!-- Node1 -->
<g id="node1" class="node"><title>Node1</title>
<g id="a_node1"><a xlink:title=" ">
<polygon fill="#bfbfbf" stroke="black" points="0,-88 0,-107 138,-107 138,-88 0,-88"/>
<text text-anchor="middle" x="69" y="-95" font-family="Helvetica,sans-Serif" font-size="10.00">TMC2160Stepper::freewheel</text>
</a>
</g>
</g>
<!-- Node2 -->
<g id="node2" class="node"><title>Node2</title>
<g id="a_node2"><a xlink:href="../../dd/deb/class_t_m_c2130_stepper.html#a6b02e33ab452a7869426ede7ba370445" target="_top" xlink:title=" ">
<polygon fill="white" stroke="black" points="174,-88 174,-107 292,-107 292,-88 174,-88"/>
<text text-anchor="middle" x="233" y="-95" font-family="Helvetica,sans-Serif" font-size="10.00">TMC2130Stepper::write</text>
</a>
</g>
</g>
<!-- Node1&#45;&gt;Node2 -->
<g id="edge1" class="edge"><title>Node1&#45;&gt;Node2</title>
<path fill="none" stroke="midnightblue" d="M138.233,-97.5C146.655,-97.5 155.266,-97.5 163.69,-97.5"/>
<polygon fill="midnightblue" stroke="midnightblue" points="163.846,-101 173.846,-97.5 163.846,-94.0001 163.846,-101"/>
</g>
<!-- Node3 -->
<g id="node3" class="node"><title>Node3</title>
<g id="a_node3"><a xlink:href="../../dd/deb/class_t_m_c2130_stepper.html#a1fc868601a32fb0cd8fc536dafa8ecea" target="_top" xlink:title=" ">
<polygon fill="white" stroke="black" points="328,-164 328,-183 499,-183 499,-164 328,-164"/>
<text text-anchor="middle" x="413.5" y="-171" font-family="Helvetica,sans-Serif" font-size="10.00">TMC2130Stepper::beginTransaction</text>
</a>
</g>
</g>
<!-- Node2&#45;&gt;Node3 -->
<g id="edge2" class="edge"><title>Node2&#45;&gt;Node3</title>
<path fill="none" stroke="midnightblue" d="M246.674,-107.041C264.099,-119.71 296.845,-141.943 328,-154.5 334.372,-157.068 341.16,-159.325 348.015,-161.299"/>
<polygon fill="midnightblue" stroke="midnightblue" points="347.497,-164.784 358.062,-163.994 349.31,-158.023 347.497,-164.784"/>
</g>
<!-- Node4 -->
<g id="node4" class="node"><title>Node4</title>
<g id="a_node4"><a xlink:href="../../dd/deb/class_t_m_c2130_stepper.html#aeace18dcee808585dd4449e783811600" target="_top" xlink:title=" ">
<polygon fill="white" stroke="black" points="331.5,-126 331.5,-145 495.5,-145 495.5,-126 331.5,-126"/>
<text text-anchor="middle" x="413.5" y="-133" font-family="Helvetica,sans-Serif" font-size="10.00">TMC2130Stepper::endTransaction</text>
</a>
</g>
</g>
<!-- Node2&#45;&gt;Node4 -->
<g id="edge3" class="edge"><title>Node2&#45;&gt;Node4</title>
<path fill="none" stroke="midnightblue" d="M279.043,-107.089C303.023,-112.194 332.698,-118.511 357.972,-123.892"/>
<polygon fill="midnightblue" stroke="midnightblue" points="357.271,-127.321 367.781,-125.98 358.729,-120.474 357.271,-127.321"/>
</g>
<!-- Node5 -->
<g id="node5" class="node"><title>Node5</title>
<g id="a_node5"><a xlink:href="../../dd/deb/class_t_m_c2130_stepper.html#a4a8f3b6ac100045ed5f84fe4d18d9d5a" target="_top" xlink:title=" ">
<polygon fill="white" stroke="black" points="337.5,-88 337.5,-107 489.5,-107 489.5,-88 337.5,-88"/>
<text text-anchor="middle" x="413.5" y="-95" font-family="Helvetica,sans-Serif" font-size="10.00">TMC2130Stepper::switchCSpin</text>
</a>
</g>
</g>
<!-- Node2&#45;&gt;Node5 -->
<g id="edge4" class="edge"><title>Node2&#45;&gt;Node5</title>
<path fill="none" stroke="midnightblue" d="M292.448,-97.5C303.536,-97.5 315.347,-97.5 327.07,-97.5"/>
<polygon fill="midnightblue" stroke="midnightblue" points="327.329,-101 337.329,-97.5 327.329,-94.0001 327.329,-101"/>
</g>
<!-- Node6 -->
<g id="node6" class="node"><title>Node6</title>
<g id="a_node6"><a xlink:href="../../dd/deb/class_t_m_c2130_stepper.html#a0673af4887ec52b23aa658aa290f6623" target="_top" xlink:title=" ">
<polygon fill="white" stroke="black" points="535,-28 535,-47 665,-47 665,-28 535,-28"/>
<text text-anchor="middle" x="600" y="-35" font-family="Helvetica,sans-Serif" font-size="10.00">TMC2130Stepper::transfer</text>
</a>
</g>
</g>
<!-- Node2&#45;&gt;Node6 -->
<g id="edge5" class="edge"><title>Node2&#45;&gt;Node6</title>
<path fill="none" stroke="midnightblue" d="M278.859,-87.964C294.391,-84.787 311.932,-81.3376 328,-78.5 394.39,-66.7755 470.302,-55.4704 524.859,-47.7117"/>
<polygon fill="midnightblue" stroke="midnightblue" points="525.381,-51.1729 534.791,-46.3049 524.399,-44.2421 525.381,-51.1729"/>
</g>
<!-- Node8 -->
<g id="node8" class="node"><title>Node8</title>
<g id="a_node8"><a xlink:href="../../dd/deb/class_t_m_c2130_stepper.html#aba94fc7bb8e2c8c12191f44561f19d95" target="_top" xlink:title=" ">
<polygon fill="white" stroke="black" points="348.5,-0.5 348.5,-30.5 478.5,-30.5 478.5,-0.5 348.5,-0.5"/>
<text text-anchor="start" x="356.5" y="-18.5" font-family="Helvetica,sans-Serif" font-size="10.00">TMC2130Stepper::transfer</text>
<text text-anchor="middle" x="413.5" y="-7.5" font-family="Helvetica,sans-Serif" font-size="10.00">EmptyBytes</text>
</a>
</g>
</g>
<!-- Node2&#45;&gt;Node8 -->
<g id="edge7" class="edge"><title>Node2&#45;&gt;Node8</title>
<path fill="none" stroke="midnightblue" d="M249.559,-87.8524C267.877,-76.7413 299.432,-58.368 328,-45.5 337.049,-41.4242 346.831,-37.5179 356.42,-33.9495"/>
<polygon fill="midnightblue" stroke="midnightblue" points="357.707,-37.2056 365.91,-30.5 355.316,-30.6267 357.707,-37.2056"/>
</g>
<!-- Node7 -->
<g id="node7" class="node"><title>Node7</title>
<g id="a_node7"><a xlink:href="../../df/d8b/class_s_w___s_p_i_class.html#af260fdc0af3f1312b106483161e559c3" target="_top" xlink:title=" ">
<polygon fill="white" stroke="black" points="701,-28 701,-47 818,-47 818,-28 701,-28"/>
<text text-anchor="middle" x="759.5" y="-35" font-family="Helvetica,sans-Serif" font-size="10.00">SW_SPIClass::transfer</text>
</a>
</g>
</g>
<!-- Node6&#45;&gt;Node7 -->
<g id="edge6" class="edge"><title>Node6&#45;&gt;Node7</title>
<path fill="none" stroke="midnightblue" d="M665.061,-37.5C673.477,-37.5 682.125,-37.5 690.603,-37.5"/>
<polygon fill="midnightblue" stroke="midnightblue" points="690.831,-41.0001 700.831,-37.5 690.831,-34.0001 690.831,-41.0001"/>
</g>
<!-- Node8&#45;&gt;Node6 -->
<g id="edge8" class="edge"><title>Node8&#45;&gt;Node6</title>
<path fill="none" stroke="midnightblue" d="M478.511,-23.1328C493.452,-24.9144 509.487,-26.8263 524.827,-28.6556"/>
<polygon fill="midnightblue" stroke="midnightblue" points="524.445,-32.1347 534.79,-29.8435 525.274,-25.184 524.445,-32.1347"/>
</g>
</g>
</svg>
