<?xml version="1.0" encoding="UTF-8" standalone="no"?>
<!DOCTYPE svg PUBLIC "-//W3C//DTD SVG 1.1//EN"
 "http://www.w3.org/Graphics/SVG/1.1/DTD/svg11.dtd">
<!-- Generated by graphviz version 2.38.0 (20140413.2041)
 -->
<!-- Title: TMC2160Stepper::pwm_grad Pages: 1 -->
<svg width="830pt" height="192pt"
 viewBox="0.00 0.00 830.00 191.50" xmlns="http://www.w3.org/2000/svg" xmlns:xlink="http://www.w3.org/1999/xlink">
<g id="graph0" class="graph" transform="scale(1 1) rotate(0) translate(4 187.5)">
<title>TMC2160Stepper::pwm_grad</title>
<polygon fill="white" stroke="none" points="-4,4 -4,-187.5 826,-187.5 826,4 -4,4"/>
<!-- Node1 -->
<g id="node1" class="node"><title>Node1</title>
<g id="a_node1"><a xlink:title=" ">
<polygon fill="#bfbfbf" stroke="black" points="0,-88 0,-107 142,-107 142,-88 0,-88"/>
<text text-anchor="middle" x="71" y="-95" font-family="Helvetica,sans-Serif" font-size="10.00">TMC2160Stepper::pwm_grad</text>
</a>
</g>
</g>
<!-- Node2 -->
<g id="node2" class="node"><title>Node2</title>
<g id="a_node2"><a xlink:href="../../dd/deb/class_t_m_c2130_stepper.html#a6b02e33ab452a7869426ede7ba370445" target="_top" xlink:title=" ">
<polygon fill="white" stroke="black" points="178,-88 178,-107 296,-107 296,-88 178,-88"/>
<text text-anchor="middle" x="237" y="-95" font-family="Helvetica,sans-Serif" font-size="10.00">TMC2130Stepper::write</text>
</a>
</g>
</g>
<!-- Node1&#45;&gt;Node2 -->
<g id="edge1" class="edge"><title>Node1&#45;&gt;Node2</title>
<path fill="none" stroke="midnightblue" d="M142.026,-97.5C150.506,-97.5 159.16,-97.5 167.615,-97.5"/>
<polygon fill="midnightblue" stroke="midnightblue" points="167.806,-101 177.806,-97.5 167.805,-94.0001 167.806,-101"/>
</g>
<!-- Node3 -->
<g id="node3" class="node"><title>Node3</title>
<g id="a_node3"><a xlink:href="../../dd/deb/class_t_m_c2130_stepper.html#a1fc868601a32fb0cd8fc536dafa8ecea" target="_top" xlink:title=" ">
<polygon fill="white" stroke="black" points="332,-164 332,-183 503,-183 503,-164 332,-164"/>
<text text-anchor="middle" x="417.5" y="-171" font-family="Helvetica,sans-Serif" font-size="10.00">TMC2130Stepper::beginTransaction</text>
</a>
</g>
</g>
<!-- Node2&#45;&gt;Node3 -->
<g id="edge2" class="edge"><title>Node2&#45;&gt;Node3</title>
<path fill="none" stroke="midnightblue" d="M250.674,-107.041C268.099,-119.71 300.845,-141.943 332,-154.5 338.372,-157.068 345.16,-159.325 352.015,-161.299"/>
<polygon fill="midnightblue" stroke="midnightblue" points="351.497,-164.784 362.062,-163.994 353.31,-158.023 351.497,-164.784"/>
</g>
<!-- Node4 -->
<g id="node4" class="node"><title>Node4</title>
<g id="a_node4"><a xlink:href="../../dd/deb/class_t_m_c2130_stepper.html#aeace18dcee808585dd4449e783811600" target="_top" xlink:title=" ">
<polygon fill="white" stroke="black" points="335.5,-126 335.5,-145 499.5,-145 499.5,-126 335.5,-126"/>
<text text-anchor="middle" x="417.5" y="-133" font-family="Helvetica,sans-Serif" font-size="10.00">TMC2130Stepper::endTransaction</text>
</a>
</g>
</g>
<!-- Node2&#45;&gt;Node4 -->
<g id="edge3" class="edge"><title>Node2&#45;&gt;Node4</title>
<path fill="none" stroke="midnightblue" d="M283.043,-107.089C307.023,-112.194 336.698,-118.511 361.972,-123.892"/>
<polygon fill="midnightblue" stroke="midnightblue" points="361.271,-127.321 371.781,-125.98 362.729,-120.474 361.271,-127.321"/>
</g>
<!-- Node5 -->
<g id="node5" class="node"><title>Node5</title>
<g id="a_node5"><a xlink:href="../../dd/deb/class_t_m_c2130_stepper.html#a4a8f3b6ac100045ed5f84fe4d18d9d5a" target="_top" xlink:title=" ">
<polygon fill="white" stroke="black" points="341.5,-88 341.5,-107 493.5,-107 493.5,-88 341.5,-88"/>
<text text-anchor="middle" x="417.5" y="-95" font-family="Helvetica,sans-Serif" font-size="10.00">TMC2130Stepper::switchCSpin</text>
</a>
</g>
</g>
<!-- Node2&#45;&gt;Node5 -->
<g id="edge4" class="edge"><title>Node2&#45;&gt;Node5</title>
<path fill="none" stroke="midnightblue" d="M296.448,-97.5C307.536,-97.5 319.347,-97.5 331.07,-97.5"/>
<polygon fill="midnightblue" stroke="midnightblue" points="331.329,-101 341.329,-97.5 331.329,-94.0001 331.329,-101"/>
</g>
<!-- Node6 -->
<g id="node6" class="node"><title>Node6</title>
<g id="a_node6"><a xlink:href="../../dd/deb/class_t_m_c2130_stepper.html#a0673af4887ec52b23aa658aa290f6623" target="_top" xlink:title=" ">
<polygon fill="white" stroke="black" points="539,-28 539,-47 669,-47 669,-28 539,-28"/>
<text text-anchor="middle" x="604" y="-35" font-family="Helvetica,sans-Serif" font-size="10.00">TMC2130Stepper::transfer</text>
</a>
</g>
</g>
<!-- Node2&#45;&gt;Node6 -->
<g id="edge5" class="edge"><title>Node2&#45;&gt;Node6</title>
<path fill="none" stroke="midnightblue" d="M282.859,-87.964C298.391,-84.787 315.932,-81.3376 332,-78.5 398.39,-66.7755 474.302,-55.4704 528.859,-47.7117"/>
<polygon fill="midnightblue" stroke="midnightblue" points="529.381,-51.1729 538.791,-46.3049 528.399,-44.2421 529.381,-51.1729"/>
</g>
<!-- Node8 -->
<g id="node8" class="node"><title>Node8</title>
<g id="a_node8"><a xlink:href="../../dd/deb/class_t_m_c2130_stepper.html#aba94fc7bb8e2c8c12191f44561f19d95" target="_top" xlink:title=" ">
<polygon fill="white" stroke="black" points="352.5,-0.5 352.5,-30.5 482.5,-30.5 482.5,-0.5 352.5,-0.5"/>
<text text-anchor="start" x="360.5" y="-18.5" font-family="Helvetica,sans-Serif" font-size="10.00">TMC2130Stepper::transfer</text>
<text text-anchor="middle" x="417.5" y="-7.5" font-family="Helvetica,sans-Serif" font-size="10.00">EmptyBytes</text>
</a>
</g>
</g>
<!-- Node2&#45;&gt;Node8 -->
<g id="edge7" class="edge"><title>Node2&#45;&gt;Node8</title>
<path fill="none" stroke="midnightblue" d="M253.559,-87.8524C271.877,-76.7413 303.432,-58.368 332,-45.5 341.049,-41.4242 350.831,-37.5179 360.42,-33.9495"/>
<polygon fill="midnightblue" stroke="midnightblue" points="361.707,-37.2056 369.91,-30.5 359.316,-30.6267 361.707,-37.2056"/>
</g>
<!-- Node7 -->
<g id="node7" class="node"><title>Node7</title>
<g id="a_node7"><a xlink:href="../../df/d8b/class_s_w___s_p_i_class.html#af260fdc0af3f1312b106483161e559c3" target="_top" xlink:title=" ">
<polygon fill="white" stroke="black" points="705,-28 705,-47 822,-47 822,-28 705,-28"/>
<text text-anchor="middle" x="763.5" y="-35" font-family="Helvetica,sans-Serif" font-size="10.00">SW_SPIClass::transfer</text>
</a>
</g>
</g>
<!-- Node6&#45;&gt;Node7 -->
<g id="edge6" class="edge"><title>Node6&#45;&gt;Node7</title>
<path fill="none" stroke="midnightblue" d="M669.061,-37.5C677.477,-37.5 686.125,-37.5 694.603,-37.5"/>
<polygon fill="midnightblue" stroke="midnightblue" points="694.831,-41.0001 704.831,-37.5 694.831,-34.0001 694.831,-41.0001"/>
</g>
<!-- Node8&#45;&gt;Node6 -->
<g id="edge8" class="edge"><title>Node8&#45;&gt;Node6</title>
<path fill="none" stroke="midnightblue" d="M482.511,-23.1328C497.452,-24.9144 513.487,-26.8263 528.827,-28.6556"/>
<polygon fill="midnightblue" stroke="midnightblue" points="528.445,-32.1347 538.79,-29.8435 529.274,-25.184 528.445,-32.1347"/>
</g>
</g>
</svg>
