<?xml version="1.0" encoding="UTF-8" standalone="no"?>
<!DOCTYPE svg PUBLIC "-//W3C//DTD SVG 1.1//EN"
 "http://www.w3.org/Graphics/SVG/1.1/DTD/svg11.dtd">
<!-- Generated by graphviz version 2.38.0 (20140413.2041)
 -->
<!-- Title: TMC2160Stepper::refr_dir Pages: 1 -->
<svg width="965pt" height="192pt"
 viewBox="0.00 0.00 965.00 191.50" xmlns="http://www.w3.org/2000/svg" xmlns:xlink="http://www.w3.org/1999/xlink">
<g id="graph0" class="graph" transform="scale(1 1) rotate(0) translate(4 187.5)">
<title>TMC2160Stepper::refr_dir</title>
<polygon fill="white" stroke="none" points="-4,4 -4,-187.5 961,-187.5 961,4 -4,4"/>
<!-- Node1 -->
<g id="node1" class="node"><title>Node1</title>
<g id="a_node1"><a xlink:title=" ">
<polygon fill="#bfbfbf" stroke="black" points="0,-88 0,-107 127,-107 127,-88 0,-88"/>
<text text-anchor="middle" x="63.5" y="-95" font-family="Helvetica,sans-Serif" font-size="10.00">TMC2160Stepper::refr_dir</text>
</a>
</g>
</g>
<!-- Node2 -->
<g id="node2" class="node"><title>Node2</title>
<g id="a_node2"><a xlink:href="../../db/d9d/class_t_m_c2160_stepper.html#a3d1beb78c3356e99799915df3b424e60" target="_top" xlink:title=" ">
<polygon fill="white" stroke="black" points="163,-88 163,-107 279,-107 279,-88 163,-88"/>
<text text-anchor="middle" x="221" y="-95" font-family="Helvetica,sans-Serif" font-size="10.00">TMC2160Stepper::IOIN</text>
</a>
</g>
</g>
<!-- Node1&#45;&gt;Node2 -->
<g id="edge1" class="edge"><title>Node1&#45;&gt;Node2</title>
<path fill="none" stroke="midnightblue" d="M127.3,-97.5C135.689,-97.5 144.32,-97.5 152.781,-97.5"/>
<polygon fill="midnightblue" stroke="midnightblue" points="152.991,-101 162.991,-97.5 152.991,-94.0001 152.991,-101"/>
</g>
<!-- Node3 -->
<g id="node3" class="node"><title>Node3</title>
<g id="a_node3"><a xlink:href="../../dd/deb/class_t_m_c2130_stepper.html#a161ca6ebe3736454e17e9236572a6001" target="_top" xlink:title=" ">
<polygon fill="white" stroke="black" points="315,-88 315,-107 431,-107 431,-88 315,-88"/>
<text text-anchor="middle" x="373" y="-95" font-family="Helvetica,sans-Serif" font-size="10.00">TMC2130Stepper::read</text>
</a>
</g>
</g>
<!-- Node2&#45;&gt;Node3 -->
<g id="edge2" class="edge"><title>Node2&#45;&gt;Node3</title>
<path fill="none" stroke="midnightblue" d="M279.136,-97.5C287.377,-97.5 295.923,-97.5 304.344,-97.5"/>
<polygon fill="midnightblue" stroke="midnightblue" points="304.526,-101 314.525,-97.5 304.525,-94.0001 304.526,-101"/>
</g>
<!-- Node4 -->
<g id="node4" class="node"><title>Node4</title>
<g id="a_node4"><a xlink:href="../../dd/deb/class_t_m_c2130_stepper.html#a1fc868601a32fb0cd8fc536dafa8ecea" target="_top" xlink:title=" ">
<polygon fill="white" stroke="black" points="467,-164 467,-183 638,-183 638,-164 467,-164"/>
<text text-anchor="middle" x="552.5" y="-171" font-family="Helvetica,sans-Serif" font-size="10.00">TMC2130Stepper::beginTransaction</text>
</a>
</g>
</g>
<!-- Node3&#45;&gt;Node4 -->
<g id="edge3" class="edge"><title>Node3&#45;&gt;Node4</title>
<path fill="none" stroke="midnightblue" d="M386.522,-107.048C403.741,-119.725 436.117,-141.967 467,-154.5 473.272,-157.045 479.951,-159.283 486.7,-161.242"/>
<polygon fill="midnightblue" stroke="midnightblue" points="486.032,-164.687 496.599,-163.918 487.858,-157.93 486.032,-164.687"/>
</g>
<!-- Node5 -->
<g id="node5" class="node"><title>Node5</title>
<g id="a_node5"><a xlink:href="../../dd/deb/class_t_m_c2130_stepper.html#aeace18dcee808585dd4449e783811600" target="_top" xlink:title=" ">
<polygon fill="white" stroke="black" points="470.5,-126 470.5,-145 634.5,-145 634.5,-126 470.5,-126"/>
<text text-anchor="middle" x="552.5" y="-133" font-family="Helvetica,sans-Serif" font-size="10.00">TMC2130Stepper::endTransaction</text>
</a>
</g>
</g>
<!-- Node3&#45;&gt;Node5 -->
<g id="edge4" class="edge"><title>Node3&#45;&gt;Node5</title>
<path fill="none" stroke="midnightblue" d="M418.791,-107.089C442.53,-112.171 471.884,-118.455 496.944,-123.82"/>
<polygon fill="midnightblue" stroke="midnightblue" points="496.52,-127.309 507.031,-125.98 497.986,-120.464 496.52,-127.309"/>
</g>
<!-- Node6 -->
<g id="node6" class="node"><title>Node6</title>
<g id="a_node6"><a xlink:href="../../dd/deb/class_t_m_c2130_stepper.html#a4a8f3b6ac100045ed5f84fe4d18d9d5a" target="_top" xlink:title=" ">
<polygon fill="white" stroke="black" points="476.5,-88 476.5,-107 628.5,-107 628.5,-88 476.5,-88"/>
<text text-anchor="middle" x="552.5" y="-95" font-family="Helvetica,sans-Serif" font-size="10.00">TMC2130Stepper::switchCSpin</text>
</a>
</g>
</g>
<!-- Node3&#45;&gt;Node6 -->
<g id="edge5" class="edge"><title>Node3&#45;&gt;Node6</title>
<path fill="none" stroke="midnightblue" d="M431.139,-97.5C442.27,-97.5 454.163,-97.5 465.981,-97.5"/>
<polygon fill="midnightblue" stroke="midnightblue" points="466.325,-101 476.325,-97.5 466.324,-94.0001 466.325,-101"/>
</g>
<!-- Node7 -->
<g id="node7" class="node"><title>Node7</title>
<g id="a_node7"><a xlink:href="../../dd/deb/class_t_m_c2130_stepper.html#a0673af4887ec52b23aa658aa290f6623" target="_top" xlink:title=" ">
<polygon fill="white" stroke="black" points="674,-28 674,-47 804,-47 804,-28 674,-28"/>
<text text-anchor="middle" x="739" y="-35" font-family="Helvetica,sans-Serif" font-size="10.00">TMC2130Stepper::transfer</text>
</a>
</g>
</g>
<!-- Node3&#45;&gt;Node7 -->
<g id="edge6" class="edge"><title>Node3&#45;&gt;Node7</title>
<path fill="none" stroke="midnightblue" d="M418.378,-87.9498C433.744,-84.7717 451.099,-81.3252 467,-78.5 533.378,-66.7062 609.291,-55.4085 663.852,-47.6702"/>
<polygon fill="midnightblue" stroke="midnightblue" points="664.372,-51.1316 673.784,-46.2674 663.393,-44.2004 664.372,-51.1316"/>
</g>
<!-- Node9 -->
<g id="node9" class="node"><title>Node9</title>
<g id="a_node9"><a xlink:href="../../dd/deb/class_t_m_c2130_stepper.html#aba94fc7bb8e2c8c12191f44561f19d95" target="_top" xlink:title=" ">
<polygon fill="white" stroke="black" points="487.5,-0.5 487.5,-30.5 617.5,-30.5 617.5,-0.5 487.5,-0.5"/>
<text text-anchor="start" x="495.5" y="-18.5" font-family="Helvetica,sans-Serif" font-size="10.00">TMC2130Stepper::transfer</text>
<text text-anchor="middle" x="552.5" y="-7.5" font-family="Helvetica,sans-Serif" font-size="10.00">EmptyBytes</text>
</a>
</g>
</g>
<!-- Node3&#45;&gt;Node9 -->
<g id="edge8" class="edge"><title>Node3&#45;&gt;Node9</title>
<path fill="none" stroke="midnightblue" d="M389.378,-87.8381C407.488,-76.7136 438.694,-58.3277 467,-45.5 475.84,-41.494 485.386,-37.66 494.769,-34.1517"/>
<polygon fill="midnightblue" stroke="midnightblue" points="496.257,-37.3346 504.453,-30.6201 493.859,-30.7583 496.257,-37.3346"/>
</g>
<!-- Node8 -->
<g id="node8" class="node"><title>Node8</title>
<g id="a_node8"><a xlink:href="../../df/d8b/class_s_w___s_p_i_class.html#af260fdc0af3f1312b106483161e559c3" target="_top" xlink:title=" ">
<polygon fill="white" stroke="black" points="840,-28 840,-47 957,-47 957,-28 840,-28"/>
<text text-anchor="middle" x="898.5" y="-35" font-family="Helvetica,sans-Serif" font-size="10.00">SW_SPIClass::transfer</text>
</a>
</g>
</g>
<!-- Node7&#45;&gt;Node8 -->
<g id="edge7" class="edge"><title>Node7&#45;&gt;Node8</title>
<path fill="none" stroke="midnightblue" d="M804.061,-37.5C812.477,-37.5 821.125,-37.5 829.603,-37.5"/>
<polygon fill="midnightblue" stroke="midnightblue" points="829.831,-41.0001 839.831,-37.5 829.831,-34.0001 829.831,-41.0001"/>
</g>
<!-- Node9&#45;&gt;Node7 -->
<g id="edge9" class="edge"><title>Node9&#45;&gt;Node7</title>
<path fill="none" stroke="midnightblue" d="M617.511,-23.1328C632.452,-24.9144 648.487,-26.8263 663.827,-28.6556"/>
<polygon fill="midnightblue" stroke="midnightblue" points="663.445,-32.1347 673.79,-29.8435 664.274,-25.184 663.445,-32.1347"/>
</g>
</g>
</svg>
