<?xml version="1.0" encoding="UTF-8" standalone="no"?>
<!DOCTYPE svg PUBLIC "-//W3C//DTD SVG 1.1//EN"
 "http://www.w3.org/Graphics/SVG/1.1/DTD/svg11.dtd">
<!-- Generated by graphviz version 2.38.0 (20140413.2041)
 -->
<!-- Title: TMC2160Stepper::begin Pages: 1 -->
<!--zoomable 334 -->
<svg id="main" version="1.1" xmlns="http://www.w3.org/2000/svg" xmlns:xlink="http://www.w3.org/1999/xlink" xml:space="preserve" onload="init(evt)">
<style type="text/css"><![CDATA[
.edge:hover path { stroke: red; }
.edge:hover polygon { stroke: red; fill: red; }
]]></style>
<script type="text/javascript"><![CDATA[
var edges = document.getElementsByTagName('g');
if (edges && edges.length) {
  for (var i=0;i<edges.length;i++) {
    if (edges[i].id.substr(0,4)=='edge') {
      edges[i].setAttribute('class','edge');
    }
  }
}
]]></script>
        <defs>
                <circle id="rim" cx="0" cy="0" r="7"/>
                <circle id="rim2" cx="0" cy="0" r="3.5"/>
                <g id="zoomPlus">
                        <use xlink:href="#rim" fill="#404040">
                                <set attributeName="fill" to="#808080" begin="zoomplus.mouseover" end="zoomplus.mouseout"/>
                        </use>
                        <path d="M-4,0h8M0,-4v8" fill="none" stroke="white" stroke-width="1.5" pointer-events="none"/>
                </g>
                <g id="zoomMin">
                        <use xlink:href="#rim" fill="#404040">
                                <set attributeName="fill" to="#808080" begin="zoomminus.mouseover" end="zoomminus.mouseout"/>
                        </use>
                        <path d="M-4,0h8" fill="none" stroke="white" stroke-width="1.5" pointer-events="none"/>
                </g>
                <g id="dirArrow">
                        <path fill="none" stroke="white" stroke-width="1.5" d="M0,-3.0v7 M-2.5,-0.5L0,-3.0L2.5,-0.5"/>
                </g>
               <g id="resetDef">
                       <use xlink:href="#rim2" fill="#404040">
                               <set attributeName="fill" to="#808080" begin="reset.mouseover" end="reset.mouseout"/>
                       </use>
               </g>
        </defs>

<script type="text/javascript">
var viewWidth = 1183;
var viewHeight = 334;
var sectionId = 'dynsection-9';
</script>
<script xlink:href="../../svgpan.js"/>
<svg id="graph" class="graph">
<g id="viewport">
<title>TMC2160Stepper::begin</title>
<polygon fill="white" stroke="none" points="-4,4 -4,-329.692 1179,-329.692 1179,4 -4,4"/>
<!-- Node1 -->
<g id="node1" class="node"><title>Node1</title>
<g id="a_node1"><a xlink:title=" ">
<polygon fill="#bfbfbf" stroke="black" points="0,-141.952 0,-160.952 121,-160.952 121,-141.952 0,-141.952"/>
<text text-anchor="middle" x="60.5" y="-148.952" font-family="Helvetica,sans-Serif" font-size="10.00">TMC2160Stepper::begin</text>
</a>
</g>
</g>
<!-- Node2 -->
<g id="node2" class="node"><title>Node2</title>
<g id="a_node2"><a xlink:href="../../dd/deb/class_t_m_c2130_stepper.html#a67541b27d97ce45f175e9f6e4a2d0bff" target="_top" xlink:title=" ">
<polygon fill="white" stroke="black" points="345,-179.952 345,-198.952 497,-198.952 497,-179.952 345,-179.952"/>
<text text-anchor="middle" x="421" y="-186.952" font-family="Helvetica,sans-Serif" font-size="10.00">TMC2130Stepper::CHOPCONF</text>
</a>
</g>
</g>
<!-- Node1&#45;&gt;Node2 -->
<g id="edge1" class="edge"><title>Node1&#45;&gt;Node2</title>
<path fill="none" stroke="midnightblue" d="M67.3936,-161.152C80.4762,-181.619 114.197,-228.788 157,-246.452 219.447,-272.223 243.336,-262.326 309,-246.452 342.164,-238.435 376.536,-218.707 398.076,-204.713"/>
<polygon fill="midnightblue" stroke="midnightblue" points="400.097,-207.573 406.481,-199.118 396.217,-201.746 400.097,-207.573"/>
</g>
<!-- Node6 -->
<g id="node6" class="node"><title>Node6</title>
<g id="a_node6"><a xlink:href="../../dd/deb/class_t_m_c2130_stepper.html#a4a8f3b6ac100045ed5f84fe4d18d9d5a" target="_top" xlink:title=" ">
<polygon fill="white" stroke="black" points="694.5,-274.952 694.5,-293.952 846.5,-293.952 846.5,-274.952 694.5,-274.952"/>
<text text-anchor="middle" x="770.5" y="-281.952" font-family="Helvetica,sans-Serif" font-size="10.00">TMC2130Stepper::switchCSpin</text>
</a>
</g>
</g>
<!-- Node1&#45;&gt;Node6 -->
<g id="edge16" class="edge"><title>Node1&#45;&gt;Node6</title>
<path fill="none" stroke="midnightblue" d="M65.8031,-160.972C76.9364,-184.293 109.196,-244.072 157,-267.452 347.008,-360.384 611.358,-319.211 719.941,-296.189"/>
<polygon fill="midnightblue" stroke="midnightblue" points="720.921,-299.558 729.955,-294.023 719.441,-292.716 720.921,-299.558"/>
</g>
<!-- Node10 -->
<g id="node10" class="node"><title>Node10</title>
<g id="a_node10"><a xlink:href="../../dd/deb/class_t_m_c2130_stepper.html#abc48be984238d94bb3b72ed3aa26f028" target="_top" xlink:title=" ">
<polygon fill="white" stroke="black" points="157,-217.952 157,-236.952 309,-236.952 309,-217.952 157,-217.952"/>
<text text-anchor="middle" x="233" y="-224.952" font-family="Helvetica,sans-Serif" font-size="10.00">TMC2130Stepper::COOLCONF</text>
</a>
</g>
</g>
<!-- Node1&#45;&gt;Node10 -->
<g id="edge10" class="edge"><title>Node1&#45;&gt;Node10</title>
<path fill="none" stroke="midnightblue" d="M74.7578,-161.073C92.6211,-173.625 125.787,-195.508 157,-208.452 162.863,-210.883 169.116,-213.064 175.416,-215.005"/>
<polygon fill="midnightblue" stroke="midnightblue" points="174.728,-218.449 185.306,-217.857 176.668,-211.723 174.728,-218.449"/>
</g>
<!-- Node11 -->
<g id="node11" class="node"><title>Node11</title>
<g id="a_node11"><a xlink:href="../../dd/deb/class_t_m_c2130_stepper.html#aee84a9abfc84b387c6ae5658f90bf684" target="_top" xlink:title=" ">
<polygon fill="white" stroke="black" points="355,-65.9521 355,-84.9521 487,-84.9521 487,-65.9521 355,-65.9521"/>
<text text-anchor="middle" x="421" y="-72.9521" font-family="Helvetica,sans-Serif" font-size="10.00">TMC2130Stepper::GCONF</text>
</a>
</g>
</g>
<!-- Node1&#45;&gt;Node11 -->
<g id="edge11" class="edge"><title>Node1&#45;&gt;Node11</title>
<path fill="none" stroke="midnightblue" d="M64.9027,-141.652C74.518,-115.693 104.646,-45.3123 157,-18.4521 217.107,12.3854 243.336,-2.57781 309,-18.4521 342.164,-26.4696 376.536,-46.1971 398.076,-60.1911"/>
<polygon fill="midnightblue" stroke="midnightblue" points="396.217,-63.1584 406.481,-65.7866 400.097,-57.3315 396.217,-63.1584"/>
</g>
<!-- Node12 -->
<g id="node12" class="node"><title>Node12</title>
<g id="a_node12"><a xlink:href="../../de/d64/class_t_m_c_stepper.html#a597bc308bad0d1198b98c48a6ef34fc3" target="_top" xlink:title=" ">
<polygon fill="white" stroke="black" points="166.5,-141.952 166.5,-160.952 299.5,-160.952 299.5,-141.952 166.5,-141.952"/>
<text text-anchor="middle" x="233" y="-148.952" font-family="Helvetica,sans-Serif" font-size="10.00">TMCStepper::IHOLD_IRUN</text>
</a>
</g>
</g>
<!-- Node1&#45;&gt;Node12 -->
<g id="edge13" class="edge"><title>Node1&#45;&gt;Node12</title>
<path fill="none" stroke="midnightblue" d="M121.133,-151.452C132.422,-151.452 144.372,-151.452 156.085,-151.452"/>
<polygon fill="midnightblue" stroke="midnightblue" points="156.294,-154.952 166.294,-151.452 156.294,-147.952 156.294,-154.952"/>
</g>
<!-- Node13 -->
<g id="node13" class="node"><title>Node13</title>
<g id="a_node13"><a xlink:href="../../df/d8b/class_s_w___s_p_i_class.html#aa35a68a7e184e42445f391876e58dd68" target="_top" xlink:title=" ">
<polygon fill="white" stroke="black" points="184,-103.952 184,-122.952 282,-122.952 282,-103.952 184,-103.952"/>
<text text-anchor="middle" x="233" y="-110.952" font-family="Helvetica,sans-Serif" font-size="10.00">SW_SPIClass::init</text>
</a>
</g>
</g>
<!-- Node1&#45;&gt;Node13 -->
<g id="edge14" class="edge"><title>Node1&#45;&gt;Node13</title>
<path fill="none" stroke="midnightblue" d="M104.524,-141.863C127.226,-136.803 155.273,-130.553 179.274,-125.203"/>
<polygon fill="midnightblue" stroke="midnightblue" points="180.286,-128.564 189.285,-122.972 178.763,-121.731 180.286,-128.564"/>
</g>
<!-- Node14 -->
<g id="node14" class="node"><title>Node14</title>
<g id="a_node14"><a xlink:href="../../db/d9d/class_t_m_c2160_stepper.html#ae59c6240979e95e7b05074e20f3600de" target="_top" xlink:title=" ">
<polygon fill="white" stroke="black" points="158.5,-65.9521 158.5,-84.9521 307.5,-84.9521 307.5,-65.9521 158.5,-65.9521"/>
<text text-anchor="middle" x="233" y="-72.9521" font-family="Helvetica,sans-Serif" font-size="10.00">TMC2160Stepper::PWMCONF</text>
</a>
</g>
</g>
<!-- Node1&#45;&gt;Node14 -->
<g id="edge15" class="edge"><title>Node1&#45;&gt;Node14</title>
<path fill="none" stroke="midnightblue" d="M74.7578,-141.831C92.6211,-129.279 125.787,-107.396 157,-94.4521 162.863,-92.021 169.116,-89.84 175.416,-87.8996"/>
<polygon fill="midnightblue" stroke="midnightblue" points="176.668,-91.1815 185.306,-85.0473 174.728,-84.4557 176.668,-91.1815"/>
</g>
<!-- Node15 -->
<g id="node15" class="node"><title>Node15</title>
<g id="a_node15"><a xlink:href="../../dd/deb/class_t_m_c2130_stepper.html#ae54d816846ca2103976f490c5ab8e887" target="_top" xlink:title=" ">
<polygon fill="white" stroke="black" points="179,-179.952 179,-198.952 287,-198.952 287,-179.952 179,-179.952"/>
<text text-anchor="middle" x="233" y="-186.952" font-family="Helvetica,sans-Serif" font-size="10.00">TMC2130Stepper::tbl</text>
</a>
</g>
</g>
<!-- Node1&#45;&gt;Node15 -->
<g id="edge17" class="edge"><title>Node1&#45;&gt;Node15</title>
<path fill="none" stroke="midnightblue" d="M104.524,-161.041C127.226,-166.101 155.273,-172.352 179.274,-177.701"/>
<polygon fill="midnightblue" stroke="midnightblue" points="178.763,-181.173 189.285,-179.932 180.286,-174.34 178.763,-181.173"/>
</g>
<!-- Node16 -->
<g id="node16" class="node"><title>Node16</title>
<g id="a_node16"><a xlink:href="../../dd/deb/class_t_m_c2130_stepper.html#ac34bf4add4f669e935f2a91e1b42817c" target="_top" xlink:title=" ">
<polygon fill="white" stroke="black" points="178,-27.9521 178,-46.9521 288,-46.9521 288,-27.9521 178,-27.9521"/>
<text text-anchor="middle" x="233" y="-34.9521" font-family="Helvetica,sans-Serif" font-size="10.00">TMC2130Stepper::toff</text>
</a>
</g>
</g>
<!-- Node1&#45;&gt;Node16 -->
<g id="edge19" class="edge"><title>Node1&#45;&gt;Node16</title>
<path fill="none" stroke="midnightblue" d="M68.4243,-141.67C82.6804,-122.285 117.322,-78.9308 157,-56.4521 160.919,-54.232 165.098,-52.2676 169.401,-50.5298"/>
<polygon fill="midnightblue" stroke="midnightblue" points="170.752,-53.7635 178.97,-47.0766 168.375,-47.1792 170.752,-53.7635"/>
</g>
<!-- Node3 -->
<g id="node3" class="node"><title>Node3</title>
<g id="a_node3"><a xlink:href="../../dd/deb/class_t_m_c2130_stepper.html#a161ca6ebe3736454e17e9236572a6001" target="_top" xlink:title=" ">
<polygon fill="white" stroke="black" points="533,-179.952 533,-198.952 649,-198.952 649,-179.952 533,-179.952"/>
<text text-anchor="middle" x="591" y="-186.952" font-family="Helvetica,sans-Serif" font-size="10.00">TMC2130Stepper::read</text>
</a>
</g>
</g>
<!-- Node2&#45;&gt;Node3 -->
<g id="edge2" class="edge"><title>Node2&#45;&gt;Node3</title>
<path fill="none" stroke="midnightblue" d="M497.155,-189.452C505.664,-189.452 514.296,-189.452 522.696,-189.452"/>
<polygon fill="midnightblue" stroke="midnightblue" points="522.802,-192.952 532.802,-189.452 522.802,-185.952 522.802,-192.952"/>
</g>
<!-- Node4 -->
<g id="node4" class="node"><title>Node4</title>
<g id="a_node4"><a xlink:href="../../dd/deb/class_t_m_c2130_stepper.html#a1fc868601a32fb0cd8fc536dafa8ecea" target="_top" xlink:title=" ">
<polygon fill="white" stroke="black" points="685,-227.952 685,-246.952 856,-246.952 856,-227.952 685,-227.952"/>
<text text-anchor="middle" x="770.5" y="-234.952" font-family="Helvetica,sans-Serif" font-size="10.00">TMC2130Stepper::beginTransaction</text>
</a>
</g>
</g>
<!-- Node3&#45;&gt;Node4 -->
<g id="edge3" class="edge"><title>Node3&#45;&gt;Node4</title>
<path fill="none" stroke="midnightblue" d="M620.729,-199.072C639.019,-205.032 663.272,-212.632 685,-218.452 694.271,-220.935 704.171,-223.362 713.812,-225.605"/>
<polygon fill="midnightblue" stroke="midnightblue" points="713.198,-229.054 723.726,-227.871 714.757,-222.23 713.198,-229.054"/>
</g>
<!-- Node5 -->
<g id="node5" class="node"><title>Node5</title>
<g id="a_node5"><a xlink:href="../../dd/deb/class_t_m_c2130_stepper.html#aeace18dcee808585dd4449e783811600" target="_top" xlink:title=" ">
<polygon fill="white" stroke="black" points="688.5,-189.952 688.5,-208.952 852.5,-208.952 852.5,-189.952 688.5,-189.952"/>
<text text-anchor="middle" x="770.5" y="-196.952" font-family="Helvetica,sans-Serif" font-size="10.00">TMC2130Stepper::endTransaction</text>
</a>
</g>
</g>
<!-- Node3&#45;&gt;Node5 -->
<g id="edge4" class="edge"><title>Node3&#45;&gt;Node5</title>
<path fill="none" stroke="midnightblue" d="M649.139,-192.671C658.391,-193.192 668.17,-193.743 677.994,-194.297"/>
<polygon fill="midnightblue" stroke="midnightblue" points="678.046,-197.805 688.228,-194.873 678.44,-190.816 678.046,-197.805"/>
</g>
<!-- Node3&#45;&gt;Node6 -->
<g id="edge5" class="edge"><title>Node3&#45;&gt;Node6</title>
<path fill="none" stroke="midnightblue" d="M603.01,-199.117C619.714,-213.361 652.922,-240.071 685,-256.452 696.838,-262.497 710.259,-267.641 722.864,-271.807"/>
<polygon fill="midnightblue" stroke="midnightblue" points="722.162,-275.255 732.752,-274.936 724.274,-268.582 722.162,-275.255"/>
</g>
<!-- Node7 -->
<g id="node7" class="node"><title>Node7</title>
<g id="a_node7"><a xlink:href="../../dd/deb/class_t_m_c2130_stepper.html#a0673af4887ec52b23aa658aa290f6623" target="_top" xlink:title=" ">
<polygon fill="white" stroke="black" points="892,-123.952 892,-142.952 1022,-142.952 1022,-123.952 892,-123.952"/>
<text text-anchor="middle" x="957" y="-130.952" font-family="Helvetica,sans-Serif" font-size="10.00">TMC2130Stepper::transfer</text>
</a>
</g>
</g>
<!-- Node3&#45;&gt;Node7 -->
<g id="edge6" class="edge"><title>Node3&#45;&gt;Node7</title>
<path fill="none" stroke="midnightblue" d="M602.744,-179.875C619.109,-166 651.889,-140.931 685,-131.452 752.706,-112.07 833.885,-116.037 889.634,-122.675"/>
<polygon fill="midnightblue" stroke="midnightblue" points="889.382,-126.171 899.739,-123.941 890.251,-119.225 889.382,-126.171"/>
</g>
<!-- Node9 -->
<g id="node9" class="node"><title>Node9</title>
<g id="a_node9"><a xlink:href="../../dd/deb/class_t_m_c2130_stepper.html#aba94fc7bb8e2c8c12191f44561f19d95" target="_top" xlink:title=" ">
<polygon fill="white" stroke="black" points="705.5,-140.452 705.5,-170.452 835.5,-170.452 835.5,-140.452 705.5,-140.452"/>
<text text-anchor="start" x="713.5" y="-158.452" font-family="Helvetica,sans-Serif" font-size="10.00">TMC2130Stepper::transfer</text>
<text text-anchor="middle" x="770.5" y="-147.452" font-family="Helvetica,sans-Serif" font-size="10.00">EmptyBytes</text>
</a>
</g>
</g>
<!-- Node3&#45;&gt;Node9 -->
<g id="edge8" class="edge"><title>Node3&#45;&gt;Node9</title>
<path fill="none" stroke="midnightblue" d="M641.916,-179.891C658.527,-176.709 677.4,-173.094 695.439,-169.638"/>
<polygon fill="midnightblue" stroke="midnightblue" points="696.193,-173.058 705.356,-167.739 694.876,-166.183 696.193,-173.058"/>
</g>
<!-- Node8 -->
<g id="node8" class="node"><title>Node8</title>
<g id="a_node8"><a xlink:href="../../df/d8b/class_s_w___s_p_i_class.html#af260fdc0af3f1312b106483161e559c3" target="_top" xlink:title=" ">
<polygon fill="white" stroke="black" points="1058,-123.952 1058,-142.952 1175,-142.952 1175,-123.952 1058,-123.952"/>
<text text-anchor="middle" x="1116.5" y="-130.952" font-family="Helvetica,sans-Serif" font-size="10.00">SW_SPIClass::transfer</text>
</a>
</g>
</g>
<!-- Node7&#45;&gt;Node8 -->
<g id="edge7" class="edge"><title>Node7&#45;&gt;Node8</title>
<path fill="none" stroke="midnightblue" d="M1022.06,-133.452C1030.48,-133.452 1039.13,-133.452 1047.6,-133.452"/>
<polygon fill="midnightblue" stroke="midnightblue" points="1047.83,-136.952 1057.83,-133.452 1047.83,-129.952 1047.83,-136.952"/>
</g>
<!-- Node9&#45;&gt;Node7 -->
<g id="edge9" class="edge"><title>Node9&#45;&gt;Node7</title>
<path fill="none" stroke="midnightblue" d="M835.511,-147.819C850.452,-146.038 866.487,-144.126 881.827,-142.297"/>
<polygon fill="midnightblue" stroke="midnightblue" points="882.274,-145.768 891.79,-141.109 881.445,-138.817 882.274,-145.768"/>
</g>
<!-- Node11&#45;&gt;Node3 -->
<g id="edge12" class="edge"><title>Node11&#45;&gt;Node3</title>
<path fill="none" stroke="midnightblue" d="M436.035,-84.9756C464.992,-104.625 531.603,-149.825 566.966,-173.822"/>
<polygon fill="midnightblue" stroke="midnightblue" points="565.409,-176.995 575.649,-179.714 569.34,-171.203 565.409,-176.995"/>
</g>
<!-- Node15&#45;&gt;Node2 -->
<g id="edge18" class="edge"><title>Node15&#45;&gt;Node2</title>
<path fill="none" stroke="midnightblue" d="M287.3,-189.452C302.146,-189.452 318.654,-189.452 334.842,-189.452"/>
<polygon fill="midnightblue" stroke="midnightblue" points="334.863,-192.952 344.863,-189.452 334.863,-185.952 334.863,-192.952"/>
</g>
<!-- Node16&#45;&gt;Node2 -->
<g id="edge20" class="edge"><title>Node16&#45;&gt;Node2</title>
<path fill="none" stroke="midnightblue" d="M288.147,-46.7862C295.464,-49.2828 302.634,-52.4456 309,-56.4521 321.384,-64.2459 379.086,-137.05 406.048,-171.52"/>
<polygon fill="midnightblue" stroke="midnightblue" points="403.574,-174.038 412.486,-179.768 409.092,-169.732 403.574,-174.038"/>
</g>
</g>
</svg>
        <g id="navigator" transform="translate(0 0)" fill="#404254">
                <rect fill="#f2f5e9" fill-opacity="0.5" stroke="#606060" stroke-width=".5" x="0" y="0" width="60" height="60"/>
                <use id="zoomplus" xlink:href="#zoomPlus" x="17" y="9" onmousedown="handleZoom(evt,'in')"/>
                <use id="zoomminus" xlink:href="#zoomMin" x="42" y="9" onmousedown="handleZoom(evt,'out')"/>
                <use id="reset" xlink:href="#resetDef" x="30" y="36" onmousedown="handleReset()"/>
                <g id="arrowUp" xlink:href="#dirArrow" transform="translate(30 24)" onmousedown="handlePan(0,-1)">
                  <use xlink:href="#rim" fill="#404040">
                        <set attributeName="fill" to="#808080" begin="arrowUp.mouseover" end="arrowUp.mouseout"/>
                  </use>
                  <path fill="none" stroke="white" stroke-width="1.5" d="M0,-3.0v7 M-2.5,-0.5L0,-3.0L2.5,-0.5"/>
                </g>
                <g id="arrowRight" xlink:href="#dirArrow" transform="rotate(90) translate(36 -43)" onmousedown="handlePan(1,0)">
                  <use xlink:href="#rim" fill="#404040">
                        <set attributeName="fill" to="#808080" begin="arrowRight.mouseover" end="arrowRight.mouseout"/>
                  </use>
                  <path fill="none" stroke="white" stroke-width="1.5" d="M0,-3.0v7 M-2.5,-0.5L0,-3.0L2.5,-0.5"/>
                </g>
                <g id="arrowDown" xlink:href="#dirArrow" transform="rotate(180) translate(-30 -48)" onmousedown="handlePan(0,1)">
                  <use xlink:href="#rim" fill="#404040">
                        <set attributeName="fill" to="#808080" begin="arrowDown.mouseover" end="arrowDown.mouseout"/>
                  </use>
                  <path fill="none" stroke="white" stroke-width="1.5" d="M0,-3.0v7 M-2.5,-0.5L0,-3.0L2.5,-0.5"/>
                </g>
                <g id="arrowLeft" xlink:href="#dirArrow" transform="rotate(270) translate(-36 17)" onmousedown="handlePan(-1,0)">
                  <use xlink:href="#rim" fill="#404040">
                        <set attributeName="fill" to="#808080" begin="arrowLeft.mouseover" end="arrowLeft.mouseout"/>
                  </use>
                  <path fill="none" stroke="white" stroke-width="1.5" d="M0,-3.0v7 M-2.5,-0.5L0,-3.0L2.5,-0.5"/>
                </g>
        </g>
        <svg viewBox="0 0 15 15" width="100%" height="30px" preserveAspectRatio="xMaxYMin meet">
         <g id="arrow_out" transform="scale(0.3 0.3)">
          <a xlink:href="class_t_m_c2160_stepper_a7ee48b042245ef5b3968b82029d1404c_cgraph_org.svg" target="_base">
           <rect id="button" ry="5" rx="5" y="6" x="6" height="38" width="38"
                fill="#f2f5e9" fill-opacity="0.5" stroke="#606060" stroke-width="1.0"/>
           <path id="arrow"
             d="M 11.500037,31.436501 C 11.940474,20.09759 22.043105,11.32322 32.158766,21.979434 L 37.068811,17.246167 C 37.068811,17.246167 37.088388,32 37.088388,32 L 22.160133,31.978069 C 22.160133,31.978069 26.997745,27.140456 26.997745,27.140456 C 18.528582,18.264221 13.291696,25.230495 11.500037,31.436501 z"
             style="fill:#404040;"/>
          </a>
         </g>
        </svg>
</svg>
