<?xml version="1.0" encoding="UTF-8" standalone="no"?>
<!DOCTYPE svg PUBLIC "-//W3C//DTD SVG 1.1//EN"
 "http://www.w3.org/Graphics/SVG/1.1/DTD/svg11.dtd">
<!-- Generated by graphviz version 2.38.0 (20140413.2041)
 -->
<!-- Title: TMC2160Stepper::PWMCONF Pages: 1 -->
<svg width="837pt" height="192pt"
 viewBox="0.00 0.00 837.00 191.50" xmlns="http://www.w3.org/2000/svg" xmlns:xlink="http://www.w3.org/1999/xlink">
<g id="graph0" class="graph" transform="scale(1 1) rotate(0) translate(4 187.5)">
<title>TMC2160Stepper::PWMCONF</title>
<polygon fill="white" stroke="none" points="-4,4 -4,-187.5 833,-187.5 833,4 -4,4"/>
<!-- Node1 -->
<g id="node1" class="node"><title>Node1</title>
<g id="a_node1"><a xlink:title=" ">
<polygon fill="#bfbfbf" stroke="black" points="0,-88 0,-107 149,-107 149,-88 0,-88"/>
<text text-anchor="middle" x="74.5" y="-95" font-family="Helvetica,sans-Serif" font-size="10.00">TMC2160Stepper::PWMCONF</text>
</a>
</g>
</g>
<!-- Node2 -->
<g id="node2" class="node"><title>Node2</title>
<g id="a_node2"><a xlink:href="../../dd/deb/class_t_m_c2130_stepper.html#a6b02e33ab452a7869426ede7ba370445" target="_top" xlink:title=" ">
<polygon fill="white" stroke="black" points="185,-88 185,-107 303,-107 303,-88 185,-88"/>
<text text-anchor="middle" x="244" y="-95" font-family="Helvetica,sans-Serif" font-size="10.00">TMC2130Stepper::write</text>
</a>
</g>
</g>
<!-- Node1&#45;&gt;Node2 -->
<g id="edge1" class="edge"><title>Node1&#45;&gt;Node2</title>
<path fill="none" stroke="midnightblue" d="M149.456,-97.5C157.867,-97.5 166.412,-97.5 174.744,-97.5"/>
<polygon fill="midnightblue" stroke="midnightblue" points="174.78,-101 184.78,-97.5 174.78,-94.0001 174.78,-101"/>
</g>
<!-- Node3 -->
<g id="node3" class="node"><title>Node3</title>
<g id="a_node3"><a xlink:href="../../dd/deb/class_t_m_c2130_stepper.html#a1fc868601a32fb0cd8fc536dafa8ecea" target="_top" xlink:title=" ">
<polygon fill="white" stroke="black" points="339,-164 339,-183 510,-183 510,-164 339,-164"/>
<text text-anchor="middle" x="424.5" y="-171" font-family="Helvetica,sans-Serif" font-size="10.00">TMC2130Stepper::beginTransaction</text>
</a>
</g>
</g>
<!-- Node2&#45;&gt;Node3 -->
<g id="edge2" class="edge"><title>Node2&#45;&gt;Node3</title>
<path fill="none" stroke="midnightblue" d="M257.674,-107.041C275.099,-119.71 307.845,-141.943 339,-154.5 345.372,-157.068 352.16,-159.325 359.015,-161.299"/>
<polygon fill="midnightblue" stroke="midnightblue" points="358.497,-164.784 369.062,-163.994 360.31,-158.023 358.497,-164.784"/>
</g>
<!-- Node4 -->
<g id="node4" class="node"><title>Node4</title>
<g id="a_node4"><a xlink:href="../../dd/deb/class_t_m_c2130_stepper.html#aeace18dcee808585dd4449e783811600" target="_top" xlink:title=" ">
<polygon fill="white" stroke="black" points="342.5,-126 342.5,-145 506.5,-145 506.5,-126 342.5,-126"/>
<text text-anchor="middle" x="424.5" y="-133" font-family="Helvetica,sans-Serif" font-size="10.00">TMC2130Stepper::endTransaction</text>
</a>
</g>
</g>
<!-- Node2&#45;&gt;Node4 -->
<g id="edge3" class="edge"><title>Node2&#45;&gt;Node4</title>
<path fill="none" stroke="midnightblue" d="M290.043,-107.089C314.023,-112.194 343.698,-118.511 368.972,-123.892"/>
<polygon fill="midnightblue" stroke="midnightblue" points="368.271,-127.321 378.781,-125.98 369.729,-120.474 368.271,-127.321"/>
</g>
<!-- Node5 -->
<g id="node5" class="node"><title>Node5</title>
<g id="a_node5"><a xlink:href="../../dd/deb/class_t_m_c2130_stepper.html#a4a8f3b6ac100045ed5f84fe4d18d9d5a" target="_top" xlink:title=" ">
<polygon fill="white" stroke="black" points="348.5,-88 348.5,-107 500.5,-107 500.5,-88 348.5,-88"/>
<text text-anchor="middle" x="424.5" y="-95" font-family="Helvetica,sans-Serif" font-size="10.00">TMC2130Stepper::switchCSpin</text>
</a>
</g>
</g>
<!-- Node2&#45;&gt;Node5 -->
<g id="edge4" class="edge"><title>Node2&#45;&gt;Node5</title>
<path fill="none" stroke="midnightblue" d="M303.448,-97.5C314.536,-97.5 326.347,-97.5 338.07,-97.5"/>
<polygon fill="midnightblue" stroke="midnightblue" points="338.329,-101 348.329,-97.5 338.329,-94.0001 338.329,-101"/>
</g>
<!-- Node6 -->
<g id="node6" class="node"><title>Node6</title>
<g id="a_node6"><a xlink:href="../../dd/deb/class_t_m_c2130_stepper.html#a0673af4887ec52b23aa658aa290f6623" target="_top" xlink:title=" ">
<polygon fill="white" stroke="black" points="546,-28 546,-47 676,-47 676,-28 546,-28"/>
<text text-anchor="middle" x="611" y="-35" font-family="Helvetica,sans-Serif" font-size="10.00">TMC2130Stepper::transfer</text>
</a>
</g>
</g>
<!-- Node2&#45;&gt;Node6 -->
<g id="edge5" class="edge"><title>Node2&#45;&gt;Node6</title>
<path fill="none" stroke="midnightblue" d="M289.859,-87.964C305.391,-84.787 322.932,-81.3376 339,-78.5 405.39,-66.7755 481.302,-55.4704 535.859,-47.7117"/>
<polygon fill="midnightblue" stroke="midnightblue" points="536.381,-51.1729 545.791,-46.3049 535.399,-44.2421 536.381,-51.1729"/>
</g>
<!-- Node8 -->
<g id="node8" class="node"><title>Node8</title>
<g id="a_node8"><a xlink:href="../../dd/deb/class_t_m_c2130_stepper.html#aba94fc7bb8e2c8c12191f44561f19d95" target="_top" xlink:title=" ">
<polygon fill="white" stroke="black" points="359.5,-0.5 359.5,-30.5 489.5,-30.5 489.5,-0.5 359.5,-0.5"/>
<text text-anchor="start" x="367.5" y="-18.5" font-family="Helvetica,sans-Serif" font-size="10.00">TMC2130Stepper::transfer</text>
<text text-anchor="middle" x="424.5" y="-7.5" font-family="Helvetica,sans-Serif" font-size="10.00">EmptyBytes</text>
</a>
</g>
</g>
<!-- Node2&#45;&gt;Node8 -->
<g id="edge7" class="edge"><title>Node2&#45;&gt;Node8</title>
<path fill="none" stroke="midnightblue" d="M260.559,-87.8524C278.877,-76.7413 310.432,-58.368 339,-45.5 348.049,-41.4242 357.831,-37.5179 367.42,-33.9495"/>
<polygon fill="midnightblue" stroke="midnightblue" points="368.707,-37.2056 376.91,-30.5 366.316,-30.6267 368.707,-37.2056"/>
</g>
<!-- Node7 -->
<g id="node7" class="node"><title>Node7</title>
<g id="a_node7"><a xlink:href="../../df/d8b/class_s_w___s_p_i_class.html#af260fdc0af3f1312b106483161e559c3" target="_top" xlink:title=" ">
<polygon fill="white" stroke="black" points="712,-28 712,-47 829,-47 829,-28 712,-28"/>
<text text-anchor="middle" x="770.5" y="-35" font-family="Helvetica,sans-Serif" font-size="10.00">SW_SPIClass::transfer</text>
</a>
</g>
</g>
<!-- Node6&#45;&gt;Node7 -->
<g id="edge6" class="edge"><title>Node6&#45;&gt;Node7</title>
<path fill="none" stroke="midnightblue" d="M676.061,-37.5C684.477,-37.5 693.125,-37.5 701.603,-37.5"/>
<polygon fill="midnightblue" stroke="midnightblue" points="701.831,-41.0001 711.831,-37.5 701.831,-34.0001 701.831,-41.0001"/>
</g>
<!-- Node8&#45;&gt;Node6 -->
<g id="edge8" class="edge"><title>Node8&#45;&gt;Node6</title>
<path fill="none" stroke="midnightblue" d="M489.511,-23.1328C504.452,-24.9144 520.487,-26.8263 535.827,-28.6556"/>
<polygon fill="midnightblue" stroke="midnightblue" points="535.445,-32.1347 545.79,-29.8435 536.274,-25.184 535.445,-32.1347"/>
</g>
</g>
</svg>
