<?xml version="1.0" encoding="UTF-8" standalone="no"?>
<!DOCTYPE svg PUBLIC "-//W3C//DTD SVG 1.1//EN"
 "http://www.w3.org/Graphics/SVG/1.1/DTD/svg11.dtd">
<!-- Generated by graphviz version 2.38.0 (20140413.2041)
 -->
<!-- Title: TMC2160Stepper::SHORT_CONF Pages: 1 -->
<svg width="851pt" height="192pt"
 viewBox="0.00 0.00 851.00 191.50" xmlns="http://www.w3.org/2000/svg" xmlns:xlink="http://www.w3.org/1999/xlink">
<g id="graph0" class="graph" transform="scale(1 1) rotate(0) translate(4 187.5)">
<title>TMC2160Stepper::SHORT_CONF</title>
<polygon fill="white" stroke="none" points="-4,4 -4,-187.5 847,-187.5 847,4 -4,4"/>
<!-- Node1 -->
<g id="node1" class="node"><title>Node1</title>
<g id="a_node1"><a xlink:title=" ">
<polygon fill="#bfbfbf" stroke="black" points="0,-88 0,-107 163,-107 163,-88 0,-88"/>
<text text-anchor="middle" x="81.5" y="-95" font-family="Helvetica,sans-Serif" font-size="10.00">TMC2160Stepper::SHORT_CONF</text>
</a>
</g>
</g>
<!-- Node2 -->
<g id="node2" class="node"><title>Node2</title>
<g id="a_node2"><a xlink:href="../../dd/deb/class_t_m_c2130_stepper.html#a6b02e33ab452a7869426ede7ba370445" target="_top" xlink:title=" ">
<polygon fill="white" stroke="black" points="199,-88 199,-107 317,-107 317,-88 199,-88"/>
<text text-anchor="middle" x="258" y="-95" font-family="Helvetica,sans-Serif" font-size="10.00">TMC2130Stepper::write</text>
</a>
</g>
</g>
<!-- Node1&#45;&gt;Node2 -->
<g id="edge1" class="edge"><title>Node1&#45;&gt;Node2</title>
<path fill="none" stroke="midnightblue" d="M163.11,-97.5C171.681,-97.5 180.337,-97.5 188.747,-97.5"/>
<polygon fill="midnightblue" stroke="midnightblue" points="188.859,-101 198.859,-97.5 188.859,-94.0001 188.859,-101"/>
</g>
<!-- Node3 -->
<g id="node3" class="node"><title>Node3</title>
<g id="a_node3"><a xlink:href="../../dd/deb/class_t_m_c2130_stepper.html#a1fc868601a32fb0cd8fc536dafa8ecea" target="_top" xlink:title=" ">
<polygon fill="white" stroke="black" points="353,-164 353,-183 524,-183 524,-164 353,-164"/>
<text text-anchor="middle" x="438.5" y="-171" font-family="Helvetica,sans-Serif" font-size="10.00">TMC2130Stepper::beginTransaction</text>
</a>
</g>
</g>
<!-- Node2&#45;&gt;Node3 -->
<g id="edge2" class="edge"><title>Node2&#45;&gt;Node3</title>
<path fill="none" stroke="midnightblue" d="M271.674,-107.041C289.099,-119.71 321.845,-141.943 353,-154.5 359.372,-157.068 366.16,-159.325 373.015,-161.299"/>
<polygon fill="midnightblue" stroke="midnightblue" points="372.497,-164.784 383.062,-163.994 374.31,-158.023 372.497,-164.784"/>
</g>
<!-- Node4 -->
<g id="node4" class="node"><title>Node4</title>
<g id="a_node4"><a xlink:href="../../dd/deb/class_t_m_c2130_stepper.html#aeace18dcee808585dd4449e783811600" target="_top" xlink:title=" ">
<polygon fill="white" stroke="black" points="356.5,-126 356.5,-145 520.5,-145 520.5,-126 356.5,-126"/>
<text text-anchor="middle" x="438.5" y="-133" font-family="Helvetica,sans-Serif" font-size="10.00">TMC2130Stepper::endTransaction</text>
</a>
</g>
</g>
<!-- Node2&#45;&gt;Node4 -->
<g id="edge3" class="edge"><title>Node2&#45;&gt;Node4</title>
<path fill="none" stroke="midnightblue" d="M304.043,-107.089C328.023,-112.194 357.698,-118.511 382.972,-123.892"/>
<polygon fill="midnightblue" stroke="midnightblue" points="382.271,-127.321 392.781,-125.98 383.729,-120.474 382.271,-127.321"/>
</g>
<!-- Node5 -->
<g id="node5" class="node"><title>Node5</title>
<g id="a_node5"><a xlink:href="../../dd/deb/class_t_m_c2130_stepper.html#a4a8f3b6ac100045ed5f84fe4d18d9d5a" target="_top" xlink:title=" ">
<polygon fill="white" stroke="black" points="362.5,-88 362.5,-107 514.5,-107 514.5,-88 362.5,-88"/>
<text text-anchor="middle" x="438.5" y="-95" font-family="Helvetica,sans-Serif" font-size="10.00">TMC2130Stepper::switchCSpin</text>
</a>
</g>
</g>
<!-- Node2&#45;&gt;Node5 -->
<g id="edge4" class="edge"><title>Node2&#45;&gt;Node5</title>
<path fill="none" stroke="midnightblue" d="M317.448,-97.5C328.536,-97.5 340.347,-97.5 352.07,-97.5"/>
<polygon fill="midnightblue" stroke="midnightblue" points="352.329,-101 362.329,-97.5 352.329,-94.0001 352.329,-101"/>
</g>
<!-- Node6 -->
<g id="node6" class="node"><title>Node6</title>
<g id="a_node6"><a xlink:href="../../dd/deb/class_t_m_c2130_stepper.html#a0673af4887ec52b23aa658aa290f6623" target="_top" xlink:title=" ">
<polygon fill="white" stroke="black" points="560,-28 560,-47 690,-47 690,-28 560,-28"/>
<text text-anchor="middle" x="625" y="-35" font-family="Helvetica,sans-Serif" font-size="10.00">TMC2130Stepper::transfer</text>
</a>
</g>
</g>
<!-- Node2&#45;&gt;Node6 -->
<g id="edge5" class="edge"><title>Node2&#45;&gt;Node6</title>
<path fill="none" stroke="midnightblue" d="M303.859,-87.964C319.391,-84.787 336.932,-81.3376 353,-78.5 419.39,-66.7755 495.302,-55.4704 549.859,-47.7117"/>
<polygon fill="midnightblue" stroke="midnightblue" points="550.381,-51.1729 559.791,-46.3049 549.399,-44.2421 550.381,-51.1729"/>
</g>
<!-- Node8 -->
<g id="node8" class="node"><title>Node8</title>
<g id="a_node8"><a xlink:href="../../dd/deb/class_t_m_c2130_stepper.html#aba94fc7bb8e2c8c12191f44561f19d95" target="_top" xlink:title=" ">
<polygon fill="white" stroke="black" points="373.5,-0.5 373.5,-30.5 503.5,-30.5 503.5,-0.5 373.5,-0.5"/>
<text text-anchor="start" x="381.5" y="-18.5" font-family="Helvetica,sans-Serif" font-size="10.00">TMC2130Stepper::transfer</text>
<text text-anchor="middle" x="438.5" y="-7.5" font-family="Helvetica,sans-Serif" font-size="10.00">EmptyBytes</text>
</a>
</g>
</g>
<!-- Node2&#45;&gt;Node8 -->
<g id="edge7" class="edge"><title>Node2&#45;&gt;Node8</title>
<path fill="none" stroke="midnightblue" d="M274.559,-87.8524C292.877,-76.7413 324.432,-58.368 353,-45.5 362.049,-41.4242 371.831,-37.5179 381.42,-33.9495"/>
<polygon fill="midnightblue" stroke="midnightblue" points="382.707,-37.2056 390.91,-30.5 380.316,-30.6267 382.707,-37.2056"/>
</g>
<!-- Node7 -->
<g id="node7" class="node"><title>Node7</title>
<g id="a_node7"><a xlink:href="../../df/d8b/class_s_w___s_p_i_class.html#af260fdc0af3f1312b106483161e559c3" target="_top" xlink:title=" ">
<polygon fill="white" stroke="black" points="726,-28 726,-47 843,-47 843,-28 726,-28"/>
<text text-anchor="middle" x="784.5" y="-35" font-family="Helvetica,sans-Serif" font-size="10.00">SW_SPIClass::transfer</text>
</a>
</g>
</g>
<!-- Node6&#45;&gt;Node7 -->
<g id="edge6" class="edge"><title>Node6&#45;&gt;Node7</title>
<path fill="none" stroke="midnightblue" d="M690.061,-37.5C698.477,-37.5 707.125,-37.5 715.603,-37.5"/>
<polygon fill="midnightblue" stroke="midnightblue" points="715.831,-41.0001 725.831,-37.5 715.831,-34.0001 715.831,-41.0001"/>
</g>
<!-- Node8&#45;&gt;Node6 -->
<g id="edge8" class="edge"><title>Node8&#45;&gt;Node6</title>
<path fill="none" stroke="midnightblue" d="M503.511,-23.1328C518.452,-24.9144 534.487,-26.8263 549.827,-28.6556"/>
<polygon fill="midnightblue" stroke="midnightblue" points="549.445,-32.1347 559.79,-29.8435 550.274,-25.184 549.445,-32.1347"/>
</g>
</g>
</svg>
