<?xml version="1.0" encoding="UTF-8" standalone="no"?>
<!DOCTYPE svg PUBLIC "-//W3C//DTD SVG 1.1//EN"
 "http://www.w3.org/Graphics/SVG/1.1/DTD/svg11.dtd">
<!-- Generated by graphviz version 2.38.0 (20140413.2041)
 -->
<!-- Title: TMC2160Stepper::pwm_freq Pages: 1 -->
<svg width="827pt" height="192pt"
 viewBox="0.00 0.00 827.00 191.50" xmlns="http://www.w3.org/2000/svg" xmlns:xlink="http://www.w3.org/1999/xlink">
<g id="graph0" class="graph" transform="scale(1 1) rotate(0) translate(4 187.5)">
<title>TMC2160Stepper::pwm_freq</title>
<polygon fill="white" stroke="none" points="-4,4 -4,-187.5 823,-187.5 823,4 -4,4"/>
<!-- Node1 -->
<g id="node1" class="node"><title>Node1</title>
<g id="a_node1"><a xlink:title=" ">
<polygon fill="#bfbfbf" stroke="black" points="0,-88 0,-107 139,-107 139,-88 0,-88"/>
<text text-anchor="middle" x="69.5" y="-95" font-family="Helvetica,sans-Serif" font-size="10.00">TMC2160Stepper::pwm_freq</text>
</a>
</g>
</g>
<!-- Node2 -->
<g id="node2" class="node"><title>Node2</title>
<g id="a_node2"><a xlink:href="../../dd/deb/class_t_m_c2130_stepper.html#a6b02e33ab452a7869426ede7ba370445" target="_top" xlink:title=" ">
<polygon fill="white" stroke="black" points="175,-88 175,-107 293,-107 293,-88 175,-88"/>
<text text-anchor="middle" x="234" y="-95" font-family="Helvetica,sans-Serif" font-size="10.00">TMC2130Stepper::write</text>
</a>
</g>
</g>
<!-- Node1&#45;&gt;Node2 -->
<g id="edge1" class="edge"><title>Node1&#45;&gt;Node2</title>
<path fill="none" stroke="midnightblue" d="M139.415,-97.5C147.778,-97.5 156.321,-97.5 164.676,-97.5"/>
<polygon fill="midnightblue" stroke="midnightblue" points="164.75,-101 174.75,-97.5 164.75,-94.0001 164.75,-101"/>
</g>
<!-- Node3 -->
<g id="node3" class="node"><title>Node3</title>
<g id="a_node3"><a xlink:href="../../dd/deb/class_t_m_c2130_stepper.html#a1fc868601a32fb0cd8fc536dafa8ecea" target="_top" xlink:title=" ">
<polygon fill="white" stroke="black" points="329,-164 329,-183 500,-183 500,-164 329,-164"/>
<text text-anchor="middle" x="414.5" y="-171" font-family="Helvetica,sans-Serif" font-size="10.00">TMC2130Stepper::beginTransaction</text>
</a>
</g>
</g>
<!-- Node2&#45;&gt;Node3 -->
<g id="edge2" class="edge"><title>Node2&#45;&gt;Node3</title>
<path fill="none" stroke="midnightblue" d="M247.674,-107.041C265.099,-119.71 297.845,-141.943 329,-154.5 335.372,-157.068 342.16,-159.325 349.015,-161.299"/>
<polygon fill="midnightblue" stroke="midnightblue" points="348.497,-164.784 359.062,-163.994 350.31,-158.023 348.497,-164.784"/>
</g>
<!-- Node4 -->
<g id="node4" class="node"><title>Node4</title>
<g id="a_node4"><a xlink:href="../../dd/deb/class_t_m_c2130_stepper.html#aeace18dcee808585dd4449e783811600" target="_top" xlink:title=" ">
<polygon fill="white" stroke="black" points="332.5,-126 332.5,-145 496.5,-145 496.5,-126 332.5,-126"/>
<text text-anchor="middle" x="414.5" y="-133" font-family="Helvetica,sans-Serif" font-size="10.00">TMC2130Stepper::endTransaction</text>
</a>
</g>
</g>
<!-- Node2&#45;&gt;Node4 -->
<g id="edge3" class="edge"><title>Node2&#45;&gt;Node4</title>
<path fill="none" stroke="midnightblue" d="M280.043,-107.089C304.023,-112.194 333.698,-118.511 358.972,-123.892"/>
<polygon fill="midnightblue" stroke="midnightblue" points="358.271,-127.321 368.781,-125.98 359.729,-120.474 358.271,-127.321"/>
</g>
<!-- Node5 -->
<g id="node5" class="node"><title>Node5</title>
<g id="a_node5"><a xlink:href="../../dd/deb/class_t_m_c2130_stepper.html#a4a8f3b6ac100045ed5f84fe4d18d9d5a" target="_top" xlink:title=" ">
<polygon fill="white" stroke="black" points="338.5,-88 338.5,-107 490.5,-107 490.5,-88 338.5,-88"/>
<text text-anchor="middle" x="414.5" y="-95" font-family="Helvetica,sans-Serif" font-size="10.00">TMC2130Stepper::switchCSpin</text>
</a>
</g>
</g>
<!-- Node2&#45;&gt;Node5 -->
<g id="edge4" class="edge"><title>Node2&#45;&gt;Node5</title>
<path fill="none" stroke="midnightblue" d="M293.448,-97.5C304.536,-97.5 316.347,-97.5 328.07,-97.5"/>
<polygon fill="midnightblue" stroke="midnightblue" points="328.329,-101 338.329,-97.5 328.329,-94.0001 328.329,-101"/>
</g>
<!-- Node6 -->
<g id="node6" class="node"><title>Node6</title>
<g id="a_node6"><a xlink:href="../../dd/deb/class_t_m_c2130_stepper.html#a0673af4887ec52b23aa658aa290f6623" target="_top" xlink:title=" ">
<polygon fill="white" stroke="black" points="536,-28 536,-47 666,-47 666,-28 536,-28"/>
<text text-anchor="middle" x="601" y="-35" font-family="Helvetica,sans-Serif" font-size="10.00">TMC2130Stepper::transfer</text>
</a>
</g>
</g>
<!-- Node2&#45;&gt;Node6 -->
<g id="edge5" class="edge"><title>Node2&#45;&gt;Node6</title>
<path fill="none" stroke="midnightblue" d="M279.859,-87.964C295.391,-84.787 312.932,-81.3376 329,-78.5 395.39,-66.7755 471.302,-55.4704 525.859,-47.7117"/>
<polygon fill="midnightblue" stroke="midnightblue" points="526.381,-51.1729 535.791,-46.3049 525.399,-44.2421 526.381,-51.1729"/>
</g>
<!-- Node8 -->
<g id="node8" class="node"><title>Node8</title>
<g id="a_node8"><a xlink:href="../../dd/deb/class_t_m_c2130_stepper.html#aba94fc7bb8e2c8c12191f44561f19d95" target="_top" xlink:title=" ">
<polygon fill="white" stroke="black" points="349.5,-0.5 349.5,-30.5 479.5,-30.5 479.5,-0.5 349.5,-0.5"/>
<text text-anchor="start" x="357.5" y="-18.5" font-family="Helvetica,sans-Serif" font-size="10.00">TMC2130Stepper::transfer</text>
<text text-anchor="middle" x="414.5" y="-7.5" font-family="Helvetica,sans-Serif" font-size="10.00">EmptyBytes</text>
</a>
</g>
</g>
<!-- Node2&#45;&gt;Node8 -->
<g id="edge7" class="edge"><title>Node2&#45;&gt;Node8</title>
<path fill="none" stroke="midnightblue" d="M250.559,-87.8524C268.877,-76.7413 300.432,-58.368 329,-45.5 338.049,-41.4242 347.831,-37.5179 357.42,-33.9495"/>
<polygon fill="midnightblue" stroke="midnightblue" points="358.707,-37.2056 366.91,-30.5 356.316,-30.6267 358.707,-37.2056"/>
</g>
<!-- Node7 -->
<g id="node7" class="node"><title>Node7</title>
<g id="a_node7"><a xlink:href="../../df/d8b/class_s_w___s_p_i_class.html#af260fdc0af3f1312b106483161e559c3" target="_top" xlink:title=" ">
<polygon fill="white" stroke="black" points="702,-28 702,-47 819,-47 819,-28 702,-28"/>
<text text-anchor="middle" x="760.5" y="-35" font-family="Helvetica,sans-Serif" font-size="10.00">SW_SPIClass::transfer</text>
</a>
</g>
</g>
<!-- Node6&#45;&gt;Node7 -->
<g id="edge6" class="edge"><title>Node6&#45;&gt;Node7</title>
<path fill="none" stroke="midnightblue" d="M666.061,-37.5C674.477,-37.5 683.125,-37.5 691.603,-37.5"/>
<polygon fill="midnightblue" stroke="midnightblue" points="691.831,-41.0001 701.831,-37.5 691.831,-34.0001 691.831,-41.0001"/>
</g>
<!-- Node8&#45;&gt;Node6 -->
<g id="edge8" class="edge"><title>Node8&#45;&gt;Node6</title>
<path fill="none" stroke="midnightblue" d="M479.511,-23.1328C494.452,-24.9144 510.487,-26.8263 525.827,-28.6556"/>
<polygon fill="midnightblue" stroke="midnightblue" points="525.445,-32.1347 535.79,-29.8435 526.274,-25.184 525.445,-32.1347"/>
</g>
</g>
</svg>
