<?xml version="1.0" encoding="UTF-8" standalone="no"?>
<!DOCTYPE svg PUBLIC "-//W3C//DTD SVG 1.1//EN"
 "http://www.w3.org/Graphics/SVG/1.1/DTD/svg11.dtd">
<!-- Generated by graphviz version 2.38.0 (20140413.2041)
 -->
<!-- Title: TMC2224Stepper::sel_a Pages: 1 -->
<svg width="986pt" height="235pt"
 viewBox="0.00 0.00 986.00 235.47" xmlns="http://www.w3.org/2000/svg" xmlns:xlink="http://www.w3.org/1999/xlink">
<g id="graph0" class="graph" transform="scale(1 1) rotate(0) translate(4 231.47)">
<title>TMC2224Stepper::sel_a</title>
<polygon fill="white" stroke="none" points="-4,4 -4,-231.47 982,-231.47 982,4 -4,4"/>
<!-- Node1 -->
<g id="node1" class="node"><title>Node1</title>
<g id="a_node1"><a xlink:title=" ">
<polygon fill="#bfbfbf" stroke="black" points="0,-81.9696 0,-100.97 121,-100.97 121,-81.9696 0,-81.9696"/>
<text text-anchor="middle" x="60.5" y="-88.9696" font-family="Helvetica,sans-Serif" font-size="10.00">TMC2224Stepper::sel_a</text>
</a>
</g>
</g>
<!-- Node2 -->
<g id="node2" class="node"><title>Node2</title>
<g id="a_node2"><a xlink:href="../../d8/d7d/class_t_m_c2224_stepper.html#aa5fa836e15992bc49e0297ef2126f725" target="_top" xlink:title=" ">
<polygon fill="white" stroke="black" points="157,-81.9696 157,-100.97 273,-100.97 273,-81.9696 157,-81.9696"/>
<text text-anchor="middle" x="215" y="-88.9696" font-family="Helvetica,sans-Serif" font-size="10.00">TMC2224Stepper::IOIN</text>
</a>
</g>
</g>
<!-- Node1&#45;&gt;Node2 -->
<g id="edge1" class="edge"><title>Node1&#45;&gt;Node2</title>
<path fill="none" stroke="midnightblue" d="M121.334,-91.4696C129.64,-91.4696 138.218,-91.4696 146.649,-91.4696"/>
<polygon fill="midnightblue" stroke="midnightblue" points="146.832,-94.9697 156.832,-91.4696 146.832,-87.9697 146.832,-94.9697"/>
</g>
<!-- Node3 -->
<g id="node3" class="node"><title>Node3</title>
<g id="a_node3"><a xlink:href="../../d6/d7e/class_t_m_c2208_stepper.html#a2fae2050849c3ab7968012def8ea1cc5" target="_top" xlink:title=" ">
<polygon fill="white" stroke="black" points="309,-81.9696 309,-100.97 425,-100.97 425,-81.9696 309,-81.9696"/>
<text text-anchor="middle" x="367" y="-88.9696" font-family="Helvetica,sans-Serif" font-size="10.00">TMC2208Stepper::read</text>
</a>
</g>
</g>
<!-- Node2&#45;&gt;Node3 -->
<g id="edge2" class="edge"><title>Node2&#45;&gt;Node3</title>
<path fill="none" stroke="midnightblue" d="M273.136,-91.4696C281.377,-91.4696 289.923,-91.4696 298.344,-91.4696"/>
<polygon fill="midnightblue" stroke="midnightblue" points="298.526,-94.9697 308.525,-91.4696 298.525,-87.9697 298.526,-94.9697"/>
</g>
<!-- Node4 -->
<g id="node4" class="node"><title>Node4</title>
<g id="a_node4"><a xlink:href="../../d6/d7e/class_t_m_c2208_stepper.html#a321ad81155b7a20c0858920d32d0b074" target="_top" xlink:title=" ">
<polygon fill="white" stroke="black" points="470,-157.97 470,-176.97 636,-176.97 636,-157.97 470,-157.97"/>
<text text-anchor="middle" x="553" y="-164.97" font-family="Helvetica,sans-Serif" font-size="10.00">TMC2208Stepper::_sendDatagram</text>
</a>
</g>
</g>
<!-- Node3&#45;&gt;Node4 -->
<g id="edge3" class="edge"><title>Node3&#45;&gt;Node4</title>
<path fill="none" stroke="midnightblue" d="M380.494,-101.088C397.681,-113.843 430.022,-136.174 461,-148.47 467.6,-151.089 474.62,-153.37 481.72,-155.35"/>
<polygon fill="midnightblue" stroke="midnightblue" points="480.861,-158.743 491.42,-157.869 482.62,-151.968 480.861,-158.743"/>
</g>
<!-- Node10 -->
<g id="node10" class="node"><title>Node10</title>
<g id="a_node10"><a xlink:href="../../d6/d7e/class_t_m_c2208_stepper.html#a409c19fa6b052a370a317d061bf9af4e" target="_top" xlink:title=" ">
<polygon fill="white" stroke="black" points="485,-119.97 485,-138.97 621,-138.97 621,-119.97 485,-119.97"/>
<text text-anchor="middle" x="553" y="-126.97" font-family="Helvetica,sans-Serif" font-size="10.00">TMC2208Stepper::calcCRC</text>
</a>
</g>
</g>
<!-- Node3&#45;&gt;Node10 -->
<g id="edge10" class="edge"><title>Node3&#45;&gt;Node10</title>
<path fill="none" stroke="midnightblue" d="M414.431,-101.059C439.149,-106.163 469.739,-112.481 495.792,-117.861"/>
<polygon fill="midnightblue" stroke="midnightblue" points="495.402,-121.355 505.903,-119.95 496.817,-114.499 495.402,-121.355"/>
</g>
<!-- Node11 -->
<g id="node11" class="node"><title>Node11</title>
<g id="a_node11"><a xlink:href="../../d6/d7e/class_t_m_c2208_stepper.html#a673ade174158b47e3b345b1d7b3c473d" target="_top" xlink:title=" ">
<polygon fill="white" stroke="black" points="461,-81.9696 461,-100.97 645,-100.97 645,-81.9696 461,-81.9696"/>
<text text-anchor="middle" x="553" y="-88.9696" font-family="Helvetica,sans-Serif" font-size="10.00">TMC2208Stepper::postCommunication</text>
</a>
</g>
</g>
<!-- Node3&#45;&gt;Node11 -->
<g id="edge11" class="edge"><title>Node3&#45;&gt;Node11</title>
<path fill="none" stroke="midnightblue" d="M425.21,-91.4696C433.323,-91.4696 441.86,-91.4696 450.51,-91.4696"/>
<polygon fill="midnightblue" stroke="midnightblue" points="450.697,-94.9697 460.697,-91.4696 450.697,-87.9697 450.697,-94.9697"/>
</g>
<!-- Node12 -->
<g id="node12" class="node"><title>Node12</title>
<g id="a_node12"><a xlink:href="../../d6/d7e/class_t_m_c2208_stepper.html#a0ba01db6c4c01da7cb0ace8a524ab1da" target="_top" xlink:title=" ">
<polygon fill="white" stroke="black" points="463.5,-43.9696 463.5,-62.9696 642.5,-62.9696 642.5,-43.9696 463.5,-43.9696"/>
<text text-anchor="middle" x="553" y="-50.9696" font-family="Helvetica,sans-Serif" font-size="10.00">TMC2208Stepper::preCommunication</text>
</a>
</g>
</g>
<!-- Node3&#45;&gt;Node12 -->
<g id="edge12" class="edge"><title>Node3&#45;&gt;Node12</title>
<path fill="none" stroke="midnightblue" d="M414.431,-81.8806C439.149,-76.7758 469.739,-70.4583 495.792,-65.0778"/>
<polygon fill="midnightblue" stroke="midnightblue" points="496.817,-68.44 505.903,-62.9897 495.402,-61.5846 496.817,-68.44"/>
</g>
<!-- Node5 -->
<g id="node5" class="node"><title>Node5</title>
<g id="a_node5"><a xlink:href="../../d6/d7e/class_t_m_c2208_stepper.html#a7a670b15f45466f8d167a9b80fbf384f" target="_top" xlink:title=" ">
<polygon fill="white" stroke="black" points="686.5,-207.97 686.5,-226.97 820.5,-226.97 820.5,-207.97 686.5,-207.97"/>
<text text-anchor="middle" x="753.5" y="-214.97" font-family="Helvetica,sans-Serif" font-size="10.00">TMC2208Stepper::available</text>
</a>
</g>
</g>
<!-- Node4&#45;&gt;Node5 -->
<g id="edge4" class="edge"><title>Node4&#45;&gt;Node5</title>
<path fill="none" stroke="midnightblue" d="M591.804,-176.992C623.849,-185.064 669.983,-196.684 704.607,-205.406"/>
<polygon fill="midnightblue" stroke="midnightblue" points="703.948,-208.849 714.5,-207.898 705.657,-202.061 703.948,-208.849"/>
</g>
<!-- Node6 -->
<g id="node6" class="node"><title>Node6</title>
<g id="a_node6"><a xlink:href="../../d6/d7e/class_t_m_c2208_stepper.html#a4ec5d2b2f5a31259c7aba1f3208d63b8" target="_top" xlink:title=" ">
<polygon fill="white" stroke="black" points="695.5,-169.97 695.5,-188.97 811.5,-188.97 811.5,-169.97 695.5,-169.97"/>
<text text-anchor="middle" x="753.5" y="-176.97" font-family="Helvetica,sans-Serif" font-size="10.00">TMC2208Stepper::ms2</text>
</a>
</g>
</g>
<!-- Node4&#45;&gt;Node6 -->
<g id="edge5" class="edge"><title>Node4&#45;&gt;Node6</title>
<path fill="none" stroke="midnightblue" d="M636.17,-172.437C652.532,-173.426 669.531,-174.454 685.318,-175.408"/>
<polygon fill="midnightblue" stroke="midnightblue" points="685.305,-178.914 695.498,-176.024 685.727,-171.927 685.305,-178.914"/>
</g>
<!-- Node8 -->
<g id="node8" class="node"><title>Node8</title>
<g id="a_node8"><a xlink:href="../../d6/d7e/class_t_m_c2208_stepper.html#a129ceb04c3ea18e2c4ec1a59a51ece85" target="_top" xlink:title=" ">
<polygon fill="white" stroke="black" points="681,-131.97 681,-150.97 826,-150.97 826,-131.97 681,-131.97"/>
<text text-anchor="middle" x="753.5" y="-138.97" font-family="Helvetica,sans-Serif" font-size="10.00">TMC2208Stepper::serial_read</text>
</a>
</g>
</g>
<!-- Node4&#45;&gt;Node8 -->
<g id="edge8" class="edge"><title>Node4&#45;&gt;Node8</title>
<path fill="none" stroke="midnightblue" d="M626.787,-157.936C641.081,-156.064 656.166,-154.088 670.731,-152.18"/>
<polygon fill="midnightblue" stroke="midnightblue" points="671.256,-155.641 680.716,-150.872 670.346,-148.7 671.256,-155.641"/>
</g>
<!-- Node9 -->
<g id="node9" class="node"><title>Node9</title>
<g id="a_node9"><a xlink:href="../../d6/d7e/class_t_m_c2208_stepper.html#aa7f2c1a3a1cda9a328c186c6d7cbfe41" target="_top" xlink:title=" ">
<polygon fill="white" stroke="black" points="693,-82.4696 693,-112.47 814,-112.47 814,-82.4696 693,-82.4696"/>
<text text-anchor="start" x="701" y="-100.47" font-family="Helvetica,sans-Serif" font-size="10.00">TMC2208Stepper::serial</text>
<text text-anchor="middle" x="753.5" y="-89.4696" font-family="Helvetica,sans-Serif" font-size="10.00">_write</text>
</a>
</g>
</g>
<!-- Node4&#45;&gt;Node9 -->
<g id="edge9" class="edge"><title>Node4&#45;&gt;Node9</title>
<path fill="none" stroke="midnightblue" d="M617.251,-157.863C626.759,-155.397 636.289,-152.315 645,-148.47 663.056,-140.5 663.502,-131.6 681,-122.47 685.044,-120.36 689.305,-118.362 693.65,-116.486"/>
<polygon fill="midnightblue" stroke="midnightblue" points="695.304,-119.591 703.243,-112.575 692.662,-113.109 695.304,-119.591"/>
</g>
<!-- Node7 -->
<g id="node7" class="node"><title>Node7</title>
<g id="a_node7"><a xlink:href="../../d6/d7e/class_t_m_c2208_stepper.html#a5441dd87d0bcea4ffc309cb012166a57" target="_top" xlink:title=" ">
<polygon fill="white" stroke="black" points="862,-87.9696 862,-106.97 978,-106.97 978,-87.9696 862,-87.9696"/>
<text text-anchor="middle" x="920" y="-94.9696" font-family="Helvetica,sans-Serif" font-size="10.00">TMC2208Stepper::IOIN</text>
</a>
</g>
</g>
<!-- Node6&#45;&gt;Node7 -->
<g id="edge6" class="edge"><title>Node6&#45;&gt;Node7</title>
<path fill="none" stroke="midnightblue" d="M799.551,-169.968C808.507,-167.396 817.702,-164.251 826,-160.47 853.451,-147.961 881.683,-127.566 899.73,-113.383"/>
<polygon fill="midnightblue" stroke="midnightblue" points="902.106,-115.965 907.723,-106.982 897.73,-110.501 902.106,-115.965"/>
</g>
<!-- Node7&#45;&gt;Node3 -->
<g id="edge7" class="edge"><title>Node7&#45;&gt;Node3</title>
<path fill="none" stroke="midnightblue" d="M909.209,-87.8203C893.34,-72.9361 860.305,-44.9951 826,-34.4696 670.914,13.1145 617.13,9.56986 461,-34.4696 432.807,-42.4221 404.729,-61.5756 386.921,-75.4902"/>
<polygon fill="midnightblue" stroke="midnightblue" points="384.643,-72.8308 379.049,-81.8281 389.033,-78.2834 384.643,-72.8308"/>
</g>
<!-- Node13 -->
<g id="node13" class="node"><title>Node13</title>
<g id="a_node13"><a xlink:href="../../d9/d98/class_s_switch.html#a6ff09d0850d551571dc333fb74ff8628" target="_top" xlink:title=" ">
<polygon fill="white" stroke="black" points="712,-43.9696 712,-62.9696 795,-62.9696 795,-43.9696 712,-43.9696"/>
<text text-anchor="middle" x="753.5" y="-50.9696" font-family="Helvetica,sans-Serif" font-size="10.00">SSwitch::active</text>
</a>
</g>
</g>
<!-- Node12&#45;&gt;Node13 -->
<g id="edge13" class="edge"><title>Node12&#45;&gt;Node13</title>
<path fill="none" stroke="midnightblue" d="M642.51,-53.4696C662.828,-53.4696 683.753,-53.4696 701.826,-53.4696"/>
<polygon fill="midnightblue" stroke="midnightblue" points="701.83,-56.9697 711.83,-53.4696 701.83,-49.9697 701.83,-56.9697"/>
</g>
</g>
</svg>
