<?xml version="1.0" encoding="UTF-8" standalone="no"?>
<!DOCTYPE svg PUBLIC "-//W3C//DTD SVG 1.1//EN"
 "http://www.w3.org/Graphics/SVG/1.1/DTD/svg11.dtd">
<!-- Generated by graphviz version 2.38.0 (20140413.2041)
 -->
<!-- Title: TMC2224Stepper::spread Pages: 1 -->
<svg width="992pt" height="235pt"
 viewBox="0.00 0.00 992.00 235.47" xmlns="http://www.w3.org/2000/svg" xmlns:xlink="http://www.w3.org/1999/xlink">
<g id="graph0" class="graph" transform="scale(1 1) rotate(0) translate(4 231.47)">
<title>TMC2224Stepper::spread</title>
<polygon fill="white" stroke="none" points="-4,4 -4,-231.47 988,-231.47 988,4 -4,4"/>
<!-- Node1 -->
<g id="node1" class="node"><title>Node1</title>
<g id="a_node1"><a xlink:title=" ">
<polygon fill="#bfbfbf" stroke="black" points="0,-81.9696 0,-100.97 127,-100.97 127,-81.9696 0,-81.9696"/>
<text text-anchor="middle" x="63.5" y="-88.9696" font-family="Helvetica,sans-Serif" font-size="10.00">TMC2224Stepper::spread</text>
</a>
</g>
</g>
<!-- Node2 -->
<g id="node2" class="node"><title>Node2</title>
<g id="a_node2"><a xlink:href="../../d8/d7d/class_t_m_c2224_stepper.html#aa5fa836e15992bc49e0297ef2126f725" target="_top" xlink:title=" ">
<polygon fill="white" stroke="black" points="163,-81.9696 163,-100.97 279,-100.97 279,-81.9696 163,-81.9696"/>
<text text-anchor="middle" x="221" y="-88.9696" font-family="Helvetica,sans-Serif" font-size="10.00">TMC2224Stepper::IOIN</text>
</a>
</g>
</g>
<!-- Node1&#45;&gt;Node2 -->
<g id="edge1" class="edge"><title>Node1&#45;&gt;Node2</title>
<path fill="none" stroke="midnightblue" d="M127.3,-91.4696C135.689,-91.4696 144.32,-91.4696 152.781,-91.4696"/>
<polygon fill="midnightblue" stroke="midnightblue" points="152.991,-94.9697 162.991,-91.4696 152.991,-87.9697 152.991,-94.9697"/>
</g>
<!-- Node3 -->
<g id="node3" class="node"><title>Node3</title>
<g id="a_node3"><a xlink:href="../../d6/d7e/class_t_m_c2208_stepper.html#a2fae2050849c3ab7968012def8ea1cc5" target="_top" xlink:title=" ">
<polygon fill="white" stroke="black" points="315,-81.9696 315,-100.97 431,-100.97 431,-81.9696 315,-81.9696"/>
<text text-anchor="middle" x="373" y="-88.9696" font-family="Helvetica,sans-Serif" font-size="10.00">TMC2208Stepper::read</text>
</a>
</g>
</g>
<!-- Node2&#45;&gt;Node3 -->
<g id="edge2" class="edge"><title>Node2&#45;&gt;Node3</title>
<path fill="none" stroke="midnightblue" d="M279.136,-91.4696C287.377,-91.4696 295.923,-91.4696 304.344,-91.4696"/>
<polygon fill="midnightblue" stroke="midnightblue" points="304.526,-94.9697 314.525,-91.4696 304.525,-87.9697 304.526,-94.9697"/>
</g>
<!-- Node4 -->
<g id="node4" class="node"><title>Node4</title>
<g id="a_node4"><a xlink:href="../../d6/d7e/class_t_m_c2208_stepper.html#a321ad81155b7a20c0858920d32d0b074" target="_top" xlink:title=" ">
<polygon fill="white" stroke="black" points="476,-157.97 476,-176.97 642,-176.97 642,-157.97 476,-157.97"/>
<text text-anchor="middle" x="559" y="-164.97" font-family="Helvetica,sans-Serif" font-size="10.00">TMC2208Stepper::_sendDatagram</text>
</a>
</g>
</g>
<!-- Node3&#45;&gt;Node4 -->
<g id="edge3" class="edge"><title>Node3&#45;&gt;Node4</title>
<path fill="none" stroke="midnightblue" d="M386.494,-101.088C403.681,-113.843 436.022,-136.174 467,-148.47 473.6,-151.089 480.62,-153.37 487.72,-155.35"/>
<polygon fill="midnightblue" stroke="midnightblue" points="486.861,-158.743 497.42,-157.869 488.62,-151.968 486.861,-158.743"/>
</g>
<!-- Node10 -->
<g id="node10" class="node"><title>Node10</title>
<g id="a_node10"><a xlink:href="../../d6/d7e/class_t_m_c2208_stepper.html#a409c19fa6b052a370a317d061bf9af4e" target="_top" xlink:title=" ">
<polygon fill="white" stroke="black" points="491,-119.97 491,-138.97 627,-138.97 627,-119.97 491,-119.97"/>
<text text-anchor="middle" x="559" y="-126.97" font-family="Helvetica,sans-Serif" font-size="10.00">TMC2208Stepper::calcCRC</text>
</a>
</g>
</g>
<!-- Node3&#45;&gt;Node10 -->
<g id="edge10" class="edge"><title>Node3&#45;&gt;Node10</title>
<path fill="none" stroke="midnightblue" d="M420.431,-101.059C445.149,-106.163 475.739,-112.481 501.792,-117.861"/>
<polygon fill="midnightblue" stroke="midnightblue" points="501.402,-121.355 511.903,-119.95 502.817,-114.499 501.402,-121.355"/>
</g>
<!-- Node11 -->
<g id="node11" class="node"><title>Node11</title>
<g id="a_node11"><a xlink:href="../../d6/d7e/class_t_m_c2208_stepper.html#a673ade174158b47e3b345b1d7b3c473d" target="_top" xlink:title=" ">
<polygon fill="white" stroke="black" points="467,-81.9696 467,-100.97 651,-100.97 651,-81.9696 467,-81.9696"/>
<text text-anchor="middle" x="559" y="-88.9696" font-family="Helvetica,sans-Serif" font-size="10.00">TMC2208Stepper::postCommunication</text>
</a>
</g>
</g>
<!-- Node3&#45;&gt;Node11 -->
<g id="edge11" class="edge"><title>Node3&#45;&gt;Node11</title>
<path fill="none" stroke="midnightblue" d="M431.21,-91.4696C439.323,-91.4696 447.86,-91.4696 456.51,-91.4696"/>
<polygon fill="midnightblue" stroke="midnightblue" points="456.697,-94.9697 466.697,-91.4696 456.697,-87.9697 456.697,-94.9697"/>
</g>
<!-- Node12 -->
<g id="node12" class="node"><title>Node12</title>
<g id="a_node12"><a xlink:href="../../d6/d7e/class_t_m_c2208_stepper.html#a0ba01db6c4c01da7cb0ace8a524ab1da" target="_top" xlink:title=" ">
<polygon fill="white" stroke="black" points="469.5,-43.9696 469.5,-62.9696 648.5,-62.9696 648.5,-43.9696 469.5,-43.9696"/>
<text text-anchor="middle" x="559" y="-50.9696" font-family="Helvetica,sans-Serif" font-size="10.00">TMC2208Stepper::preCommunication</text>
</a>
</g>
</g>
<!-- Node3&#45;&gt;Node12 -->
<g id="edge12" class="edge"><title>Node3&#45;&gt;Node12</title>
<path fill="none" stroke="midnightblue" d="M420.431,-81.8806C445.149,-76.7758 475.739,-70.4583 501.792,-65.0778"/>
<polygon fill="midnightblue" stroke="midnightblue" points="502.817,-68.44 511.903,-62.9897 501.402,-61.5846 502.817,-68.44"/>
</g>
<!-- Node5 -->
<g id="node5" class="node"><title>Node5</title>
<g id="a_node5"><a xlink:href="../../d6/d7e/class_t_m_c2208_stepper.html#a7a670b15f45466f8d167a9b80fbf384f" target="_top" xlink:title=" ">
<polygon fill="white" stroke="black" points="692.5,-207.97 692.5,-226.97 826.5,-226.97 826.5,-207.97 692.5,-207.97"/>
<text text-anchor="middle" x="759.5" y="-214.97" font-family="Helvetica,sans-Serif" font-size="10.00">TMC2208Stepper::available</text>
</a>
</g>
</g>
<!-- Node4&#45;&gt;Node5 -->
<g id="edge4" class="edge"><title>Node4&#45;&gt;Node5</title>
<path fill="none" stroke="midnightblue" d="M597.804,-176.992C629.849,-185.064 675.983,-196.684 710.607,-205.406"/>
<polygon fill="midnightblue" stroke="midnightblue" points="709.948,-208.849 720.5,-207.898 711.657,-202.061 709.948,-208.849"/>
</g>
<!-- Node6 -->
<g id="node6" class="node"><title>Node6</title>
<g id="a_node6"><a xlink:href="../../d6/d7e/class_t_m_c2208_stepper.html#a4ec5d2b2f5a31259c7aba1f3208d63b8" target="_top" xlink:title=" ">
<polygon fill="white" stroke="black" points="701.5,-169.97 701.5,-188.97 817.5,-188.97 817.5,-169.97 701.5,-169.97"/>
<text text-anchor="middle" x="759.5" y="-176.97" font-family="Helvetica,sans-Serif" font-size="10.00">TMC2208Stepper::ms2</text>
</a>
</g>
</g>
<!-- Node4&#45;&gt;Node6 -->
<g id="edge5" class="edge"><title>Node4&#45;&gt;Node6</title>
<path fill="none" stroke="midnightblue" d="M642.17,-172.437C658.532,-173.426 675.531,-174.454 691.318,-175.408"/>
<polygon fill="midnightblue" stroke="midnightblue" points="691.305,-178.914 701.498,-176.024 691.727,-171.927 691.305,-178.914"/>
</g>
<!-- Node8 -->
<g id="node8" class="node"><title>Node8</title>
<g id="a_node8"><a xlink:href="../../d6/d7e/class_t_m_c2208_stepper.html#a129ceb04c3ea18e2c4ec1a59a51ece85" target="_top" xlink:title=" ">
<polygon fill="white" stroke="black" points="687,-131.97 687,-150.97 832,-150.97 832,-131.97 687,-131.97"/>
<text text-anchor="middle" x="759.5" y="-138.97" font-family="Helvetica,sans-Serif" font-size="10.00">TMC2208Stepper::serial_read</text>
</a>
</g>
</g>
<!-- Node4&#45;&gt;Node8 -->
<g id="edge8" class="edge"><title>Node4&#45;&gt;Node8</title>
<path fill="none" stroke="midnightblue" d="M632.787,-157.936C647.081,-156.064 662.166,-154.088 676.731,-152.18"/>
<polygon fill="midnightblue" stroke="midnightblue" points="677.256,-155.641 686.716,-150.872 676.346,-148.7 677.256,-155.641"/>
</g>
<!-- Node9 -->
<g id="node9" class="node"><title>Node9</title>
<g id="a_node9"><a xlink:href="../../d6/d7e/class_t_m_c2208_stepper.html#aa7f2c1a3a1cda9a328c186c6d7cbfe41" target="_top" xlink:title=" ">
<polygon fill="white" stroke="black" points="699,-82.4696 699,-112.47 820,-112.47 820,-82.4696 699,-82.4696"/>
<text text-anchor="start" x="707" y="-100.47" font-family="Helvetica,sans-Serif" font-size="10.00">TMC2208Stepper::serial</text>
<text text-anchor="middle" x="759.5" y="-89.4696" font-family="Helvetica,sans-Serif" font-size="10.00">_write</text>
</a>
</g>
</g>
<!-- Node4&#45;&gt;Node9 -->
<g id="edge9" class="edge"><title>Node4&#45;&gt;Node9</title>
<path fill="none" stroke="midnightblue" d="M623.251,-157.863C632.759,-155.397 642.289,-152.315 651,-148.47 669.056,-140.5 669.502,-131.6 687,-122.47 691.044,-120.36 695.305,-118.362 699.65,-116.486"/>
<polygon fill="midnightblue" stroke="midnightblue" points="701.304,-119.591 709.243,-112.575 698.662,-113.109 701.304,-119.591"/>
</g>
<!-- Node7 -->
<g id="node7" class="node"><title>Node7</title>
<g id="a_node7"><a xlink:href="../../d6/d7e/class_t_m_c2208_stepper.html#a5441dd87d0bcea4ffc309cb012166a57" target="_top" xlink:title=" ">
<polygon fill="white" stroke="black" points="868,-87.9696 868,-106.97 984,-106.97 984,-87.9696 868,-87.9696"/>
<text text-anchor="middle" x="926" y="-94.9696" font-family="Helvetica,sans-Serif" font-size="10.00">TMC2208Stepper::IOIN</text>
</a>
</g>
</g>
<!-- Node6&#45;&gt;Node7 -->
<g id="edge6" class="edge"><title>Node6&#45;&gt;Node7</title>
<path fill="none" stroke="midnightblue" d="M805.551,-169.968C814.507,-167.396 823.702,-164.251 832,-160.47 859.451,-147.961 887.683,-127.566 905.73,-113.383"/>
<polygon fill="midnightblue" stroke="midnightblue" points="908.106,-115.965 913.723,-106.982 903.73,-110.501 908.106,-115.965"/>
</g>
<!-- Node7&#45;&gt;Node3 -->
<g id="edge7" class="edge"><title>Node7&#45;&gt;Node3</title>
<path fill="none" stroke="midnightblue" d="M915.209,-87.8203C899.34,-72.9361 866.305,-44.9951 832,-34.4696 676.914,13.1145 623.13,9.56986 467,-34.4696 438.807,-42.4221 410.729,-61.5756 392.921,-75.4902"/>
<polygon fill="midnightblue" stroke="midnightblue" points="390.643,-72.8308 385.049,-81.8281 395.033,-78.2834 390.643,-72.8308"/>
</g>
<!-- Node13 -->
<g id="node13" class="node"><title>Node13</title>
<g id="a_node13"><a xlink:href="../../d9/d98/class_s_switch.html#a6ff09d0850d551571dc333fb74ff8628" target="_top" xlink:title=" ">
<polygon fill="white" stroke="black" points="718,-43.9696 718,-62.9696 801,-62.9696 801,-43.9696 718,-43.9696"/>
<text text-anchor="middle" x="759.5" y="-50.9696" font-family="Helvetica,sans-Serif" font-size="10.00">SSwitch::active</text>
</a>
</g>
</g>
<!-- Node12&#45;&gt;Node13 -->
<g id="edge13" class="edge"><title>Node12&#45;&gt;Node13</title>
<path fill="none" stroke="midnightblue" d="M648.51,-53.4696C668.828,-53.4696 689.753,-53.4696 707.826,-53.4696"/>
<polygon fill="midnightblue" stroke="midnightblue" points="707.83,-56.9697 717.83,-53.4696 707.83,-49.9697 707.83,-56.9697"/>
</g>
</g>
</svg>
